<svg xmlns="http://www.w3.org/2000/svg" width="56" height="56" viewBox="0 0 56 56"><path d="M 27.9999 51.9062 C 41.0546 51.9062 51.9063 41.0547 51.9063 28.0000 C 51.9063 14.9219 41.0312 4.0938 27.9765 4.0938 C 14.8983 4.0938 4.0937 14.9219 4.0937 28.0000 C 4.0937 41.0547 14.9218 51.9062 27.9999 51.9062 Z M 27.9999 42.5547 C 24.3436 42.5547 21.1562 38.6172 21.1562 34.3984 C 21.1562 33.7187 21.2733 33.1797 21.5077 32.7109 C 21.1562 32.8047 20.7577 32.8984 20.3827 32.9922 C 19.5155 33.2266 19.2343 33.6016 19.3514 34.375 L 20.3124 40.5859 C 20.4062 41.3125 19.9609 41.7578 19.3749 41.7578 C 18.7421 41.7578 18.4609 41.3359 18.3436 40.7266 L 17.2890 34.0234 C 17.0546 32.5000 17.6640 31.6797 19.3280 31.2813 L 25.0234 29.9453 L 25.0234 29.8047 C 24.4609 29.5469 24.0858 28.9844 23.9218 28.4219 L 20.1014 27.8594 C 18.4843 27.625 17.7577 26.7344 17.7577 25.1406 L 17.7577 20.6875 C 17.7577 20.0547 18.1327 19.7031 18.7421 19.7031 C 19.3514 19.7031 19.7030 20.0781 19.7030 20.6875 L 19.7030 24.7422 C 19.7030 25.6562 20.1952 25.9609 21.0390 26.0781 L 23.8514 26.4766 C 23.9921 26.0781 24.2499 25.7266 24.6249 25.4922 L 24.6249 25.3516 C 22.4218 24.9531 21.3202 23.6406 21.3202 21.6484 C 21.3202 20.0078 21.9296 18.4609 22.9843 17.2891 L 22.8905 17.2187 C 21.5546 16.4687 21.4140 14.9922 22.2343 13.5625 L 23.0077 12.2969 C 23.2421 11.875 23.5234 11.6640 23.9452 11.6640 C 24.4374 11.6640 24.8358 12.0391 24.8358 12.5547 C 24.8358 12.7891 24.8124 12.9062 24.6483 13.1640 L 23.9687 14.2187 C 23.5468 14.8984 23.5702 15.4844 24.0155 15.9062 C 24.1327 16.0000 24.2030 16.0469 24.3202 16.1172 C 25.3749 15.3906 26.6405 14.9687 27.9999 14.9687 C 29.6171 14.9687 30.7890 15.5078 31.7265 16.1172 C 31.7968 16.0703 31.9140 16.0000 32.0077 15.9062 C 32.4530 15.4844 32.4765 14.8984 32.0780 14.2187 L 31.3749 13.1640 C 31.2343 12.9062 31.2109 12.7891 31.2109 12.5547 C 31.2109 12.0391 31.5858 11.6640 32.1249 11.6640 C 32.4999 11.6640 32.7812 11.875 33.0155 12.2969 L 33.7890 13.5625 C 34.6093 14.9922 34.3983 16.3281 33.1562 17.2187 L 33.0155 17.3360 C 34.0468 18.4844 34.6796 20.0078 34.6796 21.6484 C 34.6796 23.6406 33.5780 24.9531 31.3749 25.3516 L 31.3749 25.4922 C 31.7265 25.7266 31.9843 26.0781 32.1249 26.4766 L 34.9609 26.0781 C 35.8046 25.9609 36.2733 25.6562 36.2733 24.7422 L 36.2733 20.6875 C 36.2733 20.0781 36.6483 19.7031 37.2577 19.7031 C 37.8436 19.7031 38.2421 20.0547 38.2421 20.6875 L 38.2421 25.1406 C 38.2421 26.7344 37.4921 27.625 35.8983 27.8594 L 32.0780 28.4219 C 31.9140 28.9844 31.5155 29.5469 30.9765 29.8047 L 30.9765 29.9453 L 36.6483 31.2813 C 38.3124 31.6797 38.9218 32.5000 38.6874 34.0234 L 37.6327 40.7266 C 37.5155 41.3359 37.2577 41.7578 36.6014 41.7578 C 36.0155 41.7578 35.5702 41.3125 35.6874 40.5859 L 36.6249 34.375 C 36.7655 33.6016 36.4609 33.2266 35.5936 32.9922 C 35.2421 32.8984 34.8436 32.8047 34.4687 32.7109 C 34.7030 33.1797 34.8202 33.7187 34.8202 34.3984 C 34.8202 38.6172 31.6327 42.5547 27.9999 42.5547 Z"/></svg>