<svg xmlns="http://www.w3.org/2000/svg" width="56" height="56" viewBox="0 0 56 56"><path d="M 13.7851 49.5742 L 42.2382 49.5742 C 47.1366 49.5742 49.5743 47.1367 49.5743 42.3086 L 49.5743 13.6914 C 49.5743 8.8633 47.1366 6.4258 42.2382 6.4258 L 13.7851 6.4258 C 8.9101 6.4258 6.4257 8.8398 6.4257 13.6914 L 6.4257 42.3086 C 6.4257 47.1602 8.9101 49.5742 13.7851 49.5742 Z M 13.8554 45.8008 C 11.5117 45.8008 10.1992 44.5586 10.1992 42.1211 L 10.1992 13.8789 C 10.1992 11.4414 11.5117 10.1992 13.8554 10.1992 L 42.1679 10.1992 C 44.4882 10.1992 45.8007 11.4414 45.8007 13.8789 L 45.8007 42.1211 C 45.8007 44.5586 44.4882 45.8008 42.1679 45.8008 Z M 13.0585 27.9414 C 13.0585 28.4805 13.2929 28.8789 13.7382 29.3242 L 21.6601 37.2461 C 21.9648 37.5508 22.3866 37.7383 22.8788 37.7383 C 23.8398 37.7383 24.5663 36.9883 24.5663 36.0274 C 24.5663 35.5118 24.3788 35.0898 24.0273 34.7852 L 21.0976 31.9023 L 18.2617 29.5118 L 23.2304 29.6992 L 32.8163 29.6992 L 37.7851 29.5118 L 34.9492 31.9023 L 32.0195 34.7852 C 31.6679 35.0898 31.4804 35.5118 31.4804 36.0274 C 31.4804 36.9883 32.2070 37.7383 33.1679 37.7383 C 33.6601 37.7383 34.0820 37.5508 34.3866 37.2461 L 42.3085 29.3242 C 42.7539 28.8789 42.9882 28.4805 42.9882 27.9414 C 42.9882 27.4492 42.7773 27.0508 42.3085 26.5820 L 34.3866 18.6133 C 34.0820 18.3086 33.6601 18.1445 33.1679 18.1445 C 32.2070 18.1445 31.4804 18.8945 31.4804 19.8320 C 31.4804 20.3477 31.6913 20.7696 32.0195 21.0977 L 34.9492 24.0039 L 37.7617 26.3711 L 32.8163 26.1836 L 23.2304 26.1836 L 18.2851 26.3711 L 21.0976 24.0039 L 24.0273 21.0977 C 24.3554 20.7696 24.5663 20.3477 24.5663 19.8320 C 24.5663 18.8945 23.8398 18.1445 22.8788 18.1445 C 22.3866 18.1445 21.9648 18.3086 21.6601 18.6133 L 13.7382 26.5820 C 13.2695 27.0508 13.0585 27.4492 13.0585 27.9414 Z"/></svg>