<svg xmlns="http://www.w3.org/2000/svg" width="56" height="56" viewBox="0 0 56 56"><path d="M 20.5816 48.3924 C 21.9916 48.3924 23.0439 47.3402 23.0439 45.9302 L 23.0439 42.0369 L 28.3261 47.0245 C 29.3783 47.9294 30.1780 48.3924 31.2092 48.3924 C 32.6403 48.3924 33.6714 47.3402 33.6714 45.9302 L 33.6714 37.8911 L 34.2818 37.8911 C 42.4258 37.8911 47.5818 39.9535 51.2647 46.8351 C 51.9801 48.1819 52.9481 48.3924 53.8532 48.3924 C 54.9686 48.3924 56 47.3823 56 45.5724 C 56 30.0204 49.4127 20.3188 34.2818 20.3188 L 33.6714 20.3188 L 33.6714 12.3639 C 33.6714 10.9539 32.6403 9.7755 31.1671 9.7755 C 30.1359 9.7755 29.5046 10.3016 28.3261 11.2907 L 23.0439 16.2151 L 23.0439 12.3639 C 23.0439 10.9539 21.9916 9.7755 20.5396 9.7755 C 19.4874 9.7755 18.8560 10.3016 17.6775 11.2907 L 1.0733 26.8216 C .2946 27.6003 0 28.3789 0 29.0945 C 0 29.7889 .2736 30.5886 1.0733 31.3462 L 17.6775 47.0245 C 18.7298 47.9294 19.5294 48.3924 20.5816 48.3924 Z M 19.0033 43.6784 L 4.0195 29.4943 C 3.8301 29.3259 3.7880 29.2207 3.7880 29.0945 C 3.7880 28.9682 3.8512 28.8419 4.0195 28.6946 L 19.0033 14.3211 C 19.0875 14.2369 19.2138 14.1527 19.3611 14.1527 C 19.5294 14.1527 19.6557 14.2790 19.6557 14.4474 L 19.6557 19.3929 L 11.7008 26.8216 C 10.9222 27.6003 10.6275 28.3789 10.6275 29.0945 C 10.6275 29.7889 10.9222 30.5676 11.7008 31.3462 L 19.6557 38.8381 L 19.6557 43.5521 C 19.6557 43.7415 19.5294 43.8678 19.3611 43.8678 C 19.2348 43.8678 19.1296 43.8047 19.0033 43.6784 Z M 29.9886 43.8678 C 29.8623 43.8678 29.7571 43.8047 29.6309 43.6784 L 14.6471 29.4943 C 14.4787 29.3259 14.4156 29.2207 14.4156 29.0945 C 14.4156 28.9682 14.4787 28.8419 14.6471 28.6946 L 29.6309 14.3211 C 29.7361 14.2369 29.8413 14.1527 29.9886 14.1527 C 30.1570 14.1527 30.2832 14.2790 30.2832 14.4474 L 30.2832 22.8021 C 30.2832 23.2861 30.4937 23.4966 30.9777 23.4966 L 33.8187 23.4966 C 48.2555 23.4966 52.5904 33.5138 53.0115 43.4469 C 53.0115 43.5942 52.9481 43.6784 52.8641 43.6784 C 52.7800 43.6784 52.7378 43.6153 52.6538 43.4679 C 50.2544 38.1437 43.7938 34.7134 33.8187 34.7134 L 30.9777 34.7134 C 30.4937 34.7134 30.2832 34.9238 30.2832 35.4078 L 30.2832 43.5521 C 30.2832 43.7415 30.1780 43.8678 29.9886 43.8678 Z"/></svg>