<svg xmlns="http://www.w3.org/2000/svg" width="56" height="56" viewBox="0 0 56 56"><path d="M 27.9999 51.9063 C 41.0546 51.9063 51.9063 41.0781 51.9063 28 C 51.9063 14.9453 41.0312 4.0937 27.9765 4.0937 C 14.8983 4.0937 4.0937 14.9453 4.0937 28 C 4.0937 41.0781 14.9218 51.9063 27.9999 51.9063 Z M 35.2655 21.6250 C 36.3905 21.6250 37.1171 22.4688 37.1171 23.6875 L 37.1171 35.8516 C 37.1171 37.3750 36.3202 37.9844 34.9843 37.9844 L 22.7265 37.9844 C 21.5312 37.9844 20.7343 37.2578 20.7343 36.0859 C 20.7343 34.9609 21.5546 34.1875 22.7733 34.1875 L 27.4843 34.1875 L 31.3046 34.6094 L 27.2733 30.8594 L 17.7577 21.3437 C 17.3827 20.9688 17.1483 20.4766 17.1483 19.9609 C 17.1483 18.7890 17.8749 18.0390 19.0234 18.0390 C 19.6562 18.0390 20.1249 18.25 20.4999 18.6250 L 30.0155 28.1406 L 33.7421 32.1250 L 33.3671 28.0937 L 33.3671 23.6172 C 33.3671 22.3984 34.0936 21.6250 35.2655 21.6250 Z"/></svg>