<svg xmlns="http://www.w3.org/2000/svg" width="56" height="56" viewBox="0 0 56 56"><path d="M 28 51.0742 C 28.5859 51.0742 29.1250 50.8633 29.5703 50.3945 L 42.9766 36.7305 C 43.3750 36.3320 43.6094 35.7227 43.6094 35.2071 C 43.6094 33.9649 42.7656 33.1445 41.5469 33.1445 C 40.9375 33.1445 40.4922 33.3555 40.1172 33.7071 L 33.6484 40.3398 L 29.8750 44.7227 L 30.1094 39.2851 L 30.1094 16.7149 L 29.8750 11.2773 L 33.6484 15.6602 L 40.1172 22.2930 C 40.4922 22.6445 40.9375 22.8555 41.5469 22.8555 C 42.7656 22.8555 43.6094 22.0352 43.6094 20.7930 C 43.6094 20.2773 43.3750 19.6680 42.9766 19.2695 L 29.5703 5.6055 C 29.1250 5.1367 28.5859 4.9258 28 4.9258 C 27.4375 4.9258 26.8984 5.1367 26.4297 5.6055 L 13.0469 19.2695 C 12.6484 19.6680 12.3906 20.2773 12.3906 20.7930 C 12.3906 22.0352 13.2578 22.8555 14.4531 22.8555 C 15.0625 22.8555 15.5312 22.6445 15.9063 22.2930 L 22.3516 15.6602 L 26.1484 11.2773 L 25.9141 16.7149 L 25.9141 39.2851 L 26.1484 44.7227 L 22.3516 40.3398 L 15.9063 33.7071 C 15.5312 33.3555 15.0625 33.1445 14.4531 33.1445 C 13.2578 33.1445 12.3906 33.9649 12.3906 35.2071 C 12.3906 35.7227 12.6484 36.3320 13.0469 36.7305 L 26.4297 50.3945 C 26.8984 50.8633 27.4375 51.0742 28 51.0742 Z"/></svg>