<svg xmlns="http://www.w3.org/2000/svg" width="56" height="56" viewBox="0 0 56 56"><path d="M 13.7851 49.5742 L 42.2382 49.5742 C 47.1366 49.5742 49.5743 47.1367 49.5743 42.3086 L 49.5743 13.6914 C 49.5743 8.8633 47.1366 6.4258 42.2382 6.4258 L 13.7851 6.4258 C 8.9101 6.4258 6.4257 8.8398 6.4257 13.6914 L 6.4257 42.3086 C 6.4257 47.1602 8.9101 49.5742 13.7851 49.5742 Z M 42.2851 27.9414 C 42.2851 28.5508 42.0507 29.0196 41.5351 29.5352 L 32.5585 38.4883 C 32.2070 38.8164 31.7382 39.0508 31.1757 39.0508 C 30.0742 39.0508 29.2070 38.2071 29.2070 37.1055 C 29.2070 36.5196 29.4648 36.0274 29.8163 35.6758 L 33.1210 32.4414 L 36.3085 29.7461 L 30.6601 29.9571 L 16.9257 29.9571 C 15.7304 29.9571 14.9335 29.1133 14.9335 27.9414 C 14.9335 26.7696 15.7304 25.9258 16.9257 25.9258 L 30.6601 25.9258 L 36.2851 26.1602 L 33.1210 23.4883 L 29.8163 20.2071 C 29.4882 19.8789 29.2070 19.3633 29.2070 18.8008 C 29.2070 17.6992 30.0742 16.8555 31.1757 16.8555 C 31.7382 16.8555 32.2070 17.0430 32.5585 17.3945 L 41.5351 26.3711 C 42.0742 26.9102 42.2851 27.3789 42.2851 27.9414 Z"/></svg>