<svg xmlns="http://www.w3.org/2000/svg" width="56" height="56" viewBox="0 0 56 56"><path d="M 5.8516 34.9140 C 5.8516 43.8906 11.7579 49.8672 22.2344 49.8672 L 27.6485 49.8672 C 28.9376 49.8672 29.7813 48.9297 29.7813 47.7813 C 29.7813 46.6328 28.9376 45.6953 27.6485 45.6953 L 22.2579 45.6953 C 14.2657 45.6953 10.0469 41.0078 10.0469 34.6797 C 10.0469 28.375 14.2657 23.9687 22.2579 23.9687 L 38.3595 23.9687 L 43.8438 23.7344 L 39.4141 27.5313 L 32.6641 34.1172 C 32.2891 34.4922 32.0782 34.9375 32.0782 35.5469 C 32.0782 36.7656 32.8985 37.6094 34.1641 37.6094 C 34.6563 37.6094 35.2657 37.375 35.6641 36.9531 L 49.4452 23.4297 C 49.9376 22.9844 50.1484 22.4453 50.1484 21.8828 C 50.1484 21.2969 49.9376 20.7578 49.4452 20.3125 L 35.6641 6.7891 C 35.2657 6.3906 34.6563 6.1328 34.1641 6.1328 C 32.8985 6.1328 32.0782 6.9766 32.0782 8.1953 C 32.0782 8.8047 32.2891 9.2500 32.6641 9.625 L 39.4141 16.2344 L 43.8438 20.0313 L 38.3595 19.7734 L 22.6095 19.7734 C 11.9220 19.7734 5.8516 25.9609 5.8516 34.9140 Z"/></svg>