<svg xmlns="http://www.w3.org/2000/svg" width="56" height="56" viewBox="0 0 56 56"><path d="M 46.6445 44.2891 C 46.6445 43.3516 46.2227 42.6016 45.7305 41.6172 L 31.1289 11.5235 C 30.1445 9.5078 29.2305 8.8750 28.0117 8.8750 C 26.7695 8.8750 25.8554 9.5078 24.8711 11.5235 L 10.2695 41.6172 C 9.7773 42.6250 9.3555 43.3750 9.3555 44.3125 C 9.3555 46.0469 10.6914 47.1250 12.7305 47.1250 L 43.2695 47.1016 C 45.3320 47.1016 46.6445 46.0234 46.6445 44.2891 Z M 42.1680 43.1172 C 42.1680 43.2578 42.0742 43.3516 41.9102 43.3516 L 14.0898 43.3516 C 13.9258 43.3516 13.8320 43.2578 13.8320 43.1172 C 13.8320 43.0234 13.8789 42.9297 13.9258 42.8359 L 27.7305 14.1250 C 27.8008 14.0078 27.8711 13.9140 28.0117 13.9140 C 28.1289 13.9140 28.1992 14.0078 28.2695 14.1250 L 42.0742 42.8359 C 42.1211 42.9297 42.1680 43.0234 42.1680 43.1172 Z"/></svg>