<svg xmlns="http://www.w3.org/2000/svg" width="56" height="56" viewBox="0 0 56 56"><path d="M 14.5586 51.9531 L 42.1445 51.9531 C 46.3633 51.9531 48.8008 49.5156 48.8008 44.6875 L 48.8008 20.4297 C 48.8008 15.6016 46.3398 13.1641 41.4414 13.1641 L 37.7148 13.1641 C 37.5742 8.2422 33.3086 4.0469 28.0117 4.0469 C 22.6914 4.0469 18.4258 8.2422 18.2852 13.1641 L 14.5586 13.1641 C 9.6836 13.1641 7.1992 15.5781 7.1992 20.4297 L 7.1992 44.6875 C 7.1992 49.5391 9.6836 51.9531 14.5586 51.9531 Z M 28.0117 7.6094 C 31.3164 7.6094 33.8242 10.0938 33.9414 13.1641 L 22.0820 13.1641 C 22.1758 10.0938 24.6836 7.6094 28.0117 7.6094 Z M 14.6289 48.1797 C 12.2852 48.1797 10.9726 46.9375 10.9726 44.5000 L 10.9726 20.6172 C 10.9726 18.1797 12.2852 16.9375 14.6289 16.9375 L 41.3945 16.9375 C 43.6914 16.9375 45.0274 18.1797 45.0274 20.6172 L 45.0274 44.5000 C 45.0274 46.9375 43.6914 48.1797 42.0742 48.1797 Z"/></svg>