<svg xmlns="http://www.w3.org/2000/svg" width="56" height="56" viewBox="0 0 56 56"><path d="M 5.2892 21.9935 L 10.9031 21.9935 L 10.9031 18.8154 C 10.9031 16.7507 12.0630 15.6372 14.1508 15.6372 L 22.3861 15.6372 C 24.4739 15.6372 25.6338 16.7507 25.6338 18.8154 L 25.6338 21.9935 L 30.6446 21.9935 L 30.6446 18.8154 C 30.6446 16.7507 31.8045 15.6372 34.0084 15.6372 L 41.7333 15.6372 C 43.9373 15.6372 45.0970 16.7507 45.0970 18.8154 L 45.0970 21.9935 L 50.7108 21.9935 L 50.7108 15.6604 C 50.7108 11.5544 48.5305 9.4665 44.5402 9.4665 L 11.4598 9.4665 C 7.4930 9.4665 5.2892 11.5544 5.2892 15.6604 Z M 0 44.8668 C 0 46.0035 .7423 46.7226 1.9022 46.7226 L 3.2013 46.7226 C 4.3380 46.7226 5.0803 46.0035 5.0803 44.8668 L 5.0803 41.5726 C 5.3355 41.6422 6.0779 41.6886 6.6114 41.6886 L 49.4118 41.6886 C 49.9454 41.6886 50.6647 41.6422 50.9198 41.5726 L 50.9198 44.8668 C 50.9198 46.0035 51.6619 46.7226 52.7988 46.7226 L 54.1210 46.7226 C 55.2579 46.7226 56 46.0035 56 44.8668 L 56 31.6670 C 56 27.4682 53.6573 25.1716 49.4118 25.1716 L 6.5883 25.1716 C 2.3430 25.1716 0 27.4682 0 31.6670 Z"/></svg>