<svg width="100%" height="100%" viewBox="0 0 56 56" version="1.1" xmlns="http://www.w3.org/2000/svg">
    <g transform="matrix(1,0,0,1.02,-1.5,0.46)">
        <path d="M49,7.353C49,4.399 46.553,2 43.54,2L15.46,2C12.447,2 10,4.399 10,7.353L10,46.647C10,49.601 12.447,52 15.46,52L43.54,52C46.553,52 49,49.601 49,46.647L49,7.353ZM45,7.353L45,46.647C45,47.437 44.346,48.078 43.54,48.078L15.46,48.078C14.654,48.078 14,47.437 14,46.647C14,46.647 14,7.353 14,7.353C14,6.563 14.654,5.922 15.46,5.922L43.54,5.922C44.346,5.922 45,6.563 45,7.353Z"/>
    </g>
</svg>
