<svg xmlns="http://www.w3.org/2000/svg" width="56" height="56" viewBox="0 0 56 56"><path d="M 27.9999 51.9062 C 41.0546 51.9062 51.9063 41.0547 51.9063 28.0000 C 51.9063 14.9219 41.0312 4.0938 27.9765 4.0938 C 14.8983 4.0938 4.0937 14.9219 4.0937 28.0000 C 4.0937 41.0547 14.9218 51.9062 27.9999 51.9062 Z M 25.0468 42.3437 C 24.1562 43.4687 22.7030 42.8359 22.9609 41.4766 L 24.7421 31.7266 L 18.4140 31.7266 C 17.1249 31.7266 16.6796 30.6953 17.6874 29.4531 L 30.1562 13.5860 C 31.0468 12.4844 32.4999 13.1172 32.2655 14.4766 L 30.4609 24.2266 L 36.8124 24.2266 C 38.0780 24.2266 38.5234 25.2344 37.5390 26.4766 Z"/></svg>