<svg xmlns="http://www.w3.org/2000/svg" width="56" height="56" viewBox="0 0 56 56"><path d="M 12.6030 50.4905 C 13.3758 50.4905 13.9307 50.1140 14.8621 49.2421 L 20.6483 43.8720 C 19.5188 42.9803 18.6073 41.5733 18.6073 38.3433 L 18.6073 25.2052 C 18.6073 19.1217 22.3129 15.5152 28.3766 15.5152 L 42.2479 15.5152 L 42.2281 14.7622 C 41.9306 10.6999 39.2557 8.0643 34.7177 8.0643 L 7.5301 8.0643 C 2.9922 8.0643 0 10.7791 0 15.4954 L 0 34.9548 C 0 39.6710 2.9922 42.7028 7.5301 42.7028 L 10.8195 42.7028 L 10.8195 48.4693 C 10.8195 49.6979 11.4735 50.4905 12.6030 50.4905 Z M 44.6058 53.2450 C 45.7353 53.2450 46.3895 52.4325 46.3895 51.2237 L 46.3895 45.4374 L 48.4702 45.4374 C 53.0078 45.4374 56 42.4056 56 37.7092 L 56 25.6610 C 56 20.9250 53.0078 18.2300 48.4702 18.2300 L 28.8522 18.2300 C 24.1161 18.2300 21.3221 20.9250 21.3221 25.6610 L 21.3221 37.7092 C 21.3221 42.4056 24.1161 45.4374 28.8522 45.4374 L 35.1735 45.4374 L 42.3470 51.9767 C 43.2784 52.8487 43.8331 53.2450 44.6058 53.2450 Z"/></svg>