<svg xmlns="http://www.w3.org/2000/svg" width="56" height="56" viewBox="0 0 56 56"><path d="M 39.4142 52.2461 C 41.0548 52.2461 41.9923 51.0742 41.9923 49.2695 L 41.9923 43.1758 L 43.0938 43.1758 C 50.0783 43.1758 53.8280 39.3320 53.8280 32.4414 L 53.8280 14.4883 C 53.8280 7.5976 50.0783 3.7539 43.0938 3.7539 L 12.9064 3.7539 C 5.9454 3.7539 2.1720 7.6211 2.1720 14.4883 L 2.1720 32.4414 C 2.1720 39.3086 5.9454 43.1758 12.9064 43.1758 L 27.9532 43.1758 L 36.0626 50.3711 C 37.4688 51.6367 38.2657 52.2461 39.4142 52.2461 Z M 38.4532 47.9570 L 30.9766 40.5039 C 30.0860 39.5898 29.4064 39.4023 28.0938 39.4023 L 12.9298 39.4023 C 8.1954 39.4023 5.9454 36.9883 5.9454 32.4180 L 5.9454 14.4883 C 5.9454 9.9180 8.1954 7.5273 12.9298 7.5273 L 43.0938 7.5273 C 47.8516 7.5273 50.0548 9.9180 50.0548 14.4883 L 50.0548 32.4180 C 50.0548 36.9883 47.8516 39.4023 43.0938 39.4023 L 40.2344 39.4023 C 38.9454 39.4023 38.4532 39.8945 38.4532 41.1602 Z"/></svg>