<svg xmlns="http://www.w3.org/2000/svg" width="56" height="56" viewBox="0 0 56 56">
  <path d="M33.4662003,0 C34.6544305,0 35.596427,0.383055272 36.2921896,1.14916581 C36.9382251,1.86055418 37.2843156,2.80786215 37.330461,3.99108973 L37.3357854,4.26833017 L37.3357854,45.7317083 C37.3357854,47.0293892 36.9879201,48.0651914 36.2921896,48.8391149 C35.6461243,49.557758 34.7877452,49.9427455 33.7170522,49.9940771 L33.4662003,50 L3.89302374,50 C2.68916776,50 1.73935847,49.6130383 1.04359587,48.8391149 C0.397560332,48.1204717 0.0514698644,47.1760249 0.00532446873,46.0057744 L0,45.7317083 L0,4.26833017 C0,2.95499781 0.347865291,1.91527636 1.04359587,1.14916581 C1.68966114,0.437777453 2.55477688,0.0566765453 3.63894307,0.00586309089 L3.89302374,0 L33.4662003,0 Z M32.2232319,3.77583053 L5.13599215,3.77583053 C4.66696317,3.77583053 4.32300432,3.8852749 4.10411559,4.10416362 C3.91258796,4.29569126 3.80485366,4.58297571 3.78091271,4.96601697 L3.7757825,5.13604018 L3.7757825,44.863979 C3.7757825,45.333024 3.88522687,45.6769893 4.10411559,45.8958748 C4.29564323,46.0874024 4.58292768,46.1951367 4.96596894,46.2190777 L5.13599215,46.2242079 L10.506,46.2242079 L10.5065628,39.3058224 C10.5065628,38.3742504 10.7003376,37.6693023 11.0878873,37.1909782 L11.198387,37.066145 C11.6211684,36.6290106 12.250868,36.3922295 13.087486,36.3558016 L13.3207847,36.3508342 L24.0150007,36.3508342 C24.9843422,36.3508342 25.6957146,36.5892711 26.1491178,37.066145 C26.5647374,37.5032647 26.7898647,38.1670084 26.8244997,39.0573761 L26.8292226,39.3058224 L26.829,46.2242079 L32.2232319,46.2242079 C32.6766351,46.2242079 33.0127811,46.1147635 33.2316698,45.8958748 C33.4231975,45.70435 33.5309318,45.417061 33.5548727,45.0340078 L33.5600029,44.863979 L33.5600029,5.13604018 C33.5600029,4.6670112 33.4505586,4.32305235 33.2316698,4.10416362 C33.0127811,3.8852749 32.6766351,3.77583053 32.2232319,3.77583053 Z M23.0065628,39.4230828 L14.3292706,39.4230828 C13.8706508,39.4230828 13.6222318,39.6332836 13.5840135,40.0536851 L13.5788019,40.1735516 L13.578,46.224 L23.7570316,46.224 L23.7570316,40.1735516 C23.7570316,39.7149318 23.5468308,39.4665127 23.1264294,39.4282944 L23.0065628,39.4230828 Z M15.4549498,26.2429684 C16.0502016,26.2429684 16.3690865,26.5193353 16.4116045,27.0720692 L16.4165104,27.204529 L16.4165104,31.6369777 C16.4165104,32.2321998 16.1401435,32.5510688 15.5874097,32.5935846 L15.4549498,32.5984903 L10.8817732,32.5984903 C10.3155704,32.5984903 10.0122474,32.3221372 9.97180438,31.769431 L9.96713787,31.6369777 L9.96713787,27.204529 C9.96713787,26.6092772 10.2300178,26.2903923 10.7557775,26.2478743 L10.8817732,26.2429684 L15.4549498,26.2429684 Z M26.4305736,26.2429684 C27.0257957,26.2429684 27.3446647,26.5193353 27.3871805,27.0720692 L27.3920862,27.204529 L27.3920862,31.6369777 C27.3920862,32.2321998 27.1157331,32.5510688 26.5630269,32.5935846 L26.4305736,32.5984903 L21.8808356,32.5984903 C21.3001232,32.5984903 20.9890272,32.3221372 20.9475478,31.769431 L20.9427617,31.6369777 L20.9427617,27.204529 C20.9427617,26.6092772 21.2123782,26.2903923 21.7516112,26.2478743 L21.8808356,26.2429684 L26.4305736,26.2429684 Z M15.4549498,16.9559354 C16.0502016,16.9559354 16.3690865,17.2322885 16.4116045,17.7849947 L16.4165104,17.917448 L16.4165104,22.3498966 C16.4165104,22.9451485 16.1401435,23.2640334 15.5874097,23.3065513 L15.4549498,23.3114573 L10.8817732,23.3114573 C10.3155704,23.3114573 10.0122474,23.0350904 9.97180438,22.4823565 L9.96713787,22.3498966 L9.96713787,17.917448 C9.96713787,17.3222259 10.2300178,17.0033569 10.7557775,16.960841 L10.8817732,16.9559354 L15.4549498,16.9559354 Z M26.4305736,16.9559354 C27.0257957,16.9559354 27.3446647,17.2322885 27.3871805,17.7849947 L27.3920862,17.917448 L27.3920862,22.3498966 C27.3920862,22.9451485 27.1157331,23.2640334 26.5630269,23.3065513 L26.4305736,23.3114573 L21.8808356,23.3114573 C21.3001232,23.3114573 20.9890272,23.0350904 20.9475478,22.4823565 L20.9427617,22.3498966 L20.9427617,17.917448 C20.9427617,17.3222259 21.2123782,17.0033569 21.7516112,16.960841 L21.8808356,16.9559354 L26.4305736,16.9559354 Z M15.4549498,7.66885427 C16.0502016,7.66885427 16.3690865,7.94522119 16.4116045,8.49795502 L16.4165104,8.6304149 L16.4165104,13.0628636 C16.4165104,13.6581154 16.1401435,13.9770003 15.5874097,14.0195183 L15.4549498,14.0244242 L10.8817732,14.0244242 C10.3155704,14.0244242 10.0122474,13.7480573 9.97180438,13.1953235 L9.96713787,13.0628636 L9.96713787,8.6304149 C9.96713787,8.03516308 10.2300178,7.71627818 10.7557775,7.67376019 L10.8817732,7.66885427 L15.4549498,7.66885427 Z M26.4305736,7.66885427 C27.0257957,7.66885427 27.3446647,7.94522119 27.3871805,8.49795502 L27.3920862,8.6304149 L27.3920862,13.0628636 C27.3920862,13.6581154 27.1157331,13.9770003 26.5630269,14.0195183 L26.4305736,14.0244242 L21.8808356,14.0244242 C21.3001232,14.0244242 20.9890272,13.7480573 20.9475478,13.1953235 L20.9427617,13.0628636 L20.9427617,8.6304149 C20.9427617,8.03516308 21.2123782,7.71627818 21.7516112,7.67376019 L21.8808356,7.66885427 L26.4305736,7.66885427 Z" transform="translate(9 3)"/>
</svg>
