<svg xmlns="http://www.w3.org/2000/svg" width="56" height="56" viewBox="0 0 56 56"><path d="M 54.0775 31.5431 C 55.3735 30.9166 56 30.0308 56 29.1234 C 56 28.2376 55.3735 27.4166 54.0775 26.9629 L 43.5555 23.3332 L 48.0714 14.1079 C 48.3090 13.6326 48.3953 13.1573 48.3953 12.7252 C 48.3953 11.4721 47.4448 10.5431 46.2130 10.5431 C 45.7595 10.5431 45.3059 10.6295 44.8303 10.8672 L 35.2810 15.5338 L 30.3118 4.8826 C 29.7717 3.6943 28.8859 3.0894 28.0001 3.0894 C 27.1359 3.0894 26.2501 3.6943 25.7100 4.8826 L 20.7408 15.5338 L 11.1914 10.8672 C 10.6945 10.6295 10.2408 10.5431 9.8087 10.5431 C 8.5772 10.5431 7.6049 11.4721 7.6049 12.7252 C 7.6049 13.1573 7.7130 13.6326 7.9506 14.1079 L 12.4661 23.3332 L 1.9228 26.9629 C .6698 27.3950 0 28.2592 0 29.1450 C 0 30.0308 .6482 30.9166 1.9228 31.5431 L 12.0124 36.3827 L 6.5679 47.9197 C 6.3087 48.4383 6.2006 48.9352 6.2006 49.3889 C 6.2006 50.5123 6.9568 51.3117 8.0155 51.3117 C 8.4692 51.3117 8.9661 51.1605 9.4846 50.8580 L 22.3828 43.2315 L 25.9260 54.1636 C 26.3365 55.3735 27.1575 56 28.0001 56 C 28.8859 56 29.6853 55.3735 30.0742 54.1636 L 33.6390 43.2315 L 46.5373 50.8580 C 47.0559 51.1605 47.5528 51.2901 47.9846 51.2901 C 49.0218 51.2901 49.8213 50.5339 49.8213 49.4105 C 49.8213 48.9568 49.6917 48.4383 49.4541 47.9197 L 43.9878 36.3827 Z M 51.3766 29.1666 L 51.3766 29.3178 L 40.3149 34.1573 C 39.9042 34.3302 39.7100 34.6111 39.7100 34.9567 C 39.7100 35.0864 39.7532 35.2592 39.8396 35.4104 L 45.5435 46.8827 L 45.4139 47.0123 L 32.7100 38.9753 C 32.4939 38.8672 32.2995 38.7808 32.1267 38.7808 C 31.7810 38.7808 31.5217 39.0401 31.3921 39.4722 L 28.0865 50.6636 L 27.9353 50.6636 L 24.6297 39.4722 C 24.5001 39.0401 24.2192 38.7808 23.8735 38.7808 C 23.7007 38.7808 23.5062 38.8672 23.3118 38.9753 L 10.6080 47.0123 L 10.4784 46.8827 L 16.1822 35.4104 C 16.2686 35.2592 16.3118 35.0864 16.3118 34.9567 C 16.3118 34.6111 16.0957 34.3302 15.7069 34.1573 L 4.6451 29.3178 L 4.6451 29.1666 L 16.1173 25.6234 C 16.5494 25.4937 16.7871 25.2129 16.7871 24.8672 C 16.7871 24.6944 16.7439 24.5215 16.6359 24.3487 L 11.4939 14.4968 L 11.6019 14.3888 L 21.5186 19.6172 C 21.7130 19.7252 21.8859 19.7684 22.0371 19.7684 C 22.3612 19.7684 22.6205 19.5740 22.7933 19.1851 L 27.9353 7.6264 L 28.0865 7.6264 L 33.2285 19.1851 C 33.3797 19.5740 33.6390 19.7684 33.9631 19.7684 C 34.1359 19.7684 34.3088 19.7252 34.5032 19.6172 L 44.4201 14.3888 L 44.5281 14.4968 L 39.3643 24.3487 C 39.2779 24.5215 39.2131 24.6944 39.2131 24.8672 C 39.2131 25.2129 39.4508 25.4937 39.9042 25.6234 Z"/></svg>