<svg xmlns="http://www.w3.org/2000/svg" width="56" height="56" viewBox="0 0 56 56">
  <path d="M7.9923,43.9692691 L40.0079,43.9692691 C44.9066,43.9692691 47.3671,41.5317691 47.3671,36.7036691 L47.3671,8.08646913 C47.3671,3.25836913 44.9066,0.820869128 40.0079,0.820869128 L7.9923,0.820869128 C3.1173,0.820869128 0.6329,3.23486913 0.6329,8.08646913 L0.6329,36.7036691 C0.6329,41.5552691 3.1173,43.9692691 7.9923,43.9692691 Z M7.6642,40.1958691 C5.5782,40.1958691 4.4064,39.0942691 4.4064,36.9145691 L4.4064,14.8130691 C4.4064,12.6567691 5.5782,11.5317691 7.6642,11.5317691 L40.3126,11.5317691 C42.3985,11.5317691 43.5938,12.6567691 43.5938,14.8130691 L43.5938,36.9145691 C43.5938,39.0942691 42.3985,40.1958691 40.3126,40.1958691 L7.6642,40.1958691 Z M19.4064,19.9458691 L20.7892,19.9458691 C21.6095,19.9458691 21.8907,19.7114691 21.8907,18.8911691 L21.8907,17.5083691 C21.8907,16.6880691 21.6095,16.4302691 20.7892,16.4302691 L19.4064,16.4302691 C18.586,16.4302691 18.3282,16.6880691 18.3282,17.5083691 L18.3282,18.8911691 C18.3282,19.7114691 18.586,19.9458691 19.4064,19.9458691 Z M27.2111,19.9458691 L28.5704,19.9458691 C29.4142,19.9458691 29.672,19.7114691 29.672,18.8911691 L29.672,17.5083691 C29.672,16.6880691 29.4142,16.4302691 28.5704,16.4302691 L27.2111,16.4302691 C26.3907,16.4302691 26.1095,16.6880691 26.1095,17.5083691 L26.1095,18.8911691 C26.1095,19.7114691 26.3907,19.9458691 27.2111,19.9458691 Z M34.9923,19.9458691 L36.3751,19.9458691 C37.1954,19.9458691 37.4767,19.7114691 37.4767,18.8911691 L37.4767,17.5083691 C37.4767,16.6880691 37.1954,16.4302691 36.3751,16.4302691 L34.9923,16.4302691 C34.172,16.4302691 33.8907,16.6880691 33.8907,17.5083691 L33.8907,18.8911691 C33.8907,19.7114691 34.172,19.9458691 34.9923,19.9458691 Z M11.6251,27.6099691 L13.0079,27.6099691 C13.8282,27.6099691 14.1095,27.3755691 14.1095,26.5552691 L14.1095,25.1724691 C14.1095,24.3521691 13.8282,24.1177691 13.0079,24.1177691 L11.6251,24.1177691 C10.8048,24.1177691 10.5235,24.3521691 10.5235,25.1724691 L10.5235,26.5552691 C10.5235,27.3755691 10.8048,27.6099691 11.6251,27.6099691 Z M19.4064,27.6099691 L20.7892,27.6099691 C21.6095,27.6099691 21.8907,27.3755691 21.8907,26.5552691 L21.8907,25.1724691 C21.8907,24.3521691 21.6095,24.1177691 20.7892,24.1177691 L19.4064,24.1177691 C18.586,24.1177691 18.3282,24.3521691 18.3282,25.1724691 L18.3282,26.5552691 C18.3282,27.3755691 18.586,27.6099691 19.4064,27.6099691 Z M27.89075,29.5056586 C29.9020548,29.5056586 31.5325395,27.8751739 31.5325395,25.8638691 C31.5325395,23.8525643 29.9020548,22.2220796 27.89075,22.2220796 C25.8794452,22.2220796 24.2489605,23.8525643 24.2489605,25.8638691 C24.2489605,27.8751739 25.8794452,29.5056586 27.89075,29.5056586 Z M34.9923,27.6099691 L36.3751,27.6099691 C37.1954,27.6099691 37.4767,27.3755691 37.4767,26.5552691 L37.4767,25.1724691 C37.4767,24.3521691 37.1954,24.1177691 36.3751,24.1177691 L34.9923,24.1177691 C34.172,24.1177691 33.8907,24.3521691 33.8907,25.1724691 L33.8907,26.5552691 C33.8907,27.3755691 34.172,27.6099691 34.9923,27.6099691 Z M11.6251,35.2974691 L13.0079,35.2974691 C13.8282,35.2974691 14.1095,35.0395691 14.1095,34.2192691 L14.1095,32.8364691 C14.1095,32.0161691 13.8282,31.7817691 13.0079,31.7817691 L11.6251,31.7817691 C10.8048,31.7817691 10.5235,32.0161691 10.5235,32.8364691 L10.5235,34.2192691 C10.5235,35.0395691 10.8048,35.2974691 11.6251,35.2974691 Z M19.4064,35.2974691 L20.7892,35.2974691 C21.6095,35.2974691 21.8907,35.0395691 21.8907,34.2192691 L21.8907,32.8364691 C21.8907,32.0161691 21.6095,31.7817691 20.7892,31.7817691 L19.4064,31.7817691 C18.586,31.7817691 18.3282,32.0161691 18.3282,32.8364691 L18.3282,34.2192691 C18.3282,35.0395691 18.586,35.2974691 19.4064,35.2974691 Z M27.2111,35.2974691 L28.5704,35.2974691 C29.4142,35.2974691 29.672,35.0395691 29.672,34.2192691 L29.672,32.8364691 C29.672,32.0161691 29.4142,31.7817691 28.5704,31.7817691 L27.2111,31.7817691 C26.3907,31.7817691 26.1095,32.0161691 26.1095,32.8364691 L26.1095,34.2192691 C26.1095,35.0395691 26.3907,35.2974691 27.2111,35.2974691 Z" transform="translate(4 6)"/>
</svg>
