<svg xmlns="http://www.w3.org/2000/svg" width="56" height="56" viewBox="0 0 56 56"><path d="M 16.0938 52.3164 C 17.0313 52.3164 17.6876 51.8476 18.7891 50.8164 L 27.2735 43.0820 L 43.0938 43.1055 C 50.0783 43.1289 53.8280 39.2383 53.8280 32.3711 L 53.8280 14.4180 C 53.8280 7.5508 50.0783 3.6836 43.0938 3.6836 L 12.9064 3.6836 C 5.9454 3.6836 2.1720 7.5273 2.1720 14.4180 L 2.1720 32.3711 C 2.1720 39.2617 5.9454 43.1055 12.9064 43.0820 L 14.0079 43.0820 L 14.0079 49.9024 C 14.0079 51.3555 14.7813 52.3164 16.0938 52.3164 Z M 11.8516 26.4414 C 11.0313 26.4414 10.3751 25.7851 10.3751 24.9180 C 10.3751 24.1211 11.0313 23.4414 11.8516 23.4414 L 22.2344 23.4414 C 23.0782 23.4414 23.7110 24.1211 23.7110 24.9180 C 23.7110 25.7851 23.0782 26.4414 22.2344 26.4414 Z M 28.0469 26.4414 C 27.2266 26.4414 26.5704 25.7851 26.5704 24.9180 C 26.5704 24.1211 27.2266 23.4414 28.0469 23.4414 L 44.5002 23.4414 C 45.2970 23.4414 45.9767 24.1211 45.9767 24.9180 C 45.9767 25.7851 45.2970 26.4414 44.5002 26.4414 Z M 11.8516 33.1914 C 11.0313 33.1914 10.3751 32.5586 10.3751 31.7148 C 10.3751 30.8711 11.0313 30.1914 11.8516 30.1914 L 15.9766 30.1914 C 16.8204 30.1914 17.4766 30.8711 17.4766 31.7148 C 17.4766 32.5586 16.8204 33.1914 15.9766 33.1914 Z M 21.7891 33.1914 C 20.9688 33.1914 20.3126 32.5586 20.3126 31.7148 C 20.3126 30.8711 20.9688 30.1914 21.7891 30.1914 L 34.2344 30.1914 C 35.0782 30.1914 35.7110 30.8711 35.7110 31.7148 C 35.7110 32.5586 35.0782 33.1914 34.2344 33.1914 Z M 40.0469 33.1914 C 39.2266 33.1914 38.5469 32.5586 38.5469 31.7148 C 38.5469 30.8711 39.2266 30.1914 40.0469 30.1914 L 44.5002 30.1914 C 45.2970 30.1914 45.9767 30.8711 45.9767 31.7148 C 45.9767 32.5586 45.2970 33.1914 44.5002 33.1914 Z"/></svg>