<svg width="100%" height="100%" viewBox="0 0 56 56" version="1.1" xmlns="http://www.w3.org/2000/svg"><g><path d="M20.755,11.941l-8.83,-0c-1.295,-0 -2.343,-1.05 -2.343,-2.343l0,-2.886c0,-1.293 1.048,-2.343 2.343,-2.343l22.105,0c1.294,0 2.343,1.05 2.343,2.343l0,2.886c0,1.293 -1.049,2.343 -2.343,2.343l-8.589,-0l-0,13.108l16.175,4.334c1.837,0.492 3.345,1.828 4.289,3.813c1.129,2.371 1.436,5.77 0.496,9.282c-0.942,3.513 -2.908,6.3 -5.071,7.79c-1.81,1.247 -3.784,1.651 -5.621,1.159c0,0 -10.354,-2.775 -18.23,-4.885c-6.071,-1.626 -9.672,-7.867 -8.047,-13.936c0.007,-0.022 0.011,-0.042 0.018,-0.062c1.39,-5.192 6.156,-8.579 11.305,-8.432l0,-12.171Zm16.168,34.96c0.801,0.216 1.602,-0.28 2.353,-0.981c1.14,-1.062 2.078,-2.708 2.599,-4.654c0.522,-1.946 0.533,-3.842 0.077,-5.332c-0.3,-0.982 -0.747,-1.811 -1.548,-2.025c-0.801,-0.216 -1.604,0.279 -2.355,0.979c-1.139,1.063 -2.076,2.71 -2.597,4.656c-0.522,1.946 -0.535,3.841 -0.078,5.331c0.299,0.983 0.748,1.812 1.549,2.026Zm-14.873,-17.909c-3.531,-0.878 -7.129,1.234 -8.076,4.765c-0.005,0.02 -0.011,0.041 -0.015,0.061c-0.958,3.57 1.161,7.242 4.733,8.198l11.945,3.201c-0.416,-2.031 -0.369,-4.43 0.289,-6.885c0.657,-2.456 1.816,-4.556 3.192,-6.108l-11.154,-2.988c-0.327,-0.019 -0.636,-0.105 -0.914,-0.244Z"/></g></svg>