<svg width="100%" height="100%" viewBox="0 0 56 56" version="1.1" xmlns="http://www.w3.org/2000/svg">
    <g transform="matrix(-1,0,0,1,48,16)">
        <g transform="matrix(-0.355294,0,0,0.355294,42.8098,-10.7405)">
            <path d="M124.3,52.9C122,51.3 120.1,49.1 118.7,46.4C116.6,42.4 116.2,38 117.1,34C117.9,30.4 115.4,26.8 111.8,26.4C109,26 106.3,25 103.8,23.3C100.1,20.8 97.6,17.1 96.5,13.1C95.5,9.6 91.6,7.6 88.2,8.9C85.6,9.9 82.7,10.3 79.8,10C75.3,9.5 71.4,7.5 68.5,4.5C67.3,3.3 65.7,2.6 64.1,2.6C62.5,2.6 60.9,3.3 59.7,4.5C56.8,7.5 52.9,9.5 48.4,10C45.4,10.3 42.6,9.9 40,8.9C36.6,7.6 32.7,9.5 31.7,13.1C30.6,17.1 28.1,20.8 24.4,23.3C21.9,25 19.2,26 16.4,26.4C12.7,26.9 10.3,30.4 11.1,34C12,38.1 11.5,42.4 9.5,46.4C8.1,49.1 6.2,51.2 3.9,52.9C0.9,55.1 0.4,59.4 2.8,62.1C5.5,65.3 7.2,69.4 7.3,73.9C7.3,76.9 6.7,79.7 5.4,82.2C3.8,85.5 5.4,89.5 8.8,90.9C12.7,92.4 16.1,95.2 18.3,99.2C19.7,101.8 20.5,104.6 20.6,107.4C20.7,111.1 24.1,113.9 27.7,113.4C31.8,112.9 36.1,113.8 39.9,116.2C42.4,117.8 44.4,119.9 45.8,122.3C47.7,125.5 51.9,126.4 54.9,124.2C57.6,122.3 60.7,121.1 64.1,120.9C67.5,121.2 70.6,122.3 73.3,124.2C76.3,126.3 80.6,125.4 82.4,122.3C83.8,119.9 85.8,117.8 88.3,116.2C92.1,113.8 96.4,112.9 100.5,113.4C104.2,113.9 107.5,111.1 107.6,107.4C107.7,104.6 108.5,101.8 109.9,99.2C112.1,95.3 115.5,92.4 119.4,90.9C122.8,89.6 124.4,85.5 122.8,82.2C121.6,79.7 120.9,76.9 120.9,73.9C121,69.4 122.6,65.3 125.4,62.1C127.8,59.4 127.3,55.1 124.3,52.9ZM64,104.3C41.8,104.3 23.7,86.2 23.7,64C23.7,41.8 41.8,23.7 64,23.7C86.2,23.7 104.3,41.8 104.3,64C104.3,86.2 86.2,104.3 64,104.3Z" style="fill-rule:nonzero;"/>
        </g>
        <g transform="matrix(-1,0,0,1,48.5008,-16)">
            <path d="M21,27.998L26.002,33L36.002,23" style="fill:none;stroke:black;stroke-width:4px;"/>
        </g>
    </g>
</svg>
