<svg width="100%" height="100%" viewBox="0 0 56 56" version="1.1" xmlns="http://www.w3.org/2000/svg"><g><path d="M28.075,2.538c0.139,-0.032 0.28,-0.044 0.419,-0.036c0.259,0.014 0.5,0.093 0.708,0.222c0.209,0.128 0.388,0.309 0.516,0.534c0.069,0.121 0.121,0.252 0.154,0.391l0.003,0.012c0.028,0.118 0.04,0.238 0.039,0.356l-0,14.801l14.906,7.846c0.028,0.014 0.055,0.029 0.082,0.045c0.218,0.129 0.396,0.309 0.523,0.52l0.004,0.007c0.128,0.217 0.204,0.468 0.209,0.737l-0,0.027c-0,0 -0,15.724 -0,15.724c-0,0.828 -0.672,1.5 -1.5,1.5c-0.828,0 -1.5,-0.672 -1.5,-1.5l-0,-13.239l-12.724,6.697l-0,14.818c-0,0.828 -0.672,1.5 -1.5,1.5c-0.828,0 -1.5,-0.672 -1.5,-1.5l-0,-14.797l-13.552,-6.776l0,13.297c0,0.828 -0.672,1.5 -1.5,1.5c-0.828,0 -1.5,-0.672 -1.5,-1.5l0,-31.427c-0,-0.034 0,-0.068 0.002,-0.101c0.014,-0.259 0.093,-0.501 0.222,-0.709c0.128,-0.208 0.309,-0.387 0.535,-0.515c0.029,-0.017 0.059,-0.033 0.089,-0.047l16.517,-8.259c0.106,-0.054 0.218,-0.097 0.336,-0.125l0.012,-0.003Zm-12.859,25.462l13.18,6.59l12.521,-6.59l-12.521,-6.59l-13.18,6.59Zm-1.854,-14.797l0,12.37l13.552,-6.776l-0,-12.37l-13.552,6.776Z"/></g></svg>