<svg xmlns="http://www.w3.org/2000/svg" width="56" height="56" viewBox="0 0 56 56">
  <path d="M42.9204434,9.18334107 L42.9715281,9.23031248 C46.0101282,12.0481921 47.8606667,15.7849148 47.8606667,19.884 C47.8606667,24.61025 45.3985833,28.8583333 41.4925,31.7685 L40.8991176,32.1864072 L40.8991176,32.1864072 L40.55675,32.41925 L40.55675,32.41925 C39.2537095,33.378536 39.9543663,35.3445341 41.1172247,36.9953086 L41.3639055,37.3319168 C41.5741259,37.6079526 41.7949258,37.8719079 42.0184045,38.1170073 L42.15275,38.26175 C43.0695,39.2339167 42.9254167,39.5363333 41.7284167,39.2323333 C40.1503611,38.8331024 38.9202568,38.3334116 37.9145831,37.8290705 L37.4659121,37.5963163 C37.3936396,37.5575852 37.3225828,37.5189138 37.2526852,37.4803457 L36.8467619,37.2505257 L36.8467619,37.2505257 L36.4659637,37.0252785 L36.4659637,37.0252785 L35.1400485,36.2118813 L35.1400485,36.2118813 L34.8443957,36.0408962 C34.7959396,36.0137682 34.7478557,35.987354 34.7000878,35.9616973 L34.4168226,35.8171954 C33.7626191,35.502861 33.1483101,35.3540814 32.4196212,35.4905205 L32.2553333,35.52575 L32.2553333,35.52575 C31.1755,35.6856667 30.0655833,35.7695833 28.9303333,35.7695833 C28.1190772,35.7695833 27.3197382,35.726758 26.5353517,35.6436544 C25.4770097,35.531526 24.7099521,34.5826723 24.8220806,33.5243304 L24.8317448,33.4477759 L24.8317448,33.4477759 L24.8567593,33.3064511 C25.0426257,32.3167764 25.9353076,31.6196308 26.9405256,31.6791205 L28.5042555,31.7595319 L28.5042555,31.7595319 L28.7469434,31.7670705 L28.7469434,31.7670705 L28.9303333,31.7695833 L28.9303333,31.7695833 C29.8099596,31.7695833 30.6788725,31.7086235 31.534215,31.5884073 C32.7963228,31.3242932 34.0206008,31.4164766 35.2116622,31.8247444 C35.4333901,31.9007475 35.72639,32.0328389 36.0562025,32.1971355 C36.3751219,31.0614361 37.0600485,30.0264346 38.1853145,29.1980245 L38.3445613,29.0807885 L38.4471918,29.0179632 L38.4471918,29.0179632 L39.1027059,28.560871 L39.1027059,28.560871 C42.1501846,26.2903943 43.8606667,23.1653985 43.8606667,19.884 C43.8606667,17.0389262 42.564527,14.3723965 40.3866691,12.2890102 L40.3055171,12.2135855 L40.3055171,12.2135855 L40.0953604,12.0302009 L40.0953604,12.0302009 C39.3451969,11.3946435 39.2522811,10.2712956 39.8878324,9.52112688 C39.9250511,9.47719603 39.9643791,9.43509667 40.0056778,9.39497724 L40.1790995,9.226491 C40.9377279,8.48952495 42.1389963,8.47061647 42.9204434,9.18334107 Z M18.9303333,0 C29.3850833,0 37.8606667,7.11233333 37.8606667,15.884 C37.8606667,24.65725 29.3850833,31.7695833 18.9303333,31.7695833 C18.0221333,31.7695833 17.1301467,31.7158767 16.2568053,31.6125167 L15.599,31.5241667 L15.599,31.5241667 C14.6400937,31.2955729 13.8884805,31.5525924 13.016271,32.0408962 L12.7206182,32.2118813 L12.7206182,32.2118813 L11.5765235,32.9150237 L11.5765235,32.9150237 L11.2072759,33.1371997 L11.2072759,33.1371997 L10.8142524,33.3649949 C10.6789822,33.4416307 10.5392995,33.5188541 10.3947546,33.5963163 L9.94608359,33.8290705 C8.94040987,34.3334116 7.71030556,34.8331024 6.13225,35.2323333 L5.87471366,35.2916936 C5.11839237,35.4453965 4.92467871,35.272657 5.29666214,34.7487592 L5.43293853,34.5716162 L5.43293853,34.5716162 L5.60684521,34.3709544 L5.60684521,34.3709544 L5.84226215,34.1170073 L5.84226215,34.1170073 L6.10864513,33.8142708 L6.10864513,33.8142708 L6.3694226,33.4960344 L6.3694226,33.4960344 L6.62156074,33.1648998 C7.85559673,31.4813172 8.65188964,29.4116149 7.30391667,28.41925 L6.5346415,27.8881029 L6.5346415,27.8881029 L6.36816667,27.7685 L6.36816667,27.7685 C2.46208333,24.8583333 -2.13162821e-13,20.61025 -2.13162821e-13,15.884 C-2.13162821e-13,7.11233333 8.474,0 18.9303333,0 Z M18.9303333,4 C10.5438739,4 4,9.49128868 4,15.884 C4,19.059547 5.60190824,22.0886189 8.44599331,24.3228013 L8.77967867,24.5762426 L8.77967867,24.5762426 L9.40171218,25.0117475 L9.51610532,25.0807885 L9.67535219,25.1980245 C10.8006182,26.0264346 11.4855447,27.0614361 11.8044642,28.1971355 C12.1342767,28.0328389 12.4272766,27.9007475 12.6490044,27.8247444 C13.8400659,27.4164766 15.0643439,27.3242932 16.3264516,27.5884073 C17.1817942,27.7086235 18.0507071,27.7695833 18.9303333,27.7695833 C27.3160404,27.7695833 33.8606667,22.2776024 33.8606667,15.884 C33.8606667,9.4918076 27.3157963,4 18.9303333,4 Z" transform="translate(4 8)"/>
</svg>
