<svg xmlns="http://www.w3.org/2000/svg" width="56" height="56" viewBox="0 0 56 56">
  <path d="M35.3338128,4.93167493 C42.6380902,7.13423595 47.8606667,12.9977895 47.8606667,19.884 C47.8606667,24.61025 45.3985833,28.8583333 41.4925,31.7685 L40.8991176,32.1864072 L40.8991176,32.1864072 L40.55675,32.41925 L40.55675,32.41925 C39.2537095,33.378536 39.9543663,35.3445341 41.1172247,36.9953086 L41.3639055,37.3319168 C41.5741259,37.6079526 41.7949258,37.8719079 42.0184045,38.1170073 L42.15275,38.26175 C43.0695,39.2339167 42.9254167,39.5363333 41.7284167,39.2323333 C40.1503611,38.8331024 38.9202568,38.3334116 37.9145831,37.8290705 L37.4659121,37.5963163 C37.3936396,37.5575852 37.3225828,37.5189138 37.2526852,37.4803457 L36.8467619,37.2505257 L36.8467619,37.2505257 L36.4659637,37.0252785 L36.4659637,37.0252785 L35.1400485,36.2118813 L35.1400485,36.2118813 L34.8443957,36.0408962 C34.7959396,36.0137682 34.7478557,35.987354 34.7000878,35.9616973 L34.4168226,35.8171954 C33.7626191,35.502861 33.1483101,35.3540814 32.4196212,35.4905205 L32.2553333,35.52575 L32.2553333,35.52575 C31.1755,35.6856667 30.0655833,35.7695833 28.9303333,35.7695833 C25.2406736,35.7695833 21.79752,34.883739 18.8864289,33.3516726 C19.877513,33.4932558 20.8933545,33.5672349 21.9303333,33.5672349 C32.3850833,33.5672349 40.8606667,26.0524569 40.8606667,16.782781 C40.8606667,12.1568024 38.7491015,7.96761379 35.3338128,4.93167493 Z M18.9303333,0 C29.3850833,0 37.8606667,7.11233333 37.8606667,15.884 C37.8606667,24.65725 29.3850833,31.7695833 18.9303333,31.7695833 C18.0221333,31.7695833 17.1301467,31.7158767 16.2568053,31.6125167 L15.599,31.5241667 L15.599,31.5241667 C14.6400937,31.2955729 13.8884805,31.5525924 13.016271,32.0408962 L12.7206182,32.2118813 L12.7206182,32.2118813 L11.5765235,32.9150237 L11.5765235,32.9150237 L11.2072759,33.1371997 L11.2072759,33.1371997 L10.8142524,33.3649949 C10.6789822,33.4416307 10.5392995,33.5188541 10.3947546,33.5963163 L9.94608359,33.8290705 C8.94040987,34.3334116 7.71030556,34.8331024 6.13225,35.2323333 L5.87471366,35.2916936 C5.11839237,35.4453965 4.92467871,35.272657 5.29666214,34.7487592 L5.43293853,34.5716162 L5.43293853,34.5716162 L5.60684521,34.3709544 L5.60684521,34.3709544 L5.84226215,34.1170073 L5.84226215,34.1170073 L6.10864513,33.8142708 L6.10864513,33.8142708 L6.3694226,33.4960344 L6.3694226,33.4960344 L6.62156074,33.1648998 C7.85559673,31.4813172 8.65188964,29.4116149 7.30391667,28.41925 L6.5346415,27.8881029 L6.5346415,27.8881029 L6.36816667,27.7685 L6.36816667,27.7685 C2.46208333,24.8583333 -2.13162821e-13,20.61025 -2.13162821e-13,15.884 C-2.13162821e-13,7.11233333 8.474,0 18.9303333,0 Z" transform="translate(4 8)"/>
</svg>
