<svg xmlns="http://www.w3.org/2000/svg" width="56" height="56" viewBox="0 0 56 56">
  <path d="M26,0.885839053 C40.2652635,0.885839053 51.83,10.5904526 51.83,22.559188 C51.83,34.5300838 40.2652635,44.2346974 26,44.2346974 C24.6722666,44.2346974 23.3699293,44.1505732 22.0970694,43.9891274 L21.4544731,43.899832 L21.4544731,43.899832 C20.2914461,43.6225779 19.3519028,43.868866 18.3216218,44.3949686 L17.9928872,44.5701234 L17.9928872,44.5701234 L17.6559212,44.7621751 L17.6559212,44.7621751 L17.3085249,44.9694182 L17.3085249,44.9694182 L15.7706572,45.9161917 L15.7706572,45.9161917 L15.3381249,46.1738071 L15.3381249,46.1738071 L14.8819686,46.4363802 L14.8819686,46.4363802 L14.3999893,46.7022052 L14.3999893,46.7022052 L13.889988,46.9695766 C12.4906673,47.6831125 10.7689902,48.3949491 8.53731265,48.9595393 C7.167466,49.3074368 6.80822904,49.073284 7.46597475,48.2060969 L7.63581807,47.9947162 L7.63581807,47.9947162 L7.84178469,47.7607218 L7.84178469,47.7607218 L7.95831967,47.6352009 C8.05466528,47.5332474 8.15086223,47.4285593 8.24657392,47.3214255 L8.53191662,46.9929749 L8.53191662,46.9929749 L8.81232815,46.6515812 C8.85854028,46.5936999 8.90446279,46.5353514 8.95005361,46.4765719 L9.21928163,46.1190108 C9.3515689,45.9379326 9.48011359,45.7536245 9.60377969,45.5670605 L9.84427048,45.1912136 C11.1274908,43.1106884 11.7287609,40.8358027 10.1360246,39.6632454 L9.36177328,39.1321832 L9.36177328,39.1321832 L8.85921546,38.7753121 L8.85921546,38.7753121 C3.5294555,34.8044573 0.17,29.0080463 0.17,22.559188 C0.17,10.5904526 11.7325761,0.885839053 26,0.885839053 Z M26,4.56240733 C13.5368558,4.56240733 3.71878789,12.8012343 3.71878789,22.5377685 C3.71878789,27.5645198 6.32376869,32.3237361 10.8918817,35.7272859 L11.9050745,36.4373179 L11.9050745,36.4373179 L12.042003,36.5200778 L12.2201977,36.6512631 C14.0421606,37.9925748 14.911757,39.7895096 15.034093,41.7494472 L15.5180106,41.4835356 L15.5180106,41.4835356 L15.9859003,41.2337608 L15.9859003,41.2337608 L16.4280815,41.0068059 C16.4990981,40.9712531 16.5686403,40.9369295 16.6365061,40.9039745 L17.0219732,40.7237807 C17.2030359,40.6430089 17.3653822,40.5770602 17.5035668,40.5296937 C19.0024662,40.0159063 20.530255,39.9036804 22.1150875,40.242095 C23.3913721,40.4234251 24.6878688,40.5153676 26,40.5153676 C38.462083,40.5153676 48.2812121,32.2755588 48.2812121,22.5377685 C48.2812121,12.8019501 38.4617239,4.56240733 26,4.56240733 Z M29.7579,29 C30.5782,29 31.211,29.6562 31.211,30.4765 C31.211,31.2265235 30.6504574,31.8104571 29.9006218,31.8765599 L29.7579,31.8828 L14.4531,31.8828 C13.6094,31.8828 13,31.2734 13,30.4765 C13,29.7044529 13.5398145,29.0777678 14.3067203,29.0067116 L14.4531,29 L29.7579,29 Z M38.1016,21.1797 C38.9219,21.1797 39.5547,21.8359 39.5547,22.6562 C39.5547,23.4062235 38.9941574,23.9901571 38.2443218,24.0562599 L38.1016,24.0625 L14.4531,24.0625 C13.6094,24.0625 13,23.4531 13,22.6562 C13,21.8841529 13.5398145,21.2574678 14.3067203,21.1864116 L14.4531,21.1797 L38.1016,21.1797 Z M38.1016,13 C38.9219,13 39.5547,13.6328 39.5547,14.4297 C39.5547,15.2017471 38.9941574,15.8077042 38.2443218,15.8763218 L38.1016,15.8828 L14.4531,15.8828 C13.6094,15.8828 13,15.25 13,14.4297 C13,13.6796765 13.5398145,13.0750149 14.3067203,13.0064735 L14.4531,13 L38.1016,13 Z" transform="translate(2 3)"/>
</svg>
