<svg xmlns="http://www.w3.org/2000/svg" width="56" height="56" viewBox="0 0 56 56"><path d="M 27.9999 51.9063 C 41.0546 51.9063 51.9063 41.0781 51.9063 28 C 51.9063 14.9453 41.0312 4.0937 27.9765 4.0937 C 14.8983 4.0937 4.0937 14.9453 4.0937 28 C 4.0937 41.0781 14.9218 51.9063 27.9999 51.9063 Z M 27.9999 47.9219 C 16.9374 47.9219 8.1014 39.0625 8.1014 28 C 8.1014 16.9609 16.9140 8.0781 27.9765 8.0781 C 39.0155 8.0781 47.8983 16.9609 47.9219 28 C 47.9454 39.0625 39.0390 47.9219 27.9999 47.9219 Z M 25.0468 39.7188 C 25.8202 39.7188 26.4530 39.3437 26.9452 38.6172 L 38.5234 20.4063 C 38.8046 19.9375 39.0858 19.3984 39.0858 18.8828 C 39.0858 17.8047 38.1483 17.1484 37.1640 17.1484 C 36.5312 17.1484 35.9452 17.5 35.5234 18.2031 L 24.9296 35.1484 L 19.4921 28.1172 C 18.9765 27.4141 18.4140 27.1563 17.7812 27.1563 C 16.7499 27.1563 15.9296 28 15.9296 29.0547 C 15.9296 29.5703 16.1405 30.0625 16.4687 30.5078 L 23.0312 38.6172 C 23.6640 39.3906 24.2733 39.7188 25.0468 39.7188 Z"/></svg>