<svg xmlns="http://www.w3.org/2000/svg" width="56" height="56" viewBox="0 0 56 56"><path d="M 13.7851 49.5742 L 42.2382 49.5742 C 47.1366 49.5742 49.5743 47.1367 49.5743 42.3086 L 49.5743 13.6914 C 49.5743 8.8633 47.1366 6.4258 42.2382 6.4258 L 13.7851 6.4258 C 8.9101 6.4258 6.4257 8.8398 6.4257 13.6914 L 6.4257 42.3086 C 6.4257 47.1602 8.9101 49.5742 13.7851 49.5742 Z M 13.8554 45.8008 C 11.5117 45.8008 10.1992 44.5586 10.1992 42.1211 L 10.1992 13.8789 C 10.1992 11.4414 11.5117 10.1992 13.8554 10.1992 L 42.1679 10.1992 C 44.4882 10.1992 45.8007 11.4414 45.8007 13.8789 L 45.8007 42.1211 C 45.8007 44.5586 44.4882 45.8008 42.1679 45.8008 Z M 25.0820 39.6836 C 25.8554 39.6836 26.4882 39.3086 26.9804 38.5586 L 38.5585 20.3477 C 38.8398 19.9023 39.1210 19.3633 39.1210 18.8477 C 39.1210 17.7696 38.1835 17.0898 37.1992 17.0898 C 36.5663 17.0898 35.9804 17.4649 35.5585 18.1680 L 24.9882 35.1133 L 19.5273 28.0586 C 19.0117 27.3789 18.4492 27.1211 17.8163 27.1211 C 16.7851 27.1211 15.9648 27.9414 15.9648 28.9961 C 15.9648 29.5118 16.1757 30.0274 16.5273 30.4727 L 23.0663 38.5820 C 23.6992 39.3320 24.3085 39.6836 25.0820 39.6836 Z"/></svg>