<svg xmlns="http://www.w3.org/2000/svg" width="56" height="56" viewBox="0 0 56 56">
  <path fill-rule="evenodd" d="M24,48 C10.745166,48 0,37.254834 0,24 C0,10.745166 10.745166,0 24,0 C37.254834,0 48,10.745166 48,24 C48,37.254834 37.254834,48 24,48 Z M34.7878169,15.9306741 C34.1183467,15.2612039 33.0329211,15.2612039 32.3634508,15.9306741 L21.4285714,26.8655535 C20.7591012,27.5350237 19.6736755,27.5350237 19.0042053,26.8655535 L15.7836116,23.6449598 C15.1141414,22.9754896 14.0287157,22.9754896 13.3592455,23.6449598 C12.6897753,24.31443 12.6897753,25.3998557 13.3592455,26.0693259 L19.0042053,31.7142857 C19.6736755,32.3837559 20.7591012,32.3837559 21.4285714,31.7142857 L34.7878169,18.3550402 C35.4572872,17.68557 35.4572872,16.6001443 34.7878169,15.9306741 Z" transform="translate(4 4)"/>
</svg>
