<svg xmlns="http://www.w3.org/2000/svg" width="56" height="56" viewBox="0 0 56 56"><path d="M 13.7851 49.5742 L 42.2382 49.5742 C 47.1366 49.5742 49.5743 47.1367 49.5743 42.3086 L 49.5743 13.6914 C 49.5743 8.8633 47.1366 6.4258 42.2382 6.4258 L 13.7851 6.4258 C 8.9101 6.4258 6.4257 8.8398 6.4257 13.6914 L 6.4257 42.3086 C 6.4257 47.1602 8.9101 49.5742 13.7851 49.5742 Z M 13.8554 45.8008 C 11.5117 45.8008 10.1992 44.5586 10.1992 42.1211 L 10.1992 13.8789 C 10.1992 11.4414 11.5117 10.1992 13.8554 10.1992 L 42.1679 10.1992 C 44.4882 10.1992 45.8007 11.4414 45.8007 13.8789 L 45.8007 42.1211 C 45.8007 44.5586 44.4882 45.8008 42.1679 45.8008 Z M 30.3320 21.2149 C 28.8554 19.6445 27.1444 19.6445 25.6913 21.2149 L 16.4804 30.9649 C 15.8007 31.7149 15.7773 32.7930 16.4101 33.4492 C 17.1132 34.1992 18.2617 34.1992 18.9413 33.4961 L 28.0117 23.8867 L 37.0820 33.4961 C 37.7382 34.1992 38.9101 34.1992 39.5898 33.4492 C 40.2460 32.7930 40.2226 31.7149 39.5195 30.9649 Z"/></svg>