<svg xmlns="http://www.w3.org/2000/svg" width="56" height="56" viewBox="0 0 56 56"><path d="M 27.9999 51.9063 C 41.0546 51.9063 51.9063 41.0781 51.9063 28 C 51.9063 14.9453 41.0312 4.0937 27.9765 4.0937 C 14.8983 4.0937 4.0937 14.9453 4.0937 28 C 4.0937 41.0781 14.9218 51.9063 27.9999 51.9063 Z M 27.9999 47.9219 C 16.9374 47.9219 8.1014 39.0625 8.1014 28 C 8.1014 16.9609 16.9140 8.0781 27.9765 8.0781 C 39.0155 8.0781 47.8983 16.9609 47.9219 28 C 47.9454 39.0625 39.0390 47.9219 27.9999 47.9219 Z M 32.6405 39.6016 C 33.3671 38.9219 33.3436 37.75 32.6640 37.0937 L 23.0312 28.0234 L 32.6640 18.9766 C 33.3671 18.2968 33.3436 17.1250 32.6171 16.4453 C 31.9374 15.8125 30.8593 15.8594 30.1327 16.5156 L 20.3827 25.7266 C 19.0468 26.9453 19.0468 29.1016 20.3827 30.3437 L 30.1327 39.5312 C 30.7890 40.1641 32.0077 40.2109 32.6405 39.6016 Z"/></svg>