<svg xmlns="http://www.w3.org/2000/svg" width="56" height="56" viewBox="0 0 56 56"><path d="M 28.0001 18.7188 C 31.7501 18.7188 34.8438 15.6250 34.8438 11.8516 C 34.8438 8.1016 31.7501 5.0078 28.0001 5.0313 C 24.2501 5.0547 21.1564 8.1016 21.1564 11.8516 C 21.1564 15.6250 24.2501 18.7188 28.0001 18.7188 Z M 45.2735 18.7188 C 49.0235 18.7188 52.1171 15.6250 52.1171 11.8516 C 52.1171 8.1016 49.0235 5.0078 45.2735 5.0313 C 41.5235 5.0547 38.4298 8.1016 38.4298 11.8516 C 38.4298 15.6250 41.5235 18.7188 45.2735 18.7188 Z M 10.7501 18.6953 C 14.4767 18.6953 17.5704 15.6250 17.5704 11.8750 C 17.5704 8.1484 14.4767 5.0313 10.7501 5.0313 C 6.9767 5.0313 3.8829 8.1484 3.8829 11.8750 C 3.8829 15.6250 6.9767 18.6953 10.7501 18.6953 Z M 45.2735 15.3672 C 43.2813 15.3672 41.8048 13.8203 41.8048 11.8516 C 41.8048 9.9063 43.2813 8.3359 45.2735 8.3359 C 47.2187 8.3359 48.7657 9.9063 48.7657 11.8516 C 48.7657 13.8203 47.2187 15.3672 45.2735 15.3672 Z M 10.7501 15.25 C 8.8282 15.25 7.3282 13.75 7.3282 11.8516 C 7.3282 9.9766 8.8282 8.4297 10.7501 8.4297 C 12.6251 8.4297 14.1251 9.9766 14.1251 11.8516 C 14.1251 13.75 12.6251 15.25 10.7501 15.25 Z M 28.0001 15.25 C 26.0782 15.25 24.6016 13.75 24.6016 11.8516 C 24.6016 9.9766 26.0782 8.4297 28.0001 8.4297 C 29.9220 8.4297 31.3751 9.9766 31.3985 11.8516 C 31.4454 13.75 29.9220 15.25 28.0001 15.25 Z M 45.2735 34.8437 C 49.0235 34.8437 52.1171 31.7500 52.1171 28 C 52.1171 24.2734 49.0235 21.1563 45.2735 21.1797 C 41.5235 21.2032 38.4298 24.2734 38.4298 28 C 38.4298 31.7500 41.5235 34.8437 45.2735 34.8437 Z M 28.0001 34.8437 C 31.7501 34.8437 34.8438 31.7500 34.8438 28 C 34.8438 24.2734 31.7501 21.1563 28.0001 21.1797 C 24.2501 21.2032 21.1564 24.2734 21.1564 28 C 21.1564 31.7500 24.2501 34.8437 28.0001 34.8437 Z M 10.7501 34.8437 C 14.4767 34.8437 17.5704 31.7500 17.5704 28 C 17.5704 24.2734 14.4767 21.1563 10.7501 21.1797 C 6.9767 21.2032 3.8829 24.2734 3.8829 28 C 3.8829 31.7500 6.9767 34.8437 10.7501 34.8437 Z M 45.2735 31.5156 C 43.2813 31.5156 41.8048 29.9453 41.8048 27.9766 C 41.8048 26.0547 43.2813 24.4844 45.2735 24.4844 C 47.2187 24.4844 48.7657 26.0547 48.7657 27.9766 C 48.7657 29.9453 47.2187 31.5156 45.2735 31.5156 Z M 28.0001 31.5156 C 26.0314 31.5156 24.4845 29.9453 24.4845 27.9766 C 24.4845 26.0547 26.0314 24.4844 28.0001 24.4844 C 29.9689 24.4844 31.5157 26.0547 31.5157 27.9766 C 31.5157 29.9453 29.9689 31.5156 28.0001 31.5156 Z M 10.7501 31.5156 C 8.7813 31.5156 7.2345 29.9453 7.2345 27.9766 C 7.2345 26.0547 8.7813 24.4844 10.7501 24.4844 C 12.6954 24.4844 14.1954 26.0547 14.1954 27.9766 C 14.1954 29.9453 12.6954 31.5156 10.7501 31.5156 Z M 45.2735 50.9922 C 49.0235 50.9922 52.1171 47.8984 52.1171 44.1484 C 52.1171 40.3984 49.0235 37.3047 45.2735 37.3047 C 41.5235 37.3047 38.4298 40.3984 38.4298 44.1484 C 38.4298 47.8984 41.5235 50.9922 45.2735 50.9922 Z M 28.0001 50.9922 C 31.7501 50.9922 34.8438 47.8984 34.8438 44.1484 C 34.8438 40.3984 31.7501 37.3047 28.0001 37.3047 C 24.2501 37.3047 21.1564 40.3984 21.1564 44.1484 C 21.1564 47.8984 24.2501 50.9922 28.0001 50.9922 Z M 10.7501 50.9922 C 14.4767 50.9922 17.5704 47.8984 17.5704 44.1484 C 17.5704 40.3984 14.4767 37.3047 10.7501 37.3047 C 6.9767 37.3047 3.8829 40.3984 3.8829 44.1484 C 3.8829 47.8984 6.9767 50.9922 10.7501 50.9922 Z M 28.0001 47.6641 C 26.0314 47.6641 24.4845 46.0938 24.4845 44.1250 C 24.4845 42.2031 26.0314 40.6328 28.0001 40.6328 C 29.9689 40.6328 31.5157 42.2031 31.5157 44.1250 C 31.5157 46.0938 29.9689 47.6641 28.0001 47.6641 Z M 45.2735 47.6641 C 43.2813 47.6641 41.8048 46.0938 41.8048 44.1250 C 41.8048 42.2031 43.2813 40.6328 45.2735 40.6328 C 47.2187 40.6328 48.7657 42.2031 48.7657 44.1250 C 48.7657 46.0938 47.2187 47.6641 45.2735 47.6641 Z M 10.7501 47.6641 C 8.7813 47.6641 7.2345 46.0938 7.2345 44.1250 C 7.2345 42.2031 8.7813 40.6328 10.7501 40.6328 C 12.6954 40.6328 14.1954 42.2031 14.1954 44.1250 C 14.1954 46.0938 12.6954 47.6641 10.7501 47.6641 Z"/></svg>