<svg xmlns="http://www.w3.org/2000/svg" width="56" height="56" viewBox="0 0 56 56"><path d="M 27.9999 51.9063 C 41.0546 51.9063 51.9063 41.0781 51.9063 28 C 51.9063 14.9453 41.0312 4.0937 27.9765 4.0937 C 14.8983 4.0937 4.0937 14.9453 4.0937 28 C 4.0937 41.0781 14.9218 51.9063 27.9999 51.9063 Z M 27.9999 47.9219 C 16.9374 47.9219 8.1014 39.0625 8.1014 28 C 8.1014 16.9609 16.9140 8.0781 27.9765 8.0781 C 39.0155 8.0781 47.8983 16.9609 47.9219 28 C 47.9454 39.0625 39.0390 47.9219 27.9999 47.9219 Z M 15.7187 30.5312 L 27.9765 30.5312 C 28.8905 30.5312 29.6171 29.8281 29.6171 28.8906 L 29.6171 13.0937 C 29.6171 12.1797 28.8905 11.4766 27.9765 11.4766 C 27.0624 11.4766 26.3593 12.1797 26.3593 13.0937 L 26.3593 27.2734 L 15.7187 27.2734 C 14.8046 27.2734 14.1014 27.9766 14.1014 28.8906 C 14.1014 29.8281 14.8046 30.5312 15.7187 30.5312 Z"/></svg>