<svg xmlns="http://www.w3.org/2000/svg" width="56" height="56" viewBox="0 0 56 56"><path d="M 12.2617 35.5117 L 41.3476 35.5117 C 49.0352 35.5117 54.7539 29.6758 54.7539 22.4336 C 54.7539 14.9805 48.6603 9.5195 40.7148 9.5195 C 37.7851 3.7305 32.3476 .39 25.5742 .39 C 16.7617 .39 9.4960 6.8945 8.7226 15.6133 C 4.4804 16.8320 1.2461 20.5351 1.2461 25.4805 C 1.2461 31.0117 5.2773 35.5117 12.2617 35.5117 Z M 12.2148 31.7383 C 7.4101 31.7383 4.9960 29.0664 4.9960 25.5976 C 4.9960 22.7617 6.6367 20.2305 10.6211 19.1758 C 11.9101 18.8476 12.3789 18.2383 12.4960 16.9024 C 13.0351 9.2617 18.7773 3.7539 25.5742 3.7539 C 30.8476 3.7539 34.9960 6.6367 37.5273 11.8398 C 38.0664 12.9648 38.7695 13.3633 40.1523 13.3633 C 47.0898 13.3633 51.0037 17.5586 51.0037 22.5508 C 51.0037 27.6602 46.9256 31.7383 41.5820 31.7383 Z M 13.3633 47.2070 C 13.7851 47.2070 14.0898 46.8086 14.0664 46.3633 L 13.9023 44.1367 L 15.7773 45.4023 C 16.1054 45.6367 16.6445 45.5430 16.8789 45.1914 C 17.0898 44.8398 16.9726 44.3008 16.5038 44.0898 L 14.4882 43.1055 L 16.5273 42.0977 C 16.9726 41.8867 17.0664 41.3711 16.9023 41.0195 C 16.6914 40.6445 16.1054 40.5742 15.7773 40.8086 L 13.9023 42.0977 L 14.0898 39.8477 C 14.1367 39.3789 13.7851 39.0039 13.3633 39.0039 C 12.8711 39.0039 12.5664 39.3789 12.5898 39.8477 L 12.7538 42.0977 L 10.8554 40.8086 C 10.5273 40.5742 10.0351 40.6211 9.8007 41.0195 C 9.5898 41.3711 9.6836 41.8633 10.1289 42.0977 L 12.1445 43.1055 L 10.1289 44.0898 C 9.6836 44.3008 9.5664 44.8164 9.7773 45.1914 C 9.9882 45.5664 10.5273 45.6367 10.8554 45.4023 L 12.7538 44.1367 L 12.6133 46.3633 C 12.5898 46.8086 12.8711 47.2070 13.3633 47.2070 Z M 39.3320 47.2070 C 39.7538 47.2070 40.0586 46.8086 40.0351 46.3633 L 39.8711 44.1367 L 41.7460 45.4023 C 42.0742 45.6367 42.6133 45.5430 42.8242 45.1914 C 43.0586 44.8398 42.9179 44.3008 42.4726 44.0898 L 40.4570 43.1055 L 42.4960 42.0977 C 42.9179 41.8867 43.0351 41.3711 42.8476 41.0195 C 42.6601 40.6445 42.0742 40.5742 41.7460 40.8086 L 39.8711 42.0977 L 40.0586 39.8477 C 40.1054 39.3789 39.7538 39.0039 39.3320 39.0039 C 38.8398 39.0039 38.5351 39.3789 38.5586 39.8477 L 38.7226 42.0977 L 36.8242 40.8086 C 36.4960 40.5742 36.0038 40.6211 35.7695 41.0195 C 35.5586 41.3711 35.6523 41.8633 36.0976 42.0977 L 38.1133 43.1055 L 36.0976 44.0898 C 35.6523 44.3008 35.5351 44.8164 35.7460 45.1914 C 35.9570 45.5664 36.4960 45.6367 36.8242 45.4023 L 38.7226 44.1367 L 38.5820 46.3633 C 38.5586 46.8086 38.8398 47.2070 39.3320 47.2070 Z M 26.3476 47.2070 C 26.7695 47.2070 27.0742 46.8086 27.0507 46.3633 L 26.8867 44.1367 L 28.7617 45.4023 C 29.0898 45.6367 29.6289 45.5430 29.8398 45.1914 C 30.0742 44.8398 29.9336 44.3008 29.4882 44.0898 L 27.4726 43.1055 L 29.5117 42.0977 C 29.9336 41.8867 30.0507 41.3711 29.8633 41.0195 C 29.6758 40.6445 29.0898 40.5742 28.7617 40.8086 L 26.8867 42.0977 L 27.0742 39.8477 C 27.1211 39.3789 26.7695 39.0039 26.3476 39.0039 C 25.8554 39.0039 25.5507 39.3789 25.5742 39.8477 L 25.7382 42.0977 L 23.8398 40.8086 C 23.5117 40.5742 23.0195 40.6211 22.7851 41.0195 C 22.5742 41.3711 22.6679 41.8633 23.1133 42.0977 L 25.1289 43.1055 L 23.1133 44.0898 C 22.6679 44.3008 22.5507 44.8164 22.7617 45.1914 C 22.9726 45.5664 23.5117 45.6367 23.8398 45.4023 L 25.7382 44.1367 L 25.5976 46.3633 C 25.5742 46.8086 25.8554 47.2070 26.3476 47.2070 Z M 21.2617 55.9961 C 21.6836 55.9961 21.9882 55.5976 21.9648 55.1758 L 21.8007 52.9258 L 23.6758 54.1914 C 24.0038 54.4258 24.5429 54.3320 24.7773 53.9805 C 24.9882 53.6289 24.8476 53.0898 24.4023 52.8789 L 22.3867 51.8945 L 24.4257 50.8867 C 24.8476 50.6758 24.9648 50.1836 24.7773 49.8086 C 24.5898 49.4336 24.0038 49.3633 23.6758 49.5976 L 21.8007 50.8867 L 21.9882 48.6367 C 22.0351 48.1680 21.6836 47.7929 21.2617 47.7929 C 20.7695 47.7929 20.4648 48.1680 20.4882 48.6367 L 20.6523 50.8867 L 18.7538 49.5976 C 18.4257 49.3633 17.9336 49.4102 17.6992 49.8086 C 17.4882 50.1836 17.5820 50.6758 18.0273 50.8867 L 20.0429 51.8945 L 18.0273 52.8789 C 17.5820 53.0898 17.4648 53.6055 17.6758 53.9805 C 17.8867 54.3555 18.4257 54.4258 18.7538 54.1914 L 20.6523 52.9492 L 20.5117 55.1758 C 20.4882 55.5976 20.7695 55.9961 21.2617 55.9961 Z M 34.2460 55.9961 C 34.6679 55.9961 34.9726 55.5976 34.9492 55.1758 L 34.7851 52.9258 L 36.6601 54.1914 C 36.9882 54.4258 37.5273 54.3320 37.7382 53.9805 C 37.9726 53.6289 37.8320 53.0898 37.3867 52.8789 L 35.3711 51.8945 L 37.4101 50.8867 C 37.8320 50.6758 37.9492 50.1836 37.7617 49.8086 C 37.5742 49.4336 36.9882 49.3633 36.6601 49.5976 L 34.7851 50.8867 L 34.9726 48.6367 C 35.0195 48.1680 34.6679 47.7929 34.2460 47.7929 C 33.7538 47.7929 33.4492 48.1680 33.4726 48.6367 L 33.6367 50.8867 L 31.7382 49.5976 C 31.4101 49.3633 30.9179 49.4102 30.6836 49.8086 C 30.4726 50.1836 30.5664 50.6758 31.0117 50.8867 L 33.0273 51.8945 L 31.0117 52.8789 C 30.5664 53.0898 30.4492 53.6055 30.6601 53.9805 C 30.8711 54.3555 31.4101 54.4258 31.7382 54.1914 L 33.6367 52.9492 L 33.4960 55.1758 C 33.4726 55.5976 33.7538 55.9961 34.2460 55.9961 Z M 8.2773 55.9961 C 8.6992 55.9961 9.0038 55.5976 8.9804 55.1758 L 8.8164 52.9258 L 10.6914 54.1914 C 11.0195 54.4258 11.5586 54.3320 11.7929 53.9805 C 12.0038 53.6289 11.8867 53.0898 11.4179 52.8789 L 9.4023 51.8945 L 11.4414 50.8867 C 11.8867 50.6758 11.9804 50.1836 11.8164 49.8086 C 11.6054 49.4336 11.0195 49.3633 10.6914 49.5976 L 8.8164 50.8867 L 9.0038 48.6367 C 9.0507 48.1680 8.6992 47.7929 8.2773 47.7929 C 7.7851 47.7929 7.4804 48.1680 7.5038 48.6367 L 7.6679 50.8867 L 5.7695 49.5976 C 5.4414 49.3633 4.9492 49.4102 4.7148 49.8086 C 4.5038 50.1836 4.5976 50.6758 5.0429 50.8867 L 7.0586 51.8945 L 5.0429 52.8789 C 4.5976 53.0898 4.4804 53.6055 4.6914 53.9805 C 4.9023 54.3555 5.4414 54.4258 5.7695 54.1914 L 7.6679 52.9492 L 7.5273 55.1758 C 7.5038 55.5976 7.7851 55.9961 8.2773 55.9961 Z"/></svg>