<svg xmlns="http://www.w3.org/2000/svg" width="57" height="56" viewBox="0 0 57 56">
  <path fill-rule="evenodd" d="M29.956181,36.8524845 L29.956181,43.5739817 C29.956181,44.6785512 29.0607505,45.5739817 27.956181,45.5739817 C26.8516115,45.5739817 25.956181,44.6785512 25.956181,43.5739817 L25.956181,36.8524845 L10.8722742,36.8524845 C5.16179086,36.8524845 0.532529419,32.223223 0.532529419,26.5127397 C0.532529419,21.6045779 3.95235292,17.4951588 8.5391803,16.4373019 C8.53657409,16.3495183 8.53526178,16.2614098 8.53526178,16.1729948 C8.53526178,11.3440365 12.449906,7.42939227 17.2788644,7.42939227 C18.1407721,7.42939227 18.9735519,7.5541039 19.7601433,7.7864667 C22.5068558,3.56329032 27.2678994,0.770663069 32.6811961,0.770663069 C41.1876691,0.770663069 48.0835279,7.66652189 48.0835279,16.1729948 C48.0835279,16.6568639 48.0612156,17.1355216 48.0175636,17.6079953 C52.3210371,18.6221788 55.524131,22.4871994 55.524131,27.1003427 C55.524131,32.4863019 51.1579484,36.8524845 45.7719893,36.8524845 L29.956181,36.8524845 L29.956181,36.8524845 Z M27.944431,17.0584061 C27.475631,17.0584061 27.053831,17.2224061 26.585031,17.6912061 L18.663131,25.3318061 C18.311631,25.6834061 18.124131,26.0584061 18.124131,26.5740061 C18.124131,27.5349061 18.850631,28.2146061 19.835031,28.2146061 C20.280331,28.2146061 20.772531,28.0271061 21.100631,27.6521061 L24.639731,23.8787061 L26.233531,22.2146061 L26.092831,25.7068061 L26.092831,35.6869731 C26.092831,36.6712731 26.936631,37.4916731 27.944431,37.4916731 C28.952231,37.4916731 29.819431,36.6712731 29.819431,35.6869731 L29.819431,25.7068061 L29.655331,22.2146061 L31.249131,23.8787061 L34.811631,27.6521061 C35.139731,28.0271061 35.631931,28.2146061 36.100631,28.2146061 C37.085031,28.2146061 37.788231,27.5349061 37.788231,26.5740061 C37.788231,26.0584061 37.577231,25.6834061 37.225631,25.3318061 L29.303831,17.6912061 C28.835031,17.2224061 28.436631,17.0584061 27.944431,17.0584061 Z" transform="translate(0 3)"/>
</svg>
