<svg xmlns="http://www.w3.org/2000/svg" width="56" height="56" viewBox="0 0 56 56"><path d="M 12.6457 34.5159 L 40.9191 34.5159 C 48.3919 34.5159 53.9509 28.8430 53.9509 21.8031 C 53.9509 14.5581 48.0275 9.2498 40.3039 9.2498 C 37.4561 3.6224 32.1705 0 25.5862 0 C 17.0200 0 9.9573 6.6981 9.2055 15.1733 C 5.0818 16.3580 1.9378 19.9577 1.9378 24.7648 C 1.9378 30.1416 5.8564 34.5159 12.6457 34.5159 Z M 12.6001 30.8479 C 7.9296 30.8479 5.5830 28.2506 5.5830 24.8788 C 5.5830 22.1221 7.1778 19.6615 11.0509 18.6363 C 12.3039 18.3173 12.7596 17.7250 12.8735 16.4263 C 13.3975 8.9992 18.9793 3.6452 25.5862 3.6452 C 30.7124 3.6452 34.7449 6.4475 37.2055 11.5053 C 37.7295 12.5988 38.4130 12.9862 39.7571 12.9862 C 46.5008 12.9862 50.3054 17.0643 50.3054 21.9170 C 50.3054 26.8837 46.3412 30.8479 41.1469 30.8479 Z M 23.1485 45.4744 L 26.2469 40.0521 C 26.6343 39.3686 26.4292 38.5712 25.7685 38.1611 C 25.0623 37.7738 24.2649 38.0016 23.8775 38.6851 L 20.7335 44.1302 C 20.3462 44.7909 20.5513 45.5883 21.2575 45.9984 C 21.9410 46.3629 22.7612 46.1351 23.1485 45.4744 Z M 20.5285 42.7632 L 22.0777 40.0521 C 22.4650 39.3914 22.2600 38.5712 21.5765 38.1611 C 20.8930 37.7738 20.0956 38.0016 19.7083 38.6851 L 18.1363 41.4190 C 17.7718 42.0797 17.9540 42.8771 18.6375 43.2872 C 19.3210 43.6517 20.1412 43.4239 20.5285 42.7632 Z M 36.2030 43.5606 L 38.1851 40.1204 C 38.5725 39.4369 38.3674 38.6168 37.6839 38.2067 C 37.0004 37.8194 36.1802 38.0700 35.8157 38.7307 L 33.8108 42.2392 C 33.4463 42.8771 33.6058 43.6745 34.3121 44.0846 C 34.9955 44.4719 35.8157 44.2441 36.2030 43.5606 Z M 11.1192 52.5142 C 11.5521 52.5142 11.8483 52.1269 11.8255 51.6941 L 11.6660 49.5297 L 13.4886 50.7600 C 13.8076 50.9878 14.3088 50.8967 14.5366 50.5549 C 14.7645 50.2132 14.6278 49.6892 14.1949 49.4842 L 12.2355 48.5273 L 14.2177 47.5476 C 14.6278 47.3425 14.7417 46.8413 14.5594 46.4996 C 14.3544 46.1351 13.8076 46.0667 13.4886 46.2945 L 11.6660 47.5476 L 11.8483 45.3605 C 11.8938 44.9048 11.5521 44.5403 11.1192 44.5403 C 10.6636 44.5403 10.3674 44.9048 10.3902 45.3605 L 10.5497 47.5476 L 8.7042 46.2945 C 8.3853 46.0667 7.8841 46.1123 7.6790 46.4996 C 7.4740 46.8413 7.5651 47.3198 7.9980 47.5476 L 9.9573 48.5273 L 7.9980 49.4842 C 7.5423 49.6892 7.4512 50.1904 7.6335 50.5549 C 7.8385 50.9194 8.3853 50.9878 8.7042 50.7600 L 10.5497 49.5297 L 10.4129 51.6941 C 10.3902 52.1269 10.6636 52.5142 11.1192 52.5142 Z M 34.9955 52.6054 C 35.4284 52.6054 35.7246 52.2180 35.7018 51.7852 L 35.5423 49.6208 L 37.3650 50.8511 C 37.6839 51.0789 38.1851 50.9878 38.4130 50.6461 C 38.6408 50.3043 38.5041 49.7803 38.0712 49.5753 L 36.1119 48.6184 L 38.0940 47.6387 C 38.5041 47.4337 38.6180 46.9325 38.4357 46.5907 C 38.2307 46.2262 37.6839 46.1578 37.3650 46.3857 L 35.5423 47.6387 L 35.7246 45.4516 C 35.7702 44.9959 35.4284 44.6314 34.9955 44.6314 C 34.5399 44.6314 34.2437 44.9959 34.2665 45.4516 L 34.4260 47.6387 L 32.5806 46.3857 C 32.2616 46.1578 31.7604 46.2034 31.5553 46.5907 C 31.3503 46.9325 31.4414 47.4109 31.8743 47.6387 L 33.8336 48.6184 L 31.8743 49.5753 C 31.4186 49.7803 31.3275 50.2815 31.5098 50.6461 C 31.7148 51.0106 32.2616 51.0789 32.5806 50.8511 L 34.4260 49.6208 L 34.2893 51.7852 C 34.2665 52.2180 34.5399 52.6054 34.9955 52.6054 Z M 22.0094 56 C 22.4194 56 22.7156 55.6127 22.6929 55.1798 L 22.5334 53.0155 L 24.3560 54.2457 C 24.6749 54.4735 25.1990 54.3824 25.4268 54.0407 C 25.6318 53.6990 25.5179 53.1749 25.0623 52.9699 L 23.1030 52.0130 L 25.0850 51.0334 C 25.5179 50.8283 25.6091 50.3271 25.4496 49.9854 C 25.2445 49.6208 24.6749 49.5525 24.3560 49.7803 L 22.5334 51.0334 L 22.7156 48.8462 C 22.7612 48.3906 22.4194 48.0261 22.0094 48.0261 C 21.5309 48.0261 21.2575 48.3906 21.2803 48.8462 L 21.4170 51.0334 L 19.5716 49.7803 C 19.2527 49.5525 18.7742 49.5980 18.5464 49.9854 C 18.3414 50.3271 18.4325 50.8055 18.8653 51.0334 L 20.8247 52.0130 L 18.8653 52.9699 C 18.4325 53.1749 18.3186 53.6761 18.5236 54.0407 C 18.7287 54.4052 19.2527 54.4735 19.5716 54.2457 L 21.4170 53.0155 L 21.3031 55.1798 C 21.2803 55.6127 21.5309 56 22.0094 56 Z"/></svg>