<svg xmlns="http://www.w3.org/2000/svg" width="57" height="56" viewBox="0 0 57 56">
  <path fill-rule="evenodd" d="M27.944101,35.0477845 C28.901511,35.0477845 29.710911,35.7881955 29.7894574,36.7061508 L29.795701,36.8524845 L29.795701,41.2023332 L29.655001,44.6945332 L31.248801,43.0304332 L34.787901,39.2570332 C35.116001,38.8820332 35.608201,38.6945332 36.053501,38.6945332 C37.037901,38.6945332 37.764401,39.3742332 37.764401,40.3351332 C37.764401,40.7934443 37.6162528,41.140664 37.3364613,41.4591057 L37.225401,41.5773332 L29.303501,49.2179332 C28.834701,49.6867332 28.412901,49.8507332 27.944101,49.8507332 C27.501121,49.8507332 27.134119,49.7178932 26.7233932,49.34957 L26.584701,49.2179332 L18.662901,41.5773332 C18.311301,41.2257332 18.100301,40.8507332 18.100301,40.3351332 C18.100301,39.3742332 18.803501,38.6945332 19.787901,38.6945332 C20.2045232,38.6945332 20.6397133,38.8426813 20.9617139,39.1389776 L21.076901,39.2570332 L24.639401,43.0304332 L26.233201,44.6945332 L26.069101,41.2023332 L26.069101,36.8524845 C26.069101,35.8681845 26.936301,35.0477845 27.944101,35.0477845 Z M32.6573661,0.770663069 C41.163839,0.770663069 48.0596978,7.66652189 48.0596978,16.1729948 C48.0596978,16.6568639 48.0373855,17.1355216 47.9937336,17.6079953 C52.297207,18.6221788 55.500301,22.4871994 55.500301,27.1003427 C55.500301,32.4863019 51.1341184,36.8524845 45.7481592,36.8524845 L30.332351,36.8524845 L30.332351,23.6801993 C30.332351,22.3547159 29.2578344,21.2801993 27.932351,21.2801993 C26.6068676,21.2801993 25.532351,22.3547159 25.532351,23.6801993 L25.532351,36.8524845 L10.8484442,36.8524845 C5.13796081,36.8524845 0.508699372,32.223223 0.508699372,26.5127397 C0.508699372,21.6045779 3.92852288,17.4951588 8.51535025,16.4373019 L8.51143173,16.1729948 L8.51143173,16.1729948 C8.51143173,11.3440365 12.4260759,7.42939227 17.2550343,7.42939227 C18.1169421,7.42939227 18.9497219,7.5541039 19.7363133,7.7864667 C22.4830258,3.56329032 27.2440694,0.770663069 32.6573661,0.770663069 Z" transform="translate(0 3)"/>
</svg>
