<svg xmlns="http://www.w3.org/2000/svg" width="56" height="56" viewBox="0 0 56 56"><path d="M 36.0607 17.8372 C 36.9284 17.8372 37.6614 17.0852 37.6614 16.2367 L 37.6614 12.0714 C 37.6614 11.1843 36.9284 10.4708 36.0607 10.4708 C 35.1736 10.4708 34.4408 11.1843 34.4408 12.0714 L 34.4408 16.2367 C 34.4408 17.0852 35.1736 17.8372 36.0607 17.8372 Z M 24.8568 21.5397 C 25.4931 22.1761 26.5538 22.1568 27.1515 21.5397 C 27.7301 20.9226 27.7493 19.9199 27.1515 19.3028 L 24.1626 16.3331 C 23.5455 15.7160 22.5427 15.7160 21.9256 16.3331 C 21.3086 16.9502 21.3086 17.9722 21.9256 18.5893 Z M 44.9696 21.5397 C 45.5675 22.1568 46.6089 22.1761 47.2452 21.5397 L 50.1763 18.5893 C 50.7936 17.9722 50.7936 16.9502 50.1763 16.3331 C 49.5595 15.7160 48.5563 15.7160 47.9394 16.3331 L 44.9696 19.3028 C 44.3527 19.9199 44.3720 20.9226 44.9696 21.5397 Z M 8.1763 49.4047 L 29.0413 49.4047 C 34.6143 49.4047 38.9338 45.1816 38.9338 39.7436 C 38.9338 39.6857 38.9338 39.6279 38.9338 39.5893 C 42.8294 38.3166 45.5868 34.7298 45.5868 30.4488 C 45.5868 25.1458 41.3445 20.9034 36.0607 20.9034 C 31.7604 20.9034 28.1736 23.6802 26.9587 27.5563 C 24.6447 24.9144 21.4050 23.3717 17.7411 23.3717 C 11.3581 23.3717 6.0165 28.3083 5.3802 34.6527 C 2.1598 35.6554 0 38.4323 0 41.9419 C 0 46.2808 3.2590 49.4047 8.1763 49.4047 Z M 36.0607 23.7188 C 39.8208 23.7188 42.7520 26.6692 42.7520 30.4488 C 42.7520 33.3414 41.0167 35.7711 38.4710 36.7546 C 37.2368 33.0714 33.7466 30.4874 29.3499 30.2174 C 29.4656 26.5535 32.3775 23.7188 36.0607 23.7188 Z M 8.0992 46.3193 C 4.8210 46.3193 3.0854 44.4295 3.0854 42.0191 C 3.0854 39.9750 4.2810 38.1623 7.1157 37.4102 C 8.0413 37.1596 8.3885 36.7546 8.4656 35.7711 C 8.9091 30.3717 12.9201 26.4764 17.7411 26.4764 C 21.4821 26.4764 24.3940 28.5397 26.1873 32.1265 C 26.5923 32.9557 27.0744 33.2450 28.0579 33.2450 C 33.0331 33.2450 35.8485 36.2532 35.8485 39.8400 C 35.8485 43.4268 32.9174 46.3193 29.0992 46.3193 Z M 50.2534 32.0494 L 54.4187 32.0494 C 55.2864 32.0494 56.0000 31.3359 56.0000 30.4488 C 56.0000 29.5810 55.2864 28.8675 54.4187 28.8675 L 50.2534 28.8675 C 49.3857 28.8675 48.6531 29.5810 48.6531 30.4488 C 48.6531 31.3359 49.3857 32.0494 50.2534 32.0494 Z M 47.9394 44.6031 C 48.5563 45.2202 49.5595 45.2009 50.1763 44.5838 C 50.7936 43.9667 50.7936 42.9447 50.1763 42.3469 L 47.2065 39.3965 C 46.5896 38.7987 45.5868 38.7794 44.9696 39.3965 C 44.3527 40.0135 44.3527 41.0356 44.9696 41.6527 Z"/></svg>