<svg xmlns="http://www.w3.org/2000/svg" width="56" height="56" viewBox="0 0 56 56">
  <path d="M9.34827449,18.7716733 C6.1972986,20.1721614 4,23.3294774 4,27 C4,31.9705627 8.02943725,36 13,36 C14.958988,36 16.7717919,35.3741117 18.2493518,34.3113952 C16.8298357,32.2281856 16,29.711002 16,27 C16,26.3415769 16.0489489,25.6945864 16.1434061,25.0624689 C13.1810634,23.8686398 10.7595302,21.6152186 9.34827449,18.7716733 L9.34827449,18.7716733 Z M13.5256764,18.0150966 C14.4669324,19.4151453 15.7911577,20.5362479 17.3482745,21.2283267 C17.6138892,20.6931384 17.9152917,20.1788544 18.2493518,19.6886048 C16.9048845,18.7216134 15.2828478,18.1162992 13.5256764,18.0150966 L13.5256764,18.0150966 Z M21.9412981,25.9664433 C21.6304292,25.988687 21.3165358,26 21,26 C20.6834642,26 20.3695708,25.988687 20.0587019,25.9664433 C20.0199253,26.3055924 20,26.6504693 20,27 C20,28.4876314 20.3609308,29.8909629 21,31.1272021 C21.6390692,29.8909629 22,28.4876314 22,27 C22,26.6504693 21.9800747,26.3055924 21.9412981,25.9664433 L21.9412981,25.9664433 Z M12.0587019,14.0335567 C12.3695708,14.011313 12.6834642,14 13,14 C16.0170569,14 18.7940633,15.0277783 21,16.7523156 C23.2059367,15.0277783 25.9829431,14 29,14 C29.3165358,14 29.6304292,14.011313 29.9412981,14.0335567 C29.9800747,13.6944076 30,13.3495307 30,13 C30,8.02943725 25.9705627,4 21,4 C16.0294373,4 12,8.02943725 12,13 C12,13.3495307 12.0199253,13.6944076 12.0587019,14.0335567 L12.0587019,14.0335567 Z M8.14340611,14.9375311 C8.04894886,14.3054136 8,13.6584231 8,13 C8,5.82029825 13.8202983,0 21,0 C28.1797017,0 34,5.82029825 34,13 C34,13.6584231 33.9510511,14.3054136 33.8565939,14.9375311 C38.630566,16.8614499 42,21.5372382 42,27 C42,34.1797017 36.1797017,40 29,40 C25.9829431,40 23.2059367,38.9722217 21,37.2476844 C18.7940633,38.9722217 16.0170569,40 13,40 C5.82029825,40 0,34.1797017 0,27 C0,21.5372382 3.36943401,16.8614499 8.14340611,14.9375311 L8.14340611,14.9375311 Z M24.6517255,21.2283267 C26.2088423,20.5362479 27.5330676,19.4151453 28.4743236,18.0150966 C26.7171522,18.1162992 25.0951155,18.7216134 23.7506482,19.6886048 C24.0847083,20.1788544 24.3861108,20.6931384 24.6517255,21.2283267 L24.6517255,21.2283267 Z M25.8565939,25.0624689 C25.9510511,25.6945864 26,26.3415769 26,27 C26,29.711002 25.1701643,32.2281856 23.7506482,34.3113952 C25.2282081,35.3741117 27.041012,36 29,36 C33.9705627,36 38,31.9705627 38,27 C38,23.3294774 35.8027014,20.1721614 32.6517255,18.7716733 C31.2404698,21.6152186 28.8189366,23.8686398 25.8565939,25.0624689 L25.8565939,25.0624689 Z" transform="translate(7 6)"/>
</svg>
