<svg xmlns="http://www.w3.org/2000/svg" width="56" height="56" viewBox="0 0 56 56">
  <path fill-rule="evenodd" d="M21,0 C28.1797017,0 34,5.82029825 34,13 C34,13.658516 33.9510373,14.3055961 33.8565539,14.9377985 C38.6302335,16.8609886 42,21.5369687 42,27 C42,34.1797017 36.1797017,40 29,40 C25.9829684,40 23.2059833,38.972239 21.0000556,37.2477279 C18.7948596,38.971927 16.0174894,40 13,40 C5.82029825,40 0,34.1797017 0,27 C0,21.5369687 3.36976647,16.8609886 8.14411267,14.9372463 C8.04896267,14.3055961 8,13.658516 8,13 C8,5.82029825 13.8202983,0 21,0 Z" opacity=".9" transform="translate(7 8)"/>
</svg>
