<svg width="56" height="56" viewBox="0 0 56 56" fill="none" xmlns="http://www.w3.org/2000/svg">
<path fill-rule="evenodd" clip-rule="evenodd" d="M5 21.9658V34H51.8813V21.9658H5ZM15 25C13.8954 25 13 25.8954 13 27C13 28.1046 13.8954 29 15 29H20C21.1046 29 22 28.1046 22 27C22 25.8954 21.1046 25 20 25H15Z" fill="black"/>
<path d="M5 35H52V36C52 36.5523 51.5523 37 51 37H6C5.44772 37 5 36.5523 5 36V35Z" fill="black"/>
<path d="M5 21H52V20C52 19.4477 51.5523 19 51 19H6C5.44772 19 5 19.4477 5 20V21Z" fill="black"/>
</svg>
