<svg xmlns="http://www.w3.org/2000/svg" width="56" height="56" viewBox="0 0 56 56"><path d="M 20.5586 42.3554 L 38.6524 42.3554 L 38.6524 51.6601 C 38.6524 52.8320 39.4024 53.6289 40.5508 53.6289 C 41.6758 53.6289 42.4258 52.8320 42.4258 51.6601 L 42.4258 42.3554 L 51.8479 42.3554 C 52.9725 42.3554 53.6992 41.6992 53.6992 40.5976 C 53.6992 39.4961 52.9725 38.8398 51.8479 38.8398 L 42.4258 38.8398 L 42.4258 20.5351 C 42.4258 15.8476 40.1758 13.6445 35.4414 13.6445 L 17.3477 13.6445 L 17.3477 4.3398 C 17.3477 3.1679 16.5977 2.3711 15.4726 2.3711 C 14.3242 2.3711 13.5742 3.1679 13.5742 4.3398 L 13.5742 13.6445 L 4.1758 13.6445 C 3.0273 13.6445 2.3008 14.3242 2.3008 15.4023 C 2.3008 16.5273 3.0273 17.1601 4.1758 17.1601 L 13.5742 17.1601 L 13.5742 35.4648 C 13.5742 40.1523 15.8242 42.3554 20.5586 42.3554 Z M 20.8633 38.8398 C 18.4492 38.8398 17.3477 37.5508 17.3477 35.2773 L 17.3477 17.1601 L 35.1367 17.1601 C 37.5508 17.1601 38.6524 18.4726 38.6524 20.7461 L 38.6524 38.8398 Z"/></svg>