<svg xmlns="http://www.w3.org/2000/svg" width="56" height="56" viewBox="0 0 56 56"><path d="M 27.9999 51.9063 C 41.0546 51.9063 51.9063 41.0781 51.9063 28 C 51.9063 14.9453 41.0312 4.0937 27.9765 4.0937 C 14.8983 4.0937 4.0937 14.9453 4.0937 28 C 4.0937 41.0781 14.9218 51.9063 27.9999 51.9063 Z M 27.9296 21.8828 C 26.2890 21.8828 24.9999 20.7109 24.9999 19.1641 C 24.9999 17.4531 26.2890 16.2109 27.9296 16.2109 C 29.7109 16.2109 30.9530 17.4297 30.9530 19.1641 C 30.9530 20.6875 29.6874 21.8828 27.9296 21.8828 Z M 18.4140 30.0859 C 17.0077 30.0859 16.0702 29.3828 16.0702 28.0469 C 16.0702 26.7109 16.9609 25.9609 18.4140 25.9609 L 37.5858 25.9609 C 38.9921 25.9609 39.8827 26.7109 39.8827 28.0469 C 39.8827 29.3828 38.9452 30.0859 37.5858 30.0859 Z M 27.9296 39.8359 C 26.2890 39.8359 24.9999 38.6406 24.9999 37.1172 C 24.9999 35.3594 26.2890 34.1641 27.9296 34.1641 C 29.7109 34.1641 30.9530 35.3594 30.9530 37.1172 C 30.9530 38.6406 29.6874 39.8359 27.9296 39.8359 Z"/></svg>