<svg xmlns="http://www.w3.org/2000/svg" width="56" height="56" viewBox="0 0 56 56"><path d="M 27.9999 51.9063 C 41.0546 51.9063 51.9063 41.0781 51.9063 28 C 51.9063 14.9453 41.0312 4.0937 27.9765 4.0937 C 14.8983 4.0937 4.0937 14.9453 4.0937 28 C 4.0937 41.0781 14.9218 51.9063 27.9999 51.9063 Z M 21.2499 41.0781 C 18.6718 41.0781 17.3593 39.7656 17.3593 37.1172 L 17.3593 17.9922 C 17.3593 15.3672 18.6718 14.0312 21.2499 14.0312 L 26.8983 14.0312 L 26.8983 23.4766 C 26.8983 25.0937 27.6718 25.8437 29.2890 25.8437 L 38.5702 25.8437 L 38.5702 37.1172 C 38.5702 39.7422 37.2812 41.0781 34.6796 41.0781 Z M 29.4765 23.9453 C 29.0312 23.9453 28.7968 23.7109 28.7968 23.2656 L 28.7968 14.1719 C 29.3124 14.2422 29.8514 14.6172 30.4374 15.2266 L 37.3749 22.3047 C 37.9843 22.9141 38.3593 23.4297 38.4296 23.9453 Z"/></svg>