<svg xmlns="http://www.w3.org/2000/svg" width="56" height="56" viewBox="0 0 56 56">
  <path d="M18.6875,0.88 C21.2378111,0.88 22.679816,1.24943539 24.3736613,2.90920892 L24.5703,3.1065 L37.5078,16.255 C39.0595241,17.8454552 39.5517781,19.0186699 39.6753935,21.0896502 L39.6990172,21.6268597 L39.6990172,21.6268597 L39.7096796,22.2060421 L39.7096796,22.2060421 L39.7109,43.794 C39.7109,48.5715 37.3924944,51.0305944 32.7334711,51.1270472 L32.4453,51.13 L7.5547,51.13 C2.823162,51.13 0.38755624,48.789025 0.292024625,44.084957 L0.2891,43.794 L0.2891,8.2394 C0.2891,3.4619 2.630075,0.98033224 7.2678831,0.88298053 L7.5547,0.88 L18.6875,0.88 Z M18.1718,4.6534 L7.7656,4.6534 C5.40672903,4.6534 4.14537107,5.90459667 4.06644774,8.08823938 L4.0625,8.3097 L4.0625,43.7237 C4.0625,45.9918935 5.24776535,47.2722411 7.51216668,47.3524839 L7.7422,47.3565 L32.2578,47.3565 C34.616671,47.3565 35.8561143,46.14932 35.9336237,43.9472187 L35.9375,43.7237 L35.9375,22.6768 L22.5781,22.6768 C19.7548371,22.6768 18.2586623,21.3055481 18.1754713,18.5200505 L18.1718,18.2706 L18.1718,4.6534 Z M10.1255615,30.9349731 C10.9886615,30.9349731 11.6883423,31.6346539 11.6883423,32.4977539 L11.6883423,43.4372192 C11.6883423,44.3003192 10.9886615,45 10.1255615,45 L8.56278076,45 C7.69968078,45 7,44.3003192 7,43.4372192 L7,32.4977539 C7,31.6346539 7.69968078,30.9349731 8.56278076,30.9349731 L10.1255615,30.9349731 Z M24.1905884,35.6233154 C25.0536884,35.6233154 25.7533692,36.3229962 25.7533692,37.1860962 L25.7533692,43.4372192 C25.7533692,44.3003192 25.0536884,45 24.1905884,45 L22.6278076,45 C21.7647077,45 21.0650269,44.3003192 21.0650269,43.4372192 L21.0650269,37.1860962 C21.0650269,36.3229962 21.7647077,35.6233154 22.6278076,35.6233154 L24.1905884,35.6233154 Z M17.158075,26.2466308 C18.021175,26.2466308 18.7208557,26.9463116 18.7208557,27.8094116 L18.7208557,43.4372192 C18.7208557,44.3003192 18.021175,45 17.158075,45 L15.5952942,45 C14.7321942,45 14.0325134,44.3003192 14.0325134,43.4372192 L14.0325134,27.8094116 C14.0325134,26.9463116 14.7321942,26.2466308 15.5952942,26.2466308 L17.158075,26.2466308 Z M21.7109,5.38 L21.7109,17.8253 C21.7109,18.7076529 22.0430799,19.091736 22.844251,19.1338691 L23,19.1378 L35.2109,19.1378 L21.7109,5.38 Z" transform="translate(8 2)"/>
</svg>
