<svg xmlns="http://www.w3.org/2000/svg" width="56" height="56" viewBox="0 0 56 56"><path d="M 47.6171 21.4023 C 48.8591 21.4023 49.5157 20.7227 49.5157 19.4805 L 49.5157 13.7383 C 49.5157 8.9102 47.0780 6.4961 42.1562 6.4961 L 36.4374 6.4961 C 35.1952 6.4961 34.5155 7.1758 34.5155 8.3711 C 34.5155 9.5898 35.1952 10.2696 36.4374 10.2696 L 42.1093 10.2696 C 44.4062 10.2696 45.7421 11.5118 45.7421 13.9492 L 45.7421 19.4805 C 45.7421 20.7227 46.4218 21.4023 47.6171 21.4023 Z M 8.3827 21.4023 C 9.6015 21.4023 10.2577 20.7227 10.2577 19.4805 L 10.2577 13.9492 C 10.2577 11.5118 11.5702 10.2696 13.9140 10.2696 L 19.5858 10.2696 C 20.8046 10.2696 21.4843 9.5898 21.4843 8.3711 C 21.4843 7.1758 20.8046 6.4961 19.5858 6.4961 L 13.8436 6.4961 C 8.9687 6.4961 6.4843 8.9102 6.4843 13.7383 L 6.4843 19.4805 C 6.4843 20.7227 7.1640 21.4023 8.3827 21.4023 Z M 18.2968 41.1836 L 37.2343 41.1836 C 38.9452 41.1836 39.7187 40.5274 39.7187 38.8164 L 39.7187 17.1602 C 39.7187 15.4492 38.9452 14.7930 37.2343 14.7930 L 18.2968 14.7930 C 16.5858 14.7930 15.8124 15.4492 15.8124 17.1602 L 15.8124 38.8164 C 15.8124 40.5274 16.5858 41.1836 18.2968 41.1836 Z M 19.5858 38.1367 C 19.1171 38.1367 18.8827 37.9258 18.8827 37.3867 L 18.8827 18.6133 C 18.8827 18.0742 19.1171 17.8398 19.5858 17.8398 L 35.9452 17.8398 C 36.4140 17.8398 36.6484 18.0742 36.6484 18.6133 L 36.6484 37.3867 C 36.6484 37.9258 36.4140 38.1367 35.9452 38.1367 Z M 22.8671 23.9102 L 32.6640 23.9102 C 33.4374 23.9102 33.9530 23.3945 33.9530 22.6680 C 33.9530 21.8945 33.4374 21.3789 32.6640 21.3789 L 22.8671 21.3789 C 22.0936 21.3789 21.6015 21.8945 21.6015 22.6680 C 21.6015 23.3945 22.0936 23.9102 22.8671 23.9102 Z M 22.8671 28.9492 L 28.1171 28.9492 C 28.8671 28.9492 29.3827 28.4102 29.3827 27.6836 C 29.3827 26.9336 28.8671 26.3945 28.1171 26.3945 L 22.8671 26.3945 C 22.0936 26.3945 21.6015 26.9336 21.6015 27.6836 C 21.6015 28.4102 22.0936 28.9492 22.8671 28.9492 Z M 13.8436 49.5039 L 19.5858 49.5039 C 20.8046 49.5039 21.4843 48.8242 21.4843 47.6289 C 21.4843 46.4102 20.8046 45.7305 19.5858 45.7305 L 13.9140 45.7305 C 11.5702 45.7305 10.2577 44.4883 10.2577 42.0508 L 10.2577 36.5196 C 10.2577 35.2774 9.5780 34.5977 8.3827 34.5977 C 7.1405 34.5977 6.4843 35.2774 6.4843 36.5196 L 6.4843 42.2383 C 6.4843 47.0898 8.9687 49.5039 13.8436 49.5039 Z M 36.4374 49.5039 L 42.1562 49.5039 C 47.0780 49.5039 49.5157 47.0664 49.5157 42.2383 L 49.5157 36.5196 C 49.5157 35.2774 48.8360 34.5977 47.6171 34.5977 C 46.3984 34.5977 45.7421 35.2774 45.7421 36.5196 L 45.7421 42.0508 C 45.7421 44.4883 44.4062 45.7305 42.1093 45.7305 L 36.4374 45.7305 C 35.1952 45.7305 34.5155 46.4102 34.5155 47.6289 C 34.5155 48.8242 35.1952 49.5039 36.4374 49.5039 Z"/></svg>