<svg xmlns="http://www.w3.org/2000/svg" width="56" height="56" viewBox="0 0 56 56"><path d="M 9.5899 50.2070 L 46.4102 50.2070 C 49.9257 50.2070 52.1289 47.6758 52.1289 44.4883 C 52.1289 43.5273 51.8947 42.5664 51.3791 41.6758 L 32.9336 8.6758 C 31.8789 6.7773 29.9570 5.7930 28.0117 5.7930 C 26.0899 5.7930 24.1211 6.7773 23.0664 8.6758 L 4.6446 41.6992 C 4.1289 42.5898 3.8711 43.5273 3.8711 44.4883 C 3.8711 47.6758 6.0977 50.2070 9.5899 50.2070 Z M 28.0117 42.0273 C 24.4258 42.0273 21.4961 39.2148 21.4961 35.6523 C 21.4961 33.5899 22.4805 31.6445 23.4648 29.8399 L 27.4024 22.5742 C 27.5664 22.3164 27.7305 22.1523 28.0117 22.1523 C 28.2930 22.1523 28.5039 22.3164 28.6211 22.5742 L 32.5586 29.8399 C 33.5195 31.6445 34.5273 33.5899 34.5273 35.6523 C 34.5273 39.2148 31.5977 42.0273 28.0117 42.0273 Z"/></svg>