<svg xmlns="http://www.w3.org/2000/svg" width="56" height="56" viewBox="0 0 56 56"><path d="M 16.5860 52.2461 C 17.7579 52.2461 18.5548 51.6367 19.9610 50.3711 L 28.0704 43.1758 L 43.0938 43.1758 C 50.0783 43.1758 53.8280 39.3086 53.8280 32.4414 L 53.8280 14.4883 C 53.8280 7.6211 50.0783 3.7539 43.0938 3.7539 L 12.9064 3.7539 C 5.9454 3.7539 2.1720 7.5976 2.1720 14.4883 L 2.1720 32.4414 C 2.1720 39.3320 5.9454 43.1758 12.9064 43.1758 L 14.0313 43.1758 L 14.0313 49.2695 C 14.0313 51.0742 14.9688 52.2461 16.5860 52.2461 Z M 17.5469 47.9570 L 17.5469 41.1602 C 17.5469 39.8945 17.0782 39.4023 15.7891 39.4023 L 12.9298 39.4023 C 8.1720 39.4023 5.9454 36.9883 5.9454 32.4180 L 5.9454 14.4883 C 5.9454 9.9180 8.1720 7.5273 12.9298 7.5273 L 43.0938 7.5273 C 47.8280 7.5273 50.0548 9.9180 50.0548 14.4883 L 50.0548 32.4180 C 50.0548 36.9883 47.8280 39.4023 43.0938 39.4023 L 27.9064 39.4023 C 26.6173 39.4023 25.9376 39.5898 25.0469 40.5039 Z M 20.6173 24.4024 C 20.6173 22.7149 19.1876 21.2851 17.5001 21.2851 C 15.7891 21.2851 14.3829 22.7149 14.3829 24.4024 C 14.3829 26.0898 15.8126 27.5195 17.5001 27.5195 C 19.1876 27.5195 20.6173 26.0898 20.6173 24.4024 Z M 31.2813 24.4024 C 31.2813 22.7149 29.8516 21.2851 28.1642 21.2851 C 26.4766 21.2851 25.0469 22.7149 25.0469 24.4024 C 25.0469 26.0898 26.5001 27.5195 28.1642 27.5195 C 29.8516 27.5195 31.2813 26.0898 31.2813 24.4024 Z M 41.9688 24.4024 C 41.9688 22.7149 40.5391 21.2851 38.8282 21.2851 C 37.1407 21.2851 35.7110 22.7149 35.7110 24.4024 C 35.7110 26.0898 37.1642 27.5195 38.8282 27.5195 C 40.5391 27.5195 41.9688 26.0898 41.9688 24.4024 Z"/></svg>