<svg xmlns="http://www.w3.org/2000/svg" width="57" height="56" viewBox="0 0 57 56">
  <path d="M0.0937,23.9999 C0.0937,10.9218 10.9219,0.0937 24,0.0937 C37.0547,0.0937 47.9063,10.8983 47.9063,23.9765 C47.9063,37.0312 37.0547,47.9063 24,47.9063 C10.9219,47.9063 0.0937,37.0546 0.0937,23.9999 Z M23.9766,15.7265 C25.8281,15.7265 27.4922,14.1093 27.4922,12.2343 C27.4922,10.3124 25.8516,8.7655 23.9766,8.7655 C22.125,8.7655 20.4844,10.3358 20.4844,12.2343 C20.4844,14.1093 22.125,15.7265 23.9766,15.7265 Z M23.9766,27.4452 C25.8281,27.4452 27.4922,25.8514 27.4922,23.9765 C27.4922,22.078 25.8516,20.5077 23.9766,20.5077 C22.125,20.5077 20.4844,22.1014 20.4844,23.9765 C20.4844,25.8514 22.125,27.4452 23.9766,27.4452 Z M23.9766,39.1874 C25.8281,39.1874 27.4922,37.5936 27.4922,35.6952 C27.4922,33.8202 25.8516,32.203 23.9766,32.203 C22.125,32.203 20.4844,33.8436 20.4844,35.6952 C20.4844,37.5936 22.125,39.1874 23.9766,39.1874 Z" transform="translate(4 4)"/>
</svg>
