<svg xmlns="http://www.w3.org/2000/svg" width="56" height="56" viewBox="0 0 56 56"><path d="M 27.9999 51.9063 C 41.0546 51.9063 51.9063 41.0781 51.9063 28 C 51.9063 14.9453 41.0312 4.0937 27.9765 4.0937 C 14.8983 4.0937 4.0937 14.9453 4.0937 28 C 4.0937 41.0781 14.9218 51.9063 27.9999 51.9063 Z M 18.6952 25.3516 C 17.4296 25.3516 16.5624 24.7422 16.5624 23.5 C 16.5624 22.2344 17.3827 21.6016 18.6952 21.6016 L 37.2109 21.6016 C 38.5468 21.6016 39.3436 22.2344 39.3436 23.5 C 39.3436 24.7422 38.4999 25.3516 37.2109 25.3516 Z M 18.6952 34.4688 C 17.4296 34.4688 16.5624 33.8359 16.5624 32.5937 C 16.5624 31.3281 17.3827 30.6953 18.6952 30.6953 L 37.2109 30.6953 C 38.5468 30.6953 39.3436 31.3281 39.3436 32.5937 C 39.3436 33.8359 38.4999 34.4688 37.2109 34.4688 Z"/></svg>