<svg xmlns="http://www.w3.org/2000/svg" width="56" height="56" viewBox="0 0 56 56"><path d="M 39.6485 28.9024 L 40.3048 28.1758 C 41.4532 26.9805 41.5001 25.5742 40.2813 24.3555 L 39.5782 23.6758 C 43.1641 20.4649 47.1485 20.0195 49.6095 17.5117 C 53.1015 13.9961 51.9533 9.0742 49.5159 6.6133 C 47.0780 4.1289 42.2032 3.0742 38.6172 6.5195 C 36.0860 8.9571 35.6641 12.9649 32.4532 16.5508 L 31.7735 15.8476 C 30.5548 14.6289 29.1485 14.6758 27.9532 15.8242 L 27.2266 16.4805 C 25.7969 17.8633 26.0548 19.0820 27.2969 20.3242 L 28.2813 21.3086 L 10.5860 39.0274 C 3.3438 46.2695 6.8360 45.1445 2.8985 50.6992 L 4.9845 52.9258 C 10.3750 49.0117 9.6485 52.8555 16.9845 45.5195 L 34.7969 27.8242 L 35.8048 28.8320 C 37.0469 30.0742 38.2657 30.3320 39.6485 28.9024 Z M 10.1172 46.1289 C 9.2501 45.1914 9.4141 44.3008 10.3516 43.3633 L 30.2969 23.3242 L 32.8516 25.8789 L 12.8126 45.8945 C 11.9923 46.7383 10.9141 46.9961 10.1172 46.1289 Z"/></svg>