<svg xmlns="http://www.w3.org/2000/svg" width="56" height="56" viewBox="0 0 56 56">
  <path d="M23.9048968,47.8098224 C27.1703451,47.8098224 30.2443962,47.1848496 33.12705,45.9349039 C36.0097038,44.6849838 38.5525208,42.9585235 40.7555009,40.7555229 C42.9584809,38.5525217 44.6848958,36.0097022 45.9347455,33.1270644 C47.1849152,30.2444106 47.81,27.1703595 47.81,23.9049112 C47.81,20.6394629 47.1849152,17.5654118 45.9347455,14.682758 C44.6848958,11.8001042 42.9584809,9.25728722 40.7555009,7.05430715 C38.5525208,4.85129509 36.0058001,3.12483221 33.1153387,1.87491852 C30.2248773,0.624972842 27.1469224,0 23.8814741,0 C20.6160258,0 17.5419748,0.624972842 14.6593209,1.87491852 C11.7766671,3.12483221 9.23775392,4.85129509 7.04258141,7.05430715 C4.84737691,9.25728722 3.12481781,11.8001042 1.87490413,14.682758 C0.624968042,17.5654118 1.70520664e-15,20.6394629 1.70520664e-15,23.9049112 C1.70520664e-15,27.1703595 0.624968042,30.2444106 1.87490413,33.1270644 C3.12481781,36.0097022 4.85128069,38.5525217 7.05429275,40.7555229 C9.25730482,42.9585235 11.8001378,44.6849838 14.6827916,45.9349039 C17.5654134,47.1848496 20.6394485,47.8098224 23.9048968,47.8098224 Z M23.9048968,35.9745522 C22.2175037,35.9745522 20.7410268,35.6698814 19.475466,35.0605396 C18.2099052,34.4511979 17.2216728,33.755925 16.5107688,32.974721 C15.7998968,32.1935169 15.4444608,31.5372978 15.4444608,31.0060637 C15.4444608,30.7092164 15.5616382,30.5061078 15.795993,30.396738 C16.0303478,30.2873682 16.2725262,30.2873682 16.5225281,30.396738 C17.413102,30.8654476 18.4247571,31.3263497 19.5574934,31.7794442 C20.6902297,32.2325707 22.1393641,32.459134 23.9048968,32.459134 C25.6548144,32.459134 27.1000451,32.2364905 28.2405889,31.7912036 C29.3811647,31.3459166 30.388932,30.8810948 31.2638908,30.396738 C31.5138608,30.2873682 31.7560231,30.2873682 31.9903779,30.396738 C32.2247328,30.5061078 32.3419102,30.7092164 32.3419102,31.0060637 C32.3419102,31.5372978 31.9903779,32.1935169 31.2873135,32.974721 C30.5842171,33.755925 29.5959846,34.4511979 28.3226163,35.0605396 C27.0492479,35.6698814 25.5766748,35.9745522 23.9048968,35.9745522 Z M16.7334282,21.7018831 C15.9834864,21.7018831 15.3233636,21.3933085 14.7530597,20.7761592 C14.1827877,20.1590099 13.8976518,19.3660945 13.8976518,18.397413 C13.8976518,17.4130844 14.178884,16.6084417 14.7413483,15.9834848 C15.3038127,15.358528 15.9678393,15.0460496 16.7334282,15.0460496 C17.5146323,15.0460496 18.1942901,15.358528 18.7724015,15.9834848 C19.350481,16.6084417 19.6395208,17.4130844 19.6395208,18.397413 C19.6395208,19.3660945 19.3465612,20.1590099 18.7606422,20.7761592 C18.1747552,21.3933085 17.4990172,21.7018831 16.7334282,21.7018831 Z M31.0529427,21.7018831 C30.3030009,21.7018831 29.6389742,21.3933085 29.0608628,20.7761592 C28.4827833,20.1590099 28.1937435,19.3660945 28.1937435,18.397413 C28.1937435,17.4130844 28.4788795,16.6084417 29.0491514,15.9834848 C29.6194233,15.358528 30.2873538,15.0460496 31.0529427,15.0460496 C31.8341467,15.0460496 32.5137885,15.358528 33.091868,15.9834848 C33.6699795,16.6084417 33.9590352,17.4130844 33.9590352,18.397413 C33.9590352,19.3660945 33.6660757,20.1590099 33.0801566,20.7761592 C32.4942696,21.3933085 31.8185316,21.7018831 31.0529427,21.7018831 Z" transform="translate(4 4)"/>
</svg>
