<svg xmlns="http://www.w3.org/2000/svg" width="56" height="56" viewBox="0 0 56 56"><path d="M 3.5429 49.6094 L 52.4804 49.6094 C 54.5896 49.6094 55.6446 48.5312 55.6446 46.4219 L 55.6446 9.5781 C 55.6446 7.4922 54.5896 6.3906 52.4804 6.3906 L 3.5429 6.3906 C 1.4335 6.3906 .3554 7.4922 .3554 9.5781 L .3554 46.4219 C .3554 48.5312 1.4335 49.6094 3.5429 49.6094 Z M 5.2304 14.1484 C 4.5273 14.1484 4.0351 13.6328 4.0351 13.0000 L 4.0351 10.3750 C 4.0351 9.6484 4.4804 9.1562 5.2304 9.1562 L 8.0663 9.1562 C 8.7695 9.1562 9.2382 9.6484 9.2382 10.3750 L 9.2382 13.0000 C 9.2382 13.6328 8.7695 14.1484 8.0663 14.1484 Z M 47.7227 14.1484 C 47.0195 14.1484 46.5275 13.6328 46.5275 13.0000 L 46.5275 10.3750 C 46.5275 9.6484 46.9960 9.1562 47.7227 9.1562 L 50.5585 9.1562 C 51.2617 9.1562 51.7537 9.6484 51.7537 10.3750 L 51.7537 13.0000 C 51.7537 13.6328 51.2617 14.1484 50.5585 14.1484 Z M 14.4179 26.2188 C 13.5976 26.2188 13.1523 25.7734 13.1523 24.9531 L 13.1523 11.1484 C 13.1523 10.3281 13.5976 9.8594 14.4179 9.8594 L 41.3476 9.8594 C 42.1679 9.8594 42.6366 10.3281 42.6366 11.1484 L 42.6366 24.9531 C 42.6366 25.7734 42.1679 26.2188 41.3476 26.2188 Z M 5.2304 22.3281 C 4.5273 22.3281 4.0351 21.8125 4.0351 21.1797 L 4.0351 18.5547 C 4.0351 17.8281 4.4804 17.3359 5.2304 17.3359 L 8.0663 17.3359 C 8.7695 17.3359 9.2382 17.8281 9.2382 18.5547 L 9.2382 21.1797 C 9.2382 21.8125 8.7695 22.3281 8.0663 22.3281 Z M 47.7227 22.3281 C 47.0195 22.3281 46.5275 21.8125 46.5275 21.1797 L 46.5275 18.5547 C 46.5275 17.8281 46.9960 17.3359 47.7227 17.3359 L 50.5585 17.3359 C 51.2617 17.3359 51.7537 17.8281 51.7537 18.5547 L 51.7537 21.1797 C 51.7537 21.8125 51.2617 22.3281 50.5585 22.3281 Z M 5.2304 30.5078 C 4.5273 30.5078 4.0351 29.9922 4.0351 29.3594 L 4.0351 26.7344 C 4.0351 26.0078 4.4804 25.5156 5.2304 25.5156 L 8.0663 25.5156 C 8.7695 25.5156 9.2382 26.0078 9.2382 26.7344 L 9.2382 29.3594 C 9.2382 29.9922 8.7695 30.5078 8.0663 30.5078 Z M 47.7227 30.5078 C 47.0195 30.5078 46.5275 29.9922 46.5275 29.3594 L 46.5275 26.7344 C 46.5275 26.0078 46.9960 25.5156 47.7227 25.5156 L 50.5585 25.5156 C 51.2617 25.5156 51.7537 26.0078 51.7537 26.7344 L 51.7537 29.3594 C 51.7537 29.9922 51.2617 30.5078 50.5585 30.5078 Z M 14.4179 46.1641 C 13.5976 46.1641 13.1523 45.6953 13.1523 44.8984 L 13.1523 31.1641 C 13.1523 30.3672 13.5976 29.8984 14.4179 29.8984 L 41.3476 29.8984 C 42.1679 29.8984 42.6366 30.3672 42.6366 31.1641 L 42.6366 44.8984 C 42.6366 45.6953 42.1679 46.1641 41.3476 46.1641 Z M 5.2304 38.6875 C 4.5273 38.6875 4.0351 38.1719 4.0351 37.5391 L 4.0351 34.9141 C 4.0351 34.1875 4.4804 33.6953 5.2304 33.6953 L 8.0663 33.6953 C 8.7695 33.6953 9.2382 34.1875 9.2382 34.9141 L 9.2382 37.5391 C 9.2382 38.1719 8.7695 38.6875 8.0663 38.6875 Z M 47.7227 38.6875 C 47.0195 38.6875 46.5275 38.1719 46.5275 37.5391 L 46.5275 34.9141 C 46.5275 34.1875 46.9960 33.6953 47.7227 33.6953 L 50.5585 33.6953 C 51.2617 33.6953 51.7537 34.1875 51.7537 34.9141 L 51.7537 37.5391 C 51.7537 38.1719 51.2617 38.6875 50.5585 38.6875 Z M 5.2304 46.8672 C 4.5273 46.8672 4.0351 46.3516 4.0351 45.7187 L 4.0351 43.0937 C 4.0351 42.3672 4.4804 41.8750 5.2304 41.8750 L 8.0663 41.8750 C 8.7695 41.8750 9.2382 42.3672 9.2382 43.0937 L 9.2382 45.7187 C 9.2382 46.3516 8.7695 46.8672 8.0663 46.8672 Z M 47.7227 46.8672 C 47.0195 46.8672 46.5275 46.3516 46.5275 45.7187 L 46.5275 43.0937 C 46.5275 42.3672 46.9960 41.8750 47.7227 41.8750 L 50.5585 41.8750 C 51.2617 41.8750 51.7537 42.3672 51.7537 43.0937 L 51.7537 45.7187 C 51.7537 46.3516 51.2617 46.8672 50.5585 46.8672 Z"/></svg>