<svg xmlns="http://www.w3.org/2000/svg" width="56" height="56" viewBox="0 0 56 56"><path d="M 8.9687 51.0039 C 9.9531 51.0039 10.7500 50.2305 10.7500 49.2227 L 10.7500 36.2149 C 11.3360 35.9570 13.5391 35.1133 16.9844 35.1133 C 25.6562 35.1133 31.0938 39.3555 39.3438 39.3555 C 43.0000 39.3555 44.3594 38.9570 46.1406 38.1602 C 47.7578 37.4336 48.8125 36.2149 48.8125 34.0586 L 48.8125 10.2461 C 48.8125 9.0039 47.7344 8.2539 46.375 8.2539 C 45.2266 8.2539 43.0703 9.2617 39.0391 9.2617 C 30.7891 9.2617 25.375 4.9961 16.6797 4.9961 C 13.0234 4.9961 11.6406 5.3945 9.8594 6.1914 C 8.2422 6.9180 7.1875 8.1602 7.1875 10.2929 L 7.1875 49.2227 C 7.1875 50.1836 8.0078 51.0039 8.9687 51.0039 Z"/></svg>