<svg xmlns="http://www.w3.org/2000/svg" width="56" height="56" viewBox="0 0 56 56"><path d="M 2.4873 41.5872 C 3.1956 41.5872 3.7828 41.3627 4.4738 40.9481 L 22.0752 30.6014 C 23.0253 30.0314 23.5435 29.4096 23.7335 28.6841 L 23.7335 38.6335 C 23.7335 40.5681 24.8735 41.5872 26.2209 41.5872 C 26.9290 41.5872 27.5163 41.3627 28.2073 40.9481 L 45.8260 30.6014 C 46.7588 30.0314 47.2771 29.4096 47.4844 28.6841 L 47.4844 39.7908 C 47.4844 41.3109 48.2616 42.1054 49.7817 42.1054 L 53.7027 42.1054 C 55.2228 42.1054 56 41.3109 56 39.7908 L 56 16.2646 C 56 14.6927 55.2228 13.9673 53.7027 13.9673 L 49.7817 13.9673 C 48.2616 13.9673 47.4844 14.7618 47.4844 16.2646 L 47.4844 27.3540 C 47.2771 26.6458 46.7588 26.0067 45.8260 25.4540 L 28.2073 15.0900 C 27.5163 14.6755 26.9290 14.4509 26.2209 14.4509 C 24.8735 14.4509 23.7335 15.4873 23.7335 17.4219 L 23.7335 27.3540 C 23.5435 26.6458 23.0253 26.0067 22.0752 25.4540 L 4.4738 15.0900 C 3.7656 14.6755 3.1956 14.4509 2.4873 14.4509 C 1.1400 14.4509 0 15.4873 0 17.4219 L 0 38.6335 C 0 40.5681 1.1400 41.5872 2.4873 41.5872 Z"/></svg>