<svg xmlns="http://www.w3.org/2000/svg" width="56" height="56" viewBox="0 0 56 56">
  <path d="M18.2918704,0.682944646 L20.3171289,2.92622342 C22.5361373,5.38410946 26.1397265,5.3776124 28.3528693,2.92622342 L30.2521549,0.822478633 C32.5839645,1.4499386 34.7753833,2.41991367 36.7691418,3.67513451 L36.6322262,6.35564535 C36.4633143,9.66270916 39.0160307,12.2062374 42.3143528,12.0377719 L44.7391942,11.9139205 C45.970889,14.0228998 46.8900976,16.3366849 47.4333262,18.7917819 L45.7437747,20.3171289 C43.2858887,22.5361373 43.2923858,26.1397265 45.7437747,28.3528693 L47.3039836,29.7614443 C46.6873969,32.2638048 45.6782881,34.6116668 44.3457025,36.735985 L42.3143528,36.6322262 C39.007289,36.4633143 36.4637608,39.0160307 36.6322262,42.3143528 L36.7359799,44.3457057 C34.6116668,45.6782881 32.2638048,46.6873969 29.7614443,47.3039836 L28.3528693,45.7437747 C26.1338609,43.2858887 22.5302717,43.2923858 20.3171289,45.7437747 L18.7917819,47.4333262 C16.3366849,46.8900976 14.0228998,45.970889 11.9139205,44.7391942 L12.0377719,42.3143528 C12.2066839,39.007289 9.65396742,36.4637608 6.35564535,36.6322262 L3.67513117,36.7691365 C2.41991367,34.7753833 1.4499386,32.5839645 0.822478633,30.2521549 L2.92622342,28.3528693 C5.38410946,26.1338609 5.3776124,22.5302717 2.92622342,20.3171289 L0.682944646,18.2918704 C1.23975257,16.0094974 2.12293759,13.8550207 3.28024752,11.8806926 L6.35564535,12.0377719 C9.66270916,12.2066839 12.2062374,9.65396742 12.0377719,6.35564535 L11.8806926,3.28024752 C13.8550207,2.12293759 16.0094974,1.23975257 18.2918704,0.682944646 Z M16.7256456,4.44999867 C16.3680614,4.5830738 16.0143918,4.72596655 15.6649839,4.87849119 L15.6911683,5.3911466 C15.9929207,11.2990434 11.3040265,15.9931752 5.39114661,15.6911683 L4.8784912,15.6649838 C4.72596656,16.0143918 4.58307381,16.3680614 4.44999868,16.7256456 L4.82312058,17.0625044 C9.21400567,21.0266472 9.2177092,27.6614485 4.82312058,31.6289348 L4.65050066,31.7847781 C4.8175234,32.1991992 4.99787387,32.6079553 5.19123643,33.0104816 L5.39114661,33.000271 C11.2419278,32.7014358 15.9022991,37.2972177 15.69853,43.1291478 C16.1923007,43.3436519 16.6945117,43.5389223 17.2041918,43.7144479 C21.0763433,39.5916597 27.3599325,39.5262017 31.3077432,43.5279548 C31.8779091,43.3144137 32.4380042,43.0759167 32.9866081,42.8132437 C32.9594643,37.2979481 37.2937012,32.9592904 42.8132466,32.9866016 C43.0759195,32.4379975 43.3144164,31.8779023 43.5279572,31.3077365 C39.529445,27.3629141 39.5883149,21.0793847 43.7144475,17.2041904 C43.5389218,16.6945104 43.3436515,16.1922996 43.1291474,15.6985291 C37.3945193,15.8988384 32.8475535,11.3933767 32.9897182,5.66905791 L33.010482,5.1912368 C32.6079555,4.99787406 32.1991992,4.8175235 31.7847781,4.65050071 L31.6289348,4.82312057 C27.6647921,9.21400566 21.0299908,9.2177092 17.0625045,4.82312057 L16.7256456,4.44999867 Z M24,15 C28.9705627,15 33,19.0294373 33,24 C33,28.9705627 28.9705627,33 24,33 C19.0294373,33 15,28.9705627 15,24 C15,19.0294373 19.0294373,15 24,15 Z M24,18 C20.6862915,18 18,20.6862915 18,24 C18,27.3137085 20.6862915,30 24,30 C27.3137085,30 30,27.3137085 30,24 C30,20.6862915 27.3137085,18 24,18 Z" transform="translate(4 4)"/>
</svg>
