<svg xmlns="http://www.w3.org/2000/svg" width="56" height="56" viewBox="0 0 56 56"><path d="M 46.8672 9.2617 C 44.4766 6.8711 41.1016 6.4961 37.1172 6.4961 L 18.8360 6.4961 C 14.8985 6.4961 11.5235 6.8711 9.1329 9.2617 C 6.7422 11.6523 6.3907 15.0039 6.3907 18.9180 L 6.3907 37.0118 C 6.3907 41.0195 6.7422 44.3477 9.1329 46.7383 C 11.5235 49.1289 14.8985 49.5039 18.9063 49.5039 L 37.1172 49.5039 C 41.1016 49.5039 44.4766 49.1289 46.8672 46.7383 C 49.2580 44.3477 49.6093 41.0195 49.6093 37.0118 L 49.6093 18.9883 C 49.6093 14.9805 49.2580 11.6289 46.8672 9.2617 Z M 10.1641 18.4023 C 10.1641 15.9414 10.4688 13.4102 11.8751 12.0039 C 13.3048 10.5742 15.8594 10.2696 18.3204 10.2696 L 26.3126 10.2696 L 26.3126 18.8477 C 24.7657 15.8477 22.1172 13.9961 19.1641 13.9961 C 15.8126 13.9961 13.2813 16.5039 13.2813 19.9258 C 13.2813 22.8789 15.3672 25.3164 18.3204 26.6523 L 10.1641 26.6523 Z M 45.8360 18.3320 L 45.8360 26.6523 L 37.1172 26.6523 C 40.0704 25.3164 42.1563 22.8789 42.1563 19.9258 C 42.1563 16.5039 39.6251 13.9961 36.2500 13.9961 C 33.3204 13.9961 30.6719 15.8477 29.1251 18.8477 L 29.1251 10.2696 L 37.7500 10.2696 C 40.1641 10.2696 42.6953 10.5977 44.1251 12.0039 C 45.5313 13.4336 45.8360 15.9180 45.8360 18.3320 Z M 25.1641 26.3008 C 20.5469 26.3008 16.5860 23.1367 16.5860 20.1836 C 16.5860 18.4023 17.6641 17.3242 19.3516 17.3242 C 22.8204 17.3242 25.8672 21.1914 25.8672 25.6445 L 25.8672 26.3008 Z M 30.2735 26.3008 L 29.5704 26.3008 L 29.5704 25.6445 C 29.5704 21.1914 32.5938 17.3242 36.0626 17.3242 C 37.7735 17.3242 38.8516 18.4023 38.8516 20.1836 C 38.8516 23.1367 34.8907 26.3008 30.2735 26.3008 Z M 37.7500 45.7305 L 29.1251 45.7305 L 29.1251 30.8711 L 29.3126 30.8711 C 30.8594 35.6992 36.6485 39.9180 40.2579 40.4570 C 41.5938 40.6445 42.4141 39.6836 42.4141 38.6523 C 42.4141 37.5274 41.7344 36.7774 40.5157 36.6602 C 37.2813 36.3086 32.7579 32.0898 31.3985 29.2305 L 45.8360 29.2305 L 45.8360 37.6445 C 45.8360 40.0820 45.5313 42.5664 44.1251 43.9961 C 42.6953 45.4024 40.1641 45.7305 37.7500 45.7305 Z M 18.2500 45.7305 C 15.8360 45.7305 13.3048 45.4024 11.8985 43.9961 C 10.4688 42.5664 10.1641 40.0820 10.1641 37.6445 L 10.1641 29.2305 L 24.0391 29.2305 C 22.6797 32.0898 18.1563 36.3086 14.9219 36.6602 C 13.7032 36.7774 13.0235 37.5274 13.0235 38.6523 C 13.0235 39.6836 13.8438 40.6445 15.1797 40.4570 C 18.7891 39.9180 24.5782 35.6992 26.1251 30.8711 L 26.3126 30.8711 L 26.3126 45.7305 Z"/></svg>