<svg xmlns="http://www.w3.org/2000/svg" width="56" height="56" viewBox="0 0 56 56"><path d="M 27.9999 54.4024 C 41.0546 54.4024 51.9063 43.5742 51.9063 30.4961 C 51.9063 18.9649 43.4687 9.1914 32.5234 7.0351 L 32.5234 3.7070 C 32.5234 2.0430 31.3749 1.5976 30.0858 2.5117 L 22.6093 7.7383 C 21.5546 8.4883 21.5312 9.6133 22.6093 10.3867 L 30.0624 15.6367 C 31.3749 16.5742 32.5234 16.1289 32.5234 14.4414 L 32.5234 11.0898 C 41.3827 13.1055 47.8983 21.0039 47.8983 30.4961 C 47.8983 41.5586 39.0390 50.4180 27.9999 50.4180 C 16.9374 50.4180 8.0546 41.5586 8.0780 30.4961 C 8.1014 23.8398 11.3358 17.9570 16.3280 14.3945 C 17.2890 13.6680 17.5936 12.5664 16.9843 11.5820 C 16.4218 10.6211 15.1327 10.3633 14.1014 11.1602 C 8.0546 15.5430 4.0937 22.6211 4.0937 30.4961 C 4.0937 43.5742 14.9218 54.4024 27.9999 54.4024 Z"/></svg>