<svg xmlns="http://www.w3.org/2000/svg" width="56" height="56" viewBox="0 0 56 56"><path d="M 27.9999 54.4024 C 41.0546 54.4024 51.9063 43.5742 51.9063 30.4961 C 51.9063 22.6211 47.9219 15.5430 41.8983 11.1602 C 40.8671 10.3633 39.5780 10.6211 38.9921 11.5820 C 38.4062 12.5664 38.7109 13.6680 39.6483 14.3945 C 44.6405 17.9570 47.8983 23.8398 47.9219 30.4961 C 47.9454 41.5586 39.0390 50.4180 27.9999 50.4180 C 16.9374 50.4180 8.1014 41.5586 8.1014 30.4961 C 8.1014 21.0039 14.6171 13.1055 23.4765 11.0898 L 23.4765 14.4649 C 23.4765 16.1289 24.6249 16.5742 25.8905 15.6602 L 33.3905 10.4102 C 34.4452 9.6836 34.4687 8.5586 33.3905 7.7851 L 25.9140 2.5351 C 24.6249 1.5976 23.4765 2.0430 23.4765 3.7305 L 23.4765 7.0351 C 12.5077 9.1680 4.0937 18.9649 4.0937 30.4961 C 4.0937 43.5742 14.9218 54.4024 27.9999 54.4024 Z M 35.8983 40.3633 C 39.7655 40.3633 42.3202 36.6836 42.3202 31.0586 C 42.3202 25.3867 39.7655 21.6602 35.8983 21.6602 C 31.9843 21.6602 29.4530 25.3867 29.4530 31.0820 C 29.4530 36.7070 32.0077 40.3633 35.8983 40.3633 Z M 20.4530 40.3633 C 24.2265 40.3633 26.6640 37.8555 26.6640 34.0117 C 26.6640 30.6133 24.3202 28.1992 21.1562 28.1992 C 19.0702 28.1992 17.4530 29.2070 16.7733 30.7070 C 16.7733 26.9570 18.3671 24.4024 20.7812 24.4024 C 21.9999 24.4024 22.7499 24.8711 23.3124 25.7617 C 23.6874 26.3711 24.0858 26.6289 24.7890 26.6289 C 25.4921 26.6289 25.9609 26.0898 25.9609 25.3398 C 25.9609 25.0117 25.9140 24.7070 25.7968 24.4492 C 25.1640 22.8789 23.3827 21.6836 20.8983 21.6836 C 16.4218 21.6836 13.9140 25.1992 13.9140 31.4805 C 13.9140 33.9649 14.3124 35.9805 15.1093 37.4336 C 16.1640 39.3789 18.0858 40.3633 20.4530 40.3633 Z M 35.8983 37.5273 C 33.8124 37.5273 32.4999 35.0664 32.4999 31.0586 C 32.4999 26.9805 33.7890 24.4961 35.8983 24.4961 C 37.9843 24.4961 39.2499 26.9570 39.2499 31.0586 C 39.2499 35.0664 37.9609 37.5273 35.8983 37.5273 Z M 20.3124 37.7617 C 18.4140 37.7617 17.0077 36.2617 17.0077 34.1524 C 17.0077 32.0898 18.3905 30.6602 20.3124 30.6602 C 22.2812 30.6602 23.6405 32.0664 23.6405 34.1524 C 23.6405 36.3789 22.3280 37.7617 20.3124 37.7617 Z"/></svg>