<svg xmlns="http://www.w3.org/2000/svg" width="56" height="56" viewBox="0 0 56 56"><path d="M 27.9999 54.4024 C 41.0546 54.4024 51.9063 43.5742 51.9063 30.4961 C 51.9063 22.6211 47.9219 15.5430 41.8983 11.1602 C 40.8671 10.3633 39.5780 10.6211 38.9921 11.5820 C 38.4062 12.5664 38.7109 13.6680 39.6483 14.3945 C 44.6405 17.9570 47.8983 23.8398 47.9219 30.4961 C 47.9454 41.5586 39.0390 50.4180 27.9999 50.4180 C 16.9374 50.4180 8.1014 41.5586 8.1014 30.4961 C 8.1014 21.0039 14.6171 13.1055 23.4765 11.0898 L 23.4765 14.4649 C 23.4765 16.1289 24.6249 16.5742 25.8905 15.6602 L 33.3905 10.4102 C 34.4452 9.6836 34.4687 8.5586 33.3905 7.7851 L 25.9140 2.5351 C 24.6249 1.5976 23.4765 2.0430 23.4765 3.7305 L 23.4765 7.0351 C 12.5077 9.1680 4.0937 18.9649 4.0937 30.4961 C 4.0937 43.5742 14.9218 54.4024 27.9999 54.4024 Z M 23.0312 40.3164 C 23.9452 40.3164 24.4843 39.6602 24.4843 38.5586 L 24.4843 36.6133 L 25.6327 36.6133 C 26.4296 36.6133 26.9452 36.0976 26.9452 35.2773 C 26.9452 34.4805 26.4296 33.9649 25.6327 33.9649 L 24.4843 33.9649 L 24.4843 24.0039 C 24.4843 22.5508 23.4999 21.8711 22.1640 21.8711 C 20.8983 21.8711 20.1718 22.3398 19.4452 23.5820 C 17.7577 26.3945 15.6483 30.0039 14.0546 32.8867 C 13.6562 33.5898 13.5624 34.0586 13.5624 34.7383 C 13.5624 35.8633 14.2655 36.6133 15.4609 36.6133 L 21.6014 36.6133 L 21.6014 38.5586 C 21.6014 39.6602 22.1405 40.3164 23.0312 40.3164 Z M 34.9140 40.3867 C 38.8046 40.3867 41.3827 37.8789 41.3827 34.1055 C 41.3827 30.6602 39.0624 28.1992 35.7109 28.1992 C 34.3280 28.1992 32.8280 28.8320 32.1249 29.8867 L 32.5234 24.8242 L 39.5546 24.8242 C 40.2343 24.8242 40.8202 24.2617 40.8202 23.4649 C 40.8202 22.6680 40.2343 22.1524 39.5546 22.1524 L 32.0546 22.1524 C 30.8358 22.1524 30.1562 22.8555 30.0390 24.0976 L 29.5234 30.8476 C 29.4296 32.0195 30.0390 32.5820 31.0702 32.5820 C 31.8436 32.5820 32.1718 32.4414 32.8514 31.9258 C 33.7421 31.1055 34.4687 30.7773 35.3827 30.7773 C 37.2109 30.7773 38.4296 32.1133 38.4296 34.1524 C 38.4296 36.2149 36.9999 37.7149 35.0546 37.7149 C 33.6718 37.7149 32.4765 36.9180 31.8671 35.6992 C 31.5155 35.0898 31.0936 34.7617 30.5077 34.7617 C 29.7343 34.7617 29.1952 35.3242 29.1952 36.1211 C 29.1952 36.4492 29.2655 36.7539 29.3827 37.0586 C 30.0155 38.7461 32.0780 40.3867 34.9140 40.3867 Z M 16.6093 33.9649 L 16.6093 33.8945 C 18.2733 30.8242 19.8905 27.7773 21.5312 24.7305 L 21.6014 24.7305 L 21.6014 33.9649 Z"/></svg>