<svg xmlns="http://www.w3.org/2000/svg" width="56" height="56" viewBox="0 0 56 56"><path d="M 16.5156 49.5742 L 39.2734 49.5742 C 41.6640 49.5742 43.0937 48.2617 43.0937 45.7305 L 43.0937 45.1211 C 43.1172 38.6523 36.2266 33.4023 33.2031 30.5430 C 32.3593 29.7461 31.9140 29.0196 31.9140 27.9649 C 31.9140 26.9102 32.3593 26.2071 33.2031 25.3867 C 36.2031 22.4805 43.0937 17.5586 43.0937 10.8320 L 43.0937 10.2696 C 43.0937 7.7383 41.6640 6.4258 39.2734 6.4258 L 16.5156 6.4258 C 14.1718 6.4258 12.8828 7.7383 12.8828 10.0586 L 12.8828 10.8320 C 12.8828 17.5586 19.7734 22.4805 22.7969 25.3867 C 23.6406 26.2071 24.0859 26.9102 24.0859 27.9649 C 24.0859 29.0196 23.6406 29.7461 22.7969 30.5430 C 19.7734 33.4023 12.8828 38.6523 12.8828 45.1211 L 12.8828 45.9414 C 12.8828 48.2617 14.1718 49.5742 16.5156 49.5742 Z M 28.0000 35.3242 C 28.4922 35.3242 28.8906 35.6055 29.3593 36.0742 L 37.7969 44.3477 C 38.6640 45.2149 38.2422 46.3633 37.0703 46.3633 L 18.9062 46.3633 C 17.7344 46.3633 17.3125 45.1914 18.1797 44.3477 L 26.6172 36.0742 C 27.0859 35.6289 27.5078 35.3242 28.0000 35.3242 Z"/></svg>