<svg xmlns="http://www.w3.org/2000/svg" width="56" height="56" viewBox="0 0 56 56"><path d="M .6249 27.8242 C .6249 28.9492 1.5155 29.6289 2.6171 29.6289 C 3.2968 29.6289 3.8358 29.3008 4.3046 28.8320 L 27.1796 7.9961 C 27.4374 7.7383 27.7187 7.6445 28.0233 7.6445 C 28.3046 7.6445 28.5624 7.7383 28.8436 7.9961 L 51.6954 28.8320 C 52.1874 29.3008 52.7264 29.6289 53.3826 29.6289 C 54.4842 29.6289 55.3751 28.9492 55.3751 27.8242 C 55.3751 27.1211 55.1173 26.6758 54.6719 26.2774 L 46.5623 18.8945 L 46.5623 5.0430 C 46.5623 4.0117 45.9061 3.3555 44.8751 3.3555 L 41.8046 3.3555 C 40.7968 3.3555 40.0936 4.0117 40.0936 5.0430 L 40.0936 13.0117 L 30.8124 4.5274 C 29.9921 3.7539 28.9843 3.3789 27.9999 3.3789 C 27.0155 3.3789 26.0312 3.7539 25.1874 4.5274 L 1.3280 26.2774 C .9062 26.6758 .6249 27.1211 .6249 27.8242 Z M 7.3280 47.4883 C 7.3280 50.7461 9.2968 52.6445 12.6015 52.6445 L 22.0936 52.6445 L 22.0936 35.9805 C 22.0936 34.9023 22.8202 34.1992 23.8984 34.1992 L 32.1718 34.1992 C 33.2499 34.1992 33.9531 34.9023 33.9531 35.9805 L 33.9531 52.6445 L 43.4216 52.6445 C 46.7264 52.6445 48.6719 50.7461 48.6719 47.4883 L 48.6719 30.3320 L 28.7734 12.4023 C 28.5155 12.1679 28.2343 12.0508 27.9531 12.0508 C 27.6952 12.0508 27.4374 12.1679 27.1562 12.4258 L 7.3280 30.4492 Z"/></svg>