<svg xmlns="http://www.w3.org/2000/svg" width="56" height="56" viewBox="0 0 56 56"><path d="M 27.9999 51.9063 C 41.0546 51.9063 51.9063 41.0781 51.9063 28 C 51.9063 14.9453 41.0312 4.0937 27.9765 4.0937 C 14.8983 4.0937 4.0937 14.9453 4.0937 28 C 4.0937 41.0781 14.9218 51.9063 27.9999 51.9063 Z M 27.7890 19.6563 C 26.0780 19.6563 24.7421 18.2968 24.7421 16.6094 C 24.7421 14.8984 26.0780 13.5390 27.7890 13.5390 C 29.4999 13.5390 30.8358 14.8984 30.8358 16.6094 C 30.8358 18.2968 29.4999 19.6563 27.7890 19.6563 Z M 23.8749 40.8906 C 22.9374 40.8906 22.1874 40.2109 22.1874 39.25 C 22.1874 38.3359 22.9374 37.6094 23.8749 37.6094 L 26.8046 37.6094 L 26.8046 26.8516 L 24.2733 26.8516 C 23.3358 26.8516 22.5858 26.1719 22.5858 25.2109 C 22.5858 24.2968 23.3358 23.5703 24.2733 23.5703 L 28.7030 23.5703 C 29.8749 23.5703 30.5312 24.4141 30.5312 25.6797 L 30.5312 37.6094 L 33.4374 37.6094 C 34.3983 37.6094 35.1483 38.3359 35.1483 39.25 C 35.1483 40.2109 34.3983 40.8906 33.4374 40.8906 Z"/></svg>