<svg xmlns="http://www.w3.org/2000/svg" width="56" height="56" viewBox="0 0 56 56"><path d="M 27.9999 51.9063 C 41.0546 51.9063 51.9063 41.0781 51.9063 28 C 51.9063 14.9453 41.0312 4.0937 27.9765 4.0937 C 14.8983 4.0937 4.0937 14.9453 4.0937 28 C 4.0937 41.0781 14.9218 51.9063 27.9999 51.9063 Z M 27.9999 47.9219 C 16.9374 47.9219 8.1014 39.0625 8.1014 28 C 8.1014 16.9609 16.9140 8.0781 27.9765 8.0781 C 39.0155 8.0781 47.8983 16.9609 47.9219 28 C 47.9454 39.0625 39.0390 47.9219 27.9999 47.9219 Z M 27.9765 43.2109 C 36.2733 43.2109 43.1640 36.3203 43.1640 28.0234 C 43.1640 19.7031 36.2499 12.8125 27.9765 12.8125 C 19.6562 12.8125 12.7890 19.7031 12.7890 28.0234 C 12.7890 36.3203 19.6796 43.2109 27.9765 43.2109 Z"/></svg>