<svg xmlns="http://www.w3.org/2000/svg" width="56" height="56" viewBox="0 0 56 56">
  <path fill-rule="evenodd" d="M40.0318217,30.5 L44.2864054,32.3040034 C44.5439437,32.4649648 44.7614427,32.6824639 44.9224042,32.9400021 C45.5078248,33.8766752 45.2230785,35.1105759 44.2864054,35.6959966 L29.3599873,42.0250079 C25.4687439,43.4570351 20.5312561,43.4570351 16.6400127,42.0250079 L1.71359457,35.6959966 C1.45605631,35.5350352 1.23855726,35.3175361 1.07759584,35.0599979 C0.492175181,34.1233248 0.77692151,32.8894241 1.71359457,32.3040034 L5.96817835,30.5 L16.6400127,35.0250079 C20.5312561,36.4570351 25.4687439,36.4570351 29.3599873,35.0250079 L40.0318217,30.5 Z M40.0318217,18.5 L44.2864054,20.3040034 C44.5439437,20.4649648 44.7614427,20.6824639 44.9224042,20.9400021 C45.5078248,21.8766752 45.2230785,23.1105759 44.2864054,23.6959966 L29.3599873,30.0250079 C25.4687439,31.4570351 20.5312561,31.4570351 16.6400127,30.0250079 L1.71359457,23.6959966 C1.45605631,23.5350352 1.23855726,23.3175361 1.07759584,23.0599979 C0.492175181,22.1233248 0.77692151,20.8894241 1.71359457,20.3040034 L5.96817835,18.5 L16.6400127,23.0250079 C20.5312561,24.4570351 25.4687439,24.4570351 29.3599873,23.0250079 L40.0318217,18.5 Z M29.3599873,1.97499205 L44.2864054,8.30400339 C44.5439437,8.46496481 44.7614427,8.68246386 44.9224042,8.94000212 C45.5078248,9.87667518 45.2230785,11.1105759 44.2864054,11.6959966 L29.3599873,18.0250079 C25.4687439,19.4570351 20.5312561,19.4570351 16.6400127,18.0250079 L1.71359457,11.6959966 C1.45605631,11.5350352 1.23855726,11.3175361 1.07759584,11.0599979 C0.492175181,10.1233248 0.77692151,8.88942406 1.71359457,8.30400339 L16.6400127,1.97499205 C20.5312561,0.542964914 25.4687439,0.542964914 29.3599873,1.97499205 Z" transform="translate(5 6)"/>
</svg>
