<svg width="100%" height="100%" viewBox="0 0 56 56" version="1.1" xmlns="http://www.w3.org/2000/svg"><g><path d="M9.455,25.253l-0.001,0.001c0.183,-0.944 0.859,-2.072 1.756,-2.589l11.701,-6.88l-10.2,0c-1.896,0 -3.435,-1.538 -3.435,-3.434l0,-3.869c0,-1.895 1.539,-3.434 3.435,-3.434l30.52,-0c1.896,-0 3.435,1.539 3.435,3.434c-0,0 -0,3.869 -0,3.869c0.045,1.232 -0.577,2.575 -1.717,3.233l-12.349,7.328l10.689,0c1.896,0 3.435,1.539 3.435,3.435l-0,3.869c-0,0.428 -0.079,0.839 -0.223,1.217c-0.253,0.82 -0.785,1.573 -1.552,2.016l-12.349,7.328l10.689,0c1.896,0 3.435,1.539 3.435,3.434l-0,3.869c-0,1.896 -1.539,3.435 -3.435,3.435c0,-0 -30.578,-0 -30.578,-0c-1.896,-0 -3.435,-1.539 -3.435,-3.435l0,-3.869c0,-0.382 0.063,-0.75 0.179,-1.093l-0.001,0c0.183,-0.944 0.859,-2.071 1.756,-2.589l11.701,-6.879l-10.2,0c-1.896,0 -3.435,-1.539 -3.435,-3.434l0,-3.869c0,-0 0.001,-0.044 0.001,-0.044l0,-0.028l0,-0.005c0.001,-0.021 0.001,-0.042 0.002,-0.062l0.002,-0.038l0.002,-0.039c0.001,-0.021 0.003,-0.041 0.005,-0.062l0.001,-0.013c0.001,-0.021 0.003,-0.041 0.005,-0.062l0.005,-0.041l0.003,-0.03l0.001,-0.004c0.003,-0.02 0.005,-0.04 0.008,-0.06l0.005,-0.035l0.006,-0.04c0.004,-0.02 0.007,-0.04 0.011,-0.06l0.002,-0.013c0.004,-0.02 0.008,-0.04 0.012,-0.06l0.008,-0.038l0.008,-0.034c0.004,-0.02 0.009,-0.04 0.014,-0.059l0.003,-0.011c0.01,-0.04 0.021,-0.081 0.032,-0.121l0.003,-0.008c0.006,-0.021 0.012,-0.041 0.018,-0.061l0.011,-0.033l0.011,-0.033Zm34.269,18.958l-0,3.869c-0,0.24 -0.195,0.435 -0.435,0.435l-30.578,-0c-0.24,-0 -0.435,-0.195 -0.435,-0.435c0,0 0,-3.869 0,-3.869c0,-0.239 0.195,-0.434 0.435,-0.434l30.578,0c0.24,0 0.435,0.195 0.435,0.434Zm-14.807,-10.561l-11.8,7.127l9.476,0l11.799,-7.127l-9.475,0Zm14.314,-7.738l-30.52,0c-0.24,0 -0.435,0.195 -0.435,0.435c0,-0 0,3.869 0,3.869c0,0.239 0.195,0.434 0.435,0.434l30.52,0c0.24,0 0.435,-0.195 0.435,-0.434l-0,-3.869c-0,-0.24 -0.195,-0.435 -0.435,-0.435Zm-14.314,-10.127l-11.8,7.127l9.476,0l11.799,-7.127l-9.475,0Zm14.749,-7.303l-0,3.869c-0,0.24 -0.195,0.434 -0.435,0.434l-30.52,0c-0.24,0 -0.435,-0.194 -0.435,-0.434c0,0 0,-3.869 0,-3.869c0,-0.24 0.195,-0.434 0.435,-0.434c-0,-0 30.52,-0 30.52,-0c0.24,-0 0.435,0.194 0.435,0.434Z"/><g><ellipse cx="16.117" cy="10.417" rx="1" ry="0.956"/><ellipse cx="40.117" cy="10.417" rx="1" ry="0.956"/><ellipse cx="27.971" cy="10.417" rx="1" ry="0.956"/><ellipse cx="22.044" cy="10.417" rx="1" ry="0.956"/><ellipse cx="34.19" cy="10.417" rx="1" ry="0.956"/></g><g><ellipse cx="16.117" cy="28.281" rx="1" ry="0.956"/><ellipse cx="40.117" cy="28.281" rx="1" ry="0.956"/><ellipse cx="27.971" cy="28.281" rx="1" ry="0.956"/><ellipse cx="22.044" cy="28.281" rx="1" ry="0.956"/><ellipse cx="34.19" cy="28.281" rx="1" ry="0.956"/></g><g><ellipse cx="16.117" cy="46.146" rx="1" ry="0.956"/><ellipse cx="40.117" cy="46.146" rx="1" ry="0.956"/><ellipse cx="27.971" cy="46.146" rx="1" ry="0.956"/><ellipse cx="22.044" cy="46.146" rx="1" ry="0.956"/><ellipse cx="34.19" cy="46.146" rx="1" ry="0.956"/></g></g></svg>