<svg width="100%" height="100%" viewBox="0 0 56 56" version="1.1" xmlns="http://www.w3.org/2000/svg"><g><path d="M9.455,25.253l-0.001,0.001c0.183,-0.944 0.859,-2.072 1.756,-2.589l11.701,-6.88l-10.2,0c-1.896,0 -3.435,-1.538 -3.435,-3.434l0,-3.869c0,-1.895 1.539,-3.434 3.435,-3.434l30.52,-0c1.896,-0 3.435,1.539 3.435,3.434c-0,0 -0,3.869 -0,3.869c0.045,1.232 -0.577,2.575 -1.717,3.233l-12.349,7.328l10.689,0c1.896,0 3.435,1.539 3.435,3.435l-0,3.869c-0,0.428 -0.079,0.839 -0.223,1.217c-0.253,0.82 -0.785,1.573 -1.552,2.016l-12.349,7.328l10.689,0c1.896,0 3.435,1.539 3.435,3.434l-0,3.869c-0,1.896 -1.539,3.435 -3.435,3.435c0,-0 -30.578,-0 -30.578,-0c-1.896,-0 -3.435,-1.539 -3.435,-3.435l0,-3.869c0,-0.382 0.063,-0.75 0.179,-1.093l-0.001,0c0.183,-0.944 0.859,-2.071 1.756,-2.589l11.701,-6.879l-10.2,0c-1.896,0 -3.435,-1.539 -3.435,-3.434l0.001,-3.946l0.045,-0.486l0.058,-0.275l0.075,-0.256Zm12.589,19.937c0.552,-0 1,0.428 1,0.956c0,0.528 -0.448,0.956 -1,0.956c-0.552,0 -1,-0.428 -1,-0.956c0,-0.528 0.448,-0.956 1,-0.956Zm-5.927,-0c0.552,-0 1,0.428 1,0.956c0,0.528 -0.448,0.956 -1,0.956c-0.552,0 -1,-0.428 -1,-0.956c0,-0.528 0.448,-0.956 1,-0.956Zm24,-0c0.552,-0 1,0.428 1,0.956c0,0.528 -0.448,0.956 -1,0.956c-0.552,0 -1,-0.428 -1,-0.956c0,-0.528 0.448,-0.956 1,-0.956Zm-12.146,-0c0.552,-0 1,0.428 1,0.956c0,0.528 -0.448,0.956 -1,0.956c-0.552,0 -1,-0.428 -1,-0.956c0,-0.528 0.448,-0.956 1,-0.956Zm6.219,-0c0.552,-0 1,0.428 1,0.956c0,0.528 -0.448,0.956 -1,0.956c-0.551,0 -1,-0.428 -1,-0.956c0,-0.528 0.449,-0.956 1,-0.956Zm-5.273,-11.54l-11.8,7.127l9.476,0l11.799,-7.127l-9.475,0Zm-12.8,-6.325c0.552,0 1,0.428 1,0.956c0,0.528 -0.448,0.956 -1,0.956c-0.552,0 -1,-0.428 -1,-0.956c0,-0.528 0.448,-0.956 1,-0.956Zm24,0c0.552,0 1,0.428 1,0.956c0,0.528 -0.448,0.956 -1,0.956c-0.552,0 -1,-0.428 -1,-0.956c0,-0.528 0.448,-0.956 1,-0.956Zm-12.146,0c0.552,0 1,0.428 1,0.956c0,0.528 -0.448,0.956 -1,0.956c-0.552,0 -1,-0.428 -1,-0.956c0,-0.528 0.448,-0.956 1,-0.956Zm-5.927,0c0.552,0 1,0.428 1,0.956c0,0.528 -0.448,0.956 -1,0.956c-0.552,0 -1,-0.428 -1,-0.956c0,-0.528 0.448,-0.956 1,-0.956Zm12.146,0c0.552,0 1,0.428 1,0.956c0,0.528 -0.448,0.956 -1,0.956c-0.551,0 -1,-0.428 -1,-0.956c0,-0.528 0.449,-0.956 1,-0.956Zm-5.273,-11.54l-11.8,7.127l9.476,0l11.799,-7.127l-9.475,0Zm-12.8,-6.325c0.552,0 1,0.429 1,0.957c0,0.527 -0.448,0.956 -1,0.956c-0.552,-0 -1,-0.429 -1,-0.956c0,-0.528 0.448,-0.957 1,-0.957Zm24,0c0.552,0 1,0.429 1,0.957c0,0.527 -0.448,0.956 -1,0.956c-0.552,-0 -1,-0.429 -1,-0.956c0,-0.528 0.448,-0.957 1,-0.957Zm-12.146,0c0.552,0 1,0.429 1,0.957c0,0.527 -0.448,0.956 -1,0.956c-0.552,-0 -1,-0.429 -1,-0.956c0,-0.528 0.448,-0.957 1,-0.957Zm-5.927,0c0.552,0 1,0.429 1,0.957c0,0.527 -0.448,0.956 -1,0.956c-0.552,-0 -1,-0.429 -1,-0.956c0,-0.528 0.448,-0.957 1,-0.957Zm12.146,0c0.552,0 1,0.429 1,0.957c0,0.527 -0.448,0.956 -1,0.956c-0.551,-0 -1,-0.429 -1,-0.956c0,-0.528 0.449,-0.957 1,-0.957Z"/></g></svg>