<svg xmlns="http://www.w3.org/2000/svg" width="56" height="56" viewBox="0 0 56 56"><path d="M 13.7851 49.5742 L 42.2382 49.5742 C 47.1366 49.5742 49.5743 47.1367 49.5743 42.3086 L 49.5743 13.6914 C 49.5743 8.8633 47.1366 6.4258 42.2382 6.4258 L 13.7851 6.4258 C 8.9101 6.4258 6.4257 8.8398 6.4257 13.6914 L 6.4257 42.3086 C 6.4257 47.1602 8.9101 49.5742 13.7851 49.5742 Z M 13.8554 45.8008 C 11.5117 45.8008 10.1992 44.5586 10.1992 42.1211 L 10.1992 13.8789 C 10.1992 11.4414 11.5117 10.1992 13.8554 10.1992 L 42.1679 10.1992 C 44.4882 10.1992 45.8007 11.4414 45.8007 13.8789 L 45.8007 42.1211 C 45.8007 44.5586 44.4882 45.8008 42.1679 45.8008 Z M 34.0585 37.5508 C 35.1835 37.5508 36.0039 36.7539 36.0039 35.6758 C 36.0039 34.7852 35.6288 34.2696 34.6444 33.8008 L 22.7617 27.9649 L 22.7617 27.8242 L 34.6444 21.8477 C 35.6054 21.3789 36.0039 20.8164 36.0039 19.9492 C 36.0039 18.8945 35.2070 18.0977 34.1054 18.0977 C 33.6132 18.0977 33.3085 18.1914 32.9335 18.3789 L 18.9648 25.9023 C 18.0273 26.4180 17.5820 27.0742 17.5820 27.9649 C 17.5820 28.9258 17.9804 29.5118 18.9648 30.0274 L 32.9335 37.2930 C 33.2851 37.4571 33.6132 37.5508 34.0585 37.5508 Z"/></svg>