<svg xmlns="http://www.w3.org/2000/svg" width="56" height="56" viewBox="0 0 56 56"><path d="M 27.9883 51.6719 C 28.3633 51.6719 28.9726 51.5313 29.5821 51.2031 C 42.8945 43.7266 47.4883 40.5625 47.4883 32.0078 L 47.4883 14.0781 C 47.4883 11.6172 46.4101 10.8438 44.4414 10.0000 C 41.6758 8.8516 32.7226 5.6406 29.9570 4.6797 C 29.3242 4.4687 28.6680 4.3281 27.9883 4.3281 C 27.3321 4.3281 26.6758 4.5156 26.0430 4.6797 C 23.2774 5.5234 14.3242 8.8750 11.5586 10.0000 C 9.5899 10.8203 8.5117 11.6172 8.5117 14.0781 L 8.5117 32.0078 C 8.5117 40.5625 13.1289 43.7031 26.4180 51.2031 C 27.0274 51.5313 27.6133 51.6719 27.9883 51.6719 Z M 27.9883 47.4063 C 27.6367 47.4063 27.2383 47.2656 26.5352 46.8438 C 15.7070 40.2813 12.2383 38.3594 12.2383 31.1406 L 12.2383 14.7813 C 12.2383 13.9844 12.4023 13.6797 13.0352 13.4219 C 16.5977 12.0156 23.4648 9.5781 27.0742 8.2891 C 27.4258 8.1484 27.7305 8.0781 27.9883 8.0781 C 28.2695 8.0781 28.5508 8.1484 28.9258 8.2891 C 32.5352 9.5781 39.3321 12.1797 42.9648 13.4219 C 43.5977 13.6562 43.7617 13.9844 43.7617 14.7813 L 43.7617 31.1406 C 43.7617 38.3594 40.2695 40.2578 29.4648 46.8438 C 28.7617 47.2656 28.3633 47.4063 27.9883 47.4063 Z M 22.1523 38.3125 L 33.8242 38.3125 C 35.4648 38.3125 36.2383 37.4922 36.2383 35.7344 L 36.2383 26.6406 C 36.2383 25.0938 35.6289 24.2734 34.3867 24.1094 L 34.3867 21.3203 C 34.3867 17.0078 31.8086 14.1016 27.9883 14.1016 C 24.1914 14.1016 21.5899 17.0078 21.5899 21.3203 L 21.5899 24.1328 C 20.3711 24.2969 19.7617 25.1172 19.7617 26.6406 L 19.7617 35.7344 C 19.7617 37.4922 20.5352 38.3125 22.1523 38.3125 Z M 24.0274 21.0625 C 24.0274 18.2969 25.6211 16.4687 27.9883 16.4687 C 30.3789 16.4687 31.9492 18.2969 31.9492 21.0625 L 31.9492 24.0625 L 24.0274 24.0860 Z"/></svg>