<svg xmlns="http://www.w3.org/2000/svg" width="56" height="56" viewBox="0 0 56 56">
  <path d="M36.1719084,17.5813173 L36.1719084,38.218254 C36.1719084,40.0615241 34.7374411,41.5574337 32.9193749,41.655113 L32.7299738,41.6601869 L30.4465956,41.65971 L30.4467577,48.7004777 C30.4467577,50.4170708 29.1279476,51.7950522 27.4367509,51.8880443 L27.2541694,51.8930475 C25.5375808,51.8930475 24.1595765,50.574259 24.0665828,48.8830596 L24.0615795,48.7004777 L24.0605956,41.65971 L19.8075956,41.65971 L19.8080536,48.7004777 C19.8080536,50.4170708 18.4892422,51.7950522 16.7980453,51.8880443 L16.6154638,51.8930475 C14.8988752,51.8930475 13.5208718,50.574259 13.4278782,48.8830596 L13.4228749,48.7004777 L13.4225956,41.65971 L11.1396603,41.6601869 C9.29638994,41.6601869 7.80047951,40.2257196 7.70280023,38.4076549 L7.69772631,38.218254 L7.69772631,17.5813173 L36.1719084,17.5813173 Z M3.3171849,17.0337365 C5.03377308,17.0337365 6.41177715,18.3525481 6.50477079,20.0437449 L6.50977415,20.2263264 L6.50977415,33.5247072 C6.50977415,35.3026025 5.0950798,36.7172971 3.3171849,36.7172971 C1.60059657,36.7172971 0.222592578,35.3984855 0.129598947,33.7072887 L0.124595589,33.5247072 L0.124595589,20.2263264 C0.124595589,18.4484311 1.53928984,17.0337365 3.3171849,17.0337365 Z M40.5526537,17.0337365 C42.2692423,17.0337365 43.6472451,18.3525481 43.7402387,20.0437449 L43.745242,20.2263264 L43.745242,33.5247072 C43.745242,35.3026025 42.330549,36.7172971 40.5526537,36.7172971 C38.8360649,36.7172971 37.4580608,35.3984855 37.3650671,33.7072887 L37.3600638,33.5247072 L37.3600638,20.2263264 C37.3600638,18.4484311 38.7747582,17.0337365 40.5526537,17.0337365 Z M30.7743302,0.278709988 C30.8498011,0.27947302 30.9201256,0.298996778 30.9894512,0.337422215 C31.1918114,0.449593609 31.2734479,0.668756682 31.2002385,0.876369766 L31.1654599,0.953451741 L28.9164675,5.01630295 C33.1472689,7.21770556 36.0354698,11.3572055 36.1672138,16.1304101 L36.1719084,16.4568225 L7.69772631,16.4568225 C7.70345373,11.655487 10.4977572,7.45821071 14.6667993,5.16938652 L14.9531658,5.01630295 L12.7041757,0.953451741 C12.5776642,0.725219195 12.6525279,0.463615034 12.8801837,0.337422215 C12.9495089,0.298996778 13.0198338,0.279525503 13.0953046,0.278709988 C13.2299389,0.277458499 13.358728,0.33329918 13.4478031,0.441942819 L13.4962115,0.513430872 L15.7745375,4.62028464 C17.6382969,3.79358128 19.7287947,3.32956014 21.9348175,3.32956014 C23.9832655,3.32956014 25.9321029,3.72966 27.6922885,4.44872211 L28.0950958,4.62028464 L30.3734217,0.513430872 C30.4596239,0.35792 30.6127667,0.277194631 30.7743302,0.278709988 Z M15.3638131,8.86892181 C14.7138007,8.86892181 14.1757589,9.40696282 14.1757589,10.0569768 C14.1757589,10.7069892 14.7138007,11.2450302 15.3638131,11.2450302 C16.0138255,11.2450302 16.5518665,10.7069892 16.5518665,10.0569768 C16.5518665,9.40696282 16.0138255,8.86892181 15.3638131,8.86892181 Z M28.505743,8.86892181 C27.8557305,8.86892181 27.317688,9.40696282 27.317688,10.0569768 C27.317688,10.7069892 27.8557305,11.2450302 28.505743,11.2450302 C29.1557539,11.2450302 29.6937963,10.7069892 29.6937963,10.0569768 C29.6937963,9.40696282 29.1557539,8.86892181 28.505743,8.86892181 Z" transform="translate(6 2)"/>
</svg>
