<svg width="100%" height="100%" viewBox="0 0 56 56" version="1.1" xmlns="http://www.w3.org/2000/svg"><g><path d="M7.7,34.592c-0.842,0.148 -1.699,0.192 -2.586,0.31l-2.705,-7.922l0,8.262c-0.842,0.089 -1.611,0.207 -2.409,0.325l-0,-15.134l2.247,-0l3.074,8.587l-0,-8.587l2.379,-0l0,14.159Zm4.656,-8.617c0.916,0 2.32,-0.044 3.163,-0.044l-0,2.365c-1.05,-0 -2.276,-0 -3.163,0.044l-0,3.517c1.389,-0.088 2.778,-0.207 4.182,-0.251l0,2.276l-6.547,0.517l-0,-13.966l6.547,-0l0,2.365l-4.182,-0l-0,3.177Zm12.976,-3.177l-2.453,-0l-0,10.877c-0.798,0 -1.596,0 -2.365,0.03l0,-10.907l-2.453,-0l-0,-2.365l7.271,-0l0,2.365Zm3.843,3.015l3.237,-0l-0,2.364l-3.237,0l-0,5.365l-2.321,0l0,-13.109l6.607,-0l0,2.365l-4.286,-0l-0,3.015Zm8.129,5.66c1.345,0.03 2.704,0.133 4.02,0.207l-0,2.335c-2.114,-0.133 -4.227,-0.266 -6.385,-0.31l0,-13.272l2.365,-0l-0,11.04Zm6.015,2.705c0.754,0.044 1.552,0.089 2.32,0.177l0,-13.922l-2.32,-0l0,13.745Zm12.681,-13.745l-3,7.198l3,7.936c-0.887,-0.118 -1.774,-0.281 -2.66,-0.428l-1.7,-4.375l-1.729,4.02c-0.857,-0.148 -1.685,-0.192 -2.542,-0.311l3.044,-6.931l-2.749,-7.109l2.542,-0l1.552,3.976l1.656,-3.976l2.586,-0Z" style="fill-rule:nonzero;"/></g></svg>