<svg width="100%" height="100%" viewBox="0 0 56 56" version="1.1" xmlns="http://www.w3.org/2000/svg"><g><path d="M6.849,29.583c-0.147,0.719 -0.657,1.51 -1.969,1.51c-1.35,0 -2.079,-0.935 -2.079,-2.23c-0,-1.26 0.802,-2.302 2.115,-2.302c1.458,0 1.897,1.043 1.897,1.547l-1.169,0c-0.072,-0.36 -0.255,-0.612 -0.729,-0.612c-0.547,0 -0.875,0.467 -0.875,1.332c-0,0.934 0.328,1.331 0.875,1.331c0.437,0 0.657,-0.253 0.729,-0.576l1.204,-0m4.887,-0.756c-0,1.296 -0.802,2.267 -2.188,2.267c-1.35,0 -2.151,-0.971 -2.151,-2.231c-0,-1.331 0.802,-2.266 2.223,-2.266c1.278,-0 2.116,0.863 2.116,2.23Zm-3.1,-0c0,0.827 0.365,1.331 0.949,1.331c0.584,0 0.911,-0.504 0.911,-1.331c0,-0.899 -0.327,-1.331 -0.948,-1.331c-0.547,0.036 -0.912,0.432 -0.912,1.332m3.939,-1.08l0,-1.08l1.167,0c0.036,0.109 0.036,0.432 0.036,0.54c0.147,-0.252 0.512,-0.647 1.277,-0.647c0.875,0 1.459,0.576 1.459,1.655l-0,2.734l-1.204,-0l-0,-2.626c-0,-0.504 -0.183,-0.828 -0.692,-0.828c-0.511,0 -0.803,0.288 -0.803,1.044l-0,2.41l-1.203,-0l-0,-3.202l-0.037,0m4.485,-1.08l0.657,0l0,-1.187l1.204,0l-0,1.187l0.839,0l-0,0.9l-0.839,-0l-0,2.122c-0,0.325 0.109,0.468 0.474,0.468l0.255,0l0,0.828c-0.255,0.072 -0.583,0.072 -0.803,0.072c-0.838,-0 -1.13,-0.432 -1.13,-1.188l0,-2.266l-0.657,0l0,-0.936m3.429,1.188l0,-1.188l1.203,0c0.037,0.109 0.037,0.54 0.037,0.756c0.182,-0.504 0.656,-0.863 1.385,-0.863l-0,1.151c-0.874,-0.036 -1.385,0.216 -1.385,1.403l-0,1.871l-1.203,0l-0,-3.13l-0.037,0m7.33,0.971c-0,1.296 -0.803,2.267 -2.188,2.267c-1.349,0 -2.151,-0.971 -2.151,-2.231c-0,-1.331 0.802,-2.266 2.224,-2.266c1.276,-0 2.115,0.863 2.115,2.23Zm-3.099,-0c-0,0.827 0.365,1.331 0.948,1.331c0.583,0 0.911,-0.504 0.911,-1.331c-0,-0.899 -0.328,-1.331 -0.948,-1.331c-0.547,0.036 -0.911,0.432 -0.911,1.332m3.938,2.158l-0,-6.08l1.203,-0l-0,6.08l-1.203,0" style="fill-rule:nonzero;"/><path d="M31.064,25.229l1.313,0l-0,2.267l2.298,0l-0,-2.231l1.275,0l0,5.758l-1.275,-0l-0,-2.483l-2.336,-0l-0,2.483l-1.275,-0l0,-5.794m10.102,3.598c-0,1.296 -0.802,2.267 -2.189,2.267c-1.349,0 -2.151,-0.971 -2.151,-2.231c0,-1.331 0.802,-2.266 2.224,-2.266c1.276,-0 2.115,0.863 2.115,2.23l0.001,-0Zm-3.1,-0c-0,0.827 0.365,1.331 0.948,1.331c0.583,0 0.911,-0.504 0.911,-1.331c0,-0.899 -0.328,-1.331 -0.948,-1.331c-0.547,0.036 -0.911,0.432 -0.911,1.332m3.938,-1.044l0,-1.116l1.167,0c0.037,0.109 0.037,0.361 0.037,0.504c0.219,-0.324 0.583,-0.611 1.203,-0.611c0.62,0 0.985,0.324 1.131,0.647c0.255,-0.36 0.619,-0.647 1.349,-0.647c0.766,0 1.386,0.468 1.386,1.582l-0,2.842l-1.203,0l-0,-2.697c-0,-0.397 -0.147,-0.755 -0.657,-0.755c-0.51,-0 -0.729,0.323 -0.729,0.97l0,2.483l-1.167,0l-0,-2.627c-0,-0.431 -0.11,-0.791 -0.62,-0.791c-0.511,-0 -0.73,0.288 -0.73,1.043l0,2.412l-1.203,-0l0.036,-3.239m8.315,1.295c0,0.54 0.255,1.079 0.876,1.079c0.51,0 0.656,-0.179 0.766,-0.468l1.203,0c-0.146,0.54 -0.62,1.403 -2.006,1.403c-1.423,0 -2.079,-1.042 -2.079,-2.194c0,-1.331 0.693,-2.338 2.116,-2.338c1.495,0 2.004,1.08 2.004,2.158c0,0.144 0,0.252 -0.035,0.36l-2.845,-0Zm1.678,-0.72c-0,-0.503 -0.219,-0.935 -0.802,-0.935c-0.584,-0 -0.803,0.396 -0.876,0.935l1.678,0" style="fill-rule:nonzero;"/></g></svg>