<svg width="100%" height="100%" viewBox="0 0 56 56" version="1.1" xmlns="http://www.w3.org/2000/svg"><g><path d="M6.039,17.13l0,32.475l10.98,-5.391l-0,-32.503l-10.98,5.419"/><path d="M28.098,6.321l-0,10.809l-22.059,10.811l0,-10.882l22.059,-10.738"/><path d="M28.098,27.941l-22.059,10.88l0,10.784l22.059,-10.733l-0,-10.929"/><path d="M28.098,17.13l-0,10.811l21.863,10.866l0,-10.818l-21.863,-10.857"/><path d="M49.961,38.773l0,10.906l-7.32,-3.621l0,-10.913l7.32,3.628Zm-14.639,-7.253l-0,10.918l-7.224,-3.568l-0,-10.929l7.224,3.579"/><path d="M42.641,13.455l7.32,3.619l0,10.913l-7.32,-3.633l0,-10.899Zm-7.319,-3.618l-0,10.88l-7.224,-3.587l-0,-10.809l7.224,3.516"/></g></svg>