<svg xmlns="http://www.w3.org/2000/svg" width="56" height="56" viewBox="0 0 56 56">
  <path fill-rule="evenodd" d="M24,48 C10.745166,48 0,37.254834 0,24 C0,10.745166 10.745166,0 24,0 C37.254834,0 48,10.745166 48,24 C48,37.254834 37.254834,48 24,48 Z M33.8311942,12.8571429 L29.9665179,12.8571429 L24.2569754,23.0675223 L24.1615513,23.0675223 L18.4520089,12.8571429 L14.5714286,12.8571429 L21.5373884,24.6738281 L17.0365513,24.6738281 L17.0365513,26.4709821 L22.4598214,26.4709821 L22.4598214,28.999721 L17.0365513,28.999721 L17.0365513,30.796875 L22.4598214,30.796875 L22.4598214,35.3613281 L25.9268973,35.3613281 L25.9268973,30.796875 L31.3501674,30.796875 L31.3501674,28.999721 L25.9268973,28.999721 L25.9268973,26.4709821 L31.3501674,26.4709821 L31.3501674,24.6738281 L26.8493304,24.6738281 L33.8311942,12.8571429 Z" transform="translate(4 4)"/>
</svg>
