<svg xmlns="http://www.w3.org/2000/svg" width="56" height="56" viewBox="0 0 56 56">
  <path fill-rule="evenodd" d="M21.6931752,20.9305041 L9.69316725,20.9305041 C11.1349427,25.8793652 15.0831893,28.4446005 20.1183128,28.4446005 C21.7153564,28.4446005 23.5785739,28.3083933 24.4658203,28.0586801 L24.4658203,32.3946089 C23.5120304,32.6670232 21.6709941,32.8486328 20.1183128,32.8486328 C12.4436312,32.8486328 6.25508733,28.7624173 4.56931912,20.9305041 L0,20.9305041 L0,18.3652688 L4.19223938,18.3652688 C4.1256959,17.7523365 4.10351474,17.0940017 4.10351474,16.435667 C4.10351474,15.7546311 4.1256959,15.0962964 4.19223938,14.4606628 L0,14.4606628 L0,11.8954275 L4.56931912,11.8954275 C6.25508733,4.06351436 12.4658123,0 20.0961316,0 C21.6044506,0 23.5342116,0.227011975 24.4436392,0.522127543 L24.4436392,4.83535507 C23.4898492,4.6083431 21.6709941,4.42673352 20.140494,4.42673352 C15.1275516,4.42673352 11.1571239,6.96926764 9.71534841,11.8954275 L21.6931752,11.8954275 L21.6931752,14.4606628 L9.20518171,14.4606628 C9.13863823,15.0962964 9.09427591,15.7546311 9.09427591,16.435667 C9.09427591,17.1167029 9.13863823,17.7523365 9.18300055,18.3652688 L21.6931752,18.3652688 L21.6931752,20.9305041 Z" transform="translate(13 12)"/>
</svg>
