<svg xmlns="http://www.w3.org/2000/svg" width="56" height="56" viewBox="0 0 56 56"><path d="M 34.6563 7.8789 L 47.5705 20.7930 C 51.6952 16.6914 51.8593 11.4883 47.8984 7.5508 C 43.9610 3.6602 38.7579 3.7539 34.6563 7.8789 Z M 32.3126 10.2461 C 29.8282 12.6836 28.7969 15.4727 29.1485 18.1680 L 7.3750 41.6289 C 6.4844 42.5899 6.3438 43.9258 7.4453 45.0274 L 4.4453 48.8945 C 4.1407 49.2695 4.1407 49.8086 4.5626 50.2305 L 5.2422 50.9336 C 5.6407 51.3320 6.1797 51.3555 6.6016 51.0274 L 10.4688 48.0039 C 11.5235 49.1055 12.8828 48.9649 13.8204 48.0742 L 25.9610 36.8242 L 25.9610 50.2071 C 25.9610 51.4024 26.9219 52.3398 28.1172 52.3398 C 29.3126 52.3398 30.2500 51.4024 30.2500 50.2071 L 30.2500 36.3555 L 30.0860 33.0039 L 37.2344 26.3711 C 39.9297 26.7227 42.7657 25.6211 45.2032 23.1602 Z M 9.7657 43.5508 L 30.4375 21.6602 C 30.8360 22.3164 31.3282 22.9492 31.9141 23.5586 C 32.5000 24.1445 33.1094 24.6602 33.7422 25.0820 L 11.9453 45.7071 Z"/></svg>