<svg xmlns="http://www.w3.org/2000/svg" width="56" height="56" viewBox="0 0 56 56">
  <path d="M37.7462,35.9835199 C37.7462,42.8742199 32.4962,45.4757199 29.0274,45.4757199 C25.0665,45.4757199 22.2306,42.8976199 22.2306,39.2413199 C22.2306,35.6554199 24.4571,33.1945199 29.2384,32.2101199 L32.965,31.4132199 C33.9259,31.2257199 34.4181,30.5226199 34.4181,29.4445199 L34.3314519,13.3943005 L17,16.9445199 C15.9453,17.1554199 15.7578,17.3663199 15.7578,18.5382199 L15.7578,39.9835199 C15.7578,46.8742199 10.5078,49.4757199 7.039,49.4757199 C3.0781,49.4757199 0.2422,46.8976199 0.2422,43.2413199 C0.2422,39.6554199 2.4687,37.1945199 7.25,36.2101199 L10.9766,35.4132199 C11.9375,35.2257199 12.4297,34.5226199 12.4297,33.4445199 L12.289,7.38201989 C12.289,5.97571989 13.1562,5.13201989 14.75,4.78041989 L35.4141,0.577294863 C36.6797,0.296094863 37.7578,1.16319486 37.7578,2.47569486 L37.7578,11.3116949 C37.7578,11.3816056 37.753885,11.4503251 37.7462,11.5176647 L37.7462,35.9835199 Z" transform="translate(9 3)"/>
</svg>
