<svg xmlns="http://www.w3.org/2000/svg" width="56" height="56" viewBox="0 0 56 56">
  <path fill-rule="evenodd" d="M13.8811111 45.83C13.6794444 45.8161111 13.4772222 45.805 13.2755556 45.7866667 12.1455556 45.6805556 11.1094444 45.3122222 10.1894444 44.6461111 8.60222222 43.4966667 7.58722222 41.9683333 7.18277778 40.045 7.03166667 39.3222222 6.98944444 38.5927778 7.03555556 37.8566667 7.08777778 36.9927778 7.26 36.155 7.53444444 35.3355556 7.97277778 34.0277778 8.63388889 32.8411111 9.47055556 31.7472222 10.1011111 30.9227778 10.815 30.1761111 11.6016667 29.4988889 12.3377778 28.8644444 13.0061111 28.1638889 13.6322222 27.4222222 14.42 26.4872222 15.1327778 25.4961111 15.8366667 24.4983333 16.4588889 23.6161111 17.0705556 22.7283333 17.7311111 21.8755556 18.2277778 21.2322222 18.7516667 20.6127778 19.3355556 20.0466667 20.0661111 19.3394444 20.8722222 18.7405556 21.8222222 18.3522222 22.535 18.0605556 23.2755556 17.9061111 24.0461111 17.89 24.9172222 17.87 25.7777778 17.9561111 26.625 18.1633333 27.9216667 18.4816667 29.045 19.1122222 30.0122222 20.03 30.6738889 20.6605556 31.2338889 21.3738889 31.7544444 22.1205556 32.3066667 22.9122222 32.8138889 23.7327778 33.3372222 24.5438889 33.9272222 25.4572222 34.5361111 26.3561111 35.2166667 27.2061111 35.8944444 28.0533333 36.6422222 28.835 37.4588889 29.55 38.4466667 30.415 39.3233333 31.3777778 40.07 32.4588889 40.7066667 33.3861111 41.2255556 34.3722222 41.5877778 35.4377778 41.87 36.2677778 42.0472222 37.1166667 42.0922222 37.9938889 42.1616667 39.3261111 41.9316667 40.6 41.3272222 41.7983333 40.7677778 42.9088889 39.9577778 43.8005556 38.9405556 44.5088889 38.1927778 45.0294444 37.3861111 45.425 36.4977778 45.645 36.1833333 45.7238889 35.8638889 45.7805556 35.5411111 45.8116667 35.4961111 45.8161111 35.4527778 45.8244444 35.4094444 45.8311111 35.3672222 45.855 35.3205556 45.8372222 35.2761111 45.8427778 35.2394444 45.8477778 35.2005556 45.8311111 35.1655556 45.8544444 34.89 45.8544444 34.6133333 45.8544444 34.3377778 45.8544444 34.305 45.8305556 34.2677778 45.8472222 34.2327778 45.8427778 34.2005556 45.8427778 34.17 45.8427778 34.1383333 45.8427778 34.1122222 45.8427778 34.0838889 45.8427778 34.0583333 45.8427778 33.3522222 45.82 32.6666667 45.6727778 31.9833333 45.5144444 30.8255556 45.2444444 29.6905556 44.8894444 28.5388889 44.5961111 27.6061111 44.3594444 26.6655556 44.1672222 25.7083333 44.0577778 25.045 43.9816667 24.38 43.9733333 23.7166667 43.9961111 23.1861111 44.0138889 22.6594444 44.0955556 22.1377778 44.1927778 21.1077778 44.3866667 20.0983333 44.6638889 19.0883333 44.9394444 18.02 45.2327778 16.9516667 45.5244444 15.8577778 45.7033333 15.4127778 45.775 14.9672222 45.8366667 14.515 45.8322222 14.4222222 45.8311111 14.33 45.845 14.2361111 45.8427778 14.1166667 45.8361111 13.9988889 45.8572222 13.8811111 45.83zM34.2905556.02C35.7794444.198888889 36.9166667.955555556 37.7855556 2.14888889 38.3811111 2.96722222 38.7555556 3.885 38.9877778 4.86611111 39.1861111 5.71111111 39.2611111 6.56888889 39.2327778 7.43666667 39.1805556 9.03111111 38.8061111 10.5455556 38.1138889 11.9822222 37.6344444 12.9777778 37.0155556 13.8755556 36.2266667 14.65 35.5238889 15.3383333 34.7288889 15.8883333 33.8011111 16.2311111 33.1494444 16.4716667 32.4794444 16.5905556 31.785 16.5494444 30.5827778 16.48 29.5622222 16.0022222 28.7044444 15.1677778 27.9733333 14.4555556 27.475 13.5944444 27.13 12.6411111 26.8888889 11.9744444 26.7383333 11.2872222 26.66 10.5844444 26.6055556 10.1027778 26.5838889 9.62055556 26.5994444 9.13833333 26.635 8 26.8394444 6.89166667 27.2094444 5.81555556 27.6022222 4.67 28.1588889 3.61388889 28.9188889 2.66944444 29.5583333 1.875 30.3055556 1.20333333 31.2022222.707222222 31.8611111.342222222 32.5627778.106111111 33.3138889.0211111111 33.3366667.00833333333 33.3616667.0138888889 33.385.0122222222 33.4088889.0122222222 33.4327778.0122222222 33.4561111.0122222222 33.4905556.00777777778 33.5272222.0244444444 33.5577778 0 33.7216667 0 33.8827778 0 34.0455556 0 34.0772222.025 34.1127778.00833333333 34.1472222.0122222222 34.1716667.0122222222 34.1944444.0122222222 34.2188889.0122222222 34.2416667.0127777778 34.2672222.00666666667 34.2905556.02zM.045 17.6005556C.0683333333 17.1461111.15 16.7.269444444 16.2611111.500555556 15.4083333.878888889 14.6311111 1.46833333 13.9655556 2.12722222 13.2227778 2.94166667 12.7422222 3.91722222 12.5483333 4.70944444 12.3916667 5.49111111 12.4588889 6.25944444 12.6955556 7.14277778 12.9683333 7.92388889 13.4322222 8.61833333 14.0361111 9.69722222 14.9711111 10.4705556 16.1216667 11.0061111 17.4383333 11.2861111 18.1277778 11.48 18.8416667 11.5872222 19.5777778 11.6394444 19.935 11.6644444 20.2944444 11.6716667 20.6555556 11.6844444 21.3411111 11.6155556 22.0155556 11.4455556 22.6788889 11.2188889 23.5638889 10.8372222 24.3694444 10.2288889 25.0588889 9.53055556 25.85 8.66 26.3422222 7.61666667 26.5116667 6.85111111 26.6361111 6.09833333 26.5522222 5.36166667 26.3144444 4.37111111 25.9927778 3.52222222 25.4405556 2.77444444 24.7255556 2.045 24.03 1.46555556 23.2222222 1.01388889 22.3238889.571111111 21.4427778.265555556 20.5138889.118333333 19.5366667.0927777778 19.3638889.0716666667 19.1911111.0483333333 19.0188889.03 18.94.0372222222 18.8594444.0183333333 18.7811111.00944444445 18.7483333.0144444444 18.7172222.0127777778 18.6833333.00666666667 18.6416667.0255555556 18.5972222 1.12798659e-12 18.5555556 1.12798659e-12 18.3444444 1.12798659e-12 18.1338889 1.12798659e-12 17.9222222.0394444444 17.8644444.02 17.8.0244444444 17.7383333.0277777778 17.6922222.0161111111 17.6433333.045 17.6005556zM10.4983333 7.44166667C10.5033333 6.18444444 10.6822222 5.05055556 11.1027778 3.95944444 11.42 3.13444444 11.8555556 2.38 12.4622222 1.73055556 13.1155556 1.02944444 13.8916667.526666667 14.8277778.29 15.7638889.0522222222 16.6838889.12 17.5883333.447222222 18.385.736111111 19.08 1.19166667 19.6972222 1.76666667 20.6827778 2.68333333 21.3883333 3.79 21.8911111 5.03055556 22.2105556 5.81944444 22.4305556 6.635 22.5561111 7.47555556 22.6272222 7.95222222 22.6683333 8.43277778 22.6783333 8.91666667 22.6888889 9.52555556 22.6505556 10.1322222 22.55 10.7333333 22.3411111 11.9894444 21.915 13.1594444 21.155 14.1938889 20.6822222 14.8355556 20.1083333 15.3661111 19.4038889 15.7483333 18.6166667 16.175 17.7738889 16.3533333 16.8822222 16.2844444 16.0761111 16.2227778 15.3327778 15.9594444 14.6394444 15.5483333 13.735 15.0127778 13.0027778 14.2905556 12.3933333 13.4405556 11.6705556 12.4311111 11.1738889 11.315 10.8594444 10.1155556 10.6872222 9.45944444 10.5772222 8.79222222 10.5272222 8.11555556 10.5072222 7.86166667 10.49 7.60611111 10.4983333 7.44166667zM49.9988889 18.3372222C49.9988889 18.3855556 49.9988889 18.4344444 49.9988889 18.4833333 49.9433333 19.6955556 49.6188889 20.8366667 49.095 21.925 48.6827778 22.7777778 48.1566667 23.555 47.5055556 24.2438889 46.67 25.1294444 45.7005556 25.82 44.5477778 26.2344444 43.8572222 26.4827778 43.1461111 26.605 42.4111111 26.5644444 41.3261111 26.5033333 40.3788889 26.11 39.5822222 25.37 38.9244444 24.7583333 38.4905556 24.0061111 38.2172222 23.1594444 37.9711111 22.4005556 37.8716667 21.6183333 37.8966667 20.8216667 37.9505556 19.07 38.5044444 17.4777778 39.4638889 16.0205556 39.7877778 15.5272222 40.1594444 15.0716667 40.5761111 14.655 41.4333333 13.8011111 42.4133333 13.1444444 43.5738889 12.7722222 44.2338889 12.5622222 44.9083333 12.4661111 45.5994444 12.52 46.655 12.6016667 47.5755556 13.0011111 48.3477778 13.7294444 49.0444444 14.3866667 49.4838889 15.1983333 49.7494444 16.1094444 49.8961111 16.6127778 49.9816667 17.1277778 49.9988889 17.6527778 49.9988889 17.7016667 49.9988889 17.7511111 49.9988889 17.8 49.9933333 17.9788889 49.9938889 18.1577778 49.9988889 18.3372222z" transform="translate(3 5)"/>
</svg>
