<svg xmlns="http://www.w3.org/2000/svg" width="56" height="56" viewBox="0 0 56 56"><path d="M 27.9999 51.9063 C 41.0546 51.9063 51.9063 41.0781 51.9063 28 C 51.9063 14.9453 41.0312 4.0937 27.9765 4.0937 C 14.8983 4.0937 4.0937 14.9453 4.0937 28 C 4.0937 41.0781 14.9218 51.9063 27.9999 51.9063 Z M 27.9999 47.9219 C 16.9374 47.9219 8.1014 39.0625 8.1014 28 C 8.1014 16.9609 16.9140 8.0781 27.9765 8.0781 C 39.0155 8.0781 47.8983 16.9609 47.9219 28 C 47.9454 39.0625 39.0390 47.9219 27.9999 47.9219 Z M 36.9765 21.6250 L 38.6171 19.9609 C 39.3436 19.1875 39.4140 18.3672 38.7109 17.6875 L 38.2187 17.1719 C 37.5390 16.4922 36.6952 16.5625 35.9452 17.2890 L 34.2812 18.9297 Z M 20.6874 37.8437 L 35.6171 22.9609 L 32.9218 20.2890 L 18.0390 35.1484 L 16.7499 38.1719 C 16.5155 38.7344 17.0546 39.2031 17.5468 39.0156 Z"/></svg>