<svg xmlns="http://www.w3.org/2000/svg" width="56" height="56" viewBox="0 0 56 56"><path d="M 38.7232 28.5490 C 43.1399 28.5490 46.9403 24.6047 46.9403 19.4690 C 46.9403 14.3949 43.1193 10.6356 38.7232 10.6356 C 34.3271 10.6356 30.5061 14.4771 30.5061 19.5101 C 30.5061 24.6047 34.3066 28.5490 38.7232 28.5490 Z M 15.0784 29.0215 C 18.8994 29.0215 22.2274 25.5703 22.2274 21.1125 C 22.2274 16.6958 18.8789 13.4294 15.0784 13.4294 C 11.2575 13.4294 7.8885 16.7779 7.9090 21.1536 C 7.9090 25.5703 11.2370 29.0215 15.0784 29.0215 Z M 3.6155 47.5717 L 19.2281 47.5717 C 17.0917 44.4697 19.7006 38.2247 24.1173 34.8146 C 21.8371 33.2944 18.8994 32.1645 15.0579 32.1645 C 5.7931 32.1645 0 39.0053 0 44.6957 C 0 46.5445 1.0271 47.5717 3.6155 47.5717 Z M 25.8018 47.5717 L 51.6241 47.5717 C 54.8493 47.5717 56 46.6472 56 44.8395 C 56 39.5394 49.3644 32.2261 38.7026 32.2261 C 28.0616 32.2261 21.4262 39.5394 21.4262 44.8395 C 21.4262 46.6472 22.5766 47.5717 25.8018 47.5717 Z"/></svg>