<svg xmlns="http://www.w3.org/2000/svg" width="56" height="56" viewBox="0 0 56 56"><path d="M 7.7148 49.5742 L 48.2852 49.5742 C 53.1836 49.5742 55.6446 47.1367 55.6446 42.3086 L 55.6446 13.6914 C 55.6446 8.8633 53.1836 6.4258 48.2852 6.4258 L 7.7148 6.4258 C 2.8398 6.4258 .3554 8.8398 .3554 13.6914 L .3554 42.3086 C .3554 47.1602 2.8398 49.5742 7.7148 49.5742 Z M 7.7851 45.8008 C 5.4413 45.8008 4.1288 44.5586 4.1288 42.1211 L 4.1288 13.8789 C 4.1288 11.4414 5.4413 10.1992 7.7851 10.1992 L 48.2147 10.1992 C 50.5350 10.1992 51.8708 11.4414 51.8708 13.8789 L 51.8708 42.1211 C 51.8708 44.5586 50.5350 45.8008 48.2147 45.8008 L 43.6681 45.8008 L 43.6681 45.7539 C 41.7226 40.8086 36.2382 36.3320 27.9882 36.3320 C 19.8085 36.3320 14.3007 40.8086 12.4023 45.6602 L 12.4023 45.8008 Z M 27.9882 32.6523 C 32.2070 32.7227 35.5585 29.0898 35.5585 24.3555 C 35.5585 19.9258 32.2070 16.2930 27.9882 16.2930 C 23.7929 16.2930 20.3944 19.9258 20.4413 24.3555 C 20.4648 29.0898 23.7929 32.6055 27.9882 32.6523 Z"/></svg>