<svg xmlns="http://www.w3.org/2000/svg" width="56" height="56" viewBox="0 0 56 56">
  <path fill-rule="evenodd" d="M36.8533296,36.7141149 C36.5552022,36.6745036 36.2695836,36.6328075 35.9943891,36.5890265 C29.93594,35.6258457 29.3271764,33.4722401 28.5370346,31.821073 C27.894914,31.5437937 27.5801082,31.3207193 27.2507087,30.1782451 C27.1089418,29.6904003 26.8629346,27.5242858 26.9671749,26.679939 C27.4654438,26.2129422 27.8427938,25.0266871 28.0074936,24.476298 C28.4494727,23.0023395 28.5557978,22.6437527 28.9769288,20.6798645 C29.0373882,20.4005004 29.1958336,20.285836 29.3250916,20.2378855 C29.7170353,20.0961186 29.806682,19.7813127 29.93594,19.5478144 C30.2382371,19.0141038 29.9776362,18.774351 30.4508874,17.4713466 C31.0554814,15.9890489 31.1492977,14.4629702 30.6906402,14.0251607 C30.3800039,13.7478814 30.1902865,13.9542773 30.0380956,14.010567 C29.93594,14.0501784 30.0151627,13.7958319 30.1068942,13.4330755 C30.4696506,11.9403537 30.4717354,10.6748759 30.5697214,9.14462758 C30.648944,7.90625224 30.5655517,6.77628687 30.411276,6.07579172 C30.2653395,5.92985524 29.8879895,4.30579061 29.4564344,3.35511863 C28.7184128,1.72271477 26.5064326,1.47045313 25.7475628,1.14313844 C23.9442048,0.388438313 21.6884437,-0.635201909 19.0136363,0.519781152 C17.8232116,1.03264367 16.2387583,1.08267903 14.5146229,3.02363432 C14.1060007,3.48020705 13.3784031,3.08826334 12.5653284,4.86451888 C11.7397448,6.60324789 11.6959639,7.74989172 11.8835965,8.99452148 L11.8273067,8.99660629 C11.8273067,8.99660629 11.8481548,11.9737106 12.212996,13.4664324 C12.3026427,13.8312737 12.3797806,14.0835353 12.2797098,14.0460088 C12.1275189,13.989719 11.9190382,13.8104256 11.608402,14.0877049 C11.1476596,14.5255144 11.3915821,15.9890489 11.9961761,17.4713466 C12.4715121,18.774351 12.1546214,19.1621251 12.6612295,19.8480266 C12.8405229,20.091949 13.0093923,20.221207 13.2032793,20.3025145 C13.3325373,20.3546347 13.5160004,20.3713131 13.6014774,20.642338 C14.1581209,22.662516 14.2602764,23.2837884 14.8398528,24.4846373 C15.0900296,25.0037542 15.3714786,26.3025889 15.8885107,26.8071122 C15.9739878,27.5180314 15.8864259,29.5673967 15.7738463,30.1782451 C15.5945529,31.1393411 15.2568142,31.4166204 14.3520079,31.821073 C13.8599935,33.4201199 12.5549043,34.8690608 7.09687969,36.5431608 C6.91133187,36.5994506 6.71952963,36.6578252 6.52564258,36.7141149 C6.42245723,36.7485101 4.57423248,38.342779 0.980968308,41.4969217 C0.150837206,42.2255952 0.0685980793,43.4892566 0.797277198,44.3193829 C1.17701277,44.7519854 1.72472874,45 2.30035369,45 C11.8723874,45 18.3833821,45 21.8333378,45 C28.2915188,45 34.7496998,45 41.2078809,45 C42.3124504,45 43.2078809,44.1045695 43.2078809,43 C43.2078809,42.4103512 42.9476832,41.8507509 42.4968201,41.4707401 L36.8533296,36.7141149 L36.8533296,36.7141149 Z" transform="translate(6 6)"/>
</svg>
