<svg xmlns="http://www.w3.org/2000/svg" width="56" height="56" viewBox="0 0 56 56"><path d="M 27.9999 51.9063 C 41.0546 51.9063 51.9063 41.0781 51.9063 28 C 51.9063 14.9453 41.0312 4.0937 27.9765 4.0937 C 14.8983 4.0937 4.0937 14.9453 4.0937 28 C 4.0937 41.0781 14.9218 51.9063 27.9999 51.9063 Z M 27.9999 47.9219 C 16.9374 47.9219 8.1014 39.0625 8.1014 28 C 8.1014 16.9609 16.9140 8.0781 27.9765 8.0781 C 39.0155 8.0781 47.8983 16.9609 47.9219 28 C 47.9454 39.0625 39.0390 47.9219 27.9999 47.9219 Z M 22.3749 33.5312 C 27.8358 39.0156 34.7968 42.4844 38.9218 38.3828 C 39.0858 38.2188 39.2030 38.0781 39.3202 37.9141 C 40.3983 36.7188 40.7030 35.1250 39.3202 34.0937 C 38.2421 33.3203 37.0936 32.5234 35.1483 31.1641 C 33.7890 30.2031 32.8983 30.4375 31.8436 31.4922 L 30.9062 32.4063 C 30.6249 32.6641 30.1796 32.6406 29.8749 32.4531 C 29.0546 31.9609 27.6718 30.8594 26.3593 29.5469 C 25.0702 28.2578 23.8983 26.8047 23.4530 26.0312 C 23.2890 25.7734 23.1718 25.3516 23.4999 25.0469 L 24.4140 24.0625 C 25.4687 22.9609 25.7030 22.1172 24.7187 20.7344 L 21.8358 16.6563 C 20.8514 15.2734 19.4218 15.5312 17.8514 16.7031 C 17.7343 16.7968 17.6405 16.8906 17.5468 16.9844 C 13.4218 21.1094 16.9140 28.0703 22.3749 33.5312 Z"/></svg>