<svg xmlns="http://www.w3.org/2000/svg" width="56" height="56" viewBox="0 0 56 56">
  <path d="M17,0 C26.3888407,0 34,7 34,19 C34,23.7636386 31.3210535,29.6303728 28.0900827,34.9737328 L27.5468409,35.8591678 C27.3642996,36.1525115 27.1804193,36.443961 26.9955646,36.7332374 L26.4384421,37.5942683 C26.3452227,37.7365939 26.2518509,37.8783065 26.1583723,38.0193712 L25.5965831,38.8577064 L25.5965831,38.8577064 L25.0344182,39.6788196 L25.0344182,39.6788196 L24.4740656,40.4810374 L24.4740656,40.4810374 L23.9177137,41.2626864 L23.9177137,41.2626864 L23.3675504,42.0220934 L23.3675504,42.0220934 L22.8257642,42.7575851 L22.8257642,42.7575851 L22.294543,43.467488 L22.294543,43.467488 L21.7760753,44.150129 L21.7760753,44.150129 L21.0270728,45.1193138 L21.0270728,45.1193138 L20.3190739,46.0177466 L20.3190739,46.0177466 L19.6594637,46.83978 C19.5891355,46.9266634 19.5198401,47.0120275 19.4516231,47.0958374 C18.0976291,48.6997621 15.8248694,48.6368741 14.5492719,47.0969369 L13.9074696,46.3016903 L13.9074696,46.3016903 L13.2148001,45.428144 L13.2148001,45.428144 L12.7284086,44.8050693 L12.7284086,44.8050693 L12.2248809,44.1513789 L12.2248809,44.1513789 L11.4422468,43.1170998 L11.4422468,43.1170998 L10.905454,42.3941921 L10.905454,42.3941921 L10.3591852,41.6465264 L10.3591852,41.6465264 L9.80562897,40.8757763 L9.80562897,40.8757763 L9.24697399,40.0836155 L9.24697399,40.0836155 L8.68540884,39.2717176 L8.68540884,39.2717176 L8.12312212,38.4417562 C7.93581614,38.1622778 7.74875466,37.8800677 7.56230245,37.595405 L7.00513842,36.7343376 L7.00513842,36.7343376 L6.45381865,35.8602277 L6.45381865,35.8602277 L5.91053175,34.9747489 C2.67928613,29.6311166 0,23.7639406 0,19 C0,7 7.61115925,0 17,0 Z M17,4 C9.37835395,4 4,9.68186168 4,19 C4,22.3449314 5.74603693,26.8117412 8.61078113,31.7466705 L9.11272185,32.5971221 L9.11272185,32.5971221 L9.63587778,33.4560131 L9.63587778,33.4560131 L10.1795466,34.3226116 C10.2718285,34.4676463 10.3649358,34.6129717 10.4588539,34.7585724 L11.0319752,35.6353599 L11.0319752,35.6353599 L11.6238536,36.5180251 L11.6238536,36.5180251 L12.2337869,37.4058361 L12.2337869,37.4058361 L12.8610726,38.2980611 L12.8610726,38.2980611 L13.5050084,39.1939681 C13.6136796,39.3435521 13.7230152,39.4932591 13.8330007,39.6430737 L14.5005949,40.5431314 L14.5005949,40.5431314 L15.1059617,41.3428411 L15.1059617,41.3428411 L15.4180754,41.7478049 L15.4180754,41.7478049 C16.0942573,42.6212153 17.3504494,42.7811062 18.2238628,42.1049282 C18.3575964,42.0013945 18.4776574,41.8813157 18.5811712,41.7475668 L19.1488503,41.0070743 L19.1488503,41.0070743 L19.8253026,40.104316 L19.8253026,40.104316 L20.4864022,39.203912 L20.4864022,39.203912 L21.1314511,38.3065888 L21.1314511,38.3065888 L21.7597515,37.4130729 L21.7597515,37.4130729 L22.3706056,36.5240911 C22.5712384,36.2286002 22.7688471,35.9339861 22.9633155,35.6403698 L23.5371834,34.7626356 C24.0073619,34.033887 24.4571863,33.3121317 24.8848394,32.599262 L25.3872645,31.7482045 C28.2546409,26.8099946 30,22.3442615 30,19 C30,9.68186168 24.6216461,4 17,4 Z M17,9 C21.418278,9 25,12.581722 25,17 C25,21.418278 21.418278,25 17,25 C12.581722,25 9,21.418278 9,17 C9,12.581722 12.581722,9 17,9 Z M17,13 C14.790861,13 13,14.790861 13,17 C13,19.209139 14.790861,21 17,21 C19.209139,21 21,19.209139 21,17 C21,14.790861 19.209139,13 17,13 Z" transform="translate(11 4)"/>
</svg>
