<svg xmlns="http://www.w3.org/2000/svg" width="56" height="56" viewBox="0 0 56 56"><path d="M 39.0593 47.0533 C 40.1266 47.0533 40.9896 46.2358 40.9896 45.1685 L 40.9896 11.4458 C 40.9896 10.3784 40.1266 9.5382 39.0593 9.5382 C 37.9920 9.5382 37.1063 10.3784 37.1063 11.4458 L 37.1063 45.1685 C 37.1063 46.2358 37.9920 47.0533 39.0593 47.0533 Z M 54.0699 47.0533 C 55.1373 47.0533 56 46.2358 56 45.1685 L 56 11.4458 C 56 10.3784 55.1373 9.5382 54.0699 9.5382 C 53.0026 9.5382 52.1171 10.3784 52.1171 11.4458 L 52.1171 45.1685 C 52.1171 46.2358 53.0026 47.0533 54.0699 47.0533 Z M 3.2701 46.1450 C 4.2011 46.1450 4.9732 45.8498 5.8816 45.3048 L 29.0220 31.6794 C 30.6343 30.7256 31.3383 29.5902 31.3383 28.2958 C 31.3383 27.0014 30.6343 25.8659 29.0220 24.9121 L 5.8816 11.2868 C 4.9505 10.7418 4.2011 10.4466 3.2701 10.4466 C 1.4988 10.4466 0 11.8091 0 14.3525 L 0 42.2391 C 0 44.7825 1.4988 46.1450 3.2701 46.1450 Z M 4.2693 41.9438 C 3.9286 41.9438 3.6561 41.7168 3.6561 41.2626 L 3.6561 15.3290 C 3.6561 14.8748 3.9286 14.6477 4.2693 14.6477 C 4.4282 14.6477 4.5872 14.7159 4.8143 14.8521 L 26.4105 27.6599 C 26.7284 27.8416 26.9100 27.9779 26.9100 28.2958 C 26.9100 28.5910 26.7284 28.7500 26.4105 28.9316 L 4.8143 41.7395 C 4.6099 41.8757 4.4282 41.9438 4.2693 41.9438 Z"/></svg>