<svg xmlns="http://www.w3.org/2000/svg" width="56" height="56" viewBox="0 0 56 56"><path d="M 8.3827 21.4023 C 9.6015 21.4023 10.2577 20.7227 10.2577 19.4805 L 10.2577 13.9492 C 10.2577 11.5118 11.5702 10.2696 13.9140 10.2696 L 19.5858 10.2696 C 20.8046 10.2696 21.4843 9.5898 21.4843 8.3711 C 21.4843 7.1758 20.8046 6.4961 19.5858 6.4961 L 13.8436 6.4961 C 8.9687 6.4961 6.4843 8.9102 6.4843 13.7383 L 6.4843 19.4805 C 6.4843 20.7227 7.1640 21.4023 8.3827 21.4023 Z M 47.6171 21.4023 C 48.8591 21.4023 49.5157 20.7227 49.5157 19.4805 L 49.5157 13.7383 C 49.5157 8.9102 47.0780 6.4961 42.1562 6.4961 L 36.4374 6.4961 C 35.1952 6.4961 34.5155 7.1758 34.5155 8.3711 C 34.5155 9.5898 35.1952 10.2696 36.4374 10.2696 L 42.1093 10.2696 C 44.4062 10.2696 45.7421 11.5118 45.7421 13.9492 L 45.7421 19.4805 C 45.7421 20.7227 46.4218 21.4023 47.6171 21.4023 Z M 26.9921 25.9727 L 26.9921 17.7930 C 26.9921 17.2305 26.5468 16.7617 25.9608 16.7617 L 17.8046 16.7617 C 17.2187 16.7617 16.7733 17.2305 16.7733 17.7930 L 16.7733 25.9727 C 16.7733 26.5352 17.2187 26.9805 17.8046 26.9805 L 25.9608 26.9805 C 26.5468 26.9805 26.9921 26.5352 26.9921 25.9727 Z M 31.0468 18.8008 L 37.1874 18.8008 L 37.1874 24.9414 L 31.0468 24.9414 Z M 35.4062 23.1602 L 35.4062 20.6055 L 32.8515 20.6055 L 32.8515 23.1602 Z M 23.1718 23.1602 L 23.1718 20.6055 L 20.5936 20.6055 L 20.5936 23.1602 Z M 18.8124 31.0586 L 24.9530 31.0586 L 24.9530 37.1992 L 18.8124 37.1992 Z M 38.9218 31.8555 L 38.9218 29.3008 L 36.3671 29.3008 L 36.3671 31.8555 Z M 31.8671 31.8555 L 31.8671 29.3008 L 29.3124 29.3008 L 29.3124 31.8555 Z M 23.1718 35.3945 L 23.1718 32.8398 L 20.5936 32.8398 L 20.5936 35.3945 Z M 35.4062 35.3945 L 35.4062 32.8398 L 32.8280 32.8398 L 32.8280 35.3945 Z M 36.4374 49.5039 L 42.1562 49.5039 C 47.0780 49.5039 49.5157 47.0664 49.5157 42.2383 L 49.5157 36.5196 C 49.5157 35.2774 48.8360 34.5977 47.6171 34.5977 C 46.3984 34.5977 45.7421 35.2774 45.7421 36.5196 L 45.7421 42.0508 C 45.7421 44.4883 44.4062 45.7305 42.1093 45.7305 L 36.4374 45.7305 C 35.1952 45.7305 34.5155 46.4102 34.5155 47.6289 C 34.5155 48.8242 35.1952 49.5039 36.4374 49.5039 Z M 13.8436 49.5039 L 19.5858 49.5039 C 20.8046 49.5039 21.4843 48.8242 21.4843 47.6289 C 21.4843 46.4102 20.8046 45.7305 19.5858 45.7305 L 13.9140 45.7305 C 11.5702 45.7305 10.2577 44.4883 10.2577 42.0508 L 10.2577 36.5196 C 10.2577 35.2774 9.5780 34.5977 8.3827 34.5977 C 7.1405 34.5977 6.4843 35.2774 6.4843 36.5196 L 6.4843 42.2383 C 6.4843 47.0898 8.9687 49.5039 13.8436 49.5039 Z M 31.8671 38.9336 L 31.8671 36.3789 L 29.3124 36.3789 L 29.3124 38.9336 Z M 38.9218 38.9336 L 38.9218 36.3789 L 36.3671 36.3789 L 36.3671 38.9336 Z M 39.2265 25.9727 L 39.2265 17.7930 C 39.2265 17.2305 38.7811 16.7617 38.1952 16.7617 L 30.0389 16.7617 C 29.4530 16.7617 29.0077 17.2305 29.0077 17.7930 L 29.0077 25.9727 C 29.0077 26.5352 29.4530 26.9805 30.0389 26.9805 L 38.1952 26.9805 C 38.7811 26.9805 39.2265 26.5352 39.2265 25.9727 Z M 18.8124 18.8008 L 24.9530 18.8008 L 24.9530 24.9414 L 18.8124 24.9414 Z M 26.9921 38.2070 L 26.9921 30.0274 C 26.9921 29.4649 26.5468 29.0196 25.9608 29.0196 L 17.8046 29.0196 C 17.2187 29.0196 16.7733 29.4649 16.7733 30.0274 L 16.7733 38.2070 C 16.7733 38.7696 17.2187 39.2383 17.8046 39.2383 L 25.9608 39.2383 C 26.5468 39.2383 26.9921 38.7696 26.9921 38.2070 Z"/></svg>