<svg xmlns="http://www.w3.org/2000/svg" width="56" height="56" viewBox="0 0 56 56"><path d="M 12.6952 4.6562 L 43.3280 4.6562 C 43.1874 2.6875 42.0624 1.6328 39.9062 1.6328 L 16.1171 1.6328 C 13.9609 1.6328 12.8358 2.6875 12.6952 4.6562 Z M 8.1015 11.1484 L 47.9454 11.1484 C 47.5936 9.0156 46.5625 7.8438 44.2187 7.8438 L 11.8046 7.8438 C 9.4609 7.8438 8.4531 9.0156 8.1015 11.1484 Z M 10.2343 54.3672 L 45.7888 54.3672 C 50.6641 54.3672 53.1251 51.9297 53.1251 47.1016 L 53.1251 22.2109 C 53.1251 17.3828 50.6641 14.9453 45.7888 14.9453 L 10.2343 14.9453 C 5.3358 14.9453 2.8749 17.3594 2.8749 22.2109 L 2.8749 47.1016 C 2.8749 51.9297 5.3358 54.3672 10.2343 54.3672 Z M 10.3046 50.5938 C 7.9609 50.5938 6.6484 49.3281 6.6484 46.8906 L 6.6484 22.3984 C 6.6484 19.9609 7.9609 18.7187 10.3046 18.7187 L 45.7187 18.7187 C 48.0390 18.7187 49.3513 19.9609 49.3513 22.3984 L 49.3513 46.8906 C 49.3513 49.3281 48.0390 50.5938 45.7187 50.5938 L 42.8124 50.5938 C 40.8905 46.2813 35.9218 41.5703 27.9765 41.5703 C 20.0546 41.5703 15.0624 46.2813 13.1640 50.5938 Z M 27.9765 38.3125 C 31.9374 38.3360 35.1249 34.7266 35.1249 30.4609 C 35.1249 26.2656 31.9374 22.8438 27.9765 22.8438 C 24.0155 22.8438 20.8280 26.2656 20.8280 30.4609 C 20.8515 34.7266 24.0155 38.2656 27.9765 38.3125 Z"/></svg>