<svg xmlns="http://www.w3.org/2000/svg" width="56" height="56" viewBox="0 0 56 56">
  <path fill-rule="evenodd" d="M42.8800271,0.863198706 C43.9205922,1.03315029 44.6415817,1.97758763 44.5501237,3.01121259 L44.5314956,3.15940886 C43.6458009,8.58226506 42.4686357,13.0447588 41,16.5468901 C39.6673924,19.7246467 37.4079208,23.4803918 34.2215854,27.8141251 L33.4390691,28.8653185 C33.3056837,29.042367 33.1708154,29.2203402 33.0344641,29.3992383 C31.7944722,31.0261541 31.032697,32.9666039 30.8347178,35.00259 C30.5560393,37.8684981 29.9444667,39.9189881 29,41.1540599 C25.5859954,44.916186 22.4148122,47.3724953 19.4864504,48.5229879 C19.3438913,48.5789964 19.1903715,48.6015091 19.0377338,48.5887893 C18.4873556,48.5429245 18.0783667,48.059574 18.1242315,47.5091958 L18.888864,38.3336315 C18.8936489,38.2762132 18.8934622,38.2184889 18.888306,38.1611028 C18.8424139,37.6503468 18.4201158,37.2639351 17.9196249,37.2509095 L17.8028708,37.254602 C16.2115997,37.3975796 14.6106428,36.7644122 13,35.3550998 C11.5817004,34.1140876 10.8313838,32.8622933 10.7490505,31.5997169 L10.7414551,31.3767974 C10.7411946,31.2889081 10.7293485,31.2014368 10.7062233,31.116644 C10.5609071,30.5838182 10.0111644,30.2696795 9.47833852,30.4149956 L2.01155734,32.4513935 C1.78973266,32.5118911 1.55383652,32.4941019 1.34359337,32.4010214 C0.874646109,32.1934055 0.644431159,31.6692889 0.792951649,31.191127 L0.834039044,31.0817744 L1.2321268,30.1910945 L1.2321268,30.1910945 L1.61924691,29.3421692 L1.61924691,29.3421692 L1.99539939,28.5349985 L1.99539939,28.5349985 L2.36058422,27.7695826 L2.36058422,27.7695826 L2.71480141,27.0459212 C2.77292364,26.9287905 2.83058889,26.8133997 2.88779714,26.6997485 L3.22556288,26.0387192 L3.22556288,26.0387192 L3.55236097,25.4194445 C3.60591335,25.3197116 3.65900874,25.2217185 3.71164715,25.1254651 L4.02199379,24.5688224 L4.02199379,24.5688224 L4.32137278,24.0539343 C4.46832036,23.8069289 4.61115509,23.5755816 4.74987694,23.3598922 L5.02183683,22.9493907 C5.37713826,22.4298919 5.70319265,22.0217388 6,21.7249315 C7.10621329,20.6187182 9.267264,19.5980872 12.4831521,18.6630385 C14.1567845,18.1764147 15.674166,17.2608082 16.8848635,16.0069903 C17.1853985,15.695752 17.482829,15.3909909 17.777155,15.092707 L18.6508198,14.2172869 C19.3711127,13.503963 20.0720027,12.8311216 20.7534899,12.1987626 L21.5619611,11.4593633 L21.5619611,11.4593633 L22.3518057,10.7588271 C24.4332221,8.94254798 26.3159536,7.54080863 28,6.55360901 C28.9047055,6.02326443 29.9566968,5.48330006 31.1559739,4.93371591 L31.9773121,4.56590132 C32.1178385,4.50436136 32.2601833,4.44270264 32.4043463,4.38092516 L33.2911449,4.00883511 C33.5940178,3.88433005 33.9041641,3.75934993 34.2215838,3.63389476 L35.1956629,3.2561041 L35.1956629,3.2561041 L36.2133822,2.87546313 L36.2133822,2.87546313 L37.2747418,2.49197185 L37.2747418,2.49197185 L38.3797417,2.10563027 L38.3797417,2.10563027 L39.5283818,1.71643838 C39.7234585,1.65133554 39.9203535,1.58611393 40.1190669,1.52077357 L41.3331674,1.12730622 C41.5391542,1.0614908 41.7469593,0.99555662 41.9565827,0.929503677 C42.2549746,0.835479542 42.5712632,0.812769455 42.8800271,0.863198706 Z M10,35 C10.3667502,35 10.7242779,35.0394863 11.0685637,35.1144395 C10.281413,35.4952575 9.78338043,36.8265054 9.57446589,39.1081832 L9.54882582,39.4111809 C9.50602571,39.9618214 9.91771167,40.4429 10.4683521,40.4857002 C10.5221128,40.4898789 10.5761233,40.4897025 10.6298555,40.4851727 C13.0749622,40.2790445 14.4940364,39.7634643 14.8870782,38.9384321 C14.9610466,39.2805645 15,39.6357332 15,40 C15,41.8409492 13.6666667,43.1742825 11,44 L6.69316312,44.4342137 C6.62913885,44.4406686 6.564641,44.4409287 6.50056677,44.4349902 C5.95063883,44.3840225 5.54615166,43.8969003 5.59711939,43.3469724 L6,39 C6.8257175,36.3333333 8.15905083,35 10,35 Z M30.5,12 C28.0147186,12 26,14.0147186 26,16.5 C26,18.9852814 28.0147186,21 30.5,21 C32.9852814,21 35,18.9852814 35,16.5 C35,14.0147186 32.9852814,12 30.5,12 Z" transform="translate(5 4)"/>
</svg>
