<svg xmlns="http://www.w3.org/2000/svg" width="56" height="56" viewBox="0 0 56 56">
  <path d="M42.8800271,0.863198706 C43.9701429,1.04124322 44.7095227,2.06929025 44.5314782,3.15940602 C43.6458009,8.58226506 42.4686357,13.0447588 41,16.5468901 C39.6673924,19.7246467 37.4079208,23.4803918 34.2215854,27.8141251 L33.4390691,28.8653185 C33.3056837,29.042367 33.1708154,29.2203402 33.0344641,29.3992383 C31.7944722,31.0261541 31.032697,32.9666039 30.8347178,35.00259 C30.5560393,37.8684981 29.9444667,39.9189881 29,41.1540599 C25.5859954,44.916186 22.4148122,47.3724953 19.4864504,48.5229879 C19.3438913,48.5789964 19.1903715,48.6015091 19.0377338,48.5887893 C18.4873556,48.5429245 18.0783667,48.059574 18.1242315,47.5091958 L18.888864,38.3336315 C18.8936489,38.2762132 18.8934622,38.2184889 18.888306,38.1611028 C18.8388838,37.6110578 18.3529196,37.2052229 17.8028747,37.2546451 C16.2115997,37.3975796 14.6106428,36.7644122 13,35.3550998 C11.5817004,34.1140876 10.8313838,32.8622933 10.7490505,31.5997169 L10.7414551,31.3767974 C10.7411946,31.2889081 10.7293485,31.2014368 10.7062233,31.116644 C10.5609071,30.5838182 10.0111644,30.2696795 9.47833852,30.4149956 L2.01155734,32.4513935 C1.78973266,32.5118911 1.55383652,32.4941019 1.34359337,32.4010214 C0.838573243,32.177435 0.610426091,31.5867828 0.834012447,31.0817627 L1.23210475,30.1910847 L1.23210475,30.1910847 L1.61922886,29.3421612 L1.61922886,29.3421612 L1.99538482,28.5349921 L1.99538482,28.5349921 L2.36057266,27.7695774 L2.36057266,27.7695774 L2.71479241,27.0459172 C2.77291503,26.9287867 2.83058065,26.813396 2.88778926,26.6997451 L3.22555696,26.0387166 L3.22555696,26.0387166 L3.55235665,25.4194426 C3.60590927,25.3197098 3.65900489,25.2217168 3.71164352,25.1254635 L4.02199129,24.5688213 L4.02199129,24.5688213 L4.32137115,24.0539336 C4.46831911,23.8069284 4.61115412,23.5755811 4.7498762,23.3598918 L5.02183645,22.9493905 C5.37713826,22.4298919 5.70319265,22.0217388 6,21.7249315 C7.10621329,20.6187182 9.267264,19.5980872 12.4831521,18.6630385 C14.1567845,18.1764147 15.674166,17.2608082 16.8848635,16.0069903 C17.1853985,15.695752 17.482829,15.3909909 17.777155,15.092707 L18.6508198,14.2172869 C19.3711127,13.503963 20.0720027,12.8311216 20.7534899,12.1987626 L21.5619611,11.4593633 L21.5619611,11.4593633 L22.3518057,10.7588271 C24.4332221,8.94254798 26.3159536,7.54080863 28,6.55360901 C28.9047055,6.02326443 29.9566968,5.48330006 31.1559739,4.93371591 L31.9773121,4.56590132 C32.1178385,4.50436136 32.2601833,4.44270264 32.4043463,4.38092516 L33.2911449,4.00883511 C33.5940178,3.88433005 33.9041641,3.75934993 34.2215838,3.63389476 L35.1956629,3.2561041 L35.1956629,3.2561041 L36.2133822,2.87546313 L36.2133822,2.87546313 L37.2747418,2.49197185 L37.2747418,2.49197185 L38.3797417,2.10563027 L38.3797417,2.10563027 L39.5283818,1.71643838 C39.7234585,1.65133554 39.9203535,1.58611393 40.1190669,1.52077357 L41.3331674,1.12730622 C41.5391542,1.0614908 41.7469593,0.99555662 41.9565827,0.929503677 C42.2549746,0.835479542 42.5712632,0.812769455 42.8800271,0.863198706 Z M10,35 C10.3667502,35 10.7242779,35.0394863 11.0685637,35.1144395 C10.281413,35.4952575 9.78338043,36.8265054 9.57446589,39.1081832 L9.54882582,39.4111809 C9.50602571,39.9618214 9.91771167,40.4429 10.4683521,40.4857002 C10.5221128,40.4898789 10.5761233,40.4897025 10.6298555,40.4851727 C13.0749622,40.2790445 14.4940364,39.7634643 14.8870782,38.9384321 C14.9610466,39.2805645 15,39.6357332 15,40 C15,41.8409492 13.6666667,43.1742825 11,44 L6.69316312,44.4342137 C6.62913885,44.4406686 6.564641,44.4409287 6.50056677,44.4349902 C5.95063883,44.3840225 5.54615166,43.8969003 5.59711939,43.3469724 L6,39 C6.8257175,36.3333333 8.15905083,35 10,35 Z M39.9887104,5.78272724 L39.4414099,5.97090845 L39.4414099,5.97090845 L38.3809161,6.34437181 C38.0350084,6.46820572 37.6966981,6.59137932 37.3660071,6.71387331 L36.3968136,7.07929714 C35.4505214,7.44264353 34.5729981,7.79969974 33.7648313,8.14994469 L32.979805,8.49789992 C31.8370092,9.01636924 30.850706,9.51912243 30.022878,10.0044009 C27.708982,11.3608227 24.8261631,13.7282991 21.4310848,17.0935881 L20.6064597,17.9204087 C20.3283255,18.202397 20.0469419,18.4907646 19.7623378,18.7855046 C18.0673607,20.5408502 15.9430259,21.8227004 13.599939,22.5039742 C12.1811334,22.9165048 11.0299401,23.3352125 10.1586577,23.7467057 C9.46141301,24.0760037 9.01553558,24.3662501 8.82842712,24.5533586 C8.6567957,24.72499 8.44243753,25.0058218 8.18979187,25.3913039 L7.96396546,25.7472397 L7.96396546,25.7472397 L7.72000723,26.1537959 C7.67787105,26.2257383 7.63500526,26.2997633 7.59142281,26.3758578 L7.32143167,26.8571509 L7.32143167,26.8571509 L8.4258689,26.5559403 C11.0899921,25.8293613 13.8386995,27.4000512 14.5652785,30.0641744 C14.6809047,30.4881371 14.7401347,30.9254928 14.7414376,31.364938 L14.7439885,31.3762292 L14.7439885,31.3762292 L14.786912,31.4557216 L14.786912,31.4557216 L14.8510777,31.5470481 L14.8510777,31.5470481 L14.949431,31.6693345 C14.9689459,31.6923096 14.9900905,31.7165852 15.0129674,31.7421666 L15.1718389,31.9113665 L15.1718389,31.9113665 L15.3772138,32.1121578 C15.45397,32.1843815 15.5392979,32.2619125 15.6340184,32.344793 C16.4219533,33.034236 16.9663648,33.2747382 17.3623053,33.2743817 L17.4449119,33.2706945 C20.195232,33.0235749 22.625137,35.0528199 22.8722566,37.80314 C22.8980385,38.0900804 22.8989722,38.3787122 22.875047,38.6658143 L22.6105106,41.8402424 C23.6526746,40.9459583 24.7476664,39.8761578 25.8898292,38.6284099 C26.2711263,38.0401329 26.6522854,36.6846899 26.8534959,34.6154561 C27.1234675,31.839112 28.162252,29.1930451 29.8531492,26.9745247 C30.6308421,25.9541625 31.3560666,24.9682206 32.0288059,24.0173063 L32.6840496,23.0780906 C34.8098745,19.986441 36.3524703,17.2862387 37.3112225,14.9999834 C38.3501396,12.5225657 39.2467471,9.44705302 39.9887104,5.78272724 Z M30.5,12 C32.9852814,12 35,14.0147186 35,16.5 C35,18.9852814 32.9852814,21 30.5,21 C28.0147186,21 26,18.9852814 26,16.5 C26,14.0147186 28.0147186,12 30.5,12 Z" transform="translate(5 4)"/>
</svg>
