<svg xmlns="http://www.w3.org/2000/svg" width="56" height="56" viewBox="0 0 56 56"><path d="M 27.9999 51.9063 C 41.0546 51.9063 51.9063 41.0781 51.9063 28 C 51.9063 14.9453 41.0312 4.0937 27.9765 4.0937 C 14.8983 4.0937 4.0937 14.9453 4.0937 28 C 4.0937 41.0781 14.9218 51.9063 27.9999 51.9063 Z M 16.5390 25.3984 C 16.5390 20.4531 20.5936 16.3984 25.5624 16.3984 C 30.5077 16.3984 34.5624 20.4531 34.5624 25.3984 C 34.5624 27.3437 33.9530 29.1250 32.8983 30.5781 L 38.7577 36.4375 C 39.0858 36.7656 39.2968 37.2109 39.2968 37.6563 C 39.2968 38.6406 38.6171 39.3203 37.7030 39.3203 C 37.1640 39.3203 36.7187 39.1563 36.2733 38.7109 L 30.4843 32.9219 C 29.0780 33.8594 27.3671 34.4219 25.5624 34.4219 C 20.5936 34.4219 16.5390 30.3672 16.5390 25.3984 Z M 19.1405 25.3984 C 19.1405 28.9141 22.0468 31.8203 25.5624 31.8203 C 29.0312 31.8203 31.9374 28.9141 31.9374 25.3984 C 31.9374 21.9297 29.0312 19.0234 25.5624 19.0234 C 22.0468 19.0234 19.1405 21.9297 19.1405 25.3984 Z"/></svg>