<svg xmlns="http://www.w3.org/2000/svg" width="56" height="56" viewBox="0 0 56 56"><path d="M 20.7696 49.7500 L 35.2305 49.7500 C 38.5118 49.7500 40.2696 47.8281 40.2696 44.7344 L 40.2696 34.2344 L 49.8086 34.2344 C 51.7070 34.2344 53.2070 33.0625 53.2070 31.2813 C 53.2070 30.1797 52.6679 29.3594 51.8011 28.5156 L 30.8946 7.6797 C 30.0040 6.7656 29.0430 6.2500 28.0118 6.2500 C 26.9571 6.2500 26.0196 6.7656 25.1055 7.6797 L 4.1993 28.5156 C 3.3087 29.4063 2.7930 30.1797 2.7930 31.2813 C 2.7930 33.0625 4.2930 34.2344 6.2149 34.2344 L 15.7305 34.2344 L 15.7305 44.7344 C 15.7305 47.8281 17.4884 49.7500 20.7696 49.7500 Z M 21.1446 46.1172 C 20.2540 46.1172 19.6446 45.5078 19.6446 44.6406 L 19.6446 31.4922 C 19.6446 30.9063 19.4336 30.6953 18.8711 30.6953 L 8.0665 30.6953 C 7.9024 30.6953 7.8087 30.6250 7.8087 30.5078 C 7.8087 30.4141 7.8321 30.3437 7.9493 30.2266 L 27.5196 10.7735 C 27.6836 10.5859 27.8477 10.5391 28.0118 10.5391 C 28.1758 10.5391 28.3165 10.5859 28.5040 10.7735 L 48.0743 30.2266 C 48.1679 30.3437 48.2150 30.4141 48.2150 30.5078 C 48.2150 30.6250 48.1214 30.6953 47.9572 30.6953 L 37.1289 30.6953 C 36.5665 30.6953 36.3555 30.9063 36.3555 31.4922 L 36.3555 44.6406 C 36.3555 45.4844 35.7227 46.1172 34.8555 46.1172 Z"/></svg>