<svg xmlns="http://www.w3.org/2000/svg" width="56" height="56" viewBox="0 0 56 56"><path d="M 20.7696 49.7500 L 35.2305 49.7500 C 38.5118 49.7500 40.2696 47.8281 40.2696 44.7344 L 40.2696 34.2344 L 49.8086 34.2344 C 51.7070 34.2344 53.2070 33.0625 53.2070 31.2813 C 53.2070 30.1797 52.6679 29.3594 51.8011 28.5156 L 30.8946 7.6797 C 30.0040 6.7656 29.0430 6.2500 28.0118 6.2500 C 26.9571 6.2500 26.0196 6.7656 25.1055 7.6797 L 4.1993 28.5156 C 3.3087 29.4063 2.7930 30.1797 2.7930 31.2813 C 2.7930 33.0625 4.2930 34.2344 6.2149 34.2344 L 15.7305 34.2344 L 15.7305 44.7344 C 15.7305 47.8281 17.4884 49.7500 20.7696 49.7500 Z"/></svg>