<svg xmlns="http://www.w3.org/2000/svg" width="56" height="56" viewBox="0 0 56 56"><path d="M 17.7813 41.5703 C 18.4844 41.5703 19.0235 40.9609 19.0235 40.1172 L 19.0000 34.7969 L 21.1562 33.5547 L 27.0157 29.6875 L 26.6172 36.6953 L 26.6172 39.1797 L 21.9766 41.8047 C 21.2266 42.2266 20.9922 43 21.3672 43.6094 C 21.7657 44.3359 22.5157 44.4297 23.2422 44.0078 L 26.6172 42.0859 L 26.6172 46.3281 C 26.6172 47.1953 27.1797 47.8047 28.0000 47.8047 C 28.8672 47.8047 29.3828 47.1953 29.3828 46.3281 L 29.3828 42.0859 L 32.7344 44.0078 C 33.4609 44.4297 34.2109 44.3359 34.6328 43.6328 C 35.0078 43 34.7500 42.2266 34.0000 41.8047 L 29.3828 39.1797 L 29.3828 36.6953 L 28.9844 29.6875 L 34.8438 33.5313 L 37.0000 34.7734 L 36.9531 40.1172 C 36.9531 40.9609 37.4922 41.5703 38.2188 41.5703 C 39.0625 41.5703 39.5078 40.9375 39.5078 40.1172 L 39.5078 36.2500 L 43.2109 38.3828 C 43.9609 38.8047 44.7344 38.6406 45.1328 37.8906 C 45.5547 37.1875 45.3203 36.3672 44.5938 35.9687 L 40.8906 33.8360 L 44.2422 31.8906 C 44.9688 31.4687 45.2735 30.7656 44.8516 30.0625 C 44.4766 29.4297 43.7266 29.2422 42.9766 29.6875 L 38.3828 32.3828 L 36.2266 31.1406 L 29.9453 28.0000 L 36.2266 24.8594 L 38.3828 23.5938 L 42.9766 26.2891 C 43.7031 26.7344 44.5000 26.5469 44.8750 25.9375 C 45.2735 25.2109 44.9688 24.5078 44.2422 24.0860 L 40.9141 22.1406 L 44.5938 20.0313 C 45.3438 19.5860 45.5781 18.8360 45.1328 18.0860 C 44.7344 17.3828 43.9609 17.1719 43.2109 17.6172 L 39.5078 19.7500 L 39.4844 15.8594 C 39.4844 15.0391 39.0625 14.4062 38.2188 14.4297 C 37.4922 14.4297 36.9531 15.0156 36.9531 15.8594 L 37.0000 21.2031 L 34.8438 22.4453 L 28.9844 26.2891 L 29.3828 19.2813 L 29.3828 16.7969 L 34.0000 14.1719 C 34.7500 13.7500 35.0078 12.9765 34.6328 12.3672 C 34.2109 11.6406 33.4609 11.5469 32.7344 11.9687 L 29.3828 13.8906 L 29.3828 9.6484 C 29.3828 8.7813 28.8672 8.1953 28.0000 8.1953 C 27.1797 8.1953 26.6172 8.7813 26.6172 9.6484 L 26.6172 13.8906 L 23.2422 11.9687 C 22.5157 11.5703 21.7657 11.6406 21.3672 12.3672 C 20.9922 12.9765 21.2266 13.7500 21.9766 14.1719 L 26.6172 16.7969 L 26.6172 19.2813 L 27.0157 26.3125 L 21.1562 22.4453 L 19.0000 21.1797 L 19.0235 15.8594 C 19.0235 15.0156 18.4844 14.4297 17.7813 14.4297 C 16.9375 14.4297 16.4922 15.0391 16.4922 15.8594 L 16.4688 19.7265 L 12.7891 17.6172 C 12.0625 17.1953 11.2657 17.3828 10.8672 18.0860 C 10.4219 18.8360 10.6797 19.6094 11.4062 20.0313 L 15.0860 22.1406 L 11.7578 24.0860 C 11.0313 24.5078 10.7031 25.1875 11.1250 25.9375 C 11.4766 26.5469 12.2969 26.7344 13.0235 26.2891 L 17.6172 23.6172 L 19.7735 24.8594 L 26.0547 28.0000 L 19.7735 31.1406 L 17.6172 32.3828 L 13.0235 29.6875 C 12.2735 29.2422 11.5000 29.4297 11.1484 30.0391 C 10.7500 30.7891 11.0313 31.4687 11.7578 31.8906 L 15.0860 33.8360 L 11.4062 35.9687 C 10.6797 36.3672 10.4453 37.1875 10.8672 37.8906 C 11.2891 38.6406 12.0625 38.7813 12.7891 38.3828 L 16.4688 36.2500 L 16.4922 40.1172 C 16.4922 40.9375 16.9375 41.5703 17.7813 41.5703 Z"/></svg>