<svg width="100%" height="100%" viewBox="0 0 56 56" version="1.1" xmlns="http://www.w3.org/2000/svg">
    <g transform="matrix(1,0,0,1,0,0.5)">
        <path d="M9.505,19C9.636,15.942 12.16,13.5 15.25,13.5L40.75,13.5C43.84,13.5 46.364,15.942 46.495,19L48,19C49.656,19 51,20.344 51,22C51,22 51,36 51,36C51,37.656 49.656,39 48,39L47.5,39L47.5,40C47.5,40.828 46.828,41.5 46,41.5C45.172,41.5 44.5,40.828 44.5,40L44.5,39L11.5,39L11.5,40C11.5,40.828 10.828,41.5 10,41.5C9.172,41.5 8.5,40.828 8.5,40L8.5,39L8,39C6.344,39 5,37.656 5,36L5,22C5,20.344 6.344,19 8,19L9.505,19ZM11,31.03L11,23.47C11,22.659 10.344,22.002 9.533,22C9.513,22 9.493,22 9.473,22C9.083,21.999 8.708,22.154 8.432,22.43C8.155,22.705 8,23.08 8,23.47C8,26.159 8,31.841 8,34.53C8,35.342 8.658,36 9.47,36C15.744,36 40.254,36 46.53,36C46.92,36 47.294,35.845 47.569,35.569C47.845,35.294 48,34.92 48,34.53C48,31.841 48,26.159 48,23.47C48,22.658 47.342,22 46.53,22C46.51,22 46.49,22 46.47,22C45.658,22 45,22.658 45,23.47C45,26.022 45,31 45,31L45,31C44.989,31.435 44.791,31.844 44.455,32.122L44.412,32.157C44.154,32.369 43.834,32.49 43.501,32.499L43.5,32.5L12.47,32.5C12.08,32.5 11.706,32.345 11.431,32.069C11.155,31.794 11,31.42 11,31.03ZM43.5,19.402L43.5,19.25C43.5,17.732 42.268,16.5 40.75,16.5C40.75,16.5 15.25,16.5 15.25,16.5C13.732,16.5 12.5,17.732 12.5,19.25L12.5,19.402C13.137,19.771 13.627,20.368 13.856,21.08L13.868,21.117L13.881,21.161L13.891,21.197L13.902,21.236L13.911,21.271L13.919,21.307L13.928,21.343L13.936,21.379L13.943,21.416L13.95,21.453L13.957,21.49L13.963,21.527L13.968,21.564L13.974,21.601L13.978,21.639L13.983,21.676L13.987,21.714L13.99,21.752L13.993,21.79L13.995,21.829L13.997,21.867L13.999,21.905L13.999,21.944L14,21.987L14,22L14,29.5L42,29.5L42,22L42,21.974L42.001,21.935L42.002,21.896L42.003,21.858L42.005,21.819L42.008,21.781L42.011,21.743L42.014,21.705L42.018,21.667L42.023,21.629L42.028,21.591L42.033,21.554L42.039,21.516L42.045,21.479L42.054,21.431L42.061,21.394L42.069,21.357L42.077,21.321L42.086,21.284L42.095,21.247L42.107,21.205L42.116,21.173L42.122,21.15L42.133,21.115L42.144,21.08C42.373,20.368 42.863,19.771 43.5,19.402Z"/>
    </g>
</svg>
