<svg xmlns="http://www.w3.org/2000/svg" width="56" height="56" viewBox="0 0 56 56">
  <path d="M24,3.42857143 C12.6387137,3.42857143 3.42857143,12.6387137 3.42857143,24 C3.42857143,35.3612863 12.6387137,44.5714286 24,44.5714286 C35.3612863,44.5714286 44.5714286,35.3612863 44.5714286,24 C44.5714286,12.6387137 35.3612863,3.42857143 24,3.42857143 Z M24,0 C37.254834,0 48,10.745166 48,24 C48,37.254834 37.254834,48 24,48 C10.745166,48 0,37.254834 0,24 C0,10.745166 10.745166,0 24,0 Z M23.7813,30.6953 L39.3516,30.6953 C40.3828,30.6953 41.1094,31.3516 41.1094,32.3359 C41.1094,33.3437 40.3828,34 39.3516,34 L23.7813,34 C22.75,34 22,33.3437 22,32.3359 C22,31.3516 22.75,30.6953 23.7813,30.6953 Z M26.7188,22.9375 L39.3516,22.9375 C40.3829,22.9375 41.1094,23.5937 41.1094,24.5781 C41.1094,25.5859 40.3829,26.2422 39.3516,26.2422 L26.7188,26.2422 C25.6876,26.2422 24.961,25.5859 24.961,24.5781 C24.961,23.5937 25.6876,22.9375 26.7188,22.9375 Z M29.9609,15.1798 L39.3281,15.1798 C40.3594,15.1798 41.1094,15.836 41.1094,16.8204 C41.1094,17.8282 40.3594,18.4844 39.3281,18.4844 L29.9609,18.4844 C28.9297,18.4844 28.1797,17.8282 28.1797,16.8204 C28.1797,15.836 28.9297,15.1798 29.9609,15.1798 Z M16.197284,9.8594 C16.712884,9.8594 17.087884,10.0469 17.556684,10.5157 L25.525384,18.4375 C25.830084,18.7422 25.970684,19.1641 25.970684,19.6563 C25.970684,20.6172 25.244184,21.3438 24.283184,21.3438 C23.790984,21.3438 23.345784,21.1563 23.040984,20.8282 L20.134784,17.8985 L17.767584,15.086 L17.955084,20.0313 L17.955084,35.2422 C17.955084,36.2735 17.228484,37 16.197284,37 C15.189484,37 14.439484,36.2735 14.439484,35.2422 L14.439484,20.0313 L14.626984,15.0626 L12.259784,17.8985 L9.353584,20.8282 C9.048884,21.1797 8.626984,21.3438 8.111384,21.3438 C7.150384,21.3438 6.400384,20.6172 6.400384,19.6563 C6.400384,19.1641 6.564484,18.7422 6.892584,18.4375 L14.814484,10.5157 C15.283184,10.0704 15.681684,9.8594 16.197284,9.8594 Z" transform="translate(4 4)"/>
</svg>
