<svg xmlns="http://www.w3.org/2000/svg" width="56" height="56" viewBox="0 0 56 56">
  <path d="M24,0 C37.254834,0 48,10.745166 48,24 C48,37.254834 37.254834,48 24,48 C10.745166,48 0,37.254834 0,24 C0,10.745166 10.745166,0 24,0 Z M24,3.42857143 C12.6387137,3.42857143 3.42857143,12.6387137 3.42857143,24 C3.42857143,35.3612863 12.6387137,44.5714286 24,44.5714286 C35.3612863,44.5714286 44.5714286,35.3612863 44.5714286,24 C44.5714286,12.6387137 35.3612863,3.42857143 24,3.42857143 Z M16.197284,11 C17.228484,11 17.955084,11.7265 17.955084,12.7578 L17.955084,27.9687 L17.767584,32.914 L20.134784,30.1015 L23.040984,27.1718 C23.345784,26.8437 23.790984,26.6562 24.283184,26.6562 C25.244184,26.6562 25.970684,27.3828 25.970684,28.3437 C25.970684,28.8359 25.830084,29.2578 25.525384,29.5625 L17.556684,37.4843 C17.087884,37.9531 16.712884,38.1406 16.197284,38.1406 C15.681684,38.1406 15.283184,37.9296 14.814484,37.4843 L6.892584,29.5625 C6.564484,29.2578 6.400384,28.8359 6.400384,28.3437 C6.400384,27.3828 7.150384,26.6562 8.111384,26.6562 C8.626984,26.6562 9.048884,26.8203 9.353584,27.1718 L12.259784,30.1015 L14.626984,32.9374 L14.439484,27.9687 L14.439484,12.7578 C14.439484,11.7265 15.189484,11 16.197284,11 Z M39.3281,29.5156 C40.3594,29.5156 41.1094,30.1718 41.1094,31.1796 C41.1094,32.1121895 40.4362698,32.7502172 39.4885308,32.8147946 L39.3281,32.8202 L29.9609,32.8202 C28.9297,32.8202 28.1797,32.164 28.1797,31.1796 C28.1797,30.2248421 28.8528302,29.5856476 29.8004841,29.5210088 L29.9609,29.5156 L39.3281,29.5156 Z M39.3516,21.7578 C40.3829,21.7578 41.1094,22.4141 41.1094,23.4219 C41.1094,24.3544895 40.4573612,24.9925172 39.5118424,25.0570946 L39.3516,25.0625 L26.7188,25.0625 C25.6876,25.0625 24.961,24.4063 24.961,23.4219 C24.961,22.4671421 25.6131285,21.8278579 26.5585718,21.7632096 L26.7188,21.7578 L39.3516,21.7578 Z M39.3516,14 C40.3828,14 41.1094,14.6563 41.1094,15.6641 C41.1094,16.5965947 40.4572715,17.2347072 39.5118282,17.2992938 L39.3516,17.3047 L23.7813,17.3047 C22.75,17.3047 22,16.6484 22,15.6641 C22,14.7093421 22.6731302,14.0700579 23.6208692,14.0054096 L23.7813,14 L39.3516,14 Z" transform="translate(4 4)"/>
</svg>
