<svg xmlns="http://www.w3.org/2000/svg" width="56" height="56" viewBox="0 0 56 56"><path d="M 27.4492 49.5039 C 29.0429 49.5039 30.1914 48.3320 30.1914 46.7617 L 30.1914 9.3789 C 30.1914 7.8086 29.0429 6.4961 27.4023 6.4961 C 26.2539 6.4961 25.5039 7.0586 24.2382 8.1836 L 13.2226 17.9570 C 13.0820 18.0977 12.8711 18.1680 12.6367 18.1680 L 5.6757 18.1680 C 2.3476 18.1680 .7070 19.8320 .7070 23.3711 L .7070 32.6992 C .7070 36.2383 2.3476 37.9024 5.6757 37.9024 L 12.6367 37.9024 C 12.8711 37.9024 13.0820 37.9726 13.2226 38.1133 L 24.2382 47.9805 C 25.3867 49.0117 26.3008 49.5039 27.4492 49.5039 Z M 47.6994 44.7227 C 48.6133 45.3320 49.7384 45.0977 50.3946 44.1602 C 53.4882 39.8477 55.2930 34.1055 55.2930 28.1055 C 55.2930 22.0820 53.5117 16.3398 50.3946 12.0273 C 49.7149 11.1133 48.6133 10.8789 47.6994 11.4883 C 46.8085 12.0977 46.6679 13.2461 47.3711 14.2539 C 49.9256 18.0039 51.5197 22.9258 51.5197 28.1055 C 51.5197 33.2851 49.9727 38.2539 47.3711 41.9570 C 46.6914 42.9648 46.8085 44.1133 47.6994 44.7227 Z M 26.0898 44.5586 C 25.9726 44.5586 25.8320 44.4883 25.6914 44.3477 L 15.3086 34.9961 C 14.7460 34.4805 14.2773 34.3633 13.6445 34.3633 L 5.8398 34.3633 C 4.9257 34.3633 4.4804 33.9414 4.4804 33.0039 L 4.4804 23.0664 C 4.4804 22.1524 4.9257 21.7070 5.8398 21.7070 L 13.6445 21.7070 C 14.2773 21.7070 14.7226 21.6133 15.3086 21.0742 L 25.6914 11.6524 C 25.8086 11.5586 25.9492 11.4648 26.0898 11.4648 C 26.3008 11.4648 26.4179 11.6055 26.4179 11.7929 L 26.4179 44.2070 C 26.4179 44.4180 26.3008 44.5586 26.0898 44.5586 Z M 38.3476 38.3945 C 39.1445 38.9570 40.2929 38.7695 40.9726 37.8555 C 42.8005 35.3945 43.9021 31.7851 43.9021 28.1055 C 43.9021 24.4258 42.7775 20.8398 40.9726 18.3320 C 40.2929 17.4180 39.1679 17.2305 38.3476 17.7929 C 37.3164 18.4726 37.1992 19.6680 37.9492 20.6992 C 39.3086 22.5273 40.1289 25.3164 40.1289 28.1055 C 40.1289 30.8945 39.2617 33.6836 37.9257 35.5351 C 37.2226 36.5429 37.3398 37.6914 38.3476 38.3945 Z"/></svg>