<svg xmlns="http://www.w3.org/2000/svg" width="56" height="56" viewBox="0 0 56 56"><path d="M 31.0069 49.1123 C 32.1023 49.1123 32.9965 48.6652 34.0696 47.6592 L 43.9506 38.2476 C 44.0848 38.1134 44.2858 38.0464 44.5096 38.0464 L 51.1492 38.0464 C 54.3010 38.0464 56 36.3250 56 32.9717 L 56 24.2978 C 56 20.9445 54.3010 19.2232 51.1492 19.2232 L 44.5096 19.2232 C 44.2858 19.2232 44.0848 19.1561 43.9506 19.0220 L 34.0696 9.6998 C 32.8847 8.5820 32.1470 8.0902 31.0516 8.0902 C 29.4867 8.0902 28.3913 9.3421 28.3913 10.8399 L 28.3913 46.4967 C 28.3913 47.9945 29.4867 49.1123 31.0069 49.1123 Z M 21.2152 23.1354 L 15.7382 23.1354 L 15.7382 23.0012 L 21.3494 15.6016 C 21.8635 14.9533 22.0424 14.5509 22.0424 14.1038 C 22.0424 13.3437 21.4611 12.8966 20.6563 12.8966 L 12.8991 12.8966 C 12.1613 12.8966 11.6024 13.3661 11.6024 14.1262 C 11.6024 14.9309 12.1613 15.4004 12.8991 15.4004 L 18.0855 15.4004 L 18.0855 15.5122 L 12.3849 22.9118 C 11.8707 23.5601 11.6918 23.9401 11.6918 24.4543 C 11.6918 25.1473 12.2508 25.6615 13.0555 25.6615 L 21.2152 25.6615 C 21.9530 25.6615 22.4895 25.1697 22.4895 24.3873 C 22.4895 23.6495 21.9530 23.1354 21.2152 23.1354 Z M 7.6232 32.3681 L 3.8004 32.3681 L 3.8004 32.2787 L 7.7797 27.0699 C 8.2268 26.4663 8.4280 26.0639 8.4280 25.6392 C 8.4280 24.9238 7.8467 24.4990 7.0867 24.4990 L 1.2072 24.4990 C .4918 24.4990 0 24.9685 0 25.6615 C 0 26.4440 .4918 26.8910 1.2072 26.8910 L 4.6499 26.8910 L 4.6499 26.9805 L .6930 32.1669 C .2683 32.7705 .1 33.1282 .1 33.6200 C .1 34.2907 .6036 34.7825 1.3413 34.7825 L 7.6232 34.7825 C 8.3385 34.7825 8.8527 34.3354 8.8527 33.5753 C 8.8527 32.8599 8.3385 32.3681 7.6232 32.3681 Z M 18.0408 40.8632 L 14.7769 40.8632 L 14.7769 40.7737 L 18.1302 36.2803 C 18.5996 35.6544 18.7785 35.3190 18.7785 34.9166 C 18.7785 34.2236 18.2420 33.7989 17.5266 33.7989 L 12.3402 33.7989 C 11.6695 33.7989 11.1777 34.2460 11.1777 34.9390 C 11.1777 35.6544 11.6695 36.0791 12.3402 36.0791 L 15.2017 36.0791 L 15.2017 36.1685 L 11.8707 40.6620 C 11.4459 41.2432 11.2448 41.5785 11.2448 42.0256 C 11.2448 42.6739 11.7589 43.1210 12.4519 43.1210 L 18.0408 43.1210 C 18.6891 43.1210 19.1809 42.6963 19.1809 41.9809 C 19.1809 41.3103 18.6891 40.8632 18.0408 40.8632 Z"/></svg>