<svg xmlns="http://www.w3.org/2000/svg" width="56" height="56" viewBox="0 0 56 56"><path d="M 25.5073 49.1122 C 27.0275 49.1122 28.1229 47.9945 28.1229 46.4967 L 28.1229 10.8401 C 28.1229 9.3423 27.0275 8.0904 25.4626 8.0904 C 24.3672 8.0904 23.6518 8.6269 22.4446 9.7000 L 11.9377 19.0221 C 11.8035 19.1562 11.6024 19.2233 11.3788 19.2233 L 4.7393 19.2233 C 1.5648 19.2233 0 20.8105 0 24.1861 L 0 33.0835 C 0 36.4592 1.5648 38.0464 4.7393 38.0464 L 11.3788 38.0464 C 11.6024 38.0464 11.8035 38.1134 11.9377 38.2476 L 22.4446 47.6591 C 23.5400 48.6428 24.4119 49.1122 25.5073 49.1122 Z M 24.2107 44.3953 C 24.0989 44.3953 23.9648 44.3282 23.8307 44.1941 L 13.9273 35.2744 C 13.3908 34.7825 12.9437 34.6707 12.3401 34.6707 L 4.8958 34.6707 C 4.0239 34.6707 3.5992 34.2683 3.5992 33.3742 L 3.5992 23.8955 C 3.5992 23.0237 4.0239 22.5989 4.8958 22.5989 L 12.3401 22.5989 C 12.9437 22.5989 13.3684 22.5095 13.9273 21.9953 L 23.8307 13.0086 C 23.9424 12.9191 24.0766 12.8297 24.2107 12.8297 C 24.4119 12.8297 24.5237 12.9638 24.5237 13.1427 L 24.5237 44.0599 C 24.5237 44.2611 24.4119 44.3953 24.2107 44.3953 Z M 54.7254 23.1355 L 49.2488 23.1355 L 49.2488 23.0013 L 54.8595 15.6017 C 55.3737 14.9534 55.5527 14.5510 55.5527 14.1039 C 55.5527 13.3439 54.9717 12.8967 54.1668 12.8967 L 46.4093 12.8967 C 45.6717 12.8967 45.1127 13.3662 45.1127 14.1263 C 45.1127 14.9311 45.6717 15.4006 46.4093 15.4006 L 51.5956 15.4006 L 51.5956 15.5123 L 45.8951 22.9119 C 45.3810 23.5602 45.2024 23.9402 45.2024 24.4544 C 45.2024 25.1474 45.7610 25.6616 46.5659 25.6616 L 54.7254 25.6616 C 55.4634 25.6616 56 25.1698 56 24.3874 C 56 23.6496 55.4634 23.1355 54.7254 23.1355 Z M 41.1336 32.3682 L 37.3109 32.3682 L 37.3109 32.2787 L 41.2902 27.0700 C 41.7371 26.4664 41.9385 26.0640 41.9385 25.6393 C 41.9385 24.9239 41.3571 24.4991 40.5971 24.4991 L 34.7176 24.4991 C 34.0023 24.4991 33.5105 24.9686 33.5105 25.6616 C 33.5105 26.4440 34.0023 26.8911 34.7176 26.8911 L 38.1604 26.8911 L 38.1604 26.9805 L 34.2035 32.1670 C 33.7787 32.7705 33.5775 33.1282 33.5775 33.6201 C 33.5775 34.2907 34.1141 34.7825 34.8518 34.7825 L 41.1336 34.7825 C 41.8488 34.7825 42.3629 34.3354 42.3629 33.5753 C 42.3629 32.8600 41.8488 32.3682 41.1336 32.3682 Z M 51.5512 40.8631 L 48.2873 40.8631 L 48.2873 40.7737 L 51.6405 36.2803 C 52.1102 35.6544 52.2888 35.3190 52.2888 34.9166 C 52.2888 34.2237 51.7522 33.7989 51.0371 33.7989 L 45.8507 33.7989 C 45.1800 33.7989 44.6883 34.2460 44.6883 34.9390 C 44.6883 35.6544 45.1800 36.0791 45.8507 36.0791 L 48.7122 36.0791 L 48.7122 36.1685 L 45.3810 40.6619 C 44.9566 41.2432 44.7551 41.5785 44.7551 42.0256 C 44.7551 42.6739 45.2693 43.1210 45.9624 43.1210 L 51.5512 43.1210 C 52.1995 43.1210 52.6912 42.6963 52.6912 41.9809 C 52.6912 41.3103 52.1995 40.8631 51.5512 40.8631 Z"/></svg>