<svg xmlns="http://www.w3.org/2000/svg" width="56" height="56" viewBox="0 0 56 56"><path d="M 27.9999 51.9063 C 41.0546 51.9063 51.9063 41.0781 51.9063 28 C 51.9063 14.9453 41.0312 4.0937 27.9765 4.0937 C 14.8983 4.0937 4.0937 14.9453 4.0937 28 C 4.0937 41.0781 14.9218 51.9063 27.9999 51.9063 Z M 27.9999 47.9219 C 16.9374 47.9219 8.1014 39.0625 8.1014 28 C 8.1014 16.9609 16.9140 8.0781 27.9765 8.0781 C 39.0155 8.0781 47.8983 16.9609 47.9219 28 C 47.9454 39.0625 39.0390 47.9219 27.9999 47.9219 Z M 27.9765 16.75 C 29.2187 16.75 30.2733 15.6953 30.2733 14.4531 C 30.2733 13.1641 29.2187 12.1328 27.9765 12.1328 C 26.6874 12.1328 25.6796 13.1641 25.6796 14.4531 C 25.6796 15.6953 26.6874 16.75 27.9765 16.75 Z M 18.4374 20.8750 C 19.7265 20.8750 20.7577 19.8203 20.7577 18.5781 C 20.7577 17.2890 19.7265 16.2812 18.4374 16.2812 C 17.1952 16.2812 16.1405 17.2890 16.1405 18.5781 C 16.1405 19.8203 17.1952 20.8750 18.4374 20.8750 Z M 37.4921 20.8750 C 38.7343 20.8750 39.7890 19.8203 39.7890 18.5781 C 39.7890 17.2890 38.7343 16.2812 37.4921 16.2812 C 36.2265 16.2812 35.1952 17.2890 35.1952 18.5781 C 35.1952 19.8203 36.2265 20.8750 37.4921 20.8750 Z M 27.9765 30.4375 C 29.2890 30.4375 30.4140 29.3359 30.4140 28 C 30.4140 27.8594 30.3905 27.7422 30.3671 27.6016 L 33.9999 23.0547 C 34.3280 22.6094 34.3983 22.0703 33.9999 21.7422 C 33.6952 21.4375 33.1327 21.3906 32.7343 21.7422 L 28.3514 25.6094 C 28.2343 25.5859 28.0936 25.5625 27.9765 25.5625 C 26.6171 25.5625 25.5390 26.6641 25.5390 28 C 25.5390 29.3359 26.6171 30.4375 27.9765 30.4375 Z M 14.4765 30.2968 C 15.7655 30.2968 16.7733 29.2656 16.7733 28 C 16.7733 26.7344 15.7655 25.7031 14.4765 25.7031 C 13.2343 25.7031 12.1796 26.7344 12.1796 28 C 12.1796 29.2656 13.2343 30.2968 14.4765 30.2968 Z M 41.4530 30.2968 C 42.7187 30.2968 43.7499 29.2656 43.7499 28 C 43.7499 26.7344 42.7187 25.7031 41.4530 25.7031 C 40.1874 25.7031 39.1562 26.7344 39.1562 28 C 39.1562 29.2656 40.1874 30.2968 41.4530 30.2968 Z M 18.4843 39.7422 C 19.7733 39.7422 20.8046 38.6875 20.8046 37.4219 C 20.8046 36.1563 19.7733 35.1250 18.4843 35.1250 C 17.2421 35.1250 16.1874 36.1563 16.1874 37.4219 C 16.1874 38.6875 17.2421 39.7422 18.4843 39.7422 Z M 37.4452 39.7422 C 38.6874 39.7422 39.7421 38.6875 39.7421 37.4219 C 39.7421 36.1563 38.6874 35.1250 37.4452 35.1250 C 36.1796 35.1250 35.1483 36.1563 35.1483 37.4219 C 35.1483 38.6875 36.1796 39.7422 37.4452 39.7422 Z"/></svg>