<svg xmlns="http://www.w3.org/2000/svg" width="56" height="56" viewBox="0 0 56 56"><path d="M 34.4335 26.0664 L 45.0976 26.0664 C 48.0976 26.0664 49.5743 24.5664 49.5743 21.4727 L 49.5743 10.9961 C 49.5743 7.9023 48.0976 6.4258 45.0976 6.4258 L 34.4335 6.4258 C 31.4570 6.4258 29.9570 7.9023 29.9570 10.9961 L 29.9570 21.4727 C 29.9570 24.5664 31.4570 26.0664 34.4335 26.0664 Z M 10.9023 26.0664 L 21.5898 26.0664 C 24.5663 26.0664 26.0663 24.5664 26.0663 21.4727 L 26.0663 10.9961 C 26.0663 7.9023 24.5663 6.4258 21.5898 6.4258 L 10.9023 6.4258 C 7.9257 6.4258 6.4257 7.9023 6.4257 10.9961 L 6.4257 21.4727 C 6.4257 24.5664 7.9257 26.0664 10.9023 26.0664 Z M 10.9023 49.5742 L 21.5898 49.5742 C 24.5663 49.5742 26.0663 48.0977 26.0663 45.0039 L 26.0663 34.5039 C 26.0663 31.4336 24.5663 29.9336 21.5898 29.9336 L 10.9023 29.9336 C 7.9257 29.9336 6.4257 31.4336 6.4257 34.5039 L 6.4257 45.0039 C 6.4257 48.0977 7.9257 49.5742 10.9023 49.5742 Z M 34.4335 49.5742 L 45.0976 49.5742 C 48.0976 49.5742 49.5743 48.0977 49.5743 45.0039 L 49.5743 34.5039 C 49.5743 31.4336 48.0976 29.9336 45.0976 29.9336 L 34.4335 29.9336 C 31.4570 29.9336 29.9570 31.4336 29.9570 34.5039 L 29.9570 45.0039 C 29.9570 48.0977 31.4570 49.5742 34.4335 49.5742 Z"/></svg>