<svg xmlns="http://www.w3.org/2000/svg" width="56" height="56" viewBox="0 0 56 56"><path d="M 7.3280 43.5039 C 7.7733 43.5039 8.2421 43.3633 8.7108 43.0352 L 8.7108 17.9570 C 8.7108 17.1133 8.8749 16.7852 9.6249 16.3867 L 31.3515 3.8711 C 31.4218 2.3242 30.4374 1.3633 29.1015 1.3633 C 28.4921 1.3633 27.8358 1.5274 27.1327 1.9492 L 7.4921 13.2461 C 5.1952 14.5820 4.9140 15.0039 4.9140 17.6758 L 4.9140 40.1055 C 4.9140 42.1211 5.8749 43.5039 7.3280 43.5039 Z M 16.7030 48.9180 C 17.1249 48.9180 17.5936 48.7773 18.0858 48.4492 L 18.0858 23.3711 C 18.0858 22.4570 18.2030 22.2226 18.9764 21.8008 L 40.7030 9.2617 C 40.7733 7.7383 39.8124 6.7539 38.4530 6.7539 C 37.8671 6.7539 37.1874 6.9414 36.5077 7.3164 L 16.8202 18.6367 C 14.5233 19.9492 14.2655 20.4414 14.2655 23.0664 L 14.2655 45.5195 C 14.2655 47.5352 15.2733 48.9180 16.7030 48.9180 Z M 26.7343 54.6367 C 27.5546 54.6367 28.5389 54.3086 29.7108 53.6523 L 48.0860 43.1055 C 50.2422 41.8633 51.0860 40.5742 51.0860 37.9492 L 51.0390 16.7148 C 51.0390 13.9023 50.0310 12.4726 48.2732 12.4726 C 47.5000 12.4726 46.5155 12.7774 45.4140 13.4101 L 26.9921 24.0274 C 24.7889 25.3164 24.0155 26.6289 24.0155 29.1836 L 24.0155 50.4179 C 24.0155 53.1367 24.9764 54.6367 26.7343 54.6367 Z"/></svg>