<svg xmlns="http://www.w3.org/2000/svg" width="56" height="56" viewBox="0 0 56 56">
  <path d="M35.0975,20.9883 C35.0975,21.9961 34.2538,22.8633 33.2694,22.8633 L9.1991,22.8633 L5.6835,22.6992 L7.371,24.293 L11.1444,27.8555 C11.5194,28.1836 11.7069,28.6758 11.7069,29.1445 C11.7069,30.1289 11.0038,30.8321 10.0663,30.8321 C9.5507,30.8321 9.1757,30.6211 8.8241,30.2695 L1.1835,22.3477 C0.7146,21.8789 0.5509,21.4805 0.5509,20.9883 C0.5509,20.5195 0.7146,20.0977 1.1835,19.6289 L8.8241,11.707 C9.1757,11.3555 9.5507,11.168 10.0663,11.168 C11.0038,11.168 11.7069,11.8945 11.7069,12.8789 C11.7069,13.3242 11.5194,13.8164 11.1444,14.1445 L7.371,17.6836 L5.7069,19.2774 L9.1991,19.1367 L33.2694,19.1367 C34.2538,19.1367 35.0975,19.9805 35.0975,20.9883 Z M53.4491,34.4414 C53.4491,39.3164 51.035,41.8008 46.1835,41.8008 L23.0741,41.8008 C18.2226,41.8008 15.8085,39.3164 15.8085,34.4414 L15.8085,27.9024 L19.5819,27.9024 L19.5819,34.3711 C19.5819,36.7148 20.8241,38.0274 23.2616,38.0274 L45.996,38.0274 C48.4335,38.0274 49.6757,36.7148 49.6757,34.3711 L49.6757,7.6055 C49.6757,5.3086 48.4335,3.9726 45.996,3.9726 L23.2616,3.9726 C20.8241,3.9726 19.5819,5.3086 19.5819,7.6055 L19.5819,14.0742 L15.8085,14.0742 L15.8085,7.5586 C15.8085,2.6367 18.246,0.1992 23.0741,0.1992 L46.1835,0.1992 C51.0116,0.1992 53.4491,2.6367 53.4491,7.5586 L53.4491,34.4414 Z" transform="translate(1 7)"/>
</svg>
