<svg xmlns="http://www.w3.org/2000/svg" width="56" height="56" viewBox="0 0 56 56"><path d="M 48.7772 9.9766 L 50.4649 8.2422 C 51.2852 7.4219 51.2852 6.2734 50.4880 5.5000 L 49.9489 4.9375 C 49.2227 4.2109 48.0740 4.3047 47.3008 5.0547 L 45.5897 6.7422 Z M 21.8007 34.3516 L 26.3710 32.3594 L 47.0665 11.6875 L 43.8554 8.5234 L 23.1835 29.1953 L 21.0741 33.6016 C 20.8866 34.0000 21.3554 34.5391 21.8007 34.3516 Z M 12.0741 51.7891 L 39.5897 51.7891 C 43.8085 51.7891 46.2460 49.3516 46.2460 44.5234 L 46.2460 18.4375 L 42.4726 22.2109 L 42.4726 44.3360 C 42.4726 46.7734 41.1601 48.0156 39.5429 48.0156 L 12.1444 48.0156 C 9.8007 48.0156 8.4882 46.7734 8.4882 44.3360 L 8.4882 17.7344 C 8.4882 15.2969 9.8007 14.0312 12.1444 14.0312 L 32.4179 14.0312 L 36.1913 10.2578 L 12.0741 10.2578 C 7.1992 10.2578 4.7148 12.6953 4.7148 17.5234 L 4.7148 44.5234 C 4.7148 49.3750 7.1992 51.7891 12.0741 51.7891 Z"/></svg>