<svg xmlns="http://www.w3.org/2000/svg" width="56" height="56" viewBox="0 0 56 56"><path d="M 9.6367 41.9453 L 13.9960 41.9453 L 13.9960 45.9766 C 13.9960 50.8047 16.4336 53.2422 21.3555 53.2422 L 46.3868 53.2422 C 51.2617 53.2422 53.7227 50.8047 53.7227 45.9766 L 53.7227 21.0625 C 53.7227 16.2578 51.2617 13.8203 46.3868 13.8203 L 42.0273 13.8203 L 42.0273 10.0234 C 42.0273 5.1953 39.5664 2.7578 34.6679 2.7578 L 9.6367 2.7578 C 4.7382 2.7578 2.2773 5.1953 2.2773 10.0234 L 2.2773 34.7031 C 2.2773 39.5312 4.7382 41.9453 9.6367 41.9453 Z M 9.7070 38.1719 C 7.3633 38.1719 6.0508 36.9297 6.0508 34.4922 L 6.0508 10.2344 C 6.0508 7.7969 7.3633 6.5312 9.7070 6.5312 L 34.6211 6.5312 C 36.9179 6.5312 38.2539 7.7969 38.2539 10.2344 L 38.2539 13.8203 L 21.3555 13.8203 C 16.4336 13.8203 13.9960 16.2344 13.9960 21.0625 L 13.9960 38.1719 Z M 21.4023 49.4687 C 19.0586 49.4687 17.7695 48.2031 17.7695 45.7656 L 17.7695 21.2734 C 17.7695 18.8359 19.0586 17.5937 21.4023 17.5937 L 46.3163 17.5937 C 48.6366 17.5937 49.9494 18.8359 49.9494 21.2734 L 49.9494 45.7891 C 49.9494 48.2031 48.6366 49.4687 46.3163 49.4687 Z"/></svg>