<svg xmlns="http://www.w3.org/2000/svg" width="56" height="56" viewBox="0 0 56 56"><path d="M 17.4531 53.7695 L 39.3906 53.7695 C 40.6094 53.7695 41.5234 52.9961 41.5234 51.8008 C 41.5234 50.6055 40.6094 49.8086 39.3906 49.8086 L 19.3984 49.8086 L 19.3984 49.5977 L 32.3828 30.0039 C 32.9922 29.0664 33.2500 28.5742 33.2500 27.8008 C 33.2500 26.9571 32.8515 26.2305 32.0547 25.0586 L 19.4218 6.4024 L 19.4218 6.1914 L 39.4140 6.1914 C 40.6328 6.1914 41.5469 5.4180 41.5469 4.2227 C 41.5469 3.0273 40.6328 2.2305 39.4140 2.2305 L 17.4766 2.2305 C 15.7187 2.2305 14.4766 3.3320 14.4766 4.9492 C 14.4766 5.8633 14.7109 6.5195 15.3672 7.5039 L 28.9140 27.6367 L 28.9140 27.8945 L 15.3437 48.4961 C 14.6875 49.4805 14.4531 50.1367 14.4531 51.0508 C 14.4531 52.6445 15.7187 53.7695 17.4531 53.7695 Z"/></svg>