<svg xmlns="http://www.w3.org/2000/svg" width="56" height="56" viewBox="0 0 56 56"><path d="M 17.7190 40.9846 L 32.9617 40.9846 C 33.8974 40.9846 34.4842 40.3977 34.4842 39.5172 C 34.4842 38.6368 33.8974 38.0315 32.9617 38.0315 L 20.7456 38.0315 L 20.7456 37.9398 L 27.9175 30.9145 C 32.2647 26.6773 33.5672 24.4762 33.5672 21.6698 C 33.5672 17.4510 29.8435 14.2410 24.8726 14.2410 C 20.9657 14.2410 17.6273 16.3688 16.5084 19.5971 C 16.3066 20.2024 16.1966 20.7343 16.1966 21.1929 C 16.1966 22.1100 16.7468 22.7153 17.6456 22.7153 C 18.5078 22.7153 18.8746 22.3118 19.1497 21.3947 C 19.2965 20.8261 19.4983 20.2941 19.7917 19.8355 C 20.7639 18.1847 22.5798 17.1575 24.8726 17.1575 C 27.8442 17.1575 30.2104 19.2486 30.2104 21.8532 C 30.2104 23.9627 29.3483 25.3750 25.7164 28.9702 L 17.1320 37.5546 C 16.3617 38.3066 16.1232 38.7835 16.1232 39.4439 C 16.1232 40.3977 16.7468 40.9846 17.7190 40.9846 Z M 46.3520 41.3882 C 51.9647 41.3882 56 38.1048 56 33.6292 C 56 29.9974 53.3956 27.6128 49.2134 27.3377 L 49.2134 27.2643 C 52.6983 26.6773 54.8629 24.3479 54.8629 21.0828 C 54.8629 17.1208 51.2678 14.2410 46.2603 14.2410 C 42.5000 14.2410 39.4369 15.9102 38.1345 18.6433 C 37.7859 19.3219 37.6390 19.9456 37.6390 20.6610 C 37.6390 21.5231 38.2261 22.1100 39.0698 22.1100 C 39.8952 22.1100 40.2806 21.7615 40.5556 20.9178 C 41.3445 18.5149 43.3621 17.1392 46.1502 17.1392 C 49.4335 17.1392 51.5428 18.8634 51.5428 21.5047 C 51.5428 24.2561 49.2866 26.0720 46.0034 26.0720 L 43.9857 26.0720 C 43.1236 26.0720 42.5368 26.6040 42.5368 27.4477 C 42.5368 28.2732 43.1236 28.8234 43.9857 28.8234 L 46.0402 28.8234 C 50.1123 28.8234 52.5334 30.5477 52.5334 33.6109 C 52.5334 36.4357 50.0022 38.4167 46.3704 38.4167 C 43.2152 38.4167 40.9410 37.0226 40.1153 34.6014 C 39.8403 33.8127 39.3816 33.4458 38.6112 33.4458 C 37.6574 33.4458 37.0338 34.0511 37.0338 35.0049 C 37.0338 35.6469 37.1991 36.2339 37.5473 36.8759 C 39.0698 39.7740 42.2614 41.3882 46.3520 41.3882 Z M 9.3547 41.3515 C 10.3636 41.3515 11.0423 40.6912 11.0423 39.6823 L 11.0423 16.2404 C 11.0423 15.0481 10.2902 14.3878 9.1346 14.3878 C 8.3092 14.3878 7.8323 14.6446 7.0619 15.1398 L .9538 19.1018 C .2384 19.5787 0 20.0006 0 20.6059 C 0 21.3580 .5503 21.9083 1.3757 21.9083 C 1.8526 21.9083 2.0911 21.7615 2.4396 21.5414 L 7.6489 18.2581 L 7.7222 18.2581 L 7.7222 39.6823 C 7.7222 40.6912 8.3459 41.3515 9.3547 41.3515 Z"/></svg>