<svg xmlns="http://www.w3.org/2000/svg" width="56" height="56" viewBox="0 0 56 56"><path d="M 18.3319 54.9766 C 25.0819 54.9766 30.5663 49.4922 30.5663 42.7422 C 30.5663 39.1797 29.0898 36.0625 26.3007 33.5313 C 25.7851 33.0625 25.6679 32.8047 25.6679 32.1016 L 25.6913 25.1641 L 32.8866 20.9219 L 32.8163 29.0313 L 28.8554 31.3282 C 28.1991 31.7031 27.9179 32.3594 28.2695 33.0156 C 28.6210 33.6016 29.3476 33.7187 29.9570 33.3906 L 32.7929 31.7500 L 32.7695 35.3594 C 32.7695 36.1562 33.2382 36.7656 34.0351 36.7656 C 34.8319 36.7656 35.3241 36.1328 35.3241 35.3594 L 35.2773 31.7734 L 38.0898 33.3906 C 38.6991 33.7422 39.4257 33.6016 39.7538 33.0156 C 40.1288 32.3594 39.8476 31.7266 39.1913 31.3282 L 35.2538 29.0313 L 35.2070 20.9219 L 42.1444 25.0000 L 42.1444 29.5703 C 42.1444 30.2969 42.5898 30.8594 43.3163 30.8828 C 43.9960 30.8828 44.4648 30.2969 44.4648 29.6406 L 44.4882 26.3828 L 47.6288 28.2109 C 48.3319 28.6328 49.1288 28.5156 49.5273 27.8594 C 49.9259 27.1797 49.6210 26.4297 48.9179 26.0313 L 45.7070 24.2266 L 48.5429 22.5860 C 49.1522 22.2344 49.3866 21.5313 49.0585 20.9453 C 48.7070 20.3125 47.9804 20.1953 47.3241 20.5938 L 43.3398 22.8672 L 36.3788 18.9062 L 43.4101 14.9219 L 47.3944 17.2187 C 48.0273 17.5703 48.7304 17.4766 49.1288 16.8438 C 49.4570 16.2578 49.1991 15.5547 48.6132 15.2266 L 45.7773 13.5625 L 48.9413 11.7813 C 49.6679 11.3828 49.9259 10.6562 49.5273 9.9531 C 49.1522 9.2969 48.3554 9.1562 47.7226 9.5313 L 44.5351 11.4062 L 44.5351 8.1719 C 44.5351 7.4453 44.0663 6.9062 43.3866 6.9062 C 42.6366 6.9062 42.2148 7.4453 42.2148 8.2422 L 42.1913 12.7891 L 35.2070 16.8906 L 35.2538 8.7344 L 39.2148 6.4375 C 39.8710 6.0391 40.1288 5.3828 39.7773 4.7500 C 39.4491 4.1641 38.7226 4.0234 38.1132 4.3750 L 35.2773 5.9922 L 35.3241 2.4531 C 35.3241 1.6562 34.8319 1.0234 34.0351 1.0234 C 33.2617 1.0234 32.7695 1.6562 32.7695 2.4531 L 32.7929 5.9922 L 29.9804 4.3750 C 29.3476 4.0234 28.6444 4.1641 28.2929 4.7500 C 27.9413 5.3828 28.1991 6.0391 28.8554 6.4375 L 32.8163 8.7344 L 32.8866 16.8906 L 25.7148 12.6484 L 25.7148 11.0547 C 25.7148 6.1562 22.7382 2.8984 18.3319 2.8984 C 13.9022 2.8984 10.9257 6.1562 10.9257 11.0547 L 10.9491 32.1016 C 10.9491 32.8047 10.8319 33.0625 10.3398 33.5313 C 7.5273 36.0625 6.0741 39.1797 6.0741 42.7422 C 6.0741 49.4922 11.5351 54.9766 18.3319 54.9766 Z M 18.3319 51.5782 C 13.4570 51.5782 9.4960 47.5938 9.4960 42.7422 C 9.4960 39.8125 10.8788 37.1641 13.3632 35.5000 C 14.0898 35.0078 14.3710 34.5625 14.3710 33.6016 L 14.3710 11.1953 C 14.3710 8.125 15.9882 6.1562 18.3319 6.1562 C 20.6522 6.1562 22.2460 8.125 22.2460 11.1953 L 22.2460 33.6016 C 22.2460 34.5625 22.5273 35.0078 23.2538 35.5000 C 25.7382 37.1641 27.1210 39.8125 27.1210 42.7422 C 27.1210 47.5938 23.1835 51.5782 18.3319 51.5782 Z M 31.7148 18.9062 L 25.6913 22.2813 L 25.6913 15.5078 Z M 18.3085 48.4141 C 21.4491 48.4141 23.9804 45.8828 23.9804 42.7188 C 23.9804 40.5156 22.7382 38.7109 20.9335 37.7266 C 20.1835 37.3282 19.9257 37.0469 19.9257 35.8984 L 19.9257 31.3047 C 19.9257 30.0860 19.2226 29.3360 18.3085 29.3360 C 17.4179 29.3360 16.6913 30.0860 16.6913 31.3047 L 16.6913 35.8984 C 16.6913 37.0469 16.4335 37.3282 15.6835 37.7266 C 13.8788 38.7109 12.6366 40.5156 12.6366 42.7188 C 12.6366 45.8828 15.1679 48.4141 18.3085 48.4141 Z"/></svg>