<svg xmlns="http://www.w3.org/2000/svg" width="56" height="56" viewBox="0 0 56 56">
  <path fill-rule="evenodd" d="M49.3364121,8.76804098 L50.487971,13.0656825 C50.8028703,14.2409026 50.4230818,15.4866034 49.521485,16.2864321 L49.3664169,16.4155199 C47.831807,17.6135413 47.0769885,19.654274 47.6126115,21.6532461 C48.1328079,23.5946455 49.7268074,24.9615677 51.5843799,25.2862259 L51.7998388,25.3190344 C53.0358272,25.4795994 54.0528507,26.3699635 54.3754361,27.5738684 L55.5480691,31.9502608 C56.1198364,34.0841252 54.8535064,36.277473 52.719642,36.8492403 L12.1507573,47.7196402 C10.0168929,48.2914074 7.82354508,47.0250775 7.25177783,44.8912131 L6.14851996,40.7737356 C5.81250874,39.5197246 6.20239676,38.1894365 7.14649855,37.3154382 L7.30895102,37.1740881 C8.78477916,35.9676799 9.50095891,33.9667546 8.97557842,32.0060079 C8.44932642,30.0420087 6.8241255,28.6659396 4.93883222,28.3621146 C3.5932034,28.1452594 2.50030308,27.1585309 2.14753518,25.8419832 L1.04012075,21.7089932 C0.468353503,19.5751288 1.73468346,17.381781 3.86854787,16.8100137 L44.4374326,5.93961385 C46.571297,5.36784661 48.7646448,6.63417656 49.3364121,8.76804098 Z M45.1710065,9.37518522 L4.95103944,20.1520907 C4.39571758,20.3008888 4.06616492,20.8716907 4.21496296,21.4270126 L5.00611131,24.3796184 C8.45668905,25.0750864 11.27408,27.6620128 12.2061084,31.1403899 C13.1380469,34.618432 11.9919641,38.2674875 9.35112571,40.5953723 L10.1422621,43.5479942 C10.291058,44.1033166 10.8618587,44.4328714 11.4171812,44.2840755 L51.6371495,33.5071593 C52.1924698,33.3583616 52.5220225,32.7875622 52.373227,32.2322412 L51.5821207,29.2797327 C48.1379413,28.5860024 45.3155226,26.002513 44.3820816,22.5188639 C43.4491044,19.0369458 44.5996575,15.3881946 47.2370674,13.0638006 L46.4459278,10.1112596 C46.2971289,9.55593889 45.7263276,9.22638739 45.1710065,9.37518522 Z M43.8876089,30.933567 C44.3164343,32.5339653 43.3666868,34.1789762 41.7662885,34.6078016 C40.1658902,35.036627 38.5208794,34.0868796 38.0920539,32.4864813 C37.6632285,30.886083 38.612976,29.2410721 40.2133743,28.8122467 C41.8137726,28.3834212 43.4587834,29.3331687 43.8876089,30.933567 Z M41.8170565,23.2061604 C42.245882,24.8065587 41.2961345,26.4515696 39.6957362,26.880395 C38.0953379,27.3092204 36.450327,26.359473 36.0215016,24.7590747 C35.5926761,23.1586763 36.5424236,21.5136655 38.1428219,21.08484 C39.7432202,20.6560146 41.3882311,21.6057621 41.8170565,23.2061604 Z M39.7465042,15.4787538 C40.1753296,17.0791521 39.2255821,18.724163 37.6251838,19.1529884 C36.0247855,19.5818138 34.3797746,18.6320664 33.9509492,17.031668 C33.5221238,15.4312697 34.4718712,13.7862589 36.0722695,13.3574334 C37.6726679,12.928608 39.3176787,13.8783555 39.7465042,15.4787538 Z M29.3826032,2.34667192 L31.9345946,5.99127759 C31.9722374,6.04503706 32.008051,6.09968053 32.0420331,6.15512259 L7.62676852,12.697173 L23.8116893,1.36436949 C25.62131,0.0972594133 28.1154931,0.537051192 29.3826032,2.34667192 Z" transform="translate(0 4)"/>
</svg>
