<svg xmlns="http://www.w3.org/2000/svg" width="56" height="56" viewBox="0 0 56 56">
  <path d="M46,0 C48.209139,0 50.0000171,1.790861 50.0000171,4 L50.0000171,8.44924833 C50.0000171,9.6659257 49.3107513,10.7708838 48.2328639,11.3101086 L48.0496693,11.3946633 C46.2572792,12.1546768 45,13.9305117 45,16 C45,18.0098846 46.1858999,19.7427874 47.8961494,20.5371583 L48.0957752,20.6246137 C49.248091,21.0996049 50.0000171,22.2228557 50.0000171,23.4692297 L50.0000171,28 C50.0000171,30.209139 48.209139,32 46,32 L4,32 C1.790861,32 -1.63137644e-05,30.209139 -1.63137644e-05,28 L-1.63137644e-05,23.737278 C-1.63137644e-05,22.4354241 0.724930543,21.248404 1.86855675,20.6501298 L2.05256398,20.5606272 C3.79034591,19.7772988 5,18.0299143 5,16 C5,14.0449215 3.87789327,12.3519251 2.24257429,11.5299053 L2.04391157,11.4354826 C0.800260191,10.8777422 -1.63137644e-05,9.64177216 -1.63137644e-05,8.27878167 L-1.63137644e-05,4 C-1.63137644e-05,1.790861 1.790861,0 4,0 L46,0 Z M45.962103,3.45023554 L4.03791186,3.45023554 C3.48562711,3.45023554 3.03791186,3.89795079 3.03791186,4.45023554 L3.03791186,7.56703704 C6.20558681,9.13916512 8.26698038,12.3821606 8.26698038,16 C8.26698038,19.6174909 6.20595738,22.8606024 3.03791186,24.4329505 L3.03791186,27.5497645 C3.03791186,28.1020492 3.48562711,28.5497645 4.03791186,28.5497645 L45.962103,28.5497645 C46.5143878,28.5497645 46.962103,28.1020492 46.962103,27.5497645 L46.962103,24.4330683 C43.8001853,22.8642903 41.7330189,19.6233228 41.7330189,16 C41.7330189,12.3784777 43.7983008,9.1368239 46.962103,7.56697183 L46.962103,4.45023554 C46.962103,3.89795079 46.5143878,3.45023554 45.962103,3.45023554 Z M36,21 C37.6568542,21 39,22.3431458 39,24 C39,25.6568542 37.6568542,27 36,27 C34.3431458,27 33,25.6568542 33,24 C33,22.3431458 34.3431458,21 36,21 Z M36,13 C37.6568542,13 39,14.3431458 39,16 C39,17.6568542 37.6568542,19 36,19 C34.3431458,19 33,17.6568542 33,16 C33,14.3431458 34.3431458,13 36,13 Z M36,5 C37.6568542,5 39,6.34314575 39,8 C39,9.65685425 37.6568542,11 36,11 C34.3431458,11 33,9.65685425 33,8 C33,6.34314575 34.3431458,5 36,5 Z" transform="translate(3 12)"/>
</svg>
