<svg xmlns="http://www.w3.org/2000/svg" width="56" height="56" viewBox="0 0 56 56"><path d="M 27.9882 1.5742 C 27.2148 1.5742 26.6054 2.2071 26.6054 2.9805 L 26.6054 11.6758 C 26.6054 12.4727 27.2148 13.0820 27.9882 13.0820 C 28.7851 13.0820 29.3944 12.4727 29.3944 11.6758 L 29.3944 2.9805 C 29.3944 2.2071 28.7851 1.5742 27.9882 1.5742 Z M 21.0741 2.2071 C 20.3007 2.3711 19.8788 3.0508 20.0898 3.9414 L 20.8632 6.8945 C 21.0741 7.6211 21.8241 8.0196 22.6913 7.7617 C 23.5117 7.5039 23.8163 6.8477 23.6054 6.0977 L 22.7851 3.2617 C 22.5507 2.4180 21.8476 2.0664 21.0741 2.2071 Z M 34.9257 2.2774 C 34.1757 2.0196 33.4257 2.3945 33.2148 3.2617 L 32.4179 6.1445 C 32.2070 6.8945 32.6054 7.6680 33.3554 7.8555 C 34.1288 8.0430 34.8788 7.6445 35.0898 6.8711 L 35.8632 3.9883 C 36.0741 3.1914 35.6522 2.4883 34.9257 2.2774 Z M 14.7929 5.0898 C 14.1132 5.4883 13.9022 6.3320 14.2773 7.0118 L 18.6366 14.5586 C 19.0117 15.2617 19.8788 15.4727 20.5351 15.0742 C 21.2148 14.6992 21.4491 13.8555 21.0273 13.1758 L 16.6913 5.6055 C 16.2929 4.9492 15.4726 4.7383 14.7929 5.0898 Z M 41.2304 5.1133 C 40.5507 4.7383 39.6835 4.9492 39.3085 5.6055 L 34.9491 13.1758 C 34.5507 13.8555 34.7851 14.6992 35.4648 15.0742 C 36.1210 15.4727 36.9648 15.2617 37.3632 14.5586 L 41.6991 7.0118 C 42.0976 6.3320 41.8866 5.5118 41.2304 5.1133 Z M 9.1210 9.1445 C 8.5585 9.6836 8.6288 10.5742 9.1444 11.1133 L 11.2304 13.2227 C 11.8163 13.8086 12.6132 13.8320 13.2226 13.2461 C 13.7382 12.7071 13.7851 11.8633 13.1991 11.2539 L 11.1132 9.1680 C 10.5038 8.5586 9.7070 8.5820 9.1210 9.1445 Z M 46.8553 9.1680 C 46.3163 8.6055 45.4259 8.6524 44.9101 9.1680 L 42.7773 11.2774 C 42.1913 11.8867 42.1913 12.6836 42.7538 13.2461 C 43.3398 13.8320 44.1835 13.8320 44.7226 13.2696 L 46.8087 11.1602 C 47.3943 10.5508 47.4179 9.7305 46.8553 9.1680 Z M 5.1132 14.7696 C 4.7382 15.4492 4.9491 16.2930 5.6054 16.6914 L 13.1522 21.0508 C 13.8554 21.4492 14.6991 21.2149 15.0741 20.5586 C 15.4726 19.8789 15.2617 19.0352 14.5585 18.6367 L 7.0117 14.2774 C 6.3319 13.9024 5.5117 14.1133 5.1132 14.7696 Z M 50.8868 14.7930 C 50.5115 14.1133 49.6681 13.9024 48.9884 14.2774 L 41.4413 18.6367 C 40.7382 19.0352 40.5273 19.8789 40.9257 20.5586 C 41.3007 21.2149 42.1210 21.4492 42.8241 21.0508 L 50.3708 16.6914 C 51.0505 16.2930 51.2617 15.4727 50.8868 14.7930 Z M 53.7692 21.1211 C 53.5820 20.3477 52.7852 19.9024 52.0820 20.1133 L 49.1521 20.9102 C 48.4023 21.1211 47.9334 21.8477 48.2147 22.7149 C 48.4023 23.3242 49.0585 23.8164 49.8788 23.6055 L 52.7382 22.8086 C 53.5350 22.5977 53.9569 21.8477 53.7692 21.1211 Z M 2.2070 21.0977 C 2.0429 21.8477 2.5117 22.5977 3.2148 22.8086 L 6.0976 23.6289 C 6.8710 23.8164 7.6444 23.3945 7.8085 22.6211 C 7.9726 21.8711 7.6210 21.0742 6.8476 20.8867 L 3.9648 20.1602 C 3.1210 19.9492 2.3476 20.3711 2.2070 21.0977 Z M 54.4259 27.9883 C 54.4259 27.2149 53.7927 26.6055 53.0195 26.6055 L 44.3007 26.6055 C 43.5038 26.6055 42.9179 27.2149 42.9179 27.9883 C 42.9179 28.7852 43.5038 29.3945 44.3007 29.3945 L 53.0195 29.3945 C 53.7927 29.3945 54.4259 28.7852 54.4259 27.9883 Z M 1.5741 27.9883 C 1.5741 28.7852 2.1835 29.3945 2.9570 29.3945 L 11.6757 29.3945 C 12.4726 29.3945 13.0819 28.7852 13.0819 27.9883 C 13.0819 27.2149 12.4726 26.6055 11.6757 26.6055 L 2.9570 26.6055 C 2.1835 26.6055 1.5741 27.2149 1.5741 27.9883 Z M 53.7692 34.9727 C 53.9804 34.1758 53.6055 33.4492 52.7852 33.2149 L 49.8788 32.3945 C 49.1055 32.1836 48.3788 32.6289 48.1681 33.3789 C 47.9804 34.1524 48.4023 34.9492 49.1521 35.1367 L 52.0115 35.8867 C 52.8318 36.0977 53.5585 35.6758 53.7692 34.9727 Z M 2.2070 34.9024 C 2.3944 35.6524 3.2148 36.0508 3.9413 35.8867 L 6.8241 35.1602 C 7.6444 34.9492 8.0429 34.2227 7.8085 33.4492 C 7.5976 32.6992 6.8476 32.2539 6.0976 32.4414 L 3.2617 33.2149 C 2.4179 33.4492 2.0429 34.1758 2.2070 34.9024 Z M 50.8868 41.2070 C 51.2617 40.5508 51.0505 39.7071 50.3708 39.3086 L 42.8241 34.9492 C 42.1210 34.5508 41.3007 34.7852 40.9022 35.4414 C 40.5273 36.1211 40.7382 36.9649 41.4413 37.3633 L 48.9884 41.7227 C 49.6681 42.0977 50.4884 41.8867 50.8868 41.2070 Z M 5.1132 41.2070 C 5.4882 41.8867 6.3319 42.0977 7.0117 41.7227 L 14.5585 37.3633 C 15.2617 36.9649 15.4726 36.1211 15.0741 35.4649 C 14.6991 34.7852 13.8554 34.5508 13.1522 34.9492 L 5.6054 39.3086 C 4.9491 39.7071 4.7382 40.5274 5.1132 41.2070 Z M 14.7929 50.8867 C 15.4491 51.2617 16.2929 51.0508 16.6913 50.3711 L 21.0273 42.8242 C 21.4491 42.1445 21.2148 41.3008 20.5585 40.9024 C 19.8788 40.5274 19.0117 40.7383 18.6366 41.4414 L 14.2773 48.9883 C 13.9022 49.6680 14.1132 50.4883 14.7929 50.8867 Z M 41.2070 50.8867 C 41.8866 50.5118 42.0976 49.6680 41.6991 48.9883 L 37.3632 41.4414 C 36.9648 40.7383 36.1210 40.5274 35.4648 40.9024 C 34.7851 41.3008 34.5507 42.1445 34.9491 42.8242 L 39.3085 50.3711 C 39.6835 51.0508 40.5273 51.2617 41.2070 50.8867 Z M 46.8318 46.8789 C 47.4179 46.2930 47.3943 45.4024 46.8788 44.8867 L 44.7460 42.7774 C 44.1601 42.2383 43.3163 42.1680 42.7304 42.7774 C 42.1913 43.3633 42.2148 44.1602 42.7538 44.7227 L 44.8632 46.8320 C 45.4489 47.4180 46.2927 47.4414 46.8318 46.8789 Z M 9.1444 46.8555 C 9.7304 47.4180 10.5507 47.4180 11.0898 46.9024 L 13.2226 44.7930 C 13.7851 44.1836 13.8085 43.3867 13.2460 42.8242 C 12.6835 42.2617 11.8163 42.2383 11.2538 42.8008 L 9.1679 44.9102 C 8.5819 45.5195 8.5585 46.2930 9.1444 46.8555 Z M 27.9882 54.4258 C 28.7851 54.4258 29.3944 53.7930 29.3944 53.0196 L 29.3944 44.3242 C 29.3944 43.5274 28.7851 42.9180 27.9882 42.9180 C 27.2148 42.9180 26.6054 43.5274 26.6054 44.3242 L 26.6054 53.0196 C 26.6054 53.7930 27.2148 54.4258 27.9882 54.4258 Z M 34.9257 53.7930 C 35.8163 53.5820 36.0741 52.8086 35.8866 52.0820 L 35.1366 49.1289 C 34.9257 48.3789 34.1288 47.9570 33.3788 48.1680 C 32.5351 48.4024 32.2070 49.1758 32.4179 49.8789 L 33.2382 52.7383 C 33.4726 53.5118 34.0819 53.9571 34.9257 53.7930 Z M 20.9570 53.7696 C 21.8241 54.0508 22.5976 53.5352 22.7851 52.8086 L 23.5819 49.9258 C 23.7929 49.1758 23.3710 48.4024 22.6210 48.2149 C 21.8476 48.0274 21.0976 48.4258 20.8866 49.1992 L 20.1366 52.0820 C 19.9257 52.8789 20.1835 53.5352 20.9570 53.7696 Z"/></svg>