<svg xmlns="http://www.w3.org/2000/svg" width="56" height="56" viewBox="0 0 56 56"><path d="M 4.8942 42.0850 C 8.1403 42.0850 11.4863 40.6700 14.1332 37.9400 C 15.9810 38.9388 17.7789 39.8544 20.4590 39.8544 C 23.3888 39.8544 25.2200 39.0886 26.8680 38.1730 C 29.4317 40.7200 32.7443 42.1183 35.9238 42.1183 C 38.5708 42.1183 40.5850 41.0196 40.5850 38.9887 C 40.5850 37.0577 39.1534 36.2586 37.2057 35.7259 C 36.7062 35.5928 36.2068 35.4762 35.7077 35.3431 C 43.0986 35.1932 43.1818 31.4477 48.1426 31.4477 C 52.6541 31.4477 56.0000 29.8829 56.0000 26.7866 C 56.0000 20.1611 52.2045 16.6320 47.7932 16.6320 C 43.2653 16.6320 40.8512 19.4952 39.8857 23.2574 C 39.3365 25.3050 38.3710 26.5868 36.9060 27.3193 L 35.8573 25.3882 C 31.4958 17.2479 27.3674 13.9851 20.6920 13.9685 C 13.4673 13.9851 9.7717 17.1314 4.3948 27.3193 C 2.7634 30.4322 0 31.1148 0 33.0624 C 0 34.4275 1.0488 35.3431 3.1629 35.3431 L 4.8775 35.3431 C 4.1617 35.5428 3.4459 35.7259 2.7967 35.9590 C 1.2319 36.5083 .2331 37.3407 .2331 38.9388 C .2331 40.9697 2.2473 42.0850 4.8942 42.0850 Z M 20.6920 16.6154 C 25.1867 16.6154 28.0499 18.6296 30.3805 21.6094 C 27.6338 23.9233 24.3044 25.2218 20.4923 25.2218 C 16.7301 25.2218 13.4507 23.9899 10.7539 21.7259 C 13.6005 17.9471 16.3971 16.6154 20.6920 16.6154 Z M 40.5018 31.9305 C 39.7361 31.3478 38.8537 30.2491 38.3212 29.3169 C 40.1356 28.6344 41.3507 27.4191 42.0666 24.5725 C 42.8658 21.1433 44.6969 19.1457 47.7932 19.1457 C 50.9727 19.1457 53.6196 22.0755 53.6196 26.3871 C 53.6196 27.9852 51.1725 29.0172 48.6421 29.0172 C 44.7634 29.0172 42.6326 30.5654 40.5018 31.9305 Z M 48.2759 25.1219 C 49.0083 25.1219 49.5909 24.5226 49.5909 23.7901 C 49.5909 23.0577 49.0083 22.4750 48.2759 22.4750 C 47.5433 22.4750 46.9606 23.0577 46.9606 23.7901 C 46.9606 24.5226 47.5433 25.1219 48.2759 25.1219 Z M 33.7098 26.8199 C 34.8584 28.8674 36.3234 31.1980 37.8050 32.6629 C 37.1225 32.6796 36.3401 32.6629 35.5409 32.6629 C 33.0607 32.6629 31.2129 33.1124 29.6647 33.7283 C 28.0499 31.5809 26.8847 28.5345 26.6183 26.2705 C 28.5660 25.5381 30.2307 24.5060 31.6291 23.3573 C 32.3447 24.4394 33.0273 25.6047 33.7098 26.8199 Z M 5.8264 32.6629 C 4.9774 32.6629 4.1118 32.6796 3.3460 32.7295 L 3.2129 32.4964 C 4.3448 31.5476 5.7598 30.3490 6.7586 28.3514 C 7.7408 26.4703 8.6397 24.8722 9.5220 23.4905 C 10.9203 24.6391 12.6350 25.6879 14.6825 26.4037 C 14.3496 28.5844 13.1510 31.6475 11.6195 33.7283 C 10.1046 33.1124 8.2735 32.6629 5.8264 32.6629 Z M 20.4590 37.2075 C 17.5458 37.2075 15.7646 35.8425 13.4673 34.6106 C 15.0155 32.4132 16.1641 29.3835 16.4970 26.9198 C 17.7289 27.2028 19.0606 27.3692 20.4923 27.3692 C 22.0238 27.3692 23.4388 27.1694 24.7539 26.8532 C 25.0036 29.4168 26.1855 32.4465 27.8002 34.6272 C 25.4863 35.8591 23.6219 37.2075 20.4590 37.2075 Z M 2.7134 38.5892 C 2.7134 37.9899 3.1463 37.5904 4.4281 37.2741 C 5.2105 37.0743 7.2913 36.4251 8.8062 35.7093 C 9.9382 35.9590 10.9203 36.3252 11.8026 36.7414 C 9.2557 38.8888 6.9750 39.8544 4.9108 39.8544 C 3.4459 39.8544 2.7134 39.3882 2.7134 38.5892 Z M 36.3902 37.3240 C 37.6717 37.6403 38.1047 38.0398 38.1047 38.6391 C 38.1047 39.4215 37.3721 39.8876 35.9071 39.8876 C 33.8762 39.8876 31.6291 38.9554 29.1320 36.8912 C 29.9810 36.4251 30.8965 36.0256 31.9786 35.7426 C 33.4770 36.4584 35.6078 37.1076 36.3902 37.3240 Z"/></svg>