<svg xmlns="http://www.w3.org/2000/svg" width="56" height="56" viewBox="0 0 56 56"><path d="M 10.3885 53.5681 C 10.1896 53.9219 10.0348 54.2756 10.0348 54.6735 C 10.0348 55.4031 10.5212 56 11.4276 56 C 11.9582 56 12.4004 55.7789 12.7541 55.2041 L 13.5279 53.9439 L 41.4063 53.9439 L 42.1579 55.2041 C 42.5338 55.7789 42.9538 56 43.4844 56 C 44.4130 56 44.8773 55.4031 44.8773 54.6735 C 44.8773 54.2756 44.7225 53.9219 44.5235 53.5681 L 38.3775 43.8847 C 39.1733 43.8184 39.9692 43.7300 40.7430 43.6194 C 43.6171 43.2657 45.2089 41.1875 45.4300 38.2250 C 45.8279 32.9412 46.0711 27.7236 46.0711 22.2629 C 46.0711 16.7801 45.8279 11.5183 45.4300 6.2566 C 45.2089 3.2720 43.6171 1.2159 40.7430 .8401 C 36.3877 .2653 31.8998 0 27.5444 0 C 23.1228 0 18.5685 .2874 14.1690 .8401 C 11.3171 1.1938 9.7031 3.2720 9.4821 6.2566 C 9.0841 11.5183 8.8631 16.7801 8.8631 22.2629 C 8.8631 27.7236 9.0841 32.9412 9.4821 38.2250 C 9.7031 41.1875 11.3171 43.2436 14.1690 43.6194 C 14.9649 43.7300 15.7387 43.8184 16.5346 43.9068 Z M 17.0873 10.6783 C 15.7166 10.6783 14.7880 9.7497 14.7880 8.3790 C 14.7880 6.9862 15.7166 6.0576 17.0873 6.0576 L 37.8690 6.0576 C 39.2397 6.0576 40.1903 6.9862 40.1903 8.3790 C 40.1903 9.7497 39.2397 10.6783 37.8690 10.6783 Z M 27.4782 28.2763 C 23.6092 28.2763 19.3202 27.9890 15.9819 27.6131 C 15.0312 27.5026 14.4122 26.8614 14.3238 25.9771 C 14.2353 24.8275 14.1690 23.1031 14.1690 21.4228 C 14.1690 19.6984 14.2353 17.9961 14.3238 16.8464 C 14.4122 15.9621 15.0312 15.3210 15.9819 15.2104 C 19.0549 14.8567 23.0344 14.6356 27.4782 14.6356 C 31.9219 14.6356 35.9014 14.8567 38.9965 15.2104 C 39.9250 15.3210 40.5662 15.9621 40.6325 16.8464 C 40.7430 17.9961 40.7873 19.6984 40.7873 21.4228 C 40.7873 23.1031 40.7430 24.8275 40.6325 25.9771 C 40.5662 26.8614 39.9250 27.5026 38.9965 27.6131 C 35.7687 28.0110 31.6124 28.2763 27.4782 28.2763 Z M 19.4087 38.8220 C 17.3968 38.8220 15.8713 37.2965 15.8713 35.2847 C 15.8713 33.2949 17.3968 31.7474 19.4087 31.7474 C 21.3984 31.7474 22.9460 33.2949 22.9460 35.2847 C 22.9460 37.2965 21.3984 38.8220 19.4087 38.8220 Z M 35.6360 38.8220 C 33.6242 38.8220 32.0987 37.2965 32.0987 35.2847 C 32.0987 33.2949 33.6242 31.7474 35.6360 31.7474 C 37.6258 31.7474 39.1733 33.2949 39.1733 35.2847 C 39.1733 37.2965 37.6258 38.8220 35.6360 38.8220 Z M 27.1465 44.4595 C 29.8437 44.4595 32.5851 44.3711 35.3044 44.1721 L 36.8741 46.6704 L 18.0379 46.6704 L 19.5855 44.1942 C 22.1058 44.3711 24.6483 44.4595 27.1465 44.4595 Z M 15.0312 51.5120 L 16.5346 49.1022 L 38.3775 49.1022 L 39.8808 51.5120 Z"/></svg>