<svg xmlns="http://www.w3.org/2000/svg" width="56" height="56" viewBox="0 0 56 56"><path d="M 7.7148 48.0039 L 48.2852 48.0039 C 53.1836 48.0039 55.6446 45.5664 55.6446 40.7383 L 55.6446 27.8008 C 55.6446 25.6914 55.2928 24.7070 54.3088 23.3477 L 46.1992 12.4023 C 43.6446 8.9102 42.2382 7.9961 38.0898 7.9961 L 17.9101 7.9961 C 13.7617 7.9961 12.3554 8.9102 9.8007 12.4023 L 1.6913 23.3477 C .7070 24.7070 .3554 25.6914 .3554 27.8008 L .3554 40.7383 C .3554 45.5898 2.8398 48.0039 7.7148 48.0039 Z M 27.9882 34.4336 C 24.4726 34.4336 22.2226 31.3867 22.2226 28.5039 L 22.2226 28.4336 C 22.2226 27.3789 21.5898 26.3945 20.3007 26.3945 L 5.3476 26.3945 C 4.5741 26.3945 4.4101 25.7383 4.7851 25.2227 L 13.4570 13.3164 C 14.5585 11.8164 15.9413 11.2774 17.6523 11.2774 L 38.3476 11.2774 C 40.0585 11.2774 41.4413 11.8164 42.5430 13.3164 L 51.1912 25.2227 C 51.5665 25.7383 51.4024 26.3945 50.6291 26.3945 L 35.6992 26.3945 C 34.4101 26.3945 33.7773 27.3789 33.7773 28.4336 L 33.7773 28.5039 C 33.7773 31.3867 31.5273 34.4336 27.9882 34.4336 Z M 37.8554 14.7227 L 18.1679 14.7227 C 17.5117 14.7227 17.0429 15.2149 17.0429 15.8477 C 17.0429 16.4805 17.5117 16.9727 18.1679 16.9727 L 37.8554 16.9727 C 38.4882 16.9727 38.9570 16.4805 38.9570 15.8477 C 38.9570 15.2149 38.4882 14.7227 37.8554 14.7227 Z M 40.9726 20.0196 L 15.0507 20.0196 C 14.3710 20.0196 13.8788 20.6055 13.8788 21.2383 C 13.8788 21.8711 14.3710 22.4102 15.0507 22.4102 L 40.9726 22.4102 C 41.6288 22.4102 42.1210 21.8711 42.1210 21.2383 C 42.1210 20.6055 41.6288 20.0196 40.9726 20.0196 Z"/></svg>