<svg xmlns="http://www.w3.org/2000/svg" width="56" height="56" viewBox="0 0 56 56"><path d="M 27.9999 51.9063 C 41.0546 51.9063 51.9063 41.0781 51.9063 28 C 51.9063 14.9453 41.0312 4.0937 27.9765 4.0937 C 14.8983 4.0937 4.0937 14.9453 4.0937 28 C 4.0937 41.0781 14.9218 51.9063 27.9999 51.9063 Z M 27.9999 47.9219 C 16.9374 47.9219 8.1014 39.0625 8.1014 28 C 8.1014 16.9609 16.9140 8.0781 27.9765 8.0781 C 39.0155 8.0781 47.8983 16.9609 47.9219 28 C 47.9454 39.0625 39.0390 47.9219 27.9999 47.9219 Z M 16.3280 37 L 39.6718 37 C 41.8046 37 42.9999 35.8047 42.9999 33.6484 L 42.9999 21.0625 C 42.9999 18.9297 41.8280 17.7578 39.6718 17.7578 L 16.3280 17.7578 C 14.1952 17.7578 12.9999 18.9297 12.9999 21.0625 L 12.9999 33.6484 C 12.9999 35.8281 14.1718 37 16.3280 37 Z M 16.6796 33.9766 C 16.2343 33.9766 16.1171 33.8594 16.1171 33.4375 L 16.1171 21.3203 C 16.1171 20.8750 16.2343 20.7812 16.6796 20.7812 L 39.2733 20.7812 C 39.7421 20.7812 39.8358 20.8984 39.8358 21.3203 L 39.8358 33.4375 C 39.8358 33.8594 39.7187 33.9766 39.2733 33.9766 Z M 20.3358 41.7812 L 35.6171 41.7812 C 36.3905 41.7812 36.9765 41.1719 36.9999 40.3750 C 37.0234 39.6250 36.3905 38.9688 35.6171 38.9688 L 20.3358 38.9688 C 19.5858 38.9688 18.9765 39.6016 18.9765 40.3516 C 18.9765 41.1719 19.5624 41.7812 20.3358 41.7812 Z"/></svg>