<svg xmlns="http://www.w3.org/2000/svg" width="57" height="56" viewBox="0 0 57 56">
  <path fill-rule="evenodd" d="M24,48 C10.745166,48 0,37.254834 0,24 C0,10.745166 10.745166,0 24,0 C37.254834,0 48,10.745166 48,24 C48,37.254834 37.254834,48 24,48 Z M27.355853,28.2859983 L27.355853,15.26961 L30.4993646,18.4131215 C31.1707959,19.0845528 32.2531439,19.0908101 32.9272816,18.4166724 C33.5967518,17.7472022 33.5957641,16.6607888 32.9237307,15.9887554 L26.8699172,9.93494193 C26.520536,9.58556071 26.059892,9.41628677 25.6033958,9.42926462 C25.5225837,9.43099889 25.4432251,9.43822739 25.3656719,9.45058749 C25.0175108,9.50472491 24.6824493,9.66616386 24.4136712,9.93494193 L18.3598577,15.9887554 C17.6884264,16.6601867 17.6821692,17.7425348 18.3563068,18.4166724 C19.0257771,19.0861426 20.1121904,19.0851549 20.7842238,18.4131215 L23.9272816,15.2700638 L23.9272816,28.2859983 C23.9272816,30.652933 22.0085019,32.5717126 19.6415673,32.5717126 C17.2746326,32.5717126 15.355853,30.652933 15.355853,28.2859983 C15.355853,25.9190637 17.2746326,24.000284 19.6415673,24.000284 C20.5883411,24.000284 21.355853,23.2327722 21.355853,22.2859983 C21.355853,21.3392245 20.5883411,20.5717126 19.6415673,20.5717126 C15.3810849,20.5717126 11.9272816,24.025516 11.9272816,28.2859983 C11.9272816,32.5464807 15.3810849,36.000284 19.6415673,36.000284 C23.9020496,36.000284 27.355853,32.5464807 27.355853,28.2859983 L27.355853,28.2859983 Z" transform="translate(4 4)"/>
</svg>
