<svg xmlns="http://www.w3.org/2000/svg" width="56" height="56" viewBox="0 0 56 56">
  <path fill-rule="evenodd" d="M24,0 C26.209139,0 28,1.790861 28,4 L28,20 C28,22.209139 26.209139,24 24,24 L4,24 C1.790861,24 0,22.209139 0,20 L0,4 C0,1.790861 1.790861,0 4,0 L24,0 Z M39.5617376,2.9118596 C39.8454385,3.2664857 40,3.7071067 40,4.16124969 L40,19.8387503 C40,20.9433198 39.1045695,21.8387503 38,21.8387503 C37.545857,21.8387503 37.105236,21.6841888 36.7506099,21.4004879 L30.7506099,16.6004879 C30.2761794,16.2209436 30,15.6463177 30,15.0387503 L30,8.96124969 C30,8.35368225 30.2761794,7.77905645 30.7506099,7.39951208 L36.7506099,2.59951208 C37.6131338,1.90949298 38.8717185,2.04933573 39.5617376,2.9118596 Z" transform="translate(8 16)"/>
</svg>
