<svg xmlns="http://www.w3.org/2000/svg" width="56" height="56" viewBox="0 0 56 56">
  <path d="M24,0 C37.254834,0 48,10.745166 48,24 C48,37.254834 37.254834,48 24,48 C10.745166,48 0,37.254834 0,24 C0,10.745166 10.745166,0 24,0 Z M24,4 C12.954305,4 4,12.954305 4,24 C4,35.045695 12.954305,44 24,44 C35.045695,44 44,35.045695 44,24 C44,12.954305 35.045695,4 24,4 Z M26.5714286,15.4285714 C28.4649763,15.4285714 30,16.9635951 30,18.8571429 L30,30 C30,31.8935477 28.4649763,33.4285714 26.5714286,33.4285714 L12.8571429,33.4285714 C10.9635951,33.4285714 9.42857143,31.8935477 9.42857143,30 L9.42857143,18.8571429 C9.42857143,16.9635951 10.9635951,15.4285714 12.8571429,15.4285714 L26.5714286,15.4285714 Z M38.9955588,18.1071086 C39.2744939,18.4209105 39.4285714,18.8261652 39.4285714,19.246018 L39.4285714,28.753982 C39.4285714,29.7007558 38.6610596,30.4682677 37.7142857,30.4682677 C37.2944329,30.4682677 36.8891782,30.3141902 36.5753763,30.0352551 L32.289662,26.2257313 C31.9236819,25.9004157 31.7142857,25.434123 31.7142857,24.9444582 L31.7142857,23.0555418 C31.7142857,22.565877 31.9236819,22.0995843 32.289662,21.7742687 L36.5753763,17.9647449 C37.2830039,17.3357426 38.3665565,17.399481 38.9955588,18.1071086 Z" transform="translate(4 4)"/>
</svg>
