<svg xmlns="http://www.w3.org/2000/svg" width="56" height="56" viewBox="0 0 56 56">
  <path d="M36,25 C36,28.8659932 32.8659932,32 29,32 L7,32 C3.13400675,32 0,28.8659932 0,25 L0,7 C0,3.13400675 3.13400675,0 7,0 L29,0 C32.8659932,0 36,3.13400675 36,7 L36,25 Z M45.71066,2.99196205 C47.4436914,2.99196205 48.8599059,4.34841681 48.9555152,6.05753814 L48.96066,6.24196205 L48.96066,25.9014683 C48.96066,26.6666961 48.6906425,27.4073827 48.1981634,27.993077 C47.0857837,29.3160053 45.143496,29.5293645 43.7744003,28.511847 L43.6190513,28.3889718 L38,23.664 L38,8.553 L43.5999096,3.77068042 C44.1295012,3.3183501 44.7887131,3.04945248 45.4793999,3.00019625 L45.71066,2.99196205 Z" transform="translate(3.5 12)"/>
</svg>
