<svg xmlns="http://www.w3.org/2000/svg" width="56" height="56" viewBox="0 0 56 56"><path d="M 48.9179 13.7969 C 49.3398 13.7969 49.6446 13.3984 49.6211 12.9531 L 49.4804 10.7266 L 51.3318 11.9922 C 51.6601 12.2266 52.1992 12.1328 52.4334 11.7813 C 52.6446 11.4062 52.5275 10.8906 52.0585 10.6797 L 50.0430 9.6953 L 52.0820 8.6875 C 52.5040 8.4766 52.6211 7.9609 52.4334 7.6094 C 52.2462 7.2344 51.6601 7.1641 51.3318 7.3984 L 49.4804 8.6875 L 49.6446 6.4141 C 49.6912 5.9687 49.3398 5.5938 48.9179 5.5938 C 48.4259 5.5938 48.1446 5.9687 48.1681 6.4141 L 48.3088 8.6875 L 46.4099 7.3984 C 46.0820 7.1641 45.5896 7.1875 45.3554 7.6094 C 45.1445 7.9609 45.2382 8.4531 45.6836 8.6875 L 47.6992 9.6953 L 45.6836 10.6797 C 45.2382 10.8672 45.1210 11.3828 45.3320 11.7813 C 45.5430 12.1562 46.0820 12.2266 46.4099 11.9922 L 48.3088 10.7266 L 48.1912 12.9531 C 48.1681 13.3984 48.4259 13.7969 48.9179 13.7969 Z M 5.6523 22.9141 C 9.0273 21.8360 12.5195 21.2969 15.8476 21.2969 C 20.1601 21.2969 23.3242 21.9766 27.4023 21.9766 C 31.6210 21.9766 34.2460 19.1172 34.2460 15.3906 C 34.2460 11.5703 31.3164 8.8516 27.7070 8.8516 C 25.0351 8.8516 22.6913 10.5156 21.7070 12.7422 C 21.3320 13.5156 21.4726 14.4297 22.2929 14.8516 C 23.0429 15.2266 23.9570 14.9922 24.4492 14.0313 C 24.9648 12.8360 26.2304 11.8984 27.7070 11.8984 C 29.6523 11.8984 31.1757 13.2578 31.1757 15.3906 C 31.1757 17.5234 29.6992 18.9297 27.4023 18.9297 C 23.5117 18.9297 20.3007 18.2266 15.8476 18.2266 C 12.0273 18.2266 8.1601 18.9062 4.7148 20.0078 C 3.7304 20.2891 3.3554 21.1328 3.5898 21.9531 C 3.8242 22.7500 4.5976 23.2187 5.6523 22.9141 Z M 42.3085 33.8828 C 47.7697 33.8828 51.6366 30.4141 51.6366 25.5625 C 51.6366 20.7813 47.9569 17.3125 43.3866 17.3125 C 39.1445 17.3125 36.0039 20.2656 35.4413 24.1562 C 35.3007 25.1172 35.8398 25.8906 36.6835 26.0078 C 37.5507 26.125 38.3007 25.5860 38.4882 24.4844 C 38.8866 22.0469 40.9257 20.3594 43.3866 20.3594 C 46.2462 20.3594 48.5665 22.4922 48.5665 25.5625 C 48.5665 28.6797 46.1056 30.8360 42.3085 30.8360 C 35.1601 30.8360 27.4492 26.7578 18.0742 26.7578 C 13.2460 26.7578 8.8398 27.5313 4.7148 29.0078 C 3.7539 29.3360 3.3554 30.1562 3.5898 30.9766 C 3.8242 31.7734 4.6210 32.2656 5.6523 31.9141 C 9.4726 30.4609 13.4570 29.8282 18.0742 29.8282 C 27.4257 29.8282 34.4101 33.8828 42.3085 33.8828 Z M 27.4257 50.4062 C 31.0351 50.4062 33.8242 47.7344 33.8242 43.9141 C 33.8242 38.3828 28.1757 35.2891 17.7695 35.2891 C 13.4101 35.2891 8.6992 36.1328 4.7148 37.5156 C 3.7539 37.8438 3.3554 38.6641 3.5898 39.4844 C 3.8242 40.2813 4.6210 40.7734 5.6523 40.4219 C 9.3788 39.0860 13.5507 38.3594 17.7695 38.3594 C 26.2773 38.3594 30.7773 40.4922 30.7773 43.9141 C 30.7773 46.0703 29.2773 47.3594 27.4257 47.3594 C 25.5742 47.3594 24.4492 46.1172 24.1210 44.1484 C 23.9804 43.2813 23.3476 42.5781 22.3398 42.6484 C 21.2851 42.7188 20.8632 43.6094 21.0039 44.5469 C 21.4257 47.8047 23.8398 50.4062 27.4257 50.4062 Z M 48.9179 46.2109 C 49.3398 46.2109 49.6446 45.8125 49.6211 45.3672 L 49.4804 43.1406 L 51.3318 44.4063 C 51.6601 44.6406 52.1992 44.5469 52.4334 44.1953 C 52.6446 43.8438 52.5275 43.3047 52.0585 43.0938 L 50.0430 42.1094 L 52.0820 41.1016 C 52.5040 40.8906 52.6211 40.3750 52.4334 40.0234 C 52.2462 39.6484 51.6601 39.5782 51.3318 39.8125 L 49.4804 41.1016 L 49.6446 38.8516 C 49.6912 38.3828 49.3398 38.0078 48.9179 38.0078 C 48.4259 38.0078 48.1446 38.3828 48.1681 38.8516 L 48.3088 41.1016 L 46.4099 39.8125 C 46.0820 39.5782 45.5896 39.6250 45.3554 40.0234 C 45.1445 40.3750 45.2382 40.8672 45.6836 41.1016 L 47.6992 42.1094 L 45.6836 43.0938 C 45.2382 43.3047 45.1210 43.8203 45.3320 44.1953 C 45.5430 44.5703 46.0820 44.6406 46.4099 44.4063 L 48.3088 43.1406 L 48.1912 45.3672 C 48.1681 45.8125 48.4259 46.2109 48.9179 46.2109 Z"/></svg>