<svg xmlns="http://www.w3.org/2000/svg" width="56" height="57" viewBox="0 0 56 57">
  <g transform="translate(6 7)">
    <path d="M10.3847656,28.0664062 L10.3847656,19.1796875 C8.73111152,20.4492251 7.61784141,21.0839844 7.04492188,21.0839844 C6.77148301,21.0839844 6.52897241,20.974936 6.31738281,20.7568359 C6.10579321,20.5387359 6,20.2864598 6,20 C6,19.6679671 6.10416563,19.4238289 6.3125,19.2675781 C6.52083437,19.1113273 6.88866924,18.9095064 7.41601562,18.6621094 C8.20377998,18.2910138 8.83365649,17.9003927 9.30566406,17.4902344 C9.77767163,17.0800761 10.1959617,16.6210963 10.5605469,16.1132812 C10.925132,15.6054662 11.1627599,15.2929693 11.2734375,15.1757812 C11.3841151,15.0585932 11.5924464,15 11.8984375,15 C12.2434913,15 12.5201813,15.1334622 12.7285156,15.4003906 C12.93685,15.667319 13.0410156,16.0351539 13.0410156,16.5039062 L13.0410156,27.6855469 C13.0410156,28.9941472 12.5950565,29.6484375 11.703125,29.6484375 C11.3059876,29.6484375 10.9869804,29.5149753 10.7460938,29.2480469 C10.5052071,28.9811185 10.3847656,28.5872422 10.3847656,28.0664062 Z M19.9515266,27.0996094 L25.0491829,27.0996094 C25.5569979,27.0996094 25.9443638,27.203775 26.2112923,27.4121094 C26.4782207,27.6204437 26.6116829,27.903644 26.6116829,28.2617188 C26.6116829,28.5807308 26.5058897,28.8509104 26.2943001,29.0722656 C26.0827105,29.2936209 25.7620757,29.4042969 25.332386,29.4042969 L18.144886,29.4042969 C17.6566023,29.4042969 17.2757468,29.2692071 17.0023079,28.9990234 C16.728869,28.7288398 16.5921516,28.4114602 16.5921516,28.046875 C16.5921516,27.8124988 16.6800414,27.5016295 16.8558235,27.1142578 C17.0316056,26.7268861 17.223661,26.4225271 17.4319954,26.2011719 C18.2978851,25.3027299 19.0791273,24.5328808 19.7757454,23.8916016 C20.4723635,23.2503223 20.9704054,22.8287771 21.269886,22.6269531 C21.8037429,22.2493471 22.2480743,21.8701191 22.6028938,21.4892578 C22.9577133,21.1083965 23.2278929,20.7177754 23.4134407,20.3173828 C23.5989885,19.9169902 23.691761,19.5247415 23.691761,19.140625 C23.691761,18.7239563 23.5924782,18.3512386 23.3939095,18.0224609 C23.1953408,17.6936833 22.9251612,17.438152 22.5833626,17.2558594 C22.241564,17.0735668 21.8688464,16.9824219 21.4651985,16.9824219 C20.6123297,16.9824219 19.9417635,17.3567671 19.4534798,18.1054688 C19.3883753,18.2031255 19.2793269,18.4700499 19.1263313,18.90625 C18.9733358,19.3424501 18.8008115,19.6777332 18.6087532,19.9121094 C18.416695,20.1464855 18.1351222,20.2636719 17.7640266,20.2636719 C17.4385042,20.2636719 17.1683246,20.1562511 16.9534798,19.9414062 C16.7386349,19.7265614 16.6312141,19.4335956 16.6312141,19.0625 C16.6312141,18.613279 16.7321246,18.1445337 16.9339485,17.65625 C17.1357724,17.1679663 17.4368762,16.7252624 17.8372688,16.328125 C18.2376615,15.9309876 18.7454689,15.6103528 19.3607063,15.3662109 C19.9759438,15.1220691 20.6969652,15 21.5237923,15 C22.519891,15 23.3694919,15.1562484 24.0726204,15.46875 C24.5283518,15.6770844 24.9287385,15.9635398 25.2737923,16.328125 C25.6188461,16.6927102 25.8873981,17.1142554 26.0794563,17.5927734 C26.2715146,18.0712915 26.3675423,18.5677058 26.3675423,19.0820312 C26.3675423,19.889327 26.167349,20.6233691 25.7669563,21.2841797 C25.3665637,21.9449903 24.9580391,22.4625632 24.5413704,22.8369141 C24.1247016,23.2112649 23.4264664,23.7988241 22.4466438,24.5996094 C21.4668212,25.4003946 20.7946274,26.0221332 20.4300423,26.4648438 C20.2737915,26.6406259 20.1142879,26.8522123 19.9515266,27.0996094 Z M31.7155533,20.7617188 C32.3145146,20.7617188 32.83046,20.5859393 33.2634048,20.234375 C33.6963497,19.8828107 33.9128189,19.3782585 33.9128189,18.7207031 C33.9128189,18.2193985 33.7402946,17.7880877 33.3952408,17.4267578 C33.050187,17.0654279 32.5846968,16.8847656 31.9987564,16.8847656 C31.601619,16.8847656 31.2744738,16.9401036 31.0173111,17.0507812 C30.7601484,17.1614589 30.5566999,17.3079418 30.4069595,17.4902344 C30.2572192,17.672527 30.1156191,17.9068996 29.9821548,18.1933594 C29.8486906,18.4798191 29.7266215,18.7499987 29.6159439,19.0039062 C29.5508394,19.1406257 29.4336531,19.2480465 29.2643814,19.3261719 C29.0951097,19.4042973 28.8997992,19.4433594 28.6784439,19.4433594 C28.4180259,19.4433594 28.1787705,19.3375662 27.9606705,19.1259766 C27.7425704,18.914387 27.633522,18.6328143 27.633522,18.28125 C27.633522,17.9427066 27.7360601,17.5862649 27.9411392,17.2119141 C28.1462184,16.8375632 28.4456945,16.4811215 28.8395767,16.1425781 C29.2334589,15.8040348 29.7233629,15.5322276 30.3093033,15.3271484 C30.8952437,15.1220693 31.549534,15.0195312 32.2721939,15.0195312 C32.9037075,15.0195312 33.4798736,15.1057934 34.0007095,15.2783203 C34.5215455,15.4508472 34.9740149,15.6998682 35.3581314,16.0253906 C35.7422479,16.3509131 36.0319586,16.7285135 36.227272,17.1582031 C36.4225855,17.5878928 36.5202408,18.0501277 36.5202408,18.5449219 C36.5202408,19.1959668 36.3786406,19.7542294 36.0954361,20.2197266 C35.8122316,20.6852237 35.4069622,21.1393207 34.8796158,21.5820312 C35.3874308,21.8554701 35.8154864,22.167967 36.1637955,22.5195312 C36.5121045,22.8710955 36.7741462,23.260089 36.9499283,23.6865234 C37.1257104,24.1129579 37.2136002,24.5735652 37.2136002,25.0683594 C37.2136002,25.6608103 37.0947862,26.2337212 36.8571548,26.7871094 C36.6195234,27.3404976 36.2695921,27.8336567 35.8073502,28.2666016 C35.3451083,28.6995464 34.7966111,29.0380847 34.1618423,29.2822266 C33.5270735,29.5263684 32.8255832,29.6484375 32.0573502,29.6484375 C31.2760963,29.6484375 30.5762335,29.5084649 29.9577408,29.2285156 C29.3392481,28.9485663 28.8298131,28.5986349 28.4294205,28.1787109 C28.0290278,27.758787 27.7262965,27.324221 27.5212173,26.875 C27.3161382,26.425779 27.2136002,26.054689 27.2136002,25.7617188 C27.2136002,25.3841127 27.3356693,25.0797538 27.5798111,24.8486328 C27.8239529,24.6175119 28.1283119,24.5019531 28.492897,24.5019531 C28.6751896,24.5019531 28.8509691,24.5556635 29.0202408,24.6630859 C29.1895125,24.7705083 29.3001884,24.8990878 29.352272,25.0488281 C29.6908154,25.9537806 30.0537675,26.6259744 30.4411392,27.0654297 C30.8285109,27.504885 31.3737529,27.7246094 32.0768814,27.7246094 C32.4805293,27.7246094 32.8695228,27.6253265 33.2438736,27.4267578 C33.6182244,27.2281891 33.9274661,26.9335957 34.171608,26.5429688 C34.4157498,26.1523418 34.5378189,25.6998724 34.5378189,25.1855469 C34.5378189,24.4238243 34.3294877,23.8264996 33.9128189,23.3935547 C33.4961502,22.9606098 32.9167289,22.7441406 32.1745377,22.7441406 C32.0443287,22.7441406 31.8425078,22.7571613 31.5690689,22.7832031 C31.29563,22.8092449 31.1198505,22.8222656 31.0417252,22.8222656 C30.6836505,22.8222656 30.4069605,22.7327483 30.211647,22.5537109 C30.0163336,22.3746736 29.9186783,22.1256526 29.9186783,21.8066406 C29.9186783,21.4941391 30.0358646,21.2418629 30.2702408,21.0498047 C30.504617,20.8577464 30.8529208,20.7617188 31.3151627,20.7617188 L31.7155533,20.7617188 Z"/>
    <path d="M7.7851,43.5742 L36.2382,43.5742 C41.1366,43.5742 43.5743,41.1367 43.5743,36.3086 L43.5743,7.6914 C43.5743,2.8633 41.1366,0.4258 36.2382,0.4258 L7.7851,0.4258 C2.9101,0.4258 0.4257,2.8398 0.4257,7.6914 L0.4257,36.3086 C0.4257,41.1602 2.9101,43.5742 7.7851,43.5742 Z M7.8554,39.8008 C5.5117,39.8008 4.1992,38.5586 4.1992,36.1211 L4.1992,7.8789 C4.1992,5.4414 5.5117,4.1992 7.8554,4.1992 L36.1679,4.1992 C38.4882,4.1992 39.8007,5.4414 39.8007,7.8789 L39.8007,36.1211 C39.8007,38.5586 38.4882,39.8008 36.1679,39.8008 L7.8554,39.8008 Z"/>
  </g>
</svg>
