<svg xmlns="http://www.w3.org/2000/svg" width="56" height="56" viewBox="0 0 56 56">
  <path d="M7.7851,43.5742 L36.2382,43.5742 C41.1366,43.5742 43.5743,41.1367 43.5743,36.3086 L43.5743,7.6914 C43.5743,2.8633 41.1366,0.4258 36.2382,0.4258 L7.7851,0.4258 C2.9101,0.4258 0.4257,2.8398 0.4257,7.6914 L0.4257,36.3086 C0.4257,41.1602 2.9101,43.5742 7.7851,43.5742 Z M14.0414618,25.7749291 L13.5382118,24.4521007 L9.25339814,24.4521007 L8.75014821,25.8036862 C8.55364011,26.3309031 8.38589181,26.6867691 8.24689827,26.871295 C8.10790474,27.0558209 7.88024633,27.1480825 7.56391622,27.1480825 C7.29551492,27.1480825 7.05827089,27.0498299 6.85217703,26.8533218 C6.64608317,26.6568137 6.54303779,26.4339481 6.54303779,26.1847183 C6.54303779,26.0409319 6.56700183,25.8923549 6.61493063,25.7389827 C6.66285944,25.5856105 6.74194078,25.3723305 6.85217703,25.0991363 L9.54815881,18.2549373 C9.6248449,18.0584292 9.71710646,17.8223833 9.82494628,17.5467927 C9.93278609,17.2712021 10.0478135,17.0423455 10.1700319,16.860216 C10.2922504,16.6780866 10.4528095,16.5307077 10.651714,16.418075 C10.8506186,16.3054423 11.09625,16.2491268 11.3886157,16.2491268 C11.6857743,16.2491268 11.9338021,16.3054423 12.1327067,16.418075 C12.3316112,16.5307077 12.4921703,16.6756902 12.6143888,16.8530267 C12.7366072,17.0303633 12.8396526,17.2208774 12.923528,17.4245749 C13.0074034,17.6282723 13.1140434,17.9002642 13.2434512,18.2405587 L15.9969472,25.0416221 C16.2126269,25.5592532 16.320465,25.9354886 16.320465,26.1703398 C16.320465,26.4147767 16.2186179,26.6388405 16.0149204,26.8425379 C15.811223,27.0462353 15.5655916,27.1480825 15.2780188,27.1480825 C15.1102679,27.1480825 14.9664837,27.1181274 14.8466617,27.0582164 C14.7268397,26.9983054 14.6261907,26.9168277 14.5447117,26.8137808 C14.4632327,26.7107338 14.375764,26.5525711 14.2823028,26.339288 C14.1888417,26.1260048 14.1085621,25.937887 14.0414618,25.7749291 Z M9.81416235,22.8488902 L12.9630691,22.8488902 L11.3742371,18.4993729 L9.81416235,22.8488902 Z M22.3882214,26.9683504 L19.1674218,26.9683504 C18.7025124,26.9683504 18.3706104,26.8641068 18.1717059,26.6556165 C17.9728013,26.4471262 17.8733506,26.1152242 17.8733506,25.6599005 L17.8733506,17.7373088 C17.8733506,17.2723993 17.9751977,16.938101 18.1788952,16.7344035 C18.3825926,16.5307061 18.7120982,16.4288589 19.1674218,16.4288589 L22.5823321,16.4288589 C23.0855845,16.4288589 23.5217301,16.4600122 23.8907819,16.5223196 C24.2598337,16.5846271 24.5905375,16.7044473 24.8829032,16.8817839 C25.132133,17.0303632 25.3526022,17.2184809 25.5443174,17.4461427 C25.7360326,17.6738045 25.8822133,17.925427 25.9828638,18.2010176 C26.0835142,18.4766082 26.1338387,18.7677714 26.1338387,19.0745157 C26.1338387,20.1289494 25.6066298,20.9005916 24.5521961,21.3894654 C25.9373385,21.8304104 26.6298994,22.6883231 26.6298994,23.9632293 C26.6298994,24.5527536 26.4789259,25.0835572 26.1769744,25.5556559 C25.875023,26.0277546 25.4676342,26.3764315 24.954796,26.6016969 C24.633673,26.7358975 24.2646268,26.8305555 23.8476462,26.8856736 C23.4306656,26.9407917 22.9441955,26.9683504 22.3882214,26.9683504 Z M22.2300571,22.288126 L20.0085681,22.288126 L20.0085681,25.3651399 L22.30195,25.3651399 C23.744607,25.3651399 24.4659247,24.8451201 24.4659247,23.8050651 C24.4659247,23.2730554 24.2790051,22.8872343 23.9051605,22.6475902 C23.5313158,22.4079462 22.9729536,22.288126 22.2300571,22.288126 Z M20.0085681,18.0320694 L20.0085681,20.7568083 L21.9640536,20.7568083 C22.4960633,20.7568083 22.9070466,20.7064839 23.1970159,20.6058334 C23.4869852,20.5051829 23.7086526,20.3134705 23.8620248,20.0306906 C23.9818468,19.8293896 24.0417569,19.6041276 24.0417569,19.3548978 C24.0417569,18.8228881 23.8524409,18.4694185 23.4738034,18.2944783 C23.0951658,18.1195382 22.5176324,18.0320694 21.7411857,18.0320694 L20.0085681,18.0320694 Z M37.4569622,23.6397115 C37.4569622,23.9752132 37.3742863,24.3382684 37.2089319,24.7288882 C37.0435775,25.1195079 36.7835676,25.5029326 36.4288945,25.8791737 C36.0742213,26.2554148 35.6213009,26.5609564 35.0701197,26.7958075 C34.5189384,27.0306587 33.8767021,27.1480825 33.1433914,27.1480825 C32.5874172,27.1480825 32.0817759,27.0953616 31.6264523,26.9899182 C31.1711286,26.8844749 30.7577489,26.7203212 30.3863007,26.4974522 C30.0148524,26.2745833 29.6733648,25.9810238 29.3618276,25.6167648 C29.0838405,25.2860561 28.8465965,24.9158116 28.6500884,24.5060203 C28.4535803,24.0962291 28.3062014,23.6588853 28.2079474,23.1939759 C28.1096933,22.7290665 28.060567,22.2354072 28.060567,21.7129832 C28.060567,20.8646434 28.1839819,20.1049832 28.4308152,19.43398 C28.6776486,18.7629767 29.0311182,18.1890379 29.4912347,17.7121463 C29.9513512,17.2352547 30.4905422,16.8721994 31.1088238,16.6229696 C31.7271054,16.3737398 32.3861165,16.2491268 33.0858771,16.2491268 C33.9390098,16.2491268 34.69867,16.4192715 35.3648804,16.759566 C36.0310907,17.0998605 36.5415248,17.5204295 36.896198,18.0212855 C37.2508712,18.5221415 37.4282051,18.9954314 37.4282051,19.4411692 C37.4282051,19.6856061 37.3419345,19.9012825 37.1693908,20.0882049 C36.9968471,20.2751272 36.78836,20.368587 36.5439231,20.368587 C36.2707289,20.368587 36.0658363,20.3038841 35.9292392,20.1744763 C35.7926421,20.0450685 35.6404704,19.8222029 35.4727196,19.5058728 C35.1947326,18.9834488 34.8676234,18.5928349 34.4913823,18.3340194 C34.1151411,18.0752038 33.6514369,17.945798 33.1002557,17.945798 C32.2231585,17.945798 31.5246067,18.2788982 31.0045791,18.9451086 C30.4845516,19.611319 30.2245418,20.5578987 30.2245418,21.7848761 C30.2245418,22.6044586 30.3395692,23.2862356 30.5696274,23.8302276 C30.7996857,24.3742195 31.1255967,24.78041 31.5473701,25.0488113 C31.9691436,25.3172127 32.4628029,25.4514113 33.0283628,25.4514113 C33.6418515,25.4514113 34.160673,25.2992396 34.584843,24.9948917 C35.0090129,24.6905438 35.3289328,24.2436144 35.5446125,23.6540901 C35.6356772,23.376103 35.7483082,23.1496428 35.8825089,22.9747027 C36.0167095,22.7997626 36.2323859,22.7122938 36.5295445,22.7122938 C36.7835671,22.7122938 37.0016399,22.8009608 37.1837694,22.9782973 C37.3658989,23.1556339 37.4569622,23.3761031 37.4569622,23.6397115 Z" transform="translate(6 6)"/>
</svg>
