<svg xmlns="http://www.w3.org/2000/svg" width="56" height="56" viewBox="0 0 56 56"><path d="M 27.9999 51.9063 C 41.0546 51.9063 51.9063 41.0781 51.9063 28 C 51.9063 14.9453 41.0312 4.0937 27.9765 4.0937 C 14.8983 4.0937 4.0937 14.9453 4.0937 28 C 4.0937 41.0781 14.9218 51.9063 27.9999 51.9063 Z M 27.9999 47.9219 C 16.9374 47.9219 8.1014 39.0625 8.1014 28 C 8.1014 16.9609 16.9140 8.0781 27.9765 8.0781 C 39.0155 8.0781 47.8983 16.9609 47.9219 28 C 47.9454 39.0625 39.0390 47.9219 27.9999 47.9219 Z M 28.0234 13.0469 C 27.4843 13.0469 27.0858 13.2812 26.6405 13.7266 L 18.6952 21.6484 C 18.3905 21.9531 18.2030 22.3750 18.2030 22.8672 C 18.2030 23.8281 18.9765 24.5547 19.9140 24.5547 C 20.4296 24.5547 20.8514 24.3672 21.1796 24.0156 L 24.0624 21.0859 L 26.4530 18.25 L 26.2655 23.2188 L 26.2655 32.8047 L 26.4530 37.7734 L 24.0624 34.9375 L 21.1796 32.0078 C 20.8514 31.6563 20.4296 31.4688 19.9140 31.4688 C 18.9765 31.4688 18.2030 32.1953 18.2030 33.1563 C 18.2030 33.6484 18.3905 34.0703 18.6952 34.3750 L 26.6405 42.2969 C 27.0858 42.7422 27.4843 42.9766 28.0234 42.9766 C 28.5155 42.9766 28.8905 42.7656 29.3827 42.2969 L 37.3280 34.3750 C 37.6327 34.0703 37.7968 33.6484 37.7968 33.1563 C 37.7968 32.1953 37.0702 31.4688 36.1093 31.4688 C 35.5936 31.4688 35.1718 31.6797 34.8671 32.0078 L 31.9374 34.9375 L 29.5936 37.75 L 29.7812 32.8047 L 29.7812 23.2188 L 29.5936 18.2734 L 31.9374 21.0859 L 34.8671 24.0156 C 35.1718 24.3437 35.5936 24.5547 36.1093 24.5547 C 37.0702 24.5547 37.7968 23.8281 37.7968 22.8672 C 37.7968 22.3750 37.6327 21.9531 37.3280 21.6484 L 29.3827 13.7266 C 28.8905 13.2578 28.5155 13.0469 28.0234 13.0469 Z"/></svg>