<svg xmlns="http://www.w3.org/2000/svg" width="56" height="56" viewBox="0 0 56 56"><path d="M 27.9999 51.9063 C 41.0546 51.9063 51.9063 41.0781 51.9063 28 C 51.9063 14.9453 41.0312 4.0937 27.9765 4.0937 C 14.8983 4.0937 4.0937 14.9453 4.0937 28 C 4.0937 41.0781 14.9218 51.9063 27.9999 51.9063 Z M 35.2655 34.3984 C 34.0936 34.3984 33.3671 33.6250 33.3671 32.4063 L 33.3671 27.9297 L 33.7421 23.8984 L 30.0155 27.8828 L 20.4999 37.3984 C 20.1249 37.7734 19.6562 37.9844 19.0234 37.9844 C 17.8749 37.9844 17.1483 37.2344 17.1483 36.0625 C 17.1483 35.5469 17.3827 35.0547 17.7577 34.6797 L 27.2733 25.1641 L 31.3046 21.4141 L 27.4843 21.8359 L 22.7733 21.8359 C 21.5546 21.8359 20.7343 21.0625 20.7343 19.9375 C 20.7343 18.7656 21.5312 18.0390 22.7265 18.0390 L 34.9843 18.0390 C 36.3202 18.0390 37.1171 18.6484 37.1171 20.1719 L 37.1171 32.3359 C 37.1171 33.5547 36.3905 34.3984 35.2655 34.3984 Z"/></svg>