<svg xmlns="http://www.w3.org/2000/svg" width="56" height="56" viewBox="0 0 56 56"><path d="M 27.9999 51.9063 C 41.0546 51.9063 51.9063 41.0781 51.9063 28 C 51.9063 14.9453 41.0312 4.0937 27.9765 4.0937 C 14.8983 4.0937 4.0937 14.9453 4.0937 28 C 4.0937 41.0781 14.9218 51.9063 27.9999 51.9063 Z M 27.9999 47.9219 C 16.9374 47.9219 8.1014 39.0625 8.1014 28 C 8.1014 16.9609 16.9140 8.0781 27.9765 8.0781 C 39.0155 8.0781 47.8983 16.9609 47.9219 28 C 47.9454 39.0625 39.0390 47.9219 27.9999 47.9219 Z M 39.0390 20.5234 C 39.0390 19.5859 38.3827 18.9297 37.4452 18.9297 L 25.3046 18.9297 L 21.7421 19.0937 L 24.3436 16.9141 L 25.7030 15.7890 C 26.0312 15.5547 26.1483 15.1328 26.1483 14.6641 C 26.1483 13.7968 25.4921 13.1406 24.6249 13.1406 C 24.1796 13.1406 23.8046 13.2812 23.5234 13.5625 L 17.5936 19.1875 C 17.1483 19.6094 16.9609 20.0547 16.9609 20.5234 C 16.9609 20.9922 17.1718 21.5078 17.5936 21.9063 L 23.5234 27.4844 C 23.8046 27.7656 24.1796 27.9297 24.6249 27.9297 C 25.4921 27.9297 26.1483 27.25 26.1483 26.3828 C 26.1483 25.9141 26.0312 25.4688 25.7030 25.2344 L 24.3436 24.1563 L 21.6952 21.9531 L 25.3046 22.1172 L 37.4452 22.1172 C 38.3827 22.1172 39.0390 21.4375 39.0390 20.5234 Z M 39.0390 34.8672 C 39.0390 34.4219 38.8749 33.9531 38.4296 33.5547 L 32.4999 27.9063 C 32.2187 27.6250 31.8436 27.5078 31.3983 27.5078 C 30.5077 27.5078 29.8514 28.1641 29.8514 29.0312 C 29.8514 29.5 30.0155 29.9453 30.3202 30.1563 L 31.6796 31.2812 L 34.2812 33.4375 L 30.6952 33.2968 L 18.5546 33.2968 C 17.6405 33.2968 16.9609 33.9531 16.9609 34.8672 C 16.9609 35.8047 17.6405 36.4609 18.5546 36.4609 L 30.6952 36.4609 L 34.3046 36.3203 L 31.6796 38.5234 L 30.3202 39.6016 C 30.0155 39.8125 29.8514 40.2812 29.8514 40.7266 C 29.8514 41.5937 30.5077 42.2734 31.3983 42.2734 C 31.8436 42.2734 32.2187 42.1328 32.4999 41.8516 L 38.4296 36.25 C 38.8514 35.8750 39.0390 35.3594 39.0390 34.8672 Z"/></svg>