<svg xmlns="http://www.w3.org/2000/svg" width="56" height="56" viewBox="0 0 56 56"><path d="M 13.7851 49.5742 L 42.2382 49.5742 C 47.1366 49.5742 49.5743 47.1367 49.5743 42.3086 L 49.5743 13.6914 C 49.5743 8.8633 47.1366 6.4258 42.2382 6.4258 L 13.7851 6.4258 C 8.9101 6.4258 6.4257 8.8398 6.4257 13.6914 L 6.4257 42.3086 C 6.4257 47.1602 8.9101 49.5742 13.7851 49.5742 Z M 13.8554 45.8008 C 11.5117 45.8008 10.1992 44.5586 10.1992 42.1211 L 10.1992 13.8789 C 10.1992 11.4414 11.5117 10.1992 13.8554 10.1992 L 42.1679 10.1992 C 44.4882 10.1992 45.8007 11.4414 45.8007 13.8789 L 45.8007 42.1211 C 45.8007 44.5586 44.4882 45.8008 42.1679 45.8008 Z M 20.6757 22.1523 C 19.6444 22.1523 18.9413 22.9258 18.9413 24.0274 L 18.9413 35.0664 C 18.9413 36.4492 19.7148 37.0118 20.9101 37.0118 L 32.0195 37.0118 C 33.1210 37.0118 33.8241 36.3320 33.8241 35.3008 C 33.8241 34.2461 33.0976 33.5664 31.9726 33.5664 L 27.7070 33.5664 L 24.2382 33.9414 L 27.8944 30.5430 L 36.5429 21.8945 C 36.8710 21.5664 37.1054 21.1211 37.1054 20.6523 C 37.1054 19.5977 36.4023 18.8945 35.3710 18.8945 C 34.8085 18.8945 34.3632 19.1055 34.0351 19.4336 L 25.4101 28.0820 L 22.0351 31.6680 L 22.3866 28.0352 L 22.3866 23.9805 C 22.3866 22.8555 21.7070 22.1523 20.6757 22.1523 Z"/></svg>