<svg xmlns="http://www.w3.org/2000/svg" width="56" height="56" viewBox="0 0 56 56"><path d="M 13.7851 49.5742 L 42.2382 49.5742 C 47.1366 49.5742 49.5743 47.1367 49.5743 42.3086 L 49.5743 13.6914 C 49.5743 8.8633 47.1366 6.4258 42.2382 6.4258 L 13.7851 6.4258 C 8.9101 6.4258 6.4257 8.8398 6.4257 13.6914 L 6.4257 42.3086 C 6.4257 47.1602 8.9101 49.5742 13.7851 49.5742 Z M 35.3007 19.9023 L 35.3007 36.0274 C 35.3007 37.1523 34.0820 37.6680 33.0039 37.0118 L 19.8320 29.2305 C 18.8476 28.6445 18.8710 27.3086 19.8320 26.7461 L 33.0039 18.9414 C 34.0117 18.3555 35.3007 18.8242 35.3007 19.9023 Z"/></svg>