<svg xmlns="http://www.w3.org/2000/svg" width="56" height="56" viewBox="0 0 56 56">
  <g fill-rule="evenodd" transform="translate(4 4)">
    <path d="M23.9202671,33.8315495 L21.4272435,33.8315495 L21.4272435,36.8571429 L18.310964,36.8571429 L18.310964,33.8315495 L17.4978098,33.8315495 L17.4978098,33.8247978 L14.5714286,33.8247978 L14.5714286,30.7924528 L17.4978098,30.7924528 L17.4978098,17.2075472 L14.5714286,17.2075472 L14.5714286,14.1752022 L18.310964,14.1752022 L18.310964,11.1428571 L21.4272435,11.1428571 L21.4272435,14.1752022 L23.9202671,14.1752022 L23.9202671,11.1428571 L27.0365466,11.1428571 L27.0365466,14.1752022 L26.2891264,14.1752022 C30.0828315,14.1752022 32.4626465,16.068641 32.4626465,19.0790726 C32.4626465,21.2313269 30.8107749,23.0294127 28.6689414,23.3427155 L28.6689414,23.4516904 C31.4127281,23.6560184 33.4285714,25.6039447 33.4285714,28.2057204 C33.4285714,31.5538989 30.9247437,33.6902608 26.8558193,33.8247978 L27.0365466,33.8247978 L27.0365466,36.8571429 L23.9202671,36.8571429 L23.9202671,33.8315495 Z M21.4285714,17.1428571 L21.4285714,22.2857143 L24.5945289,22.2857143 C26.943465,22.2857143 28.2857143,21.312 28.2857143,19.6388571 C28.2857143,18.048 27.1039514,17.1428571 25.0468085,17.1428571 L21.4285714,17.1428571 Z M21.4285714,30.8571429 L25.2272727,30.8571429 C27.7694805,30.8571429 29.1428571,29.797477 29.1428571,27.8213433 C29.1428571,25.8881691 27.7256494,24.8571429 25.125,24.8571429 L21.4285714,24.8571429 L21.4285714,30.8571429 Z"/>
    <path fill-rule="nonzero" d="M24,44 C35.045695,44 44,35.045695 44,24 C44,12.954305 35.045695,4 24,4 C12.954305,4 4,12.954305 4,24 C4,35.045695 12.954305,44 24,44 Z M24,48 C10.745166,48 0,37.254834 0,24 C0,10.745166 10.745166,0 24,0 C37.254834,0 48,10.745166 48,24 C48,37.254834 37.254834,48 24,48 Z"/>
  </g>
</svg>
