<svg xmlns="http://www.w3.org/2000/svg" width="56" height="56" viewBox="0 0 56 56"><path d="M 27.9999 51.9063 C 41.0546 51.9063 51.9063 41.0781 51.9063 28 C 51.9063 14.9453 41.0312 4.0937 27.9765 4.0937 C 14.8983 4.0937 4.0937 14.9453 4.0937 28 C 4.0937 41.0781 14.9218 51.9063 27.9999 51.9063 Z M 27.9999 47.9219 C 16.9374 47.9219 8.1014 39.0625 8.1014 28 C 8.1014 16.9609 16.9140 8.0781 27.9765 8.0781 C 39.0155 8.0781 47.8983 16.9609 47.9219 28 C 47.9454 39.0625 39.0390 47.9219 27.9999 47.9219 Z M 25.0468 42.3906 L 37.5390 26.5234 C 38.5234 25.2812 38.0780 24.2734 36.8124 24.2734 L 30.4609 24.2734 L 32.2655 14.5234 C 32.4999 13.1641 31.0468 12.5312 30.1562 13.6328 L 17.6874 29.5 C 16.6796 30.7422 17.1249 31.7734 18.4140 31.7734 L 24.7421 31.7734 L 22.9609 41.5234 C 22.7030 42.8828 24.1562 43.5156 25.0468 42.3906 Z"/></svg>