<svg xmlns="http://www.w3.org/2000/svg" width="56" height="56" viewBox="0 0 56 56"><path d="M 27.9532 3.6367 C 26.8985 3.6367 25.9142 4.0820 24.9766 5.6992 L 20.6407 12.9414 L 12.9064 12.9414 C 5.9454 12.9414 2.1720 16.7852 2.1720 23.6758 L 2.1720 41.6289 C 2.1720 48.5195 5.9454 52.3633 12.9064 52.3633 L 43.0938 52.3633 C 50.0783 52.3633 53.8280 48.4961 53.8280 41.6289 L 53.8280 23.6758 C 53.8280 16.8086 50.0783 12.9414 43.0938 12.9414 L 35.2657 12.9414 L 30.9298 5.6992 C 29.9923 4.0820 29.0079 3.6367 27.9532 3.6367 Z M 27.9532 7.4805 L 31.8907 14.8164 C 32.6407 16.3399 33.2032 16.7148 34.8673 16.7148 L 43.0938 16.7148 C 47.8280 16.7148 50.0548 19.1055 50.0548 23.6758 L 50.0548 41.6055 C 50.0548 46.1758 47.8280 48.5898 43.0938 48.5898 L 12.9298 48.5898 C 8.1720 48.5898 5.9454 46.1758 5.9454 41.6055 L 5.9454 23.6758 C 5.9454 19.1055 8.1720 16.7148 12.9298 16.7148 L 21.0391 16.7148 C 22.7032 16.7148 23.2657 16.3399 24.0391 14.8164 Z"/></svg>