<svg xmlns="http://www.w3.org/2000/svg" width="56" height="56" viewBox="0 0 56 56">
  <path fill-rule="evenodd" d="M48,48 L0,48 L0,3 C0,1.34314575 1.34314575,0 3,0 L21,0 C22.6568542,0 24,1.34314575 24,3 L24,45 L27,45 L27,20 C27,18.8954305 27.8954305,18 29,18 L46,18 C47.1045695,18 48,18.8954305 48,20 L48,48 Z M32,23 C31.4477153,23 31,23.4477153 31,24 L31,27 C31,27.5522847 31.4477153,28 32,28 L35,28 C35.5522847,28 36,27.5522847 36,27 L36,24 C36,23.4477153 35.5522847,23 35,23 L32,23 Z M32,33 C31.4477153,33 31,33.4477153 31,34 L31,37 C31,37.5522847 31.4477153,38 32,38 L35,38 C35.5522847,38 36,37.5522847 36,37 L36,34 C36,33.4477153 35.5522847,33 35,33 L32,33 Z M40,23 C39.4477153,23 39,23.4477153 39,24 L39,27 C39,27.5522847 39.4477153,28 40,28 L43,28 C43.5522847,28 44,27.5522847 44,27 L44,24 C44,23.4477153 43.5522847,23 43,23 L40,23 Z M40,33 C39.4477153,33 39,33.4477153 39,34 L39,37 C39,37.5522847 39.4477153,38 40,38 L43,38 C43.5522847,38 44,37.5522847 44,37 L44,34 C44,33.4477153 43.5522847,33 43,33 L40,33 Z M5,5 C4.44771525,5 4,5.44771525 4,6 L4,9 C4,9.55228475 4.44771525,10 5,10 L8,10 C8.55228475,10 9,9.55228475 9,9 L9,6 C9,5.44771525 8.55228475,5 8,5 L5,5 Z M5,15 C4.44771525,15 4,15.4477153 4,16 L4,19 C4,19.5522847 4.44771525,20 5,20 L8,20 C8.55228475,20 9,19.5522847 9,19 L9,16 C9,15.4477153 8.55228475,15 8,15 L5,15 Z M5,25 C4.44771525,25 4,25.4477153 4,26 L4,29 C4,29.5522847 4.44771525,30 5,30 L8,30 C8.55228475,30 9,29.5522847 9,29 L9,26 C9,25.4477153 8.55228475,25 8,25 L5,25 Z M5,35 C4.44771525,35 4,35.4477153 4,36 L4,39 C4,39.5522847 4.44771525,40 5,40 L8,40 C8.55228475,40 9,39.5522847 9,39 L9,36 C9,35.4477153 8.55228475,35 8,35 L5,35 Z M16,5 C15.4477153,5 15,5.44771525 15,6 L15,9 C15,9.55228475 15.4477153,10 16,10 L19,10 C19.5522847,10 20,9.55228475 20,9 L20,6 C20,5.44771525 19.5522847,5 19,5 L16,5 Z M16,15 C15.4477153,15 15,15.4477153 15,16 L15,19 C15,19.5522847 15.4477153,20 16,20 L19,20 C19.5522847,20 20,19.5522847 20,19 L20,16 C20,15.4477153 19.5522847,15 19,15 L16,15 Z M16,25 C15.4477153,25 15,25.4477153 15,26 L15,29 C15,29.5522847 15.4477153,30 16,30 L19,30 C19.5522847,30 20,29.5522847 20,29 L20,26 C20,25.4477153 19.5522847,25 19,25 L16,25 Z M16,35 C15.4477153,35 15,35.4477153 15,36 L15,39 C15,39.5522847 15.4477153,40 16,40 L19,40 C19.5522847,40 20,39.5522847 20,39 L20,36 C20,35.4477153 19.5522847,35 19,35 L16,35 Z" transform="translate(4 4)"/>
</svg>
