<svg xmlns="http://www.w3.org/2000/svg" width="56" height="56" viewBox="0 0 56 56">
  <path d="M0.17,22.559188 C0.17,10.5904526 11.7325761,0.885839053 26,0.885839053 C40.2652635,0.885839053 51.83,10.5904526 51.83,22.559188 C51.83,34.5300838 40.2652635,44.2346974 26,44.2346974 C24.4509778,44.2346974 22.9365222,44.120195 21.4631148,43.9019924 C21.4609543,43.9019924 21.4566335,43.899832 21.4544731,43.899832 C17.9653923,43.0680697 16.4876639,46.9481868 8.53731265,48.9595393 C6.90403396,49.3743402 6.7074356,48.9616997 7.95831967,47.6352009 C10.2224415,45.2392934 12.4044672,41.3332512 10.1360246,39.6632454 C10.0668911,39.6221974 9.19192037,39.0194398 8.85921546,38.7753121 C3.5294555,34.8044573 0.17,29.0080463 0.17,22.559188 Z M14.336,15.6953 L38.1954,15.6953 C38.9454,15.6953 39.5547,15.1094 39.5547,14.336 C39.5547,13.586 38.9454,13 38.1954,13 L14.336,13 C13.586,13 13,13.586 13,14.336 C13,15.1094 13.586,15.6953 14.336,15.6953 Z M14.336,23.3125 L38.1954,23.3125 C38.9454,23.3125 39.5547,22.7266 39.5547,21.9531 C39.5547,21.2266 38.9454,20.5938 38.1954,20.5938 L14.336,20.5938 C13.586,20.5938 13,21.2266 13,21.9531 C13,22.7266 13.586,23.3125 14.336,23.3125 Z M14.336,30.9531 L29.8516,30.9531 C30.6016,30.9531 31.211,30.3672 31.211,29.6172 C31.211,28.8438 30.6016,28.2344 29.8516,28.2344 L14.336,28.2344 C13.586,28.2344 13,28.8438 13,29.6172 C13,30.3672 13.586,30.9531 14.336,30.9531 Z" transform="translate(2 3)"/>
</svg>
