<svg xmlns="http://www.w3.org/2000/svg" width="56" height="56" viewBox="0 0 56 56"><path d="M 13.7851 49.5742 L 42.2382 49.5742 C 47.1366 49.5742 49.5743 47.1367 49.5743 42.3086 L 49.5743 13.6914 C 49.5743 8.8633 47.1366 6.4258 42.2382 6.4258 L 13.7851 6.4258 C 8.9101 6.4258 6.4257 8.8398 6.4257 13.6914 L 6.4257 42.3086 C 6.4257 47.1602 8.9101 49.5742 13.7851 49.5742 Z M 24.8241 39.9883 C 24.0039 39.9883 23.3944 39.6367 22.7382 38.8398 L 15.9648 30.4961 C 15.6132 30.0508 15.4023 29.4883 15.4023 28.9727 C 15.4023 27.8711 16.2695 27.0274 17.3007 27.0274 C 17.9804 27.0274 18.5663 27.2852 19.1054 28.0118 L 24.7070 35.2539 L 35.6054 17.7930 C 36.0507 17.0664 36.6601 16.7149 37.2695 16.7149 C 38.3007 16.7149 39.3085 17.3945 39.3085 18.5196 C 39.3085 19.0352 39.0039 19.5977 38.6992 20.0664 L 26.7929 38.8398 C 26.2773 39.6133 25.6210 39.9883 24.8241 39.9883 Z"/></svg>