<svg xmlns="http://www.w3.org/2000/svg" width="56" height="56" viewBox="0 0 56 56"><path d="M 13.7851 49.5742 L 42.2382 49.5742 C 47.1366 49.5742 49.5743 47.1367 49.5743 42.3086 L 49.5743 13.6914 C 49.5743 8.8633 47.1366 6.4258 42.2382 6.4258 L 13.7851 6.4258 C 8.9101 6.4258 6.4257 8.8398 6.4257 13.6914 L 6.4257 42.3086 C 6.4257 47.1602 8.9101 49.5742 13.7851 49.5742 Z M 13.8554 45.8008 C 11.5117 45.8008 10.1992 44.5586 10.1992 42.1211 L 10.1992 13.8789 C 10.1992 11.4414 11.5117 10.1992 13.8554 10.1992 L 42.1679 10.1992 C 44.4882 10.1992 45.8007 11.4414 45.8007 13.8789 L 45.8007 42.1211 C 45.8007 44.5586 44.4882 45.8008 42.1679 45.8008 Z M 33.4726 39.5664 C 34.1992 38.8867 34.1992 37.7149 33.4960 37.0586 L 23.8632 27.9883 L 33.4960 18.9414 C 34.2226 18.2617 34.1757 17.0898 33.4492 16.4102 C 32.7695 15.7774 31.6913 15.8242 30.9648 16.4805 L 21.2148 25.6914 C 19.8788 26.9102 19.9023 29.0664 21.2148 30.3086 L 30.9648 39.4961 C 31.6210 40.1289 32.8398 40.1758 33.4726 39.5664 Z"/></svg>