<svg xmlns="http://www.w3.org/2000/svg" width="56" height="56" viewBox="0 0 56 56"><path d="M 27.9999 51.9063 C 41.0546 51.9063 51.9063 41.0781 51.9063 28 C 51.9063 14.9453 41.0312 4.0937 27.9765 4.0937 C 14.8983 4.0937 4.0937 14.9453 4.0937 28 C 4.0937 41.0781 14.9218 51.9063 27.9999 51.9063 Z M 27.9999 47.9219 C 16.9374 47.9219 8.1014 39.0625 8.1014 28 C 8.1014 16.9609 16.9140 8.0781 27.9765 8.0781 C 39.0155 8.0781 47.8983 16.9609 47.9219 28 C 47.9454 39.0625 39.0390 47.9219 27.9999 47.9219 Z M 30.3202 21.2266 C 28.8436 19.6563 27.1327 19.6563 25.6796 21.2266 L 16.4687 30.9766 C 15.7890 31.7266 15.7421 32.8047 16.3983 33.4609 C 17.1014 34.2109 18.2499 34.2109 18.9296 33.4844 L 27.9999 23.8750 L 37.0702 33.4844 C 37.7265 34.2109 38.8749 34.2109 39.5780 33.4609 C 40.2343 32.8047 40.2109 31.7266 39.5077 30.9766 Z"/></svg>