<svg xmlns="http://www.w3.org/2000/svg" width="56" height="56" viewBox="0 0 56 56"><path d="M 19.4102 20.4063 C 23.6759 20.4063 27.2383 16.8672 27.2383 12.6016 C 27.2383 8.3359 23.6759 4.7734 19.4102 4.7734 C 15.1212 4.7734 11.5586 8.3359 11.5586 12.6016 C 11.5586 16.8672 15.1212 20.4063 19.4102 20.4063 Z M 36.5899 20.4063 C 40.8555 20.4063 44.4181 16.8672 44.4181 12.6016 C 44.4181 8.3359 40.8555 4.7734 36.5899 4.7734 C 32.3243 4.7734 28.7618 8.3359 28.7618 12.6016 C 28.7618 16.8672 32.3243 20.4063 36.5899 20.4063 Z M 19.4102 16.6328 C 17.1837 16.6328 15.3321 14.7812 15.3321 12.6016 C 15.3321 10.3984 17.1837 8.5469 19.4102 8.5469 C 21.6134 8.5469 23.4649 10.3984 23.4649 12.6016 C 23.4649 14.7812 21.6134 16.6328 19.4102 16.6328 Z M 36.5899 16.6328 C 34.3868 16.6328 32.5352 14.7812 32.5352 12.6016 C 32.5352 10.3984 34.3868 8.5469 36.5899 8.5469 C 38.7930 8.5469 40.6446 10.3984 40.6446 12.6016 C 40.6446 14.7812 38.7930 16.6328 36.5899 16.6328 Z M 27.9883 35.8281 C 32.2540 35.8281 35.8399 32.2656 35.8399 28 C 35.8399 23.7344 32.2540 20.1484 27.9883 20.1484 C 23.7227 20.1484 20.1602 23.7344 20.1602 28 C 20.1602 32.2656 23.7227 35.8281 27.9883 35.8281 Z M 10.8086 35.8281 C 15.0743 35.8281 18.6368 32.2656 18.6368 28 C 18.6368 23.7344 15.0743 20.1484 10.8086 20.1484 C 6.5430 20.1484 2.9805 23.7344 2.9805 28 C 2.9805 32.2656 6.5430 35.8281 10.8086 35.8281 Z M 45.1681 35.8281 C 49.4569 35.8281 53.0195 32.2656 53.0195 28 C 53.0195 23.7344 49.4569 20.1484 45.1681 20.1484 C 40.9024 20.1484 37.3399 23.7344 37.3399 28 C 37.3399 32.2656 40.9024 35.8281 45.1681 35.8281 Z M 27.9883 32.0547 C 25.7852 32.0547 23.9337 30.2032 23.9337 28 C 23.9337 25.7969 25.7852 23.9219 27.9883 23.9219 C 30.1915 23.9219 32.0665 25.7969 32.0665 28 C 32.0665 30.2032 30.1915 32.0547 27.9883 32.0547 Z M 10.8086 32.0547 C 8.6055 32.0547 6.7540 30.2032 6.7540 28 C 6.7540 25.7969 8.6055 23.9219 10.8086 23.9219 C 13.0118 23.9219 14.8634 25.7969 14.8634 28 C 14.8634 30.2032 13.0118 32.0547 10.8086 32.0547 Z M 45.1681 32.0547 C 42.9649 32.0547 41.1134 30.2032 41.1134 28 C 41.1134 25.7969 42.9649 23.9219 45.1681 23.9219 C 47.3948 23.9219 49.2462 25.7969 49.2462 28 C 49.2462 30.2032 47.3948 32.0547 45.1681 32.0547 Z M 19.4102 51.2266 C 23.6759 51.2266 27.2383 47.6641 27.2383 43.3750 C 27.2383 39.1094 23.6759 35.5703 19.4102 35.5703 C 15.1212 35.5703 11.5586 39.1094 11.5586 43.3750 C 11.5586 47.6641 15.1212 51.2266 19.4102 51.2266 Z M 36.5899 51.2266 C 40.8555 51.2266 44.4181 47.6641 44.4181 43.3750 C 44.4181 39.1094 40.8555 35.5703 36.5899 35.5703 C 32.3243 35.5703 28.7618 39.1094 28.7618 43.3750 C 28.7618 47.6641 32.3243 51.2266 36.5899 51.2266 Z M 19.4102 47.4531 C 17.1837 47.4531 15.3321 45.6016 15.3321 43.3750 C 15.3321 41.1953 17.1837 39.3437 19.4102 39.3437 C 21.6134 39.3437 23.4649 41.1953 23.4649 43.3750 C 23.4649 45.6016 21.6134 47.4531 19.4102 47.4531 Z M 36.5899 47.4531 C 34.3868 47.4531 32.5352 45.6016 32.5352 43.3750 C 32.5352 41.1953 34.3868 39.3437 36.5899 39.3437 C 38.7930 39.3437 40.6446 41.1953 40.6446 43.3750 C 40.6446 45.6016 38.7930 47.4531 36.5899 47.4531 Z"/></svg>