<svg xmlns="http://www.w3.org/2000/svg" width="56" height="56" viewBox="0 0 56 56"><path d="M 13.7851 49.5742 L 42.2382 49.5742 C 47.1366 49.5742 49.5743 47.1367 49.5743 42.3086 L 49.5743 13.6914 C 49.5743 8.8633 47.1366 6.4258 42.2382 6.4258 L 13.7851 6.4258 C 8.9101 6.4258 6.4257 8.8398 6.4257 13.6914 L 6.4257 42.3086 C 6.4257 47.1602 8.9101 49.5742 13.7851 49.5742 Z M 19.6913 38.3711 C 18.5429 38.3711 17.5820 37.4336 17.5820 36.2852 C 17.5820 35.7461 17.8163 35.2305 18.2382 34.8086 L 25.0351 27.9649 L 18.2382 21.1445 C 17.8163 20.7227 17.5820 20.2071 17.5820 19.6680 C 17.5820 18.4961 18.5429 17.5352 19.6913 17.5352 C 20.2539 17.5352 20.7460 17.7461 21.1679 18.1680 L 28.0117 25.0118 L 34.8554 18.1680 C 35.2539 17.7461 35.7695 17.5352 36.3085 17.5352 C 37.4804 17.5352 38.4413 18.4961 38.4413 19.6680 C 38.4413 20.2071 38.2070 20.7227 37.7851 21.1445 L 30.9648 27.9649 L 37.7851 34.8086 C 38.2070 35.2305 38.4413 35.7461 38.4413 36.2852 C 38.4413 37.4336 37.4804 38.3711 36.3085 38.3711 C 35.7695 38.3711 35.2539 38.1602 34.8788 37.7852 L 28.0117 30.8945 L 21.1444 37.7852 C 20.7460 38.1602 20.2773 38.3711 19.6913 38.3711 Z"/></svg>