<svg xmlns="http://www.w3.org/2000/svg" width="56" height="56" viewBox="0 0 56 56"><path d="M 36.0607 9.1791 C 36.9284 9.1791 37.6614 8.4463 37.6614 7.5785 L 37.6614 3.4131 C 37.6614 2.5260 36.9284 1.8128 36.0607 1.8128 C 35.1736 1.8128 34.4408 2.5260 34.4408 3.4131 L 34.4408 7.5785 C 34.4408 8.4463 35.1736 9.1791 36.0607 9.1791 Z M 24.8568 12.9008 C 25.4931 13.5372 26.5538 13.5179 27.1515 12.9008 C 27.7301 12.2837 27.7493 11.2810 27.1515 10.6639 L 24.1626 7.6749 C 23.5455 7.0578 22.5427 7.0771 21.9256 7.6749 C 21.3086 8.2920 21.3086 9.3141 21.9256 9.9504 Z M 44.9696 12.9008 C 45.5675 13.5179 46.6089 13.5372 47.2452 12.9008 L 50.1763 9.9504 C 50.7936 9.3141 50.7936 8.2920 50.1763 7.6749 C 49.5595 7.0771 48.5563 7.0578 47.9394 7.6749 L 44.9696 10.6639 C 44.3527 11.2810 44.3720 12.2837 44.9696 12.9008 Z M 8.1763 40.7466 L 29.0413 40.7466 C 34.6143 40.7466 38.9338 36.5427 38.9338 31.1047 C 38.9338 31.0468 38.9338 30.9890 38.9338 30.9311 C 42.8294 29.6777 45.5868 26.0716 45.5868 21.8099 C 45.5868 16.5069 41.3445 12.2452 36.0607 12.2452 C 31.7604 12.2452 28.1736 15.0413 26.9587 18.8980 C 24.6447 16.2755 21.4050 14.7328 17.7411 14.7328 C 11.3581 14.7328 6.0165 19.6694 5.3802 25.9945 C 2.1598 26.9972 0 29.7934 0 33.2837 C 0 37.6419 3.2590 40.7466 8.1763 40.7466 Z M 36.0607 15.0799 C 39.8208 15.0799 42.7520 18.0303 42.7520 21.8099 C 42.7520 24.7025 41.0167 27.1129 38.4710 28.1157 C 37.2368 24.4132 33.7466 21.8292 29.3499 21.5785 C 29.4656 17.8953 32.3775 15.0799 36.0607 15.0799 Z M 8.0992 37.6612 C 4.8210 37.6612 3.0854 35.7906 3.0854 33.3609 C 3.0854 31.3361 4.2810 29.5234 7.1157 28.7713 C 8.0413 28.5207 8.3885 28.0964 8.4656 27.1322 C 8.9091 21.7135 12.9201 17.8182 17.7411 17.8182 C 21.4821 17.8182 24.3940 19.8815 26.1873 23.4876 C 26.5923 24.3168 27.0744 24.5868 28.0579 24.5868 C 33.0331 24.5868 35.8485 27.5950 35.8485 31.1818 C 35.8485 34.7879 32.9174 37.6612 29.0992 37.6612 Z M 50.2534 23.4105 L 54.4187 23.4105 C 55.2864 23.4105 56.0000 22.6970 56.0000 21.8099 C 56.0000 20.9229 55.2864 20.2093 54.4187 20.2093 L 50.2534 20.2093 C 49.3857 20.2093 48.6531 20.9229 48.6531 21.8099 C 48.6531 22.6970 49.3857 23.4105 50.2534 23.4105 Z M 47.9394 35.9642 C 48.5563 36.5813 49.5595 36.5620 50.1763 35.9449 C 50.7936 35.3278 50.7936 34.3058 50.1763 33.7080 L 47.2065 30.7383 C 46.5896 30.1405 45.5868 30.1212 44.9696 30.7383 C 44.3527 31.3554 44.3527 32.3967 44.9696 33.0138 Z M 23.1984 49.7907 L 25.7052 45.4325 C 26.0524 44.8347 25.8595 44.1598 25.2810 43.8320 C 24.7025 43.4849 24.0468 43.6777 23.6997 44.2755 L 21.1736 48.6529 C 20.8457 49.2121 21.0000 49.8871 21.5978 50.2342 C 22.1763 50.5427 22.8705 50.3499 23.1984 49.7907 Z M 7.8485 49.8099 L 10.3554 45.4518 C 10.7218 44.8540 10.5289 44.1791 9.9504 43.8512 C 9.3719 43.5041 8.6970 43.6970 8.3499 44.2948 L 5.8237 48.6722 C 5.4959 49.2314 5.6694 49.9064 6.2672 50.2535 C 6.8265 50.5620 7.5207 50.3691 7.8485 49.8099 Z M 29.2342 55.2094 L 31.7411 50.8706 C 32.0882 50.2727 31.8954 49.5978 31.3168 49.2507 C 30.7383 48.9229 30.0827 49.1157 29.7356 49.6942 L 27.1901 54.0909 C 26.8815 54.6309 27.0358 55.3058 27.6336 55.6529 C 28.2122 55.9807 28.9064 55.7879 29.2342 55.2094 Z M 13.8843 55.2287 L 16.3912 50.8898 C 16.7383 50.2920 16.5648 49.6171 15.9863 49.2700 C 15.3885 48.9421 14.7328 49.1350 14.3857 49.7135 L 11.8595 54.1102 C 11.5317 54.6502 11.7052 55.3251 12.2838 55.6722 C 12.8623 56 13.5565 55.8072 13.8843 55.2287 Z"/></svg>