<svg xmlns="http://www.w3.org/2000/svg" width="56" height="56" viewBox="0 0 56 56">
  <g fill="none" fill-rule="evenodd" transform="translate(8 2)">
    <path fill="#000" fill-rule="nonzero" d="M7.64048644,51.125 L32.5310864,51.125 C37.3826864,51.125 39.7966864,48.664 39.7966864,43.789 L39.7966864,22.5078 C39.7966864,19.4844 39.4685864,18.1718 37.5935864,16.25 L24.6560864,3.1015 C22.8748864,1.2734 21.4216864,0.875 18.7732864,0.875 L7.64048644,0.875 C2.81238644,0.875 0.374886438,3.3594 0.374886438,8.2344 L0.374886438,43.789 C0.374886438,48.6875 2.81238644,51.125 7.64048644,51.125 Z M7.82798644,47.3515 C5.41388644,47.3515 4.14828644,46.0625 4.14828644,43.7187 L4.14828644,8.3047 C4.14828644,5.9844 5.41388644,4.6484 7.85138644,4.6484 L18.2575864,4.6484 L18.2575864,18.2656 C18.2575864,21.2187 19.7575864,22.6718 22.6638864,22.6718 L36.0232864,22.6718 L36.0232864,43.7187 C36.0232864,46.0625 34.7810864,47.3515 32.3435864,47.3515 L7.82798644,47.3515 Z M23.0857864,19.1328 C22.1716864,19.1328 21.7966864,18.7578 21.7966864,17.8203 L21.7966864,5.375 L35.2966864,19.1328 L23.0857864,19.1328 Z"/>
    <path fill="#000" fill-rule="nonzero" d="M30.5857864,27.7820561 C31.366835,28.5631047 31.366835,29.8294347 30.5857864,30.6104833 L17,44.1962697 C16.2189514,44.9773183 14.9526215,44.9773183 14.1715729,44.1962697 L7.58578644,37.6104833 C6.80473785,36.8294347 6.80473785,35.5631047 7.58578644,34.7820561 C8.36683502,34.0010076 9.63316498,34.0010076 10.4142136,34.7820561 L14.1715729,38.5394155 L15.5206741,39.8317257 L17,38.5394155 L27.7573593,27.7820561 C28.5384079,27.0010076 29.8047379,27.0010076 30.5857864,27.7820561 Z"/>
  </g>
</svg>
