<svg xmlns="http://www.w3.org/2000/svg" width="56" height="56" viewBox="0 0 56 56">
  <g fill-rule="evenodd" transform="translate(11 3)">
    <path fill-rule="nonzero" d="M4,33 C4,40.1797017 9.82029825,46 17,46 C24.1797017,46 30,40.1797017 30,33 C30,27.4527136 25.7009671,18.253131 17,5.84116737 C8.2990287,18.25314 4,27.4527163 4,33 Z M17,50 C7.61115925,50 -3.63797881e-12,42.3888407 -3.63797881e-12,33 C-3.63797881e-12,26.0252774 5.12600111,15.432201 15.3780033,1.22077097 C15.5034407,1.0468884 15.656022,0.8943071 15.8299046,0.768869723 C16.7257064,0.122646022 17.9757651,0.324969086 18.621994,1.22076721 C28.873998,15.4321992 34,26.0252768 34,33 C34,42.3888407 26.3888407,50 17,50 Z"/>
    <path d="M16.3088287,40.887119 C18.5626711,40.9879262 20.5810485,40.1468735 22.363961,38.363961 C24.1468735,36.5810485 24.9879262,34.5626711 24.887119,32.3088287 L24.8871299,32.3088282 C24.8544988,31.5792638 25.4131818,30.958432 26.1421356,30.9142136 C26.8341878,30.8722336 27.4292384,31.3992212 27.4712184,32.0912733 C27.4751264,32.1556978 27.4740602,32.2203277 27.4680292,32.2845882 C27.148165,35.6925506 26.0562918,38.3284845 24.1923882,40.1923882 C22.3284845,42.0562918 19.6925506,43.148165 16.2845862,43.4680079 L16.2845882,43.4680292 C15.5942974,43.5328141 14.9821876,43.0257414 14.9174027,42.3354506 C14.9113718,42.27119 14.9103056,42.2065601 14.9142136,42.1421356 C14.958432,41.4131818 15.5792638,40.8544988 16.3088282,40.8871299 L16.3088287,40.887119 Z"/>
  </g>
</svg>
