<svg xmlns="http://www.w3.org/2000/svg" width="56" height="56" viewBox="0 0 56 56"><path d="M 15.3203 28 C 15.3203 25.3984 13.2344 23.3125 10.5860 23.3125 C 7.9844 23.3125 5.8985 25.3984 5.8985 28 C 5.8985 30.6016 7.9844 32.6875 10.5860 32.6875 C 13.2344 32.6875 15.3203 30.6016 15.3203 28 Z M 32.6641 28 C 32.6641 25.3984 30.6016 23.3125 28.0000 23.3125 C 25.3984 23.3125 23.3360 25.3984 23.3360 28 C 23.3360 30.6016 25.3984 32.6875 28.0000 32.6875 C 30.6016 32.6875 32.6641 30.6016 32.6641 28 Z M 50.1015 28 C 50.1015 25.3984 47.9922 23.3125 45.4141 23.3125 C 42.7657 23.3125 40.6797 25.3984 40.6797 28 C 40.6797 30.6016 42.7657 32.6875 45.4141 32.6875 C 47.9922 32.6875 50.1015 30.6016 50.1015 28 Z"/></svg>