<svg xmlns="http://www.w3.org/2000/svg" width="56" height="56" viewBox="0 0 56 56"><path d="M 0 39.3188 C 0 43.8577 2.9484 46.8061 7.3904 46.8061 C 9.6405 46.8061 11.8711 45.8363 13.5005 43.8190 L 17.0114 39.5709 C 17.5158 38.9696 18.0977 38.6787 18.6796 38.6787 L 37.3206 38.6787 C 37.9022 38.6787 38.4842 38.9696 38.9692 39.5709 L 42.4802 43.8190 C 44.1288 45.8363 46.3403 46.8061 48.6098 46.8061 C 53.0321 46.8061 56 43.8577 56 39.3188 C 56 37.3790 55.5344 35.1484 54.7975 32.6461 C 53.6141 28.6697 51.5388 23.2578 49.5406 19.0680 C 47.8920 15.5765 47.0383 13.9859 42.9263 13.0548 C 39.2600 12.2208 34.1974 11.6582 27.9903 11.6582 C 21.7832 11.6582 16.7205 12.2208 13.0738 13.0548 C 8.9615 13.9859 8.1081 15.5765 6.4399 19.0680 C 4.4614 23.2578 2.3859 28.6697 1.2026 32.6461 C .4461 35.1484 0 37.3790 0 39.3188 Z M 2.9678 39.4352 C 2.9678 38.2131 3.2393 36.7389 3.8601 34.6246 C 5.1597 30.1633 7.4098 24.3829 9.3689 20.0961 C 10.3194 18.0206 10.8431 16.7597 13.3647 16.1778 C 16.8757 15.3437 21.8607 14.7812 27.9903 14.7812 C 34.1199 14.7812 39.1051 15.3437 42.6351 16.1778 C 45.1374 16.7597 45.6614 18.0206 46.6311 20.0961 C 48.6289 24.3829 50.7820 30.1826 52.1204 34.6246 C 52.7608 36.7389 53.0321 38.2131 53.0321 39.4352 C 53.0321 42.1120 51.1507 43.7996 48.6484 43.7996 C 47.1741 43.7996 45.7389 43.0237 44.6138 41.6465 L 40.9670 37.2433 C 40.0358 36.1182 39.2409 35.5557 37.4561 35.5557 L 18.5438 35.5557 C 16.7399 35.5557 15.9640 36.1182 15.0329 37.2433 L 11.3862 41.6465 C 10.2612 43.0237 8.8258 43.7996 7.3516 43.7996 C 4.8493 43.7996 2.9678 42.1120 2.9678 39.4352 Z M 12.2979 25.3333 C 12.2979 26.3420 12.8798 26.9627 13.9079 26.9627 L 17.3800 26.9627 L 17.3800 30.3572 C 17.3800 31.3465 17.9619 31.9672 18.9318 31.9672 C 19.8823 31.9672 20.4448 31.3465 20.4448 30.3572 L 20.4448 26.9627 L 23.7423 26.9627 C 24.8285 26.9627 25.4687 26.3420 25.4687 25.3333 C 25.4687 24.3635 24.8285 23.7621 23.7423 23.7621 L 20.4448 23.7621 L 20.4448 20.3676 C 20.4448 19.3783 19.8823 18.7771 18.9318 18.7771 C 17.9619 18.7771 17.3800 19.3783 17.3800 20.3676 L 17.3800 23.7621 L 13.9079 23.7621 C 12.8798 23.7621 12.2979 24.3635 12.2979 25.3333 Z M 40.0553 25.0812 C 41.6265 25.0812 42.8488 23.8785 42.8488 22.3074 C 42.8488 20.7168 41.6265 19.4947 40.0553 19.4947 C 38.5036 19.4947 37.2622 20.7168 37.2622 22.3074 C 37.2622 23.8785 38.5036 25.0812 40.0553 25.0812 Z M 34.3526 30.8422 C 35.9238 30.8422 37.1263 29.6201 37.1263 28.0489 C 37.1263 26.4584 35.9238 25.2363 34.3526 25.2363 C 32.7815 25.2363 31.5594 26.4584 31.5594 28.0489 C 31.5594 29.6201 32.7815 30.8422 34.3526 30.8422 Z"/></svg>