<svg xmlns="http://www.w3.org/2000/svg" width="56" height="56" viewBox="0 0 56 56"><path d="M 27.9999 54.4024 C 41.0546 54.4024 51.9063 43.5742 51.9063 30.4961 C 51.9063 18.9649 43.4687 9.1914 32.5234 7.0351 L 32.5234 3.7070 C 32.5234 2.0430 31.3749 1.5976 30.0858 2.5117 L 22.6093 7.7383 C 21.5546 8.4883 21.5312 9.6133 22.6093 10.3867 L 30.0624 15.6367 C 31.3749 16.5742 32.5234 16.1289 32.5234 14.4414 L 32.5234 11.0898 C 41.3827 13.1055 47.8983 21.0039 47.8983 30.4961 C 47.8983 41.5586 39.0390 50.4180 27.9999 50.4180 C 16.9374 50.4180 8.0546 41.5586 8.0780 30.4961 C 8.1014 23.8398 11.3358 17.9570 16.3280 14.3945 C 17.2890 13.6680 17.5936 12.5664 16.9843 11.5820 C 16.4218 10.6211 15.1327 10.3633 14.1014 11.1602 C 8.0546 15.5430 4.0937 22.6211 4.0937 30.4961 C 4.0937 43.5742 14.9218 54.4024 27.9999 54.4024 Z M 35.8749 40.3633 C 39.7655 40.3633 42.3202 36.6836 42.3202 31.0586 C 42.3202 25.3867 39.7655 21.6602 35.8749 21.6602 C 31.9609 21.6602 29.4296 25.3867 29.4296 31.0820 C 29.4296 36.7070 31.9843 40.3633 35.8749 40.3633 Z M 19.9374 40.3867 C 24.2733 40.3867 26.6405 36.8945 26.6405 30.5664 C 26.6405 27.4961 25.9843 25.1289 24.7187 23.6992 C 23.6640 22.4102 22.1171 21.7070 20.2187 21.7070 C 16.4921 21.7070 14.1014 24.1680 14.1014 28.0351 C 14.1014 31.4570 16.3749 33.8711 19.5390 33.8711 C 21.5312 33.8711 23.0546 32.9102 23.8280 31.3867 C 23.8280 35.1602 22.2812 37.6914 19.9140 37.6914 C 18.7890 37.6914 17.8514 37.1289 17.3124 36.1680 C 16.9140 35.5351 16.5155 35.2773 15.9062 35.2773 C 15.1796 35.2773 14.5702 35.9102 14.5702 36.6367 C 14.5702 36.9180 14.5936 37.1524 14.7577 37.4805 C 15.2265 38.4414 16.8436 40.3867 19.9374 40.3867 Z M 20.3358 31.3867 C 18.3905 31.3867 17.0546 30.0039 17.0546 27.8945 C 17.0546 25.6914 18.3671 24.3086 20.3358 24.3086 C 22.2577 24.3086 23.5936 25.8086 23.5936 27.9414 C 23.5936 29.9805 22.2343 31.3867 20.3358 31.3867 Z M 35.8749 37.5273 C 33.8124 37.5273 32.4765 35.0664 32.4765 31.0586 C 32.4765 26.9805 33.7890 24.4961 35.8749 24.4961 C 37.9843 24.4961 39.2499 26.9570 39.2499 31.0586 C 39.2499 35.0664 37.9609 37.5273 35.8749 37.5273 Z"/></svg>