<svg xmlns="http://www.w3.org/2000/svg" width="56" height="56" viewBox="0 0 56 56"><path d="M 27.9999 54.4024 C 41.0546 54.4024 51.9063 43.5742 51.9063 30.4961 C 51.9063 18.9649 43.4687 9.1914 32.5234 7.0351 L 32.5234 3.7070 C 32.5234 2.0430 31.3749 1.5976 30.0858 2.5117 L 22.6093 7.7383 C 21.5546 8.4883 21.5312 9.6133 22.6093 10.3867 L 30.0624 15.6367 C 31.3749 16.5742 32.5234 16.1289 32.5234 14.4414 L 32.5234 11.0898 C 41.3827 13.1055 47.8983 21.0039 47.8983 30.4961 C 47.8983 41.5586 39.0390 50.4180 27.9999 50.4180 C 16.9374 50.4180 8.0546 41.5586 8.0780 30.4961 C 8.1014 23.8398 11.3358 17.9570 16.3280 14.3945 C 17.2890 13.6680 17.5936 12.5664 16.9843 11.5820 C 16.4218 10.6211 15.1327 10.3633 14.1014 11.1602 C 8.0546 15.5430 4.0937 22.6211 4.0937 30.4961 C 4.0937 43.5742 14.9218 54.4024 27.9999 54.4024 Z M 35.8983 40.3633 C 39.7655 40.3633 42.3202 36.6836 42.3202 31.0586 C 42.3202 25.3867 39.7655 21.6602 35.8983 21.6602 C 31.9843 21.6602 29.4530 25.3867 29.4530 31.0820 C 29.4530 36.7070 32.0077 40.3633 35.8983 40.3633 Z M 20.4530 40.3633 C 24.2265 40.3633 26.6640 37.8555 26.6640 34.0117 C 26.6640 30.6133 24.3202 28.1992 21.1562 28.1992 C 19.0702 28.1992 17.4530 29.2070 16.7733 30.7070 C 16.7733 26.9570 18.3671 24.4024 20.7812 24.4024 C 21.9999 24.4024 22.7499 24.8711 23.3124 25.7617 C 23.6874 26.3711 24.0858 26.6289 24.7890 26.6289 C 25.4921 26.6289 25.9609 26.0898 25.9609 25.3398 C 25.9609 25.0117 25.9140 24.7070 25.7968 24.4492 C 25.1640 22.8789 23.3827 21.6836 20.8983 21.6836 C 16.4218 21.6836 13.9140 25.1992 13.9140 31.4805 C 13.9140 33.9649 14.3124 35.9805 15.1093 37.4336 C 16.1640 39.3789 18.0858 40.3633 20.4530 40.3633 Z M 35.8983 37.5273 C 33.8124 37.5273 32.4999 35.0664 32.4999 31.0586 C 32.4999 26.9805 33.7890 24.4961 35.8983 24.4961 C 37.9843 24.4961 39.2499 26.9570 39.2499 31.0586 C 39.2499 35.0664 37.9609 37.5273 35.8983 37.5273 Z M 20.3124 37.7617 C 18.4140 37.7617 17.0077 36.2617 17.0077 34.1524 C 17.0077 32.0898 18.3905 30.6602 20.3124 30.6602 C 22.2812 30.6602 23.6405 32.0664 23.6405 34.1524 C 23.6405 36.3789 22.3280 37.7617 20.3124 37.7617 Z"/></svg>