<svg xmlns="http://www.w3.org/2000/svg" width="56" height="56" viewBox="0 0 56 56"><path d="M 7.2109 38.1836 L 17.5703 38.1836 L 17.5703 48.3555 C 17.5703 49.5039 18.2500 50.2070 19.3515 50.2070 C 20.4296 50.2070 21.1093 49.5039 21.1093 48.3555 L 21.1093 38.1836 L 34.7500 38.1836 L 34.7500 48.3555 C 34.7500 49.5039 35.4296 50.2070 36.5312 50.2070 C 37.6093 50.2070 38.2890 49.5039 38.2890 48.3555 L 38.2890 38.1836 L 48.8123 38.1836 C 49.9609 38.1836 50.6641 37.5039 50.6641 36.4023 C 50.6641 35.3008 49.9609 34.6445 48.8123 34.6445 L 38.2890 34.6445 L 38.2890 21.4492 L 48.8123 21.4492 C 49.9609 21.4492 50.6641 20.7695 50.6641 19.6914 C 50.6641 18.5898 49.9609 17.9101 48.8123 17.9101 L 38.2890 17.9101 L 38.2890 7.6679 C 38.2890 6.5195 37.6093 5.7930 36.5312 5.7930 C 35.4296 5.7930 34.7500 6.5195 34.7500 7.6679 L 34.7500 17.9101 L 21.1093 17.9101 L 21.1093 7.6679 C 21.1093 6.5195 20.4296 5.7930 19.3515 5.7930 C 18.2500 5.7930 17.5703 6.5195 17.5703 7.6679 L 17.5703 17.9101 L 7.2109 17.9101 C 6.0390 17.9101 5.3359 18.5898 5.3359 19.6914 C 5.3359 20.7695 6.0390 21.4492 7.2109 21.4492 L 17.5703 21.4492 L 17.5703 34.6445 L 7.2109 34.6445 C 6.0390 34.6445 5.3359 35.3008 5.3359 36.4023 C 5.3359 37.5039 6.0390 38.1836 7.2109 38.1836 Z M 21.1093 34.6445 L 21.1093 21.4492 L 34.7500 21.4492 L 34.7500 34.6445 Z"/></svg>