<svg xmlns="http://www.w3.org/2000/svg" width="56" height="56" viewBox="0 0 56 56"><path d="M 27.9999 51.9063 C 41.0546 51.9063 51.9063 41.0781 51.9063 28 C 51.9063 14.9453 41.0312 4.0937 27.9765 4.0937 C 14.8983 4.0937 4.0937 14.9453 4.0937 28 C 4.0937 41.0781 14.9218 51.9063 27.9999 51.9063 Z M 27.9999 47.9219 C 16.9374 47.9219 8.1014 39.0625 8.1014 28 C 8.1014 16.9609 16.9140 8.0781 27.9765 8.0781 C 39.0155 8.0781 47.8983 16.9609 47.9219 28 C 47.9454 39.0625 39.0390 47.9219 27.9999 47.9219 Z M 22.2577 17.5469 C 18.2265 17.5469 15.2968 20.5937 15.2968 24.8125 C 15.2968 31.0937 21.9530 36.8594 26.8280 39.9766 C 27.2265 40.2109 27.7421 40.5391 28.0468 40.5391 C 28.3514 40.5391 28.7968 40.2109 29.1718 39.9766 C 34.0468 36.8594 40.6796 31.0937 40.6796 24.8125 C 40.6796 20.5937 37.7733 17.5469 33.7187 17.5469 C 31.2109 17.5469 29.1718 19 27.9999 21.1797 C 26.8046 19 24.8124 17.5469 22.2577 17.5469 Z"/></svg>