<svg xmlns="http://www.w3.org/2000/svg" width="56" height="56" viewBox="0 0 56 56"><path d="M 17.7344 44.7578 L 32.5703 44.7578 C 33.6718 44.7578 34.4453 44.0781 34.4453 42.9766 C 34.4453 41.9219 33.6953 41.2422 32.5938 41.2422 L 27.3203 41.2422 L 33.0156 14.7578 L 38.2656 14.7578 C 39.3672 14.7578 40.1406 14.0781 40.1406 12.9766 C 40.1406 11.9219 39.3906 11.2422 38.2891 11.2422 L 23.4297 11.2422 C 22.3281 11.2422 21.5547 11.9219 21.5547 12.9766 C 21.5547 14.0781 22.3516 14.7578 23.4531 14.7578 L 28.6797 14.7578 L 22.9844 41.2422 L 17.7109 41.2422 C 16.6094 41.2422 15.8594 41.9219 15.8594 42.9766 C 15.8594 44.0781 16.6328 44.7578 17.7344 44.7578 Z"/></svg>