<svg xmlns="http://www.w3.org/2000/svg" width="56" height="56" viewBox="0 0 56 56"><path d="M 6.1959 40.3059 L 49.8239 40.3059 C 53.9281 40.3059 56 38.2537 56 34.2086 L 56 15.2459 C 56 11.1810 53.9281 9.1289 49.8239 9.1289 L 6.1959 9.1289 C 2.0719 9.1289 0 11.1810 0 15.2459 L 0 34.2086 C 0 38.2734 2.0719 40.3059 6.1959 40.3059 Z M 6.2551 37.1290 C 4.2819 37.1290 3.1769 36.0832 3.1769 34.0310 L 3.1769 15.4235 C 3.1769 13.3713 4.2819 12.3058 6.2551 12.3058 L 49.7649 12.3058 C 51.7184 12.3058 52.8232 13.3713 52.8232 15.4235 L 52.8232 34.0310 C 52.8232 36.0832 51.7184 37.1290 49.7649 37.1290 Z M 46.3117 19.8830 L 47.7128 19.8830 C 48.2850 19.8830 48.5412 19.6265 48.5412 19.0542 L 48.5412 17.6532 C 48.5412 17.1007 48.2850 16.8245 47.7128 16.8245 L 46.3117 16.8245 C 45.7395 16.8245 45.4829 17.1007 45.4829 17.6532 L 45.4829 19.0542 C 45.4829 19.6265 45.7395 19.8830 46.3117 19.8830 Z M 8.2283 19.8830 L 9.6293 19.8830 C 10.2016 19.8830 10.4581 19.6265 10.4581 19.0542 L 10.4581 17.6532 C 10.4581 17.1007 10.2016 16.8245 9.6293 16.8245 L 8.2283 16.8245 C 7.6561 16.8245 7.3996 17.1007 7.3996 17.6532 L 7.3996 19.0542 C 7.3996 19.6265 7.6561 19.8830 8.2283 19.8830 Z M 39.9578 19.8830 L 41.3588 19.8830 C 41.9311 19.8830 42.2075 19.6265 42.2075 19.0542 L 42.2075 17.6532 C 42.2075 17.1007 41.9311 16.8245 41.3588 16.8245 L 39.9578 16.8245 C 39.4053 16.8245 39.1289 17.1007 39.1289 17.6532 L 39.1289 19.0542 C 39.1289 19.6265 39.4053 19.8830 39.9578 19.8830 Z M 14.5624 19.8830 L 15.9831 19.8830 C 16.5356 19.8830 16.8119 19.6265 16.8119 19.0542 L 16.8119 17.6532 C 16.8119 17.1007 16.5356 16.8245 15.9831 16.8245 L 14.5624 16.8245 C 14.0099 16.8245 13.7336 17.1007 13.7336 17.6532 L 13.7336 19.0542 C 13.7336 19.6265 14.0099 19.8830 14.5624 19.8830 Z M 33.6040 19.8830 L 35.0248 19.8830 C 35.5771 19.8830 35.8536 19.6265 35.8536 19.0542 L 35.8536 17.6532 C 35.8536 17.1007 35.5771 16.8245 35.0248 16.8245 L 33.6040 16.8245 C 33.0515 16.8245 32.7753 17.1007 32.7753 17.6532 L 32.7753 19.0542 C 32.7753 19.6265 33.0515 19.8830 33.6040 19.8830 Z M 20.9162 19.8830 L 22.3369 19.8830 C 22.8894 19.8830 23.1657 19.6265 23.1657 19.0542 L 23.1657 17.6532 C 23.1657 17.1007 22.8894 16.8245 22.3369 16.8245 L 20.9162 16.8245 C 20.3637 16.8245 20.0874 17.1007 20.0874 17.6532 L 20.0874 19.0542 C 20.0874 19.6265 20.3637 19.8830 20.9162 19.8830 Z M 27.2700 19.8830 L 28.6710 19.8830 C 29.2432 19.8830 29.4997 19.6265 29.4997 19.0542 L 29.4997 17.6532 C 29.4997 17.1007 29.2432 16.8245 28.6710 16.8245 L 27.2700 16.8245 C 26.6977 16.8245 26.4412 17.1007 26.4412 17.6532 L 26.4412 19.0542 C 26.4412 19.6265 26.6977 19.8830 27.2700 19.8830 Z M 46.3117 26.2368 L 47.7128 26.2368 C 48.2850 26.2368 48.5412 25.9605 48.5412 25.4080 L 48.5412 24.0070 C 48.5412 23.4348 48.2850 23.1782 47.7128 23.1782 L 46.3117 23.1782 C 45.7395 23.1782 45.4829 23.4348 45.4829 24.0070 L 45.4829 25.4080 C 45.4829 25.9605 45.7395 26.2368 46.3117 26.2368 Z M 39.9578 26.2368 L 41.3588 26.2368 C 41.9311 26.2368 42.2075 25.9605 42.2075 25.4080 L 42.2075 24.0070 C 42.2075 23.4348 41.9311 23.1782 41.3588 23.1782 L 39.9578 23.1782 C 39.4053 23.1782 39.1289 23.4348 39.1289 24.0070 L 39.1289 25.4080 C 39.1289 25.9605 39.4053 26.2368 39.9578 26.2368 Z M 33.6040 26.2368 L 35.0248 26.2368 C 35.5771 26.2368 35.8536 25.9605 35.8536 25.4080 L 35.8536 24.0070 C 35.8536 23.4348 35.5771 23.1782 35.0248 23.1782 L 33.6040 23.1782 C 33.0515 23.1782 32.7753 23.4348 32.7753 24.0070 L 32.7753 25.4080 C 32.7753 25.9605 33.0515 26.2368 33.6040 26.2368 Z M 27.2700 26.2368 L 28.6710 26.2368 C 29.2432 26.2368 29.4997 25.9605 29.4997 25.4080 L 29.4997 24.0070 C 29.4997 23.4348 29.2432 23.1782 28.6710 23.1782 L 27.2700 23.1782 C 26.6977 23.1782 26.4412 23.4348 26.4412 24.0070 L 26.4412 25.4080 C 26.4412 25.9605 26.6977 26.2368 27.2700 26.2368 Z M 20.9162 26.2368 L 22.3369 26.2368 C 22.8894 26.2368 23.1657 25.9605 23.1657 25.4080 L 23.1657 24.0070 C 23.1657 23.4348 22.8894 23.1782 22.3369 23.1782 L 20.9162 23.1782 C 20.3637 23.1782 20.0874 23.4348 20.0874 24.0070 L 20.0874 25.4080 C 20.0874 25.9605 20.3637 26.2368 20.9162 26.2368 Z M 14.5624 26.2368 L 15.9831 26.2368 C 16.5356 26.2368 16.8119 25.9605 16.8119 25.4080 L 16.8119 24.0070 C 16.8119 23.4348 16.5356 23.1782 15.9831 23.1782 L 14.5624 23.1782 C 14.0099 23.1782 13.7336 23.4348 13.7336 24.0070 L 13.7336 25.4080 C 13.7336 25.9605 14.0099 26.2368 14.5624 26.2368 Z M 8.2283 26.2368 L 9.6293 26.2368 C 10.2016 26.2368 10.4581 25.9605 10.4581 25.4080 L 10.4581 24.0070 C 10.4581 23.4348 10.2016 23.1782 9.6293 23.1782 L 8.2283 23.1782 C 7.6561 23.1782 7.3996 23.4348 7.3996 24.0070 L 7.3996 25.4080 C 7.3996 25.9605 7.6561 26.2368 8.2283 26.2368 Z M 14.5624 32.5906 L 41.3588 32.5906 C 41.9311 32.5906 42.2075 32.3143 42.2075 31.7618 L 42.2075 30.3411 C 42.2075 29.7886 41.9311 29.5123 41.3588 29.5123 L 14.5624 29.5123 C 14.0099 29.5123 13.7336 29.7886 13.7336 30.3411 L 13.7336 31.7618 C 13.7336 32.3143 14.0099 32.5906 14.5624 32.5906 Z M 46.3117 32.5906 L 47.7128 32.5906 C 48.2850 32.5906 48.5412 32.3143 48.5412 31.7618 L 48.5412 30.3411 C 48.5412 29.7886 48.2850 29.5123 47.7128 29.5123 L 46.3117 29.5123 C 45.7395 29.5123 45.4829 29.7886 45.4829 30.3411 L 45.4829 31.7618 C 45.4829 32.3143 45.7395 32.5906 46.3117 32.5906 Z M 8.2283 32.5906 L 9.6293 32.5906 C 10.2016 32.5906 10.4581 32.3143 10.4581 31.7618 L 10.4581 30.3411 C 10.4581 29.7886 10.2016 29.5123 9.6293 29.5123 L 8.2283 29.5123 C 7.6561 29.5123 7.3996 29.7886 7.3996 30.3411 L 7.3996 31.7618 C 7.3996 32.3143 7.6561 32.5906 8.2283 32.5906 Z M 27.3489 51.3757 C 28.1382 51.3757 29.1051 50.9613 29.9141 50.6850 L 40.1550 46.9162 C 40.9248 46.6399 41.2206 45.9493 41.2206 45.4954 C 41.2206 44.5483 40.5498 43.7393 39.5040 43.7393 C 39.0105 43.7393 38.3005 44.0155 37.8467 44.1931 L 27.3686 48.1001 L 16.8908 44.1931 C 16.4172 44.0155 15.7463 43.7393 15.2333 43.7393 C 14.2467 43.7393 13.5166 44.5088 13.5166 45.4954 C 13.5166 45.9493 13.7928 46.6399 14.5822 46.9162 L 24.8429 50.6850 C 25.6519 50.9810 26.5991 51.3757 27.3489 51.3757 Z"/></svg>