<svg xmlns="http://www.w3.org/2000/svg" width="56" height="56" viewBox="0 0 56 56">
  <g transform="translate(5 6)">
    <path d="M7.96038047,10 L18.1055881,14.3017108 C21.06655,15.3648008 24.93345,15.3648008 27.8944119,14.3017108 L38.0396195,10 L27.8944119,5.69828918 C24.93345,4.6351992 21.06655,4.6351992 18.1055881,5.69828918 L7.96038047,10 Z M16.6400127,1.97499205 C20.5312561,0.542964914 25.4687439,0.542964914 29.3599873,1.97499205 L44.2864054,8.30400339 C44.5439437,8.46496481 44.7614427,8.68246386 44.9224042,8.94000212 C45.5078248,9.87667518 45.2230785,11.1105759 44.2864054,11.6959966 L29.3599873,18.0250079 C25.4687439,19.4570351 20.5312561,19.4570351 16.6400127,18.0250079 L1.71359457,11.6959966 C1.45605631,11.5350352 1.23855726,11.3175361 1.07759584,11.0599979 C0.492175181,10.1233248 0.77692151,8.88942406 1.71359457,8.30400339 L16.6400127,1.97499205 Z"/>
    <path d="M35.9266753,18.7239214 L36.6217226,18.2966717 C37.241781,17.9155182 38.0199527,17.901305 38.6535163,18.2595614 L44.5130807,20.5729248 C44.7706189,20.7338862 44.988118,20.9513852 45.1490794,21.2089235 C45.7345001,22.1455966 45.4497537,23.3794973 44.5130807,23.964918 L29.5866625,30.2939293 C25.6954191,31.7259565 20.7579314,31.7259565 16.866688,30.2939293 L1.94026983,23.964918 C1.68273157,23.8039566 1.46523252,23.5864575 1.3042711,23.3289193 C0.718850437,22.3922462 1.00359677,21.1583454 1.94026983,20.5729248 L7.17054273,18.3040042 C7.7882719,17.9179235 8.56706319,17.8982396 9.20350747,18.2526212 L10.0492661,18.7235521 C10.6883428,19.0793996 10.9179456,19.885945 10.5620982,20.5250217 C10.4615415,20.7056144 10.3201117,20.8601642 10.1491247,20.9763055 L6.77386016,22.2689214 L18.9866837,26.9019361 C21.580846,27.5232875 24.8725045,27.5232875 27.4666668,26.9019361 L39.6794904,22.2689214 L35.9060013,20.8468309 C35.3233624,20.4728523 35.1542099,19.6973606 35.5281884,19.1147217 C35.6299616,18.9561645 35.7661661,18.8225873 35.9266753,18.7239214 Z"/>
    <path d="M35.9266753,30.7239214 L36.6217226,30.2966717 C37.241781,29.9155182 38.0199527,29.901305 38.6535163,30.2595614 L44.5130807,32.5729248 C44.7706189,32.7338862 44.988118,32.9513852 45.1490794,33.2089235 C45.7345001,34.1455966 45.4497537,35.3794973 44.5130807,35.964918 L29.5866625,42.2939293 C25.6954191,43.7259565 20.7579314,43.7259565 16.866688,42.2939293 L1.94026983,35.964918 C1.68273157,35.8039566 1.46523252,35.5864575 1.3042711,35.3289193 C0.718850437,34.3922462 1.00359677,33.1583454 1.94026983,32.5729248 L7.17054273,30.3040042 C7.7882719,29.9179235 8.56706319,29.8982396 9.20350747,30.2526212 L10.0492661,30.7235521 C10.6883428,31.0793996 10.9179456,31.885945 10.5620982,32.5250217 C10.4615415,32.7056144 10.3201117,32.8601642 10.1491247,32.9763055 L6.77386016,34.2689214 L18.9866837,38.9019361 C21.580846,39.5232875 24.8725045,39.5232875 27.4666668,38.9019361 L39.6794904,34.2689214 L35.9060013,32.8468309 C35.3233624,32.4728523 35.1542099,31.6973606 35.5281884,31.1147217 C35.6299616,30.9561645 35.7661661,30.8225873 35.9266753,30.7239214 Z"/>
  </g>
</svg>
