<svg xmlns="http://www.w3.org/2000/svg" width="56" height="56" viewBox="0 0 56 56">
  <g transform="translate(5 7)">
    <path d="M18.7600085,20.6330147 C21.3541708,22.2543662 24.6458292,22.2543662 27.2399915,20.6330147 L39.4528151,13 L27.2399915,5.36698527 C24.6458292,3.74563384 21.3541708,3.74563384 18.7600085,5.36698527 L6.54718491,13 L18.7600085,20.6330147 Z M16.6400127,1.97499205 C20.5312561,-0.457035086 25.4687439,-0.457035086 29.3599873,1.97499205 L44.2864054,11.3040034 C44.5439437,11.4649648 44.7614427,11.6824639 44.9224042,11.9400021 C45.5078248,12.8766752 45.2230785,14.1105759 44.2864054,14.6959966 L29.3599873,24.0250079 C25.4687439,26.4570351 20.5312561,26.4570351 16.6400127,24.0250079 L1.71359457,14.6959966 C1.45605631,14.5350352 1.23855726,14.3175361 1.07759584,14.0599979 C0.492175181,13.1233248 0.77692151,11.8894241 1.71359457,11.3040034 L16.6400127,1.97499205 Z"/>
    <path d="M35.7,24.455 L36.3950473,24.0277503 C37.0151057,23.6465968 37.7932775,23.6323836 38.426841,23.99064 L44.2864054,27.3040034 C44.5439437,27.4649648 44.7614427,27.6824639 44.9224042,27.9400021 C45.5078248,28.8766752 45.2230785,30.1105759 44.2864054,30.6959966 L29.3599873,40.0250079 C25.4687439,42.4570351 20.5312561,42.4570351 16.6400127,40.0250079 L1.71359457,30.6959966 C1.45605631,30.5350352 1.23855726,30.3175361 1.07759584,30.0599979 C0.492175181,29.1233248 0.77692151,27.8894241 1.71359457,27.3040034 L6.94386748,24.0350828 C7.56159664,23.6490021 8.34038793,23.6293182 8.97683222,23.9836998 L9.82259081,24.4546307 C10.4616676,24.8104782 10.6912703,25.6170236 10.3354229,26.2561004 C10.2348663,26.436693 10.0934364,26.5912428 9.92244948,26.7073841 L6.54718491,29 L18.7600085,36.6330147 C21.3541708,38.2543662 24.6458292,38.2543662 27.2399915,36.6330147 L39.4528151,29 L35.6793261,26.5779095 C35.0966872,26.2039309 34.9275346,25.4284392 35.3015132,24.8458003 C35.4032863,24.6872432 35.5394908,24.5536659 35.7,24.455 Z"/>
  </g>
</svg>
