<svg xmlns="http://www.w3.org/2000/svg" width="56" height="56" viewBox="0 0 56 56"><path d="M 27.9999 51.9063 C 41.0546 51.9063 51.9063 41.0781 51.9063 28 C 51.9063 14.9453 41.0312 4.0937 27.9765 4.0937 C 14.8983 4.0937 4.0937 14.9453 4.0937 28 C 4.0937 41.0781 14.9218 51.9063 27.9999 51.9063 Z M 34.3514 38.0781 C 33.9062 38.0781 33.5312 37.9844 33.1796 37.7734 L 18.5077 30.1563 C 17.4765 29.6406 17.0780 29.0078 17.0780 28 C 17.0780 27.0859 17.5468 26.3828 18.5077 25.8437 L 33.1796 17.9219 C 33.5780 17.7344 33.9062 17.6406 34.4218 17.6406 C 35.5702 17.6406 36.3905 18.5078 36.3905 19.5859 C 36.3905 20.4766 35.9687 21.0625 34.9843 21.5781 L 22.5155 27.8594 L 22.5155 28 L 34.9843 34.1406 C 36.0155 34.6094 36.3905 35.1953 36.3905 36.1094 C 36.3905 37.2109 35.5468 38.0781 34.3514 38.0781 Z"/></svg>