<svg xmlns="http://www.w3.org/2000/svg" width="56" height="56" viewBox="0 0 56 56"><path d="M 19.5039 43.1524 L 36.4726 43.1524 C 37.2695 43.1524 37.7617 42.6602 37.7617 41.8633 L 37.7617 38.1133 C 37.7617 32.4414 46.0117 28.7852 46.0117 18.6602 C 46.0117 7.9961 38.7930 .8711 27.9883 .8711 C 17.1836 .8711 9.9883 7.9961 9.9883 18.6602 C 9.9883 28.7852 18.2148 32.4414 18.2148 38.1133 L 18.2148 41.8633 C 18.2148 42.6602 18.7304 43.1524 19.5039 43.1524 Z M 20.3711 49.4805 L 35.6055 49.4805 C 36.8008 49.4805 37.7617 48.4961 37.7617 47.2774 C 37.7617 46.0586 36.8008 45.0742 35.6055 45.0742 L 20.3711 45.0742 C 19.1758 45.0742 18.2148 46.0586 18.2148 47.2774 C 18.2148 48.4961 19.1758 49.4805 20.3711 49.4805 Z M 27.9883 55.1289 C 31.2226 55.1289 33.4961 53.6524 33.7304 51.3789 L 22.2461 51.3789 C 22.4570 53.6524 24.7304 55.1289 27.9883 55.1289 Z"/></svg>