<svg xmlns="http://www.w3.org/2000/svg" width="56" height="56" viewBox="0 0 56 56">
  <g fill-rule="evenodd" transform="translate(4 4)">
    <path fill-rule="nonzero" d="M24,44 C35.045695,44 44,35.045695 44,24 C44,12.954305 35.045695,4 24,4 C12.954305,4 4,12.954305 4,24 C4,35.045695 12.954305,44 24,44 Z M24,48 C10.745166,48 0,37.254834 0,24 C0,10.745166 10.745166,0 24,0 C37.254834,0 48,10.745166 48,24 C48,37.254834 37.254834,48 24,48 Z"/>
    <path d="M21.219308,15.8311942 L21.219308,24.1648996 L24.5432478,24.1648996 C27.6286272,24.1648996 29.171317,22.5426897 29.171317,19.9821429 C29.171317,17.4375 27.6286272,15.8311942 24.5591518,15.8311942 L21.219308,15.8311942 Z M25.4179687,27.0276228 L21.219308,27.0276228 L21.219308,30.1130022 L27.5968192,30.1130022 L27.5968192,31.9101562 L21.219308,31.9101562 L21.219308,35.3772321 L17.7045201,35.3772321 L17.7045201,31.9101562 L14.5714286,31.9101562 L14.5714286,30.1130022 L17.7045201,30.1130022 L17.7045201,27.0276228 L14.5714286,27.0276228 L14.5714286,25.2145647 L17.7045201,25.2145647 L17.7045201,12.8571429 L25.5292969,12.8571429 C29.9029018,12.8571429 32.749721,15.8789063 32.749721,19.9662388 C32.749721,24.0376674 29.8392857,27.0276228 25.4179687,27.0276228 Z"/>
  </g>
</svg>
