<svg xmlns="http://www.w3.org/2000/svg" width="56" height="56" viewBox="0 0 56 56">
  <path d="M37.586375,39.217708 C37.3832996,39.1307372 37.1546396,39.0576444 36.8742787,39.0168646 C36.6187409,38.982912 36.373925,38.9471725 36.138044,38.909646 C30.9450877,38.0840624 30.4232903,36.2381147 29.7460258,34.8228286 C29.1956368,34.5851606 28.9258032,34.3939541 28.6434608,33.4146904 C28.5219463,32.9965377 28.311083,31.1398682 28.4004319,30.4161424 C28.8275195,30.0158594 29.1509624,28.9990693 29.2921336,28.5273072 C29.6709728,27.2639142 29.7621086,26.9565541 30.1230781,25.2732214 C30.1749004,25.0337664 30.3107107,24.9354827 30.4215033,24.8943822 C30.757455,24.7728677 30.8342951,24.5030341 30.9450877,24.3028927 C31.2041994,23.8454265 30.9808272,23.6399241 31.3864711,22.5230632 C31.9046945,21.2525222 31.9851085,19.9444548 31.5919735,19.5691895 C31.3257139,19.3315215 31.1630989,19.5084323 31.0326496,19.5566807 C30.9450877,19.5906333 31.0129928,19.372622 31.0916198,19.0616879 C31.4025539,17.7822121 31.4043409,16.6975168 31.4883288,15.3858754 C31.5562339,14.3244109 31.4847548,13.3558691 31.3525185,12.7554447 C31.2274301,12.6303563 30.9039872,11.2383009 30.5340829,10.4234392 C29.9014929,9.02423588 28.0055098,8.80801162 27.3550501,8.52745616 C25.8093146,7.88057034 23.8758051,7.00316444 21.5831131,7.99314992 C20.562749,8.43274636 19.2046461,8.47563382 17.7268158,10.1393098 C17.3765683,10.5306578 16.7529131,10.1947061 16.055992,11.7172108 C15.3483489,13.20755 15.3108224,14.1903876 15.4716503,15.2572131 L15.423402,15.259 C15.423402,15.259 15.4412717,17.8108038 15.7539928,19.0902796 C15.8308328,19.4030006 15.896951,19.6192249 15.8111761,19.5870593 C15.6807267,19.5388109 15.502029,19.3851309 15.2357693,19.6227989 C14.8408473,19.9980641 15.0499237,21.2525222 15.5681471,22.5230632 C15.975578,23.6399241 15.7039574,23.9723019 16.1381929,24.5602174 C16.291873,24.7692938 16.4366181,24.8800864 16.602807,24.9497785 C16.7135996,24.9944529 16.8708537,25.0087487 16.9441197,25.2410558 C17.4212427,26.9726369 17.5088046,27.5051562 18.0055843,28.5344552 C18.2200216,28.9794125 18.4612635,30.0926995 18.9044339,30.525148 C18.9777,31.1345073 18.902647,32.8911061 18.8061502,33.4146904 C18.6524701,34.238487 18.3629798,34.476155 17.5874316,34.8228286 C17.1657049,36.1934403 16.0470571,37.4353896 11.3687502,38.8703325 C11.2097092,38.9185808 11.0453073,38.9686162 10.8791184,39.0168646 C10.7040417,39.0752235 10.5538581,39.1475848 10.4285676,39.231045 C14.0342761,42.4461382 18.7889636,44.4 24,44.4 C29.2182365,44.4 33.9788622,42.4407352 37.586375,39.2177109 L37.586375,39.217708 Z M24,48 C10.745166,48 0,37.254834 0,24 C0,10.745166 10.745166,0 24,0 C37.254834,0 48,10.745166 48,24 C48,37.254834 37.254834,48 24,48 Z" transform="translate(4 4)"/>
</svg>
