<svg xmlns="http://www.w3.org/2000/svg" width="56" height="56" viewBox="0 0 56 56"><path d="M 47.2561 44.3576 C 47.9779 45.0794 49.1191 45.0794 49.7943 44.3576 C 50.4924 43.6591 50.5158 42.5414 49.7943 41.8196 L 8.6498 .6985 C 7.9512 0 6.7870 0 6.0885 .6985 C 5.4132 1.3738 5.4132 2.5613 6.0885 3.2366 Z M 35.9629 24.2162 L 37.3134 14.4599 C 37.3600 13.9476 37.4531 13.6449 37.9188 13.3422 L 43.5770 9.2441 C 44.8577 8.3127 45.3932 7.1717 45.3932 6.1239 C 45.3932 4.5638 44.1591 3.1900 42.3429 3.1900 L 14.9367 3.1900 Z M 13.1670 37.5119 L 25.6011 37.5119 L 25.6011 49.4803 C 25.6011 53.0195 27.0914 56 27.6502 56 C 28.2323 56 29.7226 53.0195 29.7226 49.4803 L 29.7226 37.5119 L 36.2656 37.5119 L 18.7554 20.0016 L 19.1512 22.9588 C 19.2910 23.9135 18.9650 24.2861 18.4993 24.7983 L 11.3741 32.5289 C 10.6988 33.2507 10.3962 33.9493 10.3962 34.9273 C 10.3962 36.4873 11.5371 37.5119 13.1670 37.5119 Z"/></svg>