<svg xmlns="http://www.w3.org/2000/svg" width="56" height="56" viewBox="0 0 56 56"><path d="M 7.6883 23.1104 C 7.6883 17.1164 10.8653 13.9818 16.9016 13.9818 L 45.4100 13.9818 L 45.4100 13.4523 C 45.4100 9.0892 43.1861 6.8865 38.7803 6.8865 L 6.6505 6.8865 C 2.2239 6.8865 0 9.0892 0 13.4523 L 0 35.7548 C 0 40.1179 2.2239 42.2994 6.6505 42.2994 L 7.6883 42.2994 Z M 17.2405 52.5082 L 49.3495 52.5082 C 53.7548 52.5082 56 50.3055 56 45.9424 L 56 23.4281 C 56 19.0861 53.7548 16.8834 49.3495 16.8834 L 17.2405 16.8834 C 12.7927 16.8834 10.5900 19.0650 10.5900 23.4281 L 10.5900 45.9424 C 10.5900 50.3055 12.7927 52.5082 17.2405 52.5082 Z"/></svg>