<svg xmlns="http://www.w3.org/2000/svg" width="56" height="56" viewBox="0 0 56 56"><path d="M 6.6505 42.2994 L 10.5900 42.2994 L 10.5900 45.9424 C 10.5900 50.3055 12.7927 52.5082 17.2405 52.5082 L 49.3495 52.5082 C 53.7548 52.5082 56 50.3055 56 45.9424 L 56 23.4281 C 56 19.0861 53.7548 16.8834 49.3495 16.8834 L 45.4100 16.8834 L 45.4100 13.4523 C 45.4100 9.0892 43.1861 6.8865 38.7803 6.8865 L 6.6505 6.8865 C 2.2239 6.8865 0 9.0892 0 13.4523 L 0 35.7548 C 0 40.1179 2.2239 42.2994 6.6505 42.2994 Z M 6.7141 38.8894 C 4.5961 38.8894 3.4100 37.7669 3.4100 35.5642 L 3.4100 13.6429 C 3.4100 11.4402 4.5961 10.2964 6.7141 10.2964 L 38.7170 10.2964 C 40.8138 10.2964 41.9998 11.4402 41.9998 13.6429 L 41.9998 16.8834 L 17.2405 16.8834 C 12.7927 16.8834 10.5900 19.0650 10.5900 23.4281 L 10.5900 38.8894 Z M 17.2829 49.0982 C 15.1649 49.0982 14.0000 47.9545 14.0000 45.7518 L 14.0000 23.6187 C 14.0000 21.4160 15.1649 20.2934 17.2829 20.2934 L 49.2857 20.2934 C 51.3826 20.2934 52.5897 21.4160 52.5897 23.6187 L 52.5897 45.7518 C 52.5897 47.9545 51.3826 49.0982 49.2857 49.0982 Z"/></svg>