<svg xmlns="http://www.w3.org/2000/svg" width="56" height="56" viewBox="0 0 56 56">
  <g fill-rule="evenodd" transform="translate(6 10)">
    <path d="M17 2L41 2C42.1045695 2 43 2.8954305 43 4 43 5.1045695 42.1045695 6 41 6L17 6C15.8954305 6 15 5.1045695 15 4 15 2.8954305 15.8954305 2 17 2zM17 10L33 10C34.1045695 10 35 10.8954305 35 12 35 13.1045695 34.1045695 14 33 14L17 14C15.8954305 14 15 13.1045695 15 12 15 10.8954305 15.8954305 10 17 10zM17 18L25 18C26.1045695 18 27 18.8954305 27 20 27 21.1045695 26.1045695 22 25 22L17 22C15.8954305 22 15 21.1045695 15 20 15 18.8954305 15.8954305 18 17 18L17 18z"/>
    <path d="M9.17157297,36 C8.59380541,36 8.07325883,35.7550083 7.70815073,35.3632416 C7.69083191,35.3470953 7.67372985,35.3305844 7.65685433,35.3137089 L0.585786444,28.242641 C-0.195262148,27.4615924 -0.195262148,26.1952624 0.585786444,25.4142138 C1.36683504,24.6331652 2.63316501,24.6331652 3.4142136,25.4142138 L7.17157295,29.1715732 L7.17157295,2 C7.17157295,0.89543051 8.06700346,0 9.17157297,0 C10.2761425,0 11.171573,0.89543051 11.171573,2 L11.171573,29.1994952 L14.9568544,25.4142138 C15.737903,24.6331652 17.004233,24.6331652 17.7852816,25.4142138 C18.5663301,26.1952624 18.5663301,27.4615924 17.7852816,28.242641 L10.7142137,35.3137089 C10.6356829,35.3922396 10.5522463,35.4628745 10.4648903,35.5256135 C10.1161902,35.8215126 9.66472559,36 9.17157297,36 Z"/>
  </g>
</svg>
