<svg xmlns="http://www.w3.org/2000/svg" width="56" height="56" viewBox="0 0 56 56">
  <g fill-rule="evenodd" transform="translate(4 4)">
    <path fill-rule="nonzero" d="M17.9017783 30.2372721L22.4720783 28.2450721 43.1675783 7.57317211 39.9564783 4.40907211 19.2845783 25.0809721 17.1751783 29.4872721C16.9876783 29.8856721 17.4564783 30.4247721 17.9017783 30.2372721zM44.8782783 5.86227211L46.5659783 4.12787211C47.3862783 3.30757211 47.3862783 2.15907211 46.5890783 1.38567211L46.0499783.823172108C45.3237783.0965721083 44.1750783.190372108 43.4018783.940372108L41.6907783 2.62787211 44.8782783 5.86227211z"/>
    <path d="M36.3084998,6.14879759 L18.5719558,23.8853416 L15.4434606,29.6870807 C14.8987119,30.8445627 16.2607289,32.4108241 17.5544706,31.8660754 L23.8326833,29.0780844 L42.1306479,10.8003141 C42.2717925,11.3241648 42.3470783,11.8750265 42.3470783,12.4434721 L42.3470783,41.3746721 C42.3470783,44.854066 39.5264722,47.6746721 36.0470783,47.6746721 L7.11587829,47.6746721 C3.63648436,47.6746721 0.815878286,44.854066 0.815878286,41.3746721 L0.815878286,12.4434721 C0.815878286,8.96407818 3.63648436,6.14347211 7.11587829,6.14347211 L36.0470783,6.14347211 C36.1346476,6.14347211 36.2217996,6.14525876 36.3084998,6.14879759 L36.3084998,6.14879759 Z"/>
  </g>
</svg>
