<svg xmlns="http://www.w3.org/2000/svg" width="56" height="56" viewBox="0 0 56 56">
  <path d="M7.7851,43.5742 C2.9101,43.5742 0.4257,41.1602 0.4257,36.3086 L0.4257,7.6914 C0.4257,2.8398 2.9101,0.4258 7.7851,0.4258 L36.2382,0.4258 C41.1366,0.4258 43.5743,2.8633 43.5743,7.6914 L43.5743,36.3086 C43.5743,41.1367 41.1366,43.5742 36.2382,43.5742 L7.7851,43.5742 Z M10,34 C11.1045695,34 12,33.1045695 12,32 C12,30.8954305 11.1045695,30 10,30 C8.8954305,30 8,30.8954305 8,32 C8,33.1045695 8.8954305,34 10,34 Z M10,24 C11.1045695,24 12,23.1045695 12,22 C12,20.8954305 11.1045695,20 10,20 C8.8954305,20 8,20.8954305 8,22 C8,23.1045695 8.8954305,24 10,24 Z M10,14 C11.1045695,14 12,13.1045695 12,12 C12,10.8954305 11.1045695,10 10,10 C8.8954305,10 8,10.8954305 8,12 C8,13.1045695 8.8954305,14 10,14 Z M18.8181818,10 C17.8140277,10 17,10.8954305 17,12 C17,13.1045695 17.8140277,14 18.8181818,14 L35.1818182,14 C36.1859723,14 37,13.1045695 37,12 C37,10.8954305 36.1859723,10 35.1818182,10 L18.8181818,10 Z M18.8181818,20 C17.8140277,20 17,20.8954305 17,22 C17,23.1045695 17.8140277,24 18.8181818,24 L35.1818182,24 C36.1859723,24 37,23.1045695 37,22 C37,20.8954305 36.1859723,20 35.1818182,20 L18.8181818,20 Z M18.8181818,30 C17.8140277,30 17,30.8954305 17,32 C17,33.1045695 17.8140277,34 18.8181818,34 L35.1818182,34 C36.1859723,34 37,33.1045695 37,32 C37,30.8954305 36.1859723,30 35.1818182,30 L18.8181818,30 Z" transform="translate(6 6)"/>
</svg>
