<svg xmlns="http://www.w3.org/2000/svg" width="56" height="56" viewBox="0 0 56 56">
  <g fill-rule="evenodd" transform="translate(6 6)">
    <path fill-rule="nonzero" d="M7.7851,43.5742 L36.2382,43.5742 C41.1366,43.5742 43.5743,41.1367 43.5743,36.3086 L43.5743,7.6914 C43.5743,2.8633 41.1366,0.4258 36.2382,0.4258 L7.7851,0.4258 C2.9101,0.4258 0.4257,2.8398 0.4257,7.6914 L0.4257,36.3086 C0.4257,41.1602 2.9101,43.5742 7.7851,43.5742 Z M7.8554,39.8008 C5.5117,39.8008 4.1992,38.5586 4.1992,36.1211 L4.1992,7.8789 C4.1992,5.4414 5.5117,4.1992 7.8554,4.1992 L36.1679,4.1992 C38.4882,4.1992 39.8007,5.4414 39.8007,7.8789 L39.8007,36.1211 C39.8007,38.5586 38.4882,39.8008 36.1679,39.8008 L7.8554,39.8008 Z"/>
    <path d="M9 32L27 32C28.1045695 32 29 32.8954305 29 34 29 35.1045695 28.1045695 36 27 36L9 36C7.8954305 36 7 35.1045695 7 34 7 32.8954305 7.8954305 32 9 32zM9 25L35 25C36.1045695 25 37 25.8954305 37 27 37 28.1045695 36.1045695 29 35 29L9 29C7.8954305 29 7 28.1045695 7 27 7 25.8954305 7.8954305 25 9 25zM20.593079 8.23892985C19.1275582 6.59405278 16.7319185 6.59205253 15.2837332 8.2189273 14.5676416 9.0223634 14.34628 9.48108875 14.34628 9.48108875 14.34628 9.48108875 14.1022488 8.99636008 13.4101602 8.2189273 11.9559742 6.58671851 9.5650017 6.59405278 8.10014766 8.23892985 6.63462686 9.88380693 6.63796062 12.3254526 8.08214536 14.2003591 9.1376137 15.5718679 12.4900425 18.9176292 12.908096 19.2876765 13.934894 20.1984597 14.6709882 20.2691354 15.7611276 19.3063456 16.324533 18.8096153 19.5456117 15.53653 20.6110813 14.2003591 22.0139275 12.4414674 22.0585998 9.88380693 20.593079 8.23892985"/>
  </g>
</svg>
