<svg xmlns="http://www.w3.org/2000/svg" width="56" height="56" viewBox="0 0 56 56"><path d="M 27.9883 52 C 29.2774 52 29.9336 51.1328 31.2461 49.3516 L 45.2383 30.6719 C 45.8711 29.8047 46.2461 28.9375 46.2461 28 C 46.2461 27.0390 45.8711 26.1953 45.2383 25.3281 L 31.2461 6.6250 C 29.9336 4.8672 29.2774 4.0000 27.9883 4.0000 C 26.7227 4.0000 26.0664 4.8672 24.7539 6.6250 L 10.7617 25.3281 C 10.1289 26.1953 9.7539 27.0390 9.7539 28 C 9.7539 28.9375 10.1289 29.8047 10.7617 30.6719 L 24.7539 49.3516 C 26.0664 51.1328 26.7227 52 27.9883 52 Z M 27.9883 47.0547 C 27.8945 47.0547 27.8242 46.9844 27.7774 46.8672 L 14.2070 28.6328 C 13.9961 28.3750 13.9727 28.1875 13.9727 28 C 13.9727 27.8125 13.9961 27.6250 14.2070 27.3672 L 27.7774 9.1094 C 27.8242 9.0156 27.8945 8.9453 27.9883 8.9453 C 28.1055 8.9453 28.1758 9.0156 28.2227 9.1094 L 41.7930 27.3672 C 42.0039 27.6250 42.0274 27.8125 42.0274 28 C 42.0274 28.1875 42.0039 28.3750 41.7930 28.6328 L 28.2227 46.8672 C 28.1758 46.9844 28.1055 47.0547 27.9883 47.0547 Z"/></svg>