<svg xmlns="http://www.w3.org/2000/svg" width="56" height="56" viewBox="0 0 56 56"><path d="M 28.0108 24.2502 C 28.4041 24.2502 28.7319 24.0972 29.1907 23.6821 L 36.0077 17.3239 C 36.3791 16.9743 36.5321 16.6248 36.5321 16.1659 C 36.5321 15.3138 35.9203 14.7020 35.0463 14.7020 C 34.6093 14.7020 34.1942 14.8987 33.8665 15.2046 L 31.1353 17.9576 L 29.5185 19.8366 L 29.7806 16.5374 L 29.7806 8.3438 C 29.7806 7.2733 28.9722 6.4211 28.0108 6.4211 C 27.0495 6.4211 26.2192 7.2733 26.2192 8.3438 L 26.2192 16.5374 L 26.4814 19.8366 L 25.0830 18.1761 L 22.1334 15.2046 C 21.8275 14.8987 21.3905 14.7020 20.9754 14.7020 C 20.1014 14.7020 19.4896 15.3138 19.4896 16.1659 C 19.4896 16.6248 19.6426 16.9743 20.0140 17.3239 L 26.8310 23.6821 C 27.2898 24.0972 27.5957 24.2502 28.0108 24.2502 Z M 39.2631 30.2369 C 39.9625 30.9142 41.1206 30.9142 41.9287 30.1277 L 45.7305 26.3259 C 46.5390 25.5174 46.5171 24.3813 45.8182 23.7039 C 45.1626 23.0048 44.0046 22.9829 43.1960 23.7913 L 39.3942 27.5931 C 38.6078 28.4016 38.5859 29.5814 39.2631 30.2369 Z M 14.0928 30.1277 C 14.9013 30.9142 16.0592 30.9361 16.7366 30.2369 C 17.4139 29.5595 17.4139 28.4016 16.6055 27.5931 L 12.8037 23.7913 C 11.9953 22.9829 10.8810 23.0266 10.1818 23.7039 C 9.4826 24.3594 9.4826 25.5174 10.2910 26.3259 Z M 1.9009 51.9551 L 54.0991 51.9551 C 55.1476 51.9551 56.0000 51.1686 56.0000 50.1853 C 56.0000 49.2240 55.1476 48.4374 54.0991 48.4374 L 37.6901 48.4374 C 39.1103 46.4928 39.9625 44.1112 39.9625 41.5111 C 39.9625 34.9563 34.5219 29.5377 28.0108 29.5377 C 21.4779 29.5377 16.0592 34.9563 16.0592 41.5111 C 16.0592 44.1112 16.8895 46.4928 18.3316 48.4374 L 1.9009 48.4374 C .8740 48.4374 0 49.2240 0 50.1853 C 0 51.1686 .8740 51.9551 1.9009 51.9551 Z M 19.5770 41.5111 C 19.5770 36.8791 23.3788 33.0773 28.0108 33.0773 C 32.6429 33.0773 36.4447 36.8791 36.4447 41.5111 C 36.4447 44.3952 34.9589 46.9516 32.7085 48.4374 L 23.2914 48.4374 C 21.0628 46.9516 19.5770 44.3952 19.5770 41.5111 Z M 4.7413 42.7347 L 10.1162 42.7347 C 11.2524 42.7347 12.1045 41.9263 12.0827 40.9649 C 12.0608 39.9817 11.2524 39.1733 10.1162 39.1733 L 4.7413 39.1733 C 3.6051 39.1733 2.7967 39.9817 2.7967 40.9649 C 2.7967 41.9263 3.6051 42.7347 4.7413 42.7347 Z M 45.9054 42.7347 L 51.2805 42.7347 C 52.3947 42.7347 53.2248 41.9263 53.2248 40.9649 C 53.2248 39.9817 52.3947 39.1733 51.2805 39.1733 L 45.9054 39.1733 C 44.7693 39.1733 43.9173 39.9817 43.9392 40.9649 C 43.9607 41.9263 44.7693 42.7347 45.9054 42.7347 Z"/></svg>