<svg xmlns="http://www.w3.org/2000/svg" width="56" height="56" viewBox="0 0 56 56"><path d="M 27.1918 8.3044 C 28.1918 8.3044 29.0179 7.4784 29.0179 6.5001 L 29.0179 1.8045 C 29.0179 .8045 28.1918 -7.1054e-15 27.1918 -7.105427357601002e-15 C 26.2136 -7.1054e-15 25.3875 .8045 25.3875 1.804462500447196 L 25.3875 6.5001 C 25.3875 7.4784 26.2136 8.3044 27.1918 8.3044 Z M 37.2353 12.5001 C 37.9092 13.1958 39.1048 13.2175 39.8222 12.5001 L 43.1266 9.1523 C 43.8222 8.4566 43.8222 7.3044 43.1266 6.6088 C 42.4309 5.9131 41.3005 5.9131 40.6048 6.6088 L 37.2353 9.9784 C 36.5396 10.6740 36.5614 11.8045 37.2353 12.5001 Z M 16.8440 56 C 23.1049 56 28.1918 50.9131 28.1918 44.6522 C 28.1918 41.3479 26.8223 38.4566 24.2353 36.1088 C 23.7571 35.6740 23.6483 35.4348 23.6483 34.7827 L 23.6701 32.6957 C 24.7788 33.1087 25.9745 33.3044 27.1918 33.3044 C 33.1701 33.3044 37.9527 28.5218 37.9527 22.5435 C 37.9527 16.5653 33.1701 11.7610 27.1918 11.7610 C 25.8440 11.7610 24.5397 12.0218 23.3005 12.5218 C 22.4092 9.5436 20.0397 7.6957 16.8440 7.6957 C 12.7353 7.6957 9.9745 10.7175 9.9745 15.2610 L 9.9962 34.7827 C 9.9962 35.4348 9.8875 35.6740 9.4310 36.1088 C 6.8223 38.4566 5.4745 41.3479 5.4745 44.6522 C 5.4745 50.9131 10.5397 56 16.8440 56 Z M 16.8440 52.8479 C 12.3223 52.8479 8.6484 49.1522 8.6484 44.6522 C 8.6484 41.9348 9.9310 39.4783 12.2353 37.9349 C 12.9093 37.4783 13.1701 37.0653 13.1701 36.1740 L 13.1701 15.3914 C 13.1701 12.6523 14.6701 10.8914 16.8440 10.8914 C 18.9962 10.8914 20.4744 12.6523 20.4744 15.3914 L 20.4744 36.1740 C 20.4744 37.0653 20.7353 37.4783 21.4092 37.9349 C 23.7136 39.4783 24.9962 41.9348 24.9962 44.6522 C 24.9962 49.1522 21.3440 52.8479 16.8440 52.8479 Z M 27.1918 14.9349 C 31.4527 14.9349 34.7570 18.2610 34.7570 22.5435 C 34.7570 26.8044 31.4527 30.1305 27.1918 30.1305 C 25.9527 30.1305 24.7353 29.8044 23.6701 29.2392 L 23.6918 15.8914 C 24.7571 15.2827 25.9527 14.9349 27.1918 14.9349 Z M 16.8223 49.9131 C 19.7353 49.9131 22.0831 47.5435 22.0831 44.6305 C 22.0831 42.5870 20.9309 40.9131 19.2571 40.0000 C 18.5614 39.6305 18.3223 39.3696 18.3223 38.3044 L 18.3223 17.2175 C 18.3223 16.0871 17.6701 15.3914 16.8223 15.3914 C 15.9962 15.3914 15.3223 16.0871 15.3223 17.2175 L 15.3223 38.3044 C 15.3223 39.3696 15.0832 39.6305 14.3875 40.0000 C 12.7136 40.9131 11.5614 42.5870 11.5614 44.6305 C 11.5614 47.5652 13.9092 49.9131 16.8223 49.9131 Z M 43.1700 24.3479 L 47.8875 24.3479 C 48.8656 24.3479 49.6701 23.5218 49.6701 22.5435 C 49.6701 21.5436 48.8656 20.7392 47.8875 20.7392 L 43.1700 20.7392 C 42.2135 20.7392 41.3874 21.5436 41.3874 22.5435 C 41.3874 23.5218 42.2135 24.3479 43.1700 24.3479 Z M 40.6048 38.5001 C 41.3005 39.1957 42.4309 39.1740 43.1266 38.4783 C 43.8222 37.7827 43.8222 36.6305 43.1266 35.9566 L 39.7787 32.6088 C 39.0831 31.9348 37.9309 31.9131 37.2353 32.6088 C 36.5396 33.3044 36.5396 34.4566 37.2353 35.1522 Z"/></svg>