<svg xmlns="http://www.w3.org/2000/svg" width="56" height="56" viewBox="0 0 56 56"><path d="M 5.4536 43.0962 L 50.5464 43.0962 C 54.1747 43.0962 56 41.3561 56 37.6426 L 56 13.3243 C 56 9.6108 54.1747 7.8708 50.5464 7.8708 L 5.4536 7.8708 C 1.8249 7.8708 0 9.6108 0 13.3243 L 0 37.6426 C 0 41.3561 1.8249 43.0962 5.4536 43.0962 Z M 5.5172 39.6797 C 4.0743 39.6797 3.4164 39.0856 3.4164 37.6001 L 3.4164 13.3880 C 3.4164 11.8814 4.0743 11.2872 5.5172 11.2872 L 50.4825 11.2872 C 51.9466 11.2872 52.5833 11.8814 52.5833 13.3880 L 52.5833 37.6001 C 52.5833 39.0856 51.9466 39.6797 50.4825 39.6797 Z M 43.4374 48.9953 C 43.4374 47.8919 42.5465 47.0007 41.4639 47.0007 L 14.4933 47.0007 C 13.4111 47.0007 12.5411 47.8919 12.5411 48.9953 C 12.5411 50.0988 13.4111 50.9901 14.4933 50.9901 L 41.4639 50.9901 C 42.5465 50.9901 43.4374 50.0988 43.4374 48.9953 Z"/></svg>