<svg xmlns="http://www.w3.org/2000/svg" width="56" height="56" viewBox="0 0 56 56">
  <path d="M24,48 C10.745166,48 0,37.254834 0,24 C0,10.745166 10.745166,0 24,0 C37.254834,0 48,10.745166 48,24 C48,37.254834 37.254834,48 24,48 Z M36.5753763,17.9647449 L32.289662,21.7742687 C31.9236819,22.0995843 31.7142857,22.565877 31.7142857,23.0555418 L31.7142857,24.9444582 C31.7142857,25.434123 31.9236819,25.9004157 32.289662,26.2257313 L36.5753763,30.0352551 C36.8891782,30.3141902 37.2944329,30.4682677 37.7142857,30.4682677 C38.6610596,30.4682677 39.4285714,29.7007558 39.4285714,28.753982 L39.4285714,19.246018 C39.4285714,18.8261652 39.2744939,18.4209105 38.9955588,18.1071086 C38.3665565,17.399481 37.2830039,17.3357426 36.5753763,17.9647449 Z M12.8571429,15.4285714 C10.9635951,15.4285714 9.42857143,16.9635951 9.42857143,18.8571429 L9.42857143,30 C9.42857143,31.8935477 10.9635951,33.4285714 12.8571429,33.4285714 L26.5714286,33.4285714 C28.4649763,33.4285714 30,31.8935477 30,30 L30,18.8571429 C30,16.9635951 28.4649763,15.4285714 26.5714286,15.4285714 L12.8571429,15.4285714 Z" transform="translate(4 4)"/>
</svg>
