<svg xmlns="http://www.w3.org/2000/svg" width="56" height="56" viewBox="0 0 56 56">
  <path fill-rule="evenodd" d="M15,37.4111328 L11,37.4111328 L11,42.4 L6,42.4 L6,37.4111328 L4.6953125,37.4111328 L4.6953125,37.4 L0,37.4 L0,32.4 L4.6953125,32.4 L4.6953125,10 L0,10 L0,5 L6,5 L6,0 L11,0 L11,5 L15,5 L15,0 L20,0 L20,5 L18.8007812,5 C24.8876953,5 28.7060547,8.12207031 28.7060547,13.0859375 C28.7060547,16.6347656 26.0556641,19.5996094 22.6191406,20.1162109 L22.6191406,20.2958984 C27.0214844,20.6328125 30.2558594,23.8447266 30.2558594,28.1347656 C30.2558594,33.65554 26.2385243,37.1781634 19.7100271,37.4 L20,37.4 L20,42.4 L15,42.4 L15,37.4111328 Z M11.4785156,10.0537109 L11.4785156,18.4765625 L16.3525391,18.4765625 C19.96875,18.4765625 22.0351562,16.8818359 22.0351562,14.1416016 C22.0351562,11.5361328 20.2158203,10.0537109 17.0488281,10.0537109 L11.4785156,10.0537109 Z M11.4785156,32.3574219 L17.3183594,32.3574219 C21.2265625,32.3574219 23.3378906,30.6953125 23.3378906,27.5957031 C23.3378906,24.5634766 21.1591797,22.9462891 17.1611328,22.9462891 L11.4785156,22.9462891 L11.4785156,32.3574219 Z" transform="translate(13 7)"/>
</svg>
