<svg xmlns="http://www.w3.org/2000/svg" width="56" height="56" viewBox="0 0 56 56">
  <g fill-rule="evenodd" transform="translate(6 6)">
    <path fill-rule="nonzero" d="M7.7851,43.5742 L36.2382,43.5742 C41.1366,43.5742 43.5743,41.1367 43.5743,36.3086 L43.5743,7.6914 C43.5743,2.8633 41.1366,0.4258 36.2382,0.4258 L7.7851,0.4258 C2.9101,0.4258 0.4257,2.8398 0.4257,7.6914 L0.4257,36.3086 C0.4257,41.1602 2.9101,43.5742 7.7851,43.5742 Z M7.8554,39.8008 C5.5117,39.8008 4.1992,38.5586 4.1992,36.1211 L4.1992,7.8789 C4.1992,5.4414 5.5117,4.1992 7.8554,4.1992 L36.1679,4.1992 C38.4882,4.1992 39.8007,5.4414 39.8007,7.8789 L39.8007,36.1211 C39.8007,38.5586 38.4882,39.8008 36.1679,39.8008 L7.8554,39.8008 Z"/>
    <path d="M12 16L14 16C15.1045695 16 16 16.8954305 16 18L16 32C16 33.1045695 15.1045695 34 14 34L12 34C10.8954305 34 10 33.1045695 10 32L10 18C10 16.8954305 10.8954305 16 12 16zM21 10L23 10C24.1045695 10 25 10.8954305 25 12L25 32C25 33.1045695 24.1045695 34 23 34L21 34C19.8954305 34 19 33.1045695 19 32L19 12C19 10.8954305 19.8954305 10 21 10zM30 22L32 22C33.1045695 22 34 22.8954305 34 24L34 32C34 33.1045695 33.1045695 34 32 34L30 34C28.8954305 34 28 33.1045695 28 32L28 24C28 22.8954305 28.8954305 22 30 22z"/>
  </g>
</svg>
