<svg xmlns="http://www.w3.org/2000/svg" width="56" height="56" viewBox="0 0 56 56">
  <g fill-rule="evenodd" transform="translate(4 4)">
    <path fill-rule="nonzero" d="M24,44 C35.045695,44 44,35.045695 44,24 C44,12.954305 35.045695,4 24,4 C12.954305,4 4,12.954305 4,24 C4,35.045695 12.954305,44 24,44 Z M24,48 C10.745166,48 0,37.254834 0,24 C0,10.745166 10.745166,0 24,0 C37.254834,0 48,10.745166 48,24 C48,37.254834 37.254834,48 24,48 Z"/>
    <path d="M14 18L16 18C17.1045695 18 18 18.8954305 18 20L18 34C18 35.1045695 17.1045695 36 16 36L14 36C12.8954305 36 12 35.1045695 12 34L12 20C12 18.8954305 12.8954305 18 14 18zM23 12L25 12C26.1045695 12 27 12.8954305 27 14L27 34C27 35.1045695 26.1045695 36 25 36L23 36C21.8954305 36 21 35.1045695 21 34L21 14C21 12.8954305 21.8954305 12 23 12zM32 24L34 24C35.1045695 24 36 24.8954305 36 26L36 34C36 35.1045695 35.1045695 36 34 36L32 36C30.8954305 36 30 35.1045695 30 34L30 26C30 24.8954305 30.8954305 24 32 24z"/>
  </g>
</svg>
