<svg xmlns="http://www.w3.org/2000/svg" width="56" height="56" viewBox="0 0 56 56">
  <g transform="translate(4 8)">
    <path d="M18.8864289,33.3516726 C19.877513,33.4932558 20.8933545,33.5672349 21.9303333,33.5672349 C32.3850833,33.5672349 40.8606667,26.0524569 40.8606667,16.782781 C40.8606667,12.1568024 38.7491015,7.96761379 35.3338128,4.93167493 C42.6380902,7.13423595 47.8606667,12.9977895 47.8606667,19.884 C47.8606667,24.61025 45.3985833,28.8583333 41.4925,31.7685 C41.2486667,31.9474167 40.6074167,32.3891667 40.55675,32.41925 C38.89425,33.6431667 40.4934167,36.5058333 42.15275,38.26175 C43.0695,39.2339167 42.9254167,39.5363333 41.7284167,39.2323333 C35.90175,37.75825 34.81875,34.9145833 32.2616667,35.5241667 C32.2600833,35.5241667 32.2569167,35.52575 32.2553333,35.52575 C31.1755,35.6856667 30.0655833,35.7695833 28.9303333,35.7695833 C25.2406736,35.7695833 21.79752,34.883739 18.8864289,33.3516726 L18.8864289,33.3516726 Z"/>
    <path d="M0,15.884 C0,7.11233333 8.474,0 18.9303333,0 C29.3850833,0 37.8606667,7.11233333 37.8606667,15.884 C37.8606667,24.65725 29.3850833,31.7695833 18.9303333,31.7695833 C17.7950833,31.7695833 16.6851667,31.6856667 15.6053333,31.52575 C15.60375,31.52575 15.6005833,31.5241667 15.599,31.5241667 C13.0419167,30.9145833 11.9589167,33.75825 6.13225,35.2323333 C4.93525,35.5363333 4.79116667,35.2339167 5.70791667,34.26175 C7.36725,32.5058333 8.96641667,29.6431667 7.30391667,28.41925 C7.25325,28.3891667 6.612,27.9474167 6.36816667,27.7685 C2.46208333,24.8583333 0,20.61025 0,15.884 Z"/>
  </g>
</svg>
