<svg xmlns="http://www.w3.org/2000/svg" width="56" height="56" viewBox="0 0 56 56">
  <g fill-rule="evenodd" transform="translate(2 3)">
    <path fill-rule="nonzero" d="M17.5035668,40.5296937 C19.0024662,40.0159063 20.530255,39.9036804 22.1150875,40.242095 C23.3913721,40.4234251 24.6878688,40.5153676 26,40.5153676 C38.462083,40.5153676 48.2812121,32.2755588 48.2812121,22.5377685 C48.2812121,12.8019501 38.4617239,4.56240733 26,4.56240733 C13.5368558,4.56240733 3.71878789,12.8012343 3.71878789,22.5377685 C3.71878789,27.5645198 6.32376869,32.3237361 10.8918817,35.7272859 C11.006387,35.811306 11.2685741,35.9959543 11.5565666,36.1954672 C11.6839828,36.2837375 11.8060878,36.367737 11.8989137,36.4310247 C11.8796069,36.4178214 11.9540395,36.4678495 11.851738,36.407108 L12.042003,36.5200778 L12.2201977,36.6512631 C14.0421606,37.9925748 14.911757,39.7895096 15.034093,41.7494472 C16.0115023,41.2059428 16.9508283,40.7191594 17.5035668,40.5296937 Z M0.17,22.559188 C0.17,10.5904526 11.7325761,0.885839053 26,0.885839053 C40.2652635,0.885839053 51.83,10.5904526 51.83,22.559188 C51.83,34.5300838 40.2652635,44.2346974 26,44.2346974 C24.4509778,44.2346974 22.9365222,44.120195 21.4631148,43.9019924 C21.4609543,43.9019924 21.4566335,43.899832 21.4544731,43.899832 C17.9653923,43.0680697 16.4876639,46.9481868 8.53731265,48.9595393 C6.90403396,49.3743402 6.7074356,48.9616997 7.95831967,47.6352009 C10.2224415,45.2392934 12.4044672,41.3332512 10.1360246,39.6632454 C10.0668911,39.6221974 9.19192037,39.0194398 8.85921546,38.7753121 C3.5294555,34.8044573 0.17,29.0080463 0.17,22.559188 Z"/>
    <path d="M14.336 15.6953L38.1954 15.6953C38.9454 15.6953 39.5547 15.1094 39.5547 14.336 39.5547 13.586 38.9454 13 38.1954 13L14.336 13C13.586 13 13 13.586 13 14.336 13 15.1094 13.586 15.6953 14.336 15.6953zM14.336 23.3125L38.1954 23.3125C38.9454 23.3125 39.5547 22.7266 39.5547 21.9531 39.5547 21.2266 38.9454 20.5938 38.1954 20.5938L14.336 20.5938C13.586 20.5938 13 21.2266 13 21.9531 13 22.7266 13.586 23.3125 14.336 23.3125zM14.336 30.9531L29.8516 30.9531C30.6016 30.9531 31.211 30.3672 31.211 29.6172 31.211 28.8438 30.6016 28.2344 29.8516 28.2344L14.336 28.2344C13.586 28.2344 13 28.8438 13 29.6172 13 30.3672 13.586 30.9531 14.336 30.9531z"/>
  </g>
</svg>
