<svg xmlns="http://www.w3.org/2000/svg" width="56" height="56" viewBox="0 0 56 56">
  <g transform="translate(4 8)">
    <path d="M12.6490044,27.8247444 C13.8400659,27.4164766 15.0643439,27.3242932 16.3264516,27.5884073 C17.1817942,27.7086235 18.0507071,27.7695833 18.9303333,27.7695833 C27.3160404,27.7695833 33.8606667,22.2776024 33.8606667,15.884 C33.8606667,9.4918076 27.3157963,4 18.9303333,4 C10.5438739,4 4,9.49128868 4,15.884 C4,19.1653985 5.71048202,22.2903943 8.73452909,24.5435459 C8.80774541,24.5972696 8.98848012,24.7245542 9.18634896,24.861632 C9.27163889,24.9207184 9.35337857,24.9769646 9.41633564,25.0199246 C9.39517903,25.0054606 9.43172141,25.0306856 9.34607168,24.979831 L9.51610532,25.0807885 L9.67535219,25.1980245 C10.8006182,26.0264346 11.4855447,27.0614361 11.8044642,28.1971355 C12.1342767,28.0328389 12.4272766,27.9007475 12.6490044,27.8247444 Z M15.6112815,27.52575 L15.6053333,27.52575 C16.0639096,27.584855 16.3459313,27.6212043 16.5234052,27.646467 C16.3473003,27.62066 16.0672508,27.584534 15.6112815,27.52575 Z M0,15.884 C0,7.11233333 8.474,0 18.9303333,0 C29.3850833,0 37.8606667,7.11233333 37.8606667,15.884 C37.8606667,24.65725 29.3850833,31.7695833 18.9303333,31.7695833 C17.7950833,31.7695833 16.6851667,31.6856667 15.6053333,31.52575 C15.60375,31.52575 15.6005833,31.5241667 15.599,31.5241667 C13.0419167,30.9145833 11.9589167,33.75825 6.13225,35.2323333 C4.93525,35.5363333 4.79116667,35.2339167 5.70791667,34.26175 C7.36725,32.5058333 8.96641667,29.6431667 7.30391667,28.41925 C7.25325,28.3891667 6.612,27.9474167 6.36816667,27.7685 C2.46208333,24.8583333 0,20.61025 0,15.884 Z"/>
    <path d="M26.9405256,31.6791205 C27.959582,31.739429 28.6228513,31.7695833 28.9303333,31.7695833 C29.8099596,31.7695833 30.6788725,31.7086235 31.534215,31.5884073 C32.7963228,31.3242932 34.0206008,31.4164766 35.2116622,31.8247444 C35.4333901,31.9007475 35.72639,32.0328389 36.0562025,32.1971355 C36.3751219,31.0614361 37.0600485,30.0264346 38.1853145,29.1980245 L38.3445613,29.0807885 L38.514595,28.979831 C38.4288395,29.0307483 38.465578,29.0053982 38.4471918,29.0179632 C38.5072651,28.9769804 38.5890158,28.9207267 38.6743177,28.861632 C38.8721865,28.7245542 39.0529213,28.5972696 39.1027059,28.560871 C42.1501846,26.2903943 43.8606667,23.1653985 43.8606667,19.884 C43.8606667,17.0389262 42.564527,14.3723965 40.3866691,12.2890102 C40.3134926,12.219008 40.2163897,12.1327382 40.0953604,12.0302009 C39.3451969,11.3946435 39.2522811,10.2712956 39.8878324,9.52112688 C39.9250511,9.47719603 39.9643791,9.43509667 40.0056778,9.39497724 L40.1790995,9.226491 C40.9377279,8.48952495 42.1389963,8.47061647 42.9204434,9.18334107 C42.9379796,9.19933508 42.9550078,9.21499222 42.9715281,9.23031248 C46.0101282,12.0481921 47.8606667,15.7849148 47.8606667,19.884 C47.8606667,24.61025 45.3985833,28.8583333 41.4925,31.7685 C41.2486667,31.9474167 40.6074167,32.3891667 40.55675,32.41925 C38.89425,33.6431667 40.4934167,36.5058333 42.15275,38.26175 C43.0695,39.2339167 42.9254167,39.5363333 41.7284167,39.2323333 C35.90175,37.75825 34.81875,34.9145833 32.2616667,35.5241667 C32.2600833,35.5241667 32.2569167,35.52575 32.2553333,35.52575 C31.1755,35.6856667 30.0655833,35.7695833 28.9303333,35.7695833 C28.1190772,35.7695833 27.3197382,35.726758 26.5353517,35.6436544 C25.4770097,35.531526 24.7099521,34.5826723 24.8220806,33.5243304 C24.8275014,33.4731651 24.8349692,33.4222373 24.8444661,33.3716696 L24.8567593,33.3064511 C25.0426257,32.3167764 25.9353076,31.6196308 26.9405256,31.6791205 Z"/>
  </g>
</svg>
