<svg xmlns="http://www.w3.org/2000/svg" width="57" height="56" viewBox="0 0 57 56">
  <g transform="translate(1 3)">
    <path d="M34.500301,36.8524845 L34.500301,33.1024845 L45.7481592,33.1024845 C49.0630506,33.1024845 51.750301,30.4152341 51.750301,27.1003427 C51.750301,24.3015031 49.8171637,21.890444 47.1335491,21.2580066 L43.9596438,20.5100242 L44.2596367,17.2630014 C44.2929276,16.9026725 44.3096978,16.5391274 44.3096978,16.1729948 C44.3096978,9.7375897 39.0927712,4.52066307 32.6573661,4.52066307 C28.6631256,4.52066307 25.0190167,6.54208569 22.8799162,9.83103522 L21.3554475,12.1749647 L18.6739301,11.3828318 C18.2192181,11.2485078 17.7437939,11.1793923 17.2550343,11.1793923 C14.4971438,11.1793923 12.2614317,13.4151043 12.2614317,16.1729948 C12.2614317,16.224154 12.2621889,16.2751635 12.2636986,16.326017 L12.3549685,19.4002123 L9.35808804,20.0913808 C6.39664535,20.7743764 4.25869937,23.4284284 4.25869937,26.5127397 C4.25869937,30.1521552 7.20902862,33.1024845 10.8484442,33.1024845 L21.5003011,33.1024845 L21.500301,36.8524845 L10.8484442,36.8524845 C5.13796081,36.8524845 0.508699372,32.223223 0.508699372,26.5127397 C0.508699372,21.6045779 3.92852288,17.4951588 8.51535025,16.4373019 C8.51274405,16.3495183 8.51143173,16.2614098 8.51143173,16.1729948 C8.51143173,11.3440365 12.4260759,7.42939227 17.2550343,7.42939227 C18.1169421,7.42939227 18.9497219,7.5541039 19.7363133,7.7864667 C22.4830258,3.56329032 27.2440694,0.770663069 32.6573661,0.770663069 C41.163839,0.770663069 48.0596978,7.66652189 48.0596978,16.1729948 C48.0596978,16.6568639 48.0373855,17.1355216 47.9937336,17.6079953 C52.297207,18.6221788 55.500301,22.4871994 55.500301,27.1003427 C55.500301,32.4863019 51.1341184,36.8524845 45.7481592,36.8524845 L34.500301,36.8524845 L34.500301,36.8524845 Z"/>
    <path d="M27.944101,49.8507332 C28.412901,49.8507332 28.834701,49.6867332 29.303501,49.2179332 L37.225401,41.5773332 C37.576901,41.2257332 37.764401,40.8507332 37.764401,40.3351332 C37.764401,39.3742332 37.037901,38.6945332 36.053501,38.6945332 C35.608201,38.6945332 35.116001,38.8820332 34.787901,39.2570332 L31.248801,43.0304332 L29.655001,44.6945332 L29.795701,41.2023332 L29.795701,23.1398575 C29.795701,22.1555575 28.951901,21.3351575 27.944101,21.3351575 C26.936301,21.3351575 26.069101,22.1555575 26.069101,23.1398575 L26.069101,41.2023332 L26.233201,44.6945332 L24.639401,43.0304332 L21.076901,39.2570332 C20.748801,38.8820332 20.256601,38.6945332 19.787901,38.6945332 C18.803501,38.6945332 18.100301,39.3742332 18.100301,40.3351332 C18.100301,40.8507332 18.311301,41.2257332 18.662901,41.5773332 L26.584701,49.2179332 C27.053501,49.6867332 27.451901,49.8507332 27.944101,49.8507332 Z"/>
  </g>
</svg>
