<svg xmlns="http://www.w3.org/2000/svg" width="57" height="56" viewBox="0 0 57 56">
  <g transform="translate(1 3)">
    <path d="M34.524131,36.8524845 L34.524131,33.1024845 L45.7719893,33.1024845 C49.0868806,33.1024845 51.774131,30.4152341 51.774131,27.1003427 C51.774131,24.3015031 49.8409938,21.890444 47.1573791,21.2580066 L43.9834738,20.5100242 L44.2834668,17.2630014 C44.3167576,16.9026725 44.3335279,16.5391274 44.3335279,16.1729948 C44.3335279,9.7375897 39.1166013,4.52066307 32.6811961,4.52066307 C28.6869556,4.52066307 25.0428468,6.54208569 22.9037463,9.83103522 L21.3792775,12.1749647 L18.6977601,11.3828318 C18.2430482,11.2485078 17.7676239,11.1793923 17.2788644,11.1793923 C14.5209738,11.1793923 12.2852618,13.4151043 12.2852618,16.1729948 C12.2852618,16.224154 12.2860189,16.2751635 12.2875287,16.326017 L12.3787986,19.4002123 L9.38191809,20.0913808 C6.4204754,20.7743764 4.28252942,23.4284284 4.28252942,26.5127397 C4.28252942,30.1521552 7.23285867,33.1024845 10.8722742,33.1024845 L21.5241311,33.1024845 L21.524131,36.8524845 L10.8722742,36.8524845 C5.16179086,36.8524845 0.532529419,32.223223 0.532529419,26.5127397 C0.532529419,21.6045779 3.95235292,17.4951588 8.5391803,16.4373019 C8.53657409,16.3495183 8.53526178,16.2614098 8.53526178,16.1729948 C8.53526178,11.3440365 12.449906,7.42939227 17.2788644,7.42939227 C18.1407721,7.42939227 18.9735519,7.5541039 19.7601433,7.7864667 C22.5068558,3.56329032 27.2678994,0.770663069 32.6811961,0.770663069 C41.1876691,0.770663069 48.0835279,7.66652189 48.0835279,16.1729948 C48.0835279,16.6568639 48.0612156,17.1355216 48.0175636,17.6079953 C52.3210371,18.6221788 55.524131,22.4871994 55.524131,27.1003427 C55.524131,32.4863019 51.1579484,36.8524845 45.7719893,36.8524845 L34.524131,36.8524845 L34.524131,36.8524845 Z"/>
    <path d="M27.944431,17.0584061 C28.436631,17.0584061 28.835031,17.2224061 29.303831,17.6912061 L37.225631,25.3318061 C37.577231,25.6834061 37.788231,26.0584061 37.788231,26.5740061 C37.788231,27.5349061 37.085031,28.2146061 36.100631,28.2146061 C35.631931,28.2146061 35.139731,28.0271061 34.811631,27.6521061 L31.249131,23.8787061 L29.655331,22.2146061 L29.819431,25.7068061 L29.819431,43.7692817 C29.819431,44.7535817 28.952231,45.5739817 27.944431,45.5739817 C26.936631,45.5739817 26.092831,44.7535817 26.092831,43.7692817 L26.092831,25.7068061 L26.233531,22.2146061 L24.639731,23.8787061 L21.100631,27.6521061 C20.772531,28.0271061 20.280331,28.2146061 19.835031,28.2146061 C18.850631,28.2146061 18.124131,27.5349061 18.124131,26.5740061 C18.124131,26.0584061 18.311631,25.6834061 18.663131,25.3318061 L26.585031,17.6912061 C27.053831,17.2224061 27.475631,17.0584061 27.944431,17.0584061 Z"/>
  </g>
</svg>
