<svg xmlns="http://www.w3.org/2000/svg" width="56" height="56" viewBox="0 0 56 56">
  <path d="M31,36 C29.5433188,37.9469971 29.2099854,39.6315087 30,41.0535349 C30.664682,42.2499625 32.1858846,42.8990566 34.5636079,43.0008172 C35.3666509,43.0351872 36,43.6962218 36,44.5 C36,45.3284271 35.3284271,46 34.5,46 L15.5,46 C14.6715729,46 14,45.3284271 14,44.5 C14,43.7096597 14.6364739,43.0667406 15.4267741,43.0587779 C17.7420055,43.0354582 19.2664141,42.3635672 20,41.0431125 C20.8749705,39.4681657 20.5416372,37.7871282 19,36 L4.16666667,36 C1.86548021,36 0,34.209139 0,32 L0,4 C0,1.790861 1.86548021,0 4.16666667,0 L45.8333333,0 C48.1345198,0 50,1.790861 50,4 L50,32 C50,34.209139 48.1345198,36 45.8333333,36 L31,36 Z M4.16666667,6 L4.16666667,28 C4.16666667,29.1045695 5.06209717,30 6.16666667,30 L43.8333333,30 C44.9379028,30 45.8333333,29.1045695 45.8333333,28 L45.8333333,6 C45.8333333,4.8954305 44.9379028,4 43.8333333,4 L6.16666667,4 C5.06209717,4 4.16666667,4.8954305 4.16666667,6 Z M23,32 C22.4477153,32 22,32.4477153 22,33 C22,33.5522847 22.4477153,34 23,34 L27,34 C27.5522847,34 28,33.5522847 28,33 C28,32.4477153 27.5522847,32 27,32 L23,32 Z" transform="translate(3 5)"/>
</svg>
