<svg xmlns="http://www.w3.org/2000/svg" width="56" height="56" viewBox="0 0 56 56">
  <g fill-rule="evenodd" transform="translate(8 2)">
    <path fill-rule="nonzero" d="M7.5547,51.13 L32.4453,51.13 C37.2969,51.13 39.7109,48.669 39.7109,43.794 L39.7109,22.5128 C39.7109,19.4894 39.3828,18.1768 37.5078,16.255 L24.5703,3.1065 C22.7891,1.2784 21.3359,0.88 18.6875,0.88 L7.5547,0.88 C2.7266,0.88 0.2891,3.3644 0.2891,8.2394 L0.2891,43.794 C0.2891,48.6925 2.7266,51.13 7.5547,51.13 Z M7.7422,47.3565 C5.3281,47.3565 4.0625,46.0675 4.0625,43.7237 L4.0625,8.3097 C4.0625,5.9894 5.3281,4.6534 7.7656,4.6534 L18.1718,4.6534 L18.1718,18.2706 C18.1718,21.2237 19.6718,22.6768 22.5781,22.6768 L35.9375,22.6768 L35.9375,43.7237 C35.9375,46.0675 34.6953,47.3565 32.2578,47.3565 L7.7422,47.3565 Z M23,19.1378 C22.0859,19.1378 21.7109,18.7628 21.7109,17.8253 L21.7109,5.38 L35.2109,19.1378 L23,19.1378 Z"/>
    <path d="M8.56278076 30.9349731L10.1255615 30.9349731C10.9886615 30.9349731 11.6883423 31.6346539 11.6883423 32.4977539L11.6883423 43.4372192C11.6883423 44.3003192 10.9886615 45 10.1255615 45L8.56278076 45C7.69968078 45 7 44.3003192 7 43.4372192L7 32.4977539C7 31.6346539 7.69968078 30.9349731 8.56278076 30.9349731zM15.5952942 26.2466308L17.158075 26.2466308C18.021175 26.2466308 18.7208557 26.9463116 18.7208557 27.8094116L18.7208557 43.4372192C18.7208557 44.3003192 18.021175 45 17.158075 45L15.5952942 45C14.7321942 45 14.0325134 44.3003192 14.0325134 43.4372192L14.0325134 27.8094116C14.0325134 26.9463116 14.7321942 26.2466308 15.5952942 26.2466308zM22.6278076 35.6233154L24.1905884 35.6233154C25.0536884 35.6233154 25.7533692 36.3229962 25.7533692 37.1860962L25.7533692 43.4372192C25.7533692 44.3003192 25.0536884 45 24.1905884 45L22.6278076 45C21.7647077 45 21.0650269 44.3003192 21.0650269 43.4372192L21.0650269 37.1860962C21.0650269 36.3229962 21.7647077 35.6233154 22.6278076 35.6233154z"/>
  </g>
</svg>
