<svg xmlns="http://www.w3.org/2000/svg" width="56" height="56" viewBox="0 0 56 56">
  <g transform="translate(8 2)">
    <path d="M8.0547,51.125 L32.9453,51.125 C37.7969,51.125 40.2109,48.664 40.2109,43.789 L40.2109,22.5078 C40.2109,19.4844 39.8828,18.1718 38.0078,16.25 L25.0703,3.1015 C23.2891,1.2734 21.8359,0.875 19.1875,0.875 L8.0547,0.875 C3.2266,0.875 0.7891,3.3594 0.7891,8.2344 L0.7891,43.789 C0.7891,48.6875 3.2266,51.125 8.0547,51.125 Z M8.2422,47.3515 C5.8281,47.3515 4.5625,46.0625 4.5625,43.7187 L4.5625,8.3047 C4.5625,5.9844 5.8281,4.6484 8.2656,4.6484 L18.6718,4.6484 L18.6718,18.2656 C18.6718,21.2187 20.1718,22.6718 23.0781,22.6718 L36.4375,22.6718 L36.4375,43.7187 C36.4375,46.0625 35.1953,47.3515 32.7578,47.3515 L8.2422,47.3515 Z M23.5,19.1328 C22.5859,19.1328 22.2109,18.7578 22.2109,17.8203 L22.2109,5.375 L35.7109,19.1328 L23.5,19.1328 Z"/>
    <path d="M20.5050523,34.7906773 C22.6810273,34.7906773 24.5533477,32.8474955 24.5533477,30.3173 C24.5533477,27.8174614 22.6709227,25.9653932 20.5050523,25.9653932 C18.339225,25.9653932 16.4567568,27.857966 16.4567568,30.3375523 C16.4567568,32.8474955 18.339225,34.7906773 20.5050523,34.7906773 Z M14.14925,44.1624705 L26.8608977,44.1624705 C28.4498159,44.1624705 29.0165773,43.7070319 29.0165773,42.8164069 C29.0165773,40.2052455 25.7475841,36.6022841 20.5050523,36.6022841 C15.2524159,36.6022841 11.9834227,40.2052455 11.9834227,42.8164069 C11.9834227,43.7070319 12.5501409,44.1624705 14.14925,44.1624705 Z"/>
  </g>
</svg>
