<svg xmlns="http://www.w3.org/2000/svg" width="56" height="56" viewBox="0 0 56 56">
  <path d="M0.36227713,24.3148175 L4.48092358,24.3148175 L4.48092358,6.7817973 L0.36227713,6.7817973 L0.36227713,24.3148175 Z M2.41334325,4.48250975 C3.70352726,4.48250975 4.71250375,3.49004747 4.71250375,2.24953315 C4.71250375,0.992419926 3.70352726,0 2.41334325,0 C1.13971579,0 0.1307393,0.99246227 0.1307393,2.24953315 C0.1307393,3.49008982 1.13971579,4.48250975 2.41334325,4.48250975 Z M18.1937389,0.0495003156 C11.2302429,0.0495003156 6.86329033,4.79670337 6.86329033,12.3890101 C6.86329033,19.9813169 11.2298195,24.7120056 18.1937389,24.7120056 C25.1407208,24.7120056 29.5076733,19.9813169 29.5076733,12.3890101 C29.5076733,4.79670337 25.1411442,0.0495003156 18.1937389,0.0495003156 Z M18.1937389,3.68847218 C22.4446685,3.68847218 25.157235,7.06279309 25.157235,12.3889254 C25.157235,17.6984588 22.4445839,21.0728644 18.1937389,21.0728644 C13.9262952,21.0728644 11.2302429,17.6985435 11.2302429,12.3889254 C11.2302429,7.06287778 13.9263798,3.68847218 18.1937389,3.68847218 Z M31.2450539,17.5993735 C31.4270025,21.9993545 35.0328656,24.711921 40.5243518,24.711921 C46.2971302,24.711921 49.9361868,21.8669019 49.9361868,17.3347225 C49.9361868,13.7784911 47.8851206,11.7770524 43.0387477,10.6689059 L40.2929833,10.0403493 C37.3652661,9.34565109 36.1578226,8.41937274 36.1578226,6.83146698 C36.1578226,4.84658479 37.9773086,3.52332998 40.6734031,3.52332998 C43.4026109,3.52332998 45.2715549,4.86314134 45.4701488,7.09611794 L49.5391679,7.09611794 C49.4399218,2.89477337 45.96638,0.0496273481 40.706601,0.0496273481 C35.5126671,0.0496273481 31.8240679,2.91116056 31.8240679,7.1456606 C31.8240679,10.5530523 33.9082049,12.6703023 38.3078047,13.6793635 L41.4009181,14.4071748 C44.4113333,15.1184296 45.6353335,16.1108495 45.6353335,17.8310807 C45.6353335,19.8159628 43.6338947,21.2384724 40.7560165,21.2384724 C37.844856,21.2384724 35.6450772,19.7994486 35.3804263,17.5995005 L31.2452658,17.5995005 L31.2450539,17.5993735 Z" transform="translate(3 16)"/>
</svg>
