<svg xmlns="http://www.w3.org/2000/svg" width="56" height="56" viewBox="0 0 56 56">
  <path d="M5.22307574,30.9345 L5.22307574,44.4341791 L36.3289243,44.4341791 L36.3289243,30.9345 L40.776,30.9345 L40.776,48.9345 L0.776,48.9345 L0.776,30.9345 L5.22307574,30.9345 Z M32,35 L32,40 L10,40 L10,35 L32,35 Z M10.9277895,25 L33,29.6115033 L32.0722105,34 L10,29.3884967 L10.9277895,25 Z M14.8746402,16 L35,25.0945103 L33.1253598,29 L13,19.9054897 L14.8746402,16 Z M20.8556275,7 L38,20.7080348 L35.1443725,24 L18,10.2919652 L20.8556275,7 Z M29.6024511,0 L43,17.4101966 L39.3975489,20 L26,2.58980337 L29.6024511,0 Z" transform="translate(6 4)"/>
</svg>
