<svg xmlns="http://www.w3.org/2000/svg" width="56" height="56" viewBox="0 0 56 56">
  <g fill-rule="evenodd" transform="translate(7 16)">
    <circle cx="3" cy="3" r="3"/>
    <circle cx="3" cy="13" r="3"/>
    <circle cx="3" cy="23" r="3"/>
    <path d="M9 3C9 1.8954305 9.88926172 1 11.0017433 1L38.9982567 1C40.103789 1 41 1.88772964 41 3 41 4.1045695 40.1107383 5 38.9982567 5L11.0017433 5C9.89621101 5 9 4.11227036 9 3zM9 13C9 11.8954305 9.88926172 11 11.0017433 11L38.9982567 11C40.103789 11 41 11.8877296 41 13 41 14.1045695 40.1107383 15 38.9982567 15L11.0017433 15C9.89621101 15 9 14.1122704 9 13zM9 23C9 21.8954305 9.88926172 21 11.0017433 21L38.9982567 21C40.103789 21 41 21.8877296 41 23 41 24.1045695 40.1107383 25 38.9982567 25L11.0017433 25C9.89621101 25 9 24.1122704 9 23z"/>
  </g>
</svg>
