<svg xmlns="http://www.w3.org/2000/svg" width="56" height="56" viewBox="0 0 56 56">
  <g fill-rule="evenodd" transform="translate(4 4)">
    <path fill-rule="nonzero" d="M24,44 C35.045695,44 44,35.045695 44,24 C44,12.954305 35.045695,4 24,4 C12.954305,4 4,12.954305 4,24 C4,35.045695 12.954305,44 24,44 Z M24,48 C10.745166,48 0,37.254834 0,24 C0,10.745166 10.745166,0 24,0 C37.254834,0 48,10.745166 48,24 C48,37.254834 37.254834,48 24,48 Z"/>
    <polygon points="33.831 12.857 26.849 24.674 31.35 24.674 31.35 26.471 25.927 26.471 25.927 29 31.35 29 31.35 30.797 25.927 30.797 25.927 35.361 22.46 35.361 22.46 30.797 17.037 30.797 17.037 29 22.46 29 22.46 26.471 17.037 26.471 17.037 24.674 21.537 24.674 14.571 12.857 18.452 12.857 24.162 23.068 24.257 23.068 29.967 12.857"/>
  </g>
</svg>
