<svg xmlns="http://www.w3.org/2000/svg" width="56" height="56" viewBox="0 0 56 56">
  <path fill-rule="evenodd" d="M27.013961,27.013961 L27.013961,43.1715729 L30.7713203,39.4142136 C31.5523689,38.633165 32.8186989,38.633165 33.5997475,39.4142136 C34.3807961,40.1952621 34.3807961,41.4615921 33.5997475,42.2426407 L26.5286797,49.3137085 C26.5118041,49.330584 26.4947021,49.3470949 26.4773833,49.3632412 C26.1122752,49.7550079 25.5917286,50 25.013961,50 C24.5208084,50 24.0693439,49.8215122 23.7206438,49.5256131 C23.6332878,49.4628741 23.5498511,49.3922393 23.4713203,49.3137085 L16.4002525,42.2426407 C15.6192039,41.4615921 15.6192039,40.1952621 16.4002525,39.4142136 C17.1813011,38.633165 18.4476311,38.633165 19.2286797,39.4142136 L23.013961,43.1994949 L23.013961,27.013961 L6.82842712,27.013961 L10.5857864,30.7713203 C11.366835,31.5523689 11.366835,32.8186989 10.5857864,33.5997475 C9.80473785,34.3807961 8.5384079,34.3807961 7.75735931,33.5997475 L0.686291501,26.5286797 C0.669415981,26.5118041 0.652905077,26.4947021 0.63675879,26.4773833 C0.2449921,26.1122752 0,25.5917286 0,25.013961 C0,24.5208084 0.178487773,24.0693439 0.474386909,23.7206438 C0.537125874,23.6332878 0.607760738,23.5498511 0.686291501,23.4713203 L7.75735931,16.4002525 C8.5384079,15.6192039 9.80473785,15.6192039 10.5857864,16.4002525 C11.366835,17.1813011 11.366835,18.4476311 10.5857864,19.2286797 L6.80050506,23.013961 L23.013961,23.013961 L23.013961,6.80050506 L19.2286797,10.5857864 C18.4476311,11.366835 17.1813011,11.366835 16.4002525,10.5857864 C15.6192039,9.80473785 15.6192039,8.5384079 16.4002525,7.75735931 L23.4713203,0.686291501 C23.5498511,0.607760738 23.6332878,0.537125874 23.7206438,0.474386909 C24.0693439,0.178487773 24.5208084,7.10542736e-15 25.013961,7.10542736e-15 C25.5917286,7.10542736e-15 26.1122752,0.2449921 26.4773833,0.63675879 C26.4947021,0.652905077 26.5118041,0.669415981 26.5286797,0.686291501 L33.5997475,7.75735931 C34.3807961,8.5384079 34.3807961,9.80473785 33.5997475,10.5857864 C32.8186989,11.366835 31.5523689,11.366835 30.7713203,10.5857864 L27.013961,6.82842712 L27.013961,23.013961 L43.1994949,23.013961 L39.4142136,19.2286797 C38.633165,18.4476311 38.633165,17.1813011 39.4142136,16.4002525 C40.1952621,15.6192039 41.4615921,15.6192039 42.2426407,16.4002525 L49.3137085,23.4713203 C49.3922393,23.5498511 49.4628741,23.6332878 49.5256131,23.7206438 C49.8215122,24.0693439 50,24.5208084 50,25.013961 C50,25.5917286 49.7550079,26.1122752 49.3632412,26.4773833 C49.3470949,26.4947021 49.330584,26.5118041 49.3137085,26.5286797 L42.2426407,33.5997475 C41.4615921,34.3807961 40.1952621,34.3807961 39.4142136,33.5997475 C38.633165,32.8186989 38.633165,31.5523689 39.4142136,30.7713203 L43.1715729,27.013961 L27.013961,27.013961 Z" transform="translate(3 3)"/>
</svg>
