<svg xmlns="http://www.w3.org/2000/svg" width="56" height="56" viewBox="0 0 56 56">
  <g fill-rule="evenodd" transform="translate(6)">
    <path fill-rule="nonzero" d="M10.0659068,3.6367 L32.8003068,3.6367 C32.6597068,1.6445 31.5346068,0.6133 29.3784068,0.6133 L13.5112068,0.6133 C11.3550068,0.6133 10.2065068,1.6445 10.0659068,3.6367 Z M5.91750677,10.1289 L36.7846068,10.1289 C36.4331068,7.9961 35.4253068,6.8242 33.0815068,6.8242 L9.62060677,6.8242 C7.27680677,6.8242 6.26900677,7.9961 5.91750677,10.1289 Z M8.28460677,55.3867 L35.8003068,55.3867 C40.0190068,55.3867 42.4565068,52.9492 42.4565068,48.1211 L42.4565068,21.1211 C42.4565068,16.293 39.9956068,13.8555 35.0972068,13.8555 L8.28460677,13.8555 C3.40970677,13.8555 0.925306768,16.293 0.925306768,21.1211 L0.925306768,48.1211 C0.925306768,52.9727 3.40970677,55.3867 8.28460677,55.3867 Z M8.35500677,51.6133 C6.01120677,51.6133 4.69870677,50.3711 4.69870677,47.9336 L4.69870677,21.332 C4.69870677,18.8945 6.01120677,17.6289 8.35500677,17.6289 L35.0503068,17.6289 C37.3706068,17.6289 38.6831068,18.8945 38.6831068,21.332 L38.6831068,47.9336 C38.6831068,50.3711 37.3706068,51.6133 35.7534068,51.6133 L8.35500677,51.6133 Z"/>
    <path d="M28.1312068,30.6351063 C29.1498068,30.3593063 29.4681068,30.1470063 29.4681068,28.9162063 L29.4681068,24.7571063 C29.4681068,23.9508063 29.1922068,23.5900063 28.0676068,23.8659063 L21.8500068,25.4149063 C20.8103068,25.6696063 20.5768068,25.8818063 20.5768068,27.1338063 L20.5768068,36.7041063 C20.5768068,37.6377063 20.4920068,37.8075063 19.4310068,38.1046063 L17.4787068,38.6139063 C15.5477068,39.1231063 13.9137068,40.2690063 13.9137068,42.3486063 C13.9137068,44.1523063 15.2718068,45.4680063 17.4151068,45.4680063 C20.4495068,45.4680063 22.5079068,43.2823063 22.5079068,40.2054063 L22.5079068,32.9269063 C22.5079068,32.1417063 22.6776068,31.9295063 23.1657068,31.8234063 L28.1312068,30.6351063 Z"/>
  </g>
</svg>
