<svg xmlns="http://www.w3.org/2000/svg" width="56" height="56" viewBox="0 0 56 56">
  <path fill-rule="evenodd" d="M24.9991065,48.9989576 C11.7446016,48.9989576 0.999106478,38.2552495 0.999106478,24.9989576 C0.999106478,11.7444528 11.7446016,0.998957597 24.9991065,0.998957597 C38.2536113,0.998957597 49.0008935,11.7444528 49.0008935,24.9989576 C49.0008935,38.2552495 38.2536113,48.9989576 24.9991065,48.9989576 Z M24.9991065,4.53551754 C13.7157111,4.53551754 4.53566642,13.7155622 4.53566642,24.9989576 C4.53566642,31.0623977 7.20014892,36.5003723 11.4014892,40.2495905 C11.5319434,40.1584513 11.6909903,40.0798213 11.8786299,40.0172748 C12.044825,39.9690246 12.2092331,39.9189874 12.36828,39.8707372 C17.046761,38.4357409 18.1654505,37.1937454 18.5871929,35.8230827 C19.3627699,35.4763962 19.652271,35.2387193 19.8059568,34.4148921 C19.9024572,33.8912882 19.977513,32.134624 19.9042442,31.525242 C19.4610573,31.0927774 19.2198064,29.979449 19.0053611,29.5344751 C18.5085629,28.5051378 18.4209978,27.9725987 17.943857,26.2409531 C17.8705882,26.0086374 17.7133284,25.9943411 17.6025316,25.949665 C17.4363366,25.8799703 17.291586,25.7691735 17.1379002,25.5600894 C16.7036485,24.9721519 16.9752792,24.6397618 16.5678332,23.5228593 C16.0495905,22.2522711 15.8405063,20.9977662 16.235443,20.622487 C16.5017126,20.3848102 16.680417,20.5384959 16.8108712,20.5867461 C16.8966493,20.6189129 16.8305287,20.4026806 16.7536858,20.0899479 C16.4409531,18.8104245 16.4230827,16.2585257 16.4230827,16.2585257 L16.4713328,16.2567387 C16.3104989,15.1898735 16.3480268,14.2069993 17.0556962,12.7166047 C17.7526433,11.1940432 18.3763217,11.5300075 18.7265823,11.1386449 C20.2044676,9.47490696 21.562621,9.43201791 22.5830231,8.9924051 C24.8758004,8.00238276 26.809382,8.87982133 28.355175,9.52673124 C29.005659,9.80729713 30.9017126,10.0235295 31.5343261,11.4227848 C31.9042442,12.2376769 32.2276992,13.6297841 32.3527923,13.7548772 C32.4850335,14.3553239 32.5565153,15.3239018 32.4886076,16.3854058 C32.4046165,17.6970961 32.4028295,18.7818318 32.0918838,20.0613552 C32.0132539,20.3723009 31.9453462,20.5903202 32.0329114,20.5563664 C32.1633656,20.5081162 32.3259866,20.3311988 32.5922561,20.5688757 C32.9854058,20.9441549 32.9049888,22.2522711 32.3867461,23.5228593 C31.9810871,24.6397618 32.2044676,24.8452718 31.9453462,25.3027551 C31.8345495,25.502904 31.7577066,25.7727476 31.4217424,25.8942666 C31.3109456,25.9353686 31.1751303,26.033656 31.123306,26.2731199 C30.7623232,27.9565153 30.6711839,28.2638869 30.2923306,29.5273269 C30.1511541,29.9991065 29.8276992,31.0159345 29.4005957,31.4162324 C29.3112435,32.1399851 29.5221147,33.9967238 29.6436337,34.4148921 C29.9259866,35.3941921 30.1958302,35.5854058 30.7462398,35.8230827 C31.4235294,37.2384215 31.9453462,39.0844379 37.1384959,39.9100522 C37.3743857,39.9475801 37.6192107,39.983321 37.874758,40.0172748 C38.1696203,40.0601639 38.4072971,40.1387938 38.6181683,40.2317201 C42.8069993,36.4807149 45.4643336,31.0516754 45.4643336,24.9989576 C45.4643336,13.7155622 36.2825019,4.53551754 24.9991065,4.53551754 Z" transform="translate(3 3)" style="mix-blend-mode:color-burn"/>
</svg>
