<svg xmlns="http://www.w3.org/2000/svg" width="56" height="56" viewBox="0 0 56 56">
  <path fill-rule="evenodd" d="M18.923076,33.9122194 L14.3377063,38.3126998 C14.6871967,40.2323434 14.709775,41.7952234 14.405441,43.0013397 C13.9489401,44.8105142 9.93899967,48.558991 7.87559153,47.1580156 C6.60868484,46.2978344 5.79454361,44.6627228 5.43316783,42.252681 C5.37504241,41.8647678 5.09879396,41.5449835 4.72345586,41.4310689 C3.28648743,40.9949509 2.32737448,40.5996457 1.84611701,40.2451534 C0.487439651,39.2443571 0.103523804,37.7841419 0.0164504384,37.0393967 C-0.193197431,35.2462624 1.61934069,34.360211 4.40479571,33.5295432 C6.26176572,32.9757647 8.36892138,33.0811028 10.7262627,33.8455574 L15.3799648,29.9375667 L15.0236158,29.6166169 C14.973492,29.5714724 14.9279887,29.5214483 14.8877794,29.4672852 C14.5532998,29.0167311 14.6473967,28.3803355 15.0979508,28.0458559 L16.273741,27.1729797 C17.6380872,16.5697755 20.6935778,9.44225977 25.4402128,5.79043253 C33.3649978,-0.306506835 40.9174263,-2.62302081 46.7546369,3.98189559 C52.5918475,10.586812 50.0343808,17.5799331 43.2224738,25.9114038 C39.6643092,30.2633046 33.0120806,32.66577 23.2657878,33.1187998 C23.0406749,33.1292636 22.8254297,33.2142745 22.6539188,33.3604569 L20.9369713,34.8237907 C20.9166327,34.8411257 20.895618,34.8576517 20.8739763,34.8733298 C20.4195532,35.2025338 19.7842979,35.1010237 19.4550939,34.6466006 L18.923076,33.9122194 Z" transform="translate(3 4)"/>
</svg>
