<svg xmlns="http://www.w3.org/2000/svg" width="56" height="56" viewBox="0 0 56 56">
  <g fill-rule="evenodd" transform="translate(6 10)">
    <path d="M17 30L41 30C42.1045695 30 43 30.8954305 43 32 43 33.1045695 42.1045695 34 41 34L17 34C15.8954305 34 15 33.1045695 15 32 15 30.8954305 15.8954305 30 17 30zM17 22L33 22C34.1045695 22 35 22.8954305 35 24 35 25.1045695 34.1045695 26 33 26L17 26C15.8954305 26 15 25.1045695 15 24 15 22.8954305 15.8954305 22 17 22zM17 14L25 14C26.1045695 14 27 14.8954305 27 16 27 17.1045695 26.1045695 18 25 18L17 18C15.8954305 18 15 17.1045695 15 16 15 14.8954305 15.8954305 14 17 14z"/>
    <path d="M9.19949503,0 C9.77726259,0 10.2978092,0.244992102 10.6629173,0.636758796 C10.6802361,0.652905084 10.6973382,0.669415988 10.7142137,0.686291508 L17.7852816,7.75735939 C18.5663301,8.53840798 18.5663301,9.80473795 17.7852816,10.5857865 C17.004233,11.3668351 15.737903,11.3668351 14.9568544,10.5857865 L11.1994951,6.82842719 L11.1994951,34 C11.1994951,35.1045699 10.3040645,36 9.19949503,36 C8.09492552,36 7.19949501,35.1045699 7.19949501,34 L7.19949501,6.80050513 L3.4142136,10.5857865 C2.63316501,11.3668351 1.36683504,11.3668351 0.585786444,10.5857865 C-0.195262148,9.80473795 -0.195262148,8.53840798 0.585786444,7.75735939 L7.65685433,0.686291508 C7.73538509,0.607760744 7.81882174,0.53712588 7.90617774,0.474386914 C8.25487784,0.178487775 8.70634241,0 9.19949503,0 Z"/>
  </g>
</svg>
