<svg xmlns="http://www.w3.org/2000/svg" width="56" height="56" viewBox="0 0 56 56">
  <g fill-rule="evenodd" transform="translate(4 4)">
    <path fill-rule="nonzero" d="M24,44.5714286 C35.3612863,44.5714286 44.5714286,35.3612863 44.5714286,24 C44.5714286,12.6387137 35.3612863,3.42857143 24,3.42857143 C12.6387137,3.42857143 3.42857143,12.6387137 3.42857143,24 C3.42857143,35.3612863 12.6387137,44.5714286 24,44.5714286 Z M24,48 C10.745166,48 0,37.254834 0,24 C0,10.745166 10.745166,0 24,0 C37.254834,0 48,10.745166 48,24 C48,37.254834 37.254834,48 24,48 Z"/>
    <path d="M23.7813 17.3047L39.3516 17.3047C40.3828 17.3047 41.1094 16.6484 41.1094 15.6641 41.1094 14.6563 40.3828 14 39.3516 14L23.7813 14C22.75 14 22 14.6563 22 15.6641 22 16.6484 22.75 17.3047 23.7813 17.3047zM26.7188 25.0625L39.3516 25.0625C40.3829 25.0625 41.1094 24.4063 41.1094 23.4219 41.1094 22.4141 40.3829 21.7578 39.3516 21.7578L26.7188 21.7578C25.6876 21.7578 24.961 22.4141 24.961 23.4219 24.961 24.4063 25.6876 25.0625 26.7188 25.0625zM29.9609 32.8202L39.3281 32.8202C40.3594 32.8202 41.1094 32.164 41.1094 31.1796 41.1094 30.1718 40.3594 29.5156 39.3281 29.5156L29.9609 29.5156C28.9297 29.5156 28.1797 30.1718 28.1797 31.1796 28.1797 32.164 28.9297 32.8202 29.9609 32.8202zM16.197284 38.1406C15.681684 38.1406 15.283184 37.9296 14.814484 37.4843L6.892584 29.5625C6.564484 29.2578 6.400384 28.8359 6.400384 28.3437 6.400384 27.3828 7.150384 26.6562 8.111384 26.6562 8.626984 26.6562 9.048884 26.8203 9.353584 27.1718L12.259784 30.1015 14.626984 32.9374 14.439484 27.9687 14.439484 12.7578C14.439484 11.7265 15.189484 11 16.197284 11 17.228484 11 17.955084 11.7265 17.955084 12.7578L17.955084 27.9687 17.767584 32.914 20.134784 30.1015 23.040984 27.1718C23.345784 26.8437 23.790984 26.6562 24.283184 26.6562 25.244184 26.6562 25.970684 27.3828 25.970684 28.3437 25.970684 28.8359 25.830084 29.2578 25.525384 29.5625L17.556684 37.4843C17.087884 37.9531 16.712884 38.1406 16.197284 38.1406z"/>
  </g>
</svg>
