<svg xmlns="http://www.w3.org/2000/svg" width="56" height="56" viewBox="0 0 56 56">
  <g fill-rule="evenodd" transform="translate(6 6)">
    <path fill-rule="nonzero" d="M7.7851,43.5742 L36.2382,43.5742 C41.1366,43.5742 43.5743,41.1367 43.5743,36.3086 L43.5743,7.6914 C43.5743,2.8633 41.1366,0.4258 36.2382,0.4258 L7.7851,0.4258 C2.9101,0.4258 0.4257,2.8398 0.4257,7.6914 L0.4257,36.3086 C0.4257,41.1602 2.9101,43.5742 7.7851,43.5742 Z M7.8554,39.8008 C5.5117,39.8008 4.1992,38.5586 4.1992,36.1211 L4.1992,7.8789 C4.1992,5.4414 5.5117,4.1992 7.8554,4.1992 L36.1679,4.1992 C38.4882,4.1992 39.8007,5.4414 39.8007,7.8789 L39.8007,36.1211 C39.8007,38.5586 38.4882,39.8008 36.1679,39.8008 L7.8554,39.8008 Z"/>
    <path d="M13.8602007 11.1465L11.8592007 12.6245C11.7722007 12.6885 11.7362007 12.7995 11.7692007 12.9025L12.5392007 15.2695C12.6142007 15.4995 12.3502007 15.6915 12.1542007 15.5485L10.1422007 14.0875C10.0542007 14.0245 9.93620069 14.0245 9.84820069 14.0875L7.83620069 15.5485C7.64020069 15.6915 7.37620069 15.4995 7.45120069 15.2695L8.21920069 12.9035C8.25320069 12.8005 8.21620069 12.6885 8.12920069 12.6245L6.10320069 11.1475C5.90720069 11.0045 6.00920069 10.6945 6.25120069 10.6955L8.75020069 10.7085C8.85920069 10.7095 8.95620069 10.6395 8.99020069 10.5355L9.75720069 8.1725C9.83220069 7.9425 10.1582007 7.9425 10.2332007 8.1725L11.0012007 10.5365C11.0352007 10.6395 11.1322007 10.7095 11.2402007 10.7085L13.7102007 10.6955C13.9532007 10.6945 14.0552007 11.0035 13.8602007 11.1465M13.8602007 21.1465L11.8592007 22.6245C11.7722007 22.6885 11.7362007 22.7995 11.7692007 22.9025L12.5392007 25.2695C12.6142007 25.4995 12.3502007 25.6915 12.1542007 25.5485L10.1422007 24.0875C10.0542007 24.0245 9.93620069 24.0245 9.84820069 24.0875L7.83620069 25.5485C7.64020069 25.6915 7.37620069 25.4995 7.45120069 25.2695L8.21920069 22.9035C8.25320069 22.8005 8.21620069 22.6885 8.12920069 22.6245L6.10320069 21.1475C5.90720069 21.0045 6.00920069 20.6945 6.25120069 20.6955L8.75020069 20.7085C8.85920069 20.7095 8.95620069 20.6395 8.99020069 20.5355L9.75720069 18.1725C9.83220069 17.9425 10.1582007 17.9425 10.2332007 18.1725L11.0012007 20.5365C11.0352007 20.6395 11.1322007 20.7095 11.2402007 20.7085L13.7102007 20.6955C13.9532007 20.6945 14.0552007 21.0035 13.8602007 21.1465M13.8602007 31.1465L11.8592007 32.6245C11.7722007 32.6885 11.7362007 32.7995 11.7692007 32.9025L12.5392007 35.2695C12.6142007 35.4995 12.3502007 35.6915 12.1542007 35.5485L10.1422007 34.0875C10.0542007 34.0245 9.93620069 34.0245 9.84820069 34.0875L7.83620069 35.5485C7.64020069 35.6915 7.37620069 35.4995 7.45120069 35.2695L8.21920069 32.9035C8.25320069 32.8005 8.21620069 32.6885 8.12920069 32.6245L6.10320069 31.1475C5.90720069 31.0045 6.00920069 30.6945 6.25120069 30.6955L8.75020069 30.7085C8.85920069 30.7095 8.95620069 30.6395 8.99020069 30.5355L9.75720069 28.1725C9.83220069 27.9425 10.1582007 27.9425 10.2332007 28.1725L11.0012007 30.5365C11.0352007 30.6395 11.1322007 30.7095 11.2402007 30.7085L13.7102007 30.6955C13.9532007 30.6945 14.0552007 31.0035 13.8602007 31.1465M18.8181818 10L35.1818182 10C36.1859723 10 37 10.8954305 37 12 37 13.1045695 36.1859723 14 35.1818182 14L18.8181818 14C17.8140277 14 17 13.1045695 17 12 17 10.8954305 17.8140277 10 18.8181818 10zM18.8181818 20L35.1818182 20C36.1859723 20 37 20.8954305 37 22 37 23.1045695 36.1859723 24 35.1818182 24L18.8181818 24C17.8140277 24 17 23.1045695 17 22 17 20.8954305 17.8140277 20 18.8181818 20zM18.8181818 30L35.1818182 30C36.1859723 30 37 30.8954305 37 32 37 33.1045695 36.1859723 34 35.1818182 34L18.8181818 34C17.8140277 34 17 33.1045695 17 32 17 30.8954305 17.8140277 30 18.8181818 30z"/>
  </g>
</svg>
