<svg xmlns="http://www.w3.org/2000/svg" width="56" height="56" viewBox="0 0 56 56">
  <g fill-rule="evenodd" transform="translate(6 6)">
    <path fill-rule="nonzero" d="M7.7851,43.5742 L36.2382,43.5742 C41.1366,43.5742 43.5743,41.1367 43.5743,36.3086 L43.5743,7.6914 C43.5743,2.8633 41.1366,0.4258 36.2382,0.4258 L7.7851,0.4258 C2.9101,0.4258 0.4257,2.8398 0.4257,7.6914 L0.4257,36.3086 C0.4257,41.1602 2.9101,43.5742 7.7851,43.5742 Z M7.8554,39.8008 C5.5117,39.8008 4.1992,38.5586 4.1992,36.1211 L4.1992,7.8789 C4.1992,5.4414 5.5117,4.1992 7.8554,4.1992 L36.1679,4.1992 C38.4882,4.1992 39.8007,5.4414 39.8007,7.8789 L39.8007,36.1211 C39.8007,38.5586 38.4882,39.8008 36.1679,39.8008 L7.8554,39.8008 Z"/>
    <circle cx="10" cy="12" r="2"/>
    <circle cx="10" cy="22" r="2"/>
    <path d="M18.8181818,10 L35.1818182,10 C36.1859723,10 37,10.8954305 37,12 C37,13.1045695 36.1859723,14 35.1818182,14 L18.8181818,14 C17.8140277,14 17,13.1045695 17,12 C17,10.8954305 17.8140277,10 18.8181818,10 Z"/>
    <circle cx="10" cy="32" r="2"/>
    <path d="M18.8181818 20L35.1818182 20C36.1859723 20 37 20.8954305 37 22 37 23.1045695 36.1859723 24 35.1818182 24L18.8181818 24C17.8140277 24 17 23.1045695 17 22 17 20.8954305 17.8140277 20 18.8181818 20zM18.8181818 30L35.1818182 30C36.1859723 30 37 30.8954305 37 32 37 33.1045695 36.1859723 34 35.1818182 34L18.8181818 34C17.8140277 34 17 33.1045695 17 32 17 30.8954305 17.8140277 30 18.8181818 30z"/>
  </g>
</svg>
