<svg xmlns="http://www.w3.org/2000/svg" width="56" height="56" viewBox="0 0 56 56">
  <g fill-rule="evenodd" transform="translate(3 12)">
    <path fill-rule="nonzero" d="M8.26698038,16 C8.26698038,19.6174909 6.20595738,22.8606024 3.03791186,24.4329505 L3.03791186,27.5497645 C3.03791186,28.1020492 3.48562711,28.5497645 4.03791186,28.5497645 L45.962103,28.5497645 C46.5143878,28.5497645 46.962103,28.1020492 46.962103,27.5497645 L46.962103,24.4330683 C43.8001853,22.8642903 41.7330189,19.6233228 41.7330189,16 C41.7330189,12.3784777 43.7983008,9.1368239 46.962103,7.56697183 L46.962103,4.45023554 C46.962103,3.89795079 46.5143878,3.45023554 45.962103,3.45023554 L4.03791186,3.45023554 C3.48562711,3.45023554 3.03791186,3.89795079 3.03791186,4.45023554 L3.03791186,7.56703704 C6.20558681,9.13916512 8.26698038,12.3821606 8.26698038,16 Z M-1.63137647e-05,4 C-1.63137647e-05,1.790861 1.790861,0 4,0 L46,0 C48.209139,0 50.0000171,1.790861 50.0000171,4 L50.0000171,8.44924833 C50.0000171,9.73351889 49.2320389,10.8933121 48.0496693,11.3946633 C46.2572792,12.1546768 45,13.9305117 45,16 C45,18.0871878 46.2788772,19.8756779 48.0957752,20.6246137 C49.248091,21.0996049 50.0000171,22.2228557 50.0000171,23.4692297 L50.0000171,28 C50.0000171,30.209139 48.209139,32 46,32 L4,32 C1.790861,32 -1.63137647e-05,30.209139 -1.63137647e-05,28 L-1.63137647e-05,23.737278 C-1.63137647e-05,22.3669055 0.803248902,21.1237726 2.05256398,20.5606272 C3.79034591,19.7772988 5,18.0299143 5,16 C5,13.9667184 3.78632936,12.2169047 2.04391157,11.4354826 C0.800260191,10.8777422 -1.63137647e-05,9.64177216 -1.63137647e-05,8.27878167 L-1.63137647e-05,4 Z"/>
    <circle cx="36" cy="8" r="3"/>
    <circle cx="36" cy="16" r="3"/>
    <circle cx="36" cy="24" r="3"/>
  </g>
</svg>
