<svg xmlns="http://www.w3.org/2000/svg" width="56" height="56" viewBox="0 0 56 56">
  <path fill-rule="evenodd" d="M6.72393724 12.0565383L22.908858.723734786C24.7184787-.543375289 27.2126619-.10358351 28.4797719 1.70603722L31.0317634 5.35064289C31.0694061 5.40440236 31.1052197 5.45904583 31.1392018 5.51448788L6.72393724 12.0565383zM1.24471965 25.2013442L.13728947 21.0683585C-.434477777 18.9344941.831852181 16.7411463 2.96571659 16.169379L43.5346013 5.29897915C45.6684657 4.7272119 47.8618135 5.99354186 48.4335808 8.12740628L49.5851397 12.4250478C49.9175334 13.6655579 49.4759077 14.9845974 48.4635856 15.7748852 46.9289757 16.9729066 46.1741572 19.0136393 46.7097802 21.0126114 47.2499842 23.02868 48.94818 24.425231 50.8970075 24.6783997 52.1329959 24.8389647 53.1500194 25.7293288 53.4726048 26.9332337L54.6452379 31.3096261C55.2170051 33.4434905 53.9506752 35.6368383 51.8168107 36.2086056L11.247926 47.0790055C9.11406162 47.6507727 6.9207138 46.3844428 6.34894655 44.2505784L5.24568868 40.1331009C4.89101017 38.8094227 5.3451268 37.4007566 6.40611974 36.5334534 7.88194789 35.3270452 8.59812763 33.3261199 8.07274714 31.3653732 7.54649514 29.401374 5.92129423 28.0253049 4.03600094 27.7214799 2.69037212 27.5046247 1.5974718 26.5178962 1.2447039 25.2013485L1.24471965 25.2013442zM36.7223525 18.5123537C38.3227508 18.0835283 39.2724983 16.4385174 38.8436729 14.8381191 38.4148474 13.2377208 36.7698366 12.2879733 35.1694383 12.7167987 33.56904 13.1456242 32.6192925 14.790635 33.0481179 16.3910333 33.4769434 17.9914317 35.1219542 18.9411791 36.7223525 18.5123537zM38.7929049 26.2397603C40.3933032 25.8109349 41.3430507 24.165924 40.9142252 22.5655257 40.4853998 20.9651274 38.8403889 20.0153799 37.2399906 20.4442053 35.6395923 20.8730308 34.6898448 22.5180416 35.1186703 24.11844 35.5474957 25.7188383 37.1925066 26.6685857 38.7929049 26.2397603zM40.8634573 33.9671669C42.4638556 33.5383415 43.413603 31.8933306 42.9847776 30.2929323 42.5559522 28.692534 40.9109413 27.7427865 39.310543 28.171612 37.7101447 28.6004374 36.7603972 30.2454483 37.1892226 31.8458466 37.6180481 33.4462449 39.2630589 34.3959923 40.8634573 33.9671669z" transform="translate(.903 4.64)"/>
</svg>
