<svg xmlns="http://www.w3.org/2000/svg" width="56" height="56" viewBox="0 0 56 56">
  <path d="M24,0 C37.254834,0 48,10.745166 48,24 C48,37.254834 37.254834,48 24,48 C10.745166,48 0,37.254834 0,24 C0,10.745166 10.745166,0 24,0 Z M26.7693683,14 L13.2891579,14 C10.989993,14 9.11334807,15.8090225 9.00494609,18.0813443 L9,18.2891579 L9,29.318421 C9,31.6175858 10.8090225,33.4942308 13.0813443,33.6026327 L13.2891579,33.6075788 L26.7693683,33.6075788 C29.0685331,33.6075788 30.9451781,31.7985563 31.0535801,29.5262345 L31.0585262,29.318421 L31.0585262,18.2891579 C31.0585262,15.989993 29.2495037,14.1133481 26.9771819,14.0049461 L26.7693683,14 Z M37.0086053,15.8332854 L36.8669037,15.8383308 C36.5041529,15.8642003 36.1555713,15.9889466 35.8590296,16.1985982 L35.7152708,16.3104348 L32.2839999,19.2407382 L32.2839999,28.4998045 L35.7269996,31.3949688 L35.8221877,31.470259 C36.661083,32.0937294 37.8511942,31.9629964 38.5327903,31.1523895 C38.7968303,30.8383726 38.9565077,30.4516446 38.9923015,30.045754 L39,29.8707838 L39,17.8246801 L38.9968476,17.7116768 C38.9411934,16.7167972 38.1552512,15.9169406 37.1663563,15.8394421 L37.0086053,15.8332854 Z" transform="translate(4 4)"/>
</svg>
