<svg width="100%" height="100%" viewBox="0 0 56 56" version="1.1" xmlns="http://www.w3.org/2000/svg">
    <g transform="matrix(1,0,0,1,1.5,0)">
        <path d="M4.5,24C4.5,22.133 5.501,20.292 7.512,18.741C11.077,15.992 18.23,14 26.5,14C34.77,14 41.923,15.992 45.488,18.741C47.499,20.292 48.5,22.133 48.5,24L48.5,32C48.5,33.867 47.499,35.708 45.488,37.259C41.923,40.008 34.77,42 26.5,42C18.23,42 11.077,40.008 7.512,37.259C5.501,35.708 4.5,33.867 4.5,32L4.5,24ZM26.5,26C32.726,26 38.259,27.165 41.681,29.032C42.642,29.556 43.419,30.124 43.943,30.753C44.275,31.151 44.5,31.557 44.5,32C44.5,32.443 44.275,32.849 43.943,33.247C43.419,33.876 42.642,34.444 41.681,34.968C38.259,36.835 32.726,38 26.5,38C20.274,38 14.741,36.835 11.319,34.968C10.358,34.444 9.581,33.876 9.057,33.247C8.725,32.849 8.5,32.443 8.5,32C8.5,31.557 8.725,31.151 9.057,30.753C9.581,30.124 10.358,29.556 11.319,29.032C14.741,27.165 20.274,26 26.5,26Z"/>
    </g>
</svg>
