<svg width="100%" height="100%" viewBox="0 0 56 56" version="1.1" xmlns="http://www.w3.org/2000/svg">
    <g transform="matrix(1,0,0,1,8.66862e-13,-2.54257)">
        <path d="M5.358,32.512L5.358,29C5.358,28.233 5.796,27.534 6.486,27.2L27.128,17.2C27.679,16.933 28.321,16.933 28.872,17.2L49.514,27.2C50.204,27.534 50.642,28.233 50.642,29L50.642,32.512L50.642,32.552C50.642,32.689 50.627,32.827 50.598,32.964L50.594,32.98C50.552,33.17 50.482,33.35 50.39,33.515C50.302,33.674 50.194,33.817 50.072,33.941L50.054,33.959L50.041,33.973C49.916,34.095 49.773,34.202 49.614,34.29C49.562,34.319 49.509,34.346 49.454,34.371L28.839,43.901C28.307,44.147 27.693,44.147 27.161,43.901L6.546,34.371C6.491,34.346 6.438,34.32 6.386,34.29C6.227,34.202 6.084,34.095 5.959,33.973L5.941,33.955L5.928,33.941C5.806,33.816 5.698,33.674 5.61,33.515C5.518,33.35 5.448,33.17 5.406,32.98L5.402,32.964C5.373,32.827 5.358,32.689 5.358,32.552L5.358,32.524L5.358,32.512ZM12.124,32.543L28,39.882L43.876,32.543L28,25.203L12.124,32.543Z"/>
    </g>
</svg>
