<svg width="100%" height="100%" viewBox="0 0 56 56" version="1.1" xmlns="http://www.w3.org/2000/svg">
    <g transform="matrix(0.847486,0,0,0.847486,4.27038,5.45927)">
        <path d="M1.773,26.847L1.773,24C1.773,23.05 2.442,22.231 3.373,22.04L37.655,15.04C38.162,14.937 38.69,15.034 39.127,15.312L53.299,24.312C53.877,24.679 54.227,25.316 54.227,26L54.227,29.134L54.227,29.147L54.227,29.168C54.227,29.189 54.226,29.211 54.225,29.232L54.224,29.258L54.223,29.262C54.206,29.556 54.125,29.832 53.994,30.078L53.985,30.094L53.975,30.113L53.959,30.142L53.949,30.159C53.771,30.46 53.515,30.711 53.209,30.883L53.184,30.897C53.004,30.996 52.807,31.068 52.598,31.107L18.348,38.153C17.829,38.26 17.288,38.156 16.845,37.865L2.673,28.529C2.416,28.36 2.207,28.138 2.056,27.884L2.042,27.86C1.894,27.606 1.801,27.316 1.778,27.007L1.777,26.987L1.777,26.978C1.775,26.956 1.774,26.933 1.774,26.911L1.774,26.91C1.773,26.889 1.773,26.868 1.773,26.847ZM8.905,27.845L18.353,34.068L47.095,28.155L37.647,21.932L8.905,27.845Z"/>
    </g>
</svg>
