<svg width="100%" height="100%" viewBox="0 0 56 56" version="1.1" xmlns="http://www.w3.org/2000/svg">
    <g transform="matrix(1,0,0,1,-0.561468,3.29318)">
        <path d="M14.473,20.499L14.473,14.424L6.846,14.424C6.017,14.424 5.346,13.752 5.346,12.924L5.346,11.076C5.346,10.248 6.017,9.576 6.846,9.576L50,9.576C50.828,9.576 51.5,10.248 51.5,11.076L51.5,12.924C51.5,13.752 50.828,14.424 50,14.424L38.5,14.424L38.5,22.817L48.857,25.592C50.033,25.907 50.999,26.763 51.603,28.034C52.326,29.552 52.523,31.728 51.921,33.977C51.318,36.226 50.059,38.011 48.674,38.965C47.515,39.763 46.251,40.022 45.075,39.707C45.075,39.707 38.445,37.93 33.402,36.579C29.515,35.538 27.209,31.542 28.25,27.656C28.254,27.642 28.257,27.629 28.261,27.616C29.151,24.292 32.203,22.123 35.5,22.217L35.5,14.424L16.973,14.424L16.973,19.885C19.643,19.56 22.214,21.24 22.93,23.913C22.933,23.923 22.935,23.932 22.938,23.942C23.722,26.869 21.985,29.877 19.058,30.662L10.269,33.017C9.383,33.254 8.431,33.059 7.559,32.458C6.516,31.74 5.568,30.396 5.114,28.702C4.661,27.009 4.809,25.37 5.353,24.227C5.808,23.27 6.535,22.626 7.421,22.388L14.473,20.499ZM45.852,36.809C46.365,36.947 46.878,36.63 47.359,36.181C48.089,35.501 48.689,34.447 49.023,33.201C49.357,31.955 49.364,30.741 49.072,29.787C48.88,29.158 48.594,28.627 48.081,28.49C47.568,28.352 47.054,28.669 46.573,29.117C45.844,29.798 45.244,30.852 44.91,32.098C44.576,33.344 44.568,34.558 44.86,35.512C45.052,36.141 45.339,36.672 45.852,36.809ZM36.329,25.342C34.068,24.78 31.764,26.132 31.158,28.393C31.155,28.406 31.151,28.419 31.148,28.432C30.535,30.718 31.892,33.069 34.179,33.681L41.827,35.731C41.561,34.43 41.591,32.894 42.012,31.322C42.433,29.75 43.175,28.405 44.056,27.411L36.914,25.498C36.705,25.486 36.507,25.431 36.329,25.342ZM8.006,24.57C7.619,24.674 7.404,25.074 7.259,25.547C7.039,26.266 7.045,27.179 7.296,28.118C7.548,29.056 7.999,29.85 8.549,30.362C8.911,30.7 9.298,30.938 9.684,30.835C10.07,30.731 10.286,30.331 10.431,29.858C10.651,29.14 10.645,28.226 10.393,27.288C10.142,26.35 9.69,25.555 9.141,25.043C8.779,24.706 8.392,24.467 8.006,24.57ZM12.715,30.023L18.474,28.48C20.195,28.018 21.217,26.249 20.756,24.527C20.753,24.517 20.751,24.507 20.748,24.497C20.287,22.776 18.517,21.754 16.795,22.215L11.036,23.758C11.7,24.506 12.258,25.52 12.575,26.703C12.892,27.887 12.915,29.043 12.715,30.023Z"/>
    </g>
</svg>
