<svg width="100%" height="100%" viewBox="0 0 56 56" version="1.1" xmlns="http://www.w3.org/2000/svg">
    <g transform="matrix(1,0,0,1,7,16)">
        <g transform="matrix(1,0,0,1,-23.4074,-22.8905)">
            <path d="M39.039,34.867C39.039,34.422 38.875,33.953 38.43,33.555L32.5,27.906C32.219,27.625 31.844,27.508 31.398,27.508C30.508,27.508 29.851,28.164 29.851,29.031C29.851,29.5 30.016,29.945 30.32,30.156L31.68,31.281L34.281,33.438L30.695,33.297L23.555,33.297C22.641,33.297 21.961,33.953 21.961,34.867C21.961,35.805 22.641,36.461 23.555,36.461L30.695,36.461L34.305,36.32L31.68,38.523L30.32,39.602C30.016,39.813 29.851,40.281 29.851,40.727C29.851,41.594 30.508,42.273 31.398,42.273C31.844,42.273 32.219,42.133 32.5,41.852L38.43,36.25C38.851,35.875 39.039,35.359 39.039,34.867Z" style="fill-rule:nonzero;"/>
        </g>
        <g transform="matrix(1.27562,0,0,1.27562,-14.4794,-24.933)">
            <path d="M45.41,14.613C45.41,12.515 43.901,10.812 42.043,10.812L31.367,10.812C29.509,10.812 28,12.515 28,14.613L28,43.294C28,45.391 29.509,47.094 31.367,47.094L42.043,47.094C43.901,47.094 45.41,45.391 45.41,43.294L45.41,14.613ZM36.705,42.169C37.465,42.169 38.081,42.785 38.081,43.545C38.081,43.781 38.022,44.003 37.917,44.197C37.685,44.628 37.229,44.921 36.705,44.921C35.945,44.921 35.329,44.305 35.329,43.545C35.329,42.785 35.945,42.169 36.705,42.169ZM43.626,41.056L43.626,15.612L29.784,15.612L29.784,41.056L43.626,41.056Z"/>
        </g>
    </g>
</svg>
