<svg width="100%" height="100%" viewBox="0 0 56 56" version="1.1" xmlns="http://www.w3.org/2000/svg">
    <g transform="matrix(1.75001,0,0,1.75001,-0.841386,9.37497e-05)">
        <path d="M22.861,9.736C24.76,9.098 25.128,9.618 23.639,10.921C22.13,12.241 19.323,13.834 17.413,14.454C15.53,15.066 15.269,14.486 16.789,13.183C18.287,11.897 20.988,10.365 22.861,9.736M17.045,16.714C19.783,15.956 23.716,13.722 25.768,11.762C26.806,10.771 27.146,10.054 26.869,9.694C24.92,6.49 21.067,5.17 17.88,6.537C17.927,6.365 17.962,6.187 17.962,6C17.962,4.895 17.066,4 15.962,4C14.857,4 13.962,4.895 13.962,6C13.962,6.983 14.673,7.797 15.609,7.965L6.297,16.884C6.11,17.063 6.003,17.31 6,17.568C5.997,17.827 6.098,18.076 6.282,18.258L12.218,24.195C11.663,24.276 11.131,24.376 10.668,24.508C9.693,24.79 9.141,25.138 8.999,25.499C8.973,25.558 8.962,25.623 8.962,25.686L8.962,26.311C8.962,26.375 8.973,26.435 8.999,26.499C9.145,26.874 9.738,27.234 10.769,27.519C13.094,28.16 16.822,28.16 19.15,27.519C20.181,27.234 20.778,26.874 20.924,26.499C20.95,26.435 20.962,26.375 20.962,26.311L20.962,25.686C20.962,25.623 20.95,25.558 20.924,25.499C20.782,25.138 20.23,24.79 19.259,24.508C18.025,24.154 16.378,23.989 14.748,24.006L8.337,17.593L13.818,12.342C13.704,13.75 13.979,15.225 14.696,16.589C14.855,17.021 15.647,17.101 17.045,16.714" style="fill:rgb(16,16,16);"/>
    </g>
</svg>
