<svg width="100%" height="100%" viewBox="0 0 56 56" version="1.1" xmlns="http://www.w3.org/2000/svg">
    <g transform="matrix(1.37501,0,0,1.37501,5.99991,6.00025)">
        <g>
            <path d="M12.419,2.303C14.383,1.9 17.611,1.9 19.578,2.303C21.518,2.7 21.458,3.333 19.493,3.717C17.556,4.095 14.45,4.095 12.511,3.717C10.544,3.333 10.482,2.7 12.419,2.303M20.892,12.432C22.095,12.095 22.785,11.669 22.956,11.227C22.987,11.15 23,11.08 23,11.005L23,1.993C23,1.918 22.987,1.843 22.956,1.772C22.79,1.346 22.147,0.934 21.01,0.602C18.258,-0.201 13.738,-0.201 10.986,0.602C9.854,0.934 9.21,1.346 9.044,1.772C9.013,1.843 9,1.918 9,1.993L9,11.005C9,11.08 9.013,11.15 9.044,11.227C9.215,11.669 9.91,12.095 11.113,12.432C12.213,12.739 13.582,12.914 15,12.973L15,27.023C12.073,27.137 9.721,27.732 9.14,28.5C9.047,28.619 9,28.747 9,28.875L9,30.125C9,31.16 12.135,32 16,32C19.865,32 23,31.16 23,30.125L23,28.875C23,27.932 20.391,27.151 17,27.022L17,12.973C18.42,12.915 19.791,12.74 20.892,12.432" style="fill:rgb(16,16,16);"/>
        </g>
    </g>
</svg>
