<svg width="100%" height="100%" viewBox="0 0 56 56" version="1.1" xmlns="http://www.w3.org/2000/svg">
    <g transform="matrix(-1,0,0,1,48,16)">
        <g transform="matrix(-1,0,0,1,48.5,-15.5)">
            <path d="M3.5,23L3.5,32C3.5,32.828 4.172,33.5 5,33.5C5.828,33.5 6.5,32.828 6.5,32L6.5,23C6.5,22.172 5.828,21.5 5,21.5C4.172,21.5 3.5,22.172 3.5,23Z"/>
        </g>
        <g transform="matrix(-1,0,0,1.44444,44.5,-27.7222)">
            <path d="M3.5,23L3.5,32C3.5,32.573 4.172,33.038 5,33.038C5.828,33.038 6.5,32.573 6.5,32L6.5,23C6.5,22.427 5.828,21.962 5,21.962C4.172,21.962 3.5,22.427 3.5,23Z"/>
        </g>
        <g transform="matrix(-1,0,0,2,40.5,-43)">
            <path d="M3.5,23L3.5,32C3.5,32.414 4.172,32.75 5,32.75C5.828,32.75 6.5,32.414 6.5,32L6.5,23C6.5,22.586 5.828,22.25 5,22.25C4.172,22.25 3.5,22.586 3.5,23Z"/>
        </g>
        <g transform="matrix(1,0,0,1,-8.5,-15.5)">
            <path d="M6.5,23L6.5,32C6.5,32.828 5.828,33.5 5,33.5C4.172,33.5 3.5,32.828 3.5,32L3.5,23C3.5,22.172 4.172,21.5 5,21.5C5.828,21.5 6.5,22.172 6.5,23Z"/>
        </g>
        <g transform="matrix(1,0,0,1.44444,-4.5,-27.7222)">
            <path d="M6.5,23L6.5,32C6.5,32.573 5.828,33.038 5,33.038C4.172,33.038 3.5,32.573 3.5,32L3.5,23C3.5,22.427 4.172,21.962 5,21.962C5.828,21.962 6.5,22.427 6.5,23Z"/>
        </g>
        <g transform="matrix(1,0,0,2,-0.5,-43)">
            <path d="M6.5,23L6.5,32C6.5,32.414 5.828,32.75 5,32.75C4.172,32.75 3.5,32.414 3.5,32L3.5,23C3.5,22.586 4.172,22.25 5,22.25C5.828,22.25 6.5,22.586 6.5,23Z"/>
        </g>
        <g transform="matrix(-1,0,0,1,48.5,-15.5)">
            <path d="M17,29.5L40,29.5C40.828,29.5 41.5,28.828 41.5,28C41.5,27.172 40.828,26.5 40,26.5L17,26.5C16.172,26.5 15.5,27.172 15.5,28C15.5,28.828 16.172,29.5 17,29.5Z"/>
        </g>
    </g>
</svg>
