<svg width="100%" height="100%" viewBox="0 0 56 56" version="1.1" xmlns="http://www.w3.org/2000/svg"><g><path d="M7.803,39.313c-0.14,0.687 -0.627,1.443 -1.88,1.443c-1.289,-0 -1.985,-0.893 -1.985,-2.13c-0,-1.203 0.766,-2.198 2.02,-2.198c1.392,-0 1.811,0.996 1.811,1.477l-1.116,-0c-0.069,-0.344 -0.244,-0.585 -0.696,-0.585c-0.522,0 -0.836,0.447 -0.836,1.272c-0,0.892 0.314,1.271 0.836,1.271c0.417,0 0.627,-0.241 0.696,-0.55l1.15,0m4.666,-0.722c-0,1.238 -0.766,2.165 -2.089,2.165c-1.29,0 -2.055,-0.927 -2.055,-2.13c0,-1.271 0.766,-2.164 2.124,-2.164c1.219,-0 2.02,0.824 2.02,2.129Zm-2.96,0c-0,0.79 0.348,1.272 0.906,1.272c0.557,-0 0.87,-0.482 0.87,-1.272c-0,-0.858 -0.313,-1.271 -0.905,-1.271c-0.523,0.035 -0.871,0.413 -0.871,1.272m3.761,-1.031l-0,-1.031l1.114,0c0.035,0.103 0.035,0.412 0.035,0.516c0.139,-0.241 0.488,-0.618 1.219,-0.618c0.835,-0 1.393,0.549 1.393,1.58l0,2.61l-1.15,0l0,-2.507c0,-0.482 -0.174,-0.791 -0.661,-0.791c-0.487,0 -0.766,0.275 -0.766,0.997l-0,2.301l-1.149,0l-0,-3.057l-0.035,0m4.283,-1.031l0.627,0l0,-1.133l1.149,-0l0,1.133l0.801,0l0,0.859l-0.801,-0l0,2.027c0,0.309 0.104,0.447 0.454,0.447l0.243,-0l-0,0.79c-0.243,0.068 -0.557,0.068 -0.767,0.068c-0.8,0 -1.079,-0.412 -1.079,-1.134l0,-2.163l-0.627,-0l-0,-0.894m3.274,1.134l0,-1.134l1.148,0c0.035,0.103 0.035,0.516 0.035,0.721c0.175,-0.48 0.627,-0.823 1.323,-0.823l0,1.099c-0.835,-0.035 -1.323,0.206 -1.323,1.34l0,1.786l-1.148,-0l-0,-2.989l-0.035,0m6.999,0.927c-0,1.238 -0.767,2.165 -2.089,2.165c-1.289,0 -2.055,-0.927 -2.055,-2.13c0,-1.271 0.766,-2.164 2.124,-2.164c1.219,-0 2.02,0.824 2.02,2.129Zm-2.96,0c0,0.79 0.349,1.272 0.905,1.272c0.558,-0 0.871,-0.482 0.871,-1.272c-0,-0.858 -0.313,-1.271 -0.905,-1.271c-0.523,0.035 -0.871,0.413 -0.871,1.272m3.761,2.061l-0,-5.806l1.148,0l0,5.806l-1.148,-0" style="fill-rule:nonzero;"/><path d="M30.925,35.156l1.254,0l-0,2.164l2.194,0l0,-2.13l1.218,0l0,5.498l-1.218,-0l0,-2.371l-2.23,0l-0,2.371l-1.217,-0l-0,-5.532m9.645,3.435c0,1.238 -0.765,2.165 -2.089,2.165c-1.289,0 -2.055,-0.927 -2.055,-2.13c0,-1.271 0.766,-2.164 2.124,-2.164c1.218,-0 2.02,0.824 2.02,2.129l0,0Zm-2.96,0c0,0.79 0.349,1.272 0.905,1.272c0.558,-0 0.871,-0.482 0.871,-1.272c-0,-0.858 -0.313,-1.271 -0.905,-1.271c-0.523,0.035 -0.871,0.413 -0.871,1.272m3.761,-0.997l-0,-1.065l1.114,0c0.036,0.103 0.036,0.344 0.036,0.481c0.208,-0.309 0.556,-0.583 1.148,-0.583c0.592,-0 0.941,0.309 1.08,0.618c0.243,-0.344 0.591,-0.618 1.288,-0.618c0.731,-0 1.323,0.446 1.323,1.51l0,2.714l-1.149,0l0,-2.575c0,-0.379 -0.139,-0.722 -0.627,-0.722c-0.487,0 -0.695,0.309 -0.695,0.927l-0,2.371l-1.115,-0l-0,-2.509c-0,-0.411 -0.105,-0.755 -0.592,-0.755c-0.488,-0 -0.697,0.275 -0.697,0.996l0,2.303l-1.148,-0l0.034,-3.093m7.94,1.237c-0,0.515 0.243,1.031 0.836,1.031c0.487,-0 0.626,-0.171 0.731,-0.447l1.149,-0c-0.14,0.515 -0.592,1.34 -1.916,1.34c-1.358,-0 -1.984,-0.996 -1.984,-2.096c-0,-1.271 0.661,-2.232 2.02,-2.232c1.427,-0 1.914,1.031 1.914,2.06c-0,0.138 -0,0.241 -0.034,0.344l-2.716,-0Zm1.601,-0.687c0,-0.481 -0.209,-0.894 -0.765,-0.894c-0.558,0 -0.767,0.378 -0.836,0.894l1.601,-0" style="fill-rule:nonzero;"/><path d="M20.13,19.104l0,11.586l3.917,-1.923l0,-11.596l-3.917,1.933"/><path d="M28,15.248l0,3.856l-7.87,3.857l0,-3.882l7.87,-3.831"/><path d="M28,22.961l-7.87,3.881l0,3.848l7.87,-3.829l0,-3.899"/><path d="M28,19.104l0,3.857l7.8,3.877l-0,-3.86l-7.8,-3.873"/><path d="M35.8,26.825l-0,3.891l-2.612,-1.292l0,-3.893l2.612,1.294Zm-5.223,-2.587l0,3.895l-2.577,-1.273l0,-3.899l2.577,1.277"/><path d="M33.188,17.793l2.612,1.291l-0,3.893l-2.612,-1.296l0,-3.888Zm-2.611,-1.291l0,3.882l-2.577,-1.28l0,-3.856l2.577,1.254"/></g></svg>