<svg width="100%" height="100%" viewBox="0 0 56 56" version="1.1" xmlns="http://www.w3.org/2000/svg"><g><path id="Netflix_Symbol_Left_Leg" d="M32.081,24.966l-0,-23.198l10.376,0l-0,52.464l-0.002,-0l-0.025,-0.003c-0.449,-0.056 -0.896,-0.108 -1.341,-0.157l-0.018,-0.002l-0.149,-0.016l-0.026,-0.003l-0.146,-0.015l-0.023,-0.003c-0.209,-0.022 -0.418,-0.044 -0.626,-0.065l-0.029,-0.003l-0.124,-0.012l-0.053,-0.005l-0.117,-0.012l-0.059,-0.006l-0.114,-0.011l-0.061,-0.005l-0.114,-0.011l-0.058,-0.006l-0.117,-0.011l-0.175,-0.016c-0.055,-0.005 -0.11,-0.01 -0.165,-0.015l-0.165,-0.014l-0.175,-0.016l-0.112,-0.009l-0.063,-0.006l-0.107,-0.009l-0.069,-0.006l-0.102,-0.008l-0.073,-0.006l-0.099,-0.008l-0.079,-0.007l-0.093,-0.007l-0.172,-0.014l-0.171,-0.013l-0.179,-0.013l-0.04,-0.003l-0.14,-0.011l-0.036,-0.002l-0.15,-0.011l-0.023,-0.002l-0.171,-0.012l-0.182,-0.013c-0.061,-0.004 -0.122,-0.008 -0.183,-0.012l-0.025,-0.002c-1.448,-0.097 -2.86,-0.164 -4.225,-0.207c-0,-0 -8.162,-22.796 -8.162,-22.796l0,22.797c-6.285,0.199 -10.375,0.784 -10.376,0.784l0,-52.461l10.376,0l0,0.122l8.162,23.076Z"/></g></svg>