<svg width="100%" height="100%" viewBox="0 0 56 56" version="1.1" xmlns="http://www.w3.org/2000/svg">
    <g transform="matrix(1,0,0,1,7,16)">
        <path d="M0,3C0,1.895 0.889,1 2.002,1L38.998,1C40.104,1 41,1.888 41,3C41,4.105 40.111,5 38.998,5L2.002,5C0.896,5 0,4.112 0,3ZM0,13C0,11.895 0.889,11 2.002,11L29,11C30.106,11 31.002,11.888 31.002,13C31.002,14.105 30.112,15 29,15L2.002,15C0.896,15 0,14.112 0,13ZM0,23C0,21.895 0.889,21 2.002,21L19,21C20.106,21 21.002,21.888 21.002,23C21.002,24.105 20.112,25 19,25L2.002,25C0.896,25 0,24.112 0,23Z"/>
    </g>
</svg>
