<svg width="100%" height="100%" viewBox="0 0 56 56" version="1.1" xmlns="http://www.w3.org/2000/svg"><g><path d="M26.741,41.694l0,-5.969c0,-0.828 0.673,-1.5 1.5,-1.5c0.828,-0 1.5,0.672 1.5,1.5l0,5.969l12.039,4.631c0.773,0.297 1.159,1.165 0.861,1.938c-0.297,0.773 -1.165,1.159 -1.938,0.862l-10.962,-4.216l0,2.816c0,0.828 -0.672,1.5 -1.5,1.5c-0.827,-0 -1.5,-0.672 -1.5,-1.5l0,-2.816l-10.961,4.216c-0.773,0.297 -1.641,-0.089 -1.939,-0.862c-0.297,-0.773 0.089,-1.641 0.862,-1.938l12.038,-4.631Z"/><path d="M39.259,7.214c-0.397,-2.851 -2.835,-4.973 -5.714,-4.973c-3.347,-0 -7.734,-0 -11.107,-0c-2.933,-0 -5.399,2.2 -5.731,5.114c-0.43,3.768 -1.018,8.918 -1.48,12.963c-0.186,1.633 0.333,3.268 1.427,4.495c1.095,1.227 2.661,1.928 4.305,1.928c4.333,-0 10.023,-0 14.39,-0c1.669,-0 3.256,-0.723 4.351,-1.981c1.096,-1.259 1.593,-2.93 1.363,-4.583c-0.567,-4.074 -1.284,-9.227 -1.804,-12.963Z"/><path d="M16.51,28.818c4.82,1.162 17.894,1.162 22.714,-0c3.195,-0.771 4.824,4.487 2.699,4.487c-5.986,-0 -21.377,-0 -27.364,-0c-2.124,-0 -1.245,-5.258 1.951,-4.487Z"/><circle cx="14.759" cy="51.742" r="2.017"/><path d="M14.759,48.225c-1.942,-0 -3.518,1.576 -3.518,3.517c0,1.941 1.576,3.517 3.518,3.517c1.941,0 3.517,-1.576 3.517,-3.517c-0,-1.941 -1.576,-3.517 -3.517,-3.517Zm-0,3c0.285,-0 0.517,0.231 0.517,0.517c-0,0.285 -0.232,0.517 -0.517,0.517c-0.286,0 -0.518,-0.232 -0.518,-0.517c0,-0.286 0.232,-0.517 0.518,-0.517Z" style="fill:none;"/><circle cx="28.241" cy="51.742" r="2.017"/><path d="M28.241,48.225c-1.941,-0 -3.517,1.576 -3.517,3.517c0,1.941 1.576,3.517 3.517,3.517c1.942,0 3.518,-1.576 3.518,-3.517c-0,-1.941 -1.576,-3.517 -3.518,-3.517Zm0,3c0.286,-0 0.518,0.231 0.518,0.517c-0,0.285 -0.232,0.517 -0.518,0.517c-0.285,0 -0.517,-0.232 -0.517,-0.517c0,-0.286 0.232,-0.517 0.517,-0.517Z" style="fill:none;"/><circle cx="41.241" cy="51.742" r="2.017"/><path d="M41.241,48.225c-1.941,-0 -3.517,1.576 -3.517,3.517c0,1.941 1.576,3.517 3.517,3.517c1.942,0 3.518,-1.576 3.518,-3.517c-0,-1.941 -1.576,-3.517 -3.518,-3.517Zm0,3c0.286,-0 0.518,0.231 0.518,0.517c-0,0.285 -0.232,0.517 -0.518,0.517c-0.285,0 -0.517,-0.232 -0.517,-0.517c0,-0.286 0.232,-0.517 0.517,-0.517Z" style="fill:none;"/></g></svg>