<svg width="100%" height="100%" viewBox="0 0 56 56" version="1.1" xmlns="http://www.w3.org/2000/svg"><g><path d="M9.505,19.5c0.131,-3.058 2.655,-5.5 5.745,-5.5l25.5,0c3.09,0 5.614,2.442 5.745,5.5l1.505,0c1.656,0 3,1.344 3,3l0,14c0,1.656 -1.344,3 -3,3l-0.5,0l0,1c0,0.828 -0.672,1.5 -1.5,1.5c-0.828,0 -1.5,-0.672 -1.5,-1.5l0,-1l-33,0l0,1c0,0.828 -0.672,1.5 -1.5,1.5c-0.828,0 -1.5,-0.672 -1.5,-1.5l0,-1l-0.5,0c-1.656,0 -3,-1.344 -3,-3l0,-14c0,-1.656 1.344,-3 3,-3l1.505,0Zm1.495,12.03l0,-7.56c0,-0.811 -0.656,-1.468 -1.467,-1.47l-0.06,0c-0.39,-0.001 -0.765,0.154 -1.041,0.43c-0.277,0.275 -0.432,0.65 -0.432,1.04l0,11.06c0,0.812 0.658,1.47 1.47,1.47l37.06,0c0.39,0 0.764,-0.155 1.039,-0.431c0.276,-0.275 0.431,-0.649 0.431,-1.039l0,-11.06c0,-0.812 -0.658,-1.47 -1.47,-1.47l-0.06,0c-0.812,0 -1.47,0.658 -1.47,1.47l0,7.53c-0.011,0.435 -0.209,0.844 -0.545,1.122l-0.043,0.035c-0.258,0.212 -0.578,0.333 -0.911,0.342l-0.001,0.001l-31.03,0c-0.39,0 -0.764,-0.155 -1.039,-0.431c-0.276,-0.275 -0.431,-0.649 -0.431,-1.039Z"/></g></svg>