<svg xmlns="http://www.w3.org/2000/svg" width="56" height="56" viewBox="0 0 56 56"><path d="M 27.9999 51.9063 C 41.0546 51.9063 51.9063 41.0781 51.9063 28 C 51.9063 14.9453 41.0312 4.0937 27.9765 4.0937 C 14.8983 4.0937 4.0937 14.9453 4.0937 28 C 4.0937 41.0781 14.9218 51.9063 27.9999 51.9063 Z M 27.9999 47.9219 C 16.9374 47.9219 8.1014 39.0625 8.1014 28 C 8.1014 16.9609 16.9140 8.0781 27.9765 8.0781 C 39.0155 8.0781 47.8983 16.9609 47.9219 28 C 47.9454 39.0625 39.0390 47.9219 27.9999 47.9219 Z M 27.9999 43.2344 C 31.7030 43.2344 34.9374 39.2266 34.9374 34.9375 C 34.9374 34.2344 34.8436 33.6719 34.5858 33.2031 C 34.9843 33.2968 35.3593 33.3906 35.7343 33.5078 C 36.6483 33.7422 36.9062 34.1172 36.7890 34.9141 L 35.8280 41.2187 C 35.6874 41.9453 36.1562 42.4141 36.7890 42.4141 C 37.3983 42.4141 37.7030 42.0156 37.7968 41.3594 L 38.8514 34.5390 C 39.1327 33.0156 38.4999 32.1719 36.8124 31.7500 L 31.0234 30.3906 L 31.0234 30.25 C 31.6093 29.9688 31.9609 29.4297 32.1249 28.8203 L 36.0390 28.2578 C 37.6796 28.0234 38.4062 27.1094 38.4062 25.5156 L 38.4062 20.9688 C 38.4062 20.3359 38.0546 19.9609 37.3983 19.9609 C 36.7890 19.9609 36.4374 20.3359 36.4374 20.9688 L 36.4374 25.0937 C 36.4374 26.0312 35.9218 26.3359 35.0780 26.4766 L 32.1952 26.8750 C 32.0546 26.4531 31.7968 26.1016 31.4218 25.8672 L 31.4218 25.7266 C 33.6952 25.3047 34.7968 23.9688 34.7968 21.9531 C 34.7968 20.2890 34.1640 18.7188 33.1327 17.5469 L 33.2499 17.4531 C 34.5390 16.5156 34.7499 15.1563 33.9062 13.7266 L 33.1327 12.4375 C 32.8749 11.9922 32.5936 11.8047 32.1718 11.8047 C 31.6327 11.8047 31.2577 12.1797 31.2577 12.6953 C 31.2577 12.9297 31.2812 13.0703 31.4218 13.3047 L 32.1249 14.3828 C 32.5234 14.9922 32.6640 15.5781 32.1718 16 C 32.1014 16.0469 31.9374 16.1875 31.8202 16.3047 C 30.6718 15.5547 29.2655 15.1328 27.9999 15.1328 C 26.6640 15.1328 25.2577 15.5547 24.2265 16.3047 C 24.1093 16.2109 23.9452 16.0469 23.8749 15.9766 C 23.4765 15.6250 23.4765 15.0625 23.8983 14.3828 L 24.6014 13.3047 C 24.7421 13.0703 24.7890 12.9297 24.7890 12.6953 C 24.7890 12.1797 24.3905 11.8047 23.8514 11.8047 C 23.4530 11.8047 23.1718 11.9922 22.9374 12.4375 L 22.1171 13.7266 C 21.2968 15.1563 21.4374 16.6797 22.7968 17.4531 L 22.8905 17.5234 C 21.8593 18.6953 21.2030 20.2656 21.2030 21.9531 C 21.2030 23.9688 22.3046 25.3047 24.5546 25.7266 L 24.5546 25.8672 C 24.2030 26.1016 23.9452 26.4531 23.8046 26.8750 L 20.9218 26.4766 C 20.0546 26.3359 19.5624 26.0312 19.5624 25.0937 L 19.5624 20.9688 C 19.5624 20.3359 19.2109 19.9609 18.5780 19.9609 C 17.9452 19.9609 17.5702 20.3359 17.5702 20.9688 L 17.5702 25.5156 C 17.5702 27.1094 18.3202 28.0234 19.9609 28.2578 L 23.8514 28.8203 C 24.0155 29.4297 24.3905 29.9688 24.9530 30.25 L 24.9530 30.3906 L 19.1640 31.7500 C 17.4999 32.1719 16.8671 33.0156 17.1249 34.5390 L 18.1796 41.3594 C 18.2968 42.0156 18.5780 42.4141 19.2109 42.4141 C 19.8202 42.4141 20.2890 41.9453 20.1483 41.2187 L 19.1874 34.9141 C 19.0702 34.1172 19.3280 33.7422 20.2421 33.5078 C 20.6405 33.3906 21.0155 33.2968 21.3905 33.2031 C 21.1562 33.6719 21.0390 34.2344 21.0390 34.9375 C 21.0390 39.2266 24.2733 43.2344 27.9999 43.2344 Z"/></svg>