<svg xmlns="http://www.w3.org/2000/svg" width="56" height="56" viewBox="0 0 56 56"><path d="M 6.2383 28.0000 C 6.2383 28.5859 6.4961 29.1250 6.9648 29.5703 L 22.5273 45.1094 C 23.0195 45.5547 23.5117 45.7656 24.0508 45.7656 C 25.2227 45.7656 26.1133 44.9219 26.1133 43.7500 C 26.1133 43.1875 25.9024 42.6250 25.5273 42.2734 L 20.3008 36.9297 L 12.3789 29.7344 L 18.0742 30.0859 L 47.6992 30.0859 C 48.9179 30.0859 49.7617 29.2188 49.7617 28.0000 C 49.7617 26.7812 48.9179 25.9141 47.6992 25.9141 L 18.0742 25.9141 L 12.4024 26.2656 L 20.3008 19.0703 L 25.5273 13.7266 C 25.9258 13.3515 26.1133 12.8125 26.1133 12.2500 C 26.1133 11.0781 25.2227 10.2344 24.0508 10.2344 C 23.5117 10.2344 22.9961 10.4219 22.4805 10.9375 L 6.9648 26.4297 C 6.4961 26.8750 6.2383 27.4141 6.2383 28.0000 Z"/></svg>