<svg xmlns="http://www.w3.org/2000/svg" width="56" height="56" viewBox="0 0 56 56"><path d="M 44.3008 9.3672 C 43.3633 9.3672 42.6133 9.7656 41.6289 10.2578 L 11.5117 24.8828 C 9.5195 25.8672 8.8867 26.7578 8.8867 28.0000 C 8.8867 29.2422 9.5195 30.1562 11.5117 31.1406 L 41.6289 45.7422 C 42.6367 46.2344 43.3867 46.6328 44.3242 46.6328 C 46.0586 46.6328 47.1133 45.3203 47.1133 43.2812 L 47.1133 12.7187 C 47.1133 10.6797 46.0352 9.3672 44.3008 9.3672 Z M 43.1055 13.8203 C 43.2461 13.8203 43.3399 13.9375 43.3399 14.1015 L 43.3633 41.8984 C 43.3633 42.0859 43.2695 42.1797 43.1289 42.1797 C 43.0352 42.1797 42.9414 42.1328 42.8477 42.0859 L 14.1367 28.2578 C 14.0195 28.2109 13.9258 28.1172 13.9258 28.0000 C 13.9258 27.8828 14.0195 27.7891 14.1367 27.7422 L 42.8242 13.9375 C 42.9180 13.8672 43.0117 13.8203 43.1055 13.8203 Z"/></svg>