<svg xmlns="http://www.w3.org/2000/svg" width="56" height="56" viewBox="0 0 56 56"><path d="M 32.9921 4.2461 C 30.0390 1.2930 25.8437 1.3632 22.8905 4.3164 L 4.3046 22.9023 C 1.3515 25.8554 1.2812 30.0508 4.2343 33.0039 L 23.0078 51.7539 C 25.9609 54.7070 30.1327 54.6601 33.1093 51.6836 L 51.6953 33.0976 C 54.6718 30.1211 54.7188 25.9492 51.7654 22.9961 Z M 39.5781 22.0820 C 41.0078 23.2305 41.0078 24.6132 39.5781 25.7617 L 34.0468 30.0742 C 32.8515 30.9883 31.2812 30.3320 31.2812 28.8086 L 31.2812 25.8086 L 24.8593 25.8086 C 22.8437 25.8086 21.8359 26.7695 21.8359 28.9023 L 21.8359 34.7383 C 21.8359 36.0742 21.1562 36.8242 19.9609 36.8476 C 18.7421 36.8711 18.0624 36.0742 18.0624 34.7383 L 18.0624 28.7148 C 18.0624 24.1914 20.2421 22.0352 24.8124 22.0352 L 31.2812 22.0352 L 31.2812 19.0117 C 31.2812 17.4883 32.8515 16.8320 34.0468 17.7695 Z"/></svg>