<svg xmlns="http://www.w3.org/2000/svg" width="56" height="56" viewBox="0 0 56 56"><path d="M 47.7928 9.5547 C 46.5741 9.5547 45.7069 10.3984 45.7069 11.6172 C 45.7069 12.4610 45.7538 13.2110 45.7538 14.3359 C 45.7538 23.0312 42.7538 26.5703 34.1288 26.5703 L 17.9803 26.5703 L 12.2147 26.9219 L 20.1132 19.6797 L 25.3163 14.3828 C 25.6913 14.0078 25.9022 13.4688 25.9022 12.9062 C 25.9022 11.7344 24.9882 10.8906 23.8397 10.8906 C 23.2772 10.8906 22.7850 11.0781 22.3163 11.5234 L 6.7303 27.0859 C 6.2616 27.5312 6.0038 28.0937 6.0038 28.6562 C 6.0038 29.2422 6.2616 29.7812 6.7303 30.2500 L 22.246 45.7422 C 22.7850 46.2344 23.2772 46.4453 23.8397 46.4453 C 24.9882 46.4453 25.9022 45.6016 25.9022 44.4297 C 25.9022 43.8672 25.6913 43.3281 25.3163 42.9297 L 20.1132 37.6328 L 12.2382 30.4375 L 17.9803 30.7656 L 34.3397 30.7656 C 45.4725 30.7656 49.9962 25.8906 49.9962 14.5469 C 49.9962 13.1641 49.9492 12.0156 49.8085 11.2891 C 49.5973 10.3515 49.0352 9.5547 47.7928 9.5547 Z"/></svg>