<svg xmlns="http://www.w3.org/2000/svg" width="56" height="56" viewBox="0 0 56 56"><path d="M 27.9999 51.9063 C 41.0546 51.9063 51.9063 41.0781 51.9063 28 C 51.9063 14.9453 41.0312 4.0937 27.9765 4.0937 C 14.8983 4.0937 4.0937 14.9453 4.0937 28 C 4.0937 41.0781 14.9218 51.9063 27.9999 51.9063 Z M 27.9999 47.9219 C 16.9374 47.9219 8.1014 39.0625 8.1014 28 C 8.1014 16.9609 16.9140 8.0781 27.9765 8.0781 C 39.0155 8.0781 47.8983 16.9609 47.9219 28 C 47.9454 39.0625 39.0390 47.9219 27.9999 47.9219 Z M 15.9296 27.9766 C 15.9296 28.5156 16.1640 28.9141 16.6093 29.3594 L 24.5312 37.3047 C 24.8358 37.6094 25.2577 37.7968 25.7499 37.7968 C 26.7109 37.7968 27.4374 37.0234 27.4374 36.0859 C 27.4374 35.5703 27.2499 35.1484 26.9218 34.8203 L 23.9687 31.9375 L 21.1562 29.5469 L 26.1014 29.7344 L 38.3358 29.7344 C 39.3436 29.7344 40.0702 28.9844 40.0702 27.9766 C 40.0702 26.9688 39.3436 26.2188 38.3358 26.2188 L 26.1014 26.2188 L 21.1562 26.4063 L 23.9687 24.0390 L 26.9218 21.1328 C 27.2265 20.8281 27.4374 20.4063 27.4374 19.8906 C 27.4374 18.9297 26.7109 18.2031 25.7499 18.2031 C 25.2577 18.2031 24.8358 18.3672 24.5312 18.6719 L 16.6093 26.6172 C 16.1405 27.0859 15.9296 27.4844 15.9296 27.9766 Z"/></svg>