<svg xmlns="http://www.w3.org/2000/svg" width="56" height="56" viewBox="0 0 56 56"><path d="M 13.1615 50.9014 C 14.1949 50.9014 14.8969 50.5505 16.1448 49.4585 L 22.6963 43.6090 C 24.0807 45.1494 26.2255 45.9683 28.9358 45.9683 L 35.6433 45.9683 L 42.1752 51.5449 C 43.3452 52.5588 43.9885 53.0853 44.9441 53.0853 C 46.2895 53.0853 47.0306 52.1299 47.0306 50.6479 L 47.0306 45.9683 L 47.8493 45.9683 C 52.7435 45.9683 56.0000 43.0240 56.0000 37.9154 L 56.0000 26.3917 C 56.0000 21.2831 52.7435 18.3388 47.8493 18.3388 L 44.7880 18.3388 L 44.7880 16.8570 C 44.7880 11.5533 41.6489 8.4921 36.3454 8.4921 L 8.4624 8.4921 C 3.3537 8.4921 0 11.5533 0 16.8570 L 0 34.8151 C 0 40.1187 3.3537 43.1800 8.4624 43.1800 L 11.0362 43.1800 L 11.0362 48.5031 C 11.0362 50.0045 11.7771 50.9014 13.1615 50.9014 Z M 13.9804 41.8736 C 13.9804 40.7622 13.2980 40.2357 12.4595 40.2357 L 8.6378 40.2357 C 5.1866 40.2357 3.1393 38.3639 3.1393 34.7177 L 3.1393 16.9544 C 3.1393 13.3277 5.1866 11.4169 8.6378 11.4169 L 36.1505 11.4169 C 39.6015 11.4169 41.6489 13.3277 41.6489 16.9544 L 41.6489 18.3388 L 28.9358 18.3388 C 23.8272 18.3388 20.7855 21.2831 20.7855 26.3917 L 20.7855 37.9154 C 20.7855 38.9683 20.9024 39.9238 21.1559 40.8012 L 13.9804 47.4307 Z M 44.1055 49.5561 L 37.8468 43.9405 C 37.0666 43.2580 36.5989 43.0435 35.5263 43.0435 L 29.1113 43.0435 C 25.8551 43.0435 23.9247 41.2692 23.9247 37.8179 L 23.9247 26.4893 C 23.9247 23.0575 25.8551 21.2637 29.1113 21.2637 L 47.6740 21.2637 C 50.9301 21.2637 52.8605 23.0575 52.8605 26.4893 L 52.8605 37.8179 C 52.8605 41.2692 50.9105 43.0435 47.6740 43.0435 L 45.6266 43.0435 C 44.7880 43.0435 44.1055 43.5310 44.1055 44.6424 Z"/></svg>