<svg xmlns="http://www.w3.org/2000/svg" width="56" height="56" viewBox="0 0 56 56">
  <path d="M31.8480215,0 C33.0518775,0 34.0016868,0.383055272 34.6974494,1.14916581 C35.343485,1.86055418 35.6895754,2.80786215 35.7357208,3.99108973 L35.7410453,4.26833017 L35.7410453,45.7317083 C35.7410453,47.0293892 35.39318,48.0651914 34.6974494,48.8391149 C34.0513841,49.557758 33.1862684,49.9427455 32.1021022,49.9940771 L31.8480215,50 L3.89302374,50 C2.68916776,50 1.73935847,49.6130383 1.04359587,48.8391149 C0.397560332,48.1204717 0.0514698644,47.1760249 0.00532446873,46.0057744 L0,45.7317083 L0,4.26833017 C0,2.95499781 0.347865291,1.91527636 1.04359587,1.14916581 C1.68966114,0.437777453 2.55477688,0.0566765453 3.63894307,0.00586309089 L3.89302374,0 L31.8480215,0 Z M24.4136497,36.8198952 L11.5384394,36.8198952 C11.0068753,36.8198952 10.5769268,36.9801505 10.2485937,37.3006611 C9.95674205,37.5855622 9.79460225,37.9600245 9.76217429,38.424048 L9.75609405,38.6022549 L9.75609405,46.2242079 L26.1960431,46.2242079 L26.1960431,38.6022549 C26.1960431,38.0550395 26.035783,37.6211749 25.7152628,37.3006611 C25.4303559,37.0157628 25.0558879,36.8574859 24.5918588,36.8258306 L24.4136497,36.8198952 Z M14.6341171,26.1726045 L9.94369923,26.1726045 C9.34844741,26.1726045 9.02956251,26.4624446 8.98704452,27.0421249 L8.9821386,27.1810424 L8.9821386,31.7307803 C8.9821386,32.3550514 9.25850552,32.6894823 9.81123935,32.7340731 L9.94369923,32.7392182 L14.6341171,32.7392182 C15.2615895,32.7392182 15.5962415,32.4463977 15.638073,31.8607568 L15.642555,31.7307803 L15.642555,27.1810424 C15.642555,26.5535699 15.3497345,26.2189179 14.7640935,26.1770864 L14.6341171,26.1726045 Z M25.9615126,26.1726045 L21.2945334,26.1726045 C20.684772,26.1726045 20.358114,26.4624446 20.3145597,27.0421249 L20.3095341,27.1810424 L20.3095341,31.7307803 C20.3095341,32.3550514 20.5926377,32.6894823 21.1588447,32.7340731 L21.2945334,32.7392182 L25.9615126,32.7392182 C26.5889851,32.7392182 26.9236371,32.4463977 26.9654686,31.8607568 L26.9699505,31.7307803 L26.9699505,27.1810424 C26.9699505,26.5535699 26.67713,26.2189179 26.091489,26.1770864 L25.9615126,26.1726045 Z M14.6341171,16.6041636 L9.94369923,16.6041636 C9.34844741,16.6041636 9.02956251,16.8940038 8.98704452,17.4736841 L8.9821386,17.6126015 L8.9821386,22.1622915 C8.9821386,22.7865625 9.25850552,23.1209935 9.81123935,23.1655843 L9.94369923,23.1707294 L14.6341171,23.1707294 C15.2615895,23.1707294 15.5962415,22.8779089 15.638073,22.2922679 L15.642555,22.1622915 L15.642555,17.6126015 C15.642555,16.9851291 15.3497345,16.6504771 14.7640935,16.6086456 L14.6341171,16.6041636 Z M25.9615126,16.6041636 L21.2945334,16.6041636 C20.684772,16.6041636 20.358114,16.8940038 20.3145597,17.4736841 L20.3095341,17.6126015 L20.3095341,22.1622915 C20.3095341,22.7865625 20.5926377,23.1209935 21.1588447,23.1655843 L21.2945334,23.1707294 L25.9615126,23.1707294 C26.5889851,23.1707294 26.9236371,22.8779089 26.9654686,22.2922679 L26.9699505,22.1622915 L26.9699505,17.6126015 C26.9699505,16.9851291 26.67713,16.6504771 26.091489,16.6086456 L25.9615126,16.6041636 Z M14.6341171,7.03567476 L9.94369923,7.03567476 C9.34844741,7.03567476 9.02956251,7.32551491 8.98704452,7.90519521 L8.9821386,8.04411267 L8.9821386,12.5938026 C8.9821386,13.2181034 9.25850552,13.5525503 9.81123935,13.5971432 L9.94369923,13.6022885 L14.6341171,13.6022885 C15.2615895,13.6022885 15.5962415,13.3094541 15.638073,12.7237852 L15.642555,12.5938026 L15.642555,8.04411267 C15.642555,7.4166402 15.3497345,7.08198821 14.7640935,7.04015671 L14.6341171,7.03567476 Z M25.9615126,7.03567476 L21.2945334,7.03567476 C20.684772,7.03567476 20.358114,7.32551491 20.3145597,7.90519521 L20.3095341,8.04411267 L20.3095341,12.5938026 C20.3095341,13.2181034 20.5926377,13.5525503 21.1588447,13.5971432 L21.2945334,13.6022885 L25.9615126,13.6022885 C26.5889851,13.6022885 26.9236371,13.3094541 26.9654686,12.7237852 L26.9699505,12.5938026 L26.9699505,8.04411267 C26.9699505,7.4166402 26.67713,7.08198821 26.091489,7.04015671 L25.9615126,7.03567476 Z" transform="translate(10 3)"/>
</svg>
