<svg xmlns="http://www.w3.org/2000/svg" width="56" height="56" viewBox="0 0 56 56"><path d="M 27.9999 51.9062 C 41.0546 51.9062 51.9063 41.0547 51.9063 28.0000 C 51.9063 14.9219 41.0312 4.0938 27.9765 4.0938 C 14.8983 4.0938 4.0937 14.9219 4.0937 28.0000 C 4.0937 41.0547 14.9218 51.9062 27.9999 51.9062 Z M 19.4218 39.5547 C 16.7968 39.5547 15.4843 38.2656 15.4843 35.6640 L 15.4843 20.3125 C 15.4843 17.7109 16.7968 16.4219 19.4218 16.4219 L 36.5780 16.4219 C 39.2030 16.4219 40.5155 17.7109 40.5155 20.3125 L 40.5155 35.6640 C 40.5155 38.2656 39.2030 39.5547 36.5780 39.5547 Z M 19.2577 37.4219 L 36.6952 37.4219 C 37.7968 37.4219 38.3593 36.8828 38.3593 35.7813 L 38.3593 23.9219 C 38.3593 22.7500 37.7265 22.1640 36.6014 22.1640 L 19.3514 22.1640 C 18.2499 22.1640 17.6405 22.7500 17.6405 23.9219 L 17.6405 35.7813 C 17.6405 36.8828 18.1796 37.4219 19.2577 37.4219 Z M 25.4687 26.875 C 24.9296 26.875 24.7655 26.7109 24.7655 26.1953 L 24.7655 25.3047 C 24.7655 24.7656 24.9296 24.6016 25.4687 24.6016 L 26.3358 24.6016 C 26.8749 24.6016 27.0390 24.7656 27.0390 25.3047 L 27.0390 26.1953 C 27.0390 26.7109 26.8749 26.875 26.3358 26.875 Z M 29.6640 26.875 C 29.1014 26.875 28.9374 26.7109 28.9374 26.1953 L 28.9374 25.3047 C 28.9374 24.7656 29.1014 24.6016 29.6640 24.6016 L 30.5312 24.6016 C 31.0702 24.6016 31.2343 24.7656 31.2343 25.3047 L 31.2343 26.1953 C 31.2343 26.7109 31.0702 26.875 30.5312 26.875 Z M 33.8124 26.875 C 33.2733 26.875 33.0858 26.7109 33.0858 26.1953 L 33.0858 25.3047 C 33.0858 24.7656 33.2733 24.6016 33.8124 24.6016 L 34.6796 24.6016 C 35.2187 24.6016 35.4062 24.7656 35.4062 25.3047 L 35.4062 26.1953 C 35.4062 26.7109 35.2187 26.875 34.6796 26.875 Z M 21.2968 30.9766 C 20.7577 30.9766 20.5936 30.8125 20.5936 30.2969 L 20.5936 29.4062 C 20.5936 28.8672 20.7577 28.7031 21.2968 28.7031 L 22.1640 28.7031 C 22.7030 28.7031 22.8905 28.8672 22.8905 29.4062 L 22.8905 30.2969 C 22.8905 30.8125 22.7030 30.9766 22.1640 30.9766 Z M 25.4687 30.9766 C 24.9296 30.9766 24.7655 30.8125 24.7655 30.2969 L 24.7655 29.4062 C 24.7655 28.8672 24.9296 28.7031 25.4687 28.7031 L 26.3358 28.7031 C 26.8749 28.7031 27.0390 28.8672 27.0390 29.4062 L 27.0390 30.2969 C 27.0390 30.8125 26.8749 30.9766 26.3358 30.9766 Z M 29.6640 30.9766 C 29.1014 30.9766 28.9374 30.8125 28.9374 30.2969 L 28.9374 29.4062 C 28.9374 28.8672 29.1014 28.7031 29.6640 28.7031 L 30.5312 28.7031 C 31.0702 28.7031 31.2343 28.8672 31.2343 29.4062 L 31.2343 30.2969 C 31.2343 30.8125 31.0702 30.9766 30.5312 30.9766 Z M 33.8124 30.9766 C 33.2733 30.9766 33.0858 30.8125 33.0858 30.2969 L 33.0858 29.4062 C 33.0858 28.8672 33.2733 28.7031 33.8124 28.7031 L 34.6796 28.7031 C 35.2187 28.7031 35.4062 28.8672 35.4062 29.4062 L 35.4062 30.2969 C 35.4062 30.8125 35.2187 30.9766 34.6796 30.9766 Z M 21.2968 35.1016 C 20.7577 35.1016 20.5936 34.9140 20.5936 34.375 L 20.5936 33.5078 C 20.5936 32.9687 20.7577 32.8281 21.2968 32.8281 L 22.1640 32.8281 C 22.7030 32.8281 22.8905 32.9687 22.8905 33.5078 L 22.8905 34.375 C 22.8905 34.9140 22.7030 35.1016 22.1640 35.1016 Z M 25.4687 35.1016 C 24.9296 35.1016 24.7655 34.9140 24.7655 34.375 L 24.7655 33.5078 C 24.7655 32.9687 24.9296 32.8281 25.4687 32.8281 L 26.3358 32.8281 C 26.8749 32.8281 27.0390 32.9687 27.0390 33.5078 L 27.0390 34.375 C 27.0390 34.9140 26.8749 35.1016 26.3358 35.1016 Z M 29.6640 35.1016 C 29.1014 35.1016 28.9374 34.9140 28.9374 34.375 L 28.9374 33.5078 C 28.9374 32.9687 29.1014 32.8281 29.6640 32.8281 L 30.5312 32.8281 C 31.0702 32.8281 31.2343 32.9687 31.2343 33.5078 L 31.2343 34.375 C 31.2343 34.9140 31.0702 35.1016 30.5312 35.1016 Z"/></svg>