<svg xmlns="http://www.w3.org/2000/svg" width="56" height="56" viewBox="0 0 56 56"><path d="M 27.9999 51.9063 C 41.0546 51.9063 51.9063 41.0781 51.9063 28 C 51.9063 14.9453 41.0312 4.0937 27.9765 4.0937 C 14.8983 4.0937 4.0937 14.9453 4.0937 28 C 4.0937 41.0781 14.9218 51.9063 27.9999 51.9063 Z M 27.9999 47.9219 C 16.9374 47.9219 8.1014 39.0625 8.1014 28 C 8.1014 16.9609 16.9140 8.0781 27.9765 8.0781 C 39.0155 8.0781 47.8983 16.9609 47.9219 28 C 47.9454 39.0625 39.0390 47.9219 27.9999 47.9219 Z M 19.4218 39.5781 L 36.5780 39.5781 C 39.2030 39.5781 40.5155 38.2890 40.5155 35.6875 L 40.5155 20.3359 C 40.5155 17.7344 39.2030 16.4453 36.5780 16.4453 L 19.4218 16.4453 C 16.7968 16.4453 15.4843 17.7344 15.4843 20.3359 L 15.4843 35.6875 C 15.4843 38.2890 16.7968 39.5781 19.4218 39.5781 Z M 19.2577 37.4453 C 18.1796 37.4453 17.6405 36.9063 17.6405 35.8047 L 17.6405 23.9453 C 17.6405 22.7734 18.2499 22.1875 19.3514 22.1875 L 36.6014 22.1875 C 37.7265 22.1875 38.3593 22.7734 38.3593 23.9453 L 38.3593 35.8047 C 38.3593 36.9063 37.7968 37.4453 36.6952 37.4453 Z M 25.4687 26.8984 L 26.3358 26.8984 C 26.8749 26.8984 27.0390 26.7344 27.0390 26.2188 L 27.0390 25.3281 C 27.0390 24.7890 26.8749 24.6250 26.3358 24.6250 L 25.4687 24.6250 C 24.9296 24.6250 24.7655 24.7890 24.7655 25.3281 L 24.7655 26.2188 C 24.7655 26.7344 24.9296 26.8984 25.4687 26.8984 Z M 29.6640 26.8984 L 30.5312 26.8984 C 31.0702 26.8984 31.2343 26.7344 31.2343 26.2188 L 31.2343 25.3281 C 31.2343 24.7890 31.0702 24.6250 30.5312 24.6250 L 29.6640 24.6250 C 29.1014 24.6250 28.9374 24.7890 28.9374 25.3281 L 28.9374 26.2188 C 28.9374 26.7344 29.1014 26.8984 29.6640 26.8984 Z M 33.8124 26.8984 L 34.6796 26.8984 C 35.2187 26.8984 35.4062 26.7344 35.4062 26.2188 L 35.4062 25.3281 C 35.4062 24.7890 35.2187 24.6250 34.6796 24.6250 L 33.8124 24.6250 C 33.2733 24.6250 33.0858 24.7890 33.0858 25.3281 L 33.0858 26.2188 C 33.0858 26.7344 33.2733 26.8984 33.8124 26.8984 Z M 21.2968 31.0000 L 22.1640 31.0000 C 22.7030 31.0000 22.8905 30.8359 22.8905 30.3203 L 22.8905 29.4297 C 22.8905 28.8906 22.7030 28.7266 22.1640 28.7266 L 21.2968 28.7266 C 20.7577 28.7266 20.5936 28.8906 20.5936 29.4297 L 20.5936 30.3203 C 20.5936 30.8359 20.7577 31.0000 21.2968 31.0000 Z M 25.4687 31.0000 L 26.3358 31.0000 C 26.8749 31.0000 27.0390 30.8359 27.0390 30.3203 L 27.0390 29.4297 C 27.0390 28.8906 26.8749 28.7266 26.3358 28.7266 L 25.4687 28.7266 C 24.9296 28.7266 24.7655 28.8906 24.7655 29.4297 L 24.7655 30.3203 C 24.7655 30.8359 24.9296 31.0000 25.4687 31.0000 Z M 29.6640 31.0000 L 30.5312 31.0000 C 31.0702 31.0000 31.2343 30.8359 31.2343 30.3203 L 31.2343 29.4297 C 31.2343 28.8906 31.0702 28.7266 30.5312 28.7266 L 29.6640 28.7266 C 29.1014 28.7266 28.9374 28.8906 28.9374 29.4297 L 28.9374 30.3203 C 28.9374 30.8359 29.1014 31.0000 29.6640 31.0000 Z M 33.8124 31.0000 L 34.6796 31.0000 C 35.2187 31.0000 35.4062 30.8359 35.4062 30.3203 L 35.4062 29.4297 C 35.4062 28.8906 35.2187 28.7266 34.6796 28.7266 L 33.8124 28.7266 C 33.2733 28.7266 33.0858 28.8906 33.0858 29.4297 L 33.0858 30.3203 C 33.0858 30.8359 33.2733 31.0000 33.8124 31.0000 Z M 21.2968 35.1250 L 22.1640 35.1250 C 22.7030 35.1250 22.8905 34.9375 22.8905 34.3984 L 22.8905 33.5312 C 22.8905 32.9922 22.7030 32.8516 22.1640 32.8516 L 21.2968 32.8516 C 20.7577 32.8516 20.5936 32.9922 20.5936 33.5312 L 20.5936 34.3984 C 20.5936 34.9375 20.7577 35.1250 21.2968 35.1250 Z M 25.4687 35.1250 L 26.3358 35.1250 C 26.8749 35.1250 27.0390 34.9375 27.0390 34.3984 L 27.0390 33.5312 C 27.0390 32.9922 26.8749 32.8516 26.3358 32.8516 L 25.4687 32.8516 C 24.9296 32.8516 24.7655 32.9922 24.7655 33.5312 L 24.7655 34.3984 C 24.7655 34.9375 24.9296 35.1250 25.4687 35.1250 Z M 29.6640 35.1250 L 30.5312 35.1250 C 31.0702 35.1250 31.2343 34.9375 31.2343 34.3984 L 31.2343 33.5312 C 31.2343 32.9922 31.0702 32.8516 30.5312 32.8516 L 29.6640 32.8516 C 29.1014 32.8516 28.9374 32.9922 28.9374 33.5312 L 28.9374 34.3984 C 28.9374 34.9375 29.1014 35.1250 29.6640 35.1250 Z"/></svg>