<svg xmlns="http://www.w3.org/2000/svg" width="56" height="56" viewBox="0 0 56 56"><path d="M 27.9883 51.6719 C 28.3633 51.6719 28.9726 51.5313 29.5821 51.2031 C 42.8945 43.7266 47.4883 40.5625 47.4883 32.0078 L 47.4883 14.0781 C 47.4883 11.6172 46.4101 10.8438 44.4414 10.0000 C 41.6758 8.8516 32.7226 5.6406 29.9570 4.6797 C 29.3242 4.4687 28.6680 4.3281 27.9883 4.3281 C 27.3321 4.3281 26.6758 4.5156 26.0430 4.6797 C 23.2774 5.5234 14.3242 8.8750 11.5586 10.0000 C 9.5899 10.8203 8.5117 11.6172 8.5117 14.0781 L 8.5117 32.0078 C 8.5117 40.5625 13.1289 43.7031 26.4180 51.2031 C 27.0274 51.5313 27.6133 51.6719 27.9883 51.6719 Z M 27.9883 47.4063 C 27.6367 47.4063 27.2383 47.2656 26.5352 46.8438 C 15.7070 40.2813 12.2383 38.3594 12.2383 31.1406 L 12.2383 14.7813 C 12.2383 13.9844 12.4023 13.6797 13.0352 13.4219 C 16.5977 12.0156 23.4648 9.5781 27.0742 8.2891 C 27.4258 8.1484 27.7305 8.0781 27.9883 8.0781 C 28.2695 8.0781 28.5508 8.1484 28.9258 8.2891 C 32.5352 9.5781 39.3321 12.1797 42.9648 13.4219 C 43.5977 13.6562 43.7617 13.9844 43.7617 14.7813 L 43.7617 31.1406 C 43.7617 38.3594 40.2695 40.2578 29.4648 46.8438 C 28.7617 47.2656 28.3633 47.4063 27.9883 47.4063 Z M 25.0586 39.0860 C 25.8555 39.0860 26.4883 38.7109 26.9570 37.9609 L 38.5352 19.7500 C 38.8399 19.3047 39.1211 18.7656 39.1211 18.2500 C 39.1211 17.1719 38.1602 16.4922 37.1758 16.4922 C 36.5664 16.4922 35.9805 16.8672 35.5586 17.5703 L 24.9648 34.5156 L 19.5274 27.4609 C 18.9883 26.7813 18.4492 26.5234 17.7930 26.5234 C 16.7617 26.5234 15.9648 27.3438 15.9648 28.3984 C 15.9648 28.9141 16.1758 29.4297 16.5039 29.875 L 23.0430 37.9844 C 23.6992 38.7344 24.2852 39.0860 25.0586 39.0860 Z"/></svg>