<svg xmlns="http://www.w3.org/2000/svg" width="56" height="56" viewBox="0 0 56 56"><path d="M 23.6641 52.3985 C 26.6407 55.375 29.3594 55.3516 32.3126 52.3985 L 35.9219 48.8125 C 36.2969 48.4610 36.6250 48.3203 37.1172 48.3203 L 42.1797 48.3203 C 46.3749 48.3203 48.3204 46.3985 48.3204 42.1797 L 48.3204 37.1172 C 48.3204 36.625 48.4610 36.2969 48.8124 35.9219 L 52.3749 32.3125 C 55.3749 29.3594 55.3514 26.6407 52.3749 23.6641 L 48.8124 20.0547 C 48.4610 19.7031 48.3204 19.3516 48.3204 18.8829 L 48.3204 13.7969 C 48.3204 9.625 46.3985 7.6563 42.1797 7.6563 L 37.1172 7.6563 C 36.6250 7.6563 36.2969 7.5391 35.9219 7.1875 L 32.3126 3.6016 C 29.3594 .6250 26.6407 .6485 23.6641 3.6016 L 20.0547 7.1875 C 19.7032 7.5391 19.3516 7.6563 18.8828 7.6563 L 13.7969 7.6563 C 9.6016 7.6563 7.6563 9.5782 7.6563 13.7969 L 7.6563 18.8829 C 7.6563 19.3516 7.5391 19.7031 7.1876 20.0547 L 3.6016 23.6641 C .6251 26.6407 .6485 29.3594 3.6016 32.3125 L 7.1876 35.9219 C 7.5391 36.2969 7.6563 36.625 7.6563 37.1172 L 7.6563 42.1797 C 7.6563 46.3750 9.6016 48.3203 13.7969 48.3203 L 18.8828 48.3203 C 19.3516 48.3203 19.7032 48.4610 20.0547 48.8125 Z M 26.2891 49.7734 L 21.8828 45.3438 C 21.3672 44.8047 20.8282 44.5938 20.1016 44.5938 L 13.7969 44.5938 C 11.7110 44.5938 11.3828 44.2656 11.3828 42.1797 L 11.3828 35.875 C 11.3828 35.1719 11.1719 34.6329 10.6563 34.1172 L 6.2266 29.7109 C 4.7501 28.2109 4.7501 27.7891 6.2266 26.2891 L 10.6563 21.8829 C 11.1719 21.3672 11.3828 20.8282 11.3828 20.1016 L 11.3828 13.7969 C 11.3828 11.6875 11.6876 11.3829 13.7969 11.3829 L 20.1016 11.3829 C 20.8282 11.3829 21.3672 11.1953 21.8828 10.6563 L 26.2891 6.2266 C 27.7891 4.7500 28.2110 4.7500 29.7110 6.2266 L 34.1172 10.6563 C 34.6328 11.1953 35.1719 11.3829 35.8750 11.3829 L 42.1797 11.3829 C 44.2657 11.3829 44.5938 11.7109 44.5938 13.7969 L 44.5938 20.1016 C 44.5938 20.8282 44.8282 21.3672 45.3439 21.8829 L 49.7733 26.2891 C 51.2498 27.7891 51.2498 28.2109 49.7733 29.7109 L 45.3439 34.1172 C 44.8282 34.6329 44.5938 35.1719 44.5938 35.875 L 44.5938 42.1797 C 44.5938 44.2656 44.2657 44.5938 42.1797 44.5938 L 35.8750 44.5938 C 35.1719 44.5938 34.6328 44.8047 34.1172 45.3438 L 29.7110 49.7734 C 28.2110 51.2500 27.7891 51.2500 26.2891 49.7734 Z M 24.3438 39.2266 C 25.0235 39.2266 25.5391 38.9453 25.8907 38.5234 L 38.8985 20.3360 C 39.1563 19.9609 39.2969 19.5391 39.2969 19.1407 C 39.2969 18.1094 38.5001 17.2891 37.4219 17.2891 C 36.6485 17.2891 36.2266 17.5469 35.7579 18.2266 L 24.2735 34.3985 L 18.3438 27.8594 C 17.9454 27.4141 17.5001 27.2266 16.9141 27.2266 C 15.7657 27.2266 14.9454 28.0000 14.9454 29.0782 C 14.9454 29.5469 15.1094 29.9922 15.4376 30.3203 L 22.8907 38.6172 C 23.2423 38.9922 23.6876 39.2266 24.3438 39.2266 Z"/></svg>