<svg xmlns="http://www.w3.org/2000/svg" width="56" height="56" viewBox="0 0 56 56"><path d="M 13.7851 49.5742 L 42.2382 49.5742 C 47.1366 49.5742 49.5743 47.1367 49.5743 42.3086 L 49.5743 13.6914 C 49.5743 8.8633 47.1366 6.4258 42.2382 6.4258 L 13.7851 6.4258 C 8.9101 6.4258 6.4257 8.8398 6.4257 13.6914 L 6.4257 42.3086 C 6.4257 47.1602 8.9101 49.5742 13.7851 49.5742 Z M 13.8554 45.8008 C 11.5117 45.8008 10.1992 44.5586 10.1992 42.1211 L 10.1992 13.8789 C 10.1992 11.4414 11.5117 10.1992 13.8554 10.1992 L 42.1679 10.1992 C 44.4882 10.1992 45.8007 11.4414 45.8007 13.8789 L 45.8007 42.1211 C 45.8007 44.5586 44.4882 45.8008 42.1679 45.8008 Z M 22.5507 39.5664 C 23.1601 40.1758 24.4023 40.1289 25.0351 39.4961 L 34.8085 30.3086 C 36.1210 29.0664 36.1210 26.9102 34.8085 25.6914 L 25.0351 16.4805 C 24.3320 15.8242 23.2304 15.7774 22.5742 16.4102 C 21.8476 17.0898 21.8007 18.2617 22.5273 18.9414 L 32.1601 27.9883 L 22.5273 37.0586 C 21.8241 37.7149 21.8241 38.8867 22.5507 39.5664 Z"/></svg>