<svg xmlns="http://www.w3.org/2000/svg" width="56" height="56" viewBox="0 0 56 56"><path d="M 28 7.2578 C 27.4844 7.2578 26.9688 7.4687 26.4063 7.9375 L 10.6094 20.7578 C 10.2110 21.1094 9.9766 21.6016 9.9766 22.3047 C 9.9766 23.5234 10.8906 24.4375 12.1328 24.4375 C 12.6250 24.4375 13.1406 24.2500 13.6797 23.8281 L 28 12.1562 L 42.3203 23.8281 C 42.8594 24.2500 43.3750 24.4375 43.8906 24.4375 C 45.1094 24.4375 46.0234 23.5234 46.0234 22.3047 C 46.0234 21.6016 45.7890 21.1094 45.3906 20.7578 L 29.5937 7.9140 C 29.0312 7.4687 28.5390 7.2578 28 7.2578 Z M 28 48.7422 C 28.5390 48.7422 29.0312 48.5312 29.5937 48.0859 L 45.3906 35.2422 C 45.7890 34.8906 46.0234 34.3984 46.0234 33.6953 C 46.0234 32.4765 45.1094 31.5391 43.8906 31.5391 C 43.3750 31.5391 42.8594 31.7500 42.3203 32.1718 L 28 43.8437 L 13.6797 32.1718 C 13.1406 31.7500 12.6250 31.5391 12.1328 31.5391 C 10.8906 31.5391 9.9766 32.4765 9.9766 33.6953 C 9.9766 34.3984 10.2110 34.8906 10.6094 35.2422 L 26.4063 48.0625 C 26.9688 48.5312 27.4844 48.7422 28 48.7422 Z"/></svg>