<svg xmlns="http://www.w3.org/2000/svg" width="56" height="56" viewBox="0 0 56 56"><path d="M 13.7851 49.5742 L 42.2382 49.5742 C 47.1366 49.5742 49.5743 47.1367 49.5743 42.3086 L 49.5743 13.6914 C 49.5743 8.8633 47.1366 6.4258 42.2382 6.4258 L 13.7851 6.4258 C 8.9101 6.4258 6.4257 8.8398 6.4257 13.6914 L 6.4257 42.3086 C 6.4257 47.1602 8.9101 49.5742 13.7851 49.5742 Z M 13.8554 45.8008 C 11.5117 45.8008 10.1992 44.5586 10.1992 42.1211 L 10.1992 13.8789 C 10.1992 11.4414 11.5117 10.1992 13.8554 10.1992 L 42.1679 10.1992 C 44.4882 10.1992 45.8007 11.4414 45.8007 13.8789 L 45.8007 42.1211 C 45.8007 44.5586 44.4882 45.8008 42.1679 45.8008 Z M 18.1913 35.9336 C 18.1913 36.9649 19.0117 37.8086 20.0429 37.8086 C 20.5585 37.8086 21.0273 37.6211 21.3554 37.2696 L 27.9882 30.6133 L 34.6444 37.2696 C 34.9726 37.5977 35.4179 37.8086 35.9335 37.8086 C 36.9648 37.8086 37.8085 36.9649 37.8085 35.9336 C 37.8085 35.3945 37.5976 34.9727 37.2460 34.6211 L 30.6366 27.9883 L 37.2695 21.3320 C 37.6444 20.9571 37.8320 20.5352 37.8320 20.0430 C 37.8320 19.0118 37.0117 18.1680 35.9570 18.1680 C 35.4882 18.1680 35.0898 18.3555 34.7148 18.7305 L 27.9882 25.4102 L 21.3085 18.7539 C 20.9570 18.4258 20.5585 18.2149 20.0429 18.2149 C 19.0351 18.2149 18.1913 19.0352 18.1913 20.0664 C 18.1913 20.5586 18.4023 21.0039 18.7304 21.3555 L 25.3632 27.9883 L 18.7304 34.6445 C 18.4023 34.9961 18.1913 35.4180 18.1913 35.9336 Z"/></svg>