<svg xmlns="http://www.w3.org/2000/svg" width="56" height="56" viewBox="0 0 56 56"><path d="M 35.9863 8.9916 C 36.8756 8.9916 37.5912 8.2374 37.5912 7.3866 L 37.5912 3.2098 C 37.5912 2.3204 36.8756 1.6048 35.9863 1.6048 C 35.0968 1.6048 34.3813 2.3204 34.3813 3.2098 L 34.3813 7.3866 C 34.3813 8.2374 35.0968 8.9916 35.9863 8.9916 Z M 24.7708 12.7236 C 25.4089 13.3617 26.4531 13.3424 27.0526 12.7236 C 27.6520 12.1048 27.6714 11.0800 27.0526 10.4805 L 24.0746 7.4833 C 23.4365 6.8645 22.4310 6.8645 21.8122 7.4833 C 21.1935 8.1021 21.1935 9.1269 21.8122 9.7457 Z M 44.9201 12.7236 C 45.5196 13.3424 46.5636 13.3617 47.2019 12.7236 L 50.1602 9.7457 C 50.7792 9.1269 50.7598 8.1021 50.1602 7.4833 C 49.5416 6.8645 48.5361 6.8645 47.8982 7.4833 L 44.9201 10.4805 C 44.3011 11.0800 44.3205 12.1048 44.9201 12.7236 Z M 40.9559 29.9336 C 43.7985 28.0192 45.5580 25.0607 45.5580 21.6574 C 45.5580 16.3397 41.3040 12.0661 35.9863 12.0661 C 32.4863 12.0661 29.4504 13.9419 27.8454 16.7457 C 28.6576 17.5773 29.3537 18.4861 29.9338 19.6076 C 36.3149 20.1297 40.4339 24.0938 40.9559 29.9336 Z M 8.0249 40.5884 L 28.9476 40.5884 C 34.4200 40.5884 38.6740 36.4309 38.6740 31.0745 C 38.6740 25.7568 34.3427 21.7347 28.5609 21.6960 C 26.2984 17.3645 22.2763 14.8700 17.5967 14.8700 C 11.3122 14.8700 5.9752 19.7430 5.3951 26.1049 C 2.1077 27.0911 0 29.8756 0 33.2789 C 0 37.6105 3.2680 40.5884 8.0249 40.5884 Z M 50.2185 23.2623 L 54.3953 23.2623 C 55.2654 23.2623 55.9810 22.5469 56 21.6574 C 56 20.7679 55.2654 20.0524 54.3953 20.0524 L 50.2185 20.0524 C 49.3484 20.0524 48.6134 20.7679 48.6134 21.6574 C 48.6134 22.5469 49.3484 23.2623 50.2185 23.2623 Z M 47.8982 35.8508 C 48.5361 36.4695 49.5416 36.4502 50.1602 35.8314 C 50.7598 35.2127 50.7792 34.1878 50.1602 33.5690 L 47.1631 30.6104 C 46.5445 30.0110 45.5386 29.9916 44.9201 30.6104 C 44.3011 31.2292 44.3011 32.2541 44.9201 32.8729 Z M 23.2625 49.7735 L 25.7763 45.4033 C 26.1244 44.8038 25.9310 44.1270 25.3509 43.7983 C 24.7708 43.4503 24.1133 43.6436 23.7653 44.2431 L 21.2321 48.6326 C 20.9034 49.1933 21.0581 49.8702 21.6575 50.2182 C 22.2377 50.5276 22.9338 50.3343 23.2625 49.7735 Z M 7.8702 49.7928 L 10.3840 45.4226 C 10.7514 44.8232 10.5581 44.1464 9.9779 43.8177 C 9.3978 43.4696 8.7210 43.6630 8.3730 44.2624 L 5.8398 48.6519 C 5.5111 49.2127 5.6851 49.8895 6.2846 50.2376 C 6.8453 50.5470 7.5415 50.3536 7.8702 49.7928 Z M 29.3150 55.2072 L 31.8288 50.8564 C 32.1769 50.2569 31.9836 49.5801 31.4034 49.2320 C 30.8233 48.9033 30.1658 49.0967 29.8178 49.6768 L 27.2653 54.0857 C 26.9559 54.6271 27.1106 55.3039 27.7100 55.6519 C 28.2902 55.9807 28.9863 55.7873 29.3150 55.2072 Z M 13.9227 55.2265 L 16.4365 50.8757 C 16.7846 50.2762 16.6106 49.5994 16.0305 49.2514 C 15.4310 48.9226 14.7735 49.1160 14.4255 49.6961 L 11.8923 54.1050 C 11.5636 54.6464 11.7376 55.3232 12.3177 55.6713 C 12.8978 56 13.5940 55.8067 13.9227 55.2265 Z"/></svg>