<svg xmlns="http://www.w3.org/2000/svg" width="56" height="56" viewBox="0 0 56 56"><path d="M 15.5547 53.125 L 40.4453 53.125 C 45.2969 53.125 47.7109 50.6640 47.7109 45.7890 L 47.7109 24.5078 C 47.7109 21.4844 47.3828 20.1718 45.5078 18.2500 L 32.5703 5.1015 C 30.7891 3.2734 29.3359 2.8750 26.6875 2.8750 L 15.5547 2.8750 C 10.7266 2.8750 8.2891 5.3594 8.2891 10.2344 L 8.2891 45.7890 C 8.2891 50.6875 10.7266 53.125 15.5547 53.125 Z M 15.7422 49.3515 C 13.3281 49.3515 12.0625 48.0625 12.0625 45.7187 L 12.0625 10.3047 C 12.0625 7.9844 13.3281 6.6484 15.7656 6.6484 L 26.1718 6.6484 L 26.1718 20.2656 C 26.1718 23.2187 27.6718 24.6718 30.5781 24.6718 L 43.9375 24.6718 L 43.9375 45.7187 C 43.9375 48.0625 42.6953 49.3515 40.2578 49.3515 Z M 31.0000 21.1328 C 30.0859 21.1328 29.7109 20.7578 29.7109 19.8203 L 29.7109 7.3750 L 43.2109 21.1328 Z"/></svg>