<svg xmlns="http://www.w3.org/2000/svg" width="56" height="56" viewBox="0 0 56 56"><path d="M 15.5547 53.125 L 40.4453 53.125 C 45.2969 53.125 47.7109 50.6875 47.7109 45.7890 L 47.7109 10.2344 C 47.7109 5.3594 45.2969 2.8750 40.4453 2.8750 L 15.5547 2.8750 C 10.7266 2.8750 8.2891 5.3594 8.2891 10.2344 L 8.2891 45.7890 C 8.2891 50.6875 10.7266 53.125 15.5547 53.125 Z M 15.7422 49.3515 C 13.3281 49.3515 12.0625 48.0625 12.0625 45.7187 L 12.0625 10.3047 C 12.0625 7.9844 13.3281 6.6484 15.7656 6.6484 L 40.2578 6.6484 C 42.6953 6.6484 43.9375 7.9609 43.9375 10.3047 L 43.9375 45.7187 C 43.9375 48.0625 42.6953 49.3515 40.2813 49.3515 Z M 17.4062 25.2344 C 18.0391 25.2344 18.4375 24.9062 18.6484 24.1094 L 19.4687 21.7891 L 23.8515 21.7891 L 24.6953 24.1094 C 24.9062 24.8828 25.3047 25.2344 25.9140 25.2344 C 26.7344 25.2344 27.1797 24.7891 27.1797 24.0391 C 27.1797 23.875 27.1094 23.5703 27.0156 23.2656 L 23.5703 13.7266 C 23.2187 12.7422 22.6328 12.2734 21.6484 12.2734 C 20.6875 12.2734 20.125 12.7422 19.7734 13.7266 L 16.3281 23.2656 C 16.2109 23.5469 16.1640 23.875 16.1640 24.0391 C 16.1640 24.7891 16.6328 25.2344 17.4062 25.2344 Z M 31.3047 16.3281 L 38.1953 16.3281 C 39.0156 16.3281 39.6484 15.6953 39.6484 14.875 C 39.6484 14.0781 39.0156 13.4453 38.1953 13.4453 L 31.3047 13.4453 C 30.4375 13.4453 29.8281 14.0781 29.8281 14.875 C 29.8281 15.6953 30.4375 16.3281 31.3047 16.3281 Z M 19.9844 19.8437 L 21.5781 14.9218 L 21.7422 14.9218 L 23.3359 19.8437 Z M 31.3047 24.5078 L 38.1953 24.5078 C 39.0156 24.5078 39.6484 23.875 39.6484 23.0547 C 39.6484 22.2578 39.0156 21.625 38.1953 21.625 L 31.3047 21.625 C 30.4375 21.625 29.8281 22.2578 29.8281 23.0547 C 29.8281 23.875 30.4375 24.5078 31.3047 24.5078 Z M 15.7891 43.8906 L 17.4531 43.8906 L 20.5234 40.7734 C 20.9687 40.3515 21.4375 40.1875 21.9062 40.1875 C 22.375 40.1875 22.8906 40.3750 23.3359 40.7734 L 25.2578 42.5312 L 30.0625 38.2656 C 30.6015 37.7969 31.1640 37.5859 31.7266 37.5859 C 32.2891 37.5859 32.8984 37.7734 33.3203 38.2656 L 38.0078 43.6562 L 39.6484 43.6562 L 39.6484 32.4531 C 39.6484 30.3906 38.5703 29.3359 36.5078 29.3359 L 18.9531 29.3359 C 16.9609 29.3359 15.7891 30.3906 15.7891 32.4531 Z M 23.5234 38.2656 C 22.1172 38.2656 20.9922 37.0937 20.9922 35.7344 C 20.9922 34.3281 22.1172 33.1562 23.5234 33.2031 C 24.9062 33.2500 26.0547 34.3281 26.0547 35.7344 C 26.0547 37.0937 24.9062 38.2656 23.5234 38.2656 Z"/></svg>