<svg xmlns="http://www.w3.org/2000/svg" width="56" height="56" viewBox="0 0 56 56"><path d="M 42.6235 45.0027 L 43.9237 45.0027 C 48.4638 45.0027 50.7337 42.6887 50.7337 38.0826 L 50.7337 16.8375 L 37.6648 16.8375 C 35.3728 16.8375 34.0725 15.5372 34.0725 13.2452 L 34.0725 0 L 22.6345 0 C 18.0945 0 15.8025 2.3141 15.8025 6.9201 L 15.8025 8.0000 L 18.6675 8.0000 C 21.7750 8.0000 24.2653 8.8815 26.7336 11.3499 L 39.2295 23.8898 C 41.7199 26.3802 42.6235 28.9366 42.6235 31.9339 Z M 38.1055 14.0827 L 49.6757 14.0827 C 49.5435 13.3774 49.0808 12.7603 48.3095 11.9890 L 38.9210 2.4242 C 38.1717 1.6529 37.5105 1.1680 36.8273 1.0579 L 36.8493 12.8044 C 36.8493 13.7080 37.2020 14.0827 38.1055 14.0827 Z M 11.5050 56 L 32.7943 56 C 37.3342 56 39.6262 53.6859 39.6262 49.0799 L 39.6262 31.3388 L 23.6703 31.3388 C 20.8273 31.3388 19.5050 29.9945 19.5050 27.1736 L 19.5050 10.9972 L 11.5050 10.9972 C 6.9651 10.9972 4.6731 13.3113 4.6731 17.9174 L 4.6731 49.0799 C 4.6731 53.7080 6.9651 56 11.5050 56 Z M 23.6483 28.3195 L 38.4582 28.3195 C 38.2378 27.4600 37.6427 26.6666 36.6510 25.6529 L 25.1910 13.9945 C 24.2213 13.0028 23.3617 12.4077 22.5243 12.1653 L 22.5243 27.1956 C 22.5243 27.9449 22.8989 28.3195 23.6483 28.3195 Z"/></svg>