<svg xmlns="http://www.w3.org/2000/svg" width="56" height="56" viewBox="0 0 56 56"><path d="M 27.9999 51.9063 C 41.0546 51.9063 51.9063 41.0781 51.9063 28 C 51.9063 14.9453 41.0312 4.0937 27.9765 4.0937 C 14.8983 4.0937 4.0937 14.9453 4.0937 28 C 4.0937 41.0781 14.9218 51.9063 27.9999 51.9063 Z M 27.9999 47.9219 C 16.9374 47.9219 8.1014 39.0625 8.1014 28 C 8.1014 16.9609 16.9140 8.0781 27.9765 8.0781 C 39.0155 8.0781 47.8983 16.9609 47.9219 28 C 47.9454 39.0625 39.0390 47.9219 27.9999 47.9219 Z M 21.2499 41.0781 L 34.6796 41.0781 C 37.2812 41.0781 38.5702 39.7422 38.5702 37.1172 L 38.5702 25.8437 L 29.2890 25.8437 C 27.6718 25.8437 26.8983 25.0937 26.8983 23.4766 L 26.8983 14.0312 L 21.2499 14.0312 C 18.6718 14.0312 17.3593 15.3672 17.3593 17.9922 L 17.3593 37.1172 C 17.3593 39.7656 18.6718 41.0781 21.2499 41.0781 Z M 29.4765 23.9453 L 38.4296 23.9453 C 38.3593 23.4297 37.9843 22.9141 37.3749 22.3047 L 30.4374 15.2266 C 29.8514 14.6172 29.3124 14.2422 28.7968 14.1719 L 28.7968 23.2656 C 28.7968 23.7109 29.0312 23.9453 29.4765 23.9453 Z"/></svg>