<svg xmlns="http://www.w3.org/2000/svg" width="56" height="56" viewBox="0 0 56 56"><path d="M 45.9825 48.7874 C 46.6062 49.4713 47.6926 49.5517 48.4567 48.7472 C 53.2440 43.7385 56 37.0202 56 29.6782 C 56 22.3363 53.2440 15.5978 48.4567 10.6093 C 47.6926 9.7846 46.6062 9.8650 45.9825 10.5490 C 45.3592 11.2529 45.4997 12.2386 46.2239 13.0030 C 50.3880 17.3679 52.7213 23.2213 52.7213 29.6782 C 52.7213 36.1351 50.3880 41.9684 46.2239 46.3334 C 45.4997 47.0977 45.3592 48.1035 45.9825 48.7874 Z M 10.0172 48.7874 C 10.6408 48.1035 10.5000 47.0977 9.7758 46.3334 C 5.6121 41.9684 3.2787 36.1351 3.2787 29.6782 C 3.2787 23.2213 5.6121 17.3679 9.7758 13.0030 C 10.5000 12.2386 10.6408 11.2529 10.0172 10.5490 C 9.3937 9.8650 8.3074 9.7846 7.5230 10.6093 C 2.7557 15.5978 0 22.3363 0 29.6782 C 0 37.0202 2.7557 43.7385 7.5230 48.7472 C 8.3074 49.5517 9.3937 49.4713 10.0172 48.7874 Z M 40.1695 43.4368 C 40.8129 44.1811 41.9396 44.1811 42.7038 43.3161 C 46.0431 39.6954 47.9340 34.8880 47.9340 29.6782 C 47.9340 24.4684 46.0431 19.6409 42.7038 16.0202 C 41.9396 15.1754 40.8129 15.1553 40.1695 15.9196 C 39.5260 16.6438 39.7270 17.5892 40.4512 18.4139 C 43.1466 21.4110 44.6552 25.3334 44.6552 29.6782 C 44.6552 34.0029 43.1466 37.9455 40.4512 40.9426 C 39.7270 41.7673 39.5260 42.6926 40.1695 43.4368 Z M 15.8304 43.4368 C 16.4741 42.6926 16.2730 41.7673 15.5488 40.9426 C 12.8534 37.9455 11.3448 34.0029 11.3448 29.6782 C 11.3448 25.3334 12.8534 21.4110 15.5488 18.4139 C 16.2730 17.5892 16.4741 16.6438 15.8304 15.9196 C 15.1868 15.1553 14.0603 15.1754 13.2758 16.0202 C 9.9368 19.6409 8.0661 24.4684 8.0661 29.6782 C 8.0661 34.8880 9.9368 39.6954 13.2758 43.3161 C 14.0603 44.1811 15.1868 44.1811 15.8304 43.4368 Z M 21.4626 37.7041 C 22.1063 36.9799 21.8247 36.0748 21.2011 35.2098 C 19.9942 33.7012 19.3907 31.7702 19.3907 29.6782 C 19.3907 27.5863 19.9942 25.6351 21.2011 24.1466 C 21.8247 23.2615 22.1063 22.3765 21.4626 21.6524 C 20.7988 20.8880 19.5919 20.8679 18.8678 21.7932 C 17.1379 23.9656 16.1121 26.7213 16.1121 29.6782 C 16.1121 32.6351 17.1379 35.3909 18.8678 37.5632 C 19.5919 38.4684 20.7988 38.4483 21.4626 37.7041 Z M 34.5373 37.7041 C 35.2011 38.4483 36.4080 38.4684 37.1120 37.5632 C 38.8619 35.3909 39.8679 32.6351 39.8679 29.6782 C 39.8679 26.7213 38.8619 23.9656 37.1120 21.7932 C 36.4080 20.8679 35.2011 20.8880 34.5373 21.6524 C 33.8936 22.3765 34.1752 23.2615 34.7988 24.1466 C 35.9453 25.6753 36.5890 27.5863 36.5890 29.6782 C 36.5890 31.7702 36.0057 33.7012 34.7988 35.2098 C 34.1551 36.0748 33.8936 36.9799 34.5373 37.7041 Z M 28.0000 32.5949 C 29.5689 32.5949 30.9568 31.2673 30.9568 29.6380 C 30.9568 28.0288 29.5689 26.6811 28.0000 26.6811 C 26.4109 26.6811 25.0430 28.0288 25.0430 29.6380 C 25.0430 31.2673 26.4109 32.5949 28.0000 32.5949 Z"/></svg>