<svg xmlns="http://www.w3.org/2000/svg" width="56" height="56" viewBox="0 0 56 56"><path d="M 13.7851 49.5742 L 42.2382 49.5742 C 47.1366 49.5742 49.5743 47.1367 49.5743 42.3086 L 49.5743 13.6914 C 49.5743 8.8633 47.1366 6.4258 42.2382 6.4258 L 13.7851 6.4258 C 8.9101 6.4258 6.4257 8.8398 6.4257 13.6914 L 6.4257 42.3086 C 6.4257 47.1602 8.9101 49.5742 13.7851 49.5742 Z M 28.0351 35.4883 C 23.8632 35.4883 20.4648 32.1367 20.4648 27.9414 C 20.4648 23.7930 23.8632 20.4180 28.0351 20.4180 C 32.1835 20.4180 35.5820 23.7930 35.5820 27.9414 C 35.5820 32.1367 32.1835 35.4883 28.0351 35.4883 Z"/></svg>