<svg xmlns="http://www.w3.org/2000/svg" width="56" height="56" viewBox="0 0 56 56"><path d="M 27.9999 51.9063 C 41.0546 51.9063 51.9063 41.0781 51.9063 28 C 51.9063 14.9453 41.0312 4.0937 27.9765 4.0937 C 14.8983 4.0937 4.0937 14.9453 4.0937 28 C 4.0937 41.0781 14.9218 51.9063 27.9999 51.9063 Z M 27.9999 47.9219 C 16.9374 47.9219 8.1014 39.0625 8.1014 28 C 8.1014 16.9609 16.9140 8.0781 27.9765 8.0781 C 39.0155 8.0781 47.8983 16.9609 47.9219 28 C 47.9454 39.0625 39.0390 47.9219 27.9999 47.9219 Z M 19.1405 25.4922 L 36.7890 25.4922 C 37.9843 25.4922 38.8046 24.9063 38.8046 23.7344 C 38.8046 22.5390 38.0312 21.9063 36.7890 21.9063 L 19.1405 21.9063 C 17.8749 21.9063 17.1014 22.5390 17.1014 23.7344 C 17.1014 24.9063 17.9218 25.4922 19.1405 25.4922 Z M 19.1405 34.1641 L 36.7890 34.1641 C 37.9843 34.1641 38.8046 33.5781 38.8046 32.4063 C 38.8046 31.1875 38.0312 30.5781 36.7890 30.5781 L 19.1405 30.5781 C 17.8749 30.5781 17.1014 31.1875 17.1014 32.4063 C 17.1014 33.5781 17.9218 34.1641 19.1405 34.1641 Z"/></svg>