<svg xmlns="http://www.w3.org/2000/svg" width="56" height="56" viewBox="0 0 56 56"><path d="M 16.5860 52.2461 C 17.7579 52.2461 18.5548 51.6367 19.9610 50.3711 L 28.0704 43.1758 L 43.0938 43.1758 C 50.0783 43.1758 53.8280 39.3086 53.8280 32.4414 L 53.8280 14.4883 C 53.8280 7.6211 50.0783 3.7539 43.0938 3.7539 L 12.9064 3.7539 C 5.9454 3.7539 2.1720 7.5976 2.1720 14.4883 L 2.1720 32.4414 C 2.1720 39.3320 5.9454 43.1758 12.9064 43.1758 L 14.0313 43.1758 L 14.0313 49.2695 C 14.0313 51.0742 14.9688 52.2461 16.5860 52.2461 Z M 17.5469 47.9570 L 17.5469 41.1602 C 17.5469 39.8945 17.0782 39.4023 15.7891 39.4023 L 12.9298 39.4023 C 8.1720 39.4023 5.9454 36.9883 5.9454 32.4180 L 5.9454 14.4883 C 5.9454 9.9180 8.1720 7.5273 12.9298 7.5273 L 43.0938 7.5273 C 47.8280 7.5273 50.0548 9.9180 50.0548 14.4883 L 50.0548 32.4180 C 50.0548 36.9883 47.8280 39.4023 43.0938 39.4023 L 27.9064 39.4023 C 26.6173 39.4023 25.9376 39.5898 25.0469 40.5039 Z M 28.1642 28.1992 C 29.2891 28.1992 29.9454 27.5664 29.9688 26.3476 L 30.2969 13.9727 C 30.3204 12.7773 29.3829 11.8867 28.1407 11.8867 C 26.8751 11.8867 25.9844 12.7539 26.0079 13.9492 L 26.3360 26.3476 C 26.3595 27.5430 26.9923 28.1992 28.1642 28.1992 Z M 28.1642 35.8164 C 29.5235 35.8164 30.6954 34.7383 30.6954 33.3789 C 30.6954 32.0195 29.5469 30.9414 28.1642 30.9414 C 26.7813 30.9414 25.6329 32.0430 25.6329 33.3789 C 25.6329 34.7149 26.8048 35.8164 28.1642 35.8164 Z"/></svg>