<svg xmlns="http://www.w3.org/2000/svg" width="56" height="56" viewBox="0 0 56 56"><path d="M 13.7851 49.5742 L 42.2382 49.5742 C 47.1366 49.5742 49.5743 47.1367 49.5743 42.3086 L 49.5743 13.6914 C 49.5743 8.8633 47.1366 6.4258 42.2382 6.4258 L 13.7851 6.4258 C 8.9101 6.4258 6.4257 8.8398 6.4257 13.6914 L 6.4257 42.3086 C 6.4257 47.1602 8.9101 49.5742 13.7851 49.5742 Z M 13.8554 45.8008 C 11.5117 45.8008 10.1992 44.5586 10.1992 42.1211 L 10.1992 13.8789 C 10.1992 11.4414 11.5117 10.1992 13.8554 10.1992 L 42.1679 10.1992 C 44.4882 10.1992 45.8007 11.4414 45.8007 13.8789 L 45.8007 42.1211 C 45.8007 44.5586 44.4882 45.8008 42.1679 45.8008 Z M 28.0117 32.1836 C 29.1366 32.1836 29.7695 31.5508 29.7929 30.3320 L 30.1444 17.9571 C 30.1679 16.7617 29.2304 15.8711 27.9882 15.8711 C 26.7226 15.8711 25.8320 16.7383 25.8554 17.9336 L 26.1601 30.3320 C 26.1835 31.5274 26.8398 32.1836 28.0117 32.1836 Z M 28.0117 39.8008 C 29.3710 39.8008 30.5429 38.7227 30.5429 37.3633 C 30.5429 36.0039 29.3944 34.9258 28.0117 34.9258 C 26.6288 34.9258 25.4804 36.0274 25.4804 37.3633 C 25.4804 38.6992 26.6523 39.8008 28.0117 39.8008 Z"/></svg>