<svg xmlns="http://www.w3.org/2000/svg" width="56" height="56" viewBox="0 0 56 56">
  <path d="M23.9048968,47.8098224 C27.1703451,47.8098224 30.2443962,47.1848496 33.12705,45.9349039 C36.0097038,44.6849838 38.5525208,42.9585235 40.7555009,40.7555229 C42.9584809,38.5525217 44.6848958,36.0097022 45.9347455,33.1270644 C47.1849152,30.2444106 47.81,27.1703595 47.81,23.9049112 C47.81,20.6394629 47.1849152,17.5654118 45.9347455,14.682758 C44.6848958,11.8001042 42.9584809,9.25728722 40.7555009,7.05430715 C38.5525208,4.85129509 36.0058001,3.12483221 33.1153387,1.87491852 C30.2248773,0.624972842 27.1469224,0 23.8814741,0 C20.6160258,0 17.5419748,0.624972842 14.6593209,1.87491852 C11.7766671,3.12483221 9.23775392,4.85129509 7.04258141,7.05430715 C4.84737691,9.25728722 3.12481781,11.8001042 1.87490413,14.682758 C0.624968042,17.5654118 1.70520664e-15,20.6394629 1.70520664e-15,23.9049112 C1.70520664e-15,27.1703595 0.624968042,30.2444106 1.87490413,33.1270644 C3.12481781,36.0097022 4.85128069,38.5525217 7.05429275,40.7555229 C9.25730482,42.9585235 11.8001378,44.6849838 14.6827916,45.9349039 C17.5654134,47.1848496 20.6394485,47.8098224 23.9048968,47.8098224 Z M23.9048968,43.8256625 C21.1394204,43.8256625 18.5536298,43.3100659 16.1475252,42.2788728 C13.7414206,41.2476821 11.6282594,39.8219815 9.80804184,38.001771 C7.98782424,36.1815502 6.56603222,34.0683874 5.54266579,31.6622828 C4.51926736,29.2561782 4.00756815,26.6703876 4.00756815,23.9049112 C4.00756815,21.1394348 4.51926736,18.5536442 5.54266579,16.1475396 C6.56603222,13.741435 7.98392046,11.6243701 9.7963305,9.7963449 C11.6087405,7.96831973 13.7179979,6.54260794 16.1241025,5.51920951 C18.5302072,4.49584308 21.1159977,3.98415987 23.8814741,3.98415987 C26.6469505,3.98415987 29.2327411,4.49584308 31.6388457,5.51920951 C34.0449504,6.54260794 36.1620153,7.96831973 37.9900404,9.7963449 C39.8180656,11.6243701 41.2476812,13.741435 42.2788872,16.1475396 C43.3101251,18.5536442 43.8257441,21.1394348 43.8257441,23.9049112 C43.8257441,26.6703876 43.3140289,29.2561782 42.2905985,31.6622828 C41.2672001,34.0683874 39.8454081,36.1815502 38.0252225,38.001771 C36.2050049,39.8219815 34.0879239,41.2476821 31.6739797,42.2788728 C29.2600675,43.3100659 26.6703732,43.8256625 23.9048968,43.8256625 Z M23.8814741,35.6464427 C25.5063747,35.6464427 26.9359743,35.3534832 28.1702729,34.7675641 C29.4046034,34.1816771 30.3615896,33.5098429 31.0412313,32.7520615 C31.7208731,31.9942801 32.060694,31.3575959 32.060694,30.842009 C32.060694,30.5607768 31.9474204,30.3654758 31.7208731,30.2561059 C31.4943259,30.1467361 31.2560513,30.1467361 31.0060493,30.2561059 C30.1623528,30.7248475 29.1897515,31.1740383 28.0882455,31.6036781 C26.9867714,32.0333499 25.5845143,32.2481858 23.8814741,32.2481858 C22.1784339,32.2481858 20.7761608,32.0333499 19.6746548,31.6036781 C18.5731807,31.1740383 17.5927719,30.7248475 16.7334282,30.2561059 C16.4834583,30.1467361 16.2491035,30.1467361 16.0303638,30.2561059 C15.8116241,30.3654758 15.7022543,30.5607768 15.7022543,30.842009 C15.7022543,31.3575959 16.0420751,31.9942801 16.7217169,32.7520615 C17.4013587,33.5098429 18.3583288,34.1816771 19.5926274,34.7675641 C20.826958,35.3534832 22.2565735,35.6464427 23.8814741,35.6464427 Z M16.9209057,21.8190925 C17.6708795,21.8190925 18.3270986,21.5183255 18.8895629,20.9167913 C19.4520273,20.3152571 19.7332595,19.5457644 19.7332595,18.6083132 C19.7332595,17.6708619 19.4520273,16.8974814 18.8895629,16.2881717 C18.3270986,15.67883 17.6708795,15.3741591 16.9209057,15.3741591 C16.186579,15.3741591 15.545991,15.67883 14.9991418,16.2881717 C14.4522926,16.8974814 14.178868,17.6708619 14.178868,18.6083132 C14.178868,19.5457644 14.4522926,20.3152571 14.9991418,20.9167913 C15.545991,21.5183255 16.186579,21.8190925 16.9209057,21.8190925 Z M30.8185719,21.8190925 C31.5685457,21.8190925 32.2247648,21.5183255 32.7872291,20.9167913 C33.3496935,20.3152571 33.6309257,19.5457644 33.6309257,18.6083132 C33.6309257,17.6708619 33.3496935,16.8974814 32.7872291,16.2881717 C32.2247648,15.67883 31.5685457,15.3741591 30.8185719,15.3741591 C30.0842452,15.3741591 29.4436572,15.67883 28.896808,16.2881717 C28.3499587,16.8974814 28.0765341,17.6708619 28.0765341,18.6083132 C28.0765341,19.5457644 28.3499587,20.3152571 28.896808,20.9167913 C29.4436572,21.5183255 30.0842452,21.8190925 30.8185719,21.8190925 Z" transform="translate(4 4)"/>
</svg>
