<svg xmlns="http://www.w3.org/2000/svg" width="56" height="56" viewBox="0 0 56 56"><path d="M 6.8828 49.5742 L 49.1173 49.5742 C 53.6408 49.5742 55.8906 47.3477 55.8906 42.8945 L 55.8906 13.1055 C 55.8906 8.6523 53.6408 6.4258 49.1173 6.4258 L 6.8828 6.4258 C 2.4063 6.4258 .1094 8.6523 .1094 13.1055 L .1094 42.8945 C .1094 47.3477 2.3828 49.5742 6.8828 49.5742 Z M 6.9297 45.8008 C 4.9610 45.8008 3.8828 44.7695 3.8828 42.7070 L 3.8828 13.2930 C 3.8828 11.2305 4.9844 10.1992 6.9297 10.1992 L 49.0703 10.1992 C 51.0392 10.1992 52.1173 11.2305 52.1173 13.2930 L 52.1173 42.7070 C 52.1173 44.7695 51.0392 45.8008 49.0703 45.8008 Z M 7.0235 15.6367 C 7.0235 16.1523 7.4219 16.5742 8.0547 16.5742 L 10.2344 16.5742 C 10.8203 16.5742 11.2188 16.1523 11.2188 15.6367 L 11.2188 13.6680 C 11.2188 13.0352 10.8203 12.6367 10.2344 12.6367 L 8.0547 12.6367 C 7.3984 12.6367 7.0235 13.0352 7.0235 13.6680 Z M 44.8045 15.6367 C 44.8045 16.1523 45.1799 16.5742 45.8125 16.5742 L 47.9922 16.5742 C 48.5783 16.5742 48.9767 16.1523 48.9767 15.6367 L 48.9767 13.6680 C 48.9767 13.0352 48.5783 12.6367 47.9922 12.6367 L 45.8125 12.6367 C 45.1564 12.6367 44.8045 13.0352 44.8045 13.6680 Z M 14.6172 25.1289 C 14.6172 25.8320 15.0625 26.2539 15.7657 26.2539 L 40.2579 26.2539 C 40.9610 26.2539 41.3828 25.8320 41.3828 25.1289 L 41.3828 13.8789 C 41.3828 13.1758 40.9610 12.7539 40.2579 12.7539 L 15.7657 12.7539 C 15.0625 12.7539 14.6172 13.1758 14.6172 13.8789 Z M 7.0235 22.3164 C 7.0235 22.8555 7.4219 23.2774 8.0547 23.2774 L 10.2344 23.2774 C 10.8203 23.2774 11.2188 22.8555 11.2188 22.3164 L 11.2188 20.3477 C 11.2188 19.7383 10.8203 19.3398 10.2344 19.3398 L 8.0547 19.3398 C 7.3984 19.3398 7.0235 19.7383 7.0235 20.3477 Z M 44.8045 22.3164 C 44.8045 22.8555 45.1799 23.2774 45.8125 23.2774 L 47.9922 23.2774 C 48.5783 23.2774 48.9767 22.8555 48.9767 22.3164 L 48.9767 20.3477 C 48.9767 19.7383 48.5783 19.3398 47.9922 19.3398 L 45.8125 19.3398 C 45.1564 19.3398 44.8045 19.7383 44.8045 20.3477 Z M 7.0235 29.0196 C 7.0235 29.5352 7.4219 29.9571 8.0547 29.9571 L 10.2344 29.9571 C 10.8203 29.9571 11.2188 29.5352 11.2188 29.0196 L 11.2188 27.0274 C 11.2188 26.4180 10.8203 26.0196 10.2344 26.0196 L 8.0547 26.0196 C 7.3984 26.0196 7.0235 26.4180 7.0235 27.0274 Z M 44.8045 29.0196 C 44.8045 29.5352 45.1799 29.9571 45.8125 29.9571 L 47.9922 29.9571 C 48.5783 29.9571 48.9767 29.5352 48.9767 29.0196 L 48.9767 27.0274 C 48.9767 26.4180 48.5783 26.0196 47.9922 26.0196 L 45.8125 26.0196 C 45.1564 26.0196 44.8045 26.4180 44.8045 27.0274 Z M 14.6172 42.0977 C 14.6172 42.8242 15.0625 43.2227 15.7657 43.2227 L 40.2579 43.2227 C 40.9610 43.2227 41.3828 42.8242 41.3828 42.0977 L 41.3828 30.9180 C 41.3828 30.2149 40.9610 29.8164 40.2579 29.8164 L 15.7657 29.8164 C 15.0625 29.8164 14.6172 30.2149 14.6172 30.9180 Z M 7.0235 35.6992 C 7.0235 36.2149 7.4219 36.6602 8.0547 36.6602 L 10.2344 36.6602 C 10.8203 36.6602 11.2188 36.2149 11.2188 35.6992 L 11.2188 33.7305 C 11.2188 33.0977 10.8203 32.6992 10.2344 32.6992 L 8.0547 32.6992 C 7.3984 32.6992 7.0235 33.0977 7.0235 33.7305 Z M 44.8045 35.6992 C 44.8045 36.2149 45.1799 36.6602 45.8125 36.6602 L 47.9922 36.6602 C 48.5783 36.6602 48.9767 36.2149 48.9767 35.6992 L 48.9767 33.7305 C 48.9767 33.0977 48.5783 32.6992 47.9922 32.6992 L 45.8125 32.6992 C 45.1564 32.6992 44.8045 33.0977 44.8045 33.7305 Z M 7.0235 42.3789 C 7.0235 42.9180 7.4219 43.3399 8.0547 43.3399 L 10.2344 43.3399 C 10.8203 43.3399 11.2188 42.9180 11.2188 42.3789 L 11.2188 40.3867 C 11.2188 39.8008 10.8203 39.4023 10.2344 39.4023 L 8.0547 39.4023 C 7.3984 39.4023 7.0235 39.8008 7.0235 40.3867 Z M 44.8045 42.3789 C 44.8045 42.9180 45.1799 43.3399 45.8125 43.3399 L 47.9922 43.3399 C 48.5783 43.3399 48.9767 42.9180 48.9767 42.3789 L 48.9767 40.3867 C 48.9767 39.8008 48.5783 39.4023 47.9922 39.4023 L 45.8125 39.4023 C 45.1564 39.4023 44.8045 39.8008 44.8045 40.3867 Z"/></svg>