<svg xmlns="http://www.w3.org/2000/svg" width="56" height="56" viewBox="0 0 56 56"><path d="M 47.0665 46.5976 C 47.7931 47.3008 48.9415 47.3008 49.6213 46.5976 C 50.3476 45.9180 50.3476 44.7461 49.6213 44.0430 L 8.9102 3.3555 C 8.2071 2.6524 7.0352 2.6524 6.3321 3.3555 C 5.6524 4.0351 5.6524 5.2305 6.3321 5.9102 Z M 16.8790 7.3633 L 48.0509 38.5117 C 48.4259 37.9258 48.6368 37.2461 48.6368 36.4024 L 48.6368 12.5898 C 48.6368 11.3476 47.5587 10.5976 46.1993 10.5976 C 45.0509 10.5976 42.8946 11.6055 38.8634 11.6055 C 30.7774 11.6055 25.3868 7.4805 16.8790 7.3633 Z M 7.0118 51.5664 C 7.0118 52.5273 7.8321 53.3476 8.7931 53.3476 C 9.7774 53.3476 10.5743 52.5742 10.5743 51.5664 L 10.5743 38.5586 C 11.1603 38.3008 13.3634 37.4570 16.8087 37.4570 C 25.1056 37.4570 30.3087 41.3008 38.1603 41.6524 L 7.4805 11.0195 C 7.1993 11.4648 7.0118 12.0039 7.0118 12.6367 Z"/></svg>