<svg xmlns="http://www.w3.org/2000/svg" width="56" height="56" viewBox="0 0 56 56"><path d="M 8.1952 41.7461 L 26.3124 41.7461 L 26.3124 45.3086 L 22.6327 45.3086 C 20.9218 45.3086 20.2655 46.9727 21.3436 48.2852 L 26.7577 54.9180 C 27.4609 55.7852 28.6327 55.7852 29.3593 54.9180 L 34.7265 48.2852 C 35.7343 46.9961 35.1015 45.3086 33.4609 45.3086 L 29.7343 45.3086 L 29.7343 41.7461 L 47.8045 41.7461 C 51.3906 41.7461 53.1954 40.0117 53.1954 36.4024 L 53.1954 28.1758 C 53.1954 24.5899 51.3906 22.8555 47.8045 22.8555 L 29.7343 22.8555 L 29.7343 19.1289 L 47.8045 19.1289 C 51.3906 19.1289 53.1954 17.3711 53.1954 13.7852 L 53.1954 5.5352 C 53.1954 1.9492 51.3906 .2148 47.8045 .2148 L 8.1952 .2148 C 4.6093 .2148 2.8046 1.9492 2.8046 5.5352 L 2.8046 13.7852 C 2.8046 17.3711 4.6093 19.1289 8.1952 19.1289 L 26.3124 19.1289 L 26.3124 22.8555 L 8.1952 22.8555 C 4.6093 22.8555 2.8046 24.5899 2.8046 28.1758 L 2.8046 36.4024 C 2.8046 40.0117 4.6093 41.7461 8.1952 41.7461 Z M 8.4765 15.5899 C 7.0936 15.5899 6.3436 14.8633 6.3436 13.4102 L 6.3436 5.9336 C 6.3436 4.4570 7.0936 3.7539 8.4765 3.7539 L 47.5232 3.7539 C 48.9061 3.7539 49.6564 4.4570 49.6564 5.9336 L 49.6564 13.4102 C 49.6564 14.8633 48.9061 15.5899 47.5232 15.5899 Z M 8.4765 38.2305 C 7.0936 38.2305 6.3436 37.5039 6.3436 36.0508 L 6.3436 28.5742 C 6.3436 27.0977 7.0936 26.3946 8.4765 26.3946 L 47.5232 26.3946 C 48.9061 26.3946 49.6564 27.0977 49.6564 28.5742 L 49.6564 36.0508 C 49.6564 37.5039 48.9061 38.2305 47.5232 38.2305 Z"/></svg>