<svg xmlns="http://www.w3.org/2000/svg" width="56" height="56" viewBox="0 0 56 56"><path d="M 27.9999 54.4024 C 41.0546 54.4024 51.9063 43.5742 51.9063 30.4961 C 51.9063 18.9649 43.4687 9.1914 32.5234 7.0351 L 32.5234 3.7070 C 32.5234 2.0430 31.3749 1.5976 30.0858 2.5117 L 22.6093 7.7383 C 21.5546 8.4883 21.5312 9.6133 22.6093 10.3867 L 30.0624 15.6367 C 31.3749 16.5742 32.5234 16.1289 32.5234 14.4414 L 32.5234 11.0898 C 41.3827 13.1055 47.8983 21.0039 47.8983 30.4961 C 47.8983 41.5586 39.0390 50.4180 27.9999 50.4180 C 16.9374 50.4180 8.0546 41.5586 8.0780 30.4961 C 8.1014 23.8398 11.3358 17.9570 16.3280 14.3945 C 17.2890 13.6680 17.5936 12.5664 16.9843 11.5820 C 16.4218 10.6211 15.1327 10.3633 14.1014 11.1602 C 8.0546 15.5430 4.0937 22.6211 4.0937 30.4961 C 4.0937 43.5742 14.9218 54.4024 27.9999 54.4024 Z M 33.6483 40.3633 C 37.5390 40.3633 40.0936 36.6836 40.0936 31.0586 C 40.0936 25.3867 37.5390 21.6602 33.6483 21.6602 C 29.7577 21.6602 27.2030 25.3867 27.2030 31.0586 C 27.2030 36.6836 29.7577 40.3633 33.6483 40.3633 Z M 21.4374 40.0820 C 22.3514 40.0820 22.9374 39.4492 22.9374 38.4649 L 22.9374 23.7227 C 22.9374 22.5742 22.3280 21.8476 21.2733 21.8476 C 20.6405 21.8476 20.1952 22.0586 19.3514 22.6211 L 16.0936 24.8008 C 15.5780 25.1758 15.3202 25.5976 15.3202 26.1602 C 15.3202 26.9336 15.9296 27.5898 16.6796 27.5898 C 17.1249 27.5898 17.3358 27.4961 17.8046 27.1680 L 19.9843 25.5742 L 19.9843 38.4649 C 19.9843 39.4258 20.5702 40.0820 21.4374 40.0820 Z M 33.6483 37.5273 C 31.5858 37.5273 30.2499 35.0664 30.2499 31.0586 C 30.2499 26.9805 31.5624 24.4961 33.6483 24.4961 C 35.7577 24.4961 37.0234 26.9570 37.0234 31.0586 C 37.0234 35.0664 35.7343 37.5273 33.6483 37.5273 Z"/></svg>