<svg xmlns="http://www.w3.org/2000/svg" width="56" height="56" viewBox="0 0 56 56"><path d="M 27.9999 54.4024 C 41.0546 54.4024 51.9063 43.5742 51.9063 30.4961 C 51.9063 18.9649 43.4687 9.1914 32.5234 7.0351 L 32.5234 3.7070 C 32.5234 2.0430 31.3749 1.5976 30.0858 2.5117 L 22.6093 7.7383 C 21.5546 8.4883 21.5312 9.6133 22.6093 10.3867 L 30.0624 15.6367 C 31.3749 16.5742 32.5234 16.1289 32.5234 14.4414 L 32.5234 11.0898 C 41.3827 13.1055 47.8983 21.0039 47.8983 30.4961 C 47.8983 41.5586 39.0390 50.4180 27.9999 50.4180 C 16.9374 50.4180 8.0546 41.5586 8.0780 30.4961 C 8.1014 23.8398 11.3358 17.9570 16.3280 14.3945 C 17.2890 13.6680 17.5936 12.5664 16.9843 11.5820 C 16.4218 10.6211 15.1327 10.3633 14.1014 11.1602 C 8.0546 15.5430 4.0937 22.6211 4.0937 30.4961 C 4.0937 43.5742 14.9218 54.4024 27.9999 54.4024 Z M 35.7109 40.3633 C 39.6014 40.3633 42.1327 36.6836 42.1327 31.0586 C 42.1327 25.3867 39.6014 21.6602 35.7109 21.6602 C 31.7968 21.6602 29.2655 25.3633 29.2655 31.0586 C 29.2655 36.6836 31.8202 40.3633 35.7109 40.3633 Z M 20.5936 40.3633 C 24.2733 40.3633 26.8983 38.1367 26.8983 34.9727 C 26.8983 32.7929 25.4452 30.9883 23.3827 30.6133 C 25.0234 30.1445 26.3124 28.4102 26.3124 26.4414 C 26.3124 23.6289 24.0155 21.6602 20.7343 21.6602 C 17.8983 21.6602 15.5312 23.2539 15.0155 25.5273 C 14.9687 25.8086 14.9452 26.0430 14.9452 26.3008 C 14.9452 27.1445 15.4843 27.7305 16.2812 27.7305 C 16.9374 27.7305 17.3593 27.3789 17.6405 26.6289 C 18.1093 25.1524 19.0936 24.3789 20.6640 24.3789 C 22.3046 24.3789 23.4296 25.3633 23.4296 26.7929 C 23.4296 28.2929 22.2812 29.3945 20.6405 29.3945 L 19.6327 29.3945 C 18.8358 29.3945 18.3202 29.9336 18.3202 30.7539 C 18.3202 31.5273 18.8593 32.1133 19.6327 32.1133 L 20.7343 32.1133 C 22.7265 32.1133 23.9687 33.2149 23.9687 34.8555 C 23.9687 36.4492 22.5624 37.6680 20.6171 37.6680 C 18.9765 37.6680 17.8046 36.8476 17.2890 35.3945 C 16.9843 34.6211 16.5858 34.2929 15.9296 34.2929 C 15.1562 34.2929 14.5936 34.9024 14.5936 35.7227 C 14.5936 35.9805 14.6171 36.2383 14.6874 36.4961 C 15.1796 38.6992 17.7109 40.3633 20.5936 40.3633 Z M 35.7109 37.5273 C 33.6249 37.5273 32.3124 35.0664 32.3124 31.0586 C 32.3124 26.9805 33.6014 24.4961 35.7109 24.4961 C 37.7968 24.4961 39.0624 26.9570 39.0624 31.0586 C 39.0624 35.0664 37.7733 37.5273 35.7109 37.5273 Z"/></svg>