<svg xmlns="http://www.w3.org/2000/svg" width="56" height="56" viewBox="0 0 56 56"><path d="M 27.9999 54.4024 C 41.0546 54.4024 51.9063 43.5742 51.9063 30.4961 C 51.9063 22.6211 47.9219 15.5430 41.8983 11.1602 C 40.8671 10.3633 39.5780 10.6211 38.9921 11.5820 C 38.4062 12.5664 38.7109 13.6680 39.6483 14.3945 C 44.6405 17.9570 47.8983 23.8398 47.9219 30.4961 C 47.9454 41.5586 39.0390 50.4180 27.9999 50.4180 C 16.9374 50.4180 8.1014 41.5586 8.1014 30.4961 C 8.1014 21.0039 14.6171 13.1055 23.4765 11.0898 L 23.4765 14.4649 C 23.4765 16.1289 24.6249 16.5742 25.8905 15.6602 L 33.3905 10.4102 C 34.4452 9.6836 34.4687 8.5586 33.3905 7.7851 L 25.9140 2.5351 C 24.6249 1.5976 23.4765 2.0430 23.4765 3.7305 L 23.4765 7.0351 C 12.5077 9.1680 4.0937 18.9649 4.0937 30.4961 C 4.0937 43.5742 14.9218 54.4024 27.9999 54.4024 Z M 27.9530 40.7383 C 29.0312 40.7383 29.6874 40.0117 29.6874 38.8633 L 29.6874 32.8398 L 36.0155 32.8398 C 37.1405 32.8398 37.9140 32.2305 37.9140 31.1758 C 37.9140 30.1211 37.2109 29.4883 36.0155 29.4883 L 29.6874 29.4883 L 29.6874 23.1133 C 29.6874 21.9414 29.0312 21.2149 27.9530 21.2149 C 26.8983 21.2149 26.3124 21.9883 26.3124 23.1133 L 26.3124 29.4883 L 19.9609 29.4883 C 18.8124 29.4883 18.0624 30.1211 18.0624 31.1758 C 18.0624 32.2305 18.8593 32.8398 19.9609 32.8398 L 26.3124 32.8398 L 26.3124 38.8633 C 26.3124 39.9649 26.8983 40.7383 27.9530 40.7383 Z"/></svg>