<svg xmlns="http://www.w3.org/2000/svg" width="56" height="56" viewBox="0 0 56 56"><path d="M 27.9999 54.4024 C 41.0546 54.4024 51.9063 43.5742 51.9063 30.4961 C 51.9063 22.6211 47.9219 15.5430 41.8983 11.1602 C 40.8671 10.3633 39.5780 10.6211 38.9921 11.5820 C 38.4062 12.5664 38.7109 13.6680 39.6483 14.3945 C 44.6405 17.9570 47.8983 23.8398 47.9219 30.4961 C 47.9454 41.5586 39.0390 50.4180 27.9999 50.4180 C 16.9374 50.4180 8.1014 41.5586 8.1014 30.4961 C 8.1014 21.0039 14.6171 13.1055 23.4765 11.0898 L 23.4765 14.4649 C 23.4765 16.1289 24.6249 16.5742 25.8905 15.6602 L 33.3905 10.4102 C 34.4452 9.6836 34.4687 8.5586 33.3905 7.7851 L 25.9140 2.5351 C 24.6249 1.5976 23.4765 2.0430 23.4765 3.7305 L 23.4765 7.0351 C 12.5077 9.1680 4.0937 18.9649 4.0937 30.4961 C 4.0937 43.5742 14.9218 54.4024 27.9999 54.4024 Z"/></svg>