<svg xmlns="http://www.w3.org/2000/svg" width="56" height="56" viewBox="0 0 56 56"><path d="M 27.9999 54.4024 C 41.0546 54.4024 51.9063 43.5742 51.9063 30.4961 C 51.9063 22.6211 47.9219 15.5430 41.8983 11.1602 C 40.8671 10.3633 39.5780 10.6211 38.9921 11.5820 C 38.4062 12.5664 38.7109 13.6680 39.6483 14.3945 C 44.6405 17.9570 47.8983 23.8398 47.9219 30.4961 C 47.9454 41.5586 39.0390 50.4180 27.9999 50.4180 C 16.9374 50.4180 8.1014 41.5586 8.1014 30.4961 C 8.1014 21.0039 14.6171 13.1055 23.4765 11.0898 L 23.4765 14.4649 C 23.4765 16.1289 24.6249 16.5742 25.8905 15.6602 L 33.3905 10.4102 C 34.4452 9.6836 34.4687 8.5586 33.3905 7.7851 L 25.9140 2.5351 C 24.6249 1.5976 23.4765 2.0430 23.4765 3.7305 L 23.4765 7.0351 C 12.5077 9.1680 4.0937 18.9649 4.0937 30.4961 C 4.0937 43.5742 14.9218 54.4024 27.9999 54.4024 Z M 35.9452 40.3633 C 39.8358 40.3633 42.3905 36.6836 42.3905 31.0586 C 42.3905 25.3867 39.8358 21.6602 35.9452 21.6602 C 32.0312 21.6602 29.4999 25.3867 29.4999 31.0820 C 29.4999 36.7070 32.0546 40.3633 35.9452 40.3633 Z M 20.0077 40.3867 C 24.3202 40.3867 26.7109 36.8945 26.7109 30.5664 C 26.7109 27.4961 26.0546 25.1289 24.7655 23.6992 C 23.7343 22.4102 22.1874 21.7070 20.2890 21.7070 C 16.5624 21.7070 14.1718 24.1680 14.1718 28.0351 C 14.1718 31.4570 16.4452 33.8711 19.6093 33.8711 C 21.5780 33.8711 23.1249 32.9102 23.8983 31.3867 C 23.8983 35.1602 22.3280 37.6914 19.9609 37.6914 C 18.8593 37.6914 17.9218 37.1289 17.3593 36.1680 C 16.9843 35.5351 16.5858 35.2773 15.9765 35.2773 C 15.2265 35.2773 14.6405 35.9102 14.6405 36.6367 C 14.6405 36.9180 14.6640 37.1524 14.8280 37.4805 C 15.2733 38.4414 16.9140 40.3867 20.0077 40.3867 Z M 20.4062 31.3867 C 18.4609 31.3867 17.1249 30.0039 17.1249 27.8945 C 17.1249 25.6914 18.4374 24.3086 20.4062 24.3086 C 22.3046 24.3086 23.6640 25.8086 23.6640 27.9414 C 23.6640 29.9805 22.3046 31.3867 20.4062 31.3867 Z M 35.9452 37.5273 C 33.8827 37.5273 32.5468 35.0664 32.5468 31.0586 C 32.5468 26.9805 33.8593 24.4961 35.9452 24.4961 C 38.0312 24.4961 39.3202 26.9570 39.3202 31.0586 C 39.3202 35.0664 38.0077 37.5273 35.9452 37.5273 Z"/></svg>