<svg xmlns="http://www.w3.org/2000/svg" width="56" height="56" viewBox="0 0 56 56"><path d="M 9.1211 36.2500 C 9.1211 47.8047 15.5195 52.9844 24.4492 52.9844 C 30.1211 52.9844 34.3398 51.1094 37.7148 47.5703 C 42.4023 42.6016 43.9492 35.0782 44.8398 32.125 C 45.5430 29.8047 46.8789 26.8282 46.8789 25.2578 C 46.8789 24.2500 45.5430 23.3594 44.6523 23.3594 C 42.6367 23.3594 41.8867 24.2734 40.6914 26.8047 C 39.3789 29.5938 37.7852 34.7969 36.5195 34.7969 C 35.7930 34.7969 35.5352 33.5078 35.5352 31.0469 L 35.5352 8.4297 C 35.5352 7.1875 34.7852 6.0625 33.1914 6.0625 C 31.6211 6.0625 30.8476 7.1875 30.8476 8.4297 L 30.8476 26.9453 C 30.0976 26.7344 29.2305 26.5703 28.2930 26.4297 L 28.2930 5.3594 C 28.2930 4.1172 27.5195 3.0156 25.9492 3.0156 C 24.3789 3.0156 23.6055 4.1172 23.6055 5.3594 L 23.6055 26.2656 C 22.7383 26.3125 21.8945 26.4063 21.0508 26.5469 L 21.0508 7.1641 C 21.0508 5.9219 20.2539 4.7969 18.7070 4.7969 C 17.1601 4.7969 16.3633 5.9219 16.3633 7.1641 L 16.3633 27.8594 C 15.4492 28.2344 14.5820 28.6797 13.8086 29.1719 L 13.8086 14.4531 C 13.8086 13.2109 13.0820 12.0860 11.5117 12.0860 C 9.8945 12.0860 9.1211 13.2109 9.1211 14.4531 Z"/></svg>