<svg xmlns="http://www.w3.org/2000/svg" width="56" height="56" viewBox="0 0 56 56"><path d="M37,43.917C34.836,46.466 31.611,48.074 28,48.074C21.461,48.074 16.188,42.801 16.188,36.215C16.188,32.546 17.835,29.281 20.431,27.118C21.605,28.315 23.327,30.065 25.249,32.014C23.881,32.889 22.984,34.415 22.984,36.215C22.984,39.004 25.258,41.231 28,41.231C29.745,41.231 31.269,40.359 32.166,39.024C34.106,40.989 35.838,42.742 37,43.917ZM32.127,25.156C35.39,26.37 37.965,28.959 39.132,32.24C35.131,28.174 34.099,27.284 32.127,25.156ZM21.461,14.497C21.461,14.494 21.461,14.491 21.461,14.488C21.461,10.855 24.344,7.949 27.977,7.973C31.609,7.996 34.516,10.855 34.539,14.488C34.562,18.139 31.619,21.041 27.994,21.051C24.986,18.023 23.736,16.795 21.461,14.497ZM28,17.863C29.852,17.863 31.375,16.34 31.375,14.488C31.375,12.637 29.805,11.16 28,11.16C26.125,11.16 24.625,12.613 24.625,14.488C24.625,16.34 26.148,17.863 28,17.863ZM44.547,37.67L44.547,7.902C44.547,5.559 43.281,4.27 40.844,4.27L15.156,4.27C13.843,4.27 12.869,4.644 12.251,5.356C10.328,3.45 9.672,2.786 9.37,2.478C10.581,1.158 12.442,0.496 14.945,0.496L41.055,0.496C45.883,0.496 48.32,2.957 48.32,7.856L48.32,41.449C45.144,38.277 45.044,38.188 44.547,37.67ZM46.698,53.456C45.489,54.824 43.605,55.504 41.055,55.504L14.945,55.504C10.117,55.504 7.68,53.066 7.68,48.145L7.68,14.41C8.068,14.795 8.851,15.579 11.453,18.211L11.453,48.098C11.453,50.395 12.719,51.731 15.156,51.731L40.844,51.731C42.199,51.731 43.192,51.317 43.807,50.556C45.119,51.873 45.432,52.181 46.698,53.456ZM48.71,51.451C49.509,52.224 50.681,52.2 51.429,51.451C52.178,50.703 52.203,49.481 51.429,48.732L7.277,4.53C6.504,3.782 5.257,3.807 4.533,4.53C3.81,5.278 3.835,6.551 4.533,7.249L48.71,51.451Z"/></svg>
