<svg xmlns="http://www.w3.org/2000/svg" width="56" height="56" viewBox="0 0 56 56"><path d="M 32.7812 52.5508 C 34.4687 52.5508 35.6640 51.0977 36.5312 48.8477 L 51.8829 8.7461 C 52.3048 7.6680 52.5626 6.7070 52.5626 5.9102 C 52.5626 4.3867 51.6016 3.4492 50.0781 3.4492 C 49.2813 3.4492 48.3203 3.6836 47.2423 4.1055 L 6.9296 19.5508 C 4.9609 20.3008 3.4374 21.4961 3.4374 23.2070 C 3.4374 25.3633 5.0780 26.0899 7.3280 26.7695 L 20.0077 30.6133 C 21.4843 31.0821 22.3280 31.0352 23.3359 30.0977 L 49.0466 6.0742 C 49.3514 5.7930 49.7032 5.8399 49.9375 6.0508 C 50.1717 6.2852 50.1952 6.6367 49.9139 6.9414 L 25.9843 32.7461 C 25.0937 33.7070 24.9999 34.5039 25.4687 36.0742 L 29.1718 48.4492 C 29.8749 50.8164 30.6015 52.5508 32.7812 52.5508 Z"/></svg>