<svg xmlns="http://www.w3.org/2000/svg" width="56" height="56" viewBox="0 0 56 56"><path d="M 28.0117 28.0234 C 33.5898 28.0234 38.1367 23.0547 38.1367 17.0078 C 38.1367 11.0078 33.6367 6.2969 28.0117 6.2969 C 22.4570 6.2969 17.8867 11.1016 17.8867 17.0547 C 17.9101 23.0782 22.4570 28.0234 28.0117 28.0234 Z M 28.0117 24.4844 C 24.5898 24.4844 21.6601 21.2031 21.6601 17.0547 C 21.6601 12.9766 24.5430 9.8360 28.0117 9.8360 C 31.5274 9.8360 34.3633 12.9297 34.3633 17.0078 C 34.3633 21.1563 31.4805 24.4844 28.0117 24.4844 Z M 13.2930 49.7031 L 42.7305 49.7031 C 46.6211 49.7031 48.4726 48.5313 48.4726 45.9531 C 48.4726 39.8125 40.7383 30.9297 28.0117 30.9297 C 15.2852 30.9297 7.5274 39.8125 7.5274 45.9531 C 7.5274 48.5313 9.3789 49.7031 13.2930 49.7031 Z M 12.1679 46.1641 C 11.5586 46.1641 11.3008 46.0000 11.3008 45.5078 C 11.3008 41.6641 17.2539 34.4687 28.0117 34.4687 C 38.7695 34.4687 44.6992 41.6641 44.6992 45.5078 C 44.6992 46.0000 44.4648 46.1641 43.8555 46.1641 Z"/></svg>