<svg xmlns="http://www.w3.org/2000/svg" width="56" height="56" viewBox="0 0 56 56"><path d="M 28.0235 17.6055 C 17.8751 17.6055 8.3361 19.7383 3.5783 24.4961 C 1.4454 26.6524 .3439 29.2539 .4845 32.3945 C .5782 34.2929 1.1642 35.9805 2.2657 37.0820 C 3.1095 37.9258 4.2345 38.3945 5.5704 38.1836 L 14.2657 36.7070 C 15.5783 36.4961 16.4923 36.0976 17.0783 35.4883 C 17.8517 34.7383 18.0861 33.6133 18.0861 32.1367 L 18.1095 29.7695 C 18.1095 29.3945 18.2735 29.1133 18.4845 28.8789 C 18.7188 28.5976 19.0704 28.4805 19.3283 28.4102 C 20.9220 28.0351 24.1798 27.6836 28.0235 27.6836 C 31.8908 27.6836 35.1251 27.9648 36.7188 28.4336 C 36.9532 28.5039 37.2814 28.6445 37.5392 28.8789 C 37.7735 29.1133 37.9142 29.3711 37.9142 29.7461 L 37.9376 32.1367 C 37.9610 33.6133 38.1954 34.7383 38.9454 35.4883 C 39.5548 36.0976 40.4688 36.4961 41.7814 36.7070 L 50.3593 38.1602 C 51.7422 38.3945 52.9144 37.9024 53.8283 37.0117 C 54.9299 35.9336 55.5390 34.2695 55.5861 32.3711 C 55.6561 29.2070 54.4609 26.6055 52.3518 24.4961 C 47.5705 19.7383 38.1720 17.6055 28.0235 17.6055 Z"/></svg>