<svg xmlns="http://www.w3.org/2000/svg" width="56" height="56" viewBox="0 0 56 56"><path d="M 32.5233 25.3867 L 46.1405 25.3867 C 47.1014 25.3867 47.8514 24.6133 47.8046 23.6524 C 47.7577 22.7383 47.0546 22.0586 46.1405 22.0586 L 42.5780 22.0586 L 35.6874 22.4336 L 39.6249 18.8477 L 49.7266 8.7227 C 50.1015 8.3477 50.2892 7.9258 50.2892 7.4336 C 50.2892 6.5195 49.5154 5.7930 48.5309 5.7930 C 48.0624 5.7930 47.6639 5.9570 47.3124 6.3086 L 37.2343 16.4336 L 33.6249 20.3242 L 34.0233 13.4570 L 34.0233 9.9648 C 34.0233 9.0508 33.3202 8.3477 32.4061 8.3008 C 31.4686 8.2539 30.6718 9.0039 30.6718 9.9648 L 30.6718 23.5352 C 30.6718 24.7774 31.2812 25.3867 32.5233 25.3867 Z M 17.5936 38.2070 C 24.3671 44.9805 32.6171 50.2070 39.3436 50.2070 C 42.3671 50.2070 45.0155 49.1524 47.1483 46.8086 C 48.3903 45.4258 49.1640 43.8086 49.1640 42.2149 C 49.1640 41.0430 48.7186 39.9180 47.5936 39.1211 L 40.4218 34.0117 C 39.3202 33.2617 38.4061 32.8867 37.5624 32.8867 C 36.4843 32.8867 35.5468 33.4961 34.4686 34.5508 L 32.8046 36.1914 C 32.5468 36.4492 32.2186 36.5664 31.9139 36.5664 C 31.5390 36.5664 31.2108 36.4258 30.9530 36.3086 C 29.5233 35.5352 27.0390 33.4024 24.7186 31.1055 C 22.4218 28.8086 20.2890 26.3242 19.5390 24.8711 C 19.3983 24.6133 19.2812 24.2852 19.2812 23.9336 C 19.2812 23.6289 19.3749 23.3242 19.6327 23.0664 L 21.2733 21.3555 C 22.3280 20.2774 22.9374 19.3399 22.9374 18.2617 C 22.9374 17.4180 22.5624 16.5039 21.7890 15.4024 L 16.7499 8.3008 C 15.9296 7.1758 14.7812 6.6836 13.5155 6.6836 C 11.9686 6.6836 10.3514 7.3867 8.9921 8.7227 C 6.7186 10.9024 5.7108 13.5977 5.7108 16.5742 C 5.7108 23.3008 10.8436 31.4570 17.5936 38.2070 Z"/></svg>