<svg xmlns="http://www.w3.org/2000/svg" width="56" height="56" viewBox="0 0 56 56"><path d="M 7.7148 49.5742 L 48.2852 49.5742 C 53.1836 49.5742 55.6446 47.1367 55.6446 42.3086 L 55.6446 13.6914 C 55.6446 8.8633 53.1836 6.4258 48.2852 6.4258 L 7.7148 6.4258 C 2.8398 6.4258 .3554 8.8398 .3554 13.6914 L .3554 42.3086 C .3554 47.1602 2.8398 49.5742 7.7148 49.5742 Z M 27.9648 40.2461 C 26.5819 40.2461 25.8319 39.2383 25.8319 37.7852 L 25.8319 30.3789 L 18.0741 30.3789 C 16.6444 30.3789 15.6132 29.6055 15.6132 28.2696 C 15.6132 26.8398 16.5976 26.0664 18.0741 26.0664 L 25.8319 26.0664 L 25.8319 18.1680 C 25.8319 16.6914 26.5819 15.7071 27.9648 15.7071 C 29.3476 15.7071 30.1444 16.6445 30.1444 18.1680 L 30.1444 26.0664 L 37.9257 26.0664 C 39.4257 26.0664 40.3632 26.8398 40.3632 28.2696 C 40.3632 29.6055 39.3554 30.3789 37.9257 30.3789 L 30.1444 30.3789 L 30.1444 37.7852 C 30.1444 39.2852 29.3476 40.2461 27.9648 40.2461 Z"/></svg>