<svg xmlns="http://www.w3.org/2000/svg" width="56" height="56" viewBox="0 0 56 56"><path d="M 27.9999 51.9063 C 41.0546 51.9063 51.9063 41.0781 51.9063 28 C 51.9063 14.9453 41.0312 4.0937 27.9765 4.0937 C 14.8983 4.0937 4.0937 14.9453 4.0937 28 C 4.0937 41.0781 14.9218 51.9063 27.9999 51.9063 Z M 27.9296 39.6719 C 26.6171 39.6719 25.9140 38.7109 25.9140 37.3516 L 25.9140 30.0625 L 18.2265 30.0625 C 16.8436 30.0625 15.8827 29.3359 15.8827 28.0469 C 15.8827 26.7109 16.7733 25.9609 18.2265 25.9609 L 25.9140 25.9609 L 25.9140 18.2031 C 25.9140 16.8437 26.6171 15.8828 27.9296 15.8828 C 29.2421 15.8828 30.0390 16.7968 30.0390 18.2031 L 30.0390 25.9609 L 37.7499 25.9609 C 39.1796 25.9609 40.0702 26.7109 40.0702 28.0469 C 40.0702 29.3359 39.1327 30.0625 37.7499 30.0625 L 30.0390 30.0625 L 30.0390 37.3516 C 30.0390 38.7578 29.2421 39.6719 27.9296 39.6719 Z"/></svg>