<svg xmlns="http://www.w3.org/2000/svg" width="56" height="56" viewBox="0 0 56 56"><path d="M 34.4219 26.0664 L 49.5860 26.0664 C 52.5625 26.0664 54.0625 24.5664 54.0625 21.4727 L 54.0625 10.9961 C 54.0625 7.9023 52.5625 6.4258 49.5860 6.4258 L 34.4219 6.4258 C 31.4453 6.4258 29.9453 7.9023 29.9453 10.9961 L 29.9453 21.4727 C 29.9453 24.5664 31.4453 26.0664 34.4219 26.0664 Z M 6.4140 26.0664 L 21.5781 26.0664 C 24.5547 26.0664 26.0547 24.5664 26.0547 21.4727 L 26.0547 10.9961 C 26.0547 7.9023 24.5547 6.4258 21.5781 6.4258 L 6.4140 6.4258 C 3.4375 6.4258 1.9375 7.9023 1.9375 10.9961 L 1.9375 21.4727 C 1.9375 24.5664 3.4375 26.0664 6.4140 26.0664 Z M 6.4140 49.5742 L 21.5781 49.5742 C 24.5547 49.5742 26.0547 48.0977 26.0547 45.0039 L 26.0547 34.5039 C 26.0547 31.4336 24.5547 29.9336 21.5781 29.9336 L 6.4140 29.9336 C 3.4375 29.9336 1.9375 31.4336 1.9375 34.5039 L 1.9375 45.0039 C 1.9375 48.0977 3.4375 49.5742 6.4140 49.5742 Z M 34.4219 49.5742 L 49.5860 49.5742 C 52.5625 49.5742 54.0625 48.0977 54.0625 45.0039 L 54.0625 34.5039 C 54.0625 31.4336 52.5625 29.9336 49.5860 29.9336 L 34.4219 29.9336 C 31.4453 29.9336 29.9453 31.4336 29.9453 34.5039 L 29.9453 45.0039 C 29.9453 48.0977 31.4453 49.5742 34.4219 49.5742 Z"/></svg>