<svg xmlns="http://www.w3.org/2000/svg" width="56" height="56" viewBox="0 0 56 56"><path d="M 37.3280 14.5587 C 38.7343 15.6134 40.1874 15.1915 40.1874 13.3399 L 40.1874 10.1056 L 40.2578 10.1056 C 45.3437 10.1056 48.5545 13.6446 48.5545 18.6603 C 48.5545 21.7774 47.5936 22.9493 47.5235 23.7930 C 47.5000 24.4493 47.7342 24.8477 48.2732 25.1056 C 49.0000 25.4571 49.8438 25.1290 50.2422 24.4493 C 50.9689 23.2071 51.4844 21.1446 51.4844 18.6368 C 51.4844 11.9337 47.0080 7.4103 40.2812 7.4103 L 40.1874 7.4103 L 40.1874 3.9649 C 40.1874 2.0665 38.7578 1.6444 37.3280 2.7227 L 30.9296 7.4103 C 29.8515 8.2071 29.8515 9.1212 30.9296 9.8946 Z M 10.5390 54.3556 L 33.7656 54.3556 C 37.7734 54.3556 39.7890 52.4337 39.7890 48.3321 L 39.7890 25.1524 C 39.7890 21.0508 37.7734 19.1290 33.7656 19.1290 L 10.5390 19.1290 C 6.5312 19.1290 4.5156 21.0508 4.5156 25.1524 L 4.5156 48.3321 C 4.5156 52.4337 6.5312 54.3556 10.5390 54.3556 Z"/></svg>