<svg xmlns="http://www.w3.org/2000/svg" width="56" height="56" viewBox="0 0 56 56"><path d="M 27.9999 51.9063 C 41.0546 51.9063 51.9063 41.0781 51.9063 28 C 51.9063 14.9453 41.0312 4.0937 27.9765 4.0937 C 14.8983 4.0937 4.0937 14.9453 4.0937 28 C 4.0937 41.0781 14.9218 51.9063 27.9999 51.9063 Z M 27.9999 47.9219 C 16.9374 47.9219 8.1014 39.0625 8.1014 28 C 8.1014 16.9609 16.9140 8.0781 27.9765 8.0781 C 39.0155 8.0781 47.8983 16.9609 47.9219 28 C 47.9454 39.0625 39.0390 47.9219 27.9999 47.9219 Z M 21.1796 25.8672 C 22.5624 25.8672 23.7109 24.6484 23.7109 22.9375 C 23.7109 21.2266 22.5624 20.0078 21.1796 20.0078 C 19.8202 20.0078 18.6952 21.2266 18.6952 22.9375 C 18.6952 24.6484 19.8202 25.8672 21.1796 25.8672 Z M 34.8905 25.8672 C 36.2733 25.8672 37.4218 24.6484 37.4218 22.9375 C 37.4218 21.2266 36.2733 20.0078 34.8905 20.0078 C 33.5077 20.0078 32.3827 21.2266 32.3827 22.9375 C 32.3827 24.6484 33.5077 25.8672 34.8905 25.8672 Z M 27.9999 39.2968 C 33.6483 39.2968 37.1874 35.2890 37.1874 33.7656 C 37.1874 33.4609 36.9530 33.3203 36.7187 33.5078 C 35.0077 34.9375 32.1249 36.3437 27.9999 36.3437 C 23.8514 36.3437 20.8983 34.8437 19.2577 33.5312 C 19.0234 33.3203 18.7890 33.4609 18.7890 33.7656 C 18.7890 35.2890 22.3280 39.2968 27.9999 39.2968 Z"/></svg>