<svg xmlns="http://www.w3.org/2000/svg" width="56" height="56" viewBox="0 0 56 56"><path d="M 43.2646 27.6955 L 52.2405 27.6955 C 54.7402 27.6955 56.0000 26.4357 56.0000 23.8375 L 56.0000 15.0389 C 56.0000 12.4406 54.7402 11.2005 52.2405 11.2005 L 43.2646 11.2005 C 40.7648 11.2005 39.5051 12.4406 39.5051 15.0389 L 39.5051 23.8375 C 39.5051 26.4357 40.7648 27.6955 43.2646 27.6955 Z M 3.7596 27.6955 L 12.7353 27.6955 C 15.2351 27.6955 16.4949 26.4357 16.4949 23.8375 L 16.4949 15.0389 C 16.4949 12.4406 15.2351 11.2005 12.7353 11.2005 L 3.7596 11.2005 C 1.2598 11.2005 0 12.4406 0 15.0389 L 0 23.8375 C 0 26.4357 1.2598 27.6955 3.7596 27.6955 Z M 23.5220 27.6955 L 32.4781 27.6955 C 34.9976 27.6955 36.2378 26.4357 36.2378 23.8375 L 36.2378 15.0389 C 36.2378 12.4406 34.9976 11.2005 32.4781 11.2005 L 23.5220 11.2005 C 21.0222 11.2005 19.7624 12.4406 19.7624 15.0389 L 19.7624 23.8375 C 19.7624 26.4357 21.0222 27.6955 23.5220 27.6955 Z M 3.7989 24.9201 C 3.1100 24.9201 2.7754 24.5658 2.7754 23.8375 L 2.7754 15.0389 C 2.7754 14.3302 3.1100 13.9759 3.7989 13.9759 L 12.6763 13.9759 C 13.3652 13.9759 13.7195 14.3302 13.7195 15.0389 L 13.7195 23.8375 C 13.7195 24.5658 13.3652 24.9201 12.6763 24.9201 Z M 23.5613 24.9201 C 22.8725 24.9201 22.5378 24.5658 22.5378 23.8375 L 22.5378 15.0389 C 22.5378 14.3302 22.8725 13.9759 23.5613 13.9759 L 32.4584 13.9759 C 33.1276 13.9759 33.4623 14.3302 33.4623 15.0389 L 33.4623 23.8375 C 33.4623 24.5658 33.1276 24.9201 32.4584 24.9201 Z M 43.3041 24.9201 C 42.6151 24.9201 42.2806 24.5658 42.2806 23.8375 L 42.2806 15.0389 C 42.2806 14.3302 42.6151 13.9759 43.3041 13.9759 L 52.1816 13.9759 C 52.8899 13.9759 53.2245 14.3302 53.2245 15.0389 L 53.2245 23.8375 C 53.2245 24.5658 52.8899 24.9201 52.1816 24.9201 Z M 3.7596 47.4382 L 12.7353 47.4382 C 15.2351 47.4382 16.4949 46.1981 16.4949 43.5999 L 16.4949 34.7816 C 16.4949 32.2031 15.2351 30.9433 12.7353 30.9433 L 3.7596 30.9433 C 1.2598 30.9433 0 32.2031 0 34.7816 L 0 43.5999 C 0 46.1981 1.2598 47.4382 3.7596 47.4382 Z M 23.5220 47.4382 L 32.4781 47.4382 C 34.9976 47.4382 36.2378 46.1981 36.2378 43.5999 L 36.2378 34.7816 C 36.2378 32.2031 34.9976 30.9433 32.4781 30.9433 L 23.5220 30.9433 C 21.0222 30.9433 19.7624 32.2031 19.7624 34.7816 L 19.7624 43.5999 C 19.7624 46.1981 21.0222 47.4382 23.5220 47.4382 Z M 43.2646 47.4382 L 52.2405 47.4382 C 54.7402 47.4382 56.0000 46.1981 56.0000 43.5999 L 56.0000 34.7816 C 56.0000 32.2031 54.7402 30.9433 52.2405 30.9433 L 43.2646 30.9433 C 40.7648 30.9433 39.5051 32.2031 39.5051 34.7816 L 39.5051 43.5999 C 39.5051 46.1981 40.7648 47.4382 43.2646 47.4382 Z M 3.7989 44.6628 C 3.1100 44.6628 2.7754 44.3085 2.7754 43.5999 L 2.7754 34.8013 C 2.7754 34.0730 3.1100 33.7187 3.7989 33.7187 L 12.6763 33.7187 C 13.3652 33.7187 13.7195 34.0730 13.7195 34.8013 L 13.7195 43.5999 C 13.7195 44.3085 13.3652 44.6628 12.6763 44.6628 Z M 23.5613 44.6628 C 22.8725 44.6628 22.5378 44.3085 22.5378 43.5999 L 22.5378 34.8013 C 22.5378 34.0730 22.8725 33.7187 23.5613 33.7187 L 32.4584 33.7187 C 33.1276 33.7187 33.4623 34.0730 33.4623 34.8013 L 33.4623 43.5999 C 33.4623 44.3085 33.1276 44.6628 32.4584 44.6628 Z M 43.3041 44.6628 C 42.6151 44.6628 42.2806 44.3085 42.2806 43.5999 L 42.2806 34.8013 C 42.2806 34.0730 42.6151 33.7187 43.3041 33.7187 L 52.1816 33.7187 C 52.8899 33.7187 53.2245 34.0730 53.2245 34.8013 L 53.2245 43.5999 C 53.2245 44.3085 52.8899 44.6628 52.1816 44.6628 Z"/></svg>