<svg xmlns="http://www.w3.org/2000/svg" width="56" height="56" viewBox="0 0 56 56"><path d="M 22.5155 54.6602 L 47.5470 54.6602 C 52.4454 54.6602 54.9063 52.2227 54.9063 47.3945 L 54.9063 22.4805 C 54.9063 17.6758 52.4454 15.2383 47.5470 15.2383 L 38.9452 15.2383 C 36.6014 7.2461 29.1483 1.3398 20.4062 1.3398 C 9.8124 1.3398 1.0937 10.0586 1.0937 20.6524 C 1.0937 29.4180 7.0702 36.8945 15.1562 39.2149 L 15.1562 47.3945 C 15.1562 52.2227 17.6171 54.6602 22.5155 54.6602 Z M 4.9609 20.6524 C 4.9609 12.0039 11.6874 5.0195 20.4062 5.0195 C 27.2030 5.0195 32.8046 9.2851 34.9374 15.2383 L 22.5155 15.2383 C 17.6171 15.2383 15.1562 17.6524 15.1562 22.4805 L 15.1562 35.3476 C 9.1327 33.2149 4.9609 27.4492 4.9609 20.6524 Z M 22.5858 50.8867 C 20.2421 50.8867 18.9296 49.6211 18.9296 47.1836 L 18.9296 22.6914 C 18.9296 20.2539 20.2421 19.0117 22.5858 19.0117 L 47.4999 19.0117 C 49.7967 19.0117 51.1326 20.2539 51.1326 22.6914 L 51.1326 47.2070 C 51.1326 49.6211 49.7967 50.8867 47.4999 50.8867 Z"/></svg>