<svg xmlns="http://www.w3.org/2000/svg" width="56" height="56" viewBox="0 0 56 56"><path d="M 11.9688 52.2930 C 12.9298 53.0195 14.1485 52.7617 15.6016 51.7071 L 28.0001 42.6133 L 40.4220 51.7071 C 41.8751 52.7617 43.0704 53.0195 44.0548 52.2930 C 45.0157 51.5664 45.2267 50.3711 44.6407 48.6602 L 39.7422 34.0820 L 52.2578 25.0820 C 53.7112 24.0508 54.2968 22.9727 53.9219 21.8008 C 53.5470 20.6758 52.4454 20.1133 50.6406 20.1367 L 35.2891 20.2305 L 30.6251 5.5820 C 30.0626 3.8476 29.2188 2.9805 28.0001 2.9805 C 26.8048 2.9805 25.9610 3.8476 25.3985 5.5820 L 20.7344 20.2305 L 5.3829 20.1367 C 3.5782 20.1133 2.4766 20.6758 2.1016 21.8008 C 1.7032 22.9727 2.3126 24.0508 3.7657 25.0820 L 16.2813 34.0820 L 11.3829 48.6602 C 10.7969 50.3711 11.0079 51.5664 11.9688 52.2930 Z M 28.0001 38.5820 L 28.0001 8.6758 C 28.0704 8.6758 28.1173 8.7227 28.1407 8.8633 L 32.2188 22.4336 C 32.5001 23.3945 33.1329 23.7930 34.0938 23.7695 L 48.2733 23.5117 C 48.4139 23.5117 48.4610 23.5117 48.4845 23.5820 C 48.508 23.6524 48.4610 23.6992 48.3674 23.7695 L 36.6954 31.8320 C 35.8751 32.3945 35.6876 33.1211 36.0157 34.0352 L 40.6798 47.4414 C 40.7032 47.5820 40.7266 47.6055 40.6798 47.6524 C 40.6329 47.7227 40.5626 47.6758 40.4688 47.6055 L 29.1954 39.0039 C 28.8204 38.7227 28.4220 38.5586 28.0001 38.5820 Z"/></svg>