<svg xmlns="http://www.w3.org/2000/svg" width="56" height="56" viewBox="0 0 56 56"><path d="M 16.0938 52.3164 C 17.0313 52.3164 17.6876 51.8476 18.7891 50.8164 L 27.2735 43.0820 L 43.0938 43.1055 C 50.0783 43.1289 53.8280 39.2383 53.8280 32.3711 L 53.8280 14.4180 C 53.8280 7.5508 50.0783 3.6836 43.0938 3.6836 L 12.9064 3.6836 C 5.9454 3.6836 2.1720 7.5273 2.1720 14.4180 L 2.1720 32.3711 C 2.1720 39.2617 5.9454 43.1055 12.9064 43.0820 L 14.0079 43.0820 L 14.0079 49.9024 C 14.0079 51.3555 14.7813 52.3164 16.0938 52.3164 Z M 27.9532 34.1524 C 26.7579 34.1524 26.1016 33.2851 26.1016 32.0429 L 26.1016 16.8320 L 20.3360 16.8320 C 19.4454 16.8320 18.7891 16.2461 18.7891 15.3086 C 18.7891 14.3476 19.4454 13.7617 20.3360 13.7617 L 35.6876 13.7617 C 36.5782 13.7617 37.2344 14.3476 37.2344 15.3086 C 37.2344 16.2461 36.5782 16.8320 35.6876 16.8320 L 29.8516 16.8320 L 29.8516 32.0429 C 29.8516 33.3320 29.1954 34.1524 27.9532 34.1524 Z"/></svg>