<svg xmlns="http://www.w3.org/2000/svg" width="56" height="56" viewBox="0 0 56 56"><path d="M 6.1679 11.3594 L 49.8085 11.3594 C 50.8165 11.3594 51.6133 10.5859 51.6133 9.5781 C 51.6133 8.5937 50.8165 7.8203 49.8085 7.8203 L 6.1679 7.8203 C 5.1601 7.8203 4.3867 8.5937 4.3867 9.5781 C 4.3867 10.5859 5.1601 11.3594 6.1679 11.3594 Z M 14.8164 23.6406 L 41.1601 23.6406 C 42.1679 23.6406 42.9648 22.8672 42.9648 21.8594 C 42.9648 20.8750 42.1679 20.1015 41.1601 20.1015 L 14.8164 20.1015 C 13.8320 20.1015 13.0351 20.8750 13.0351 21.8594 C 13.0351 22.8672 13.8320 23.6406 14.8164 23.6406 Z M 6.1679 35.9219 L 49.8085 35.9219 C 50.8165 35.9219 51.6133 35.1250 51.6133 34.1406 C 51.6133 33.1563 50.8165 32.3828 49.8085 32.3828 L 6.1679 32.3828 C 5.1601 32.3828 4.3867 33.1563 4.3867 34.1406 C 4.3867 35.1250 5.1601 35.9219 6.1679 35.9219 Z M 14.8164 48.1797 L 41.1601 48.1797 C 42.1679 48.1797 42.9648 47.4063 42.9648 46.4219 C 42.9648 45.4375 42.1679 44.6406 41.1601 44.6406 L 14.8164 44.6406 C 13.8320 44.6406 13.0351 45.4375 13.0351 46.4219 C 13.0351 47.4063 13.8320 48.1797 14.8164 48.1797 Z"/></svg>