<svg xmlns="http://www.w3.org/2000/svg" width="56" height="56" viewBox="0 0 56 56"><path d="M 20.9389 41.0269 C 21.8069 41.0269 22.4398 40.4302 22.4398 39.5080 L 22.4398 36.9042 L 22.5121 36.9042 C 23.6693 39.4537 26.0381 41.0450 29.0397 41.0450 C 33.9760 41.0450 37.2126 37.1212 37.2126 31.0637 C 37.2126 25.0062 33.9578 21.0824 29.0759 21.0824 C 26.1285 21.0824 23.7417 22.6917 22.6206 25.2051 L 22.5302 25.2051 L 22.5302 15.9652 C 22.5302 14.9888 21.9154 14.3559 21.0113 14.3559 C 20.1072 14.3559 19.4924 14.9888 19.4924 15.9652 L 19.4924 39.5080 C 19.4924 40.4482 20.0710 41.0269 20.9389 41.0269 Z M 48.2066 41.0450 C 51.7687 41.0450 54.8065 39.0921 55.8371 36.3255 C 55.9456 36.0182 56.0000 35.7288 56.0000 35.4757 C 56.0000 34.6982 55.4575 34.1557 54.6980 34.1557 C 54.0110 34.1557 53.6492 34.4269 53.2515 35.2225 C 52.2931 37.2839 50.6659 38.4050 48.2248 38.4050 C 44.6986 38.4050 42.3841 35.6023 42.3841 31.0818 C 42.3841 26.5974 44.6986 23.7224 48.2248 23.7224 C 50.5574 23.7224 52.2390 24.8254 53.2152 26.9410 C 53.5951 27.7004 53.9566 27.9716 54.6257 27.9716 C 55.4034 27.9716 55.9456 27.4654 55.9456 26.6698 C 55.9456 26.4528 55.8915 26.1816 55.8193 25.9465 C 54.9150 23.1799 51.8232 21.0824 48.1522 21.0824 C 42.7640 21.0824 39.2560 25.0424 39.2560 31.0998 C 39.2560 37.1935 42.8000 41.0450 48.2066 41.0450 Z M 6.4553 41.0269 C 9.2037 41.0269 11.8075 39.5261 12.8924 37.2116 L 12.9467 37.2116 L 12.9467 39.5622 C 12.9829 40.4482 13.5796 41.0450 14.4294 41.0450 C 15.2974 41.0450 15.8941 40.4482 15.8941 39.4899 L 15.8941 27.5196 C 15.8941 23.6139 13.0371 21.1005 8.4805 21.1005 C 5.0991 21.1005 2.2964 22.5832 1.2476 24.8796 C 1.0487 25.3317 .9222 25.7657 .9222 26.1454 C .9222 26.9410 1.5008 27.4473 2.2964 27.4473 C 2.8569 27.4473 3.2728 27.2484 3.5621 26.7421 C 4.5386 24.6627 6.0755 23.7043 8.4081 23.7043 C 11.1928 23.7043 12.8382 25.2594 12.8382 27.7727 L 12.8382 29.2917 L 7.0701 29.6171 C 2.5315 29.9245 0 31.9678 0 35.2949 C 0 38.7485 2.6400 41.0269 6.4553 41.0269 Z M 28.3526 38.4050 C 24.9532 38.4050 22.5302 35.4938 22.5302 31.0818 C 22.5302 26.6517 24.9532 23.7405 28.3526 23.7405 C 31.8605 23.7405 34.0664 26.5794 34.0664 31.0637 C 34.0664 35.5842 31.8605 38.4050 28.3526 38.4050 Z M 7.1785 38.5135 C 4.7556 38.5135 3.1282 37.1935 3.1282 35.2406 C 3.1282 33.3420 4.6471 32.0944 7.4498 31.8954 L 12.8382 31.5519 L 12.8382 33.4324 C 12.8382 36.2894 10.3248 38.5135 7.1785 38.5135 Z"/></svg>