<svg xmlns="http://www.w3.org/2000/svg" width="56" height="56" viewBox="0 0 56 56"><path d="M 20.6063 37.8000 C 21.4605 37.8000 22.0833 37.2127 22.0833 36.3052 L 22.0833 33.7427 L 22.1545 33.7427 C 23.2933 36.2518 25.6245 37.8178 28.5784 37.8178 C 33.4363 37.8178 36.6214 33.9563 36.6214 27.9951 C 36.6214 22.0338 33.4184 18.1723 28.6140 18.1723 C 25.7134 18.1723 23.3645 19.7561 22.2613 22.2295 L 22.1723 22.2295 L 22.1723 13.1364 C 22.1723 12.1755 21.5673 11.5527 20.6775 11.5527 C 19.7877 11.5527 19.1827 12.1755 19.1827 13.1364 L 19.1827 36.3052 C 19.1827 37.2305 19.7522 37.8000 20.6063 37.8000 Z M 47.4408 37.8178 C 50.9464 37.8178 53.9358 35.8959 54.9501 33.1733 C 55.0568 32.8708 55.1104 32.5861 55.1104 32.3370 C 55.1104 31.5718 54.5765 31.0380 53.8291 31.0380 C 53.1530 31.0380 52.7970 31.3049 52.4056 32.0878 C 51.4624 34.1165 49.8611 35.2197 47.4587 35.2197 C 43.9885 35.2197 41.7108 32.4615 41.7108 28.0129 C 41.7108 23.5997 43.9885 20.7704 47.4587 20.7704 C 49.7543 20.7704 51.4092 21.8558 52.3698 23.9378 C 52.7438 24.6852 53.0994 24.9521 53.7580 24.9521 C 54.5233 24.9521 55.0568 24.4539 55.0568 23.6709 C 55.0568 23.4574 55.0036 23.1905 54.9326 22.9591 C 54.0426 20.2365 50.9999 18.1723 47.3873 18.1723 C 42.0847 18.1723 38.6324 22.0694 38.6324 28.0306 C 38.6324 34.0275 42.1201 37.8178 47.4408 37.8178 Z M 6.3527 37.8000 C 9.0575 37.8000 11.6200 36.3230 12.6876 34.0453 L 12.7410 34.0453 L 12.7410 36.3586 C 12.7766 37.2305 13.3639 37.8178 14.2002 37.8178 C 15.0544 37.8178 15.6416 37.2305 15.6416 36.2874 L 15.6416 24.5073 C 15.6416 20.6636 12.8300 18.1902 8.3457 18.1902 C 5.0181 18.1902 2.2599 19.6493 1.2278 21.9092 C 1.0321 22.3541 .9075 22.7812 .9075 23.1549 C .9075 23.9378 1.4770 24.4361 2.2599 24.4361 C 2.8116 24.4361 3.2209 24.2404 3.5056 23.7421 C 4.4665 21.6957 5.9790 20.7526 8.2745 20.7526 C 11.0150 20.7526 12.6343 22.2829 12.6343 24.7564 L 12.6343 26.2512 L 6.9578 26.5715 C 2.4913 26.8740 0 28.8848 0 32.1590 C 0 35.5578 2.5980 37.8000 6.3527 37.8000 Z M 27.9022 35.2197 C 24.5568 35.2197 22.1723 32.3548 22.1723 28.0129 C 22.1723 23.6531 24.5568 20.7882 27.9022 20.7882 C 31.3543 20.7882 33.5252 23.5820 33.5252 27.9951 C 33.5252 32.4437 31.3543 35.2197 27.9022 35.2197 Z M 7.0645 35.3265 C 4.6800 35.3265 3.0785 34.0275 3.0785 32.1056 C 3.0785 30.2372 4.5732 29.0094 7.3314 28.8136 L 12.6343 28.4755 L 12.6343 30.3262 C 12.6343 33.1377 10.1608 35.3265 7.0645 35.3265 Z M 45.3945 48.9929 C 46.5687 48.9929 47.5298 48.0319 47.5298 46.8575 C 47.5298 45.6830 46.5687 44.7221 45.3945 44.7221 C 44.2199 44.7221 43.2589 45.6830 43.2589 46.8575 C 43.2589 48.0319 44.2199 48.9929 45.3945 48.9929 Z M 53.8648 48.9929 C 55.0393 48.9929 56 48.0319 56 46.8575 C 56 45.6830 55.0393 44.7221 53.8648 44.7221 C 52.6902 44.7221 51.7295 45.6830 51.7295 46.8575 C 51.7295 48.0319 52.6902 48.9929 53.8648 48.9929 Z M 36.9243 48.9929 C 38.1164 48.9929 39.0595 48.0319 39.0595 46.8575 C 39.0595 45.6830 38.1164 44.7221 36.9243 44.7221 C 35.7497 44.7221 34.7887 45.6830 34.7887 46.8575 C 34.7887 48.0319 35.7497 48.9929 36.9243 48.9929 Z M 28.4538 48.9929 C 29.6461 48.9929 30.5892 48.0319 30.5892 46.8575 C 30.5892 45.6830 29.6461 44.7221 28.4538 44.7221 C 27.2794 44.7221 26.3185 45.6830 26.3185 46.8575 C 26.3185 48.0319 27.2794 48.9929 28.4538 48.9929 Z M 19.9835 48.9929 C 21.1757 48.9929 22.1189 48.0319 22.1189 46.8575 C 22.1189 45.6830 21.1757 44.7221 19.9835 44.7221 C 18.8091 44.7221 17.8481 45.6830 17.8481 46.8575 C 17.8481 48.0319 18.8091 48.9929 19.9835 48.9929 Z M 11.5132 48.9929 C 12.7055 48.9929 13.6664 48.0319 13.6664 46.8575 C 13.6664 45.6830 12.7055 44.7221 11.5132 44.7221 C 10.3387 44.7221 9.3778 45.6830 9.3778 46.8575 C 9.3778 48.0319 10.3387 48.9929 11.5132 48.9929 Z M 3.0251 48.9929 C 4.2173 48.9929 5.1605 48.0319 5.1605 46.8575 C 5.1605 45.6830 4.2173 44.7221 3.0251 44.7221 C 1.8506 44.7221 .8897 45.6830 .8897 46.8575 C .8897 48.0319 1.8506 48.9929 3.0251 48.9929 Z"/></svg>