<svg xmlns="http://www.w3.org/2000/svg" width="56" height="56" viewBox="0 0 56 56"><path d="M 27.9999 51.9063 C 41.0546 51.9063 51.9063 41.0781 51.9063 28 C 51.9063 14.9453 41.0780 4.0937 28.0234 4.0937 C 26.7812 4.0937 26.1718 4.8437 26.1718 6.0625 L 26.1718 15.1563 C 26.1718 16.1641 26.8514 16.9844 27.8827 16.9844 C 28.9140 16.9844 29.6171 16.1641 29.6171 15.1563 L 29.6171 8.1484 C 39.9296 8.9688 47.8983 17.5 47.8983 28 C 47.8983 39.0625 39.0390 47.9219 27.9999 47.9219 C 16.9374 47.9219 8.0546 39.0625 8.0780 28 C 8.1014 23.0781 9.8593 18.6016 12.7890 15.1563 C 13.5155 14.2422 13.5624 13.1406 12.7890 12.3203 C 12.0155 11.4766 10.7030 11.5469 9.8593 12.6016 C 6.2733 16.7734 4.0937 22.1641 4.0937 28 C 4.0937 41.0781 14.9218 51.9063 27.9999 51.9063 Z M 31.7499 31.6094 C 33.6014 29.6875 33.2265 27.0625 30.9999 25.5156 L 18.6014 16.8672 C 17.4296 16.0469 16.2109 17.2656 17.0312 18.4375 L 25.6796 30.8359 C 27.2265 33.0625 29.8514 33.4609 31.7499 31.6094 Z"/></svg>