<svg xmlns="http://www.w3.org/2000/svg" width="56" height="56" viewBox="0 0 56 56"><path d="M 27.6368 23.5821 C 41.9805 23.5821 50.2304 19.9492 50.2304 15.0039 C 50.2304 10.4570 43.6914 7.6680 34.2930 7.6680 C 27.2618 7.6680 21.8008 9.0274 17.6524 10.9961 C 16.5039 11.5352 16.2696 12.6367 16.6680 13.4336 C 17.1368 14.3242 18.2852 14.5586 19.2461 14.1836 C 22.9727 12.5899 27.7305 11.0664 34.0821 11.0664 C 41.9805 11.0664 46.5743 12.9414 46.5743 14.9805 C 46.5743 17.3711 39.4258 20.0664 27.4727 20.0664 C 15.7071 20.0664 9.4258 17.7461 9.4258 13.3164 C 9.4258 10.7383 11.8165 7.9726 18.6133 5.7930 C 19.7383 5.4180 20.2305 4.5039 19.9024 3.5430 C 19.5743 2.5821 18.7305 2.2070 17.4180 2.6055 C 9.5665 4.9492 5.7696 9.0742 5.7696 13.4102 C 5.7696 20.0664 13.2930 23.5821 27.6368 23.5821 Z M 28.3399 31.3164 C 35.6758 31.3164 42.4258 30.1211 47.1836 28.1523 C 48.0977 27.7774 48.5430 26.8633 48.0977 26.0430 C 47.6758 25.2226 46.8321 25.0821 45.7774 25.4805 C 41.4180 27.1445 35.1368 28.2695 28.3399 28.2695 C 23.3008 28.2695 17.5586 27.6602 13.0586 26.3242 C 12.0039 26.0195 11.1368 26.3477 10.8790 27.2383 C 10.5977 28.1055 11.0430 28.9492 12.1446 29.2539 C 16.9727 30.6133 23.0665 31.3164 28.3399 31.3164 Z M 29.9336 38.9570 C 36.0508 38.9102 41.8399 38.0195 47.0899 36.2383 C 48.3555 35.7930 48.5196 34.8086 48.2383 34.0821 C 47.9102 33.2617 47.0665 33.0274 45.8712 33.4023 C 40.6680 35.0899 35.4883 35.9102 29.9336 35.9102 C 27.5665 35.9102 25.1055 35.7226 23.1602 35.4648 C 22.0352 35.3242 21.3321 35.7695 21.1914 36.6133 C 21.0274 37.4570 21.4727 38.2539 22.6914 38.4648 C 24.4961 38.7930 27.0039 38.9805 29.9336 38.9570 Z M 27.8008 46.1523 C 32.0665 46.6445 37.1993 46.5508 41.6055 45.3320 C 42.6602 45.0508 43.0586 44.1133 42.8008 43.2930 C 42.5196 42.4258 41.6993 42.0977 40.5743 42.3789 C 36.7774 43.3633 32.3946 43.6914 28.3165 43.1758 C 27.1914 43.0586 26.3946 43.5742 26.3008 44.4414 C 26.1836 45.3086 26.6290 46.0352 27.8008 46.1523 Z M 26.1836 53.6055 C 27.6836 53.7930 29.3946 53.7695 30.9414 53.5821 C 31.9961 53.4414 32.5118 52.7617 32.4180 51.8945 C 32.3477 51.1211 31.7149 50.5586 30.5899 50.6992 C 29.3008 50.8633 27.7774 50.8867 26.4649 50.7226 C 25.3868 50.5821 24.7539 51.1445 24.6368 51.8945 C 24.5430 52.6914 25.0352 53.4648 26.1836 53.6055 Z"/></svg>