<svg xmlns="http://www.w3.org/2000/svg" width="56" height="56" viewBox="0 0 56 56"><path d="M 23.9570 41.7695 C 27.8476 41.7695 31.4804 40.5039 34.4336 38.3945 L 45.5429 49.5039 C 46.0585 50.0195 46.7382 50.2774 47.4414 50.2774 C 48.9648 50.2774 50.0664 49.1055 50.0664 47.6055 C 50.0664 46.9023 49.8322 46.2461 49.3162 45.7305 L 38.2773 34.6679 C 40.5976 31.6211 41.9804 27.8476 41.9804 23.7461 C 41.9804 13.8320 33.8710 5.7226 23.9570 5.7226 C 14.0195 5.7226 5.9336 13.8320 5.9336 23.7461 C 5.9336 33.6601 14.0195 41.7695 23.9570 41.7695 Z M 23.9570 37.8789 C 16.1992 37.8789 9.8242 31.4805 9.8242 23.7461 C 9.8242 16.0117 16.1992 9.6133 23.9570 9.6133 C 31.6914 9.6133 38.0898 16.0117 38.0898 23.7461 C 38.0898 31.4805 31.6914 37.8789 23.9570 37.8789 Z M 17.3007 25.5039 L 30.5898 25.5039 C 31.5507 25.5039 32.3710 24.6836 32.3710 23.7461 C 32.3710 22.8086 31.5507 21.9883 30.5898 21.9883 L 17.3007 21.9883 C 16.3398 21.9883 15.5429 22.8086 15.5429 23.7461 C 15.5429 24.6836 16.3398 25.5039 17.3007 25.5039 Z"/></svg>