<svg xmlns="http://www.w3.org/2000/svg" width="56" height="56" viewBox="0 0 56 56">
  <path fill-rule="evenodd" d="M5.55167353,16.5437398 L5.55167353,5.29201842 C3.45793615,6.89941523 2.04839393,7.70310158 1.3230046,7.70310158 C0.976796061,7.70310158 0.669746661,7.56503238 0.401847193,7.28888985 C0.133947725,7.01274733 0,6.69333352 0,6.33063886 C0,5.91024277 0.131886991,5.60113263 0.395664929,5.40329918 C0.659442866,5.20546573 1.1251688,4.94993468 1.79285671,4.63669838 C2.79026703,4.16684393 3.58777118,3.67226771 4.18539307,3.1529549 C4.78301496,2.63364208 5.31262366,2.05251503 5.77423505,1.40955631 C6.23584644,0.766597584 6.53671364,0.370936612 6.67684567,0.222561522 C6.8169777,0.0741864322 7.08075168,0 7.46817553,0 C7.90505774,0 8.25538255,0.168980207 8.51916049,0.50694569 C8.78293843,0.844911173 8.91482542,1.31063711 8.91482542,1.90413747 L8.91482542,16.0615232 C8.91482542,17.7183784 8.35018424,18.5467935 7.22088495,18.5467935 C6.71805825,18.5467935 6.31415434,18.3778133 6.0091611,18.0398478 C5.70416786,17.7018824 5.55167353,17.2031847 5.55167353,16.5437398 Z M17.9042123,15.3196515 L24.3584965,15.3196515 C25.0014552,15.3196515 25.4919099,15.4515384 25.8298754,15.7153164 C26.1678409,15.9790943 26.3368211,16.3376621 26.3368211,16.7910304 C26.3368211,17.1949404 26.2028734,17.5370223 25.9349739,17.8172863 C25.6670745,18.0975504 25.2611098,18.2376803 24.7170678,18.2376803 L15.6167745,18.2376803 C14.9985449,18.2376803 14.5163331,18.0666394 14.1701246,17.7245523 C13.823916,17.3824653 13.6508144,16.9806222 13.6508144,16.5190108 C13.6508144,16.2222606 13.762094,15.8286603 13.9846566,15.3381982 C14.2072193,14.8477361 14.4503859,14.4623788 14.7141638,14.1821148 C15.8104909,13.0445724 16.7996433,12.0698451 17.6816508,11.2579037 C18.5636583,10.4459622 19.194243,9.91223204 19.5734237,9.65669716 C20.2493547,9.17859965 20.8119352,8.69844857 21.261182,8.21622953 C21.7104288,7.73401049 22.0525106,7.23943427 22.2874379,6.73248605 C22.5223651,6.22553782 22.6398269,5.72890088 22.6398269,5.2425603 C22.6398269,4.71500443 22.5141222,4.24309629 22.2627088,3.82682173 C22.0112955,3.41054717 21.6692136,3.0870119 21.2364529,2.8562062 C20.8036922,2.62540051 20.3317841,2.50999939 19.8207143,2.50999939 C18.7408734,2.50999939 17.8918509,2.98396826 17.2736214,3.93192023 C17.1911907,4.05556614 17.0531216,4.39352655 16.8594096,4.94581161 C16.6656977,5.49809666 16.4472599,5.92260791 16.2040896,6.21935809 C15.9609193,6.51610828 15.6044123,6.66448114 15.1345578,6.66448114 C14.7224048,6.66448114 14.3803229,6.52847268 14.1083019,6.25645168 C13.8362809,5.98443068 13.7002725,5.61349852 13.7002725,5.14364407 C13.7002725,4.57487289 13.828038,3.98138143 14.0835729,3.36315189 C14.3391077,2.74492235 14.7203436,2.18440264 15.2272918,1.68157595 C15.73424,1.17874925 16.3771891,0.772784609 17.1561583,0.463669838 C17.9351275,0.154555067 18.8480328,0 19.8949015,0 C21.1560898,0 22.231793,0.197830486 23.1220436,0.593497393 C23.6990578,0.857275331 24.2059984,1.21996455 24.6428806,1.68157595 C25.0797629,2.14318734 25.419784,2.6769175 25.6629543,3.28278245 C25.9061246,3.8886474 26.0277079,4.51717134 26.0277079,5.16837313 C26.0277079,6.19051264 25.7742376,7.11990377 25.2672894,7.95657442 C24.7603411,8.79324507 24.2430968,9.44855855 23.715541,9.92253454 C23.1879851,10.3965105 22.3039301,11.1404356 21.0633495,12.154332 C19.8227689,13.1682285 18.9716856,13.9554289 18.5100743,14.5159571 C18.3122408,14.7385197 18.1102888,15.0064151 17.9042123,15.3196515 Z M33.0387702,7.29507212 C33.7971317,7.29507212 34.4503845,7.07251282 34.998548,6.62738755 C35.5467115,6.18226228 35.8207892,5.54343467 35.8207892,4.71088556 C35.8207892,4.07616989 35.6023514,3.53007532 35.1654692,3.07258546 C34.7285869,2.6150956 34.139217,2.3863541 33.3973415,2.3863541 C32.8945148,2.3863541 32.4803072,2.45641906 32.1547063,2.59655109 C31.8291054,2.73668312 31.5715137,2.9221492 31.3819233,3.1529549 C31.1923329,3.38376059 31.013049,3.68050632 30.8440663,4.04320099 C30.6750835,4.40589565 30.5205285,4.74797753 30.3803964,5.0694569 C30.2979658,5.24256117 30.149593,5.37856963 29.9352734,5.47748635 C29.7209538,5.57640308 29.4736657,5.6258607 29.1934016,5.6258607 C28.8636792,5.6258607 28.5607513,5.49191298 28.2846088,5.22401351 C28.0084662,4.95611404 27.870397,4.59960702 27.870397,4.15448175 C27.870397,3.7258426 28.0002233,3.2745418 28.2598797,2.80056582 C28.5195361,2.32658984 28.8987112,1.87528904 29.3974164,1.44664989 C29.8961215,1.01801075 30.5164025,0.67386813 31.258278,0.414211722 C32.0001534,0.154555314 32.8285686,0.024729058 33.7435483,0.024729058 C34.5431252,0.024729058 35.2726251,0.133947972 35.93207,0.352389077 C36.5915148,0.570830182 37.1643989,0.886122519 37.6507395,1.29827555 C38.1370801,1.71042857 38.5038908,2.18851892 38.7511826,2.73256091 C38.9984744,3.27660291 39.1221184,3.86185143 39.1221184,4.48832403 C39.1221184,5.31263009 38.9428346,6.01946193 38.5842614,6.60884076 C38.2256883,7.19821959 37.7125655,7.77316444 37.0448776,8.33369256 C37.6878363,8.6799011 38.2298094,9.07556207 38.6708131,9.52068734 C39.1118169,9.96581261 39.4435951,10.4583281 39.6661577,10.9982486 C39.8887204,11.538169 40,12.1213568 40,12.7478294 C40,13.4979479 39.8495664,14.2233264 39.5486947,14.9239865 C39.247823,15.6246467 38.8047651,16.2490491 38.2195078,16.7972127 C37.6342505,17.3453762 36.9397831,17.7740089 36.1360847,18.0831237 C35.3323863,18.3922385 34.4442098,18.5467935 33.4715287,18.5467935 C32.4823614,18.5467935 31.5962457,18.3695704 30.8131549,18.0151188 C30.0300642,17.6606672 29.3850544,17.2176093 28.8781062,16.6859319 C28.3711579,16.1542545 27.9878614,15.6040385 27.728205,15.0352673 C27.4685485,14.4664961 27.3387223,13.9966487 27.3387223,13.625711 C27.3387223,13.1476135 27.4932774,12.7622562 27.8023921,12.4696275 C28.1115069,12.1769989 28.4968642,12.0306867 28.9584756,12.0306867 C29.1892813,12.0306867 29.4118406,12.098691 29.6261602,12.2347015 C29.8404797,12.370712 29.9806097,12.53351 30.0465541,12.7231004 C30.4751933,13.8688858 30.934737,14.719969 31.4251991,15.2763756 C31.9156612,15.8327822 32.6060072,16.1109813 33.4962577,16.1109813 C34.0073275,16.1109813 34.499843,15.9852765 34.973819,15.7338632 C35.4477949,15.4824498 35.8393344,15.1094569 36.1484492,14.6148733 C36.457564,14.1202897 36.612119,13.5474055 36.612119,12.8962038 C36.612119,11.9317657 36.3483451,11.1754762 35.8207892,10.6273127 C35.2932333,10.0791492 34.5596119,9.80507151 33.619903,9.80507151 C33.4550418,9.80507151 33.1995108,9.82155738 32.8533022,9.85452963 C32.5070937,9.88750187 32.2845344,9.90398774 32.1856177,9.90398774 C31.7322493,9.90398774 31.3819245,9.79064736 31.1346327,9.56396319 C30.8873409,9.33727903 30.7636968,9.02198669 30.7636968,8.61807672 C30.7636968,8.22240982 30.9120697,7.90299601 31.2088199,7.65982573 C31.50557,7.41665544 31.9465672,7.29507212 32.5318245,7.29507212 L33.0387702,7.29507212 Z" transform="translate(8 19)"/>
</svg>
