<svg xmlns="http://www.w3.org/2000/svg" width="56" height="56" viewBox="0 0 56 56">
  <path d="M4,6 L4,44 C4,45.1045695 4.8954305,46 6,46 L44,46 C45.1045695,46 46,45.1045695 46,44 L46,6 C46,4.8954305 45.1045695,4 44,4 L6,4 C4.8954305,4 4,4.8954305 4,6 Z M4,0 L46,0 C48.209139,-4.05812251e-16 50,1.790861 50,4 L50,46 C50,48.209139 48.209139,50 46,50 L4,50 C1.790861,50 2.705415e-16,48.209139 0,46 L0,4 C-2.705415e-16,1.790861 1.790861,4.05812251e-16 4,0 Z M13.3847656,31.0664062 L13.3847656,22.1796875 C11.7311115,23.4492251 10.6178414,24.0839844 10.0449219,24.0839844 C9.77148301,24.0839844 9.52897241,23.974936 9.31738281,23.7568359 C9.10579321,23.5387359 9,23.2864598 9,23 C9,22.6679671 9.10416563,22.4238289 9.3125,22.2675781 C9.52083437,22.1113273 9.88866924,21.9095064 10.4160156,21.6621094 C11.20378,21.2910138 11.8336565,20.9003927 12.3056641,20.4902344 C12.7776716,20.0800761 13.1959617,19.6210963 13.5605469,19.1132812 C13.925132,18.6054662 14.1627599,18.2929693 14.2734375,18.1757812 C14.3841151,18.0585932 14.5924464,18 14.8984375,18 C15.2434913,18 15.5201813,18.1334622 15.7285156,18.4003906 C15.93685,18.667319 16.0410156,19.0351539 16.0410156,19.5039062 L16.0410156,30.6855469 C16.0410156,31.9941472 15.5950565,32.6484375 14.703125,32.6484375 C14.3059876,32.6484375 13.9869804,32.5149753 13.7460938,32.2480469 C13.5052071,31.9811185 13.3847656,31.5872422 13.3847656,31.0664062 Z M22.9515266,30.0996094 L28.0491829,30.0996094 C28.5569979,30.0996094 28.9443638,30.203775 29.2112923,30.4121094 C29.4782207,30.6204437 29.6116829,30.903644 29.6116829,31.2617188 C29.6116829,31.5807308 29.5058897,31.8509104 29.2943001,32.0722656 C29.0827105,32.2936209 28.7620757,32.4042969 28.332386,32.4042969 L21.144886,32.4042969 C20.6566023,32.4042969 20.2757468,32.2692071 20.0023079,31.9990234 C19.728869,31.7288398 19.5921516,31.4114602 19.5921516,31.046875 C19.5921516,30.8124988 19.6800414,30.5016295 19.8558235,30.1142578 C20.0316056,29.7268861 20.223661,29.4225271 20.4319954,29.2011719 C21.2978851,28.3027299 22.0791273,27.5328808 22.7757454,26.8916016 C23.4723635,26.2503223 23.9704054,25.8287771 24.269886,25.6269531 C24.8037429,25.2493471 25.2480743,24.8701191 25.6028938,24.4892578 C25.9577133,24.1083965 26.2278929,23.7177754 26.4134407,23.3173828 C26.5989885,22.9169902 26.691761,22.5247415 26.691761,22.140625 C26.691761,21.7239563 26.5924782,21.3512386 26.3939095,21.0224609 C26.1953408,20.6936833 25.9251612,20.438152 25.5833626,20.2558594 C25.241564,20.0735668 24.8688464,19.9824219 24.4651985,19.9824219 C23.6123297,19.9824219 22.9417635,20.3567671 22.4534798,21.1054688 C22.3883753,21.2031255 22.2793269,21.4700499 22.1263313,21.90625 C21.9733358,22.3424501 21.8008115,22.6777332 21.6087532,22.9121094 C21.416695,23.1464855 21.1351222,23.2636719 20.7640266,23.2636719 C20.4385042,23.2636719 20.1683246,23.1562511 19.9534798,22.9414062 C19.7386349,22.7265614 19.6312141,22.4335956 19.6312141,22.0625 C19.6312141,21.613279 19.7321246,21.1445337 19.9339485,20.65625 C20.1357724,20.1679663 20.4368762,19.7252624 20.8372688,19.328125 C21.2376615,18.9309876 21.7454689,18.6103528 22.3607063,18.3662109 C22.9759438,18.1220691 23.6969652,18 24.5237923,18 C25.519891,18 26.3694919,18.1562484 27.0726204,18.46875 C27.5283518,18.6770844 27.9287385,18.9635398 28.2737923,19.328125 C28.6188461,19.6927102 28.8873981,20.1142554 29.0794563,20.5927734 C29.2715146,21.0712915 29.3675423,21.5677058 29.3675423,22.0820312 C29.3675423,22.889327 29.167349,23.6233691 28.7669563,24.2841797 C28.3665637,24.9449903 27.9580391,25.4625632 27.5413704,25.8369141 C27.1247016,26.2112649 26.4264664,26.7988241 25.4466438,27.5996094 C24.4668212,28.4003946 23.7946274,29.0221332 23.4300423,29.4648438 C23.2737915,29.6406259 23.1142879,29.8522123 22.9515266,30.0996094 Z M34.7155533,23.7617188 C35.3145146,23.7617188 35.83046,23.5859393 36.2634048,23.234375 C36.6963497,22.8828107 36.9128189,22.3782585 36.9128189,21.7207031 C36.9128189,21.2193985 36.7402946,20.7880877 36.3952408,20.4267578 C36.050187,20.0654279 35.5846968,19.8847656 34.9987564,19.8847656 C34.601619,19.8847656 34.2744738,19.9401036 34.0173111,20.0507812 C33.7601484,20.1614589 33.5566999,20.3079418 33.4069595,20.4902344 C33.2572192,20.672527 33.1156191,20.9068996 32.9821548,21.1933594 C32.8486906,21.4798191 32.7266215,21.7499987 32.6159439,22.0039062 C32.5508394,22.1406257 32.4336531,22.2480465 32.2643814,22.3261719 C32.0951097,22.4042973 31.8997992,22.4433594 31.6784439,22.4433594 C31.4180259,22.4433594 31.1787705,22.3375662 30.9606705,22.1259766 C30.7425704,21.914387 30.633522,21.6328143 30.633522,21.28125 C30.633522,20.9427066 30.7360601,20.5862649 30.9411392,20.2119141 C31.1462184,19.8375632 31.4456945,19.4811215 31.8395767,19.1425781 C32.2334589,18.8040348 32.7233629,18.5322276 33.3093033,18.3271484 C33.8952437,18.1220693 34.549534,18.0195312 35.2721939,18.0195312 C35.9037075,18.0195312 36.4798736,18.1057934 37.0007095,18.2783203 C37.5215455,18.4508472 37.9740149,18.6998682 38.3581314,19.0253906 C38.7422479,19.3509131 39.0319586,19.7285135 39.227272,20.1582031 C39.4225855,20.5878928 39.5202408,21.0501277 39.5202408,21.5449219 C39.5202408,22.1959668 39.3786406,22.7542294 39.0954361,23.2197266 C38.8122316,23.6852237 38.4069622,24.1393207 37.8796158,24.5820312 C38.3874308,24.8554701 38.8154864,25.167967 39.1637955,25.5195312 C39.5121045,25.8710955 39.7741462,26.260089 39.9499283,26.6865234 C40.1257104,27.1129579 40.2136002,27.5735652 40.2136002,28.0683594 C40.2136002,28.6608103 40.0947862,29.2337212 39.8571548,29.7871094 C39.6195234,30.3404976 39.2695921,30.8336567 38.8073502,31.2666016 C38.3451083,31.6995464 37.7966111,32.0380847 37.1618423,32.2822266 C36.5270735,32.5263684 35.8255832,32.6484375 35.0573502,32.6484375 C34.2760963,32.6484375 33.5762335,32.5084649 32.9577408,32.2285156 C32.3392481,31.9485663 31.8298131,31.5986349 31.4294205,31.1787109 C31.0290278,30.758787 30.7262965,30.324221 30.5212173,29.875 C30.3161382,29.425779 30.2136002,29.054689 30.2136002,28.7617188 C30.2136002,28.3841127 30.3356693,28.0797538 30.5798111,27.8486328 C30.8239529,27.6175119 31.1283119,27.5019531 31.492897,27.5019531 C31.6751896,27.5019531 31.8509691,27.5556635 32.0202408,27.6630859 C32.1895125,27.7705083 32.3001884,27.8990878 32.352272,28.0488281 C32.6908154,28.9537806 33.0537675,29.6259744 33.4411392,30.0654297 C33.8285109,30.504885 34.3737529,30.7246094 35.0768814,30.7246094 C35.4805293,30.7246094 35.8695228,30.6253265 36.2438736,30.4267578 C36.6182244,30.2281891 36.9274661,29.9335957 37.171608,29.5429688 C37.4157498,29.1523418 37.5378189,28.6998724 37.5378189,28.1855469 C37.5378189,27.4238243 37.3294877,26.8264996 36.9128189,26.3935547 C36.4961502,25.9606098 35.9167289,25.7441406 35.1745377,25.7441406 C35.0443287,25.7441406 34.8425078,25.7571613 34.5690689,25.7832031 C34.29563,25.8092449 34.1198505,25.8222656 34.0417252,25.8222656 C33.6836505,25.8222656 33.4069605,25.7327483 33.211647,25.5537109 C33.0163336,25.3746736 32.9186783,25.1256526 32.9186783,24.8066406 C32.9186783,24.4941391 33.0358646,24.2418629 33.2702408,24.0498047 C33.504617,23.8577464 33.8529208,23.7617188 34.3151627,23.7617188 L34.7155533,23.7617188 Z" transform="translate(3 3)"/>
</svg>
