<svg xmlns="http://www.w3.org/2000/svg" width="56" height="56" viewBox="0 0 56 56">
  <path fill-rule="evenodd" d="M12.6767877,16.1042605 L11.8259966,13.8678953 L4.58211789,13.8678953 L3.73132677,16.1528771 C3.39911144,17.0441866 3.11551723,17.6458114 2.88053565,17.9577697 C2.64555407,18.269728 2.26067622,18.4257048 1.72589056,18.4257048 C1.27213303,18.4257048 0.871049794,18.2595997 0.522628831,17.9273843 C0.174207868,17.595169 0,17.2183938 0,16.7970476 C0,16.5539632 0.0405134578,16.3027797 0.121541589,16.0434897 C0.20256972,15.7841997 0.33626413,15.4236299 0.522628831,14.9617696 L5.08043841,3.39101032 C5.21008342,3.05879499 5.36606023,2.65973743 5.54837352,2.19382568 C5.73068682,1.72791392 5.92515142,1.3410104 6.13177315,1.0331035 C6.33839488,0.725196606 6.60983505,0.476038841 6.94610179,0.285622733 C7.28236854,0.0952066257 7.69763148,0 8.19190308,0 C8.69427749,0 9.11359178,0.0952066257 9.44985852,0.285622733 C9.78612526,0.476038841 10.0575654,0.721145261 10.2641872,1.02094935 C10.4708089,1.32075343 10.6450168,1.64283542 10.786816,1.98720498 C10.9286152,2.33157453 11.1089001,2.79140228 11.3276761,3.36670201 L15.9827189,14.8645363 C16.3473455,15.7396401 16.5296561,16.3757014 16.5296561,16.7727392 C16.5296561,17.1859827 16.3574739,17.5647835 16.0131043,17.9091531 C15.6687348,18.2535227 15.2534718,18.4257048 14.767303,18.4257048 C14.4837046,18.4257048 14.2406238,18.375063 14.0380535,18.2737779 C13.8354832,18.1724927 13.6653266,18.0347469 13.5275788,17.8605365 C13.389831,17.686326 13.2419569,17.4189372 13.083952,17.058362 C12.9259472,16.6977868 12.7902271,16.3797561 12.6767877,16.1042605 Z M5.53014229,11.1575178 L10.8536639,11.1575178 L8.16759476,3.80425173 L5.53014229,11.1575178 Z M25.6563246,18.1218509 L20.2112614,18.1218509 C19.4252885,18.1218509 18.8641771,17.9456173 18.5279104,17.593145 C18.1916437,17.2406726 18.0235128,16.6795612 18.0235128,15.909794 L18.0235128,2.51591089 C18.0235128,1.72993802 18.195695,1.16477528 18.5400646,0.820405724 C18.8844341,0.476036167 19.4414942,0.303853972 20.2112614,0.303853972 L25.9844869,0.303853972 C26.8352822,0.303853972 27.5726272,0.356521467 28.1965438,0.461858037 C28.8204604,0.567194607 29.3795461,0.769761896 29.8738177,1.06956598 C30.295164,1.32075319 30.6678878,1.63878383 30.9920003,2.02366745 C31.3161128,2.40855107 31.5632449,2.83394238 31.733404,3.29985413 C31.9035631,3.76576589 31.9886413,4.2580044 31.9886413,4.77658444 C31.9886413,6.55920332 31.0973453,7.86373666 29.3147264,8.69022359 C31.6564394,9.4356824 32.8272783,10.8860642 32.8272783,13.0414125 C32.8272783,14.0380585 32.5720435,14.9354316 32.0615663,15.7335587 C31.5510891,16.5316857 30.8623603,17.1211566 29.9953593,17.5019888 C29.4524708,17.7288675 28.8285636,17.8888957 28.1236188,17.982078 C27.4186741,18.0752604 26.5962509,18.1218509 25.6563246,18.1218509 Z M25.3889331,10.2094935 L21.633298,10.2094935 L21.633298,15.4114734 L25.5104747,15.4114734 C27.9494214,15.4114734 29.1688765,14.5323314 29.1688765,12.774021 C29.1688765,11.8746087 28.8528715,11.222342 28.2208521,10.8172014 C27.5888327,10.4120607 26.6448691,10.2094935 25.3889331,10.2094935 Z M21.633298,3.0142314 L21.633298,7.62065761 L24.9392292,7.62065761 C25.8386415,7.62065761 26.5334473,7.53557935 27.0236675,7.36542027 C27.5138876,7.1952612 27.8886371,6.87115354 28.1479271,6.39308757 C28.3504975,6.05276942 28.4517811,5.67194291 28.4517811,5.25059663 C28.4517811,4.35118438 28.1317248,3.75361088 27.4916026,3.4578582 C26.8514803,3.16210552 25.875106,3.0142314 24.5624503,3.0142314 L21.633298,3.0142314 Z M50,12.4944753 C50,13.0616722 49.8602286,13.6754511 49.5806815,14.3358304 C49.3011345,14.9962097 48.8615635,15.644425 48.2619553,16.2804958 C47.6623471,16.9165666 46.8966428,17.4331132 45.9648193,17.8301511 C45.0329957,18.2271889 43.9472351,18.4257048 42.7075047,18.4257048 C41.7675784,18.4257048 40.9127444,18.3365752 40.1429772,18.1583134 C39.3732099,17.9800515 38.6743528,17.7025343 38.0463848,17.3257535 C37.4184167,16.9489727 36.8411,16.4526828 36.3144171,15.836869 C35.844454,15.2777749 35.4433707,14.651842 35.1111554,13.9590515 C34.77894,13.2662609 34.5297823,12.5268903 34.3636746,11.7409175 C34.1975669,10.9549446 34.1145144,10.1203674 34.1145144,9.23716074 C34.1145144,7.80296282 34.3231587,6.51868621 34.7404535,5.38429238 C35.1577484,4.24989855 35.7553219,3.27960123 36.533192,2.47337133 C37.311062,1.66714143 38.2226148,1.05336254 39.2678777,0.632016261 C40.3131406,0.21066998 41.4272607,0 42.6102714,0 C44.0525721,0 45.3368487,0.28764555 46.4631398,0.86294528 C47.5894308,1.43824501 48.4523674,2.14925619 49.0519756,2.99600016 C49.6515838,3.84274413 49.9513834,4.64288492 49.9513834,5.39644654 C49.9513834,5.80969001 49.8055349,6.17431113 49.5138336,6.49032084 C49.2221324,6.80633055 48.8696653,6.96433303 48.4564218,6.96433303 C47.9945615,6.96433303 47.6481714,6.8549467 47.4172412,6.63617074 C47.1863111,6.41739479 46.9290506,6.04061963 46.6454522,5.50583397 C46.175489,4.62262734 45.6224803,3.96225798 44.9864095,3.52470607 C44.3503386,3.08715417 43.5664032,2.86838149 42.6345797,2.86838149 C41.1517649,2.86838149 39.9707976,3.43151856 39.0916424,4.55780958 C38.2124872,5.6841006 37.7729162,7.28438218 37.7729162,9.35870233 C37.7729162,10.7442834 37.9673808,11.8968912 38.3563158,12.8165605 C38.7452508,13.7362298 39.2962339,14.4229329 40.0092814,14.8766905 C40.722329,15.330448 41.5569062,15.5573234 42.5130381,15.5573234 C43.5501982,15.5573234 44.4273146,15.3000629 45.1444135,14.7855343 C45.8615125,14.2710056 46.4023672,13.5154296 46.7669937,12.5187836 C46.9209472,12.0488205 47.1113604,11.6659683 47.3382392,11.3702156 C47.565118,11.0744629 47.9297391,10.9265888 48.4321135,10.9265888 C48.8615626,10.9265888 49.2302351,11.0764886 49.538142,11.3762927 C49.8460489,11.6760968 50,12.0488206 50,12.4944753 Z" transform="translate(3 19)"/>
</svg>
