<svg xmlns="http://www.w3.org/2000/svg" width="56" height="56" viewBox="0 0 56 56">
  <path fill-rule="evenodd" d="M4,0 L46,0 C48.209139,-4.05812251e-16 50,1.790861 50,4 L50,46 C50,48.209139 48.209139,50 46,50 L4,50 C1.790861,50 2.705415e-16,48.209139 0,46 L0,4 C-2.705415e-16,1.790861 1.790861,4.05812251e-16 4,0 Z M15.2172093,29.7093023 C15.2996903,29.9096134 15.3983715,30.1408514 15.5132558,30.4030233 C15.6281401,30.6651951 15.7356584,30.8596118 15.835814,30.9862791 C15.9359695,31.1129464 16.0596892,31.2131004 16.2069767,31.2867442 C16.3542643,31.360388 16.5310067,31.3972093 16.7372093,31.3972093 C17.0906994,31.3972093 17.3926344,31.2720168 17.6430233,31.0216279 C17.8934121,30.7712391 18.0186047,30.4958155 18.0186047,30.1953488 C18.0186047,29.9066652 17.8860478,29.4441892 17.6209302,28.807907 L14.2362791,20.447907 C14.0772085,20.0296103 13.9461245,19.6952726 13.8430233,19.4448837 C13.739922,19.1944949 13.6132566,18.9603112 13.4630233,18.7423256 C13.3127899,18.52434 13.1154276,18.3461247 12.8709302,18.2076744 C12.6264329,18.0692241 12.3215522,18 11.9562791,18 C11.5968974,18 11.2949625,18.0692241 11.0504651,18.2076744 C10.8059678,18.3461247 10.6086054,18.5272857 10.4583721,18.7511628 C10.3081388,18.9750399 10.1667448,19.2563549 10.034186,19.5951163 C9.90162724,19.9338777 9.78821753,20.2240298 9.69395349,20.4655814 L6.38,28.8786047 C6.24449545,29.2144203 6.14728712,29.4765882 6.08837209,29.6651163 C6.02945707,29.8536444 6,30.0362782 6,30.2130233 C6,30.5193814 6.1266654,30.7933321 6.38,31.0348837 C6.6333346,31.2764353 6.92495959,31.3972093 7.25488372,31.3972093 C7.64372287,31.3972093 7.92356504,31.2837996 8.0944186,31.0569767 C8.26527217,30.8301539 8.47147166,30.3927164 8.71302326,29.7446512 L9.33162791,28.0832558 L14.5986047,28.0832558 L15.2172093,29.7093023 Z M10.0209302,26.1125581 L11.9386047,20.7660465 L13.8916279,26.1125581 L10.0209302,26.1125581 Z M25.4772093,31.1762791 C26.1606236,31.1762791 26.7586021,31.1424034 27.2711628,31.0746512 C27.7837235,31.0068989 28.2373624,30.8905435 28.632093,30.7255814 C29.2624838,30.4486808 29.763254,30.0200804 30.1344186,29.4397674 C30.5055833,28.8594545 30.6911628,28.2069804 30.6911628,27.4823256 C30.6911628,25.915186 29.8398535,24.8606229 28.1372093,24.3186047 C29.4333398,23.7176714 30.0813953,22.7691538 30.0813953,21.4730233 C30.0813953,21.0959671 30.0195355,20.7380637 29.895814,20.3993023 C29.7720924,20.0605409 29.5924043,19.7512417 29.3567442,19.4713953 C29.1210841,19.191549 28.8500791,18.960311 28.5437209,18.7776744 C28.1843393,18.5596888 27.7778317,18.4124035 27.324186,18.335814 C26.8705404,18.2592244 26.3344217,18.2209302 25.715814,18.2209302 L21.5181395,18.2209302 C20.9584468,18.2209302 20.5534121,18.3461228 20.3030233,18.5965116 C20.0526344,18.8469005 19.9274419,19.2578266 19.9274419,19.8293023 L19.9274419,29.567907 C19.9274419,30.1275997 20.0496887,30.5355801 20.294186,30.7918605 C20.5386834,31.0481408 20.9466638,31.1762791 21.5181395,31.1762791 L25.4772093,31.1762791 Z M25.2827907,25.4232558 C26.1959736,25.4232558 26.8823233,25.5705412 27.3418605,25.8651163 C27.8013976,26.1596914 28.0311628,26.6339502 28.0311628,27.287907 C28.0311628,28.566363 27.144505,29.2055814 25.3711628,29.2055814 L22.552093,29.2055814 L22.552093,25.4232558 L25.2827907,25.4232558 Z M22.552093,20.1916279 L24.6818605,20.1916279 C25.6362838,20.1916279 26.3461992,20.2991462 26.8116279,20.514186 C27.2770566,20.7292259 27.5097674,21.1637177 27.5097674,21.8176744 C27.5097674,22.1240325 27.4361248,22.400929 27.2888372,22.6483721 C27.1003091,22.9959707 26.8278312,23.2316273 26.4713953,23.3553488 C26.1149595,23.4790704 25.6097707,23.5409302 24.955814,23.5409302 L22.552093,23.5409302 L22.552093,20.1916279 Z M44,27.0846512 C44,26.7606185 43.8880631,26.4896135 43.664186,26.2716279 C43.440309,26.0536423 43.1722496,25.9446512 42.86,25.9446512 C42.4947269,25.9446512 42.2296132,26.0521695 42.0646512,26.2672093 C41.8996891,26.4822491 41.7612409,26.7606184 41.6493023,27.1023256 C41.3841847,27.8269804 40.9909328,28.3763547 40.4695349,28.7504651 C39.9481369,29.1245755 39.3103914,29.3116279 38.5562791,29.3116279 C37.8610818,29.3116279 37.2542662,29.1466683 36.735814,28.8167442 C36.2173617,28.4868201 35.8167456,27.9875227 35.5339535,27.3188372 C35.2511614,26.6501517 35.1097674,25.8120981 35.1097674,24.8046512 C35.1097674,23.2964266 35.4293766,22.1328723 36.0686047,21.3139535 C36.7078327,20.4950347 37.5665062,20.0855814 38.6446512,20.0855814 C39.3221739,20.0855814 39.8921682,20.2446496 40.3546512,20.5627907 C40.8171341,20.8809318 41.2192231,21.3610821 41.5609302,22.0032558 C41.7671328,22.392095 41.9541852,22.6660457 42.122093,22.8251163 C42.2900008,22.9841868 42.5418588,23.0637209 42.8776744,23.0637209 C43.178141,23.0637209 43.4344175,22.9488384 43.6465116,22.7190698 C43.8586057,22.4893012 43.9646512,22.2241875 43.9646512,21.9237209 C43.9646512,21.3758112 43.7466688,20.7940341 43.3106977,20.1783721 C42.8747265,19.5627101 42.2472909,19.0457385 41.4283721,18.6274419 C40.6094533,18.2091452 39.6756642,18 38.6269767,18 C37.7668174,18 36.956748,18.1531768 36.1967442,18.4595349 C35.4367404,18.765893 34.7739563,19.2121676 34.2083721,19.7983721 C33.6427879,20.3845766 33.2082961,21.0900734 32.9048837,21.9148837 C32.6014714,22.739694 32.4497674,23.6734832 32.4497674,24.7162791 C32.4497674,25.3584528 32.5101544,25.9652685 32.6309302,26.5367442 C32.751706,27.1082199 32.932867,27.6458114 33.1744186,28.1495349 C33.4159702,28.6532583 33.7075952,29.1083701 34.0493023,29.5148837 C34.43225,29.9626379 34.8520132,30.323487 35.3086047,30.5974419 C35.7651961,30.8713967 36.2733305,31.0731776 36.8330233,31.2027907 C37.392716,31.3324037 38.0142601,31.3972093 38.6976744,31.3972093 C39.5990743,31.3972093 40.3885237,31.2528697 41.0660465,30.964186 C41.7435693,30.6755024 42.3003079,30.2999248 42.7362791,29.8374419 C43.1722502,29.3749589 43.4918594,28.9036458 43.6951163,28.4234884 C43.8983731,27.9433309 44,27.4970563 44,27.0846512 Z" transform="translate(3 2)"/>
</svg>
