<svg xmlns="http://www.w3.org/2000/svg" width="56" height="56" viewBox="0 0 56 56">
  <path d="M4,6 L4,44 C4,45.1045695 4.8954305,46 6,46 L44,46 C45.1045695,46 46,45.1045695 46,44 L46,6 C46,4.8954305 45.1045695,4 44,4 L6,4 C4.8954305,4 4,4.8954305 4,6 Z M4,0 L46,0 C48.209139,-4.05812251e-16 50,1.790861 50,4 L50,46 C50,48.209139 48.209139,50 46,50 L4,50 C1.790861,50 2.705415e-16,48.209139 0,46 L0,4 C-2.705415e-16,1.790861 1.790861,4.05812251e-16 4,0 Z M15.2172093,29.7093023 L14.5986047,28.0832558 L9.33162791,28.0832558 L8.71302326,29.7446512 C8.47147166,30.3927164 8.26527217,30.8301539 8.0944186,31.0569767 C7.92356504,31.2837996 7.64372287,31.3972093 7.25488372,31.3972093 C6.92495959,31.3972093 6.6333346,31.2764353 6.38,31.0348837 C6.1266654,30.7933321 6,30.5193814 6,30.2130233 C6,30.0362782 6.02945707,29.8536444 6.08837209,29.6651163 C6.14728712,29.4765882 6.24449545,29.2144203 6.38,28.8786047 L9.69395349,20.4655814 C9.78821753,20.2240298 9.90162724,19.9338777 10.034186,19.5951163 C10.1667448,19.2563549 10.3081388,18.9750399 10.4583721,18.7511628 C10.6086054,18.5272857 10.8059678,18.3461247 11.0504651,18.2076744 C11.2949625,18.0692241 11.5968974,18 11.9562791,18 C12.3215522,18 12.6264329,18.0692241 12.8709302,18.2076744 C13.1154276,18.3461247 13.3127899,18.52434 13.4630233,18.7423256 C13.6132566,18.9603112 13.739922,19.1944949 13.8430233,19.4448837 C13.9461245,19.6952726 14.0772085,20.0296103 14.2362791,20.447907 L17.6209302,28.807907 C17.8860478,29.4441892 18.0186047,29.9066652 18.0186047,30.1953488 C18.0186047,30.4958155 17.8934121,30.7712391 17.6430233,31.0216279 C17.3926344,31.2720168 17.0906994,31.3972093 16.7372093,31.3972093 C16.5310067,31.3972093 16.3542643,31.360388 16.2069767,31.2867442 C16.0596892,31.2131004 15.9359695,31.1129464 15.835814,30.9862791 C15.7356584,30.8596118 15.6281401,30.6651951 15.5132558,30.4030233 C15.3983715,30.1408514 15.2996903,29.9096134 15.2172093,29.7093023 Z M10.0209302,26.1125581 L13.8916279,26.1125581 L11.9386047,20.7660465 L10.0209302,26.1125581 Z M25.4772093,31.1762791 L21.5181395,31.1762791 C20.9466638,31.1762791 20.5386834,31.0481408 20.294186,30.7918605 C20.0496887,30.5355801 19.9274419,30.1275997 19.9274419,29.567907 L19.9274419,19.8293023 C19.9274419,19.2578266 20.0526344,18.8469005 20.3030233,18.5965116 C20.5534121,18.3461228 20.9584468,18.2209302 21.5181395,18.2209302 L25.715814,18.2209302 C26.3344217,18.2209302 26.8705404,18.2592244 27.324186,18.335814 C27.7778317,18.4124035 28.1843393,18.5596888 28.5437209,18.7776744 C28.8500791,18.960311 29.1210841,19.191549 29.3567442,19.4713953 C29.5924043,19.7512417 29.7720924,20.0605409 29.895814,20.3993023 C30.0195355,20.7380637 30.0813953,21.0959671 30.0813953,21.4730233 C30.0813953,22.7691538 29.4333398,23.7176714 28.1372093,24.3186047 C29.8398535,24.8606229 30.6911628,25.915186 30.6911628,27.4823256 C30.6911628,28.2069804 30.5055833,28.8594545 30.1344186,29.4397674 C29.763254,30.0200804 29.2624838,30.4486808 28.632093,30.7255814 C28.2373624,30.8905435 27.7837235,31.0068989 27.2711628,31.0746512 C26.7586021,31.1424034 26.1606236,31.1762791 25.4772093,31.1762791 Z M25.2827907,25.4232558 L22.552093,25.4232558 L22.552093,29.2055814 L25.3711628,29.2055814 C27.144505,29.2055814 28.0311628,28.566363 28.0311628,27.287907 C28.0311628,26.6339502 27.8013976,26.1596914 27.3418605,25.8651163 C26.8823233,25.5705412 26.1959736,25.4232558 25.2827907,25.4232558 Z M22.552093,20.1916279 L22.552093,23.5409302 L24.955814,23.5409302 C25.6097707,23.5409302 26.1149595,23.4790704 26.4713953,23.3553488 C26.8278312,23.2316273 27.1003091,22.9959707 27.2888372,22.6483721 C27.4361248,22.400929 27.5097674,22.1240325 27.5097674,21.8176744 C27.5097674,21.1637177 27.2770566,20.7292259 26.8116279,20.514186 C26.3461992,20.2991462 25.6362838,20.1916279 24.6818605,20.1916279 L22.552093,20.1916279 Z M44,27.0846512 C44,27.4970563 43.8983731,27.9433309 43.6951163,28.4234884 C43.4918594,28.9036458 43.1722502,29.3749589 42.7362791,29.8374419 C42.3003079,30.2999248 41.7435693,30.6755024 41.0660465,30.964186 C40.3885237,31.2528697 39.5990743,31.3972093 38.6976744,31.3972093 C38.0142601,31.3972093 37.392716,31.3324037 36.8330233,31.2027907 C36.2733305,31.0731776 35.7651961,30.8713967 35.3086047,30.5974419 C34.8520132,30.323487 34.43225,29.9626379 34.0493023,29.5148837 C33.7075952,29.1083701 33.4159702,28.6532583 33.1744186,28.1495349 C32.932867,27.6458114 32.751706,27.1082199 32.6309302,26.5367442 C32.5101544,25.9652685 32.4497674,25.3584528 32.4497674,24.7162791 C32.4497674,23.6734832 32.6014714,22.739694 32.9048837,21.9148837 C33.2082961,21.0900734 33.6427879,20.3845766 34.2083721,19.7983721 C34.7739563,19.2121676 35.4367404,18.765893 36.1967442,18.4595349 C36.956748,18.1531768 37.7668174,18 38.6269767,18 C39.6756642,18 40.6094533,18.2091452 41.4283721,18.6274419 C42.2472909,19.0457385 42.8747265,19.5627101 43.3106977,20.1783721 C43.7466688,20.7940341 43.9646512,21.3758112 43.9646512,21.9237209 C43.9646512,22.2241875 43.8586057,22.4893012 43.6465116,22.7190698 C43.4344175,22.9488384 43.178141,23.0637209 42.8776744,23.0637209 C42.5418588,23.0637209 42.2900008,22.9841868 42.122093,22.8251163 C41.9541852,22.6660457 41.7671328,22.392095 41.5609302,22.0032558 C41.2192231,21.3610821 40.8171341,20.8809318 40.3546512,20.5627907 C39.8921682,20.2446496 39.3221739,20.0855814 38.6446512,20.0855814 C37.5665062,20.0855814 36.7078327,20.4950347 36.0686047,21.3139535 C35.4293766,22.1328723 35.1097674,23.2964266 35.1097674,24.8046512 C35.1097674,25.8120981 35.2511614,26.6501517 35.5339535,27.3188372 C35.8167456,27.9875227 36.2173617,28.4868201 36.735814,28.8167442 C37.2542662,29.1466683 37.8610818,29.3116279 38.5562791,29.3116279 C39.3103914,29.3116279 39.9481369,29.1245755 40.4695349,28.7504651 C40.9909328,28.3763547 41.3841847,27.8269804 41.6493023,27.1023256 C41.7612409,26.7606184 41.8996891,26.4822491 42.0646512,26.2672093 C42.2296132,26.0521695 42.4947269,25.9446512 42.86,25.9446512 C43.1722496,25.9446512 43.440309,26.0536423 43.664186,26.2716279 C43.8880631,26.4896135 44,26.7606185 44,27.0846512 Z" transform="translate(3 3)"/>
</svg>
