<?xml version="1.0" encoding="UTF-8"?>
<svg width="56px" height="56px" viewBox="0 0 56 56" version="1.1" xmlns="http://www.w3.org/2000/svg" xmlns:xlink="http://www.w3.org/1999/xlink">
    <!-- Generator: Sketch 52.1 (67048) - http://www.bohemiancoding.com/sketch -->
    <title>add</title>
    <desc>Created with Sketch.</desc>
    <g id="Page-1" stroke="none" stroke-width="1" fill="none" fill-rule="evenodd">
        <g id="add" transform="translate(12.000000, 12.000000)" fill="#000000">
            <path d="M18,14 L30,14 C31.1045695,14 32,14.8954305 32,16 C32,17.1045695 31.1045695,18 30,18 L18,18 L18,30 C18,31.1045695 17.1045695,32 16,32 C14.8954305,32 14,31.1045695 14,30 L14,18 L2,18 C0.8954305,18 1.3527075e-16,17.1045695 0,16 C-1.3527075e-16,14.8954305 0.8954305,14 2,14 L14,14 L14,2 C14,0.8954305 14.8954305,2.02906125e-16 16,0 C17.1045695,-2.02906125e-16 18,0.8954305 18,2 L18,14 Z" id="Path"></path>
        </g>
    </g>
</svg>