<?xml version="1.0" encoding="UTF-8"?>
<svg width="56px" height="56px" viewBox="0 0 56 56" version="1.1" xmlns="http://www.w3.org/2000/svg" xmlns:xlink="http://www.w3.org/1999/xlink">
    <!-- Generator: Sketch 52.1 (67048) - http://www.bohemiancoding.com/sketch -->
    <title>add_round_fill</title>
    <desc>Created with Sketch.</desc>
    <g id="Page-1" stroke="none" stroke-width="1" fill="none" fill-rule="evenodd">
        <g id="add_round_fill" fill="#000000">
            <path d="M28,56 C43.463973,56 56,43.463973 56,28 C56,12.536027 43.463973,0 28,0 C12.536027,0 0,12.536027 0,28 C0,43.463973 12.536027,56 28,56 Z M30,26 L42,26 C43.1045695,26 44,26.8954305 44,28 C44,29.1045695 43.1045695,30 42,30 L30,30 L30,42 C30,43.1045695 29.1045695,44 28,44 C26.8954305,44 26,43.1045695 26,42 L26,30 L14,30 C12.8954305,30 12,29.1045695 12,28 C12,26.8954305 12.8954305,26 14,26 L26,26 L26,14 C26,12.8954305 26.8954305,12 28,12 C29.1045695,12 30,12.8954305 30,14 L30,26 Z" id="Combined-Shape"></path>
        </g>
    </g>
</svg>