<?xml version="1.0" encoding="UTF-8"?>
<svg width="50px" height="50px" viewBox="0 0 50 50" version="1.1" xmlns="http://www.w3.org/2000/svg" xmlns:xlink="http://www.w3.org/1999/xlink">
    <!-- Generator: Sketch 40.1 (33804) - http://www.bohemiancoding.com/sketch -->
    <title>alarm_fill</title>
    <desc>Created with Sketch.</desc>
    <defs></defs>
    <g id="Page-1" stroke="none" stroke-width="1" fill="none" fill-rule="evenodd">
        <g id="alarm_fill" transform="translate(0.000000, 1.000000)" fill="#000000">
            <path d="M25,48 C37.1502645,48 47,38.1502645 47,26 C47,13.8497355 37.1502645,4 25,4 C12.8497355,4 3,13.8497355 3,26 C3,38.1502645 12.8497355,48 25,48 Z M25,29 L26,29 L26,11 L24,11 L24,27 L14,27 L14,29 L25,29 Z" id="Combined-Shape"></path>
            <rect id="Rectangle-117" transform="translate(6.950406, 44.662289) rotate(-45.000000) translate(-6.950406, -44.662289) " x="2.86259528" y="43.1622885" width="8.17562152" height="3"></rect>
            <rect id="Rectangle-117" transform="translate(42.648201, 44.662289) scale(-1, 1) rotate(-45.000000) translate(-42.648201, -44.662289) " x="38.56039" y="43.1622885" width="8.17562152" height="3"></rect>
            <path d="M48.1219378,14.9395518 L48.6979198,13.7298935 C48.8438044,13.4235116 49.04984,12.9033609 49.2530014,12.2180231 C49.8321884,10.2642133 50.0033014,8.22990707 49.5047371,6.28945694 C49.1111989,4.75777697 48.3136562,3.39288861 47.0675805,2.26006736 C46.0077632,1.2965757 44.7997641,0.666933587 43.4814606,0.342685175 C41.3908545,-0.171517902 39.2002145,0.0979821239 37.0857013,0.848992869 C36.2784579,1.13570116 35.6642734,1.4254844 35.3034487,1.62917735 L34.0923025,2.3128943 L35.1260817,3.24329452 L47.1260817,14.0432823 L48.1219378,14.9395518 Z" id="Path"></path>
            <path d="M14.8689155,3.24329452 L15.9026947,2.3128943 L14.6915485,1.62917735 C14.3307238,1.4254844 13.7165393,1.13570116 12.9092959,0.848992869 C10.7947827,0.0979821239 8.60414275,-0.171517902 6.51353663,0.342685175 C5.19523313,0.666933587 3.98723399,1.2965757 2.92741669,2.26006736 C1.68134097,3.39288861 0.883798266,4.75777697 0.490260158,6.28945694 C-0.00830422343,8.22990707 0.162808835,10.2642133 0.741995817,12.2180231 C0.945157201,12.9033609 1.15119282,13.4235116 1.2970774,13.7298935 L1.87305938,14.9395518 L2.86891549,14.0432823 L14.8689155,3.24329452 Z" id="Path"></path>
        </g>
    </g>
</svg>