<?xml version="1.0" encoding="UTF-8"?>
<svg width="50px" height="50px" viewBox="0 0 50 50" version="1.1" xmlns="http://www.w3.org/2000/svg" xmlns:xlink="http://www.w3.org/1999/xlink">
    <!-- Generator: Sketch 40.1 (33804) - http://www.bohemiancoding.com/sketch -->
    <title>alarm</title>
    <desc>Created with Sketch.</desc>
    <defs></defs>
    <g id="Page-1" stroke="none" stroke-width="1" fill="none" fill-rule="evenodd">
        <g id="alarm" transform="translate(0.000000, 1.000000)">
            <circle id="Oval-67" stroke="#000000" stroke-width="2" cx="25" cy="26" r="21"></circle>
            <rect id="Rectangle-117" fill="#000000" transform="translate(6.950406, 44.662289) rotate(-45.000000) translate(-6.950406, -44.662289) " x="2.86259528" y="43.1622885" width="8.17562152" height="3"></rect>
            <rect id="Rectangle-117" fill="#000000" transform="translate(42.648201, 44.662289) scale(-1, 1) rotate(-45.000000) translate(-42.648201, -44.662289) " x="38.56039" y="43.1622885" width="8.17562152" height="3"></rect>
            <polygon id="Combined-Shape" fill="#000000" points="25 29 26 29 26 11 24 11 24 27 14 27 14 29"></polygon>
            <path d="M14.2671081,3.69630883 C13.8866775,3.45967434 13.4506473,3.2206609 12.9707005,2.99734897 C10.6959839,1.93895806 8.40410557,1.64216154 6.35622586,2.48243983 C5.62231255,2.78357638 4.91683781,3.23186287 4.23906548,3.84797533 C3.30159577,4.70015938 2.68913488,5.6213429 2.34441725,6.61306367 C1.72507893,8.39484279 1.96957878,10.4039373 2.79210678,12.3891215 C2.96867398,12.8152692 3.15736207,13.2021003 3.34381978,13.5391855 C3.36372126,13.5751641 3.38254406,13.6087298 3.40018918,13.639817 L3.16788048,13.8496679 L1.13566622,13.5946429 C1.07352927,13.4581764 1.01023956,13.313312 0.946934827,13.1607284 L14.0702312,1.30608666 C14.2476976,1.39288475 14.4142638,1.47879847 14.568937,1.56193521 L14.6572283,3.47101773 L14.3501325,3.74842606 C14.3238299,3.73175845 14.2961465,3.71437122 14.2671081,3.69630883 Z M15.8782361,2.36804714 L1.88885194,15.0050503 C1.88885194,15.0050503 -2.96756442,7.69615322 2.89377273,2.36804714 C8.75510988,-2.96005893 15.8782361,2.36804714 15.8782361,2.36804714 Z" id="Triangle" fill="#000000"></path>
            <path d="M48.2671081,3.69630883 C47.8866775,3.45967434 47.4506473,3.2206609 46.9707005,2.99734897 C44.6959839,1.93895806 42.4041056,1.64216154 40.3562259,2.48243983 C39.6223125,2.78357638 38.9168378,3.23186287 38.2390655,3.84797533 C37.3015958,4.70015938 36.6891349,5.6213429 36.3444173,6.61306367 C35.7250789,8.39484279 35.9695788,10.4039373 36.7921068,12.3891215 C36.968674,12.8152692 37.1573621,13.2021003 37.3438198,13.5391855 C37.3637213,13.5751641 37.3825441,13.6087298 37.4001892,13.639817 L37.1678805,13.8496679 L35.1356662,13.5946429 C35.0735293,13.4581764 35.0102396,13.313312 34.9469348,13.1607284 L48.0702312,1.30608666 C48.2476976,1.39288475 48.4142638,1.47879847 48.568937,1.56193521 L48.6572283,3.47101773 L48.3501325,3.74842606 C48.3238299,3.73175845 48.2961465,3.71437122 48.2671081,3.69630883 Z M49.8782361,2.36804714 L35.8888519,15.0050503 C35.8888519,15.0050503 31.0324356,7.69615322 36.8937727,2.36804714 C42.7551099,-2.96005893 49.8782361,2.36804714 49.8782361,2.36804714 Z" id="Triangle-Copy-3" fill="#000000" transform="translate(41.939118, 7.502525) scale(-1, 1) translate(-41.939118, -7.502525) "></path>
        </g>
    </g>
</svg>