<?xml version="1.0" encoding="UTF-8"?>
<svg width="50px" height="50px" viewBox="0 0 50 50" version="1.1" xmlns="http://www.w3.org/2000/svg" xmlns:xlink="http://www.w3.org/1999/xlink">
    <!-- Generator: Sketch 40.1 (33804) - http://www.bohemiancoding.com/sketch -->
    <title>alarm</title>
    <desc>Created with Sketch.</desc>
    <defs></defs>
    <g id="Page-1" stroke="none" stroke-width="1" fill="none" fill-rule="evenodd">
        <g id="alarm">
            <circle id="Oval-67" stroke="#000000" stroke-width="2" cx="25" cy="27" r="21"></circle>
            <rect id="Rectangle-117" fill="#000000" transform="translate(6.950406, 45.662289) rotate(-45.000000) translate(-6.950406, -45.662289) " x="2.86259528" y="44.1622885" width="8.17562152" height="3"></rect>
            <rect id="Rectangle-117" fill="#000000" transform="translate(42.648201, 45.662289) scale(-1, 1) rotate(-45.000000) translate(-42.648201, -45.662289) " x="38.56039" y="44.1622885" width="8.17562152" height="3"></rect>
            <polygon id="Combined-Shape" fill="#000000" points="25 30 26 30 26 12 24 12 24 28 14 28 14 30"></polygon>
            <path d="M14.2671081,4.69630883 C13.8866775,4.45967434 13.4506473,4.2206609 12.9707005,3.99734897 C10.6959839,2.93895806 8.40410557,2.64216154 6.35622586,3.48243983 C5.62231255,3.78357638 4.91683781,4.23186287 4.23906548,4.84797533 C3.30159577,5.70015938 2.68913488,6.6213429 2.34441725,7.61306367 C1.72507893,9.39484279 1.96957878,11.4039373 2.79210678,13.3891215 C2.96867398,13.8152692 3.15736207,14.2021003 3.34381978,14.5391855 C3.36372126,14.5751641 3.38254406,14.6087298 3.40018918,14.639817 L3.16788048,14.8496679 L1.13566622,14.5946429 C1.07352927,14.4581764 1.01023956,14.313312 0.946934827,14.1607284 L14.0702312,2.30608666 C14.2476976,2.39288475 14.4142638,2.47879847 14.568937,2.56193521 L14.6572283,4.47101773 L14.3501325,4.74842606 C14.3238299,4.73175845 14.2961465,4.71437122 14.2671081,4.69630883 Z M15.8782361,3.36804714 L1.88885194,16.0050503 C1.88885194,16.0050503 -2.96756442,8.69615322 2.89377273,3.36804714 C8.75510988,-1.96005893 15.8782361,3.36804714 15.8782361,3.36804714 Z" id="Triangle" fill="#000000"></path>
            <path d="M48.6192793,4.87363786 C48.2388488,4.63700336 47.8028186,4.39798992 47.3228718,4.174678 C45.0481552,3.11628708 42.7562768,2.81949056 40.7083971,3.65976886 C39.9744838,3.9609054 39.2690091,4.40919189 38.5912368,5.02530435 C37.653767,5.8774884 37.0413062,6.79867193 36.6965885,7.79039269 C36.0772502,9.57217182 36.32175,11.5812664 37.1442781,13.5664505 C37.3208453,13.9925982 37.5095333,14.3794293 37.6959911,14.7165145 C37.7158925,14.7524931 37.7347153,14.7860588 37.7523605,14.817146 L37.5200518,15.026997 L35.4878375,14.7719719 C35.4257005,14.6355054 35.3624108,14.490641 35.2991061,14.3380574 L48.4224025,2.48341568 C48.5998689,2.57021377 48.7664351,2.65612749 48.9211083,2.73926424 L49.0093996,4.64834675 L48.7023037,4.92575508 C48.6760012,4.90908748 48.6483177,4.89170025 48.6192793,4.87363786 Z M50.2304074,3.54537617 L36.2410232,16.1823793 C36.2410232,16.1823793 31.3846069,8.87348224 37.245944,3.54537617 C43.1072812,-1.78272991 50.2304074,3.54537617 50.2304074,3.54537617 Z" id="Triangle-Copy-2" fill="#000000" transform="translate(42.291289, 8.679854) rotate(-276.000000) translate(-42.291289, -8.679854) "></path>
        </g>
    </g>
</svg>