<?xml version="1.0" encoding="UTF-8"?>
<svg width="50px" height="50px" viewBox="0 0 50 50" version="1.1" xmlns="http://www.w3.org/2000/svg" xmlns:xlink="http://www.w3.org/1999/xlink">
    <!-- Generator: Sketch 40.1 (33804) - http://www.bohemiancoding.com/sketch -->
    <title>alarm</title>
    <desc>Created with Sketch.</desc>
    <defs></defs>
    <g id="Page-1" stroke="none" stroke-width="1" fill="none" fill-rule="evenodd">
        <g id="alarm" transform="translate(0.000000, 1.000000)">
            <circle id="Oval-67" stroke="#000000" stroke-width="2" cx="25" cy="26" r="21"></circle>
            <rect id="Rectangle-117" fill="#000000" transform="translate(6.950406, 44.662289) rotate(-45.000000) translate(-6.950406, -44.662289) " x="2.86259528" y="43.1622885" width="8.17562152" height="3"></rect>
            <rect id="Rectangle-117" fill="#000000" transform="translate(42.648201, 44.662289) scale(-1, 1) rotate(-45.000000) translate(-42.648201, -44.662289) " x="38.56039" y="43.1622885" width="8.17562152" height="3"></rect>
            <polygon id="Combined-Shape" fill="#000000" points="25 29 26 29 26 11 24 11 24 27 14 27 14 29"></polygon>
            <path d="M2.19995117,13.2999878 L14.1999512,2.5 C14.1999512,2.5 8,-1 3.60009766,3 C-0.799804688,7 2.19995117,13.2999878 2.19995117,13.2999878 Z" id="Path-11" stroke="#000000" stroke-width="2"></path>
            <path d="M36.7934355,13.2999878 L48.7934355,2.5 C48.7934355,2.5 42.5934843,-1 38.193582,3 C33.7936796,7 36.7934355,13.2999878 36.7934355,13.2999878 Z" id="Path-11" stroke="#000000" stroke-width="2" transform="translate(42.294241, 7.191316) scale(-1, 1) translate(-42.294241, -7.191316) "></path>
        </g>
    </g>
</svg>