<svg xmlns="http://www.w3.org/2000/svg" width="56" height="56" viewBox="0 0 56 56">
  <g fill-rule="evenodd" transform="translate(3 3)">
    <path fill-rule="nonzero" d="M38.5246201,44.3530472 C34.7937245,47.2649782 30.0994803,49 25,49 C19.8619517,49 15.1352924,47.2386346 11.3908939,44.2867756 L7.24264069,48.4350288 C6.4615921,49.2160774 5.19526215,49.2160774 4.41421356,48.4350288 C3.63316498,47.6539803 3.63316498,46.3876503 4.41421356,45.6066017 L8.48537164,41.5354436 C5.07108469,37.6592785 3,32.5715031 3,27 C3,14.8497355 12.8497355,5 25,5 C37.1502645,5 47,14.8497355 47,27 C47,32.6099024 44.9002687,37.7293863 41.4438425,41.6154154 L45.4350288,45.6066017 C46.2160774,46.3876503 46.2160774,47.6539803 45.4350288,48.4350288 C44.6539803,49.2160774 43.3876503,49.2160774 42.6066017,48.4350288 L38.5246201,44.3530472 Z M25,45 C34.9411255,45 43,36.9411255 43,27 C43,17.0588745 34.9411255,9 25,9 C15.0588745,9 7,17.0588745 7,27 C7,36.9411255 15.0588745,45 25,45 Z"/>
    <path fill-rule="nonzero" d="M46.9830409,10.7805061 C47.1421435,8.48618172 46.2597456,6.19306067 44.5004514,4.66706104 L44.4992818,4.66604604 C43.2390152,3.57175897 41.6937925,3.00117399 40.0991779,3.00117399 C39.4914423,3.00117399 38.8874442,3.08562137 38.3068711,3.24836567 L46.9830409,10.7805061 Z M46.4661829,2.40080875 C49.7659403,5.26299541 50.794619,9.87207861 49.3831214,13.8237276 C49.3338012,13.9622584 49.2891782,14.1007892 49.2328122,14.23932 C48.9791654,14.7417875 48.4742203,15.0892884 47.8870749,15.0892884 C47.5981993,15.0892884 47.3328096,15.0024132 47.1026486,14.8568385 L46.7480127,14.5492532 L34.8477492,4.21814466 L34.5353878,3.94577907 C34.2864381,3.66636955 34.1337803,3.29304085 34.1337803,2.88449247 C34.1337803,2.34680523 34.3944729,1.87016545 34.7890346,1.58840794 C34.8383549,1.55553623 34.8900237,1.53205644 34.9369953,1.50153271 C36.5081965,0.510685479 38.2978157,0.00117398961 40.0991779,0.00117398961 C42.3467706,0.00117398961 44.6084548,0.787747027 46.4661829,2.40080875 Z"/>
    <path d="M27,30 L14.5,30 C13.6715729,30 13,29.3284271 13,28.5 C13,27.6715729 13.6715729,27 14.5,27 L24,27 L24,13.5 C24,12.6715729 24.6715729,12 25.5,12 C26.3284271,12 27,12.6715729 27,13.5 L27,30 Z"/>
    <path fill-rule="nonzero" d="M11.6905047,3.24917972 C11.1082693,3.08498853 10.5069019,3.00117399 9.90147951,3.00117399 C8.30549303,3.00117399 6.76234645,3.5711475 5.50020603,4.66706104 C3.74101216,6.19297363 2.85817206,8.48468293 3.01714563,10.7788763 L11.6905047,3.24917972 Z M15.4652696,3.94577907 L15.1505596,4.21814466 L3.25029609,14.5492532 L2.89800883,14.8568385 C2.66784782,15.0024132 2.4001095,15.0892884 2.11123395,15.0892884 C1.52408852,15.0892884 1.02149204,14.7417875 0.765496629,14.23932 C0.709130668,14.1007892 0.666856197,13.9622584 0.617535981,13.8237276 C-0.796310213,9.87207861 0.234717161,5.26299541 3.53447447,2.40080875 C5.39220261,0.787747027 7.65153823,0.00117398961 9.90147951,0.00117398961 C11.7028417,0.00117398961 13.4901124,0.510685479 15.0613135,1.50153271 C15.1106338,1.53205644 15.159954,1.55553623 15.2092742,1.58840794 C15.6061845,1.87016545 15.8668771,2.34680523 15.8668771,2.88449247 C15.8668771,3.29304085 15.7118707,3.66636955 15.4652696,3.94577907 Z"/>
  </g>
</svg>
