<svg xmlns="http://www.w3.org/2000/svg" width="56" height="56" viewBox="0 0 56 56">
  <g fill-rule="evenodd" transform="translate(3 3)">
    <path d="M38.5246201,44.3530472 C34.7937245,47.2649782 30.0994803,49 25,49 C19.8619517,49 15.1352924,47.2386346 11.3908939,44.2867756 L7.24264069,48.4350288 C6.4615921,49.2160774 5.19526215,49.2160774 4.41421356,48.4350288 C3.63316498,47.6539803 3.63316498,46.3876503 4.41421356,45.6066017 L8.48537164,41.5354436 C5.07108469,37.6592785 3,32.5715031 3,27 C3,14.8497355 12.8497355,5 25,5 C37.1502645,5 47,14.8497355 47,27 C47,32.6099024 44.9002687,37.7293863 41.4438425,41.6154154 L45.4350288,45.6066017 C46.2160774,46.3876503 46.2160774,47.6539803 45.4350288,48.4350288 C44.6539803,49.2160774 43.3876503,49.2160774 42.6066017,48.4350288 L38.5246201,44.3530472 Z M27,30 L27,13.5 C27,12.6715729 26.3284271,12 25.5,12 C24.6715729,12 24,12.6715729 24,13.5 L24,27 L14.5,27 C13.6715729,27 13,27.6715729 13,28.5 C13,29.3284271 13.6715729,30 14.5,30 L27,30 Z"/>
    <path d="M46.4661829 2.40080875C44.6084548.787747027 42.3467706.00117398961 40.0991779.00117398961 38.2978157.00117398961 36.5081965.510685479 34.9369953 1.50153271 34.8900237 1.53205644 34.8383549 1.55553623 34.7890346 1.58840794 34.3944729 1.87016545 34.1337803 2.34680523 34.1337803 2.88449247 34.1337803 3.29304085 34.2864381 3.66636955 34.5353878 3.94577907L34.8477492 4.21814466 46.7480127 14.5492532 47.1026486 14.8568385C47.3328096 15.0024132 47.5981993 15.0892884 47.8870749 15.0892884 48.4742203 15.0892884 48.9791654 14.7417875 49.2328122 14.23932 49.2891782 14.1007892 49.3338012 13.9622584 49.3831214 13.8237276 50.794619 9.87207861 49.7659403 5.26299541 46.4661829 2.40080875L46.4661829 2.40080875zM15.4652696 3.94577907C15.7118707 3.66636955 15.8668771 3.29304085 15.8668771 2.88449247 15.8668771 2.34680523 15.6061845 1.87016545 15.2092742 1.58840794 15.159954 1.55553623 15.1106338 1.53205644 15.0613135 1.50153271 13.4901124.510685479 11.7028417.00117398961 9.90147951.00117398961 7.65153823.00117398961 5.39220261.787747027 3.53447447 2.40080875.234717161 5.26299541-.796310213 9.87207861.617535981 13.8237276.666856197 13.9622584.709130668 14.1007892.765496629 14.23932 1.02149204 14.7417875 1.52408852 15.0892884 2.11123395 15.0892884 2.4001095 15.0892884 2.66784782 15.0024132 2.89800883 14.8568385L3.25029609 14.5492532 15.1505596 4.21814466 15.4652696 3.94577907z" style="mix-blend-mode:color-burn"/>
  </g>
</svg>
