<svg xmlns="http://www.w3.org/2000/svg" width="56" height="56" viewBox="0 0 56 56">
  <g fill-rule="evenodd" transform="translate(9 4)">
    <path d="M4,12 L34,12 C36.209139,12 38,13.790861 38,16 L38,44 C38,46.209139 36.209139,48 34,48 L4,48 C1.790861,48 2.705415e-16,46.209139 0,44 L0,16 C-2.705415e-16,13.790861 1.790861,12 4,12 Z M6,16 C4.8954305,16 4,16.8954305 4,18 L4,42 C4,43.1045695 4.8954305,44 6,44 L32,44 C33.1045695,44 34,43.1045695 34,42 L34,18 C34,16.8954305 33.1045695,16 32,16 L6,16 Z"/>
    <path d="M17.7471259 23.8395536C17.7487229 24.14455 17.7487229 24.14455 17.7507888 24.5479093 17.7516367 24.6976137 17.7531172 24.9740558 17.7550206 25.3552966 17.7581934 25.9907819 17.7613662 26.6866219 17.7643274 27.4205435 17.7696926 28.7502345 17.7737532 28.0535327 17.7759823 29.2749037 17.7816423 32.376135 17.7759823 33.8208719 17.7759823 33.8208719L17.7759823 33.9663807C17.7759823 33.9663807 17.3259889 34.124325 16.888619 34.225993 16.4882785 34.3190534 16.2267036 34.3593003 15.3805911 34.4712046 14.5726481 34.5780607 14.1632727 34.6511347 13.7148704 34.7957575 11.818924 35.4072553 10.6495835 37.0899431 11.0943981 39.2717242 11.6352209 41.9244181 18.7260333 43 18.78 35.7848554 18.7857623 35.0144551 18.782226 32.6941302 18.775979 29.2712536 18.7740177 28.1966604 18.7706413 29.0589579 18.7662075 27.8957316L25.3928121 26.6859881C25.9477874 26.597957 26.3860685 26.0808595 26.3817824 25.5294255L26.3454654 20.8570579C26.3411865 20.3065449 25.8993105 19.9271915 25.3585238 20.0118055L18.7065019 21.3655416C18.1697274 21.4495278 17.7318416 21.9671424 17.737418 22.5202639L17.7477891 23.548959C17.7458828 23.6041868 17.7458828 23.6041868 17.7471259 23.8395536zM5 6L33 6C34.1045695 6 35 6.8954305 35 8 35 9.1045695 34.1045695 10 33 10L5 10C3.8954305 10 3 9.1045695 3 8 3 6.8954305 3.8954305 6 5 6zM7 0L31 0C32.1045695-2.02906125e-16 33 .8954305 33 2 33 3.1045695 32.1045695 4 31 4L7 4C5.8954305 4 5 3.1045695 5 2 5 .8954305 5.8954305 2.02906125e-16 7 0z"/>
  </g>
</svg>
