<svg xmlns="http://www.w3.org/2000/svg" width="56" height="56" viewBox="0 0 56 56">
  <path d="M31.5893999,2.29844639 L55.1646171,43.2347214 C56.1395535,45.2170922 55.3228666,47.6144634 53.3404958,48.5893999 C52.7912357,48.8595278 52.1873086,49 51.5752172,49 L4.42478279,49 C2.21564379,49 0.424782793,47.209139 0.424782793,45 C0.424782793,44.3879086 0.565254983,43.7839815 0.835382929,43.2347214 L24.4106001,2.29844639 C25.3855366,0.316075585 27.7829078,-0.500611314 29.7652786,0.474325149 C30.5580838,0.864229359 31.1994957,1.50564116 31.5893999,2.29844639 Z M28,42 C30.209139,42 32,40.209139 32,38 C32,35.790861 30.209139,34 28,34 C25.790861,34 24,35.790861 24,38 C24,40.209139 25.790861,42 28,42 Z M28,15 C26.8954305,15 26,15.8954305 26,17 L26,28 C26,29.1045695 26.8954305,30 28,30 C29.1045695,30 30,29.1045695 30,28 L30,17 C30,15.8954305 29.1045695,15 28,15 Z" transform="translate(0 3)"/>
</svg>
