<?xml version="1.0" encoding="UTF-8"?>
<svg width="56px" height="56px" viewBox="0 0 56 56" version="1.1" xmlns="http://www.w3.org/2000/svg" xmlns:xlink="http://www.w3.org/1999/xlink">
    <!-- Generator: Sketch 52.1 (67048) - http://www.bohemiancoding.com/sketch -->
    <title>alert_fill</title>
    <desc>Created with Sketch.</desc>
    <g id="Page-1" stroke="none" stroke-width="1" fill="none" fill-rule="evenodd">
        <g id="alert_fill" transform="translate(0.000000, 3.000000)" fill="#000000" fill-rule="nonzero">
            <path d="M31.5893999,2.29844639 L55.1646171,43.2347214 C56.1395535,45.2170922 55.3228666,47.6144634 53.3404958,48.5893999 C52.7912357,48.8595278 52.1873086,49 51.5752172,49 L4.42478279,49 C2.21564379,49 0.424782793,47.209139 0.424782793,45 C0.424782793,44.3879086 0.565254983,43.7839815 0.835382929,43.2347214 L24.4106001,2.29844639 C25.3855366,0.316075585 27.7829078,-0.500611314 29.7652786,0.474325149 C30.5580838,0.864229359 31.1994957,1.50564116 31.5893999,2.29844639 Z M28,23 C30.209139,23 32,21.209139 32,19 C32,16.790861 30.209139,15 28,15 C25.790861,15 24,16.790861 24,19 C24,21.209139 25.790861,23 28,23 Z M28,27 C26.8954305,27 26,27.8954305 26,29 L26,40 C26,41.1045695 26.8954305,42 28,42 C29.1045695,42 30,41.1045695 30,40 L30,29 C30,27.8954305 29.1045695,27 28,27 Z" id="Shape"></path>
        </g>
    </g>
</svg>