<svg xmlns="http://www.w3.org/2000/svg" width="56" height="56" viewBox="0 0 56 56">
  <g fill-rule="evenodd" transform="translate(0 3)">
    <circle cx="28" cy="38" r="4"/>
    <path d="M28,15 C29.1045695,15 30,15.8954305 30,17 L30,28 C30,29.1045695 29.1045695,30 28,30 C26.8954305,30 26,29.1045695 26,28 L26,17 C26,15.8954305 26.8954305,15 28,15 Z"/>
    <path fill-rule="nonzero" d="M26.2053001,7.71294821 L5.84247426,42.1173607 C5.35500603,43.1085461 5.76334948,44.3072317 6.75453488,44.7946999 C7.02916496,44.9297639 7.33112851,45 7.63717419,45 L48.3628258,45 C49.4673953,45 50.3628258,44.1045695 50.3628258,43 C50.3628258,42.6939543 50.2925897,42.3919908 50.1575257,42.1173607 L29.7946999,7.71294821 C29.3072317,6.72176281 28.1085461,6.31341936 27.1173607,6.80088759 C26.7209581,6.99583969 26.4002522,7.31654559 26.2053001,7.71294821 Z M31.5893999,2.29844639 L55.1646171,43.2347214 C56.1395535,45.2170922 55.3228666,47.6144634 53.3404958,48.5893999 C52.7912357,48.8595278 52.1873086,49 51.5752172,49 L4.42478279,49 C2.21564379,49 0.424782793,47.209139 0.424782793,45 C0.424782793,44.3879086 0.565254983,43.7839815 0.835382929,43.2347214 L24.4106001,2.29844639 C25.3855366,0.316075585 27.7829078,-0.500611314 29.7652786,0.474325149 C30.5580838,0.864229359 31.1994957,1.50564116 31.5893999,2.29844639 Z"/>
  </g>
</svg>
