<?xml version="1.0" encoding="UTF-8"?>
<svg width="50px" height="50px" viewBox="0 0 50 50" version="1.1" xmlns="http://www.w3.org/2000/svg" xmlns:xlink="http://www.w3.org/1999/xlink">
    <!-- Generator: Sketch 40.1 (33804) - http://www.bohemiancoding.com/sketch -->
    <title>arrow_up</title>
    <desc>Created with Sketch.</desc>
    <defs></defs>
    <g id="Page-1" stroke="none" stroke-width="1" fill="none" fill-rule="evenodd">
        <g id="arrow_up" transform="translate(9.000000, 6.000000)" fill="#000000">
            <path d="M18.6828794,9.10466996 L18.6828794,33.3747033 C18.6828794,34.8506789 17.4971674,36.0471935 16.0115435,36.0471935 C14.5362054,36.0471935 13.3402076,34.8429188 13.3402076,33.3747033 L13.3402076,9.10466996 L4.60626642,17.8386111 C3.56560633,18.8792712 1.88355962,18.8844679 0.833064909,17.8339732 C-0.210156656,16.7907516 -0.212808418,15.102007 0.828426943,14.0607717 L14.060141,0.829057564 C14.6104037,0.278794917 15.3399919,0.0180379129 16.0607181,0.0497769931 L16.0607181,0.0497769931 C16.7489123,0.0446598327 17.4381669,0.30427846 17.962946,0.829057564 L31.1946601,14.0607717 C32.2353202,15.1014318 32.2405168,16.7834785 31.1900221,17.8339732 C30.1468006,18.8771947 28.458056,18.8798465 27.4168206,17.8386111 L18.6828794,9.10466996 L18.6828794,9.10466996 Z" id="Combined-Shape"></path>
        </g>
    </g>
</svg>