<svg xmlns="http://www.w3.org/2000/svg" width="56" height="56" viewBox="0 0 56 56">
  <path fill-rule="evenodd" d="M28,56 C12.536027,56 0,43.463973 0,28 C0,12.536027 12.536027,0 28,0 C43.463973,0 56,12.536027 56,28 C56,43.463973 43.463973,56 28,56 Z M21.2566975,26.4773426 L27.7957038,19.9383363 C28.5752654,19.1587748 28.57328,17.8944302 27.7922315,17.1133816 C27.0057375,16.3268877 25.7464076,16.3307784 24.9672767,17.1099092 L15.060837,27.0163489 C14.6679406,27.4092453 14.473567,27.9252827 14.4773982,28.4405261 C14.4536354,28.980126 14.6488614,29.5263607 15.060837,29.9383363 L24.9672767,39.844776 C25.7468383,40.6243376 27.0111829,40.6223522 27.7922315,39.8413036 C28.5787254,39.0548097 28.5748347,37.7954797 27.7957038,37.0163489 L21.2566975,30.4773426 L39.4274062,30.4773426 C40.5266432,30.4773426 41.4282704,29.5819121 41.4282704,28.4773426 C41.4282704,27.3650723 40.532453,26.4773426 39.4274062,26.4773426 L21.2566975,26.4773426 Z"/>
</svg>
