<?xml version="1.0" encoding="UTF-8"?>
<svg width="50px" height="50px" viewBox="0 0 50 50" version="1.1" xmlns="http://www.w3.org/2000/svg" xmlns:xlink="http://www.w3.org/1999/xlink">
    <!-- Generator: Sketch 40.1 (33804) - http://www.bohemiancoding.com/sketch -->
    <title>arrow_right</title>
    <desc>Created with Sketch.</desc>
    <defs></defs>
    <g id="Page-1" stroke="none" stroke-width="1" fill="none" fill-rule="evenodd">
        <g id="arrow_right" transform="translate(7.000000, 8.000000)" fill="#000000">
            <path d="M20.6828794,7.10466996 L20.6828794,31.3747033 C20.6828794,32.8506789 19.4971674,34.0471935 18.0115435,34.0471935 C16.5362054,34.0471935 15.3402076,32.8429188 15.3402076,31.3747033 L15.3402076,7.10466996 L6.60626642,15.8386111 C5.56560633,16.8792712 3.88355962,16.8844679 2.83306491,15.8339732 C1.78984334,14.7907516 1.78719158,13.102007 2.82842694,12.0607717 L16.060141,-1.17094244 C16.6104037,-1.72120508 17.3399919,-1.98196209 18.0607181,-1.95022301 L18.0607181,-1.95022301 C18.7489123,-1.95534017 19.4381669,-1.69572154 19.962946,-1.17094244 L33.1946601,12.0607717 C34.2353202,13.1014318 34.2405168,14.7834785 33.1900221,15.8339732 C32.1468006,16.8771947 30.458056,16.8798465 29.4168206,15.8386111 L20.6828794,7.10466996 L20.6828794,7.10466996 Z" id="Combined-Shape" transform="translate(18.012798, 16.047193) rotate(-270.000000) translate(-18.012798, -16.047193) "></path>
        </g>
    </g>
</svg>