<svg xmlns="http://www.w3.org/2000/svg" width="56" height="56" viewBox="0 0 56 56">
  <path fill-rule="evenodd" d="M17.0565626,8.29081318 L17.0565626,30.5065277 C17.0565626,31.8575705 15.9712143,32.952807 14.6113399,32.952807 C13.2608807,32.952807 12.1661172,31.8504673 12.1661172,30.5065277 L12.1661172,8.29081318 L4.17145394,16.2854765 C3.21887975,17.2380507 1.67920862,17.2428074 0.717632245,16.2812311 C-0.237286614,15.3263122 -0.239713919,13.7805101 0.713386856,12.8274094 L12.8251124,0.715683783 C13.3287985,0.211997705 13.9966313,-0.0266877185 14.6563521,0.00236483106 L14.6563521,0.00236483106 C15.2862947,-0.00231919112 15.9172078,0.235324213 16.3975674,0.715683783 L28.509293,12.8274094 C29.4618672,13.7799836 29.466624,15.3196547 28.5050476,16.2812311 C27.5501287,17.2361499 26.0043267,17.2385772 25.0512259,16.2854765 L17.0565626,8.29081318 L17.0565626,8.29081318 Z" transform="translate(13 11)"/>
</svg>
