<?xml version="1.0" encoding="UTF-8"?>
<svg width="56px" height="56px" viewBox="0 0 56 56" version="1.1" xmlns="http://www.w3.org/2000/svg" xmlns:xlink="http://www.w3.org/1999/xlink">
    <!-- Generator: Sketch 52.1 (67048) - http://www.bohemiancoding.com/sketch -->
    <title>arrow_left</title>
    <desc>Created with Sketch.</desc>
    <g id="Page-1" stroke="none" stroke-width="1" fill="none" fill-rule="evenodd">
        <g id="arrow_left" transform="translate(11.000000, 13.000000)" fill="#000000">
            <path d="M19.5810987,6.76627708 L19.5810987,28.9819916 C19.5810987,30.3330344 18.4957504,31.4282709 17.135876,31.4282709 C15.7854168,31.4282709 14.6906533,30.3259312 14.6906533,28.9819916 L14.6906533,6.76627708 L6.69599004,14.7609404 C5.74341584,15.7135146 4.20374472,15.7182714 3.24216834,14.756695 C2.28724948,13.8017761 2.28482218,12.2559741 3.23792295,11.3028733 L15.3496485,-0.808852312 C15.8533346,-1.31253839 16.5211674,-1.55122381 17.1808882,-1.52217126 L17.1808882,-1.52217126 C17.8108307,-1.52685529 18.4417439,-1.28921188 18.9221035,-0.808852312 L31.0338291,11.3028733 C31.9864033,12.2554475 31.9911601,13.7951186 31.0295837,14.756695 C30.0746648,15.7116138 28.5288628,15.7140411 27.575762,14.7609404 L19.5810987,6.76627708 L19.5810987,6.76627708 Z" id="Combined-Shape" transform="translate(17.137024, 14.951867) rotate(-90.000000) translate(-17.137024, -14.951867) "></path>
        </g>
    </g>
</svg>