<svg xmlns="http://www.w3.org/2000/svg" width="56" height="56" viewBox="0 0 56 56">
  <path fill-rule="evenodd" d="M28,56 C12.536027,56 0,43.463973 0,28 C0,12.536027 12.536027,0 28,0 C43.463973,0 56,12.536027 56,28 C56,43.463973 43.463973,56 28,56 Z M29.9509278,21.7812336 L36.4899341,28.3202399 C37.2694956,29.0998015 38.5338403,29.0978161 39.3148888,28.3167675 C40.1013828,27.5302736 40.0974921,26.2709437 39.3183612,25.4918128 L29.4119215,15.5853731 C29.0190251,15.1924767 28.5029877,14.9981031 27.9877443,15.0019342 C27.4481444,14.9781715 26.9019097,15.1733975 26.4899341,15.5853731 L16.5834944,25.4918128 C15.8039329,26.2713744 15.8059182,27.535719 16.5869668,28.3167675 C17.3734607,29.1032615 18.6327907,29.0993708 19.4119215,28.3202399 L25.9509278,21.7812336 L25.9509278,39.9519423 C25.9509278,41.0511793 26.8463583,41.9528065 27.9509278,41.9528065 C29.0631982,41.9528065 29.9509278,41.0569891 29.9509278,39.9519423 L29.9509278,21.7812336 Z"/>
</svg>
