<svg xmlns="http://www.w3.org/2000/svg" width="56" height="56" viewBox="0 0 56 56">
  <path fill-rule="evenodd" d="M28,56 C12.536027,56 0,43.463973 0,28 C0,12.536027 12.536027,0 28,0 C43.463973,0 56,12.536027 56,28 C56,43.463973 43.463973,56 28,56 Z M34.6470368,30.4754639 L28.1080305,37.0144702 C27.3284689,37.7940317 27.3304543,39.0583764 28.1115029,39.8394249 C28.8979968,40.6259188 30.1573268,40.6220282 30.9364576,39.8428973 L40.8428973,29.9364576 C41.2357937,29.5435612 41.4301673,29.0275238 41.4263362,28.5122804 C41.4500989,27.9726805 41.254873,27.4264458 40.8428973,27.0144702 L30.9364576,17.1080305 C30.1568961,16.3284689 28.8925515,16.3304543 28.1115029,17.1115029 C27.325009,17.8979968 27.3288996,19.1573268 28.1080305,19.9364576 L34.6470368,26.4754639 L16.4763281,26.4754639 C15.3770912,26.4754639 14.4754639,27.3708944 14.4754639,28.4754639 C14.4754639,29.5877343 15.3712813,30.4754639 16.4763281,30.4754639 L34.6470368,30.4754639 Z"/>
</svg>
