<svg xmlns="http://www.w3.org/2000/svg" width="56" height="56" viewBox="0 0 56 56">
  <path fill-rule="evenodd" d="M8.95143415,12.5077932 L31.1671487,12.5077932 C32.5181914,12.5077932 33.613428,13.5931415 33.613428,14.9530159 C33.613428,16.3034751 32.5110883,17.3982386 31.1671487,17.3982386 L8.95143415,17.3982386 L16.9460974,25.3929018 C17.8986716,26.345476 17.9034284,27.8851472 16.941852,28.8467235 C15.9869332,29.8016424 14.4411311,29.8040697 13.4880303,28.8509689 L1.37630475,16.7392433 C0.872618676,16.2355573 0.633933253,15.5677245 0.662985802,14.9080036 C0.65830178,14.2780611 0.895945184,13.647148 1.37630475,13.1667884 L13.4880303,1.05506281 C14.4406045,0.102488617 15.9802757,0.0977318235 16.941852,1.0593082 C17.8967709,2.01422706 17.8991982,3.56002913 16.9460974,4.5131299 L8.95143415,12.5077932 Z" transform="translate(11 13)"/>
</svg>
