<svg xmlns="http://www.w3.org/2000/svg" width="56" height="56" viewBox="0 0 56 56">
  <path fill-rule="evenodd" d="M25.3226148,17.3959416 L3.10690027,17.3959416 C1.75585752,17.3959416 0.660620971,16.3105933 0.660620971,14.9507189 C0.660620971,13.6002597 1.76296068,12.5054963 3.10690027,12.5054963 L25.3226148,12.5054963 L17.3279515,4.51083297 C16.3753773,3.55825878 16.3706205,2.01858765 17.3321969,1.05701127 C18.2871158,0.102092415 19.8329178,0.0996651099 20.7860186,1.05276588 L32.8977442,13.1644915 C33.4014303,13.6681775 33.6401157,14.3360103 33.6110631,14.9957312 C33.6157472,15.6256737 33.3781038,16.2565868 32.8977442,16.7369464 L20.7860186,28.848672 C19.8334444,29.8012462 18.2937733,29.806003 17.3321969,28.8444266 C16.377278,27.8895078 16.3748507,26.3437057 17.3279515,25.3906049 L25.3226148,17.3959416 Z" transform="translate(11 13)"/>
</svg>
