<svg xmlns="http://www.w3.org/2000/svg" width="56" height="56" viewBox="0 0 56 56">
  <path fill-rule="evenodd" d="M12.1684142,24.6619938 L12.1684142,2.4462793 C12.1684142,1.09523655 13.2537625,7.10542736e-15 14.6136368,7.10542736e-15 C15.964096,7.10542736e-15 17.0588595,1.10233971 17.0588595,2.4462793 L17.0588595,24.6619938 L25.0535228,16.6673305 C26.006097,15.7147563 27.5457681,15.7099996 28.5073445,16.6715759 C29.4622634,17.6264948 29.4646907,19.1722969 28.5115899,20.1253976 L16.3998643,32.2371232 C15.8961782,32.7408093 15.2283455,32.9794947 14.5686246,32.9504422 C13.9386821,32.9551262 13.3077689,32.7174828 12.8274094,32.2371232 L0.715683783,20.1253976 C-0.236890412,19.1728234 -0.241647205,17.6331523 0.719929172,16.6715759 C1.67484803,15.7166571 3.2206501,15.7142298 4.17375087,16.6673305 L12.1684142,24.6619938 Z" transform="translate(13 12)"/>
</svg>
