<svg xmlns="http://www.w3.org/2000/svg" width="56" height="56" viewBox="0 0 56 56">
  <path fill-rule="evenodd" d="M28,56 C12.536027,56 0,43.463973 0,28 C0,12.536027 12.536027,0 28,0 C43.463973,0 56,12.536027 56,28 C56,43.463973 43.463973,56 28,56 Z M25.9528065,35.1715729 L19.4138002,28.6325666 C18.6342387,27.853005 17.3698941,27.8549904 16.5888455,28.636039 C15.8023516,29.4225329 15.8062423,30.6818629 16.5853731,31.4609937 L26.4918128,41.3674334 C26.8847092,41.7603298 27.4007466,41.9547034 27.91599,41.9508723 C28.4555899,41.974635 29.0018246,41.7794091 29.4138002,41.3674334 L39.3202399,31.4609937 C40.0998015,30.6814322 40.0978161,29.4170876 39.3167675,28.636039 C38.5302736,27.8495451 37.2709437,27.8534357 36.4918128,28.6325666 L29.9528065,35.1715729 L29.9528065,17.0008642 C29.9528065,15.9016273 29.057376,15 27.9528065,15 C26.8405362,15 25.9528065,15.8958174 25.9528065,17.0008642 L25.9528065,35.1715729 Z"/>
</svg>
