<svg xmlns="http://www.w3.org/2000/svg" width="56" height="56" viewBox="0 0 56 56">
  <path fill-rule="evenodd" d="M17.5599022,12.7991607 C14.8533007,12.7991607 13.2249389,14.9730216 13.2249389,18.6330935 C13.2249389,22.248801 14.8533007,24.4670264 17.5378973,24.4670264 C20.3105134,24.4670264 22.0929095,22.2044365 22.0929095,18.6330935 C22.0929095,15.0617506 20.3325183,12.7991607 17.5599022,12.7991607 Z M18.3300733,0 C28.6283619,0 36,6.56594724 36,16.3705036 C36,23.4466427 32.8312958,28.0827338 27.594132,28.0827338 C25.0195599,28.0827338 22.8850856,26.6408873 22.5330073,24.4448441 L22.3129584,24.4448441 C21.3887531,26.6852518 19.408313,27.927458 16.8337408,27.927458 C12.2567237,27.927458 9.17603912,24.1564748 9.17603912,18.5221823 C9.17603912,13.1318945 12.2787286,9.40527578 16.7457213,9.40527578 C19.1002445,9.40527578 21.190709,10.6252998 22.0268949,12.5329736 L22.2689487,12.5329736 L22.2689487,9.84892086 L25.9877751,9.84892086 L25.9877751,22.4484412 C25.9877751,23.91247 26.7579462,24.9106715 28.3422983,24.9106715 C30.7848411,24.9106715 32.5672372,21.8495204 32.5672372,16.4814149 C32.5672372,8.40707434 26.6919315,3.06115108 18.0880196,3.06115108 C9.55012225,3.06115108 3.43276284,9.4940048 3.43276284,18.6330935 C3.43276284,28.4154676 9.90220049,33.9166667 18.8361858,33.9166667 C21.5647922,33.9166667 24.3594132,33.5395683 25.7237164,32.9628297 L25.7237164,36.0239808 C23.8533007,36.6450839 21.3667482,37 18.6821516,37 C7.81173594,37 0,30.2565947 0,18.5 C0,7.45323741 7.52567237,0 18.3300733,0 Z" transform="translate(10 10)"/>
</svg>
