<?xml version="1.0" encoding="UTF-8"?>
<svg width="50px" height="50px" viewBox="0 0 50 50" version="1.1" xmlns="http://www.w3.org/2000/svg" xmlns:xlink="http://www.w3.org/1999/xlink">
    <!-- Generator: Sketch 40.1 (33804) - http://www.bohemiancoding.com/sketch -->
    <title>at</title>
    <desc>Created with Sketch.</desc>
    <defs></defs>
    <g id="Page-1" stroke="none" stroke-width="1" fill="none" fill-rule="evenodd">
        <g id="at" fill="#000000">
            <path d="M48,25 C48,12.2974508 37.7025492,2 25,2 C12.2974508,2 2,12.2974508 2,25 C2,37.7025492 12.2974508,48 25,48 C37.7025492,48 48,37.7025492 48,25 Z M0,25 C0,11.1928813 11.1928813,0 25,0 C38.8071187,0 50,11.1928813 50,25 C50,38.8071187 38.8071187,50 25,50 C11.1928813,50 0,38.8071187 0,25 Z" id="Oval-43"></path>
            <path d="M24.9042969,19.28125 C27.5234375,19.28125 29.1582031,21.3730469 29.1582031,24.6777344 C29.1582031,28.0351562 27.4882812,30.2148438 24.8867188,30.2148438 C22.3378906,30.2148438 20.703125,28.0703125 20.703125,24.765625 C20.703125,21.4433594 22.3554688,19.28125 24.9042969,19.28125 L24.9042969,19.28125 Z M25.4667969,10 C16.9941406,10 11,15.9589844 11,24.5898438 C11,33.8007812 17.1171875,39.2851562 25.6425781,39.2851562 C27.9980469,39.2851562 30.0722656,39.0039062 31.4960938,38.5117188 L31.4960938,36.7714844 C30.3007812,37.2460938 28.0332031,37.5449219 25.6601562,37.5449219 C18.3125,37.5449219 12.9335938,32.7285156 12.9335938,24.6601562 C12.9335938,17.1367188 18.1542969,11.7402344 25.3085938,11.7402344 C32.5683594,11.7402344 37.6132812,16.328125 37.6132812,23.0429688 C37.6132812,27.7714844 36.0136719,30.4609375 33.6757812,30.4609375 C32.0761719,30.4609375 31.2324219,29.40625 31.2324219,27.8066406 L31.2324219,17.7519531 L29.1933594,17.7519531 L29.1933594,20.2304688 L29.0703125,20.2304688 C28.4199219,18.5078125 26.6445312,17.4003906 24.6054688,17.4003906 C21.0195312,17.4003906 18.5234375,20.3886719 18.5234375,24.7128906 C18.5234375,29.1425781 20.984375,32.1308594 24.6054688,32.1308594 C26.7851562,32.1308594 28.4199219,31.0234375 29.2109375,29.0195312 L29.3339844,29.0195312 C29.5976562,30.9882812 31.25,32.2539062 33.3417969,32.2539062 C37.2089844,32.2539062 39.5292969,28.6679688 39.5292969,23.078125 C39.5292969,15.2910156 33.6757812,10 25.4667969,10 L25.4667969,10 Z" id="@"></path>
        </g>
    </g>
</svg>