<svg xmlns="http://www.w3.org/2000/svg" width="56" height="56" viewBox="0 0 56 56">
  <g fill-rule="evenodd">
    <path fill-rule="nonzero" d="M28,52 C41.254834,52 52,41.254834 52,28 C52,14.745166 41.254834,4 28,4 C14.745166,4 4,14.745166 4,28 C4,41.254834 14.745166,52 28,52 Z M28,56 C12.536027,56 0,43.463973 0,28 C0,12.536027 12.536027,0 28,0 C43.463973,0 56,12.536027 56,28 C56,43.463973 43.463973,56 28,56 Z"/>
    <path d="M27.8066406,23.7060547 C25.5244141,23.7060547 24.1513672,25.5244141 24.1513672,28.5859375 C24.1513672,31.6103516 25.5244141,33.4658203 27.7880859,33.4658203 C30.1259766,33.4658203 31.6289062,31.5732422 31.6289062,28.5859375 C31.6289062,25.5986328 30.1445312,23.7060547 27.8066406,23.7060547 Z M28.4560547,13 C37.1396484,13 43.3554688,18.4921875 43.3554688,26.6933594 C43.3554688,32.6123047 40.6835938,36.4902344 36.2675781,36.4902344 C34.0966797,36.4902344 32.296875,35.2841797 32,33.4472656 L31.8144531,33.4472656 C31.0351562,35.3212891 29.3652344,36.3603516 27.1943359,36.3603516 C23.3349609,36.3603516 20.7373047,33.2060547 20.7373047,28.4931641 C20.7373047,23.984375 23.3535156,20.8671875 27.1201172,20.8671875 C29.1054688,20.8671875 30.8681641,21.8876953 31.5732422,23.4833984 L31.7773438,23.4833984 L31.7773438,21.2382812 L34.9130859,21.2382812 L34.9130859,31.7773438 C34.9130859,33.0019531 35.5625,33.8369141 36.8984375,33.8369141 C38.9580078,33.8369141 40.4609375,31.2763672 40.4609375,26.7861328 C40.4609375,20.0322266 35.5068359,15.5605469 28.2519531,15.5605469 C21.0527344,15.5605469 15.8945312,20.9414062 15.8945312,28.5859375 C15.8945312,36.7685547 21.3496094,41.3701172 28.8828125,41.3701172 C31.1835938,41.3701172 33.5400391,41.0546875 34.6904297,40.5722656 L34.6904297,43.1328125 C33.1132812,43.6523438 31.0166016,43.9492188 28.7529297,43.9492188 C19.5869141,43.9492188 13,38.3085938 13,28.4746094 C13,19.234375 19.3457031,13 28.4560547,13 Z"/>
  </g>
</svg>
