<svg xmlns="http://www.w3.org/2000/svg" width="56" height="56" viewBox="0 0 56 56">
  <path fill-rule="evenodd" d="M28,56 C12.536027,56 0,43.463973 0,28 C0,12.536027 12.536027,0 28,0 C43.463973,0 56,12.536027 56,28 C56,43.463973 43.463973,56 28,56 Z M27.8066406,23.7060547 C30.1445312,23.7060547 31.6289062,25.5986328 31.6289062,28.5859375 C31.6289062,31.5732422 30.1259766,33.4658203 27.7880859,33.4658203 C25.5244141,33.4658203 24.1513672,31.6103516 24.1513672,28.5859375 C24.1513672,25.5244141 25.5244141,23.7060547 27.8066406,23.7060547 Z M28.4560547,13 C19.3457031,13 13,19.234375 13,28.4746094 C13,38.3085938 19.5869141,43.9492188 28.7529297,43.9492188 C31.0166016,43.9492188 33.1132812,43.6523438 34.6904297,43.1328125 L34.6904297,40.5722656 C33.5400391,41.0546875 31.1835938,41.3701172 28.8828125,41.3701172 C21.3496094,41.3701172 15.8945312,36.7685547 15.8945312,28.5859375 C15.8945312,20.9414062 21.0527344,15.5605469 28.2519531,15.5605469 C35.5068359,15.5605469 40.4609375,20.0322266 40.4609375,26.7861328 C40.4609375,31.2763672 38.9580078,33.8369141 36.8984375,33.8369141 C35.5625,33.8369141 34.9130859,33.0019531 34.9130859,31.7773438 L34.9130859,21.2382812 L31.7773438,21.2382812 L31.7773438,23.4833984 L31.5732422,23.4833984 C30.8681641,21.8876953 29.1054688,20.8671875 27.1201172,20.8671875 C23.3535156,20.8671875 20.7373047,23.984375 20.7373047,28.4931641 C20.7373047,33.2060547 23.3349609,36.3603516 27.1943359,36.3603516 C29.3652344,36.3603516 31.0351562,35.3212891 31.8144531,33.4472656 L32,33.4472656 C32.296875,35.2841797 34.0966797,36.4902344 36.2675781,36.4902344 C40.6835938,36.4902344 43.3554688,32.6123047 43.3554688,26.6933594 C43.3554688,18.4921875 37.1396484,13 28.4560547,13 Z"/>
</svg>
