<?xml version="1.0" encoding="UTF-8"?>
<svg width="42px" height="51px" viewBox="0 0 42 51" version="1.1" xmlns="http://www.w3.org/2000/svg" xmlns:xlink="http://www.w3.org/1999/xlink">
    <!-- Generator: Sketch 40.1 (33804) - http://www.bohemiancoding.com/sketch -->
    <title>bag</title>
    <desc>Created with Sketch.</desc>
    <defs></defs>
    <g id="Page-1" stroke="none" stroke-width="1" fill="none" fill-rule="evenodd">
        <g id="bag" transform="translate(0.000000, 1.000000)" fill="#000000">
            <path d="M0,15.0053221 C0,12.240959 2.24325385,10 5.00365614,10 L36.9963439,10 C39.7597868,10 42,12.2362844 42,15.0053221 L42,44.9946779 C42,47.759041 39.7567461,50 36.9963439,50 L5.00365614,50 C2.24021316,50 0,47.7637156 0,44.9946779 L0,15.0053221 Z M2,15.0074199 C2,13.3464677 3.35244012,12 4.99765987,12 L37.0023401,12 C38.657902,12 40,13.3455393 40,15.0074199 L40,44.9925801 C40,46.6535323 38.6475599,48 37.0023401,48 L4.99765987,48 C3.34209804,48 2,46.6544607 2,44.9925801 L2,15.0074199 Z" id="Combined-Shape"></path>
            <path d="M12.0385877,9.96998322 C12.0821042,9.68435049 12.1451879,9.36332566 12.2312894,9.01617333 C12.4776454,8.0228926 12.8567646,7.03033616 13.3924775,6.11124466 C14.8990528,3.52650114 17.3222538,2 21,2 C24.6777462,2 27.1009472,3.52650114 28.6075225,6.11124466 C29.1432354,7.03033616 29.5223546,8.0228926 29.7687106,9.01617333 C29.8548121,9.36332566 29.9178958,9.68435049 29.9614123,9.96998322 C29.9865337,10.1348748 29.9992695,10.2465113 30.0032322,10.2956788 L30.0835693,11.2924466 L32.0771048,11.1317724 L31.9967678,10.1350047 C31.9694401,9.7959412 31.8846145,9.23916435 31.7098954,8.53471586 C31.4205611,7.36815087 30.9747005,6.20086159 30.3354269,5.10409708 C28.4848978,1.92925201 25.4223614,0 21,0 C16.5776386,2.22044605e-16 13.5151022,1.92925201 11.6645731,5.10409708 C11.0252995,6.20086159 10.5794389,7.36815087 10.2901046,8.53471586 C10.1153855,9.23916435 10.0305599,9.7959412 10.0032322,10.1350047 L9.92289518,11.1317724 L11.9164307,11.2924466 L11.9967678,10.2956788 C12.0007305,10.2465113 12.0134663,10.1348748 12.0385877,9.96998322 Z" id="Line"></path>
        </g>
    </g>
</svg>