<svg xmlns="http://www.w3.org/2000/svg" width="56" height="56" viewBox="0 0 56 56">
  <path fill-rule="evenodd" d="M10,10 C10,4.4771525 14.9248678,0 21,0 C27.0751322,0 32,4.4771525 32,10 L34.0012616,10 C38.4188428,10 42,13.5749477 42,18.0007951 L42,39.9992049 C42,44.417922 38.4191036,48 34.0012616,48 L7.99873844,48 C3.58115718,48 0,44.4250523 0,39.9992049 L0,18.0007951 C0,13.582078 3.58089638,10 7.99873844,10 L10,10 Z M13,10 L29,10 C29,6.2011775 25.4787047,3 21,3 C16.5212953,3 13,6.2011775 13,10 Z M4,17.9992748 L4,40.0007252 C4,42.2132053 5.79095608,44 8.00021236,44 L33.9997876,44 C36.2079681,44 38,42.2094637 38,40.0007252 L38,17.9992748 C38,15.7867947 36.2090439,14 33.9997876,14 L8.00021236,14 C5.79203193,14 4,15.7905363 4,17.9992748 Z" transform="translate(7 4)"/>
</svg>
