<?xml version="1.0" encoding="UTF-8"?>
<svg width="42px" height="50px" viewBox="0 0 42 50" version="1.1" xmlns="http://www.w3.org/2000/svg" xmlns:xlink="http://www.w3.org/1999/xlink">
    <!-- Generator: Sketch 40.1 (33804) - http://www.bohemiancoding.com/sketch -->
    <title>bag_fill</title>
    <desc>Created with Sketch.</desc>
    <defs></defs>
    <g id="Page-1" stroke="none" stroke-width="1" fill="none" fill-rule="evenodd">
        <g id="bag-fill" transform="translate(0.000000, -1.000000)" fill="#000000">
            <path d="M5.00365614,11 L36.9963439,11 C39.7597868,11 42,13.2362844 42,16.0053221 L42,45.9946779 C42,48.759041 39.7567461,51 36.9963439,51 L5.00365614,51 C2.24021316,51 0,48.7637156 0,45.9946779 L0,16.0053221 C0,13.240959 2.24325385,11 5.00365614,11 Z" id="Combined-Shape"></path>
            <path d="M12.0385877,10.7546415 C12.0821042,10.4690087 12.1451879,10.1479839 12.2312894,9.80083159 C12.4776454,8.80755085 12.8567646,7.81499442 13.3924775,6.89590292 C14.8990528,4.3111594 17.3222538,2.78465826 21,2.78465826 C24.6777462,2.78465826 27.1009472,4.3111594 28.6075225,6.89590292 C29.1432354,7.81499442 29.5223546,8.80755085 29.7687106,9.80083159 C29.8548121,10.1479839 29.9178958,10.4690087 29.9614123,10.7546415 C29.9865337,10.9195331 29.9992695,11.0311695 30.0032322,11.0803371 L30.0835693,12.0771048 L32.0771048,11.9164307 L31.9967678,10.9196629 C31.9694401,10.5805995 31.8846145,10.0238226 31.7098954,9.31937412 C31.4205611,8.15280913 30.9747005,6.98551985 30.3354269,5.88875534 C28.4848978,2.71391027 25.4223614,0.784658259 21,0.784658259 C16.5776386,0.784658259 13.5151022,2.71391027 11.6645731,5.88875534 C11.0252995,6.98551985 10.5794389,8.15280913 10.2901046,9.31937412 C10.1153855,10.0238226 10.0305599,10.5805995 10.0032322,10.9196629 L9.92289518,11.9164307 L11.9164307,12.0771048 L11.9967678,11.0803371 C12.0007305,11.0311695 12.0134663,10.9195331 12.0385877,10.7546415 Z" id="Line"></path>
        </g>
    </g>
</svg>