<svg xmlns="http://www.w3.org/2000/svg" width="56" height="56" viewBox="0 0 56 56">
  <g fill-rule="evenodd" transform="translate(3 10)">
    <path fill-rule="nonzero" d="M4,6 L4,30 C4,31.1045695 4.8954305,32 6,32 L44,32 C45.1045695,32 46,31.1045695 46,30 L46,6 C46,4.8954305 45.1045695,4 44,4 L6,4 C4.8954305,4 4,4.8954305 4,6 Z M4,0 L46,0 C48.209139,-4.05812251e-16 50,1.790861 50,4 L50,32 C50,34.209139 48.209139,36 46,36 L4,36 C1.790861,36 2.705415e-16,34.209139 0,32 L0,4 C-2.705415e-16,1.790861 1.790861,4.05812251e-16 4,0 Z"/>
    <polygon points="8 8 12 8 12 28 8 28"/>
    <polygon points="15 8 17 8 17 28 15 28"/>
    <polygon points="20 8 23 8 23 28 20 28"/>
    <polygon points="26 8 30 8 30 28 26 28"/>
    <polygon points="33 8 34 8 34 28 33 28"/>
    <polygon points="37 8 42 8 42 28 37 28"/>
  </g>
</svg>
