<?xml version="1.0" encoding="UTF-8"?>
<svg width="56px" height="56px" viewBox="0 0 56 56" version="1.1" xmlns="http://www.w3.org/2000/svg" xmlns:xlink="http://www.w3.org/1999/xlink">
    <!-- Generator: Sketch 52.1 (67048) - http://www.bohemiancoding.com/sketch -->
    <title>barcode</title>
    <desc>Created with Sketch.</desc>
    <g id="Page-1" stroke="none" stroke-width="1" fill="none" fill-rule="evenodd">
        <g id="barcode" transform="translate(3.000000, 10.000000)" fill="#000000">
            <path d="M4,6 L4,30 C4,31.1045695 4.8954305,32 6,32 L44,32 C45.1045695,32 46,31.1045695 46,30 L46,6 C46,4.8954305 45.1045695,4 44,4 L6,4 C4.8954305,4 4,4.8954305 4,6 Z M4,0 L46,0 C48.209139,-4.05812251e-16 50,1.790861 50,4 L50,32 C50,34.209139 48.209139,36 46,36 L4,36 C1.790861,36 2.705415e-16,34.209139 0,32 L0,4 C-2.705415e-16,1.790861 1.790861,4.05812251e-16 4,0 Z" id="Shape" fill-rule="nonzero"></path>
            <polygon id="Rectangle" points="8 8 12 8 12 28 8 28"></polygon>
            <polygon id="Rectangle-Copy-2" points="15 8 17 8 17 28 15 28"></polygon>
            <polygon id="Rectangle-Copy-3" points="20 8 23 8 23 28 20 28"></polygon>
            <polygon id="Rectangle-Copy-19" points="26 8 30 8 30 28 26 28"></polygon>
            <polygon id="Rectangle-Copy-20" points="33 8 34 8 34 28 33 28"></polygon>
            <polygon id="Rectangle-Copy-21" points="37 8 42 8 42 28 37 28"></polygon>
        </g>
    </g>
</svg>