<svg xmlns="http://www.w3.org/2000/svg" width="56" height="56" viewBox="0 0 56 56">
  <path d="M4,0 L42,0 C44.209139,-4.05812251e-16 46,1.790861 46,4 L46,42 C46,44.209139 44.209139,46 42,46 L4,46 C1.790861,46 2.705415e-16,44.209139 0,42 L0,4 C-2.705415e-16,1.790861 1.790861,4.05812251e-16 4,0 Z M13,17 C11.8954305,17 11,17.8954305 11,19 L11,33 C11,34.1045695 11.8954305,35 13,35 L15,35 C16.1045695,35 17,34.1045695 17,33 L17,19 C17,17.8954305 16.1045695,17 15,17 L13,17 Z M22,11 C20.8954305,11 20,11.8954305 20,13 L20,33 C20,34.1045695 20.8954305,35 22,35 L24,35 C25.1045695,35 26,34.1045695 26,33 L26,13 C26,11.8954305 25.1045695,11 24,11 L22,11 Z M31,23 C29.8954305,23 29,23.8954305 29,25 L29,33 C29,34.1045695 29.8954305,35 31,35 L33,35 C34.1045695,35 35,34.1045695 35,33 L35,25 C35,23.8954305 34.1045695,23 33,23 L31,23 Z" transform="translate(5 5)"/>
</svg>
