<svg xmlns="http://www.w3.org/2000/svg" width="56" height="56" viewBox="0 0 56 56">
  <g fill-rule="evenodd">
    <path fill-rule="nonzero" d="M28,52 C41.254834,52 52,41.254834 52,28 C52,14.745166 41.254834,4 28,4 C14.745166,4 4,14.745166 4,28 C4,41.254834 14.745166,52 28,52 Z M28,56 C12.536027,56 0,43.463973 0,28 C0,12.536027 12.536027,0 28,0 C43.463973,0 56,12.536027 56,28 C56,43.463973 43.463973,56 28,56 Z"/>
    <path d="M18 22L20 22C21.1045695 22 22 22.8954305 22 24L22 38C22 39.1045695 21.1045695 40 20 40L18 40C16.8954305 40 16 39.1045695 16 38L16 24C16 22.8954305 16.8954305 22 18 22zM27 16L29 16C30.1045695 16 31 16.8954305 31 18L31 38C31 39.1045695 30.1045695 40 29 40L27 40C25.8954305 40 25 39.1045695 25 38L25 18C25 16.8954305 25.8954305 16 27 16zM36 28L38 28C39.1045695 28 40 28.8954305 40 30L40 38C40 39.1045695 39.1045695 40 38 40L36 40C34.8954305 40 34 39.1045695 34 38L34 30C34 28.8954305 34.8954305 28 36 28z"/>
  </g>
</svg>
