<?xml version="1.0" encoding="UTF-8"?>
<svg width="56px" height="56px" viewBox="0 0 56 56" version="1.1" xmlns="http://www.w3.org/2000/svg" xmlns:xlink="http://www.w3.org/1999/xlink">
    <!-- Generator: Sketch 52.1 (67048) - http://www.bohemiancoding.com/sketch -->
    <title>bars_chart_square</title>
    <desc>Created with Sketch.</desc>
    <g id="Page-1" stroke="none" stroke-width="1" fill="none" fill-rule="evenodd">
        <g id="bars_chart_square" transform="translate(5.000000, 5.000000)" fill="#000000">
            <path d="M4,6 L4,40 C4,41.1045695 4.8954305,42 6,42 L40,42 C41.1045695,42 42,41.1045695 42,40 L42,6 C42,4.8954305 41.1045695,4 40,4 L6,4 C4.8954305,4 4,4.8954305 4,6 Z M4,0 L42,0 C44.209139,-4.05812251e-16 46,1.790861 46,4 L46,42 C46,44.209139 44.209139,46 42,46 L4,46 C1.790861,46 2.705415e-16,44.209139 0,42 L0,4 C-2.705415e-16,1.790861 1.790861,4.05812251e-16 4,0 Z" id="Shape" fill-rule="nonzero"></path>
            <path d="M13,17 L15,17 C16.1045695,17 17,17.8954305 17,19 L17,33 C17,34.1045695 16.1045695,35 15,35 L13,35 C11.8954305,35 11,34.1045695 11,33 L11,19 C11,17.8954305 11.8954305,17 13,17 Z" id="Rectangle"></path>
            <path d="M22,11 L24,11 C25.1045695,11 26,11.8954305 26,13 L26,33 C26,34.1045695 25.1045695,35 24,35 L22,35 C20.8954305,35 20,34.1045695 20,33 L20,13 C20,11.8954305 20.8954305,11 22,11 Z" id="Rectangle-Copy-15"></path>
            <path d="M31,23 L33,23 C34.1045695,23 35,23.8954305 35,25 L35,33 C35,34.1045695 34.1045695,35 33,35 L31,35 C29.8954305,35 29,34.1045695 29,33 L29,25 C29,23.8954305 29.8954305,23 31,23 Z" id="Rectangle-Copy-16"></path>
        </g>
    </g>
</svg>