<svg xmlns="http://www.w3.org/2000/svg" width="56" height="56" viewBox="0 0 56 56">
  <path d="M28,56 C12.536027,56 0,43.463973 0,28 C0,12.536027 12.536027,0 28,0 C43.463973,0 56,12.536027 56,28 C56,43.463973 43.463973,56 28,56 Z M18,22 C16.8954305,22 16,22.8954305 16,24 L16,38 C16,39.1045695 16.8954305,40 18,40 L20,40 C21.1045695,40 22,39.1045695 22,38 L22,24 C22,22.8954305 21.1045695,22 20,22 L18,22 Z M27,16 C25.8954305,16 25,16.8954305 25,18 L25,38 C25,39.1045695 25.8954305,40 27,40 L29,40 C30.1045695,40 31,39.1045695 31,38 L31,18 C31,16.8954305 30.1045695,16 29,16 L27,16 Z M36,28 C34.8954305,28 34,28.8954305 34,30 L34,38 C34,39.1045695 34.8954305,40 36,40 L38,40 C39.1045695,40 40,39.1045695 40,38 L40,30 C40,28.8954305 39.1045695,28 38,28 L36,28 Z"/>
</svg>
