<svg xmlns="http://www.w3.org/2000/svg" width="56" height="56" viewBox="0 0 56 56">
  <path fill-rule="evenodd" d="M0 2C0 .8954305.891539827 0 1.99729162 0L38.0027084 0C39.1057821 0 40 .887729645 40 2 40 3.1045695 39.1084602 4 38.0027084 4L1.99729162 4C.894217919 4 0 3.11227036 0 2zM0 12C0 10.8954305.891539827 10 1.99729162 10L38.0027084 10C39.1057821 10 40 10.8877296 40 12 40 13.1045695 39.1084602 14 38.0027084 14L1.99729162 14C.894217919 14 0 13.1122704 0 12zM0 22C0 20.8954305.891539827 20 1.99729162 20L38.0027084 20C39.1057821 20 40 20.8877296 40 22 40 23.1045695 39.1084602 24 38.0027084 24L1.99729162 24C.894217919 24 0 23.1122704 0 22z" transform="translate(8 16)"/>
</svg>
