<svg xmlns="http://www.w3.org/2000/svg" width="56" height="56" viewBox="0 0 56 56">
  <g fill-rule="evenodd" transform="translate(5 5)">
    <path fill-rule="nonzero" d="M4,6 L4,40 C4,41.1045695 4.8954305,42 6,42 L40,42 C41.1045695,42 42,41.1045695 42,40 L42,6 C42,4.8954305 41.1045695,4 40,4 L6,4 C4.8954305,4 4,4.8954305 4,6 Z M4,0 L42,0 C44.209139,-4.05812251e-16 46,1.790861 46,4 L46,42 C46,44.209139 44.209139,46 42,46 L4,46 C1.790861,46 2.705415e-16,44.209139 0,42 L0,4 C-2.705415e-16,1.790861 1.790861,4.05812251e-16 4,0 Z"/>
    <path d="M13 17L15 17C16.1045695 17 17 17.8954305 17 19L17 33C17 34.1045695 16.1045695 35 15 35L13 35C11.8954305 35 11 34.1045695 11 33L11 19C11 17.8954305 11.8954305 17 13 17zM22 11L24 11C25.1045695 11 26 11.8954305 26 13L26 33C26 34.1045695 25.1045695 35 24 35L22 35C20.8954305 35 20 34.1045695 20 33L20 13C20 11.8954305 20.8954305 11 22 11zM31 23L33 23C34.1045695 23 35 23.8954305 35 25L35 33C35 34.1045695 34.1045695 35 33 35L31 35C29.8954305 35 29 34.1045695 29 33L29 25C29 23.8954305 29.8954305 23 31 23z"/>
  </g>
</svg>
