<?xml version="1.0" encoding="UTF-8"?>
<svg width="56px" height="56px" viewBox="0 0 56 56" version="1.1" xmlns="http://www.w3.org/2000/svg" xmlns:xlink="http://www.w3.org/1999/xlink">
    <!-- Generator: Sketch 52.1 (67048) - http://www.bohemiancoding.com/sketch -->
    <title>bars</title>
    <desc>Created with Sketch.</desc>
    <g id="Page-1" stroke="none" stroke-width="1" fill="none" fill-rule="evenodd">
        <g id="bars" transform="translate(8.000000, 16.000000)" fill="#000000">
            <path d="M0,2 C0,0.8954305 0.891539827,0 1.99729162,0 L38.0027084,0 C39.1057821,0 40,0.887729645 40,2 C40,3.1045695 39.1084602,4 38.0027084,4 L1.99729162,4 C0.894217919,4 0,3.11227036 0,2 Z" id="Rectangle-39"></path>
            <path d="M0,12 C0,10.8954305 0.891539827,10 1.99729162,10 L38.0027084,10 C39.1057821,10 40,10.8877296 40,12 C40,13.1045695 39.1084602,14 38.0027084,14 L1.99729162,14 C0.894217919,14 0,13.1122704 0,12 Z" id="Rectangle-39"></path>
            <path d="M0,22 C0,20.8954305 0.891539827,20 1.99729162,20 L38.0027084,20 C39.1057821,20 40,20.8877296 40,22 C40,23.1045695 39.1084602,24 38.0027084,24 L1.99729162,24 C0.894217919,24 0,23.1122704 0,22 Z" id="Rectangle-39"></path>
        </g>
    </g>
</svg>