<?xml version="1.0" encoding="UTF-8"?>
<svg width="56px" height="56px" viewBox="0 0 56 56" version="1.1" xmlns="http://www.w3.org/2000/svg" xmlns:xlink="http://www.w3.org/1999/xlink">
    <!-- Generator: Sketch 52.1 (67048) - http://www.bohemiancoding.com/sketch -->
    <title>bell</title>
    <desc>Created with Sketch.</desc>
    <g id="Page-1" stroke="none" stroke-width="1" fill="none" fill-rule="evenodd">
        <g id="bell" transform="translate(6.000000, 3.000000)" fill="#000000" fill-rule="nonzero">
            <path d="M24,3.08921618 C34.2272681,4.03444895 38.6126818,12.4906375 37.156241,28.4577818 C37.0647462,29.4608882 37.3550669,30.461587 37.9692106,31.2599737 L43.2852829,38.1708677 C44.2954847,39.4841301 44.0498056,41.3676701 42.7365432,42.377872 C42.2121174,42.7812764 41.5690434,43 40.9074109,43 L3.09258911,43 C1.43573486,43 0.0925891077,41.6568542 0.0925891077,40 C0.0925891077,39.3383675 0.311312672,38.6952935 0.71471714,38.1708677 L6.03079216,31.2599631 C6.64493555,30.4615767 6.93525621,29.4608783 6.84375819,28.4577726 C5.3873199,12.4906342 9.77273383,4.03444877 20,3.08921618 L20,2 C20,0.8954305 20.8954305,2.02906125e-16 22,0 C23.1045695,-2.02906125e-16 24,0.8954305 24,2 L24,3.08921618 Z M7.15431263,39 L36.8456848,39 C37.3979696,39 37.8456848,38.5522847 37.8456848,38 C37.8456848,37.7794558 37.772777,37.5650978 37.6383088,37.3902892 L34.7987146,33.6988168 C33.5704296,32.1020463 32.9897878,30.1006533 33.1727781,28.0944308 C34.5328631,13.1836479 30.8514403,7 22,7 C13.1485612,7 9.4671385,13.1836453 10.8272211,28.0944221 C11.0102172,30.1006346 10.4295756,32.1020324 9.20128933,33.6988045 L6.36168834,37.3902896 C6.0249546,37.8280439 6.10684795,38.4558906 6.54460226,38.7926243 C6.7194108,38.9270923 6.93376863,39 7.15431263,39 Z" id="Shape"></path>
            <path d="M25.5,44 C26.2306834,44 26.8230192,44.5923359 26.8230192,45.3230192 C26.8230192,45.4044849 26.8154948,45.4857765 26.8005419,45.5658581 C26.7416109,45.8813874 26.6757458,46.1418324 26.6029321,46.3471904 C25.8415824,48.4944412 24.0673088,50 22,50 C19.7469958,50 17.8420346,48.2118208 17.2169438,45.7536553 C17.2066251,45.713077 17.196568,45.6699132 17.1867724,45.624164 C17.031491,44.8988916 17.4935507,44.1850557 18.2188211,44.0297649 C18.311239,44.0099769 18.4054875,44 18.5,44 C19.2906043,44 19.9854052,44.5241411 20.2025287,45.2843467 C20.2191353,45.3424714 20.236341,45.394928 20.2541508,45.4417152 C20.6194577,46.4013933 21.3236662,47 22,47 C22.6331439,47 23.2907162,46.4754048 23.6718145,45.6210877 C23.7099456,45.5356084 23.7460008,45.4314717 23.7799801,45.3086777 C23.9939764,44.5354173 24.6976746,44 25.5,44 Z" id="Path"></path>
        </g>
    </g>
</svg>