<?xml version="1.0" encoding="UTF-8"?>
<svg width="44px" height="50px" viewBox="0 0 44 50" version="1.1" xmlns="http://www.w3.org/2000/svg" xmlns:xlink="http://www.w3.org/1999/xlink">
    <!-- Generator: Sketch 40.1 (33804) - http://www.bohemiancoding.com/sketch -->
    <title>bell</title>
    <desc>Created with Sketch.</desc>
    <defs></defs>
    <g id="Page-1" stroke="none" stroke-width="1" fill="none" fill-rule="evenodd">
        <g id="bell">
            <path d="M20,3.09997559 C20,3.09997559 20,0.5 22,0.5 C24,0.5 24,3.09997559 24,3.09997559 C24,3.09997559 23,3.01000977 22,3.01000977 C21,3.01000977 20,3.09997559 20,3.09997559 Z" id="Rectangle-121" fill="#000000"></path>
            <path d="M1.5376551,40.1551134 C1.24071639,40.6217314 1.44339706,41 1.99708667,41 L42.0157317,41 C42.5664075,41 42.7714213,40.6213551 42.4741788,40.1551134 L37.6088822,32.5236222 C36.7203211,31.1298641 36.1578599,28.6749113 36.2899103,27.0174694 C36.2899103,27.0174694 40,4 22,4 C4,4 7.71008968,27.0174694 7.71008968,27.0174694 C7.87020273,28.6646756 7.2772423,31.1357621 6.3940586,32.5236222 L1.5376551,40.1551134 Z" id="Path-12" stroke="#000000" stroke-width="2"></path>
            <path d="M22,44 C27,44 27,49.4401242 27,49.4401242 L17,49.4401242 C17,49.4401242 17,44 22,44 Z" id="Triangle-8" fill="#000000" transform="translate(22.000000, 46.720062) scale(1, -1) translate(-22.000000, -46.720062) "></path>
        </g>
    </g>
</svg>