<svg xmlns="http://www.w3.org/2000/svg" width="56" height="56" viewBox="0 0 56 56">
  <g fill-rule="evenodd" transform="translate(6 3)">
    <path d="M40.5 43L12.5943768 5.79250241C14.5746167 4.26359123 17.0431578 3.36249582 20 3.08921618L20 2C20 .8954305 20.8954305 1.44137608e-14 22 1.42108547e-14 23.1045695 1.40079486e-14 24 .8954305 24 2L24 3.08921618C34.2272681 4.03444895 38.6126818 12.4906375 37.156241 28.4577818 37.0647462 29.4608882 37.3550669 30.461587 37.9692106 31.2599737L43.2852829 38.1708677C44.2954847 39.4841301 44.0498056 41.3676701 42.7365432 42.377872 42.2121174 42.7812764 41.5690434 43 40.9074109 43L40.5 43zM30.5 43L3.09258911 43C1.43573486 43 .0925891077 41.6568542.0925891077 40 .0925891077 39.3383675.311312672 38.6952935.71471714 38.1708677L6.03079216 31.2599631C6.64493555 30.4615767 6.93525621 29.4608783 6.84375819 28.4577726 6.25996864 22.0576055 6.61477578 16.8642056 7.9081796 12.8775728L30.5 43zM17 44C17 47.3137085 19.2385763 50 22 50 24.7614237 50 27 47.3137085 27 44"/>
    <path fill-rule="nonzero" d="M4.5,2 C5.3790481,1.33115905 6.63386011,1.50156562 7.30270105,2.38061372 L39.8806137,45.1972989 C40.5494547,46.076347 40.3790481,47.3311591 39.5,48 C38.6209519,48.6688409 37.3661399,48.4984344 36.6972989,47.6193863 L4.11938628,4.80270105 C3.45054533,3.92365295 3.6209519,2.66884095 4.5,2 Z"/>
  </g>
</svg>
