<?xml version="1.0" encoding="UTF-8"?>
<svg width="44px" height="50px" viewBox="0 0 44 50" version="1.1" xmlns="http://www.w3.org/2000/svg" xmlns:xlink="http://www.w3.org/1999/xlink">
    <!-- Generator: Sketch 40.1 (33804) - http://www.bohemiancoding.com/sketch -->
    <title>bell_fill</title>
    <desc>Created with Sketch.</desc>
    <defs></defs>
    <g id="Page-1" stroke="none" stroke-width="1" fill="none" fill-rule="evenodd">
        <g id="bell_fill" fill="#000000">
            <path d="M12.9779761,5.96307281 C15.4938318,3.59700432 20.1390169,3 21.5615581,3 C22.9840993,3 26.4924546,3.19595655 29.7777623,5.57634937 C38.872204,12.165791 36.2810553,20.9797657 36.2810553,28.6291355 C36.2810553,32.9788126 42.9530796,41.3099787 42.9530796,41.3099787 C43.2889706,41.7441133 43.1114486,42.096049 42.5595919,42.096049 L0.562936404,42.096049 C0.00972808639,42.096049 -0.159804639,41.7335667 0.162266372,41.3069774 C0.162266372,41.3069774 6.90540947,32.7256188 6.90540947,28.6291355 C6.90540947,20.391244 5.74823538,12.7623742 12.9779761,5.96307281 Z" id="Rectangle-49"></path>
            <path d="M22,44 C27,44 27,49.4401242 27,49.4401242 L17,49.4401242 C17,49.4401242 17,44 22,44 Z" id="Triangle-8" transform="translate(22.000000, 46.720062) scale(1, -1) translate(-22.000000, -46.720062) "></path>
            <path d="M22.0470858,0.5 C24.58184,0.5 24.0470858,3.59085912 24.0470858,3.59085912 L20.0470858,3.59085912 C20.0470858,3.59085912 19.5123316,0.5 22.0470858,0.5 Z" id="Triangle-8"></path>
        </g>
    </g>
</svg>