<?xml version="1.0" encoding="UTF-8"?>
<svg width="56px" height="56px" viewBox="0 0 56 56" version="1.1" xmlns="http://www.w3.org/2000/svg" xmlns:xlink="http://www.w3.org/1999/xlink">
    <!-- Generator: Sketch 52.1 (67048) - http://www.bohemiancoding.com/sketch -->
    <title>bell_fill</title>
    <desc>Created with Sketch.</desc>
    <g id="Page-1" stroke="none" stroke-width="1" fill="none" fill-rule="evenodd">
        <g id="bell_fill" transform="translate(6.000000, 3.000000)" fill="#000000">
            <path d="M24,3.08921618 C34.2272681,4.03444895 38.6126818,12.4906375 37.156241,28.4577818 C37.0647462,29.4608882 37.3550669,30.461587 37.9692106,31.2599737 L43.2852829,38.1708677 C44.2954847,39.4841301 44.0498056,41.3676701 42.7365432,42.377872 C42.2121174,42.7812764 41.5690434,43 40.9074109,43 L3.09258911,43 C1.43573486,43 0.0925891077,41.6568542 0.0925891077,40 C0.0925891077,39.3383675 0.311312672,38.6952935 0.71471714,38.1708677 L6.03079216,31.2599631 C6.64493555,30.4615767 6.93525621,29.4608783 6.84375819,28.4577726 C5.3873199,12.4906342 9.77273383,4.03444877 20,3.08921618 L20,2 C20,0.8954305 20.8954305,2.02906125e-16 22,0 C23.1045695,-2.02906125e-16 24,0.8954305 24,2 L24,3.08921618 Z" id="Path"></path>
            <path d="M17,44 C17,47.3137085 19.2385763,50 22,50 C24.7614237,50 27,47.3137085 27,44" id="Oval"></path>
        </g>
    </g>
</svg>