<?xml version="1.0" encoding="UTF-8"?>
<svg width="44px" height="50px" viewBox="0 0 44 50" version="1.1" xmlns="http://www.w3.org/2000/svg" xmlns:xlink="http://www.w3.org/1999/xlink">
    <!-- Generator: Sketch 40.1 (33804) - http://www.bohemiancoding.com/sketch -->
    <title>bell</title>
    <desc>Created with Sketch.</desc>
    <defs></defs>
    <g id="Page-1" stroke="none" stroke-width="1" fill="none" fill-rule="evenodd">
        <g id="bell" fill="#000000">
            <path d="M40.3003876,41.1265646 C39.4928598,40.030486 38.6853386,38.8642237 37.9287542,37.6728792 C37.257881,36.6164986 36.6580563,35.5881043 36.1469101,34.6012125 C34.954681,32.2993249 34.2810553,30.319689 34.2810553,28.6291355 C34.2810553,27.4219854 34.3231145,26.4879522 34.4552424,24.2514082 C34.5661415,22.3742059 34.6074168,21.4940737 34.6197967,20.4448761 C34.6914973,14.3681919 33.2144462,10.5362268 28.6042975,7.19591112 C26.3648024,5.57326924 23.940348,5 21.5615581,5 C19.3861413,5 15.9333074,5.92921396 14.3481539,7.4199917 C9.56153315,11.92163 8.69913728,15.7141414 8.87108675,25.625282 C8.89656668,27.0939412 8.90540947,27.7799461 8.90540947,28.6291355 C8.90540947,30.3373665 8.15438906,32.3942266 6.82768338,34.8536785 C6.35561372,35.728803 5.81648014,36.6395568 5.22268109,37.5755961 C4.46033547,38.7773249 3.64658152,39.9612198 2.83288861,41.0791165 C2.56126387,41.4522897 2.30775811,41.7930674 2.07801091,42.096049 C2.0488611,41.7819472 2.0336918,41.3920695 1.82668287,40.9740043 C1.61761735,40.5517858 1.31358607,40.3029606 1.009932,40.183567 C1.03105383,40.1548592 42.0257218,40.096049 42.0257218,40.096049 C42.0494456,40.1280388 42.0728212,40.1594938 42.0958358,40.1904021 C41.8025982,40.3108621 41.5093675,40.5548901 41.3016494,40.9688662 C41.0916193,41.3874501 41.0725458,41.7755454 41.1607766,42.096049 L41.0296058,42.096049 C40.8068147,41.8064234 40.5620433,41.4817166 40.3003876,41.1265646 L40.3003876,41.1265646 Z M24.0859366,3.21506991 C25.7248057,3.49684249 27.7920275,4.13757123 29.7777623,5.57634937 C38.872204,12.165791 36.2810553,20.9797657 36.2810553,28.6291355 C36.2810553,32.9788126 42.9530796,41.3099787 42.9530796,41.3099787 C43.2889706,41.7441133 43.1114486,42.096049 42.5595919,42.096049 L0.562936404,42.096049 C0.00972808639,42.096049 -0.159804639,41.7335667 0.162266372,41.3069774 C0.162266372,41.3069774 6.90540947,32.7256188 6.90540947,28.6291355 C6.90540947,20.391244 5.74823538,12.7623742 12.9779761,5.96307281 C14.8741509,4.17979106 17.9798878,3.4014233 20.0038344,3.1261729 C19.9691781,2.26321621 20.1326137,0.5 22.0470858,0.5 C24.0299347,0.5 24.1344342,2.39141469 24.0859366,3.21506991 L24.0859366,3.21506991 Z" id="Combined-Shape"></path>
            <path d="M22,44 C27,44 27,49.4401242 27,49.4401242 L17,49.4401242 C17,49.4401242 17,44 22,44 Z" id="Triangle-8" transform="translate(22.000000, 46.720062) scale(1, -1) translate(-22.000000, -46.720062) "></path>
        </g>
    </g>
</svg>