<svg xmlns="http://www.w3.org/2000/svg" width="56" height="56" viewBox="0 0 56 56">
  <path fill-rule="evenodd" d="M24 3.08921618C34.2272681 4.03444895 38.6126818 12.4906375 37.156241 28.4577818 37.0647462 29.4608882 37.3550669 30.461587 37.9692106 31.2599737L43.2852829 38.1708677C44.2954847 39.4841301 44.0498056 41.3676701 42.7365432 42.377872 42.2121174 42.7812764 41.5690434 43 40.9074109 43L3.09258911 43C1.43573486 43 .0925891077 41.6568542.0925891077 40 .0925891077 39.3383675.311312672 38.6952935.71471714 38.1708677L6.03079216 31.2599631C6.64493555 30.4615767 6.93525621 29.4608783 6.84375819 28.4577726 5.3873199 12.4906342 9.77273383 4.03444877 20 3.08921618L20 2C20 .8954305 20.8954305 2.02906125e-16 22 0 23.1045695-2.02906125e-16 24 .8954305 24 2L24 3.08921618zM17 44C17 47.3137085 19.2385763 50 22 50 24.7614237 50 27 47.3137085 27 44" transform="translate(6 3)"/>
</svg>
