<svg xmlns="http://www.w3.org/2000/svg" width="56" height="56" viewBox="0 0 56 56">
  <path fill-rule="evenodd" d="M28,56 C12.536027,56 0,43.463973 0,28 C0,12.536027 12.536027,0 28,0 C43.463973,0 56,12.536027 56,28 C56,43.463973 43.463973,56 28,56 Z M27.9069782,39.4701411 L27.9069782,43 L31.5426377,43 L31.5426377,39.4622642 L31.3317891,39.4622642 C36.0788676,39.3053043 39,36.8128821 39,32.9066738 C39,29.8712688 36.6481828,27.5986881 33.4470983,27.3603055 L33.4470983,27.2331681 C35.9459041,26.8676481 37.8730876,24.7698813 37.8730876,22.258918 C37.8730876,18.7467479 35.0966368,16.5377358 30.6706475,16.5377358 L31.5426377,16.5377358 L31.5426377,13 L27.9069782,13 L27.9069782,16.5377358 L24.9984507,16.5377358 L24.9984507,13 L21.3627913,13 L21.3627913,16.5377358 L17,16.5377358 L17,20.0754717 L20.4141114,20.0754717 L20.4141114,35.9245283 L17,35.9245283 L17,39.4622642 L20.4141114,39.4622642 L20.4141114,39.4701411 L21.3627913,39.4701411 L21.3627913,43 L24.9984507,43 L24.9984507,39.4701411 L27.9069782,39.4701411 Z M25,20 L29.2212766,20 C31.6212766,20 33,21.056 33,22.912 C33,24.864 31.4340426,26 28.693617,26 L25,26 L25,20 Z M25,36 L25,29 L29.3125,29 C32.3465909,29 34,30.202864 34,32.4582339 C34,34.7637232 32.3977273,36 29.4318182,36 L25,36 Z"/>
</svg>
