<svg xmlns="http://www.w3.org/2000/svg" width="56" height="56" viewBox="0 0 56 56">
  <g fill="none" fill-rule="evenodd">
    <path fill="#000" fill-rule="nonzero" d="M28,52 C41.254834,52 52,41.254834 52,28 C52,14.745166 41.254834,4 28,4 C14.745166,4 4,14.745166 4,28 C4,41.254834 14.745166,52 28,52 Z M28,56 C12.536027,56 0,43.463973 0,28 C0,12.536027 12.536027,0 28,0 C43.463973,0 56,12.536027 56,28 C56,43.463973 43.463973,56 28,56 Z"/>
    <path stroke="#000" stroke-width="3" d="M32.886416,13.0175296 L16.7240056,30.4543273 L24.4676249,30.4543273 C24.6857646,30.4543273 24.9029661,30.4828777 25.1136956,30.5392512 C26.4475053,30.8960662 27.239516,32.2665883 26.882701,33.600398 L24.1090643,43.9685255 L40.2872393,26.4412418 L32.5358231,26.4412418 C32.3164497,26.4412418 32.0980305,26.4123675 31.8861929,26.3553629 C30.5529106,25.996582 29.7629211,24.6248938 30.121702,23.2916116 L32.886416,13.0175296 Z"/>
  </g>
</svg>
