<svg xmlns="http://www.w3.org/2000/svg" width="56" height="56" viewBox="0 0 56 56">
  <path fill-rule="evenodd" d="M26.9429581,1.87582027 L22.3444866,18.7368826 C22.1991708,19.2697069 22.5133086,19.8194481 23.046133,19.9647638 C23.1318831,19.9881502 23.2203684,20 23.3092504,20 L35.6951622,20 C36.247447,20 36.6951622,20.4477153 36.6951622,21 C36.6951622,21.2536889 36.598743,21.4978954 36.4254337,21.6831571 L11.7480451,48.0624345 C11.3707478,48.4657523 10.7379343,48.4868461 10.3346166,48.1095488 C10.0642263,47.8566031 9.95572954,47.4749574 10.0526186,47.1175991 L14.6579266,30.1317192 C14.8024476,29.5986787 14.4874903,29.0494067 13.9544498,28.9048857 C13.8691468,28.8817579 13.7811542,28.8700408 13.6927715,28.8700408 L1.31146951,28.8700408 C0.759184759,28.8700408 0.311469509,28.4223256 0.311469509,27.8700408 C0.311469509,27.6156279 0.408438615,27.3707802 0.582631696,27.1853545 L25.2493565,0.928016483 C25.6274983,0.525490474 26.2603547,0.505723205 26.6628807,0.883865052 C26.9325819,1.13722833 27.0403228,1.51881635 26.9429581,1.87582027 Z" transform="translate(10 4)"/>
</svg>
