<?xml version="1.0" encoding="UTF-8"?>
<svg width="50px" height="50px" viewBox="0 0 50 50" version="1.1" xmlns="http://www.w3.org/2000/svg" xmlns:xlink="http://www.w3.org/1999/xlink">
    <!-- Generator: Sketch 40.1 (33804) - http://www.bohemiancoding.com/sketch -->
    <title>bolt_round</title>
    <desc>Created with Sketch.</desc>
    <defs></defs>
    <g id="Page-1" stroke="none" stroke-width="1" fill="none" fill-rule="evenodd">
        <g id="bolt_round">
            <polygon id="Path-6" stroke="#000000" stroke-width="2" points="25.9047619 22.7179487 34 22.7179487 24.2857143 41 25.9047619 28.2820513 17 28.2820513 28.3333333 10"></polygon>
            <path d="M50,25 C50,11.1928813 38.8071187,0 25,0 C11.1928813,0 0,11.1928813 0,25 C0,38.8071187 11.1928813,50 25,50 C38.8071187,50 50,38.8071187 50,25 Z M1.92307692,25 C1.92307692,12.2549673 12.2549673,1.92307692 25,1.92307692 C37.7450327,1.92307692 48.0769231,12.2549673 48.0769231,25 C48.0769231,37.7450327 37.7450327,48.0769231 25,48.0769231 C12.2549673,48.0769231 1.92307692,37.7450327 1.92307692,25 Z" id="Oval-17" fill="#000000"></path>
        </g>
    </g>
</svg>