<svg xmlns="http://www.w3.org/2000/svg" width="56" height="56" viewBox="0 0 56 56">
  <path fill-rule="evenodd" d="M28,56 C12.536027,56 0,43.463973 0,28 C0,12.536027 12.536027,0 28,0 C43.463973,0 56,12.536027 56,28 C56,43.463973 43.463973,56 28,56 Z M34.8605528,11.4538626 C34.9570174,11.095386 34.8469615,10.7129719 34.5747024,10.4606112 C34.1696572,10.0851691 33.5369471,10.1091672 33.161505,10.5142125 L14.8453924,30.2745292 C14.6740127,30.459422 14.5787918,30.7022235 14.5787918,30.9543273 C14.5787918,31.5066121 15.026507,31.9543273 15.5787918,31.9543273 L24.4676249,31.9543273 C24.5548808,31.9543273 24.6417614,31.9657475 24.7260532,31.9882969 C25.2595771,32.1310229 25.5763813,32.6792317 25.4336553,33.2127556 L22.1365381,45.537705 C22.0405445,45.8965385 22.1513572,46.2790136 22.4243078,46.5309546 C22.8301384,46.9055477 23.4627968,46.8802246 23.8373899,46.474394 L42.1640122,26.6195025 C42.334514,26.4347825 42.4291908,26.1926227 42.4291908,25.9412418 C42.4291908,25.3889571 41.9814756,24.9412418 41.4291908,24.9412418 L32.5358231,24.9412418 C32.4480737,24.9412418 32.360706,24.9296921 32.275971,24.9068902 C31.7426581,24.7633779 31.4266623,24.2147026 31.5701747,23.6813897 L34.8605528,11.4538626 Z"/>
</svg>
