<?xml version="1.0" encoding="UTF-8"?>
<svg width="25px" height="51px" viewBox="0 0 25 51" version="1.1" xmlns="http://www.w3.org/2000/svg" xmlns:xlink="http://www.w3.org/1999/xlink">
    <!-- Generator: Sketch 40.1 (33804) - http://www.bohemiancoding.com/sketch -->
    <title>bolt_fill</title>
    <desc>Created with Sketch.</desc>
    <defs></defs>
    <g id="Page-1" stroke="none" stroke-width="1" fill="none" fill-rule="evenodd">
        <g id="bolt_fill" fill="#000000">
            <path d="M13.9828722,22.1842885 L16.9828722,6.18428854 L17.9914901,0.804993172 L15.1458014,5.48005305 L1.14580144,28.4800531 L0.220616346,30 L2,30 L13,30 L12.0077221,28.8759653 L10.0077221,44.8759653 L9.31932416,50.383149 L11.8865848,45.462566 L23.8865848,22.462566 L24.6496628,21 L23,21 L13,21 L13.9828722,22.1842885 Z" id="Path-6"></path>
            <path d="M23,23 L22.1134152,21.537434 L10.1134152,44.537434 L11.9922779,45.1240347 L13.9922779,29.1240347 L14.1327822,28 L13,28 L2,28 L2.85419856,29.5199469 L16.8541986,6.51994695 L15.0171278,5.81571146 L12.0171278,21.8157115 L11.7950737,23 L13,23 L23,23 Z M13.9828722,22.1842885 L16.9828722,6.18428854 L17.9914901,0.804993172 L15.1458014,5.48005305 L1.14580144,28.4800531 L0.220616346,30 L2,30 L13,30 L12.0077221,28.8759653 L10.0077221,44.8759653 L9.31932416,50.383149 L11.8865848,45.462566 L23.8865848,22.462566 L24.6496628,21 L23,21 L13,21 L13.9828722,22.1842885 Z" id="Path-6"></path>
        </g>
    </g>
</svg>