<svg xmlns="http://www.w3.org/2000/svg" width="56" height="56" viewBox="0 0 56 56">
  <path fill-rule="evenodd" d="M46,39.9570458 L46,10.3657331 C46,9.36475727 45.91,8.5848874 44.7547273,7.65761356 C42.6307273,5.96932384 39.8325455,4.9992 37.0834545,4.9992 C33.8778182,4.9992 30.1434545,6.24356379 28.3827273,8.50261542 C27.5121818,9.97665517 27,10.837083 27,15.3346183 L27,39.5621436 C27,40.6518655 27.568756,40.8689396 28.2703521,40.0233688 C28.2703521,40.0233688 28.188,39.9586763 29.1174545,39.2062305 C30.4510909,38.0749906 33.1627273,37.4956587 35.1901818,37.4956587 C38.2519525,37.4956587 41.798676,38.8487363 45.0330793,41.2285944 C45.2854685,41.4169809 46,41.0617004 46,39.9570458 Z M14.8098182,37.4956587 C16.8372727,37.4956587 19.5489091,38.0749906 20.8972727,39.2165145 C21.8201818,39.9655323 21.7273061,40.0172267 21.7273061,40.0172267 C22.4428382,40.843396 23,40.6591306 23,39.5589761 L23,15.3346183 C23,10.837083 22.4878182,9.97665517 21.5567273,8.41348743 C19.8581818,6.24356379 16.1221818,4.9992 12.9165455,4.9992 C10.1658182,4.9992 7.36927273,5.96932384 5.242,7.66104156 C4.09,8.5848874 4,9.36475727 4,10.3657331 L4,39.9570458 C4,41.0626172 4.34933013,41.6936705 4.78025068,41.3685905 C8.06750289,38.9002038 11.6903601,37.4956587 14.8098182,37.4956587 Z M37.102,0.9992 C40.89,0.9992 44.75,2.2792 47.692,4.5112 C49.822,6.1432 50,7.8192 50,9.2612 L50,45.0352 C50,46.5592 49.088,47.0992 48.308,47.0992 C47.746,47.0992 47.148,46.8492 46.476,46.3332 C42.7,43.4652 38.328,41.7512 34.788,41.7512 C32.78,41.7512 31.112,42.2792 29.828,43.3152 C27.708,44.9552 26.866,46.8772 26.306,48.1452 C25.964,48.9252 25.078,48.9992 25,48.9852 C24.922,48.9992 24.036,48.9252 23.722,48.2072 C23.136,46.8772 22.292,44.9552 20.188,43.3312 C18.888,42.2792 17.22,41.7512 15.212,41.7512 C11.672,41.7512 7.3,43.4652 3.518,46.3352 C2.216,47.3392 0.964,47.2972 0.358,46.4032 C0.12,46.0512 0,45.5912 0,45.0352 L0,9.2612 C0,7.8192 0.178,6.1432 2.304,4.5132 C5.25,2.2792 9.108,0.9992 12.898,0.9992 C17.362,0.9992 21.358,2.7572 23.86,5.8212 C24.314,6.5452 24.686,7.1872 24.996,7.8932 C25.29,7.2152 25.642,6.6032 26.064,5.9252 C28.642,2.7572 32.638,0.9992 37.102,0.9992 Z" transform="translate(3 3)"/>
</svg>
