<svg xmlns="http://www.w3.org/2000/svg" width="56" height="56" viewBox="0 0 56 56">
  <path fill-rule="evenodd" d="M4,0 L26,0 C28.209139,-4.05812251e-16 30,1.790861 30,4 L30,47.6200756 C30,48.7246451 29.1045695,49.6200756 28,49.6200756 C27.5188168,49.6200756 27.0537638,49.4465953 26.6901389,49.1314537 L16.3098611,40.1352129 C15.5581352,39.4837172 14.4418648,39.4837172 13.6901389,40.1352129 L3.30986108,49.1314537 C2.47514996,49.85487 1.21203813,49.7646478 0.488621834,48.9299366 C0.173480272,48.5663118 -2.22836886e-15,48.1012588 -3.99680289e-15,47.6200756 L0,4 C-2.705415e-16,1.790861 1.790861,4.05812251e-16 4,0 Z" transform="translate(13 3)"/>
</svg>
