<?xml version="1.0" encoding="UTF-8"?>
<svg width="56px" height="56px" viewBox="0 0 56 56" version="1.1" xmlns="http://www.w3.org/2000/svg" xmlns:xlink="http://www.w3.org/1999/xlink">
    <!-- Generator: Sketch 52.1 (67048) - http://www.bohemiancoding.com/sketch -->
    <title>book_fill</title>
    <desc>Created with Sketch.</desc>
    <g id="Page-1" stroke="none" stroke-width="1" fill="none" fill-rule="evenodd">
        <g id="book_fill" transform="translate(3.000000, 4.000000)" fill="#000000">
            <path d="M27,45.6888731 L27,3.89759345 C29.5595873,1.37986249 33.147126,7.10542736e-15 37.102,7.10542736e-15 C40.89,7.10542736e-15 44.75,1.28 47.692,3.512 C49.822,5.144 50,6.82 50,8.262 L50,44.036 C50,45.56 49.088,46.1 48.308,46.1 C47.746,46.1 47.148,45.85 46.476,45.334 C42.7,42.466 38.328,40.752 34.788,40.752 C32.78,40.752 31.112,41.28 29.828,42.316 C28.4172248,43.4073544 27.5723954,44.6235888 27,45.6888731 Z M23,45.689585 C22.4208511,44.6118299 21.5803034,43.4066677 20.188,42.332 C18.888,41.28 17.22,40.752 15.212,40.752 C11.672,40.752 7.3,42.466 3.518,45.336 C2.216,46.34 0.964,46.298 0.358,45.404 C0.12,45.052 0,44.592 0,44.036 L0,8.262 C0,6.82 0.178,5.144 2.304,3.514 C5.25,1.28 9.108,7.10542736e-15 12.898,7.10542736e-15 C16.8807523,7.10542736e-15 20.4909721,1.3993846 23,3.87714586 L23,45.689585 Z" id="Shape"></path>
        </g>
    </g>
</svg>