<svg xmlns="http://www.w3.org/2000/svg" width="56" height="56" viewBox="0 0 56 56">
  <path d="M11.0704168,37.1124566 C13.3255945,35.1579693 16.6744055,35.1579693 18.9295832,37.1124566 L24.3450695,41.805878 C24.762425,42.1675862 25.3939809,42.122475 25.7556891,41.7051195 C25.9132599,41.523307 26,41.2907805 26,41.0501889 L26,6 C26,4.8954305 25.1045695,4 24,4 L6,4 C4.8954305,4 4,4.8954305 4,6 L4,41.0501889 C4,41.6024737 4.44771525,42.0501889 5,42.0501889 C5.24059159,42.0501889 5.4731181,41.9634488 5.65493054,41.805878 L11.0704168,37.1124566 Z M4,0 L26,0 C28.209139,-4.05812251e-16 30,1.790861 30,4 L30,47.6200756 C30,48.7246451 29.1045695,49.6200756 28,49.6200756 C27.5188168,49.6200756 27.0537638,49.4465953 26.6901389,49.1314537 L16.3098611,40.1352129 C15.5581352,39.4837172 14.4418648,39.4837172 13.6901389,40.1352129 L3.30986108,49.1314537 C2.47514996,49.85487 1.21203813,49.7646478 0.488621834,48.9299366 C0.173480272,48.5663118 -1.78427965e-15,48.1012588 -3.55271368e-15,47.6200756 L4.4408921e-16,4 C1.73547709e-16,1.790861 1.790861,4.05812251e-16 4,0 Z" transform="translate(13 3)"/>
</svg>
