<?xml version="1.0" encoding="UTF-8"?>
<svg width="50px" height="49px" viewBox="0 0 50 49" version="1.1" xmlns="http://www.w3.org/2000/svg" xmlns:xlink="http://www.w3.org/1999/xlink">
    <!-- Generator: Sketch 40.1 (33804) - http://www.bohemiancoding.com/sketch -->
    <title>book</title>
    <desc>Created with Sketch.</desc>
    <defs></defs>
    <g id="Page-1" stroke="none" stroke-width="1" fill="none" fill-rule="evenodd">
        <g id="book" fill="#000000">
            <path d="M24.0938686,45.3048306 L23.9691658,46 L23.9691658,7.0019865 L24.3715815,8.20520064 C24.2502979,8.0441647 23.9779733,7.71871004 23.5658371,7.28407045 C22.8622599,6.54207646 22.0395341,5.79704845 21.1108547,5.10316692 C18.5021282,3.15400446 15.6068949,2 12.5,2 C9.33764947,2 6.73710245,2.87590538 4.63278456,4.33259857 C3.90495504,4.83643134 3.29323337,5.37316758 2.79674918,5.90334256 C2.51596098,6.20318468 2.3466275,6.41718606 2.28763252,6.50363984 L2.15822711,6.67311049 C2.11649928,6.7221049 2,7.05543612 2,7.16350607 L2,46.2250332 C1.80943116,46.3072478 1.61424413,46.3865588 1.41386614,46.4625666 L0,45.3721569 L7.77156117e-16,44.8369171 C1.4606271,44.3942896 2.59365707,43.7657979 4.5277955,42.4655634 C4.70956113,42.3432745 4.70956113,42.3432745 4.89349685,42.2195331 C8.57280531,39.7463173 10.9285617,38.8020401 15.0884705,38.8020401 C16.159962,38.8020401 17.2355476,39.1260341 18.3224796,39.7089033 C19.7915331,40.496686 21.2690042,41.7480994 22.7588121,43.3429924 C23.6075523,44.2515993 24.4090271,45.2181009 25.142662,46.1842385 C25.3337853,46.4359324 25.5030416,46.6644627 25.648516,46.8649888 L25.1877267,48.1080196 L24.4340973,48.6144333 L24.4340973,46.6144333 L25,46.6144333 L25,48.6144333 L24.238247,48.3320528 C24.06174,48.0819587 23.7721045,47.6809386 23.3947087,47.1908928 L24.0938686,45.3048306 Z M0.63561567,5.37632431 C0.63561567,5.37632431 4.30435181,1.81405721e-15 12.5,0 C20.6956482,-1.82748587e-15 25.9691658,7.0019865 25.9691658,7.0019865 L25.9691658,46 L25,48.6144333 L24.4340973,48.6144333 C24.4340973,48.6144333 19.1844309,40.8020401 15.0884705,40.8020401 C7.45861292,40.8020401 6.00867224,45.3360939 0,46.914608 L0,7.16350607 C0,6.60706695 0.268497381,5.8073734 0.63561567,5.37632431 Z" id="Rectangle-13"></path>
            <path d="M47.9691658,7.16350607 C47.9691658,7.05543612 47.8526665,6.7221049 47.8109387,6.67311049 L47.6815333,6.50363984 C47.6225383,6.41718606 47.4532048,6.20318468 47.1724166,5.90334256 C46.6759324,5.37316758 46.0642108,4.83643134 45.3363812,4.33259857 C43.2320634,2.87590538 40.6315163,2 37.4691658,2 C34.3622709,2 31.4670376,3.15400446 28.8583111,5.10316692 C27.9296317,5.79704845 27.1069059,6.54207646 26.4033287,7.28407045 C25.9911925,7.71871004 25.7188679,8.0441647 25.5975843,8.20520064 L26,7.0019865 L26,46 L25.8752972,45.3048306 L26.5744571,47.1908928 C26.1970613,47.6809386 25.9074258,48.0819587 25.7309188,48.3320528 L24.9691658,48.6144333 L24.9691658,46.6144333 L25.5350685,46.6144333 L25.5350685,48.6144333 L24.7814391,48.1080196 L24.3206498,46.8649888 C24.4661242,46.6644627 24.6353806,46.4359324 24.8265038,46.1842385 C25.5601387,45.2181009 26.3616135,44.2515993 27.2103537,43.3429924 C28.7001616,41.7480994 30.1776327,40.496686 31.6466863,39.7089033 C32.7336182,39.1260341 33.8092038,38.8020401 34.8806953,38.8020401 C39.0406041,38.8020401 41.3963605,39.7463173 45.075669,42.2195331 C45.2596047,42.3432745 45.2596047,42.3432745 45.4413703,42.4655634 C47.3755087,43.7657979 48.5085387,44.3942896 49.9691658,44.8369171 L49.9691658,45.3721569 L48.5552997,46.4625666 C48.3549217,46.3865588 48.1597346,46.3072478 47.9691658,46.2250332 L47.9691658,7.16350607 Z M49.9691658,46.914608 C43.9604936,45.3360939 42.5105529,40.8020401 34.8806953,40.8020401 C30.7847349,40.8020401 25.5350685,48.6144333 25.5350685,48.6144333 L24.9691658,48.6144333 L24,46 L24,7.0019865 C24,7.0019865 29.2735176,-1.82748587e-15 37.4691658,0 C45.664814,1.81405721e-15 49.3335501,5.37632431 49.3335501,5.37632431 C49.7006684,5.8073734 49.9691658,6.60706695 49.9691658,7.16350607 L49.9691658,46.914608 Z" id="Rectangle-13"></path>
        </g>
    </g>
</svg>