<?xml version="1.0" encoding="UTF-8"?>
<svg width="30px" height="50px" viewBox="0 0 30 50" version="1.1" xmlns="http://www.w3.org/2000/svg" xmlns:xlink="http://www.w3.org/1999/xlink">
    <!-- Generator: Sketch 40.1 (33804) - http://www.bohemiancoding.com/sketch -->
    <title>bookmark</title>
    <desc>Created with Sketch.</desc>
    <defs></defs>
    <g id="Page-1" stroke="none" stroke-width="1" fill="none" fill-rule="evenodd">
        <g id="bookmark" fill="#000000">
            <path d="M28,4.00718972 C28,2.89787401 27.1039285,2 26.0007252,2 L3.9992748,2 C2.89383275,2 2,2.89618088 2,4.00718972 L2,48.2666667 L0.690138923,49.4018796 L0,49.0867422 L1.83186799e-15,47.3534089 L13.6901389,35.4886218 L15,34.3534089 L16.3098611,35.4886218 L30,47.3534089 L30,49.0867422 L29.3098611,49.4018796 L28,48.2666667 L28,4.00718972 Z M3.9992748,0 L26.0007252,0 C28.2094637,0 30,1.79426827 30,4.00718972 L30,50 L15,37 L1.77635684e-15,50 L1.77635684e-15,4.00718972 C1.77635684e-15,1.79407995 1.78679466,0 3.9992748,0 Z" id="Rectangle-88"></path>
        </g>
    </g>
</svg>