<?xml version="1.0" encoding="UTF-8"?>
<svg width="50px" height="48px" viewBox="0 0 50 48" version="1.1" xmlns="http://www.w3.org/2000/svg" xmlns:xlink="http://www.w3.org/1999/xlink">
    <!-- Generator: Sketch 40.1 (33804) - http://www.bohemiancoding.com/sketch -->
    <title>book_fill</title>
    <desc>Created with Sketch.</desc>
    <defs></defs>
    <g id="Page-1" stroke="none" stroke-width="1" fill="none" fill-rule="evenodd">
        <g id="book_fill" fill="#000000">
            <path d="M24,4.90667271 C21.759172,2.84374323 17.722974,-1.16463163e-15 12.5,0 C4.30435181,1.81405721e-15 0.63561567,5.37632431 0.63561567,5.37632431 C0.268497381,5.8073734 0,6.60706695 0,7.16350607 L0,46.914608 C6.00867224,45.3360939 7.45861292,40.8020401 15.0884705,40.8020401 C18.4792822,40.8020401 22.6607562,46.1560596 24,47.9995246 L24,4.90667271 Z M26,47.9571518 C27.3715367,46.0754785 31.5154972,40.8020401 34.8806953,40.8020401 C42.5105529,40.8020401 43.9604936,45.3360939 49.9691658,46.914608 L49.9691658,7.16350607 C49.9691658,6.60706695 49.7006684,5.8073734 49.3335501,5.37632431 C49.3335501,5.37632431 45.664814,1.81405721e-15 37.4691658,0 C32.2700608,-1.15930926e-15 28.2469094,2.81781079 26,4.87834136 L26,47.9571518 Z" id="Combined-Shape"></path>
        </g>
    </g>
</svg>