<svg xmlns="http://www.w3.org/2000/svg" width="56" height="56" viewBox="0 0 56 56">
  <g transform="translate(8 9)">
    <path d="M15,19 C14.4477153,19 14,19.4477153 14,20 C14,20.5522847 14.4477153,21 15,21 L25,21 C25.5522847,21 26,20.5522847 26,20 C26,19.4477153 25.5522847,19 25,19 L15,19 Z M15,16 L25,16 C27.209139,16 29,17.790861 29,20 C29,22.209139 27.209139,24 25,24 L15,24 C12.790861,24 11,22.209139 11,20 C11,17.790861 12.790861,16 15,16 Z"/>
    <path d="M5,8 L35,8 C35.5522847,8 36,7.55228475 36,7 L36,5 C36,4.44771525 35.5522847,4 35,4 L5,4 C4.44771525,4 4,4.44771525 4,5 L4,7 C4,7.55228475 4.44771525,8 5,8 Z M38,12 L38,34 C38,36.209139 36.209139,38 34,38 L6,38 C3.790861,38 2,36.209139 2,34 L2,12 C0.8954305,12 1.3527075e-16,11.1045695 0,10 L0,2 C-1.3527075e-16,0.8954305 0.8954305,2.02906125e-16 2,0 L38,0 C39.1045695,-2.02906125e-16 40,0.8954305 40,2 L40,10 C40,11.1045695 39.1045695,12 38,12 Z M32,12 L8,12 C6.8954305,12 6,12.8954305 6,14 L6,32 C6,33.1045695 6.8954305,34 8,34 L32,34 C33.1045695,34 34,33.1045695 34,32 L34,14 C34,12.8954305 33.1045695,12 32,12 Z"/>
  </g>
</svg>
