<svg xmlns="http://www.w3.org/2000/svg" width="56" height="56" viewBox="0 0 56 56">
  <path fill-rule="evenodd" d="M2 0L38 0C39.1045695-2.02906125e-16 40 .8954305 40 2L40 8C40 9.1045695 39.1045695 10 38 10L2 10C.8954305 10 1.3527075e-16 9.1045695 0 8L0 2C-1.3527075e-16.8954305.8954305 2.02906125e-16 2 0zM4 12L36 12C37.1045695 12 38 12.8954305 38 14L38 34C38 36.209139 36.209139 38 34 38L6 38C3.790861 38 2 36.209139 2 34L2 14C2 12.8954305 2.8954305 12 4 12zM15 16C12.790861 16 11 17.790861 11 20 11 22.209139 12.790861 24 15 24L25 24C27.209139 24 29 22.209139 29 20 29 17.790861 27.209139 16 25 16L15 16z" transform="translate(8 9)"/>
</svg>
