<?xml version="1.0" encoding="UTF-8"?>
<svg width="51px" height="50px" viewBox="0 0 51 50" version="1.1" xmlns="http://www.w3.org/2000/svg" xmlns:xlink="http://www.w3.org/1999/xlink">
    <!-- Generator: Sketch 40.1 (33804) - http://www.bohemiancoding.com/sketch -->
    <title>briefcase_fill</title>
    <desc>Created with Sketch.</desc>
    <defs></defs>
    <g id="Page-1" stroke="none" stroke-width="1" fill="none" fill-rule="evenodd">
        <g id="briefcase_fill" transform="translate(0.932504, 0.000000)" fill="#000000">
            <path d="M21.1260175,26 L0,26 L0,28 L21.1260175,28 C21.5700603,29.7252272 23.1361606,31 25,31 C26.8638394,31 28.4299397,29.7252272 28.8739825,28 L50,28 L50,26 L28.8739825,26 C28.4299397,24.2747728 26.8638394,23 25,23 C23.1361606,23 21.5700603,24.2747728 21.1260175,26 Z M0,15.0053221 C0,12.240959 2.24553095,10 5.00003191,10 L44.9999681,10 C47.7614095,10 50,12.2362844 50,15.0053221 L50,44.9946779 C50,47.759041 47.754469,50 44.9999681,50 L5.00003191,50 C2.23859054,50 0,47.7637156 0,44.9946779 L0,15.0053221 Z" id="Combined-Shape"></path>
            <path d="M16.0385877,9.96998322 C16.0821042,9.68435049 16.1451879,9.36332566 16.2312894,9.01617333 C16.4776454,8.0228926 16.8567646,7.03033616 17.3924775,6.11124466 C18.8990528,3.52650114 21.3222538,2 25,2 C28.6777462,2 31.1009472,3.52650114 32.6075225,6.11124466 C33.1432354,7.03033616 33.5223546,8.0228926 33.7687106,9.01617333 C33.8548121,9.36332566 33.9178958,9.68435049 33.9614123,9.96998322 C33.9865337,10.1348748 33.9992695,10.2465113 34.0032322,10.2956788 L34.0835693,11.2924466 L36.0771048,11.1317724 L35.9967678,10.1350047 C35.9694401,9.7959412 35.8846145,9.23916435 35.7098954,8.53471586 C35.4205611,7.36815087 34.9747005,6.20086159 34.3354269,5.10409708 C32.4848978,1.92925201 29.4223614,0 25,0 C20.5776386,2.22044605e-16 17.5151022,1.92925201 15.6645731,5.10409708 C15.0252995,6.20086159 14.5794389,7.36815087 14.2901046,8.53471586 C14.1153855,9.23916435 14.0305599,9.7959412 14.0032322,10.1350047 L13.9228952,11.1317724 L15.9164307,11.2924466 L15.9967678,10.2956788 C16.0007305,10.2465113 16.0134663,10.1348748 16.0385877,9.96998322 Z" id="Line"></path>
        </g>
    </g>
</svg>