<svg xmlns="http://www.w3.org/2000/svg" width="56" height="56" viewBox="0 0 56 56">
  <path fill-rule="evenodd" d="M14,10 C14,4.4771525 18.9248678,0 25,0 C31.0751322,0 36,4.4771525 36,10 L44,10 C47.3137085,10 50,12.6862915 50,16 L50,26 L29.5839563,26 C28.8123997,24.2340952 27.050319,23 25,23 C22.949681,23 21.1876003,24.2340952 20.4160437,26 L0,26 L0,16 C-4.05812251e-16,12.6862915 2.6862915,10 6,10 L14,10 Z M18,10 L32,10 C32,6.7758525 28.9465622,4 25,4 C21.0534378,4 18,6.7758525 18,10 Z M20.4160437,30 C21.1876003,31.7659048 22.949681,33 25,33 C27.050319,33 28.8123997,31.7659048 29.5839563,30 L50,30 L50,44 C50,47.3137085 47.3137085,50 44,50 L6,50 C2.6862915,50 4.05812251e-16,47.3137085 0,44 L0,30 L20.4160437,30 Z" transform="translate(3 3)"/>
</svg>
