<?xml version="1.0" encoding="UTF-8"?>
<svg width="51px" height="51px" viewBox="0 0 51 51" version="1.1" xmlns="http://www.w3.org/2000/svg" xmlns:xlink="http://www.w3.org/1999/xlink">
    <!-- Generator: Sketch 40.1 (33804) - http://www.bohemiancoding.com/sketch -->
    <title>briefcase</title>
    <desc>Created with Sketch.</desc>
    <defs></defs>
    <g id="Page-1" stroke="none" stroke-width="1" fill="none" fill-rule="evenodd">
        <g id="briefcase" transform="translate(0.932504, 0.000000)" fill="#000000">
            <path d="M0,16.0053221 C0,13.240959 2.24553095,11 5.00003191,11 L44.9999681,11 C47.7614095,11 50,13.2362844 50,16.0053221 L50,45.9946779 C50,48.759041 47.754469,51 44.9999681,51 L5.00003191,51 C2.23859054,51 0,48.7637156 0,45.9946779 L0,16.0053221 Z M2.06749647,16.0074199 C2.06749647,14.3464677 3.41927701,13 5.06794063,13 L45.0670523,13 C46.7241519,13 48.0674965,14.3455393 48.0674965,16.0074199 L48.0674965,45.9925801 C48.0674965,47.6535323 46.7157159,49 45.0670523,49 L5.06794063,49 C3.41084108,49 2.06749647,47.6544607 2.06749647,45.9925801 L2.06749647,16.0074199 Z" id="Combined-Shape"></path>
            <path d="M21.1260175,27 L2.06749647,27 L2.06749647,29 L21.1260175,29 C21.043753,28.6803801 21,28.3452996 21,28 C21,27.6547004 21.043753,27.3196199 21.1260175,27 Z M28.8739825,27 L48.0674965,27 L48.0674965,29 L28.8739825,29 C28.956247,28.6803801 29,28.3452996 29,28 C29,27.6547004 28.956247,27.3196199 28.8739825,27 Z" id="Combined-Shape"></path>
            <circle id="Oval-55" cx="25" cy="28" r="4"></circle>
            <path d="M16.0385877,10.7546415 C16.0821042,10.4690087 16.1451879,10.1479839 16.2312894,9.80083159 C16.4776454,8.80755085 16.8567646,7.81499442 17.3924775,6.89590292 C18.8990528,4.3111594 21.3222538,2.78465826 25,2.78465826 C28.6777462,2.78465826 31.1009472,4.3111594 32.6075225,6.89590292 C33.1432354,7.81499442 33.5223546,8.80755085 33.7687106,9.80083159 C33.8548121,10.1479839 33.9178958,10.4690087 33.9614123,10.7546415 C33.9865337,10.9195331 33.9992695,11.0311695 34.0032322,11.0803371 L34.0835693,12.0771048 L36.0771048,11.9164307 L35.9967678,10.9196629 C35.9694401,10.5805995 35.8846145,10.0238226 35.7098954,9.31937412 C35.4205611,8.15280913 34.9747005,6.98551985 34.3354269,5.88875534 C32.4848978,2.71391027 29.4223614,0.784658259 25,0.784658259 C20.5776386,0.784658259 17.5151022,2.71391027 15.6645731,5.88875534 C15.0252995,6.98551985 14.5794389,8.15280913 14.2901046,9.31937412 C14.1153855,10.0238226 14.0305599,10.5805995 14.0032322,10.9196629 L13.9228952,11.9164307 L15.9164307,12.0771048 L15.9967678,11.0803371 C16.0007305,11.0311695 16.0134663,10.9195331 16.0385877,10.7546415 Z" id="Line"></path>
        </g>
    </g>
</svg>