<svg xmlns="http://www.w3.org/2000/svg" width="56" height="56" viewBox="0 0 56 56">
  <path d="M14,10 C14,4.4771525 18.9248678,0 25,0 C31.0751322,0 36,4.4771525 36,10 L44,10 C47.3137085,10 50,12.6862915 50,16 L50,44 C50,47.3137085 47.3137085,50 44,50 L6,50 C2.6862915,50 4.05812251e-16,47.3137085 0,44 L0,16 C-4.05812251e-16,12.6862915 2.6862915,10 6,10 L14,10 Z M18,10 L32,10 C32,6.7758525 28.9465622,4 25,4 C21.0534378,4 18,6.7758525 18,10 Z M29.5839563,26 L46,26 L46,16 C46,14.8954305 45.1045695,14 44,14 L6,14 C4.8954305,14 4,14.8954305 4,16 L4,26 L20.4160437,26 C21.1876003,24.2340952 22.949681,23 25,23 C27.050319,23 28.8123997,24.2340952 29.5839563,26 Z M29.5839563,30 C28.8123997,31.7659048 27.050319,33 25,33 C22.949681,33 21.1876003,31.7659048 20.4160437,30 L4,30 L4,44 C4,45.1045695 4.8954305,46 6,46 L44,46 C45.1045695,46 46,45.1045695 46,44 L46,30 L29.5839563,30 Z" transform="translate(3 3)"/>
</svg>
