<?xml version="1.0" encoding="UTF-8"?>
<svg width="56px" height="56px" viewBox="0 0 56 56" version="1.1" xmlns="http://www.w3.org/2000/svg" xmlns:xlink="http://www.w3.org/1999/xlink">
    <!-- Generator: Sketch 52.1 (67048) - http://www.bohemiancoding.com/sketch -->
    <title>bulb_fill</title>
    <desc>Created with Sketch.</desc>
    <g id="Page-1" stroke="none" stroke-width="1" fill="none" fill-rule="evenodd">
        <g id="bulb_fill" transform="translate(10.000000, 2.000000)" fill="#000000">
            <path d="M25.0867873,37.0610791 C26.4132824,34.8547704 27.7413575,33.2323174 29.0710124,32.1937203 C33.2885211,28.8994128 36,23.7663563 36,18 C36,8.0588745 27.9411255,0 18,0 C8.0588745,0 3.55271368e-15,8.0588745 3.55271368e-15,18 C3.55271368e-15,23.8192898 2.76148862,28.9935995 7.04551402,32.283977 C8.36794557,33.2996804 9.66193073,34.8817463 10.9274695,37.0301748 L10.9274698,37.0301747 C11.6464509,38.2507454 12.9573839,39 14.3739737,39 L21.6586731,39.0000017 C23.0624381,39.0000017 24.3634699,38.2641453 25.0867873,37.0610791 Z" id="Oval"></path>
            <path d="M14,41 L22,41 C23.1045695,41 24,41.8954305 24,43 C24,44.1045695 23.1045695,45 22,45 L14,45 C12.8954305,45 12,44.1045695 12,43 C12,41.8954305 12.8954305,41 14,41 Z" id="Rectangle"></path>
            <path d="M14,47 L22,47 C23.1045695,47 24,47.8954305 24,49 C24,50.1045695 23.1045695,51 22,51 L14,51 C12.8954305,51 12,50.1045695 12,49 C12,47.8954305 12.8954305,47 14,47 Z" id="Rectangle"></path>
        </g>
    </g>
</svg>