<svg xmlns="http://www.w3.org/2000/svg" width="56" height="56" viewBox="0 0 56 56">
  <path fill-rule="evenodd" d="M25.0867873 37.0610791C26.4132824 34.8547704 27.7413575 33.2323174 29.0710124 32.1937203 33.2885211 28.8994128 36 23.7663563 36 18 36 8.0588745 27.9411255 0 18 0 8.0588745 0 3.55271368e-15 8.0588745 3.55271368e-15 18 3.55271368e-15 23.8192898 2.76148862 28.9935995 7.04551402 32.283977 8.36794557 33.2996804 9.66193073 34.8817463 10.9274695 37.0301748L10.9274698 37.0301747C11.6464509 38.2507454 12.9573839 39 14.3739737 39L21.6586731 39.0000017C23.0624381 39.0000017 24.3634699 38.2641453 25.0867873 37.0610791zM14 41L22 41C23.1045695 41 24 41.8954305 24 43 24 44.1045695 23.1045695 45 22 45L14 45C12.8954305 45 12 44.1045695 12 43 12 41.8954305 12.8954305 41 14 41zM14 47L22 47C23.1045695 47 24 47.8954305 24 49 24 50.1045695 23.1045695 51 22 51L14 51C12.8954305 51 12 50.1045695 12 49 12 47.8954305 12.8954305 47 14 47z" transform="translate(10 2)"/>
</svg>
