<svg xmlns="http://www.w3.org/2000/svg" width="56" height="56" viewBox="0 0 56 56">
  <path fill-rule="evenodd" d="M38,44 L41,44 L41,11 C41,9.8954305 41.8954305,9 43,9 L51,9 C52.1045695,9 53,9.8954305 53,11 L53,44 C53,44.0882575 52.9971416,44.1758475 52.9915124,44.2626823 C53.5939913,44.6072675 54,45.2562195 54,46 C54,47.1045695 53.1045695,48 52,48 L2,48 C0.8954305,48 1.3527075e-16,47.1045695 0,46 C-9.10868379e-17,45.2562195 0.406008698,44.6072675 1.00848761,44.2626823 C1.00285838,44.1758475 1,44.0882575 1,44 L1,11 C1,9.8954305 1.8954305,9 3,9 L11,9 C12.1045695,9 13,9.8954305 13,11 L13,44 L16,44 L16,2 C16,0.8954305 16.8954305,2.02906125e-16 18,0 L36,0 C37.1045695,-2.02906125e-16 38,0.8954305 38,2 L38,44 Z M19,4 L19,8 L25,8 L25,4 L19,4 Z M19,18 L19,22 L25,22 L25,18 L19,18 Z M19,32 L19,36 L25,36 L25,32 L19,32 Z M29,4 L29,8 L35,8 L35,4 L29,4 Z M29,18 L29,22 L35,22 L35,18 L29,18 Z M29,32 L29,36 L35,36 L35,32 L29,32 Z M44,37 L44,41 L50,41 L50,37 L44,37 Z M4,37 L4,41 L10,41 L10,37 L4,37 Z M44,25 L44,29 L50,29 L50,25 L44,25 Z M4,25 L4,29 L10,29 L10,25 L4,25 Z M44,13 L44,17 L50,17 L50,13 L44,13 Z M4,13 L4,17 L10,17 L10,13 L4,13 Z" transform="translate(1 4)"/>
</svg>
