<svg xmlns="http://www.w3.org/2000/svg" width="56" height="56" viewBox="0 0 56 56">
  <path d="M20,44 L34,44 L34,4 L20,4 L20,44 Z M38,44 L41,44 L41,11 C41,9.8954305 41.8954305,9 43,9 L51,9 C52.1045695,9 53,9.8954305 53,11 L53,44 C53,44.0882575 52.9971416,44.1758475 52.9915124,44.2626823 C53.5939913,44.6072675 54,45.2562195 54,46 C54,47.1045695 53.1045695,48 52,48 L2,48 C0.8954305,48 1.3527075e-16,47.1045695 0,46 C-9.10868379e-17,45.2562195 0.406008698,44.6072675 1.00848761,44.2626823 C1.00285838,44.1758475 1,44.0882575 1,44 L1,11 C1,9.8954305 1.8954305,9 3,9 L11,9 C12.1045695,9 13,9.8954305 13,11 L13,44 L16,44 L16,2 C16,0.8954305 16.8954305,2.02906125e-16 18,0 L36,0 C37.1045695,-2.02906125e-16 38,0.8954305 38,2 L38,44 Z M45,44 L49,44 L49,13 L45,13 L45,44 Z M5,44 L9,44 L9,13 L5,13 L5,44 Z M22,6 L32,6 L32,10 L22,10 L22,6 Z M22,18 L32,18 L32,22 L22,22 L22,18 Z M22,32 L32,32 L32,36 L22,36 L22,32 Z M45,36 L49,36 L49,39 L45,39 L45,36 Z M5,36 L9,36 L9,39 L5,39 L5,36 Z M45,27 L49,27 L49,30 L45,30 L45,27 Z M5,27 L9,27 L9,30 L5,30 L5,27 Z M45,18 L49,18 L49,21 L45,21 L45,18 Z M5,18 L9,18 L9,21 L5,21 L5,18 Z" transform="translate(1 4)"/>
</svg>
