<svg xmlns="http://www.w3.org/2000/svg" width="56" height="56" viewBox="0 0 56 56">
  <g fill-rule="evenodd" transform="translate(3 3)">
    <path d="M8,0 L42,0 C46.418278,-8.11624501e-16 50,3.581722 50,8 L50,42 C50,46.418278 46.418278,50 42,50 L8,50 C3.581722,50 5.41083001e-16,46.418278 0,42 L0,8 C-5.41083001e-16,3.581722 3.581722,8.11624501e-16 8,0 Z M4,16 L4,42 C4,44.209139 5.790861,46 8,46 L42,46 C44.209139,46 46,44.209139 46,42 L46,16 L4,16 Z"/>
    <circle cx="9" cy="31" r="2"/>
    <circle cx="9" cy="40" r="2"/>
    <circle cx="17" cy="31" r="2"/>
    <circle cx="17" cy="40" r="2"/>
    <circle cx="25" cy="31" r="2"/>
    <circle cx="25" cy="40" r="2"/>
    <circle cx="33" cy="31" r="2"/>
    <circle cx="33" cy="40" r="2"/>
    <circle cx="41" cy="31" r="2"/>
    <circle cx="41" cy="40" r="2"/>
  </g>
</svg>
