<svg xmlns="http://www.w3.org/2000/svg" width="56" height="56" viewBox="0 0 56 56">
  <path fill-rule="evenodd" d="M8,0 L42,0 C46.418278,-8.11624501e-16 50,3.581722 50,8 L50,42 C50,46.418278 46.418278,50 42,50 L8,50 C3.581722,50 5.41083001e-16,46.418278 0,42 L0,8 C-5.41083001e-16,3.581722 3.581722,8.11624501e-16 8,0 Z M8,4 C5.790861,4 4,5.790861 4,8 L4,16 L46,16 L46,8 C46,5.790861 44.209139,4 42,4 L8,4 Z M9,33 C10.1045695,33 11,32.1045695 11,31 C11,29.8954305 10.1045695,29 9,29 C7.8954305,29 7,29.8954305 7,31 C7,32.1045695 7.8954305,33 9,33 Z M9,42 C10.1045695,42 11,41.1045695 11,40 C11,38.8954305 10.1045695,38 9,38 C7.8954305,38 7,38.8954305 7,40 C7,41.1045695 7.8954305,42 9,42 Z M17,33 C18.1045695,33 19,32.1045695 19,31 C19,29.8954305 18.1045695,29 17,29 C15.8954305,29 15,29.8954305 15,31 C15,32.1045695 15.8954305,33 17,33 Z M17,42 C18.1045695,42 19,41.1045695 19,40 C19,38.8954305 18.1045695,38 17,38 C15.8954305,38 15,38.8954305 15,40 C15,41.1045695 15.8954305,42 17,42 Z M25,33 C26.1045695,33 27,32.1045695 27,31 C27,29.8954305 26.1045695,29 25,29 C23.8954305,29 23,29.8954305 23,31 C23,32.1045695 23.8954305,33 25,33 Z M25,42 C26.1045695,42 27,41.1045695 27,40 C27,38.8954305 26.1045695,38 25,38 C23.8954305,38 23,38.8954305 23,40 C23,41.1045695 23.8954305,42 25,42 Z M33,33 C34.1045695,33 35,32.1045695 35,31 C35,29.8954305 34.1045695,29 33,29 C31.8954305,29 31,29.8954305 31,31 C31,32.1045695 31.8954305,33 33,33 Z M33,42 C34.1045695,42 35,41.1045695 35,40 C35,38.8954305 34.1045695,38 33,38 C31.8954305,38 31,38.8954305 31,40 C31,41.1045695 31.8954305,42 33,42 Z M41,33 C42.1045695,33 43,32.1045695 43,31 C43,29.8954305 42.1045695,29 41,29 C39.8954305,29 39,29.8954305 39,31 C39,32.1045695 39.8954305,33 41,33 Z M41,42 C42.1045695,42 43,41.1045695 43,40 C43,38.8954305 42.1045695,38 41,38 C39.8954305,38 39,38.8954305 39,40 C39,41.1045695 39.8954305,42 41,42 Z" transform="translate(3 3)"/>
</svg>
