<?xml version="1.0" encoding="UTF-8"?>
<svg width="56px" height="56px" viewBox="0 0 56 56" version="1.1" xmlns="http://www.w3.org/2000/svg" xmlns:xlink="http://www.w3.org/1999/xlink">
    <!-- Generator: Sketch 52.1 (67048) - http://www.bohemiancoding.com/sketch -->
    <title>calendar</title>
    <desc>Created with Sketch.</desc>
    <g id="Page-1" stroke="none" stroke-width="1" fill="none" fill-rule="evenodd">
        <g id="calendar" transform="translate(3.000000, 3.000000)" fill="#000000">
            <path d="M8,0 L42,0 C46.418278,-8.11624501e-16 50,3.581722 50,8 L50,42 C50,46.418278 46.418278,50 42,50 L8,50 C3.581722,50 5.41083001e-16,46.418278 0,42 L0,8 C-5.41083001e-16,3.581722 3.581722,8.11624501e-16 8,0 Z M4,16 L4,42 C4,44.209139 5.790861,46 8,46 L42,46 C44.209139,46 46,44.209139 46,42 L46,16 L4,16 Z" id="Combined-Shape"></path>
            <circle id="Oval" cx="9" cy="31" r="2"></circle>
            <circle id="Oval-Copy-5" cx="9" cy="40" r="2"></circle>
            <circle id="Oval-Copy" cx="17" cy="31" r="2"></circle>
            <circle id="Oval-Copy-6" cx="17" cy="40" r="2"></circle>
            <circle id="Oval-Copy-2" cx="25" cy="31" r="2"></circle>
            <circle id="Oval-Copy-7" cx="25" cy="40" r="2"></circle>
            <circle id="Oval-Copy-3" cx="33" cy="31" r="2"></circle>
            <circle id="Oval-Copy-8" cx="33" cy="40" r="2"></circle>
            <circle id="Oval-Copy-4" cx="41" cy="31" r="2"></circle>
            <circle id="Oval-Copy-9" cx="41" cy="40" r="2"></circle>
        </g>
    </g>
</svg>