<svg xmlns="http://www.w3.org/2000/svg" width="56" height="56" viewBox="0 0 56 56">
  <g fill-rule="evenodd" transform="translate(0 6)">
    <path fill-rule="nonzero" d="M32.8754983,3.94848793 L23.1245017,3.94848793 C22.4785995,3.94848793 21.8724578,4.2604193 21.4970348,4.78601154 L19.4146019,7.70141762 C18.0213364,9.65198924 15.4017163,11 13.0081158,11 L5.99306515,11 C4.89333752,11 4,11.8953181 4,13.0053227 L4,36.9946773 C4,38.1107765 4.88864656,39 5.99298096,39 L50.007019,39 C51.1064293,39 52,38.104484 52,36.9946773 L52,13.0053227 C52,11.8892361 51.1113284,11 50.0069348,11 L42.9918842,11 C40.6006212,11 37.9761462,9.64846494 36.5853981,7.70141762 L34.5029652,4.78601154 C34.1275422,4.2604193 33.5214005,3.94848793 32.8754983,3.94848793 Z M5.99306515,7 L13.0081158,7 C14.1082031,7 15.5162555,6.2772423 16.159668,5.37646484 L18.840332,1.62353516 C19.480799,0.726881449 20.8945138,0 21.9940603,0 L34.0059397,0 C35.1072288,0 36.5162555,0.722757697 37.159668,1.62353516 L39.840332,5.37646484 C40.480799,6.27311855 41.8933973,7 42.9918842,7 L50.0069348,7 C53.3168133,7 56,9.67643992 56,13.0053227 L56,36.9946773 C56,40.3113255 53.3178698,43 50.007019,43 L5.99298096,43 C2.68314897,43 0,40.3235601 0,36.9946773 L0,13.0053227 C0,9.68867454 2.6816994,7 5.99306515,7 Z"/>
    <path fill-rule="nonzero" d="M28,32 C32.418278,32 36,28.418278 36,24 C36,19.581722 32.418278,16 28,16 C23.581722,16 20,19.581722 20,24 C20,28.418278 23.581722,32 28,32 Z M28,36 C21.372583,36 16,30.627417 16,24 C16,17.372583 21.372583,12 28,12 C34.627417,12 40,17.372583 40,24 C40,30.627417 34.627417,36 28,36 Z"/>
    <circle cx="45" cy="16" r="2"/>
    <rect width="6" height="3" x="5" y="2" rx="1"/>
  </g>
</svg>
