<svg xmlns="http://www.w3.org/2000/svg" width="56" height="56" viewBox="0 0 56 56">
  <path fill-rule="evenodd" d="M28,56 C12.536027,56 0,43.463973 0,28 C0,12.536027 12.536027,0 28,0 C43.463973,0 56,12.536027 56,28 C56,43.463973 43.463973,56 28,56 Z M16.2105706,19.744186 C14.4366247,19.744186 13,21.1823143 13,22.9563354 L13,35.7878507 C13,37.5684159 14.4374012,39 16.2105255,39 L39.7894745,39 C41.5631445,39 43,37.5618718 43,35.7878507 L43,22.9563354 C43,21.1757702 41.5625786,19.744186 39.7894294,19.744186 L36.0313665,19.744186 C35.4428914,19.744186 34.6861423,19.355389 34.343035,18.8757835 L32.906965,16.8684025 C32.5622797,16.3865913 31.807444,16 31.2174677,16 L24.7825323,16 C24.1934895,16 23.4361423,16.3887971 23.093035,16.8684025 L21.656965,18.8757835 C21.3122797,19.3575947 20.5579659,19.744186 19.9686335,19.744186 L16.2105706,19.744186 Z M28.5,35 C24.9101491,35 22,32.0898509 22,28.5 C22,24.9101491 24.9101491,22 28.5,22 C32.0898509,22 35,24.9101491 35,28.5 C35,32.0898509 32.0898509,35 28.5,35 Z M37,26 C36.4477153,26 36,25.5522847 36,25 C36,24.4477153 36.4477153,24 37,24 C37.5522847,24 38,24.4477153 38,25 C38,25.5522847 37.5522847,26 37,26 Z M28.5,32 C30.4329966,32 32,30.4329966 32,28.5 C32,26.5670034 30.4329966,25 28.5,25 C26.5670034,25 25,26.5670034 25,28.5 C25,30.4329966 26.5670034,32 28.5,32 Z"/>
</svg>
