<svg xmlns="http://www.w3.org/2000/svg" width="56" height="56" viewBox="0 0 56 56">
  <path d="M5.99306515,7 L13.0081158,7 C14.1082031,7 15.5162555,6.2772423 16.159668,5.37646484 L18.840332,1.62353516 C19.480799,0.726881449 20.8945138,0 21.9940603,0 L34.0059397,0 C35.1072288,0 36.5162555,0.722757697 37.159668,1.62353516 L39.840332,5.37646484 C40.480799,6.27311855 41.8933973,7 42.9918842,7 L50.0069348,7 C53.3168133,7 56,9.67643992 56,13.0053227 L56,36.9946773 C56,40.3113255 53.3178698,43 50.007019,43 L5.99298096,43 C2.68314897,43 0,40.3235601 0,36.9946773 L0,13.0053227 C0,9.68867454 2.6816994,7 5.99306515,7 Z M28,36 C34.627417,36 40,30.627417 40,24 C40,17.372583 34.627417,12 28,12 C21.372583,12 16,17.372583 16,24 C16,30.627417 21.372583,36 28,36 Z M45,18 C46.1045695,18 47,17.1045695 47,16 C47,14.8954305 46.1045695,14 45,14 C43.8954305,14 43,14.8954305 43,16 C43,17.1045695 43.8954305,18 45,18 Z M28,32 C23.581722,32 20,28.418278 20,24 C20,19.581722 23.581722,16 28,16 C32.418278,16 36,19.581722 36,24 C36,28.418278 32.418278,32 28,32 Z M5,2.99895656 C5,2.44724809 5.45097518,2 5.99077797,2 L10.009222,2 C10.5564136,2 11,2.44266033 11,2.99895656 L11,4.00104344 C11,4.55275191 10.5490248,5 10.009222,5 L5.99077797,5 C5.44358641,5 5,4.55733967 5,4.00104344 L5,2.99895656 Z" transform="translate(0 6)"/>
</svg>
