<svg xmlns="http://www.w3.org/2000/svg" width="56" height="56" viewBox="0 0 56 56">
  <path d="M16.2105706,19.744186 L19.9686335,19.744186 C20.5579659,19.744186 21.3122797,19.3575947 21.656965,18.8757835 L23.093035,16.8684025 C23.4361423,16.3887971 24.1934895,16 24.7825323,16 L31.2174677,16 C31.807444,16 32.5622797,16.3865913 32.906965,16.8684025 L34.343035,18.8757835 C34.6861423,19.355389 35.4428914,19.744186 36.0313665,19.744186 L39.7894294,19.744186 C41.5625786,19.744186 43,21.1757702 43,22.9563354 L43,35.7878507 C43,37.5618718 41.5631445,39 39.7894745,39 L16.2105255,39 C14.4374012,39 13,37.5684159 13,35.7878507 L13,22.9563354 C13,21.1823143 14.4366247,19.744186 16.2105706,19.744186 Z M28.5,35 C32.0898509,35 35,32.0898509 35,28.5 C35,24.9101491 32.0898509,22 28.5,22 C24.9101491,22 22,24.9101491 22,28.5 C22,32.0898509 24.9101491,35 28.5,35 Z M37,26 C37.5522847,26 38,25.5522847 38,25 C38,24.4477153 37.5522847,24 37,24 C36.4477153,24 36,24.4477153 36,25 C36,25.5522847 36.4477153,26 37,26 Z M28.5,32 C26.5670034,32 25,30.4329966 25,28.5 C25,26.5670034 26.5670034,25 28.5,25 C30.4329966,25 32,26.5670034 32,28.5 C32,30.4329966 30.4329966,32 28.5,32 Z"/>
  <path d="M28,52 C41.254834,52 52,41.254834 52,28 C52,14.745166 41.254834,4 28,4 C14.745166,4 4,14.745166 4,28 C4,41.254834 14.745166,52 28,52 Z M28,56 C12.536027,56 0,43.463973 0,28 C0,12.536027 12.536027,0 28,0 C43.463973,0 56,12.536027 56,28 C56,43.463973 43.463973,56 28,56 Z"/>
</svg>
