<svg xmlns="http://www.w3.org/2000/svg" width="56" height="56" viewBox="0 0 56 56">
  <path fill-rule="evenodd" d="M50,9 L0,9 L0,4 C-2.705415e-16,1.790861 1.790861,4.05812251e-16 4,0 L46,0 C48.209139,-4.05812251e-16 50,1.790861 50,4 L50,9 Z M50,17 L50,32 C50,34.209139 48.209139,36 46,36 L4,36 C1.790861,36 2.705415e-16,34.209139 0,32 L0,17 L50,17 Z M9,24 C7.8954305,24 7,24.8954305 7,26 C7,27.1045695 7.8954305,28 9,28 L17,28 C18.1045695,28 19,27.1045695 19,26 C19,24.8954305 18.1045695,24 17,24 L9,24 Z M25,24 C23.8954305,24 23,24.8954305 23,26 C23,27.1045695 23.8954305,28 25,28 L41,28 C42.1045695,28 43,27.1045695 43,26 C43,24.8954305 42.1045695,24 41,24 L25,24 Z" transform="translate(3 10)"/>
</svg>
