<?xml version="1.0" encoding="UTF-8"?>
<svg width="50px" height="50px" viewBox="0 0 50 50" version="1.1" xmlns="http://www.w3.org/2000/svg" xmlns:xlink="http://www.w3.org/1999/xlink">
    <!-- Generator: Sketch 40.1 (33804) - http://www.bohemiancoding.com/sketch -->
    <title>card_fill</title>
    <desc>Created with Sketch.</desc>
    <defs></defs>
    <g id="Page-1" stroke="none" stroke-width="1" fill="none" fill-rule="evenodd">
        <g id="card_fill" transform="translate(0.000000, 7.000000)" fill="#000000">
            <path d="M0,17 L50,17 L50,31.9938052 C50,34.2063655 48.2057317,36 45.9928103,36 L4.00718972,36 C1.79407995,36 0,34.2125261 0,31.9938052 L0,17 Z M6,27 L26,27 L26,29 L6,29 L6,27 Z M6,21 L36,21 L36,23 L6,23 L6,21 Z" id="Combined-Shape"></path>
            <path d="M0,3.9999433 C0,1.79083562 1.79426827,0 4.00718972,0 L45.9928103,0 C48.2059201,0 50,1.79965349 50,3.9999433 L50,9 L0,9 L0,3.9999433 L0,3.9999433 Z" id="Combined-Shape"></path>
        </g>
    </g>
</svg>