<?xml version="1.0" encoding="UTF-8"?>
<svg width="56px" height="56px" viewBox="0 0 56 56" version="1.1" xmlns="http://www.w3.org/2000/svg" xmlns:xlink="http://www.w3.org/1999/xlink">
    <!-- Generator: Sketch 52.1 (67048) - http://www.bohemiancoding.com/sketch -->
    <title>card</title>
    <desc>Created with Sketch.</desc>
    <g id="Page-1" stroke="none" stroke-width="1" fill="none" fill-rule="evenodd">
        <g id="card" transform="translate(3.000000, 10.000000)" fill="#000000">
            <path d="M4,9 L46,9 L46,6 C46,4.8954305 45.1045695,4 44,4 L6,4 C4.8954305,4 4,4.8954305 4,6 L4,9 Z M4,17 L4,30 C4,31.1045695 4.8954305,32 6,32 L44,32 C45.1045695,32 46,31.1045695 46,30 L46,17 L4,17 Z M4,0 L46,0 C48.209139,-4.05812251e-16 50,1.790861 50,4 L50,32 C50,34.209139 48.209139,36 46,36 L4,36 C1.790861,36 2.705415e-16,34.209139 0,32 L0,4 C-2.705415e-16,1.790861 1.790861,4.05812251e-16 4,0 Z" id="Shape" fill-rule="nonzero"></path>
            <rect id="Rectangle" x="7" y="24" width="12" height="4" rx="2"></rect>
            <rect id="Rectangle-Copy" x="23" y="24" width="20" height="4" rx="2"></rect>
        </g>
    </g>
</svg>