<?xml version="1.0" encoding="UTF-8"?>
<svg width="65px" height="50px" viewBox="0 0 65 50" version="1.1" xmlns="http://www.w3.org/2000/svg" xmlns:xlink="http://www.w3.org/1999/xlink">
    <!-- Generator: Sketch 40.1 (33804) - http://www.bohemiancoding.com/sketch -->
    <title>chats_fill</title>
    <desc>Created with Sketch.</desc>
    <defs></defs>
    <g id="Page-1" stroke="none" stroke-width="1" fill="none" fill-rule="evenodd">
        <g id="chats_fill" transform="translate(0.000000, 3.000000)" fill="#000000">
            <path d="M39.4306107,2.10797273 C40.2741473,2.0366308 41.1314514,2 42,2 C54.7025492,2 65,9.83501688 65,19.5 C65,25.7266601 60.7259672,31.1937793 54.2883205,34.2956041 C53.8237307,34.5194555 53.8791662,36.0630125 54.5182147,37.4694694 C55.4520393,39.5246875 57.159242,41.6445692 56.4063149,41.8777228 C55.5494119,42.1430739 52.4155835,41.2643067 49.9542147,39.7798785 C47.916489,38.5509455 46.5072755,36.6746005 45.7299688,36.7710477 C44.5159452,36.9216821 43.2699931,37 42,37 C40.702944,37 39.4309647,36.9183087 38.1924644,36.7613194 C45.2598093,33.1939693 50,26.6198096 50,19.0999756 C50,12.0282553 45.8079211,5.79286034 39.4306107,2.10797273 Z" id="Combined-Shape"></path>
            <path d="M24,38 C37.254834,38 48,29.4934102 48,19 C48,8.50658975 37.254834,0 24,0 C10.745166,0 0,8.50658975 0,19 C0,25.7851231 4.49257445,31.7395527 11.2512726,35.100682 C11.9276962,35.4370704 11.7797768,37.3132234 10.9417559,39.0171614 C9.90652976,41.1220745 8.11392837,43.111388 9.06110935,43.3725749 C9.94078108,43.6151461 13.8548436,42.6385396 16.7097019,41.0368351 C18.9932445,39.7556644 20.2974502,37.7851148 21.0594654,37.8588131 C22.0231614,37.952017 23.0045026,38 24,38 Z" id="Oval-27"></path>
        </g>
    </g>
</svg>