<?xml version="1.0" encoding="UTF-8"?>
<svg width="65px" height="50px" viewBox="0 0 65 50" version="1.1" xmlns="http://www.w3.org/2000/svg" xmlns:xlink="http://www.w3.org/1999/xlink">
    <!-- Generator: Sketch 40.1 (33804) - http://www.bohemiancoding.com/sketch -->
    <title>chats</title>
    <desc>Created with Sketch.</desc>
    <defs></defs>
    <g id="Page-1" stroke="none" stroke-width="1" fill="none" fill-rule="evenodd">
        <g id="chats" transform="translate(0.000000, 3.000000)" fill="#000000">
            <path d="M53.1209116,39.1566862 C53.1231548,39.1536299 53.1255139,39.1506763 53.1279907,39.1478271 C53.1324103,39.142743 53.1379438,39.1382292 53.1445397,39.1342627 C52.3903439,38.8292053 51.6435667,38.4631438 50.9870955,38.0672322 C50.6117206,37.8408472 50.2302041,37.5674535 49.812342,37.2313837 C49.4670214,36.9536562 48.3418756,35.9748803 48.1373748,35.8087518 C47.1676053,35.0209486 46.5047504,34.6595771 45.4836999,34.7862677 C44.3403491,34.9281331 43.1765402,35 42,35 C39.6069864,35 37.2707374,34.7026259 35.0604601,34.1277808 L34.5570505,36.0633889 C36.891529,36.670536 39.3951971,37 42,37 C43.2699931,37 44.5159452,36.9216821 45.7299688,36.7710477 C46.5072755,36.6746005 47.916489,38.5509455 49.9542147,39.7798785 C51.4195682,40.6636193 53.123262,41.3326952 54.4429549,41.6734878 L54.4649048,41.7027579 C55.2897491,41.9042226 56.0797102,41.9788601 56.4063149,41.8777228 C56.8425492,41.7426372 56.401245,40.8696054 55.8147049,39.8473511 C55.8141687,39.8475011 55.8107504,39.8465505 55.8046402,39.8445836 C55.3902636,39.12608 54.8922135,38.2925886 54.5182147,37.4694694 C53.8791662,36.0630125 53.8237307,34.5194555 54.2883205,34.2956041 C60.7259672,31.1937793 65,25.7266601 65,19.5 C65,9.83501688 54.7025492,2 42,2 C39.9457919,2 37.9544823,2.20490239 36.0594497,2.58931046 L36.4570526,4.54939004 C38.2478757,4.1861209 40.1066783,4 42,4 C53.6986343,4 63,11.0771261 63,19.5 C63,24.7369418 59.3908285,29.6170331 53.4201856,32.4938434 C51.5048702,33.4166918 51.6622491,36.0186722 52.6973598,38.296807 C52.7331257,38.3755226 52.770125,38.4549133 52.8083816,38.5351021 C52.9053537,38.738363 53.0083764,38.9429773 53.1209116,39.1566862 L53.1209116,39.1566862 Z" id="Combined-Shape"></path>
            <path d="M15.7311076,39.2926008 C16.1573731,39.0534466 16.5741553,38.7655547 17.007519,38.4186003 C17.2712487,38.2074563 17.5286113,37.9854072 17.8492143,37.6963257 C17.9472264,37.6079501 18.0492633,37.5151092 18.2458557,37.336044 C18.4098459,37.1869929 18.5251463,37.0835376 18.6389393,36.9841701 C19.6156493,36.1312774 20.2143106,35.7677419 21.2519972,35.8681018 C22.1583832,35.955763 23.0755066,36 24,36 C36.2393314,36 46,28.2728041 46,19 C46,9.72719595 36.2393314,2 24,2 C11.7606686,2 2,9.72719595 2,19 C2,24.8008705 5.83529955,30.1736335 12.1418357,33.3099008 C14.2522923,34.3594398 14.0210378,37.2878754 12.736448,39.8998165 C12.6004498,40.1763402 12.4529155,40.4530504 12.286589,40.7460627 C12.1705641,40.9504602 14.5497123,39.955417 15.7311076,39.2926008 Z M21.0594654,37.8588131 C20.2974502,37.7851148 18.9932445,39.7556644 16.7097019,41.0368351 C13.8548436,42.6385396 9.94078108,43.6151461 9.06110935,43.3725749 C8.11392837,43.111388 9.90652976,41.1220745 10.9417559,39.0171614 C11.7797768,37.3132234 11.9276962,35.4370704 11.2512726,35.100682 C4.49257445,31.7395527 0,25.7851231 0,19 C0,8.50658975 10.745166,0 24,0 C37.254834,0 48,8.50658975 48,19 C48,29.4934102 37.254834,38 24,38 C23.0045026,38 22.0231614,37.952017 21.0594654,37.8588131 Z" id="Oval-27"></path>
        </g>
    </g>
</svg>