<svg xmlns="http://www.w3.org/2000/svg" width="56" height="56" viewBox="0 0 56 56">
  <path d="M16.3190119,36.1428028 C17.6585299,35.6836476 19.0238655,35.5833549 20.4401791,35.8857851 C21.5807535,36.0478339 22.7393907,36.13 23.912,36.13 C35.0489613,36.13 43.824,28.7663489 43.824,20.064 C43.824,11.3634134 35.0486404,4 23.912,4 C12.7740903,4 4,11.3627737 4,20.064 C4,24.5562454 6.32798725,28.8094034 10.4103624,31.8510459 C10.5126921,31.926132 10.7470002,32.0911462 11.0043698,32.2694445 C11.1182376,32.3483288 11.2273588,32.4233964 11.3103144,32.4799546 C11.2930605,32.4681552 11.3595785,32.5128637 11.268155,32.458581 L11.4381887,32.5595385 L11.5974355,32.6767745 C13.225665,33.8754615 14.0027951,35.4813241 14.1121229,37.2328571 C14.9856021,36.7471447 15.8250474,36.3121222 16.3190119,36.1428028 Z M0,20.064 C0,8.984 10.704,0 23.912,0 C37.118,0 47.824,8.984 47.824,20.064 C47.824,31.146 37.118,40.13 23.912,40.13 C22.478,40.13 21.076,40.024 19.712,39.822 C19.71,39.822 19.706,39.82 19.704,39.82 C16.474,39.05 15.106,42.642 7.746,44.504 C6.234,44.888 6.052,44.506 7.21,43.278 C9.306,41.06 11.326,37.444 9.226,35.898 C9.162,35.86 8.352,35.302 8.044,35.076 C3.11,31.4 0,26.034 0,20.064 Z" transform="translate(4 5)"/>
</svg>
