<svg xmlns="http://www.w3.org/2000/svg" width="56" height="56" viewBox="0 0 56 56">
  <path fill-rule="evenodd" d="M28,56 C12.536027,56 0,43.463973 0,28 C0,12.536027 12.536027,0 28,0 C43.463973,0 56,12.536027 56,28 C56,43.463973 43.463973,56 28,56 Z M40.5857864,18.5857864 C39.8047379,17.8047379 38.5384079,17.8047379 37.7573593,18.5857864 L25,31.3431458 C24.2189514,32.1241943 22.9526215,32.1241943 22.1715729,31.3431458 L18.4142136,27.5857864 C17.633165,26.8047379 16.366835,26.8047379 15.5857864,27.5857864 C14.8047379,28.366835 14.8047379,29.633165 15.5857864,30.4142136 L22.1715729,37 C22.9526215,37.7810486 24.2189514,37.7810486 25,37 L40.5857864,21.4142136 C41.366835,20.633165 41.366835,19.366835 40.5857864,18.5857864 Z"/>
</svg>
