<svg xmlns="http://www.w3.org/2000/svg" width="56" height="56" viewBox="0 0 56 56">
  <path d="M40.5857864,18.5857864 C41.366835,19.366835 41.366835,20.633165 40.5857864,21.4142136 L25,37 C24.2189514,37.7810486 22.9526215,37.7810486 22.1715729,37 L15.5857864,30.4142136 C14.8047379,29.633165 14.8047379,28.366835 15.5857864,27.5857864 C16.366835,26.8047379 17.633165,26.8047379 18.4142136,27.5857864 L22.1715729,31.3431458 C22.9526215,32.1241943 24.2189514,32.1241943 25,31.3431458 L37.7573593,18.5857864 C38.5384079,17.8047379 39.8047379,17.8047379 40.5857864,18.5857864 Z"/>
  <path d="M28,52 C41.254834,52 52,41.254834 52,28 C52,14.745166 41.254834,4 28,4 C14.745166,4 4,14.745166 4,28 C4,41.254834 14.745166,52 28,52 Z M28,56 C12.536027,56 0,43.463973 0,28 C0,12.536027 12.536027,0 28,0 C43.463973,0 56,12.536027 56,28 C56,43.463973 43.463973,56 28,56 Z"/>
</svg>
