<svg xmlns="http://www.w3.org/2000/svg" width="56" height="56" viewBox="0 0 56 56">
  <path fill-rule="evenodd" d="M28,56 C12.536027,56 0,43.463973 0,28 C0,12.536027 12.536027,0 28,0 C43.463973,0 56,12.536027 56,28 C56,43.463973 43.463973,56 28,56 Z M17.2923752,27.0852486 C16.8464404,27.7133865 16.9125998,28.5848565 17.4772454,29.1495022 L31.6279048,43.3001615 C32.5666584,44.2389152 34.0785382,44.2302127 35.0164049,43.2923459 C35.9608104,42.3479405 35.957771,40.8373959 35.0242207,39.9038457 L23.1254846,28.0051096 L35.0339515,16.0966426 C35.9727052,15.157889 35.9640026,13.6460091 35.0261359,12.7081423 C34.0817306,11.763737 32.571186,11.7667764 31.6376357,12.7003267 L17.4869763,26.850986 C17.4136293,26.9243331 17.3487643,27.0028223 17.2923752,27.0852486 Z"/>
</svg>
