<svg xmlns="http://www.w3.org/2000/svg" width="56" height="56" viewBox="0 0 56 56">
  <path fill-rule="evenodd" d="M28,56 C12.536027,56 0,43.463973 0,28 C0,12.536027 12.536027,0 28,0 C43.463973,0 56,12.536027 56,28 C56,43.463973 43.463973,56 28,56 Z M29.2816463,16.9254802 C28.6535084,16.4795454 27.7820384,16.5457048 27.2173928,17.1103505 L13.0667335,31.2610098 C12.1279798,32.1997634 12.1366823,33.7116433 13.0745491,34.64951 C14.0189544,35.5939154 15.529499,35.590876 16.4630493,34.6573257 L28.3617854,22.7585896 L40.2702524,34.6670565 C41.209006,35.6058102 42.7208859,35.5971076 43.6587526,34.6592409 C44.603158,33.7148356 44.6001186,32.204291 43.6665683,31.2707407 L29.515909,17.1200814 C29.4425619,17.0467343 29.3640727,16.9818693 29.2816463,16.9254802 Z"/>
</svg>
