<?xml version="1.0" encoding="UTF-8"?>
<svg width="56px" height="56px" viewBox="0 0 56 56" version="1.1" xmlns="http://www.w3.org/2000/svg" xmlns:xlink="http://www.w3.org/1999/xlink">
    <!-- Generator: Sketch 52.1 (67048) - http://www.bohemiancoding.com/sketch -->
    <title>chevron_down_round_fill</title>
    <desc>Created with Sketch.</desc>
    <g id="Page-1" stroke="none" stroke-width="1" fill="none" fill-rule="evenodd">
        <g id="chevron_down_round_fill" fill="#000000">
            <path d="M28,56 C12.536027,56 0,43.463973 0,28 C0,12.536027 12.536027,0 28,0 C43.463973,0 56,12.536027 56,28 C56,43.463973 43.463973,56 28,56 Z M27.4521436,39.0745198 C28.0802815,39.5204546 28.9517515,39.4542952 29.5163972,38.8896495 L43.6670565,24.7389902 C44.6058101,23.8002366 44.5971077,22.2883567 43.6592408,21.35049 C42.7148355,20.4060846 41.2042909,20.409124 40.2707406,21.3426743 L28.3720045,33.2414104 L16.4635376,21.3329435 C15.524784,20.3941898 14.0129041,20.4028924 13.0750373,21.3407591 C12.1306319,22.2851644 12.1336714,23.795709 13.0672216,24.7292593 L27.217881,38.8799186 C27.2912281,38.9532657 27.3697173,39.0181307 27.4521436,39.0745198 Z" id="Combined-Shape"></path>
        </g>
    </g>
</svg>