<svg xmlns="http://www.w3.org/2000/svg" width="56" height="56" viewBox="0 0 56 56">
  <path fill-rule="evenodd" d="M28,56 C12.536027,56 0,43.463973 0,28 C0,12.536027 12.536027,0 28,0 C43.463973,0 56,12.536027 56,28 C56,43.463973 43.463973,56 28,56 Z M39.4414148,28.9147514 C39.8873496,28.2866135 39.8211902,27.4151435 39.2565445,26.8504978 L25.1058852,12.6998385 C24.1671316,11.7610848 22.6552517,11.7697873 21.717385,12.7076541 C20.7729795,13.6520595 20.776019,15.1626041 21.7095692,16.0961543 L33.6083054,27.9948904 L21.6998384,39.9033574 C20.7610848,40.842111 20.7697874,42.3539909 21.7076541,43.2918577 C22.6520594,44.236263 24.162604,44.2332236 25.0961543,43.2996733 L39.2468136,29.149014 C39.3201607,29.0756669 39.3850257,28.9971777 39.4414148,28.9147514 Z"/>
</svg>
