<svg xmlns="http://www.w3.org/2000/svg" width="56" height="56" viewBox="0 0 56 56">
  <g fill-rule="evenodd">
    <path fill-rule="nonzero" d="M28,52 C41.254834,52 52,41.254834 52,28 C52,14.745166 41.254834,4 28,4 C14.745166,4 4,14.745166 4,28 C4,41.254834 14.745166,52 28,52 Z M28,56 C12.536027,56 0,43.463973 0,28 C0,12.536027 12.536027,0 28,0 C43.463973,0 56,12.536027 56,28 C56,43.463973 43.463973,56 28,56 Z"/>
    <path d="M30.8284271,28 L39.3137085,36.4852814 C40.0947571,37.26633 40.0947571,38.5326599 39.3137085,39.3137085 C38.5326599,40.0947571 37.26633,40.0947571 36.4852814,39.3137085 L28,30.8284271 L19.5147186,39.3137085 C18.73367,40.0947571 17.4673401,40.0947571 16.6862915,39.3137085 C15.9052429,38.5326599 15.9052429,37.26633 16.6862915,36.4852814 L25.1715729,28 L16.6862915,19.5147186 C15.9052429,18.73367 15.9052429,17.4673401 16.6862915,16.6862915 C17.4673401,15.9052429 18.73367,15.9052429 19.5147186,16.6862915 L28,25.1715729 L36.4852814,16.6862915 C37.26633,15.9052429 38.5326599,15.9052429 39.3137085,16.6862915 C40.0947571,17.4673401 40.0947571,18.73367 39.3137085,19.5147186 L30.8284271,28 Z"/>
  </g>
</svg>
