<?xml version="1.0" encoding="UTF-8"?>
<svg width="56px" height="56px" viewBox="0 0 56 56" version="1.1" xmlns="http://www.w3.org/2000/svg" xmlns:xlink="http://www.w3.org/1999/xlink">
    <!-- Generator: Sketch 52.1 (67048) - http://www.bohemiancoding.com/sketch -->
    <title>close</title>
    <desc>Created with Sketch.</desc>
    <g id="Page-1" stroke="none" stroke-width="1" fill="none" fill-rule="evenodd">
        <g id="close" transform="translate(5.000000, 5.000000)" fill="#000000">
            <path d="M25.8284271,23 L34.3137085,31.4852814 C35.0947571,32.26633 35.0947571,33.5326599 34.3137085,34.3137085 C33.5326599,35.0947571 32.26633,35.0947571 31.4852814,34.3137085 L23,25.8284271 L14.5147186,34.3137085 C13.73367,35.0947571 12.4673401,35.0947571 11.6862915,34.3137085 C10.9052429,33.5326599 10.9052429,32.26633 11.6862915,31.4852814 L20.1715729,23 L11.6862915,14.5147186 C10.9052429,13.73367 10.9052429,12.4673401 11.6862915,11.6862915 C12.4673401,10.9052429 13.73367,10.9052429 14.5147186,11.6862915 L23,20.1715729 L31.4852814,11.6862915 C32.26633,10.9052429 33.5326599,10.9052429 34.3137085,11.6862915 C35.0947571,12.4673401 35.0947571,13.73367 34.3137085,14.5147186 L25.8284271,23 Z" id="Path"></path>
        </g>
    </g>
</svg>