<svg xmlns="http://www.w3.org/2000/svg" width="56" height="56" viewBox="0 0 56 56">
  <path d="M27.0279221,36 L27.0279221,48 C27.0279221,49.1045695 26.1324916,50 25.0279221,50 C23.9233526,50 23.0279221,49.1045695 23.0279221,48 L23.0279221,36 L17,36 L8.37505772,35.9999951 C6.91747018,35.9999951 5.50972394,35.4694026 4.41475406,34.5073203 C1.4988596,31.9453041 1.21036514e-12,28.7328139 7.63833441e-13,25 C3.2063241e-13,21.2938731 1.48707777,18.3065121 4.38905161,16.2419509 C4.82560163,15.9313809 5.11929331,15.4586388 5.20430915,14.9296655 C5.67037307,12.0297895 6.86572004,9.8064817 8.8236566,8.38252783 C10.941625,6.84218718 13.7663036,6.36538851 17.2298482,6.84621633 C21.4399221,2.24728213 26.1972487,0.29672483 31.3426823,1.19158285 C36.641628,2.11313861 40.4190785,6.00472012 42.6331005,12.5482366 C47.4693013,14.9069167 50,18.8107326 50,24 C50,27.8126694 48.6302235,30.9688073 45.9233706,33.313886 C43.9236393,35.0463526 41.3664643,36 38.7206433,36 L27.0279221,36 Z M27.0279221,36 L27.0279221,26.8284271 L30.7852814,30.5857864 C31.56633,31.366835 32.8326599,31.366835 33.6137085,30.5857864 C34.3947571,29.8047379 34.3947571,28.5384079 33.6137085,27.7573593 L26.5426407,20.6862915 C26.5257652,20.669416 26.5086631,20.6529051 26.4913443,20.6367588 C26.1262362,20.2449921 25.6056896,20 25.0279221,20 C24.5347694,20 24.0833049,20.1784878 23.7346048,20.4743869 C23.6472488,20.5371259 23.5638121,20.6077607 23.4852814,20.6862915 L16.4142136,27.7573593 C15.633165,28.5384079 15.633165,29.8047379 16.4142136,30.5857864 C17.1952621,31.366835 18.4615921,31.366835 19.2426407,30.5857864 L23.0279221,26.8005051 L23.0279221,36 L27.0279221,36 Z" transform="translate(3 2)"/>
</svg>
