<?xml version="1.0" encoding="UTF-8"?>
<svg width="50px" height="59px" viewBox="0 0 50 59" version="1.1" xmlns="http://www.w3.org/2000/svg" xmlns:xlink="http://www.w3.org/1999/xlink">
    <!-- Generator: Sketch 40.1 (33804) - http://www.bohemiancoding.com/sketch -->
    <title>cloud_upload_fill</title>
    <desc>Created with Sketch.</desc>
    <defs></defs>
    <g id="Page-1" stroke="none" stroke-width="1" fill="none" fill-rule="evenodd">
        <g id="cloud_upload_fill" transform="translate(-10.000000, 0.000000)" fill="#000000">
            <path d="M57.8900879,20.0004929 L59.8779727,20.2202977 C65.6173657,21.0520702 70,26.0142255 70,32 C70,38.627417 64.627417,44 58,44 L13,44 C5.82029825,44 0,38.1797017 0,31 C0,25.2081552 3.78761885,20.3009561 9.02103649,18.6202229 C9.00708811,18.4152894 9,18.2084724 9,18 C9,13.0294373 13.0294373,9 18,9 C19.3370812,9 20.6060617,9.29157405 21.7468271,9.81460785 C22,10 23.4737076,10.8552975 23.4737076,10.8552975 C23.4737076,10.8552975 24,9.81460785 24.3842353,9.04134602 C27.4905925,3.63834085 33.3204062,0 40,0 C49.9411255,0 58,8.0588745 58,18 C57.9360329,18.0000957 57.8900879,20.0004929 57.8900879,20.0004929 Z M36.0483699,23.8404609 L36.0483699,44 L34.0483699,44 L34.0483699,23.8399314 L27.9625835,29.9257178 L26.5483699,28.5115043 L35.0336513,20.0262229 L35.0481052,20.0406768 L35.0625591,20.0262229 L43.5478405,28.5115043 L42.1336269,29.9257178 L36.0483699,23.8404609 Z" id="Combined-Shape"></path>
            <polygon id="Rectangle-112" points="34.0500488 44 36 44 36 59 34 59"></polygon>
        </g>
    </g>
</svg>