<?xml version="1.0" encoding="UTF-8"?>
<svg width="50px" height="50px" viewBox="0 0 50 50" version="1.1" xmlns="http://www.w3.org/2000/svg" xmlns:xlink="http://www.w3.org/1999/xlink">
    <!-- Generator: Sketch 40.1 (33804) - http://www.bohemiancoding.com/sketch -->
    <title>cloud_fill</title>
    <desc>Created with Sketch.</desc>
    <defs></defs>
    <g id="Page-1" stroke="none" stroke-width="1" fill="none" fill-rule="evenodd">
        <g id="cloud_fill" transform="translate(-10.000000, 3.000000)" fill="#000000">
            <path d="M58,44 L13,44 C5.82029825,44 0,38.1797017 0,31 C0,25.2081552 3.78761885,20.3009561 9.02103649,18.6202229 L9.02103649,18.6202229 C9.00708811,18.4152894 9,18.2084724 9,18 C9,13.0294373 13.0294373,9 18,9 C20.0593174,9 21.9570936,9.69163958 23.4737076,10.8552975 C26.2386167,4.4685206 32.5974689,0 40,0 C49.9411255,0 58,8.0588745 58,18 C58,18.6761873 57.9627147,19.3436662 57.8900879,20.0004929 C57.9266864,20.0001645 57.963324,20 58,20 C64.627417,20 70,25.372583 70,32 C70,38.627417 64.627417,44 58,44 L58,44 Z" id="Rectangle-36"></path>
        </g>
    </g>
</svg>