<svg xmlns="http://www.w3.org/2000/svg" width="56" height="56" viewBox="0 0 56 56">
  <path d="M36.7206433,30 C38.4043474,30 40.03164,29.3931337 41.3041965,28.2906547 C43.1122986,26.7242077 44,24.6788317 44,22 C44,18.2680348 42.2705769,15.6937969 38.56773,13.9959184 C37.8036516,13.6455631 37.2216093,12.9907211 36.9632955,12.1908023 C35.1889828,6.6961036 32.4351932,3.7894517 28.6573177,3.13242987 C24.8434384,2.46914652 21.3045053,3.98553807 17.8670272,7.89640402 C17.1837907,8.67373155 16.1481429,9.04402628 15.1270741,8.87609921 C12.3779707,8.42418517 10.4207769,8.71242963 9.1763434,9.61747217 C8.14827543,10.365158 7.46293478,11.6398701 7.15362798,13.5643944 C6.89857931,15.1513216 6.0174917,16.5695679 4.70782883,17.501287 C2.87854385,18.8027015 2,20.5675908 2,23 C2,25.5649083 2.99104464,27.689004 5.05495865,29.5024377 C5.41994802,29.8231312 5.889196,29.9999951 6.37505886,29.9999951 L15.0000011,30 L36.7206433,30 Z M48,22 C48,25.8126694 46.6302235,28.9688073 43.9233706,31.313886 C41.9236393,33.0463526 39.3664643,34 36.7206433,34 L31,34 L15,34 L6.37505772,33.9999951 C4.91747018,33.9999951 3.50972394,33.4694026 2.41475406,32.5073203 C-0.501140402,29.9453041 -2,26.7328139 -2,23 C-2,19.2938731 -0.512922229,16.3065121 2.38905161,14.2419509 C2.82560163,13.9313809 3.11929331,13.4586388 3.20430915,12.9296655 C3.67037307,10.0297895 4.86572004,7.8064817 6.8236566,6.38252783 C8.941625,4.84218718 11.7663036,4.36538851 15.2298482,4.84621633 C19.4399221,0.24728213 24.1972487,-1.70327517 29.3426823,-0.808417152 C34.641628,0.113138609 38.4190785,4.00472012 40.6331005,10.5482366 C45.4693013,12.9069167 48,16.8107326 48,22 Z" transform="translate(5 12)"/>
</svg>
