<?xml version="1.0" encoding="UTF-8"?>
<svg width="50px" height="50px" viewBox="0 0 50 50" version="1.1" xmlns="http://www.w3.org/2000/svg" xmlns:xlink="http://www.w3.org/1999/xlink">
    <!-- Generator: Sketch 40.1 (33804) - http://www.bohemiancoding.com/sketch -->
    <title>cloud</title>
    <desc>Created with Sketch.</desc>
    <defs></defs>
    <g id="Page-1" stroke="none" stroke-width="1" fill="none" fill-rule="evenodd">
        <g id="cloud" transform="translate(-10.000000, 3.000000)" fill="#000000">
            <path d="M58,42 C63.5228475,42 68,37.5228475 68,32 C68,26.4771525 63.5228475,22 58,22 C57.9539775,22.0000689 55.6545277,22.0206315 55.6545277,22.0206315 L55.9022032,19.7806881 C55.9672214,19.1926723 56,18.5985554 56,18 C56,9.163444 48.836556,2 40,2 C33.5592608,2 27.8241711,5.84019737 25.3091012,11.6498605 L24.2904638,14.0028529 L22.256238,12.4420451 C21.0433184,11.5114038 19.5631857,11 18,11 C14.1340068,11 11,14.1340068 11,18 C11,18.1623442 11.0054928,18.3238656 11.01642,18.4844113 L11.1226977,20.0458753 L9.63258101,20.5244323 C5.12117104,21.9732898 2,26.1857233 2,31 C2,37.0751322 6.92486775,42 13,42 L58,42 Z M57.8900879,20.0004929 L59.8779727,20.2202977 C65.6173657,21.0520702 70,26.0142255 70,32 C70,38.627417 64.627417,44 58,44 L13,44 C5.82029825,44 0,38.1797017 0,31 C0,25.2081552 3.78761885,20.3009561 9.02103649,18.6202229 C9.00708811,18.4152894 9,18.2084724 9,18 C9,13.0294373 13.0294373,9 18,9 C19.3370812,9 20.6060617,9.29157405 21.7468271,9.81460785 C22,10 23.4737076,10.8552975 23.4737076,10.8552975 C23.4737076,10.8552975 24,9.81460785 24.3842353,9.04134602 C27.4905925,3.63834085 33.3204062,0 40,0 C49.9411255,0 58,8.0588745 58,18 C57.9360329,18.0000957 57.8900879,20.0004929 57.8900879,20.0004929 Z" id="Rectangle-36"></path>
        </g>
    </g>
</svg>