<svg xmlns="http://www.w3.org/2000/svg" width="56" height="56" viewBox="0 0 56 56">
  <path d="M50,24 C50,27.8126694 48.6302235,30.9688073 45.9233706,33.313886 C43.9236393,35.0463526 41.3664643,36 38.7206433,36 L33,36 L17,36 L8.37505772,35.9999951 C6.91747018,35.9999951 5.50972394,35.4694026 4.41475406,34.5073203 C1.4988596,31.9453041 1.3560264e-12,28.7328139 9.09494702e-13,25 C4.6629367e-13,21.2938731 1.48707777,18.3065121 4.38905161,16.2419509 C4.82560163,15.9313809 5.11929331,15.4586388 5.20430915,14.9296655 C5.67037307,12.0297895 6.86572004,9.8064817 8.8236566,8.38252783 C10.941625,6.84218718 13.7663036,6.36538851 17.2298482,6.84621633 C21.4399221,2.24728213 26.1972487,0.29672483 31.3426823,1.19158285 C36.641628,2.11313861 40.4190785,6.00472012 42.6331005,12.5482366 C47.4693013,14.9069167 50,18.8107326 50,24 Z" transform="translate(3 10)"/>
</svg>
