<svg xmlns="http://www.w3.org/2000/svg" width="56" height="56" viewBox="0 0 56 56">
  <path d="M27,36 L27,43.1994949 L30.7852814,39.4142136 C31.56633,38.633165 32.8326599,38.633165 33.6137085,39.4142136 C34.3947571,40.1952621 34.3947571,41.4615921 33.6137085,42.2426407 L26.5426407,49.3137085 C26.4641099,49.3922393 26.3806733,49.4628741 26.2933173,49.5256131 C25.9446172,49.8215122 25.4931526,50 25,50 C24.4222325,50 23.9016859,49.7550079 23.5365778,49.3632412 C23.519259,49.3470949 23.5021569,49.330584 23.4852814,49.3137085 L16.4142136,42.2426407 C15.633165,41.4615921 15.633165,40.1952621 16.4142136,39.4142136 C17.1952621,38.633165 18.4615921,38.633165 19.2426407,39.4142136 L23,43.1715729 L23,36 L17,36 L8.37505772,35.9999951 C6.91747018,35.9999951 5.50972394,35.4694026 4.41475406,34.5073203 C1.4988596,31.9453041 1.21036514e-12,28.7328139 7.63833441e-13,25 C3.2063241e-13,21.2938731 1.48707777,18.3065121 4.38905161,16.2419509 C4.82560163,15.9313809 5.11929331,15.4586388 5.20430915,14.9296655 C5.67037307,12.0297895 6.86572004,9.8064817 8.8236566,8.38252783 C10.941625,6.84218718 13.7663036,6.36538851 17.2298482,6.84621633 C21.4399221,2.24728213 26.1972487,0.29672483 31.3426823,1.19158285 C36.641628,2.11313861 40.4190785,6.00472012 42.6331005,12.5482366 C47.4693013,14.9069167 50,18.8107326 50,24 C50,27.8126694 48.6302235,30.9688073 45.9233706,33.313886 C43.9236393,35.0463526 41.3664643,36 38.7206433,36 L27,36 Z M27,36 L27,22 C27,20.8954305 26.1045695,20 25,20 C23.8954305,20 23,20.8954305 23,22 L23,36 L27,36 Z" transform="translate(3 2)"/>
</svg>
