<svg xmlns="http://www.w3.org/2000/svg" width="56" height="56" viewBox="0 0 56 56">
  <g fill-rule="evenodd" transform="translate(3 2)">
    <path d="M23.7346048,20.4743869 C24.0833049,20.1784878 24.5347694,20 25.0279221,20 C25.6056896,20 26.1262362,20.2449921 26.4913443,20.6367588 C26.5086631,20.6529051 26.5257652,20.669416 26.5426407,20.6862915 L33.6137085,27.7573593 C34.3947571,28.5384079 34.3947571,29.8047379 33.6137085,30.5857864 C32.8326599,31.366835 31.56633,31.366835 30.7852814,30.5857864 L27.0279221,26.8284271 L27.0279221,48 C27.0279221,49.1045695 26.1324916,50 25.0279221,50 C23.9233526,50 23.0279221,49.1045695 23.0279221,48 L23.0279221,26.8005051 L19.2426407,30.5857864 C18.4615921,31.366835 17.1952621,31.366835 16.4142136,30.5857864 C15.633165,29.8047379 15.633165,28.5384079 16.4142136,27.7573593 L23.4852814,20.6862915 C23.5638121,20.6077607 23.6472488,20.5371259 23.7346048,20.4743869 Z"/>
    <path fill-rule="nonzero" d="M50,24 C50,27.8126694 48.6302235,30.9688073 45.9233706,33.313886 C43.9236393,35.0463526 41.3664643,36 38.7206433,36 L35,36 C33.8954305,36 33,35.1045695 33,34 C33,32.8954305 33.8954305,32 35,32 L38.7206433,32 C40.4043474,32 42.03164,31.3931337 43.3041965,30.2906547 C45.1122986,28.7242077 46,26.6788317 46,24 C46,20.2680348 44.2705769,17.6937969 40.56773,15.9959184 C39.8036516,15.6455631 39.2216093,14.9907211 38.9632955,14.1908023 C37.1889828,8.6961036 34.4351932,5.7894517 30.6573177,5.13242987 C26.8434384,4.46914652 23.3045053,5.98553807 19.8670272,9.89640402 C19.1837907,10.6737315 18.1481429,11.0440263 17.1270741,10.8760992 C14.3779707,10.4241852 12.4207769,10.7124296 11.1763434,11.6174722 C10.1482754,12.365158 9.46293478,13.6398701 9.15362798,15.5643944 C8.89857931,17.1513216 8.0174917,18.5695679 6.70782883,19.501287 C4.87854385,20.8027015 4,22.5675908 4,25 C4,27.5649083 4.99104464,29.689004 7.05495865,31.5024377 C7.41994802,31.8231312 7.889196,31.9999951 8.37505886,31.9999951 L15.0000011,31.9999989 C16.1045706,31.9999995 17.0000006,32.8954305 17,34 C16.9999994,35.1045695 16.1045684,35.9999995 14.9999989,35.9999989 L8.37505772,35.9999951 C6.91747018,35.9999951 5.50972394,35.4694026 4.41475406,34.5073203 C1.4988596,31.9453041 4.46531701e-13,28.7328139 0,25 C-4.43201031e-13,21.2938731 1.48707777,18.3065121 4.38905161,16.2419509 C4.82560163,15.9313809 5.11929331,15.4586388 5.20430915,14.9296655 C5.67037307,12.0297895 6.86572004,9.8064817 8.8236566,8.38252783 C10.941625,6.84218718 13.7663036,6.36538851 17.2298482,6.84621633 C21.4399221,2.24728213 26.1972487,0.29672483 31.3426823,1.19158285 C36.641628,2.11313861 40.4190785,6.00472012 42.6331005,12.5482366 C47.4693013,14.9069167 50,18.8107326 50,24 Z"/>
  </g>
</svg>
