<?xml version="1.0" encoding="UTF-8"?>
<svg width="56px" height="56px" viewBox="0 0 56 56" version="1.1" xmlns="http://www.w3.org/2000/svg" xmlns:xlink="http://www.w3.org/1999/xlink">
    <!-- Generator: Sketch 52.1 (67048) - http://www.bohemiancoding.com/sketch -->
    <title>collection_fill</title>
    <desc>Created with Sketch.</desc>
    <g id="Page-1" stroke="none" stroke-width="1" fill="none" fill-rule="evenodd">
        <g id="collection_fill" transform="translate(1.000000, 5.000000)" fill="#000000">
            <path d="M4,12 L50,12 C52.209139,12 54,13.790861 54,16 L54,42 C54,44.209139 52.209139,46 50,46 L4,46 C1.790861,46 2.705415e-16,44.209139 0,42 L0,16 C-2.705415e-16,13.790861 1.790861,12 4,12 Z" id="Rectangle"></path>
            <path d="M5.5,6 L48.5,6 C49.3284271,6 50,6.67157288 50,7.5 C50,8.32842712 49.3284271,9 48.5,9 L5.5,9 C4.67157288,9 4,8.32842712 4,7.5 C4,6.67157288 4.67157288,6 5.5,6 Z" id="Rectangle"></path>
            <path d="M9.5,0 L44.5,0 C45.3284271,-1.52179594e-16 46,0.671572875 46,1.5 C46,2.32842712 45.3284271,3 44.5,3 L9.5,3 C8.67157288,3 8,2.32842712 8,1.5 C8,0.671572875 8.67157288,1.52179594e-16 9.5,0 Z" id="Rectangle"></path>
        </g>
    </g>
</svg>