<svg xmlns="http://www.w3.org/2000/svg" width="56" height="56" viewBox="0 0 56 56">
  <path fill-rule="evenodd" d="M4 12L50 12C52.209139 12 54 13.790861 54 16L54 42C54 44.209139 52.209139 46 50 46L4 46C1.790861 46 2.705415e-16 44.209139 0 42L0 16C-2.705415e-16 13.790861 1.790861 12 4 12zM6 16C4.8954305 16 4 16.8954305 4 18L4 40C4 41.1045695 4.8954305 42 6 42L48 42C49.1045695 42 50 41.1045695 50 40L50 18C50 16.8954305 49.1045695 16 48 16L6 16zM5.5 6L48.5 6C49.3284271 6 50 6.67157288 50 7.5 50 8.32842712 49.3284271 9 48.5 9L5.5 9C4.67157288 9 4 8.32842712 4 7.5 4 6.67157288 4.67157288 6 5.5 6zM9.5 0L44.5 0C45.3284271-1.52179594e-16 46 .671572875 46 1.5 46 2.32842712 45.3284271 3 44.5 3L9.5 3C8.67157288 3 8 2.32842712 8 1.5 8 .671572875 8.67157288 1.52179594e-16 9.5 0z" transform="translate(1 5)"/>
</svg>
