<?xml version="1.0" encoding="UTF-8"?>
<svg width="50px" height="50px" viewBox="0 0 50 50" version="1.1" xmlns="http://www.w3.org/2000/svg" xmlns:xlink="http://www.w3.org/1999/xlink">
    <!-- Generator: Sketch 40.1 (33804) - http://www.bohemiancoding.com/sketch -->
    <title>compass_fill</title>
    <desc>Created with Sketch.</desc>
    <defs></defs>
    <g id="Page-1" stroke="none" stroke-width="1" fill="none" fill-rule="evenodd">
        <g id="compass_fill" fill="#000000">
            <path d="M28.6505316,27.5962924 L28.6568542,27.6026151 L39.263456,11.3391592 L23.0098834,21.9393152 L23.0059204,21.9353638 L11.0371496,39.5452924 L11,39.5823975 L11.0221572,39.567351 L11.0061646,39.5908813 L11.045498,39.5515007 L28.6505316,27.5962924 Z M16.6583859,33.9311164 L23.2204283,24.3076955 L24.8758216,25.9466766 L26.2831858,27.3681337 L16.6583859,33.9311164 Z M25,50 C38.8071187,50 50,38.8071187 50,25 C50,11.1928813 38.8071187,0 25,0 C11.1928813,0 0,11.1928813 0,25 C0,38.8071187 11.1928813,50 25,50 Z" id="Combined-Shape"></path>
        </g>
    </g>
</svg>