<svg xmlns="http://www.w3.org/2000/svg" width="56" height="56" viewBox="0 0 56 56">
  <g fill-rule="evenodd" transform="translate(5 5)">
    <path d="M45.078 1.897L43.734.555C42.994-.185 41.784-.185 41.044.555L39.702 1.897 43.734 5.931 45.078 4.587C45.818 3.849 45.818 2.641 45.078 1.897L45.078 1.897zM39.67 4.649L38.326 3.305 17.9 23.707C17.9 23.707 16.986 25.321 16.646 26.465 16.142 28.163 15.986 29.617 15.986 29.617 15.986 29.617 17.678 29.569 19.36 29.023 20.432 28.677 21.932 27.741 21.932 27.741L42.36 7.341 41.014 5.997 39.67 4.649z" style="mix-blend-mode:color-burn"/>
    <path d="M35.972,40.651 C35.972,41.191 35.514,41.651 34.972,41.651 L5,41.651 C4.458,41.651 4,41.191 4,40.651 L4,10.633 C4,10.091 4.458,9.633 5,9.633 L27.162,9.633 L30.978,5.633 L5,5.633 C2.244,5.633 0,7.875 0,10.633 L0,40.651 C0,43.407 2.244,45.651 5,45.651 L34.972,45.651 C37.73,45.651 39.972,43.407 39.972,40.651 L39.972,14.633 L35.972,18.523 L35.972,40.651 Z" style="mix-blend-mode:color-burn"/>
  </g>
</svg>
