<?xml version="1.0" encoding="UTF-8"?>
<svg width="56px" height="56px" viewBox="0 0 56 56" version="1.1" xmlns="http://www.w3.org/2000/svg" xmlns:xlink="http://www.w3.org/1999/xlink">
    <!-- Generator: Sketch 52.1 (67048) - http://www.bohemiancoding.com/sketch -->
    <title>compass</title>
    <desc>Created with Sketch.</desc>
    <g id="Page-1" stroke="none" stroke-width="1" fill="none" fill-rule="evenodd">
        <g id="compass" fill="#000000">
            <path d="M28,51 C40.7025492,51 51,40.7025492 51,28 C51,15.2974508 40.7025492,5 28,5 C15.2974508,5 5,15.2974508 5,28 C5,40.7025492 15.2974508,51 28,51 Z M28,56 C12.536027,56 0,43.463973 0,28 C0,12.536027 12.536027,0 28,0 C43.463973,0 56,12.536027 56,28 C56,43.463973 43.463973,56 28,56 Z" id="Oval" fill-rule="nonzero"></path>
            <path d="M31.9705627,31.9705627 L15,40.4558441 L23.4852814,23.4852814 L40.4558441,15 L31.9705627,31.9705627 Z M20.472136,34.9837082 L29.5942327,29.4226598 L26.0331843,25.8616114 L20.472136,34.9837082 Z" id="Shape"></path>
        </g>
    </g>
</svg>