<?xml version="1.0" encoding="UTF-8"?>
<svg width="56px" height="56px" viewBox="0 0 56 56" version="1.1" xmlns="http://www.w3.org/2000/svg" xmlns:xlink="http://www.w3.org/1999/xlink">
    <!-- Generator: Sketch 52.1 (67048) - http://www.bohemiancoding.com/sketch -->
    <title>compose_fill</title>
    <desc>Created with Sketch.</desc>
    <g id="Page-1" stroke="none" stroke-width="1" fill="none" fill-rule="evenodd">
        <g id="compose_fill" transform="translate(5.000000, 5.000000)" fill="#000000">
            <path d="M33.4654814,5.63 L16.6257147,22.4608766 C16.6257147,22.4608766 15.3651613,24.6882849 14.8962465,26.2670675 C14.2011492,28.6104004 13.986,31.617 13.986,31.617 C13.986,31.617 17.3195409,31.5507574 19.6392902,30.7972475 C21.1177511,30.3197486 23.1864931,29.0280173 23.1864931,29.0280173 L39.97,12.2566574 L39.97,40.65 C39.97,43.4114237 37.7314237,45.65 34.97,45.65 L5,45.65 C2.23857625,45.65 4.01713235e-15,43.4114237 0,40.65 L8.8817842e-16,10.63 C5.50001544e-16,7.86857625 2.23857625,5.63 5,5.63 L33.4654814,5.63 Z" id="Path"></path>
            <path d="M45.078,1.897 L43.734,0.555 C42.994,-0.185 41.784,-0.185 41.044,0.555 L39.702,1.897 L43.734,5.931 L45.078,4.587 C45.818,3.849 45.818,2.641 45.078,1.897 L45.078,1.897 Z" id="Path" style="mix-blend-mode: color-burn;"></path>
            <path d="M39.67,4.649 L38.326,3.305 L17.9,23.707 C17.9,23.707 16.986,25.321 16.646,26.465 C16.142,28.163 15.986,29.617 15.986,29.617 C15.986,29.617 17.678,29.569 19.36,29.023 C20.432,28.677 21.932,27.741 21.932,27.741 L42.36,7.341 L41.014,5.997 L39.67,4.649 Z" id="Path" style="mix-blend-mode: color-burn;"></path>
        </g>
    </g>
</svg>