<svg xmlns="http://www.w3.org/2000/svg" width="56" height="56" viewBox="0 0 56 56">
  <g fill-rule="evenodd" transform="translate(5 5)">
    <path d="M33.4654814,5.63 L16.6257147,22.4608766 C16.6257147,22.4608766 15.3651613,24.6882849 14.8962465,26.2670675 C14.2011492,28.6104004 13.986,31.617 13.986,31.617 C13.986,31.617 17.3195409,31.5507574 19.6392902,30.7972475 C21.1177511,30.3197486 23.1864931,29.0280173 23.1864931,29.0280173 L39.97,12.2566574 L39.97,40.65 C39.97,43.4114237 37.7314237,45.65 34.97,45.65 L5,45.65 C2.23857625,45.65 4.01713235e-15,43.4114237 0,40.65 L8.8817842e-16,10.63 C5.50001544e-16,7.86857625 2.23857625,5.63 5,5.63 L33.4654814,5.63 Z"/>
    <path d="M45.078 1.897L43.734.555C42.994-.185 41.784-.185 41.044.555L39.702 1.897 43.734 5.931 45.078 4.587C45.818 3.849 45.818 2.641 45.078 1.897L45.078 1.897zM39.67 4.649L38.326 3.305 17.9 23.707C17.9 23.707 16.986 25.321 16.646 26.465 16.142 28.163 15.986 29.617 15.986 29.617 15.986 29.617 17.678 29.569 19.36 29.023 20.432 28.677 21.932 27.741 21.932 27.741L42.36 7.341 41.014 5.997 39.67 4.649z" style="mix-blend-mode:color-burn"/>
  </g>
</svg>
