<svg xmlns="http://www.w3.org/2000/svg" width="56" height="56" viewBox="0 0 56 56">
  <path fill-rule="evenodd" d="M4 0L16 0C18.209139-4.05812251e-16 20 1.790861 20 4L20 16C20 18.209139 18.209139 20 16 20L4 20C1.790861 20 2.705415e-16 18.209139 0 16L0 4C-2.705415e-16 1.790861 1.790861 4.05812251e-16 4 0zM6 4C4.8954305 4 4 4.8954305 4 6L4 14C4 15.1045695 4.8954305 16 6 16L14 16C15.1045695 16 16 15.1045695 16 14L16 6C16 4.8954305 15.1045695 4 14 4L6 4zM4 24L16 24C18.209139 24 20 25.790861 20 28L20 40C20 42.209139 18.209139 44 16 44L4 44C1.790861 44 2.705415e-16 42.209139 0 40L0 28C-2.705415e-16 25.790861 1.790861 24 4 24zM6 28C4.8954305 28 4 28.8954305 4 30L4 38C4 39.1045695 4.8954305 40 6 40L14 40C15.1045695 40 16 39.1045695 16 38L16 30C16 28.8954305 15.1045695 28 14 28L6 28zM28 0L40 0C42.209139-4.05812251e-16 44 1.790861 44 4L44 16C44 18.209139 42.209139 20 40 20L28 20C25.790861 20 24 18.209139 24 16L24 4C24 1.790861 25.790861 4.05812251e-16 28 0zM30 4C28.8954305 4 28 4.8954305 28 6L28 14C28 15.1045695 28.8954305 16 30 16L38 16C39.1045695 16 40 15.1045695 40 14L40 6C40 4.8954305 39.1045695 4 38 4L30 4zM28 24L40 24C42.209139 24 44 25.790861 44 28L44 40C44 42.209139 42.209139 44 40 44L28 44C25.790861 44 24 42.209139 24 40L24 28C24 25.790861 25.790861 24 28 24zM30 28C28.8954305 28 28 28.8954305 28 30L28 38C28 39.1045695 28.8954305 40 30 40L38 40C39.1045695 40 40 39.1045695 40 38L40 30C40 28.8954305 39.1045695 28 38 28L30 28z" transform="translate(6 6)"/>
</svg>
