<?xml version="1.0" encoding="UTF-8"?>
<svg width="56px" height="56px" viewBox="0 0 56 56" version="1.1" xmlns="http://www.w3.org/2000/svg" xmlns:xlink="http://www.w3.org/1999/xlink">
    <!-- Generator: Sketch 52.1 (67048) - http://www.bohemiancoding.com/sketch -->
    <title>data</title>
    <desc>Created with Sketch.</desc>
    <g id="Page-1" stroke="none" stroke-width="1" fill="none" fill-rule="evenodd">
        <g id="data" transform="translate(6.000000, 6.000000)" fill="#000000">
            <path d="M4,0 L16,0 C18.209139,-4.05812251e-16 20,1.790861 20,4 L20,16 C20,18.209139 18.209139,20 16,20 L4,20 C1.790861,20 2.705415e-16,18.209139 0,16 L0,4 C-2.705415e-16,1.790861 1.790861,4.05812251e-16 4,0 Z M6,4 C4.8954305,4 4,4.8954305 4,6 L4,14 C4,15.1045695 4.8954305,16 6,16 L14,16 C15.1045695,16 16,15.1045695 16,14 L16,6 C16,4.8954305 15.1045695,4 14,4 L6,4 Z" id="Shape"></path>
            <path d="M4,24 L16,24 C18.209139,24 20,25.790861 20,28 L20,40 C20,42.209139 18.209139,44 16,44 L4,44 C1.790861,44 2.705415e-16,42.209139 0,40 L0,28 C-2.705415e-16,25.790861 1.790861,24 4,24 Z M6,28 C4.8954305,28 4,28.8954305 4,30 L4,38 C4,39.1045695 4.8954305,40 6,40 L14,40 C15.1045695,40 16,39.1045695 16,38 L16,30 C16,28.8954305 15.1045695,28 14,28 L6,28 Z" id="Shape-Copy-2"></path>
            <path d="M28,0 L40,0 C42.209139,-4.05812251e-16 44,1.790861 44,4 L44,16 C44,18.209139 42.209139,20 40,20 L28,20 C25.790861,20 24,18.209139 24,16 L24,4 C24,1.790861 25.790861,4.05812251e-16 28,0 Z M30,4 C28.8954305,4 28,4.8954305 28,6 L28,14 C28,15.1045695 28.8954305,16 30,16 L38,16 C39.1045695,16 40,15.1045695 40,14 L40,6 C40,4.8954305 39.1045695,4 38,4 L30,4 Z" id="Shape-Copy"></path>
            <path d="M28,24 L40,24 C42.209139,24 44,25.790861 44,28 L44,40 C44,42.209139 42.209139,44 40,44 L28,44 C25.790861,44 24,42.209139 24,40 L24,28 C24,25.790861 25.790861,24 28,24 Z M30,28 C28.8954305,28 28,28.8954305 28,30 L28,38 C28,39.1045695 28.8954305,40 30,40 L38,40 C39.1045695,40 40,39.1045695 40,38 L40,30 C40,28.8954305 39.1045695,28 38,28 L30,28 Z" id="Shape-Copy-3"></path>
        </g>
    </g>
</svg>