<svg xmlns="http://www.w3.org/2000/svg" width="56" height="56" viewBox="0 0 56 56">
  <path fill-rule="evenodd" d="M4 0L16 0C18.209139-4.05812251e-16 20 1.790861 20 4L20 16C20 18.209139 18.209139 20 16 20L4 20C1.790861 20 2.705415e-16 18.209139 0 16L0 4C-2.705415e-16 1.790861 1.790861 4.05812251e-16 4 0zM28 0L40 0C42.209139-4.05812251e-16 44 1.790861 44 4L44 16C44 18.209139 42.209139 20 40 20L28 20C25.790861 20 24 18.209139 24 16L24 4C24 1.790861 25.790861 4.05812251e-16 28 0zM28 24L40 24C42.209139 24 44 25.790861 44 28L44 40C44 42.209139 42.209139 44 40 44L28 44C25.790861 44 24 42.209139 24 40L24 28C24 25.790861 25.790861 24 28 24zM4 24L16 24C18.209139 24 20 25.790861 20 28L20 40C20 42.209139 18.209139 44 16 44L4 44C1.790861 44 2.705415e-16 42.209139 0 40L0 28C-2.705415e-16 25.790861 1.790861 24 4 24z" transform="translate(6 6)"/>
</svg>
