<?xml version="1.0" encoding="UTF-8"?>
<svg width="56px" height="56px" viewBox="0 0 56 56" version="1.1" xmlns="http://www.w3.org/2000/svg" xmlns:xlink="http://www.w3.org/1999/xlink">
    <!-- Generator: Sketch 52.1 (67048) - http://www.bohemiancoding.com/sketch -->
    <title>delete_round</title>
    <desc>Created with Sketch.</desc>
    <g id="Page-1" stroke="none" stroke-width="1" fill="none" fill-rule="evenodd">
        <g id="delete_round" fill="#000000">
            <path d="M28,52 C41.254834,52 52,41.254834 52,28 C52,14.745166 41.254834,4 28,4 C14.745166,4 4,14.745166 4,28 C4,41.254834 14.745166,52 28,52 Z M28,56 C12.536027,56 0,43.463973 0,28 C0,12.536027 12.536027,0 28,0 C43.463973,0 56,12.536027 56,28 C56,43.463973 43.463973,56 28,56 Z" id="Oval-75" fill-rule="nonzero"></path>
            <path d="M12,28 C12,26.8954305 12.8892617,26 14.0017433,26 L41.9982567,26 C43.103789,26 44,26.8877296 44,28 C44,29.1045695 43.1107383,30 41.9982567,30 L14.0017433,30 C12.896211,30 12,29.1122704 12,28 Z" id="Rectangle-68"></path>
        </g>
    </g>
</svg>