<svg xmlns="http://www.w3.org/2000/svg" width="56" height="56" viewBox="0 0 56 56">
  <g fill-rule="evenodd" transform="translate(7 3)">
    <path fill-rule="nonzero" d="M36,17 L29,17 C26.790861,17 25,15.209139 25,13 L25,6 C25,4.8954305 24.1045695,4 23,4 L6,4 C4.8954305,4 4,4.8954305 4,6 L4,44 C4,45.1045695 4.8954305,46 6,46 L36,46 C37.1045695,46 38,45.1045695 38,44 L38,19 C38,17.8954305 37.1045695,17 36,17 Z M38,13 L38,12.7596069 L29,4.50960687 L29,11 C29,12.1045695 29.8954305,13 31,13 L38,13 Z M4,0 L29,0 L29,0.0388094007 C29.7973211,0.150703725 30.5470884,0.501497695 31.1469638,1.05138344 L40.7028985,9.8109903 C41.5294146,10.56863 42,11.6383813 42,12.7596069 L42,46 C42,48.209139 40.209139,50 38,50 L4,50 C1.790861,50 -1.03875995e-14,48.209139 -1.0658141e-14,46 L-1.0658141e-14,4 C-1.09286825e-14,1.790861 1.790861,4.05812251e-16 4,0 Z"/>
    <path d="M10 24L12 24C13.1045695 24 14 24.8954305 14 26L14 40C14 41.1045695 13.1045695 42 12 42L10 42C8.8954305 42 8 41.1045695 8 40L8 26C8 24.8954305 8.8954305 24 10 24zM19 18L21 18C22.1045695 18 23 18.8954305 23 20L23 40C23 41.1045695 22.1045695 42 21 42L19 42C17.8954305 42 17 41.1045695 17 40L17 20C17 18.8954305 17.8954305 18 19 18zM28 30L30 30C31.1045695 30 32 30.8954305 32 32L32 40C32 41.1045695 31.1045695 42 30 42L28 42C26.8954305 42 26 41.1045695 26 40L26 32C26 30.8954305 26.8954305 30 28 30z"/>
  </g>
</svg>
