<?xml version="1.0" encoding="UTF-8"?>
<svg width="56px" height="56px" viewBox="0 0 56 56" version="1.1" xmlns="http://www.w3.org/2000/svg" xmlns:xlink="http://www.w3.org/1999/xlink">
    <!-- Generator: Sketch 52.1 (67048) - http://www.bohemiancoding.com/sketch -->
    <title>document_person_fill</title>
    <desc>Created with Sketch.</desc>
    <g id="Page-1" stroke="none" stroke-width="1" fill="none" fill-rule="evenodd">
        <g id="document_person_fill" transform="translate(7.000000, 3.000000)" fill="#000000">
            <path d="M25,0 L25,13 C25,15.209139 26.790861,17 29,17 L42,17 L42,46 C42,48.209139 40.209139,50 38,50 L4,50 C1.790861,50 -1.03875995e-14,48.209139 -1.0658141e-14,46 L-1.0658141e-14,4 C-1.09286825e-14,1.790861 1.790861,4.05812251e-16 4,0 L25,0 Z M18.5,32 C14.91,32 12,34.91 12,38.5 L12,40.243 C14.6245,42.2825 17.919,43.5 21.5,43.5 C25.081,43.5 28.3755,42.2825 31,40.243 L31,38.5 C31,34.91 28.09,32 24.5,32 L18.5,32 Z M22.0002419,29.9995161 C24.761649,29.9995161 27,27.7611651 27,24.9997581 C27,22.238351 24.761649,20 22.0002419,20 C19.238351,20 17,22.238351 17,24.9997581 C17,27.7611651 19.238351,29.9995161 22.0002419,29.9995161 Z" id="Combined-Shape"></path>
            <path d="M31.1469638,1.05138344 L40.7028985,9.8109903 C41.5294146,10.56863 42,11.6383813 42,12.7596069 L42,13 L31,13 C29.8954305,13 29,12.1045695 29,11 L29,0.0388094007 C29.7973211,0.150703725 30.5470884,0.501497695 31.1469638,1.05138344 Z" id="Path"></path>
        </g>
    </g>
</svg>