<svg xmlns="http://www.w3.org/2000/svg" width="56" height="56" viewBox="0 0 56 56">
  <path fill-rule="evenodd" d="M25,0 L25,13 C25,15.209139 26.790861,17 29,17 L42,17 L42,46 C42,48.209139 40.209139,50 38,50 L4,50 C1.790861,50 -6.83488586e-15,48.209139 -7.10542736e-15,46 L-7.10542736e-15,4 C-7.37596886e-15,1.790861 1.790861,4.05812251e-16 4,0 L25,0 Z M31.1469638,1.05138344 L40.7028985,9.8109903 C41.5294146,10.56863 42,11.6383813 42,12.7596069 L42,13 L31,13 C29.8954305,13 29,12.1045695 29,11 L29,0.0388094007 C29.7973211,0.150703725 30.5470884,0.501497695 31.1469638,1.05138344 Z M10,38 C8.8954305,38 8,38.8954305 8,40 C8,41.1045695 8.8954305,42 10,42 L30,42 C31.1045695,42 32,41.1045695 32,40 C32,38.8954305 31.1045695,38 30,38 L10,38 Z M10,30 C8.8954305,30 8,30.8954305 8,32 C8,33.1045695 8.8954305,34 10,34 L30,34 C31.1045695,34 32,33.1045695 32,32 C32,30.8954305 31.1045695,30 30,30 L10,30 Z M10,22 C8.8954305,22 8,22.8954305 8,24 C8,25.1045695 8.8954305,26 10,26 L22,26 C23.1045695,26 24,25.1045695 24,24 C24,22.8954305 23.1045695,22 22,22 L10,22 Z" transform="translate(7 3)"/>
</svg>
