<svg xmlns="http://www.w3.org/2000/svg" width="56" height="56" viewBox="0 0 56 56">
  <path fill-rule="evenodd" d="M25,0 L25,13 C25,15.209139 26.790861,17 29,17 L42,17 L42,46 C42,48.209139 40.209139,50 38,50 L4,50 C1.790861,50 -6.83488586e-15,48.209139 -7.10542736e-15,46 L-7.10542736e-15,4 C-7.37596886e-15,1.790861 1.790861,4.05812251e-16 4,0 L25,0 Z M31.1469638,1.05138344 L40.7028985,9.8109903 C41.5294146,10.56863 42,11.6383813 42,12.7596069 L42,13 L31,13 C29.8954305,13 29,12.1045695 29,11 L29,0.0388094007 C29.7973211,0.150703725 30.5470884,0.501497695 31.1469638,1.05138344 Z" transform="translate(7 3)"/>
</svg>
