<svg xmlns="http://www.w3.org/2000/svg" width="56" height="56" viewBox="0 0 56 56">
  <g fill-rule="evenodd" transform="translate(7 3)">
    <path fill-rule="nonzero" d="M36,17 L29,17 C26.790861,17 25,15.209139 25,13 L25,6 C25,4.8954305 24.1045695,4 23,4 L6,4 C4.8954305,4 4,4.8954305 4,6 L4,44 C4,45.1045695 4.8954305,46 6,46 L36,46 C37.1045695,46 38,45.1045695 38,44 L38,19 C38,17.8954305 37.1045695,17 36,17 Z M38,13 L38,12.7596069 L29,4.50960687 L29,11 C29,12.1045695 29.8954305,13 31,13 L38,13 Z M4,0 L29,0 L29,0.0388094007 C29.7973211,0.150703725 30.5470884,0.501497695 31.1469638,1.05138344 L40.7028985,9.8109903 C41.5294146,10.56863 42,11.6383813 42,12.7596069 L42,46 C42,48.209139 40.209139,50 38,50 L4,50 C1.790861,50 -1.03875995e-14,48.209139 -1.0658141e-14,46 L-1.0658141e-14,4 C-1.09286825e-14,1.790861 1.790861,4.05812251e-16 4,0 Z"/>
    <path d="M10 38L30 38C31.1045695 38 32 38.8954305 32 40 32 41.1045695 31.1045695 42 30 42L10 42C8.8954305 42 8 41.1045695 8 40 8 38.8954305 8.8954305 38 10 38zM10 30L30 30C31.1045695 30 32 30.8954305 32 32 32 33.1045695 31.1045695 34 30 34L10 34C8.8954305 34 8 33.1045695 8 32 8 30.8954305 8.8954305 30 10 30zM10 22L22 22C23.1045695 22 24 22.8954305 24 24 24 25.1045695 23.1045695 26 22 26L10 26C8.8954305 26 8 25.1045695 8 24 8 22.8954305 8.8954305 22 10 22z"/>
  </g>
</svg>
