<svg xmlns="http://www.w3.org/2000/svg" width="56" height="56" viewBox="0 0 56 56">
  <path fill-rule="evenodd" d="M25,0 L25,13 C25,15.209139 26.790861,17 29,17 L42,17 L42,46 C42,48.209139 40.209139,50 38,50 L4,50 C1.790861,50 -1.74930269e-14,48.209139 -1.77635684e-14,46 L-1.77635684e-14,4 C-1.80341099e-14,1.790861 1.790861,4.05812251e-16 4,0 L25,0 Z M31.1469638,1.05138344 L40.7028985,9.8109903 C41.5294146,10.56863 42,11.6383813 42,12.7596069 L42,13 L31,13 C29.8954305,13 29,12.1045695 29,11 L29,0.0388094007 C29.7973211,0.150703725 30.5470884,0.501497695 31.1469638,1.05138344 Z M33.5857864,21.5857864 C32.8047379,20.8047379 31.5384079,20.8047379 30.7573593,21.5857864 L18,34.3431458 C17.2189514,35.1241943 15.9526215,35.1241943 15.1715729,34.3431458 L11.4142136,30.5857864 C10.633165,29.8047379 9.36683502,29.8047379 8.58578644,30.5857864 C7.80473785,31.366835 7.80473785,32.633165 8.58578644,33.4142136 L15.1715729,40 C15.9526215,40.7810486 17.2189514,40.7810486 18,40 L33.5857864,24.4142136 C34.366835,23.633165 34.366835,22.366835 33.5857864,21.5857864 Z" transform="translate(7 3)"/>
</svg>
