<svg xmlns="http://www.w3.org/2000/svg" width="56" height="56" viewBox="0 0 56 56">
  <g fill-rule="evenodd" transform="translate(7 3)">
    <path d="M25,0 L25,13 C25,15.209139 26.790861,17 29,17 L42,17 L42,46 C42,48.209139 40.209139,50 38,50 L4,50 C1.790861,50 -1.03875995e-14,48.209139 -1.0658141e-14,46 L-1.0658141e-14,4 C-1.09286825e-14,1.790861 1.790861,4.05812251e-16 4,0 L25,0 Z M10,24 C8.8954305,24 8,24.8954305 8,26 L8,40 C8,41.1045695 8.8954305,42 10,42 L12,42 C13.1045695,42 14,41.1045695 14,40 L14,26 C14,24.8954305 13.1045695,24 12,24 L10,24 Z M19,18 C17.8954305,18 17,18.8954305 17,20 L17,40 C17,41.1045695 17.8954305,42 19,42 L21,42 C22.1045695,42 23,41.1045695 23,40 L23,20 C23,18.8954305 22.1045695,18 21,18 L19,18 Z M28,30 C26.8954305,30 26,30.8954305 26,32 L26,40 C26,41.1045695 26.8954305,42 28,42 L30,42 C31.1045695,42 32,41.1045695 32,40 L32,32 C32,30.8954305 31.1045695,30 30,30 L28,30 Z"/>
    <path d="M31.1469638,1.05138344 L40.7028985,9.8109903 C41.5294146,10.56863 42,11.6383813 42,12.7596069 L42,13 L31,13 C29.8954305,13 29,12.1045695 29,11 L29,0.0388094007 C29.7973211,0.150703725 30.5470884,0.501497695 31.1469638,1.05138344 Z"/>
  </g>
</svg>
