<svg xmlns="http://www.w3.org/2000/svg" width="56" height="56" viewBox="0 0 56 56">
  <g transform="translate(7 3)">
    <path d="M36,17 L29,17 C26.790861,17 25,15.209139 25,13 L25,6 C25,4.8954305 24.1045695,4 23,4 L6,4 C4.8954305,4 4,4.8954305 4,6 L4,44 C4,45.1045695 4.8954305,46 6,46 L36,46 C37.1045695,46 38,45.1045695 38,44 L38,19 C38,17.8954305 37.1045695,17 36,17 Z M38,13 L38,12.7596069 L29,4.50960687 L29,11 C29,12.1045695 29.8954305,13 31,13 L38,13 Z M4,0 L29,0 L29,0.0388094007 C29.7973211,0.150703725 30.5470884,0.501497695 31.1469638,1.05138344 L40.7028985,9.8109903 C41.5294146,10.56863 42,11.6383813 42,12.7596069 L42,46 C42,48.209139 40.209139,50 38,50 L4,50 C1.790861,50 2.705415e-16,48.209139 0,46 L0,4 C-2.705415e-16,1.790861 1.790861,4.05812251e-16 4,0 Z"/>
    <path d="M33.5857864,21.5857864 C34.366835,22.366835 34.366835,23.633165 33.5857864,24.4142136 L18,40 C17.2189514,40.7810486 15.9526215,40.7810486 15.1715729,40 L8.58578644,33.4142136 C7.80473785,32.633165 7.80473785,31.366835 8.58578644,30.5857864 C9.36683502,29.8047379 10.633165,29.8047379 11.4142136,30.5857864 L15.1715729,34.3431458 C15.9526215,35.1241943 17.2189514,35.1241943 18,34.3431458 L30.7573593,21.5857864 C31.5384079,20.8047379 32.8047379,20.8047379 33.5857864,21.5857864 Z"/>
  </g>
</svg>
