<?xml version="1.0" encoding="UTF-8"?>
<svg width="34px" height="46px" viewBox="0 0 34 46" version="1.1" xmlns="http://www.w3.org/2000/svg" xmlns:xlink="http://www.w3.org/1999/xlink">
    <!-- Generator: Sketch 40.1 (33804) - http://www.bohemiancoding.com/sketch -->
    <title>document_text</title>
    <desc>Created with Sketch.</desc>
    <defs></defs>
    <g id="Page-1" stroke="none" stroke-width="1" fill="none" fill-rule="evenodd">
        <g id="document_text" fill="#000000">
            <path d="M1.08420217e-19,2.00000123 L1.9977848,0.00221274302 L2,46 L0,44 L34,44 L32,46 L32,16.0368747 L32.584577,17.4498777 L16.5950347,1.43295143 L18.0082425,2.01994713 L1.08420217e-19,2.00000123 Z M18.0104577,0.019948352 L34,16.0368747 L34,46 L0,46 L0,0 L18.0104577,0.019948352 Z" id="Rectangle-2"></path>
            <polygon id="Rectangle-69" points="16 2 17.2001953 2 18.0200195 2.84002686 18.0200195 18 16 18"></polygon>
            <polygon id="Rectangle-69" points="32 18 18 18 18 16 32 16"></polygon>
            <rect id="Rectangle-70" x="6" y="22" width="22" height="2"></rect>
            <rect id="Rectangle-70-Copy-3" x="6" y="16" width="6" height="2"></rect>
            <rect id="Rectangle-70-Copy-4" x="6" y="10" width="6" height="2"></rect>
            <rect id="Rectangle-70-Copy" x="6" y="28" width="22" height="2"></rect>
            <rect id="Rectangle-70-Copy-2" x="6" y="34" width="22" height="2"></rect>
        </g>
    </g>
</svg>