<svg xmlns="http://www.w3.org/2000/svg" width="56" height="56" viewBox="0 0 56 56">
  <g fill-rule="evenodd" transform="translate(7 3)">
    <path fill-rule="nonzero" d="M36,17 L29,17 C26.790861,17 25,15.209139 25,13 L25,6 C25,4.8954305 24.1045695,4 23,4 L6,4 C4.8954305,4 4,4.8954305 4,6 L4,44 C4,45.1045695 4.8954305,46 6,46 L36,46 C37.1045695,46 38,45.1045695 38,44 L38,19 C38,17.8954305 37.1045695,17 36,17 Z M38,13 L38,12.7596069 L29,4.50960687 L29,11 C29,12.1045695 29.8954305,13 31,13 L38,13 Z M4,0 L29,0 L29,0.0388094007 C29.7973211,0.150703725 30.5470884,0.501497695 31.1469638,1.05138344 L40.7028985,9.8109903 C41.5294146,10.56863 42,11.6383813 42,12.7596069 L42,46 C42,48.209139 40.209139,50 38,50 L4,50 C1.790861,50 2.705415e-16,48.209139 0,46 L0,4 C-2.705415e-16,1.790861 1.790861,4.05812251e-16 4,0 Z"/>
    <path d="M18.5 32C14.91 32 12 34.91 12 38.5L12 40.243C14.6245 42.2825 17.919 43.5 21.5 43.5 25.081 43.5 28.3755 42.2825 31 40.243L31 38.5C31 34.91 28.09 32 24.5 32L18.5 32zM26 24.9997581C26 27.7611651 23.761649 29.9995161 21.0002419 29.9995161 18.238351 29.9995161 16 27.7611651 16 24.9997581 16 22.238351 18.238351 20 21.0002419 20 23.761649 20 26 22.238351 26 24.9997581"/>
  </g>
</svg>
