<?xml version="1.0" encoding="UTF-8"?>
<svg width="56px" height="56px" viewBox="0 0 56 56" version="1.1" xmlns="http://www.w3.org/2000/svg" xmlns:xlink="http://www.w3.org/1999/xlink">
    <!-- Generator: Sketch 52.1 (67048) - http://www.bohemiancoding.com/sketch -->
    <title>document_chart</title>
    <desc>Created with Sketch.</desc>
    <g id="Page-1" stroke="none" stroke-width="1" fill="none" fill-rule="evenodd">
        <g id="document_chart" transform="translate(7.000000, 3.000000)" fill="#000000">
            <path d="M36,17 L29,17 C26.790861,17 25,15.209139 25,13 L25,6 C25,4.8954305 24.1045695,4 23,4 L6,4 C4.8954305,4 4,4.8954305 4,6 L4,44 C4,45.1045695 4.8954305,46 6,46 L36,46 C37.1045695,46 38,45.1045695 38,44 L38,19 C38,17.8954305 37.1045695,17 36,17 Z M38,13 L38,12.7596069 L29,4.50960687 L29,11 C29,12.1045695 29.8954305,13 31,13 L38,13 Z M4,0 L29,0 L29,0.0388094007 C29.7973211,0.150703725 30.5470884,0.501497695 31.1469638,1.05138344 L40.7028985,9.8109903 C41.5294146,10.56863 42,11.6383813 42,12.7596069 L42,46 C42,48.209139 40.209139,50 38,50 L4,50 C1.790861,50 -1.03875995e-14,48.209139 -1.0658141e-14,46 L-1.0658141e-14,4 C-1.09286825e-14,1.790861 1.790861,4.05812251e-16 4,0 Z" id="Shape" fill-rule="nonzero"></path>
            <path d="M10,24 L12,24 C13.1045695,24 14,24.8954305 14,26 L14,40 C14,41.1045695 13.1045695,42 12,42 L10,42 C8.8954305,42 8,41.1045695 8,40 L8,26 C8,24.8954305 8.8954305,24 10,24 Z" id="Rectangle"></path>
            <path d="M19,18 L21,18 C22.1045695,18 23,18.8954305 23,20 L23,40 C23,41.1045695 22.1045695,42 21,42 L19,42 C17.8954305,42 17,41.1045695 17,40 L17,20 C17,18.8954305 17.8954305,18 19,18 Z" id="Rectangle-Copy-15"></path>
            <path d="M28,30 L30,30 C31.1045695,30 32,30.8954305 32,32 L32,40 C32,41.1045695 31.1045695,42 30,42 L28,42 C26.8954305,42 26,41.1045695 26,40 L26,32 C26,30.8954305 26.8954305,30 28,30 Z" id="Rectangle-Copy-16"></path>
        </g>
    </g>
</svg>