<svg xmlns="http://www.w3.org/2000/svg" width="56" height="56" viewBox="0 0 56 56">
  <path d="M15.9715729,16 L15.9715729,2 C15.9715729,0.8954305 16.8670034,4.4408921e-15 17.9715729,4.4408921e-15 C19.0761424,4.4408921e-15 19.9715729,0.8954305 19.9715729,2 L19.9715729,16 L30,16 C33.3137085,16 36,18.6862915 36,22 L36,46 C36,49.3137085 33.3137085,52 30,52 L6,52 C2.6862915,52 4.4408921e-16,49.3137085 0,46 L0,22 C-4.4408921e-16,18.6862915 2.6862915,16 6,16 L15.9715729,16 Z M15.9715729,16 L15.9715729,29.1715729 L12.2142136,25.4142136 C11.433165,24.633165 10.166835,24.633165 9.38578644,25.4142136 C8.60473785,26.1952621 8.60473785,27.4615921 9.38578644,28.2426407 L16.4568542,35.3137085 C16.4737298,35.330584 16.4908318,35.3470949 16.5081507,35.3632412 C16.8732587,35.7550079 17.3938053,36 17.9715729,36 C18.4647255,36 18.9161901,35.8215122 19.2648902,35.5256131 C19.3522462,35.4628741 19.4356828,35.3922393 19.5142136,35.3137085 L26.5852814,28.2426407 C27.36633,27.4615921 27.36633,26.1952621 26.5852814,25.4142136 C25.8042328,24.633165 24.5379028,24.633165 23.7568542,25.4142136 L19.9715729,29.1994949 L19.9715729,16 L15.9715729,16 Z" transform="translate(10 2)"/>
</svg>
