<svg xmlns="http://www.w3.org/2000/svg" width="56" height="56" viewBox="0 0 56 56">
  <path fill-rule="evenodd" d="M28,56 C12.536027,56 0,43.463973 0,28 C0,12.536027 12.536027,0 28,0 C43.463973,0 56,12.536027 56,28 C56,43.463973 43.463973,56 28,56 Z M21,20 L21,35.1857864 L17.3325698,31.5183563 C16.5492333,30.7350197 15.2864939,30.7277197 14.5,31.5142136 C13.7189514,32.2952621 13.7201037,33.5627444 14.5041427,34.3467834 L21.5669251,41.4095658 C21.9745365,41.8171772 22.5119545,42.0146635 23.0445334,41.9995227 C23.1388142,41.9974994 23.2313993,41.9890661 23.321878,41.974646 C23.7280659,41.9114857 24.118971,41.7231402 24.4325454,41.4095658 L31.4953278,34.3467834 C32.2786644,33.5634469 32.2859644,32.3007075 31.4994705,31.5142136 C30.7184219,30.733165 29.4509397,30.7343173 28.6669007,31.5183563 L25,35.185257 L25,20 C25,17.2385763 27.2385763,15 30,15 C32.7614237,15 35,17.2385763 35,20 C35,22.7614237 32.7614237,25 30,25 C28.8954305,25 28,25.8954305 28,27 C28,28.1045695 28.8954305,29 30,29 C34.9705627,29 39,24.9705627 39,20 C39,15.0294373 34.9705627,11 30,11 C25.0294373,11 21,15.0294373 21,20 Z"/>
</svg>
