<svg xmlns="http://www.w3.org/2000/svg" width="56" height="56" viewBox="0 0 56 56">
  <g fill-rule="evenodd">
    <path d="M21,20 C21,15.0294373 25.0294373,11 30,11 C34.9705627,11 39,15.0294373 39,20 C39,24.9705627 34.9705627,29 30,29 C28.8954305,29 28,28.1045695 28,27 C28,25.8954305 28.8954305,25 30,25 C32.7614237,25 35,22.7614237 35,20 C35,17.2385763 32.7614237,15 30,15 C27.2385763,15 25,17.2385763 25,20 L25,35.185257 L28.6669007,31.5183563 C29.4509397,30.7343173 30.7184219,30.733165 31.4994705,31.5142136 C32.2859644,32.3007075 32.2786644,33.5634469 31.4953278,34.3467834 L24.4325454,41.4095658 C24.118971,41.7231402 23.7280659,41.9114857 23.321878,41.974646 C23.2313993,41.9890661 23.1388142,41.9974994 23.0445334,41.9995227 C22.5119545,42.0146635 21.9745365,41.8171772 21.5669251,41.4095658 L14.5041427,34.3467834 C13.7201037,33.5627444 13.7189514,32.2952621 14.5,31.5142136 C15.2864939,30.7277197 16.5492333,30.7350197 17.3325698,31.5183563 L21,35.1857864 L21,20 Z"/>
    <path fill-rule="nonzero" d="M28,52 C41.254834,52 52,41.254834 52,28 C52,14.745166 41.254834,4 28,4 C14.745166,4 4,14.745166 4,28 C4,41.254834 14.745166,52 28,52 Z M28,56 C12.536027,56 0,43.463973 0,28 C0,12.536027 12.536027,0 28,0 C43.463973,0 56,12.536027 56,28 C56,43.463973 43.463973,56 28,56 Z"/>
  </g>
</svg>
