<svg xmlns="http://www.w3.org/2000/svg" width="56" height="56" viewBox="0 0 56 56">
  <g fill-rule="evenodd" transform="translate(10 2)">
    <path fill-rule="nonzero" d="M12,16 L12,20 L6,20 C4.8954305,20 4,20.8954305 4,22 L4,46 C4,47.1045695 4.8954305,48 6,48 L30,48 C31.1045695,48 32,47.1045695 32,46 L32,22 C32,20.8954305 31.1045695,20 30,20 L24,20 L24,16 L30,16 C33.3137085,16 36,18.6862915 36,22 L36,46 C36,49.3137085 33.3137085,52 30,52 L6,52 C2.6862915,52 4.4408921e-16,49.3137085 0,46 L0,22 C-4.4408921e-16,18.6862915 2.6862915,16 6,16 L12,16 Z"/>
    <path d="M17.9715729,36 C17.3938053,36 16.8732587,35.7550079 16.5081507,35.3632412 C16.4908318,35.3470949 16.4737298,35.330584 16.4568542,35.3137085 L9.38578644,28.2426407 C8.60473785,27.4615921 8.60473785,26.1952621 9.38578644,25.4142136 C10.166835,24.633165 11.433165,24.633165 12.2142136,25.4142136 L15.9715729,29.1715729 L15.9715729,2 C15.9715729,0.8954305 16.8670034,1.50990331e-14 17.9715729,1.50990331e-14 C19.0761424,1.50990331e-14 19.9715729,0.8954305 19.9715729,2 L19.9715729,29.1994949 L23.7568542,25.4142136 C24.5379028,24.633165 25.8042328,24.633165 26.5852814,25.4142136 C27.36633,26.1952621 27.36633,27.4615921 26.5852814,28.2426407 L19.5142136,35.3137085 C19.4356828,35.3922393 19.3522462,35.4628741 19.2648902,35.5256131 C18.9161901,35.8215122 18.4647255,36 17.9715729,36 Z"/>
  </g>
</svg>
