<?xml version="1.0" encoding="UTF-8"?>
<svg width="50px" height="50px" viewBox="0 0 50 50" version="1.1" xmlns="http://www.w3.org/2000/svg" xmlns:xlink="http://www.w3.org/1999/xlink">
    <!-- Generator: Sketch 40.1 (33804) - http://www.bohemiancoding.com/sketch -->
    <title>download_round</title>
    <desc>Created with Sketch.</desc>
    <defs></defs>
    <g id="Page-1" stroke="none" stroke-width="1" fill="none" fill-rule="evenodd">
        <g id="download_round">
            <path d="M48,25 C48,12.2974508 37.7025492,2 25,2 C12.2974508,2 2,12.2974508 2,25 C2,37.7025492 12.2974508,48 25,48 C37.7025492,48 48,37.7025492 48,25 Z M0,25 C0,11.1928813 11.1928813,0 25,0 C38.8071187,0 50,11.1928813 50,25 C50,38.8071187 38.8071187,50 25,50 C11.1928813,50 0,38.8071187 0,25 Z" id="Oval-13" fill="#000000"></path>
            <rect id="Rectangle-4" fill="#000000" x="19" y="17" width="2" height="22"></rect>
            <path d="M27,24 C30.8659932,24 34,20.8659932 34,17 C34,13.1340068 30.8659932,10 27,10 C23.1340068,10 20,13.1340068 20,17" id="Oval-32" stroke="#000000" stroke-width="2"></path>
            <rect id="Rectangle-5" fill="#000000" transform="translate(16.449747, 35.949747) scale(1, -1) rotate(-45.000000) translate(-16.449747, -35.949747) " x="10.4497475" y="34.9497475" width="12" height="2"></rect>
            <rect id="Rectangle-6" fill="#000000" transform="translate(23.549723, 35.949747) scale(1, -1) rotate(-315.000000) translate(-23.549723, -35.949747) " x="17.5497231" y="34.9497475" width="12" height="2"></rect>
        </g>
    </g>
</svg>