<svg xmlns="http://www.w3.org/2000/svg" width="56" height="56" viewBox="0 0 56 56">
  <path d="M16.4770075,27.3007628 C16.5592807,27.5212343 16.6404566,27.7053998 16.7205352,27.8532594 C17.7354754,29.7272761 19.7191074,31 22,31 C24.2818012,31 26.266105,29.7262619 27.2806773,27.8510195 C27.3603935,27.7036795 27.4412047,27.5202644 27.523111,27.300774 L27.5231043,27.3007715 C27.8149886,26.5185881 28.5620271,26 29.3968968,26 L39,26 C39.5522847,26 40,25.5522847 40,25 L40,15 C40,14.4477153 39.5522847,14 39,14 L30.0644804,14 C28.5917778,16.963437 25.5337213,19 22,19 C18.4662787,19 15.4082222,16.963437 13.9355196,14 L5,14 C4.44771525,14 4,14.4477153 4,15 L4,25 C4,25.5522847 4.44771525,26 5,26 L14.6032275,26.000004 C15.4380904,26.000004 16.1851233,26.5185866 16.4770075,27.3007628 Z M28.6884525,10 L37.5,10 C38.0522847,10 38.5,9.55228475 38.5,9 C38.5,8.78362979 38.4298221,8.57309617 38.3,8.4 L35,4 L9,4 L5.7,8.4 C5.36862915,8.8418278 5.4581722,9.46862915 5.9,9.8 C6.07309617,9.92982213 6.28362979,10 6.5,10 L14,10 L13,10 L15.3158257,9.9999921 C16.2269394,9.9999921 17.0228998,10.6157826 17.2517284,11.4976928 C17.3077707,11.7136811 17.3690839,11.8958919 17.4356681,12.0443253 C18.2171817,13.7865215 19.9668793,15 22,15 C24.0587366,15 25.8268633,13.7557508 26.5934091,11.9782234 C26.6507714,11.8452071 26.7039271,11.6846187 26.7528763,11.4964581 C26.9821523,10.6151599 27.7778187,10 28.6884525,10 Z M0.8,8.26666667 L5.8,1.6 C6.55541753,0.592776629 7.74097079,2.22044605e-16 9,0 L35,2.66453526e-15 C36.2590292,2.44249065e-15 37.4445825,0.592776629 38.2,1.6 L43.2,8.26666667 C43.7192885,8.95905135 44,9.80118581 44,10.6666667 L44,42 C44,44.209139 42.209139,46 40,46 L4,46 C1.790861,46 -2.48689958e-14,44.209139 -2.48689958e-14,42 L-2.44249065e-14,10.6666667 C-2.39808173e-14,9.80118581 0.280711487,8.95905135 0.8,8.26666667 Z M22,35 C18.4662787,35 15.4082222,32.963437 13.9355196,30 L5,30 C4.44771525,30 4,30.4477153 4,31 L4,41 C4,41.5522847 4.44771525,42 5,42 L39,42 C39.5522847,42 40,41.5522847 40,41 L40,31 C40,30.4477153 39.5522847,30 39,30 L30.0644804,30 C28.5917778,32.963437 25.5337213,35 22,35 Z" transform="translate(6 5)"/>
</svg>
