<?xml version="1.0" encoding="UTF-8"?>
<svg width="56px" height="56px" viewBox="0 0 56 56" version="1.1" xmlns="http://www.w3.org/2000/svg" xmlns:xlink="http://www.w3.org/1999/xlink">
    <!-- Generator: Sketch 52.1 (67048) - http://www.bohemiancoding.com/sketch -->
    <title>drawers_fill</title>
    <desc>Created with Sketch.</desc>
    <g id="Page-1" stroke="none" stroke-width="1" fill="none" fill-rule="evenodd">
        <g id="drawers_fill" transform="translate(6.000000, 5.000000)" fill="#000000">
            <path d="M22,19 C25.533721,19 28.5917773,16.9634373 30.06448,14.0000007 L44,14 L44,28 L0,28 L0,14 L13.9355166,14 C15.4082227,16.9634373 18.466279,19 22,19 Z" id="Path"></path>
            <path d="M22,37 C25.533721,37 28.5917773,34.9634373 30.06448,32.0000007 L44,32 L44,42 C44,44.209139 42.209139,46 40,46 L4,46 C1.790861,46 2.705415e-16,44.209139 0,42 L0,32 L13.9355166,32 C15.4082227,34.9634373 18.466279,37 22,37 Z" id="Path-Copy"></path>
            <path d="M8.92249939,-8.8817842e-16 L35.0775006,8.8817842e-16 C36.2926355,6.64961762e-16 37.4418871,0.552358876 38.2009758,1.50121981 L43.700244,8.37530495 C44.0452535,8.80656689 43.9753321,9.43585926 43.5440702,9.78086881 C43.3667572,9.92271925 43.1464466,10 42.9193752,10 L1.08062485,10 C0.528340098,10 0.0806248475,9.55228475 0.0806248475,9 C0.0806248475,8.7729285 0.1579056,8.552618 0.299756038,8.37530495 L5.79902415,1.50121981 C6.5581129,0.552358876 7.7073645,-1.55314018e-15 8.92249939,-8.8817842e-16 Z" id="Rectangle"></path>
        </g>
    </g>
</svg>