<svg xmlns="http://www.w3.org/2000/svg" width="56" height="56" viewBox="0 0 56 56">
  <path d="M20,17 C16.4662787,17 13.4082222,14.963437 11.9355196,12 L3,12 C2.44771525,12 2,12.4477153 2,13 L2,23 C2,23.5522847 2.44771525,24 3,24 L37,24 C37.5522847,24 38,23.5522847 38,23 L38,13 C38,12.4477153 37.5522847,12 37,12 L28.0644804,12 C26.5917778,14.963437 23.5337213,17 20,17 Z M26.6884525,8 L35.5,8 C36.0522847,8 36.5,7.55228475 36.5,7 C36.5,6.78362979 36.4298221,6.57309617 36.3,6.4 L33,2 L7,2 L3.7,6.4 C3.36862915,6.8418278 3.4581722,7.46862915 3.9,7.8 C4.07309617,7.92982213 4.28362979,8 4.5,8 L12,8 L11,8 L13.3158257,7.9999921 C14.2269394,7.9999921 15.0228998,8.6157826 15.2517284,9.49769284 C15.3077707,9.71368108 15.3690839,9.89589189 15.4356681,10.0443253 C16.2171817,11.7865215 17.9668793,13 20,13 C22.0587366,13 23.8268633,11.7557508 24.5934091,9.97822336 C24.6507714,9.84520712 24.7039271,9.6846187 24.7528763,9.49645811 C24.9821523,8.61515994 25.7778187,8 26.6884525,8 Z M-1.2,6.26666667 L3.8,-0.4 C4.55541753,-1.40722337 5.74097079,-2 7,-2 L33,-2 C34.2590292,-2 35.4445825,-1.40722337 36.2,-0.4 L41.2,6.26666667 C41.7192885,6.95905135 42,7.80118581 42,8.66666667 L42,24 C42,26.209139 40.209139,28 38,28 L2,28 C-0.209138999,28 -2,26.209139 -2,24 L-2,8.66666667 C-2,7.80118581 -1.71928851,6.95905135 -1.2,6.26666667 Z" transform="translate(8 15)"/>
</svg>
