<svg xmlns="http://www.w3.org/2000/svg" width="56" height="56" viewBox="0 0 56 56">
  <path fill-rule="evenodd" d="M22 19C25.533721 19 28.5917773 16.9634373 30.06448 14.0000007L44 14 44 28 0 28 0 14 13.9355166 14C15.4082227 16.9634373 18.466279 19 22 19zM22 37C25.533721 37 28.5917773 34.9634373 30.06448 32.0000007L44 32 44 42C44 44.209139 42.209139 46 40 46L4 46C1.790861 46 2.705415e-16 44.209139 0 42L0 32 13.9355166 32C15.4082227 34.9634373 18.466279 37 22 37zM8.92249939-8.8817842e-16L35.0775006 8.8817842e-16C36.2926355 6.64961762e-16 37.4418871.552358876 38.2009758 1.50121981L43.700244 8.37530495C44.0452535 8.80656689 43.9753321 9.43585926 43.5440702 9.78086881 43.3667572 9.92271925 43.1464466 10 42.9193752 10L1.08062485 10C.528340098 10 .0806248475 9.55228475.0806248475 9 .0806248475 8.7729285.1579056 8.552618.299756038 8.37530495L5.79902415 1.50121981C6.5581129.552358876 7.7073645-1.55314018e-15 8.92249939-8.8817842e-16z" transform="translate(6 5)"/>
</svg>
