<?xml version="1.0" encoding="UTF-8"?>
<svg width="44px" height="50px" viewBox="0 0 44 50" version="1.1" xmlns="http://www.w3.org/2000/svg" xmlns:xlink="http://www.w3.org/1999/xlink">
    <!-- Generator: Sketch 40.1 (33804) - http://www.bohemiancoding.com/sketch -->
    <title>drawer</title>
    <desc>Created with Sketch.</desc>
    <defs></defs>
    <g id="Page-1" stroke="none" stroke-width="1" fill="none" fill-rule="evenodd">
        <g id="drawer" transform="translate(0.000000, 10.000000)" fill="#000000">
            <polygon id="Rectangle-60" points="17.0281982 12 0 12 2 10 2 30 0 28 44 28 42 30 42 10 44 12 27.0172119 12 27.0172119 10 44 10 44 30 0 30 0 10 17.0281982 10"></polygon>
            <path d="M0,10 L7.01961616,0 L36.6555638,0 L44,10 L36.6555638,0 L7.01961616,0 L0,10 L2.44356306,10 L0,10 Z M2.44356306,10 L0,10 L7.01961616,0 L36.6555638,0 L44,10 L41.5185428,10 L35.0436077,1.18389086 L36.6555638,2 L7.01961616,2 L8.65657002,1.14907878 L2.44356306,10 Z" id="Rectangle-60-Copy"></path>
            <path d="M22,18 C18,18 15,15 15,11 L16,11 L15,11 C15,14.8659932 18.1340068,18 22,18 C25.8659932,18 29,14.8659932 29,11 C29,15 26,18 22,18 Z M28,11 L29,11 C29,14.8659932 25.8659932,18 22,18 C18.1340068,18 15,14.8659932 15,11 L16,11 L17,11 C17,13.7614237 19.2385763,16 22,16 C24.7614237,16 27,13.7614237 27,11 L28,11 Z" id="Oval-22"></path>
        </g>
    </g>
</svg>