<svg xmlns="http://www.w3.org/2000/svg" width="56" height="56" viewBox="0 0 56 56">
  <path fill-rule="evenodd" d="M38.6293598 2.77849549L36.8566512 1.00842492C35.8806064.0323800544 34.2846411.0323800544 33.3085962 1.00842492L31.5385257 2.77849549 36.8566512 8.09925901 38.6293598 6.32655049C39.6054046 5.35314358 39.6054046 3.75981627 38.6293598 2.77849549L38.6293598 2.77849549zM31.4963183 6.40832722L29.7236098 4.6356187 2.78213345 31.5454396C2.78213345 31.5454396 1.57658613 33.6742726 1.12813308 35.1831852.463367389 37.4228125.257606579 39.3406087.257606579 39.3406087.257606579 39.3406087 2.48931998 39.2772977 4.70784359 38.5571349 6.12178968 38.1007679 8.10025901 36.8662031 8.10025901 36.8662031L35.0443733 9.95902018 33.2690269 8.18631166 31.4963183 6.40832722z" transform="translate(9 8)" style="mix-blend-mode:color-burn"/>
</svg>
