<?xml version="1.0" encoding="UTF-8"?>
<svg width="56px" height="56px" viewBox="0 0 56 56" version="1.1" xmlns="http://www.w3.org/2000/svg" xmlns:xlink="http://www.w3.org/1999/xlink">
    <!-- Generator: Sketch 52.1 (67048) - http://www.bohemiancoding.com/sketch -->
    <title>edit</title>
    <desc>Created with Sketch.</desc>
    <g id="Page-1" stroke="none" stroke-width="1" fill="none" fill-rule="evenodd">
        <g id="edit" transform="translate(9.000000, 8.000000)" fill="#000000">
            <path d="M38.6293598,2.77849549 L36.8566512,1.00842492 C35.8806064,0.0323800544 34.2846411,0.0323800544 33.3085962,1.00842492 L31.5385257,2.77849549 L36.8566512,8.09925901 L38.6293598,6.32655049 C39.6054046,5.35314358 39.6054046,3.75981627 38.6293598,2.77849549 L38.6293598,2.77849549 Z" id="Path" style="mix-blend-mode: color-burn;"></path>
            <path d="M31.4963183,6.40832722 L29.7236098,4.6356187 L2.78213345,31.5454396 C2.78213345,31.5454396 1.57658613,33.6742726 1.12813308,35.1831852 C0.463367389,37.4228125 0.257606579,39.3406087 0.257606579,39.3406087 C0.257606579,39.3406087 2.48931998,39.2772977 4.70784359,38.5571349 C6.12178968,38.1007679 8.10025901,36.8662031 8.10025901,36.8662031 L35.0443733,9.95902018 L33.2690269,8.18631166 L31.4963183,6.40832722 Z" id="Path" style="mix-blend-mode: color-burn;"></path>
        </g>
    </g>
</svg>