<svg xmlns="http://www.w3.org/2000/svg" width="56" height="56" viewBox="0 0 56 56">
  <path d="M46,27.1715729 L46,5.64512836 L29.0955504,21.8452259 C26.8088481,24.036649 23.2126414,24.0732761 20.881779,21.9288827 L4,6.39764604 L4,27.1299592 L10.7157456,20.4142136 C11.4967942,19.633165 12.7631241,19.633165 13.5441727,20.4142136 C14.3252213,21.1952621 14.3252213,22.4615921 13.5441727,23.2426407 L6.78681341,30 L43.1715729,30 L36.4142136,23.2426407 C35.633165,22.4615921 35.633165,21.1952621 36.4142136,20.4142136 C37.1952621,19.633165 38.4615921,19.633165 39.2426407,20.4142136 L46,27.1715729 Z M41.9355182,4 L7.30178917,4 L23.5900051,18.9851587 C24.3669593,19.6999565 25.5656948,19.6877474 26.3279289,18.9572731 L41.9355182,4 Z M4,0 L46,0 C48.209139,-4.05812251e-16 50,1.790861 50,4 L50,30 C50,32.209139 48.209139,34 46,34 L4,34 C1.790861,34 2.705415e-16,32.209139 0,30 L0,4 C-2.705415e-16,1.790861 1.790861,4.05812251e-16 4,0 Z" transform="translate(3 11)"/>
</svg>
