<?xml version="1.0" encoding="UTF-8"?>
<svg width="57px" height="50px" viewBox="0 0 57 50" version="1.1" xmlns="http://www.w3.org/2000/svg" xmlns:xlink="http://www.w3.org/1999/xlink">
    <!-- Generator: Sketch 40.1 (33804) - http://www.bohemiancoding.com/sketch -->
    <title>email_fill</title>
    <desc>Created with Sketch.</desc>
    <defs></defs>
    <g id="Page-1" stroke="none" stroke-width="1" fill="none" fill-rule="evenodd">
        <g id="email_fill" transform="translate(0.000000, 7.000000)" fill="#000000">
            <path d="M38.1180533,19.5314868 L29.3247701,28.3247701 L28.6176633,29.0318769 L27.9105565,28.3247701 L18.9973069,19.4172999 L4.42268267,34 L2.41992188,36 L0,36 L9.09494702e-13,35.5799866 L2,33.5795734 L17.5823025,18.003213 L2,2.43101425 L1.80085981e-13,0.429992676 L0,-1.68046912e-13 L2.43017578,-2.27373675e-13 L4.42591782,2 L28.6199419,26.2053971 L52.8226354,1.99847767 L54.8198242,-3.40298087e-13 L0,0 L0,36 L57,36 L57,0 L54.8198242,0 L57,-1.85774434e-13 L57,0.649993896 L54.9970723,2.65246784 L39.5315093,18.1180309 L55,33.6003155 L57,35.6000061 L57,36 L54.6000977,36 L52.6002573,34 L38.1180533,19.5314868 Z" id="Combined-Shape"></path>
        </g>
    </g>
</svg>