<svg xmlns="http://www.w3.org/2000/svg" width="56" height="56" viewBox="0 0 56 56">
  <path fill-rule="evenodd" d="M47.1021811,33.8462248 C46.7520552,33.9463706 46.3822905,34 46,34 L4,34 C3.60745473,34 3.22811629,33.9434549 2.86968552,33.8380654 C3.00244009,33.7569904 3.1277872,33.6590262 3.24264069,33.5441727 L13.5441727,23.2426407 C14.3252213,22.4615921 14.3252213,21.1952621 13.5441727,20.4142136 C12.7631241,19.633165 11.4967942,19.633165 10.7157456,20.4142136 L0.414213562,30.7157456 C0.30887858,30.8210806 0.217749447,30.9352419 0.140826163,31.055849 C0.0490136251,30.7194902 4.47570411e-17,30.365469 0,30 L0,4 C-4.81805824e-17,3.60657569 0.0567986719,3.22641742 0.162643314,2.86727789 L20.881779,21.9288827 C23.2126414,24.0732761 26.8088481,24.036649 29.0955504,21.8452259 L49.5801778,2.21412459 C49.8488396,2.75167156 50,3.35818307 50,4 L50,30 C50,30.3822905 49.9463706,30.7520552 49.8462248,31.1021811 C49.7635905,30.9644277 49.6629065,30.8344793 49.5441727,30.7157456 L39.2426407,20.4142136 C38.4615921,19.633165 37.1952621,19.633165 36.4142136,20.4142136 C35.633165,21.1952621 35.633165,22.4615921 36.4142136,23.2426407 L46.7157456,33.5441727 C46.8344793,33.6629065 46.9644277,33.7635905 47.1021811,33.8462248 Z M46.107941,0.00142820319 L26.3279289,18.9572731 C25.5656948,19.6877474 24.3669593,19.6999565 23.5900051,18.9851587 L3.07166072,0.10828182 C3.36958305,0.0374791281 3.68041466,5.87068736e-17 4,0 L46,0 C46.036094,-6.63035661e-18 46.0720763,0.000478063235 46.107941,0.00142820319 Z" transform="translate(3 11)"/>
</svg>
