<svg xmlns="http://www.w3.org/2000/svg" width="56" height="56" viewBox="0 0 56 56">
  <g fill-rule="evenodd" transform="translate(2 10)">
    <path fill-rule="nonzero" d="M17.0480612,11.933012 C19.5378941,4.97687196 26.1877417,0 34,0 C43.9411255,0 52,8.0588745 52,18 C52,27.9411255 43.9411255,36 34,36 C26.1814126,36 19.5271202,31.0150608 17.042018,24.0500776 L20.8093952,22.7058794 C22.7815326,28.2331787 28.0336108,32 34,32 C41.7319865,32 48,25.7319865 48,18 C48,10.2680135 41.7319865,4 34,4 C28.0386642,4 22.7900769,7.76043584 20.8140852,13.2809968 L17.0480612,11.933012 Z"/>
    <path d="M36,18.0284271 C36,18.6061947 35.7550079,19.1267413 35.3632412,19.4918493 C35.3470949,19.5091682 35.330584,19.5262702 35.3137085,19.5431458 L28.2426407,26.6142136 C27.4615921,27.3952621 26.1952621,27.3952621 25.4142136,26.6142136 C24.633165,25.833165 24.633165,24.566835 25.4142136,23.7857864 L29.1715729,20.0284271 L2,20.0284271 C0.8954305,20.0284271 1.81892177e-12,19.1329966 1.8189894e-12,18.0284271 C1.81905704e-12,16.9238576 0.8954305,16.0284271 2,16.0284271 L29.1994949,16.0284271 L25.4142136,12.2431458 C24.633165,11.4620972 24.633165,10.1957672 25.4142136,9.41471863 C26.1952621,8.63367004 27.4615921,8.63367004 28.2426407,9.41471863 L35.3137085,16.4857864 C35.3922393,16.5643172 35.4628741,16.6477538 35.5256131,16.7351098 C35.8215122,17.0838099 36,17.5352745 36,18.0284271 Z"/>
  </g>
</svg>
