<svg xmlns="http://www.w3.org/2000/svg" width="56" height="56" viewBox="0 0 56 56">
  <g fill-rule="evenodd" transform="translate(2 10)">
    <path fill-rule="nonzero" d="M16,24 L20,24 L20,30 C20,31.1045695 20.8954305,32 22,32 L46,32 C47.1045695,32 48,31.1045695 48,30 L48,6 C48,4.8954305 47.1045695,4 46,4 L22,4 C20.8954305,4 20,4.8954305 20,6 L20,12 L16,12 L16,6 C16,2.6862915 18.6862915,0 22,0 L46,0 C49.3137085,0 52,2.6862915 52,6 L52,30 C52,33.3137085 49.3137085,36 46,36 L22,36 C18.6862915,36 16,33.3137085 16,30 L16,24 Z"/>
    <path d="M36,18.0284271 C36,18.6061947 35.7550079,19.1267413 35.3632412,19.4918493 C35.3470949,19.5091682 35.330584,19.5262702 35.3137085,19.5431458 L28.2426407,26.6142136 C27.4615921,27.3952621 26.1952621,27.3952621 25.4142136,26.6142136 C24.633165,25.833165 24.633165,24.566835 25.4142136,23.7857864 L29.1715729,20.0284271 L2,20.0284271 C0.8954305,20.0284271 1.81892177e-12,19.1329966 1.8189894e-12,18.0284271 C1.81905704e-12,16.9238576 0.8954305,16.0284271 2,16.0284271 L29.1994949,16.0284271 L25.4142136,12.2431458 C24.633165,11.4620972 24.633165,10.1957672 25.4142136,9.41471863 C26.1952621,8.63367004 27.4615921,8.63367004 28.2426407,9.41471863 L35.3137085,16.4857864 C35.3922393,16.5643172 35.4628741,16.6477538 35.5256131,16.7351098 C35.8215122,17.0838099 36,17.5352745 36,18.0284271 Z"/>
  </g>
</svg>
