<svg xmlns="http://www.w3.org/2000/svg" width="56" height="56" viewBox="0 0 56 56">
  <path fill-rule="evenodd" d="M16.1130228,20.0284271 L2,20.0284271 C0.8954305,20.0284271 1.82247448e-12,19.1329966 1.82254212e-12,18.0284271 C1.82260975e-12,16.9238576 0.8954305,16.0284271 2,16.0284271 L16.1067379,16.0284271 C17.0886846,7.01484375 24.72514,0 34,0 C43.9411255,0 52,8.0588745 52,18 C52,27.9411255 43.9411255,36 34,36 C24.7446499,36 17.1208188,29.014637 16.1130228,20.0284271 Z M16.1130228,20.0284271 L29.1715729,20.0284271 L25.4142136,23.7857864 C24.633165,24.566835 24.633165,25.833165 25.4142136,26.6142136 C26.1952621,27.3952621 27.4615921,27.3952621 28.2426407,26.6142136 L35.3137085,19.5431458 C35.330584,19.5262702 35.3470949,19.5091682 35.3632412,19.4918493 C35.7550079,19.1267413 36,18.6061947 36,18.0284271 C36,17.5352745 35.8215122,17.0838099 35.5256131,16.7351098 C35.4628741,16.6477538 35.3922393,16.5643172 35.3137085,16.4857864 L28.2426407,9.41471863 C27.4615921,8.63367004 26.1952621,8.63367004 25.4142136,9.41471863 C24.633165,10.1957672 24.633165,11.4620972 25.4142136,12.2431458 L29.1994949,16.0284271 L16.1067379,16.0284271 C16.0361991,16.6759237 16,17.3337345 16,18 C16,18.6857754 16.0383502,19.3625937 16.1130228,20.0284271 Z" transform="translate(2 10)"/>
</svg>
