<svg xmlns="http://www.w3.org/2000/svg" width="56" height="56" viewBox="0 0 56 56">
  <g fill-rule="evenodd" transform="translate(2 10)">
    <path fill-rule="nonzero" d="M36,12 L32,12 L32,6 C32,4.8954305 31.1045695,4 30,4 L6,4 C4.8954305,4 4,4.8954305 4,6 L4,30 C4,31.1045695 4.8954305,32 6,32 L30,32 C31.1045695,32 32,31.1045695 32,30 L32,24 L36,24 L36,30 C36,33.3137085 33.3137085,36 30,36 L6,36 C2.6862915,36 1.81188398e-12,33.3137085 1.81188398e-12,30 L1.8189894e-12,6 C1.8189894e-12,2.6862915 2.6862915,-2.3689934e-15 6,-2.20436424e-15 L30,2.20436424e-15 C33.3137085,2.3689934e-15 36,2.6862915 36,6 L36,12 Z"/>
    <path d="M52,17.9994949 C52,18.5772625 51.7550079,19.0978091 51.3632412,19.4629172 C51.3470949,19.480236 51.330584,19.497338 51.3137085,19.5142136 L44.2426407,26.5852814 C43.4615921,27.36633 42.1952621,27.36633 41.4142136,26.5852814 C40.633165,25.8042328 40.633165,24.5379028 41.4142136,23.7568542 L45.1715729,19.9994949 L18,19.9994949 C16.8954305,19.9994949 16,19.1040644 16,17.9994949 C16,16.8949254 16.8954305,15.9994949 18,15.9994949 L45.1994949,15.9994949 L41.4142136,12.2142136 C40.633165,11.433165 40.633165,10.166835 41.4142136,9.38578644 C42.1952621,8.60473785 43.4615921,8.60473785 44.2426407,9.38578644 L51.3137085,16.4568542 C51.3922393,16.535385 51.4628741,16.6188217 51.5256131,16.7061777 C51.8215122,17.0548778 52,17.5063423 52,17.9994949 Z"/>
  </g>
</svg>
