<svg xmlns="http://www.w3.org/2000/svg" width="56" height="56" viewBox="0 0 56 56">
  <g fill-rule="evenodd" transform="translate(2 10)">
    <path fill-rule="nonzero" d="M34.9519388,11.933012 L31.1859148,13.2809968 C29.2099231,7.76043584 23.9613358,4 18,4 C10.2680135,4 4,10.2680135 4,18 C4,25.7319865 10.2680135,32 18,32 C23.9663892,32 29.2184674,28.2331787 31.1906048,22.7058794 L34.957982,24.0500776 C32.4728798,31.0150608 25.8185874,36 18,36 C8.0588745,36 0,27.9411255 0,18 C0,8.0588745 8.0588745,0 18,0 C25.8122583,0 32.4621059,4.97687196 34.9519388,11.933012 Z"/>
    <path d="M52,17.9994949 C52,18.5772625 51.7550079,19.0978091 51.3632412,19.4629172 C51.3470949,19.480236 51.330584,19.497338 51.3137085,19.5142136 L44.2426407,26.5852814 C43.4615921,27.36633 42.1952621,27.36633 41.4142136,26.5852814 C40.633165,25.8042328 40.633165,24.5379028 41.4142136,23.7568542 L45.1715729,19.9994949 L18,19.9994949 C16.8954305,19.9994949 16,19.1040644 16,17.9994949 C16,16.8949254 16.8954305,15.9994949 18,15.9994949 L45.1994949,15.9994949 L41.4142136,12.2142136 C40.633165,11.433165 40.633165,10.166835 41.4142136,9.38578644 C42.1952621,8.60473785 43.4615921,8.60473785 44.2426407,9.38578644 L51.3137085,16.4568542 C51.3922393,16.535385 51.4628741,16.6188217 51.5256131,16.7061777 C51.8215122,17.0548778 52,17.5063423 52,17.9994949 Z"/>
  </g>
</svg>
