<svg xmlns="http://www.w3.org/2000/svg" width="56" height="56" viewBox="0 0 56 56">
  <path fill-rule="evenodd" d="M35.8900866,15.9994949 L45.1994949,15.9994949 L41.4142136,12.2142136 C40.633165,11.433165 40.633165,10.166835 41.4142136,9.38578644 C42.1952621,8.60473785 43.4615921,8.60473785 44.2426407,9.38578644 L51.3137085,16.4568542 C51.3922393,16.535385 51.4628741,16.6188217 51.5256131,16.7061777 C51.8215122,17.0548778 52,17.5063423 52,17.9994949 C52,18.5772625 51.7550079,19.0978091 51.3632412,19.4629172 C51.3470949,19.480236 51.330584,19.497338 51.3137085,19.5142136 L44.2426407,26.5852814 C43.4615921,27.36633 42.1952621,27.36633 41.4142136,26.5852814 C40.633165,25.8042328 40.633165,24.5379028 41.4142136,23.7568542 L45.1715729,19.9994949 L35.8901983,19.9994949 C34.8955393,28.999639 27.2652806,36 18,36 C8.0588745,36 0,27.9411255 0,18 C0,8.0588745 8.0588745,0 18,0 C27.264934,0 34.8949684,6.99983719 35.8900866,15.9994949 Z M35.8900866,15.9994949 L18,15.9994949 C16.8954305,15.9994949 16,16.8949254 16,17.9994949 C16,19.1040644 16.8954305,19.9994949 18,19.9994949 L35.8901983,19.9994949 C35.9627525,19.3429901 36,18.6758449 36,18 C36,17.3238085 35.9627143,16.6563255 35.8900866,15.9994949 Z" transform="translate(2 10)"/>
</svg>
