<svg xmlns="http://www.w3.org/2000/svg" width="56" height="56" viewBox="0 0 56 56">
  <g fill-rule="evenodd" transform="translate(0 11)">
    <path fill-rule="nonzero" d="M10.6496964,21.3297525 C17.3460671,27.1287886 22.9967749,30 28,30 C32.7045973,30 38.0322824,27.3829383 44.4711529,22.0729467 C45.1178385,21.5396397 46.46684,20.3422473 48.5181575,18.4807696 L48.5181478,18.4807588 C49.3361229,17.7384834 49.3974896,16.4736505 48.6552142,15.6556753 C48.6117359,15.607763 48.5659583,15.5619885 48.5180428,15.5185136 C46.464543,13.6553209 45.1119766,12.4551969 44.4603435,11.9181417 C38.0245861,6.61399567 32.7009109,4 28,4 C22.9805956,4 17.3124738,6.88531354 10.6018724,12.7117165 C10.080792,13.1641386 9.04169112,14.101346 7.48456978,15.5233385 L7.48455402,15.5233213 C6.66890717,16.2681854 6.6115264,17.5332294 7.35639048,18.3488763 C7.39721061,18.3935755 7.44003901,18.4363984 7.48474342,18.4772128 C9.06959,19.9241519 10.1245743,20.8749984 10.6496964,21.3297525 Z M28,0 C34.3347824,0 40.6695647,3.61046282 47.0043471,8.83138846 C48.5376521,10.0950895 51.0181104,12.3311786 54.4457221,15.5396557 C55.2521022,16.2945079 55.2938953,17.5601361 54.5390568,18.3665291 C54.5089156,18.3987289 54.4777175,18.4299229 54.4455136,18.4600598 C51.0144218,21.6709322 48.5379481,23.9038884 47.0160925,25.1589284 C40.677395,30.3863095 34.3386975,34 28,34 C21.3437103,34 14.6874207,30.117837 8.031131,24.353511 C6.71773203,23.2161116 4.56345059,21.2529107 1.56828668,18.4639084 C0.759911353,17.7111768 0.714804914,16.4456495 1.46753762,15.6372752 C1.49996903,15.6024465 1.53363324,15.5687864 1.56846596,15.5363593 C4.53277317,12.7767713 6.66976451,10.828422 7.97943999,9.69131122 C14.65296,3.89710374 21.32648,4.96199941e-16 28,0 Z"/>
    <circle cx="28" cy="17" r="5"/>
    <path fill-rule="nonzero" d="M28,25 C32.418278,25 36,21.418278 36,17 C36,12.581722 32.418278,9 28,9 C23.581722,9 20,12.581722 20,17 C20,21.418278 23.581722,25 28,25 Z M28,27 C22.4771525,27 18,22.5228475 18,17 C18,11.4771525 22.4771525,7 28,7 C33.5228475,7 38,11.4771525 38,17 C38,22.5228475 33.5228475,27 28,27 Z"/>
  </g>
</svg>
