<svg xmlns="http://www.w3.org/2000/svg" width="56" height="56" viewBox="0 0 56 56">
  <g fill-rule="evenodd" transform="translate(0 4)">
    <path d="M42.1827657,35.7992784 L36.80916,28.7368251 C37.5688742,27.3269364 38,25.7138156 38,24 C38,18.4771525 33.5228475,14 28,14 C27.238399,14 26.4966833,14.0851394 25.7838516,14.2464198 L21.2289108,8.25992617 C23.4859405,7.44576565 25.7429703,7 28,7 C34.3347824,7 40.6695647,10.6104628 47.0043471,15.8313885 C48.5376521,17.0950895 51.0181104,19.3311786 54.4457221,22.5396557 L54.4457093,22.5396694 C55.2521022,23.2945079 55.2938953,24.5601361 54.5390568,25.3665291 C54.5089156,25.3987289 54.4777175,25.4299229 54.4455136,25.4600598 C51.0144218,28.6709322 48.5379481,30.9038884 47.0160925,32.1589284 C45.4049836,33.4875736 43.7938746,34.7119703 42.1827657,35.7992784 Z M38.7517522,37.8958188 C35.1678348,39.8447742 31.5839174,41 28,41 C21.3437103,41 14.6874207,37.117837 8.031131,31.353511 C6.71773203,30.2161116 4.56345059,28.2529107 1.56828668,25.4639084 C0.759911353,24.7111768 0.714804914,23.4456495 1.46753762,22.6372752 C1.49996903,22.6024465 1.53363324,22.5687864 1.56846596,22.5363593 C4.53277317,19.7767713 6.66976451,17.828422 7.97943999,16.6913112 C11.1461558,13.9418464 14.3128716,11.6195502 17.4795875,9.93811658 L22.0582772,15.9558231 C19.5962668,17.7773718 18,20.7022719 18,24 C18,29.5228475 22.4771525,34 28,34 C30.3273335,34 32.4689736,33.2049526 34.1681381,31.8716403 L38.7517522,37.8958188 Z"/>
    <path d="M25.0866592,19.9359823 L31.1397566,27.8914817 C30.2815051,28.584813 29.1892386,29 28,29 C25.2385763,29 23,26.7614237 23,24 C23,22.3255926 23.8230535,20.8434196 25.0866592,19.9359823 Z M29.5995364,19.2613199 L32.9923142,23.7203992 C32.8776885,21.6408283 31.4922742,19.8999804 29.5995364,19.2613199 Z"/>
    <path fill-rule="nonzero" d="M10.5916574,1.21104366 C11.4707055,0.542202717 12.7255175,0.712609286 13.3943584,1.59165739 L45.9722711,44.4083426 C46.6411121,45.2873907 46.4707055,46.5422027 45.5916574,47.2110437 C44.7126093,47.8798846 43.4577973,47.709478 42.7889563,46.8304299 L10.2110437,4.01374472 C9.54220272,3.13469662 9.71260929,1.87988461 10.5916574,1.21104366 Z"/>
  </g>
</svg>
