<svg xmlns="http://www.w3.org/2000/svg" width="56" height="56" viewBox="0 0 56 56">
  <g fill-rule="evenodd" transform="translate(0 11)">
    <path d="M28,0 C34.3347824,0 40.6695647,3.61046282 47.0043471,8.83138846 C48.5376521,10.0950895 51.0181104,12.3311786 54.4457221,15.5396557 L54.4457093,15.5396694 C55.2521022,16.2945079 55.2938953,17.5601361 54.5390568,18.3665291 C54.5089156,18.3987289 54.4777175,18.4299229 54.4455136,18.4600598 C51.0144218,21.6709322 48.5379481,23.9038884 47.0160925,25.1589284 C40.677395,30.3863095 34.3386975,34 28,34 C21.3437103,34 14.6874207,30.117837 8.031131,24.353511 C6.71773203,23.2161116 4.56345059,21.2529107 1.56828668,18.4639084 C0.759911353,17.7111768 0.714804914,16.4456495 1.46753762,15.6372752 C1.49996903,15.6024465 1.53363324,15.5687864 1.56846596,15.5363593 C4.53277317,12.7767713 6.66976451,10.828422 7.97943999,9.69131122 C14.65296,3.89710374 21.32648,4.96199941e-16 28,0 Z M28,27 C33.5228475,27 38,22.5228475 38,17 C38,11.4771525 33.5228475,7 28,7 C22.4771525,7 18,11.4771525 18,17 C18,22.5228475 22.4771525,27 28,27 Z"/>
    <circle cx="28" cy="17" r="5"/>
  </g>
</svg>
