<svg xmlns="http://www.w3.org/2000/svg" width="56" height="56" viewBox="0 0 56 56">
  <path d="M24.85,14.0416026 L24.85,2.46945635 C24.85,0.257295646 26.3915624,-0.636256193 28.3086845,0.482704314 L48.2683888,12.1325205 C50.1785675,13.2474284 50.185511,15.0509985 48.2683888,16.169959 L28.3086845,27.8197752 C26.3985058,28.9346831 24.85,28.038977 24.85,25.8330232 L24.85,14.2618064 C24.8043523,14.9541865 24.32789,15.6391134 23.4183888,16.169959 L3.45868453,27.8197752 C1.54850581,28.9346831 0,28.038977 0,25.8330232 L0,2.46945635 C0,0.257295646 1.54156237,-0.636256193 3.45868453,0.482704314 L23.4183888,12.1325205 C24.3263243,12.6624523 24.8042736,13.3479692 24.85,14.0416027 Z" transform="translate(3 14)"/>
</svg>
