<svg xmlns="http://www.w3.org/2000/svg" width="56" height="56" viewBox="0 0 56 56">
  <path d="M24.85,14.0416026 L24.85,2.46945635 C24.85,0.257295646 26.3915624,-0.636256193 28.3086845,0.482704314 L48.2683888,12.1325205 C50.1785675,13.2474284 50.185511,15.0509985 48.2683888,16.169959 L28.3086845,27.8197752 C26.3985058,28.9346831 24.85,28.038977 24.85,25.8330232 L24.85,14.2618064 C24.8043523,14.9541865 24.32789,15.6391134 23.4183888,16.169959 L3.45868453,27.8197752 C1.54850581,28.9346831 5.34683409e-13,28.038977 5.34683409e-13,25.8330232 L5.34683409e-13,2.46945635 C5.34683409e-13,0.257295646 1.54156237,-0.636256193 3.45868453,0.482704314 L23.4183888,12.1325205 C24.3263243,12.6624523 24.8042736,13.3479692 24.85,14.0416027 Z M18.2020659,13.719413 L4.75204294,5.86908149 C4.5135516,5.72988202 4.2073727,5.81037399 4.06817323,6.04886533 C4.02352659,6.12535869 4,6.21233875 4,6.30090826 L4,22.0015713 C4,22.2777137 4.22385763,22.5015713 4.5,22.5015713 C4.58856951,22.5015713 4.67554957,22.4780447 4.75204294,22.433398 L18.2020659,14.5830665 C18.4405572,14.4438671 18.5210492,14.1376882 18.3818497,13.8991968 C18.3384143,13.8247786 18.2764841,13.7628484 18.2020659,13.719413 Z M43.0520659,13.719413 L29.6020429,5.86908149 C29.3635516,5.72988202 29.0573727,5.81037399 28.9181732,6.04886533 C28.8735266,6.12535869 28.85,6.21233875 28.85,6.30090826 L28.85,22.0015713 C28.85,22.2777137 29.0738576,22.5015713 29.35,22.5015713 C29.4385695,22.5015713 29.5255496,22.4780447 29.6020429,22.433398 L43.0520659,14.5830665 C43.2905572,14.4438671 43.3710492,14.1376882 43.2318497,13.8991968 C43.1884143,13.8247786 43.1264841,13.7628484 43.0520659,13.719413 Z" transform="translate(3 14)"/>
</svg>
