<svg xmlns="http://www.w3.org/2000/svg" width="56" height="56" viewBox="0 0 56 56">
  <g fill-rule="evenodd">
    <path fill-rule="nonzero" d="M28,52 C41.254834,52 52,41.254834 52,28 C52,14.745166 41.254834,4 28,4 C14.745166,4 4,14.745166 4,28 C4,41.254834 14.745166,52 28,52 Z M28,56 C12.536027,56 0,43.463973 0,28 C0,12.536027 12.536027,0 28,0 C43.463973,0 56,12.536027 56,28 C56,43.463973 43.463973,56 28,56 Z"/>
    <path d="M15,35.3256404 L15,21.2374585 C15,20.1294382 15.7689451,19.6800179 16.7336007,20.2430553 L28.7724032,27.2697043 C29.7298444,27.8285309 29.7370587,28.7303572 28.7724032,29.2933945 L16.7336007,36.3200436 C15.7761595,36.8788702 15,36.4342732 15,35.3256404 Z M29.5,35.3256404 L29.5,21.2374585 C29.5,20.1294382 30.2689451,19.6800179 31.2336007,20.2430553 L43.2724032,27.2697043 C44.2298444,27.8285309 44.2370587,28.7303572 43.2724032,29.2933945 L31.2336007,36.3200436 C30.2761595,36.8788702 29.5,36.4342732 29.5,35.3256404 Z"/>
  </g>
</svg>
