<?xml version="1.0" encoding="UTF-8"?>
<svg width="50px" height="50px" viewBox="0 0 50 50" version="1.1" xmlns="http://www.w3.org/2000/svg" xmlns:xlink="http://www.w3.org/1999/xlink">
    <!-- Generator: Sketch 40.1 (33804) - http://www.bohemiancoding.com/sketch -->
    <title>fastforward_circle</title>
    <desc>Created with Sketch.</desc>
    <defs></defs>
    <g id="Page-1" stroke="none" stroke-width="1" fill="none" fill-rule="evenodd">
        <g id="fastforward-circle" fill="#000000">
            <path d="M48,25 C48,12.2974508 37.7025492,2 25,2 C12.2974508,2 2,12.2974508 2,25 C2,37.7025492 12.2974508,48 25,48 C37.7025492,48 48,37.7025492 48,25 Z M0,25 C0,11.1928813 11.1928813,0 25,0 C38.8071187,0 50,11.1928813 50,25 C50,38.8071187 38.8071187,50 25,50 C11.1928813,50 0,38.8071187 0,25 Z" id="Oval-30"></path>
            <path d="M24.7642314,24.9389217 C24.4015968,25.1505795 24.4040852,26.1596402 24.7642314,26.3698456 L12.7254289,19.3431966 C13.0985564,19.5609787 14,19.0408982 14,18.6102927 L14,32.6984746 C14,32.262386 13.100506,31.7466507 12.7254289,31.9655707 L24.7642314,24.9389217 Z M12,32.6984746 L12,18.6102927 C12,17.5022724 12.7689451,17.0528521 13.7336007,17.6158895 L25.7724032,24.6425385 C26.7298444,25.2013652 26.7370587,26.1031914 25.7724032,26.6662288 L13.7336007,33.6928778 C12.7761595,34.2517044 12,33.8071074 12,32.6984746 Z" id="Triangle-5"></path>
            <path d="M39.2642314,24.9389217 C38.9015968,25.1505795 38.9040852,26.1596402 39.2642314,26.3698456 L27.2254289,19.3431966 C27.5985564,19.5609787 28.5,19.0408982 28.5,18.6102927 L28.5,32.6984746 C28.5,32.262386 27.600506,31.7466507 27.2254289,31.9655707 L39.2642314,24.9389217 Z M26.5,32.6984746 L26.5,18.6102927 C26.5,17.5022724 27.2689451,17.0528521 28.2336007,17.6158895 L40.2724032,24.6425385 C41.2298444,25.2013652 41.2370587,26.1031914 40.2724032,26.6662288 L28.2336007,33.6928778 C27.2761595,34.2517044 26.5,33.8071074 26.5,32.6984746 Z" id="Triangle-5-Copy"></path>
        </g>
    </g>
</svg>