<svg xmlns="http://www.w3.org/2000/svg" width="56" height="56" viewBox="0 0 56 56">
  <path d="M28,56 C12.536027,56 0,43.463973 0,28 C0,12.536027 12.536027,0 28,0 C43.463973,0 56,12.536027 56,28 C56,43.463973 43.463973,56 28,56 Z M15,35.3256404 C15,36.4342732 15.7761595,36.8788702 16.7336007,36.3200436 L28.7724032,29.2933945 C29.7370587,28.7303572 29.7298444,27.8285309 28.7724032,27.2697043 L16.7336007,20.2430553 C15.7689451,19.6800179 15,20.1294382 15,21.2374585 L15,35.3256404 Z M29.5,35.3256404 C29.5,36.4342732 30.2761595,36.8788702 31.2336007,36.3200436 L43.2724032,29.2933945 C44.2370587,28.7303572 44.2298444,27.8285309 43.2724032,27.2697043 L31.2336007,20.2430553 C30.2689451,19.6800179 29.5,20.1294382 29.5,21.2374585 L29.5,35.3256404 Z"/>
</svg>
