<svg xmlns="http://www.w3.org/2000/svg" width="56" height="56" viewBox="0 0 56 56">
  <g fill-rule="evenodd" transform="translate(5 5)">
    <path d="M4,0 L42,0 C44.209139,-4.05812251e-16 46,1.790861 46,4 L46,42 C46,44.209139 44.209139,46 42,46 L4,46 C1.790861,46 2.705415e-16,44.209139 0,42 L0,4 C-2.705415e-16,1.790861 1.790861,4.05812251e-16 4,0 Z M6,4 C4.8954305,4 4,4.8954305 4,6 L4,40 C4,41.1045695 4.8954305,42 6,42 L40,42 C41.1045695,42 42,41.1045695 42,40 L42,6 C42,4.8954305 41.1045695,4 40,4 L6,4 Z"/>
    <path d="M8 36L26 36C27.1045695 36 28 36.8954305 28 38 28 39.1045695 27.1045695 40 26 40L8 40C6.8954305 40 6 39.1045695 6 38 6 36.8954305 6.8954305 36 8 36zM8 28L36 28C37.1045695 28 38 28.8954305 38 30 38 31.1045695 37.1045695 32 36 32L8 32C6.8954305 32 6 31.1045695 6 30 6 28.8954305 6.8954305 28 8 28zM19.593079 7.23892985C18.1275582 5.59405278 15.7319185 5.59205253 14.2837332 7.2189273 13.5676416 8.0223634 13.34628 8.48108875 13.34628 8.48108875 13.34628 8.48108875 13.1022488 7.99636008 12.4101602 7.2189273 10.9559742 5.58671851 8.5650017 5.59405278 7.10014766 7.23892985 5.63462686 8.88380693 5.63796062 11.3254526 7.08214536 13.2003591 8.1376137 14.5718679 11.4900425 17.9176292 11.908096 18.2876765 12.934894 19.1984597 13.6709882 19.2691354 14.7611276 18.3063456 15.324533 17.8096153 18.5456117 14.53653 19.6110813 13.2003591 21.0139275 11.4414674 21.0585998 8.88380693 19.593079 7.23892985"/>
  </g>
</svg>
