<?xml version="1.0" encoding="UTF-8"?>
<svg width="46px" height="46px" viewBox="0 0 46 46" version="1.1" xmlns="http://www.w3.org/2000/svg" xmlns:xlink="http://www.w3.org/1999/xlink">
    <!-- Generator: Sketch 40.1 (33804) - http://www.bohemiancoding.com/sketch -->
    <title>favorites_fill</title>
    <desc>Created with Sketch.</desc>
    <defs></defs>
    <g id="Page-1" stroke="none" stroke-width="1" fill="none" fill-rule="evenodd">
        <g id="favorites_fill" fill="#000000">
            <path d="M0,0 L46,0 L46,46 L0,46 L0,0 Z M18,10 L40,10 L40,12 L18,12 L18,10 Z M18,22 L40,22 L40,24 L18,24 L18,22 Z M18,34 L40,34 L40,36 L18,36 L18,34 Z M9.5,13.1928906 L6.85496636,15.1405765 L7.88996534,12.023132 L5.22024568,10.1094235 L8.50494386,10.1304227 L9.5,7 L10.4950561,10.1304227 L13.7797543,10.1094235 L11.1100347,12.023132 L12.1450336,15.1405765 L9.5,13.1928906 Z M9.5,25.1928906 L6.85496636,27.1405765 L7.88996534,24.023132 L5.22024568,22.1094235 L8.50494386,22.1304227 L9.5,19 L10.4950561,22.1304227 L13.7797543,22.1094235 L11.1100347,24.023132 L12.1450336,27.1405765 L9.5,25.1928906 Z M9.5,37.1928906 L6.85496636,39.1405765 L7.88996534,36.023132 L5.22024568,34.1094235 L8.50494386,34.1304227 L9.5,31 L10.4950561,34.1304227 L13.7797543,34.1094235 L11.1100347,36.023132 L12.1450336,39.1405765 L9.5,37.1928906 Z" id="Combined-Shape"></path>
        </g>
    </g>
</svg>