<svg xmlns="http://www.w3.org/2000/svg" width="56" height="56" viewBox="0 0 56 56">
  <path fill-rule="evenodd" d="M4,0 L42,0 C44.209139,-4.05812251e-16 46,1.790861 46,4 L46,42 C46,44.209139 44.209139,46 42,46 L4,46 C1.790861,46 2.705415e-16,44.209139 0,42 L0,4 C-2.705415e-16,1.790861 1.790861,4.05812251e-16 4,0 Z M8,36 C6.8954305,36 6,36.8954305 6,38 C6,39.1045695 6.8954305,40 8,40 L26,40 C27.1045695,40 28,39.1045695 28,38 C28,36.8954305 27.1045695,36 26,36 L8,36 Z M8,28 C6.8954305,28 6,28.8954305 6,30 C6,31.1045695 6.8954305,32 8,32 L36,32 C37.1045695,32 38,31.1045695 38,30 C38,28.8954305 37.1045695,28 36,28 L8,28 Z M19.593079,7.23892985 C18.1275582,5.59405278 15.7319185,5.59205253 14.2837332,7.2189273 C13.5676416,8.0223634 13.34628,8.48108875 13.34628,8.48108875 C13.34628,8.48108875 13.1022488,7.99636008 12.4101602,7.2189273 C10.9559742,5.58671851 8.5650017,5.59405278 7.10014766,7.23892985 C5.63462686,8.88380693 5.63796062,11.3254526 7.08214536,13.2003591 C8.1376137,14.5718679 11.4900425,17.9176292 11.908096,18.2876765 C12.934894,19.1984597 13.6709882,19.2691354 14.7611276,18.3063456 C15.324533,17.8096153 18.5456117,14.53653 19.6110813,13.2003591 C21.0139275,11.4414674 21.0585998,8.88380693 19.593079,7.23892985 Z" transform="translate(5 5)"/>
</svg>
