<?xml version="1.0" encoding="UTF-8"?>
<svg width="56px" height="56px" viewBox="0 0 56 56" version="1.1" xmlns="http://www.w3.org/2000/svg" xmlns:xlink="http://www.w3.org/1999/xlink">
    <!-- Generator: Sketch 52.1 (67048) - http://www.bohemiancoding.com/sketch -->
    <title>favorites</title>
    <desc>Created with Sketch.</desc>
    <g id="Page-1" stroke="none" stroke-width="1" fill="none" fill-rule="evenodd">
        <g id="favorites" transform="translate(5.000000, 5.000000)" fill="#000000">
            <path d="M4,0 L42,0 C44.209139,-4.05812251e-16 46,1.790861 46,4 L46,42 C46,44.209139 44.209139,46 42,46 L4,46 C1.790861,46 2.705415e-16,44.209139 0,42 L0,4 C-2.705415e-16,1.790861 1.790861,4.05812251e-16 4,0 Z M6,4 C4.8954305,4 4,4.8954305 4,6 L4,40 C4,41.1045695 4.8954305,42 6,42 L40,42 C41.1045695,42 42,41.1045695 42,40 L42,6 C42,4.8954305 41.1045695,4 40,4 L6,4 Z" id="Shape"></path>
            <path d="M14.8602007,10.1465 L12.8592007,11.6245 C12.7722007,11.6885 12.7362007,11.7995 12.7692007,11.9025 L13.5392007,14.2695 C13.6142007,14.4995 13.3502007,14.6915 13.1542007,14.5485 L11.1422007,13.0875 C11.0542007,13.0245 10.9362007,13.0245 10.8482007,13.0875 L8.83620069,14.5485 C8.64020069,14.6915 8.37620069,14.4995 8.45120069,14.2695 L9.21920069,11.9035 C9.25320069,11.8005 9.21620069,11.6885 9.12920069,11.6245 L7.10320069,10.1475 C6.90720069,10.0045 7.00920069,9.6945 7.25120069,9.6955 L9.75020069,9.7085 C9.85920069,9.7095 9.95620069,9.6395 9.99020069,9.5355 L10.7572007,7.1725 C10.8322007,6.9425 11.1582007,6.9425 11.2332007,7.1725 L12.0012007,9.5365 C12.0352007,9.6395 12.1322007,9.7095 12.2402007,9.7085 L14.7102007,9.6955 C14.9532007,9.6945 15.0552007,10.0035 14.8602007,10.1465" id="Path"></path>
            <path d="M14.8602007,22.1465 L12.8592007,23.6245 C12.7722007,23.6885 12.7362007,23.7995 12.7692007,23.9025 L13.5392007,26.2695 C13.6142007,26.4995 13.3502007,26.6915 13.1542007,26.5485 L11.1422007,25.0875 C11.0542007,25.0245 10.9362007,25.0245 10.8482007,25.0875 L8.83620069,26.5485 C8.64020069,26.6915 8.37620069,26.4995 8.45120069,26.2695 L9.21920069,23.9035 C9.25320069,23.8005 9.21620069,23.6885 9.12920069,23.6245 L7.10320069,22.1475 C6.90720069,22.0045 7.00920069,21.6945 7.25120069,21.6955 L9.75020069,21.7085 C9.85920069,21.7095 9.95620069,21.6395 9.99020069,21.5355 L10.7572007,19.1725 C10.8322007,18.9425 11.1582007,18.9425 11.2332007,19.1725 L12.0012007,21.5365 C12.0352007,21.6395 12.1322007,21.7095 12.2402007,21.7085 L14.7102007,21.6955 C14.9532007,21.6945 15.0552007,22.0035 14.8602007,22.1465" id="Path"></path>
            <path d="M14.8602007,34.1465 L12.8592007,35.6245 C12.7722007,35.6885 12.7362007,35.7995 12.7692007,35.9025 L13.5392007,38.2695 C13.6142007,38.4995 13.3502007,38.6915 13.1542007,38.5485 L11.1422007,37.0875 C11.0542007,37.0245 10.9362007,37.0245 10.8482007,37.0875 L8.83620069,38.5485 C8.64020069,38.6915 8.37620069,38.4995 8.45120069,38.2695 L9.21920069,35.9035 C9.25320069,35.8005 9.21620069,35.6885 9.12920069,35.6245 L7.10320069,34.1475 C6.90720069,34.0045 7.00920069,33.6945 7.25120069,33.6955 L9.75020069,33.7085 C9.85920069,33.7095 9.95620069,33.6395 9.99020069,33.5355 L10.7572007,31.1725 C10.8322007,30.9425 11.1582007,30.9425 11.2332007,31.1725 L12.0012007,33.5365 C12.0352007,33.6395 12.1322007,33.7095 12.2402007,33.7085 L14.7102007,33.6955 C14.9532007,33.6945 15.0552007,34.0035 14.8602007,34.1465" id="Path"></path>
            <path d="M19.8181818,9 L36.1818182,9 C37.1859723,9 38,9.8954305 38,11 C38,12.1045695 37.1859723,13 36.1818182,13 L19.8181818,13 C18.8140277,13 18,12.1045695 18,11 C18,9.8954305 18.8140277,9 19.8181818,9 Z" id="Rectangle"></path>
            <path d="M19.8181818,21 L36.1818182,21 C37.1859723,21 38,21.8954305 38,23 C38,24.1045695 37.1859723,25 36.1818182,25 L19.8181818,25 C18.8140277,25 18,24.1045695 18,23 C18,21.8954305 18.8140277,21 19.8181818,21 Z" id="Rectangle-Copy-9"></path>
            <path d="M19.8181818,33 L36.1818182,33 C37.1859723,33 38,33.8954305 38,35 C38,36.1045695 37.1859723,37 36.1818182,37 L19.8181818,37 C18.8140277,37 18,36.1045695 18,35 C18,33.8954305 18.8140277,33 19.8181818,33 Z" id="Rectangle-Copy-10"></path>
        </g>
    </g>
</svg>