<?xml version="1.0" encoding="UTF-8"?>
<svg width="46px" height="46px" viewBox="0 0 46 46" version="1.1" xmlns="http://www.w3.org/2000/svg" xmlns:xlink="http://www.w3.org/1999/xlink">
    <!-- Generator: Sketch 40.1 (33804) - http://www.bohemiancoding.com/sketch -->
    <title>favorites</title>
    <desc>Created with Sketch.</desc>
    <defs></defs>
    <g id="Page-1" stroke="none" stroke-width="1" fill="none" fill-rule="evenodd">
        <g id="favorites" fill="#000000">
            <path d="M2,44 L2,2 L44,2 L44,44 L2,44 L2,44 Z M0,45 L0,0 L1,0 L45,0 L46,0 L46,46 L45,46 L0,46 L0,45 L0,45 Z" id="Combined-Shape"></path>
            <rect id="Rectangle-43" x="18" y="10" width="22" height="2"></rect>
            <rect id="Rectangle-43-Copy" x="18" y="22" width="22" height="2"></rect>
            <rect id="Rectangle-43-Copy-2" x="18" y="34" width="22" height="2"></rect>
            <polygon id="Star-2" points="9.5 13.1928906 6.85496636 15.1405765 7.88996534 12.023132 5.22024568 10.1094235 8.50494386 10.1304227 9.5 7 10.4950561 10.1304227 13.7797543 10.1094235 11.1100347 12.023132 12.1450336 15.1405765"></polygon>
            <polygon id="Star-2-Copy" points="9.5 25.1928906 6.85496636 27.1405765 7.88996534 24.023132 5.22024568 22.1094235 8.50494386 22.1304227 9.5 19 10.4950561 22.1304227 13.7797543 22.1094235 11.1100347 24.023132 12.1450336 27.1405765"></polygon>
            <polygon id="Star-2-Copy-2" points="9.5 37.1928906 6.85496636 39.1405765 7.88996534 36.023132 5.22024568 34.1094235 8.50494386 34.1304227 9.5 31 10.4950561 34.1304227 13.7797543 34.1094235 11.1100347 36.023132 12.1450336 39.1405765"></polygon>
        </g>
    </g>
</svg>