<?xml version="1.0" encoding="UTF-8"?>
<svg width="50px" height="50px" viewBox="0 0 50 50" version="1.1" xmlns="http://www.w3.org/2000/svg" xmlns:xlink="http://www.w3.org/1999/xlink">
    <!-- Generator: Sketch 40.1 (33804) - http://www.bohemiancoding.com/sketch -->
    <title>film</title>
    <desc>Created with Sketch.</desc>
    <defs></defs>
    <g id="Page-1" stroke="none" stroke-width="1" fill="none" fill-rule="evenodd">
        <g id="film" transform="translate(0.000000, 4.000000)" fill="#000000">
            <rect id="Rectangle-76" x="0" y="0" width="50" height="2"></rect>
            <rect id="Rectangle-76-Copy" x="0" y="40" width="50" height="2"></rect>
            <rect id="Rectangle-77" x="0" y="2" width="2" height="38"></rect>
            <rect id="Rectangle-77-Copy" x="9" y="2" width="2" height="38"></rect>
            <rect id="Rectangle-77-Copy-2" x="39" y="2" width="2" height="38"></rect>
            <rect id="Rectangle-77-Copy-3" x="48" y="2" width="2" height="38"></rect>
            <rect id="Rectangle-78" x="2" y="8" width="7" height="2"></rect>
            <rect id="Rectangle-78-Copy-4" x="41" y="8" width="7" height="2"></rect>
            <rect id="Rectangle-79" x="11" y="20" width="28" height="2"></rect>
            <rect id="Rectangle-78-Copy-2" x="2" y="24" width="7" height="2"></rect>
            <rect id="Rectangle-78-Copy-5" x="41" y="24" width="7" height="2"></rect>
            <rect id="Rectangle-78-Copy" x="2" y="16" width="7" height="2"></rect>
            <rect id="Rectangle-78-Copy-6" x="41" y="16" width="7" height="2"></rect>
            <rect id="Rectangle-78-Copy-3" x="2" y="32" width="7" height="2"></rect>
            <rect id="Rectangle-78-Copy-7" x="41" y="32" width="7" height="2"></rect>
        </g>
    </g>
</svg>