<svg xmlns="http://www.w3.org/2000/svg" width="56" height="56" viewBox="0 0 56 56">
  <path fill-rule="evenodd" d="M4,0 L52,0 C54.209139,-4.05812251e-16 56,1.790861 56,4 L56,40 C56,42.209139 54.209139,44 52,44 L4,44 C1.790861,44 2.705415e-16,42.209139 0,40 L0,4 C-2.705415e-16,1.790861 1.790861,4.05812251e-16 4,0 Z M47,3 C45.8954305,3 45,3.8954305 45,5 L45,9 C45,10.1045695 45.8954305,11 47,11 L51,11 C52.1045695,11 53,10.1045695 53,9 L53,5 C53,3.8954305 52.1045695,3 51,3 L47,3 Z M15.5,20.5 C14.6715729,20.5 14,21.1715729 14,22 C14,22.8284271 14.6715729,23.5 15.5,23.5 L40.5,23.5 C41.3284271,23.5 42,22.8284271 42,22 C42,21.1715729 41.3284271,20.5 40.5,20.5 L15.5,20.5 Z M5,3 C3.8954305,3 3,3.8954305 3,5 L3,9 C3,10.1045695 3.8954305,11 5,11 L9,11 C10.1045695,11 11,10.1045695 11,9 L11,5 C11,3.8954305 10.1045695,3 9,3 L5,3 Z M47,13 C45.8954305,13 45,13.8954305 45,15 L45,19 C45,20.1045695 45.8954305,21 47,21 L51,21 C52.1045695,21 53,20.1045695 53,19 L53,15 C53,13.8954305 52.1045695,13 51,13 L47,13 Z M5,13 C3.8954305,13 3,13.8954305 3,15 L3,19 C3,20.1045695 3.8954305,21 5,21 L9,21 C10.1045695,21 11,20.1045695 11,19 L11,15 C11,13.8954305 10.1045695,13 9,13 L5,13 Z M47,23 C45.8954305,23 45,23.8954305 45,25 L45,29 C45,30.1045695 45.8954305,31 47,31 L51,31 C52.1045695,31 53,30.1045695 53,29 L53,25 C53,23.8954305 52.1045695,23 51,23 L47,23 Z M5,23 C3.8954305,23 3,23.8954305 3,25 L3,29 C3,30.1045695 3.8954305,31 5,31 L9,31 C10.1045695,31 11,30.1045695 11,29 L11,25 C11,23.8954305 10.1045695,23 9,23 L5,23 Z M47,33 C45.8954305,33 45,33.8954305 45,35 L45,39 C45,40.1045695 45.8954305,41 47,41 L51,41 C52.1045695,41 53,40.1045695 53,39 L53,35 C53,33.8954305 52.1045695,33 51,33 L47,33 Z M5,33 C3.8954305,33 3,33.8954305 3,35 L3,39 C3,40.1045695 3.8954305,41 5,41 L9,41 C10.1045695,41 11,40.1045695 11,39 L11,35 C11,33.8954305 10.1045695,33 9,33 L5,33 Z" transform="translate(0 6)"/>
</svg>
