<svg xmlns="http://www.w3.org/2000/svg" width="56" height="56" viewBox="0 0 56 56">
  <g fill-rule="evenodd" transform="translate(6 12)">
    <path d="M2 2L24 2C25.1045695 2 26 2.8954305 26 4 26 5.1045695 25.1045695 6 24 6L2 6C.8954305 6 1.3527075e-16 5.1045695 0 4-1.3527075e-16 2.8954305.8954305 2 2 2zM40 2L42 2C43.1045695 2 44 2.8954305 44 4 44 5.1045695 43.1045695 6 42 6L40 6C38.8954305 6 38 5.1045695 38 4 38 2.8954305 38.8954305 2 40 2zM2 14L4 14C5.1045695 14 6 14.8954305 6 16 6 17.1045695 5.1045695 18 4 18L2 18C.8954305 18 1.3527075e-16 17.1045695 0 16-1.3527075e-16 14.8954305.8954305 14 2 14zM2 26L24 26C25.1045695 26 26 26.8954305 26 28 26 29.1045695 25.1045695 30 24 30L2 30C.8954305 30 1.3527075e-16 29.1045695 0 28-1.3527075e-16 26.8954305.8954305 26 2 26zM40 26L42 26C43.1045695 26 44 26.8954305 44 28 44 29.1045695 43.1045695 30 42 30L40 30C38.8954305 30 38 29.1045695 38 28 38 26.8954305 38.8954305 26 40 26zM20 14L42 14C43.1045695 14 44 14.8954305 44 16 44 17.1045695 43.1045695 18 42 18L20 18C18.8954305 18 18 17.1045695 18 16 18 14.8954305 18.8954305 14 20 14z"/>
    <circle cx="32" cy="4" r="4"/>
    <circle cx="12" cy="16" r="4"/>
    <circle cx="32" cy="28" r="4"/>
  </g>
</svg>
