<?xml version="1.0" encoding="UTF-8"?>
<svg width="56px" height="56px" viewBox="0 0 56 56" version="1.1" xmlns="http://www.w3.org/2000/svg" xmlns:xlink="http://www.w3.org/1999/xlink">
    <!-- Generator: Sketch 52.1 (67048) - http://www.bohemiancoding.com/sketch -->
    <title>filter</title>
    <desc>Created with Sketch.</desc>
    <g id="Page-1" stroke="none" stroke-width="1" fill="none" fill-rule="evenodd">
        <g id="filter" transform="translate(6.000000, 12.000000)" fill="#000000">
            <path d="M2,2 L24,2 C25.1045695,2 26,2.8954305 26,4 C26,5.1045695 25.1045695,6 24,6 L2,6 C0.8954305,6 1.3527075e-16,5.1045695 0,4 C-1.3527075e-16,2.8954305 0.8954305,2 2,2 Z" id="Rectangle"></path>
            <path d="M40,2 L42,2 C43.1045695,2 44,2.8954305 44,4 C44,5.1045695 43.1045695,6 42,6 L40,6 C38.8954305,6 38,5.1045695 38,4 C38,2.8954305 38.8954305,2 40,2 Z" id="Rectangle"></path>
            <path d="M2,14 L4,14 C5.1045695,14 6,14.8954305 6,16 C6,17.1045695 5.1045695,18 4,18 L2,18 C0.8954305,18 1.3527075e-16,17.1045695 0,16 C-1.3527075e-16,14.8954305 0.8954305,14 2,14 Z" id="Rectangle"></path>
            <path d="M2,26 L24,26 C25.1045695,26 26,26.8954305 26,28 C26,29.1045695 25.1045695,30 24,30 L2,30 C0.8954305,30 1.3527075e-16,29.1045695 0,28 C-1.3527075e-16,26.8954305 0.8954305,26 2,26 Z" id="Rectangle"></path>
            <path d="M40,26 L42,26 C43.1045695,26 44,26.8954305 44,28 C44,29.1045695 43.1045695,30 42,30 L40,30 C38.8954305,30 38,29.1045695 38,28 C38,26.8954305 38.8954305,26 40,26 Z" id="Rectangle"></path>
            <path d="M20,14 L42,14 C43.1045695,14 44,14.8954305 44,16 C44,17.1045695 43.1045695,18 42,18 L20,18 C18.8954305,18 18,17.1045695 18,16 C18,14.8954305 18.8954305,14 20,14 Z" id="Rectangle"></path>
            <circle id="Oval" cx="32" cy="4" r="4"></circle>
            <circle id="Oval" cx="12" cy="16" r="4"></circle>
            <circle id="Oval" cx="32" cy="28" r="4"></circle>
        </g>
    </g>
</svg>