<svg xmlns="http://www.w3.org/2000/svg" width="56" height="56" viewBox="0 0 56 56">
  <path d="M19.7972178,10.9787961 C18.8834771,13.3220735 18.2611173,14.4079157 16.9008916,16.369714 C16.7220105,16.6277069 16.6107013,16.7917046 16.503493,16.9568275 C16.130184,17.5318006 15.8455395,18.0756322 15.5264891,18.8739895 C15.4295079,19.1166648 15.3056342,19.6697513 15.0954585,20.8443824 C15.0535958,21.0787951 15.0535958,21.0787951 15.0100247,21.3218497 C14.735622,22.8468191 14.539484,23.7260173 14.2107342,24.6496378 C13.5214095,26.5862911 12.4463104,28.036609 10.3948525,28.6201556 C8.25244804,29.2295725 6.57343786,28.4398598 5.15844592,27.0385334 C5.06897866,26.9499302 4.98817431,26.8684005 4.91183947,26.7889454 C4.73611144,27.8531452 4.63399859,28.9331544 4.63399859,29.7727823 C4.63399859,39.1253818 11.5747431,46 21,46 C29.663212,46 35.5414538,38.8127444 35.5414538,28.6212903 C35.5414538,28.3807155 35.5350938,28.1464647 35.5224341,27.9183534 C32.9333864,29.0163918 30.546604,27.8310259 29.0547783,25.6399171 L28.9459142,25.4800237 L28.8529866,25.3103719 C27.8093326,23.4050425 27.546612,20.9300594 27.8022913,17.6919869 C27.9822086,15.4134157 27.2884415,13.1517469 25.861791,11.3659897 C25.3790502,10.7617368 24.9237167,10.2464407 24.499733,9.82109556 C23.8102014,9.12934974 22.6840559,8.1348642 21.1372066,6.85447986 C20.7562092,8.28949508 20.309765,9.6643749 19.7972178,10.9787961 Z M31.6681946,21.0402382 C31.6884454,21.0141174 31.7168288,20.9828408 31.7552271,20.9473774 C31.8371836,21.9870921 32.0391647,22.8008816 32.3611705,23.388746 C33.4705237,25.0181011 34.6182342,24.4616016 35.8043018,21.7192475 C35.8788633,21.5468509 36.0004703,21.3989386 36.1551963,21.2924497 C36.6101493,20.9793318 37.2327938,21.0943119 37.5459027,21.5492711 C38.8762701,23.4822642 39.5414538,25.8396039 39.5414538,28.6212903 C39.5414538,40.2185951 32.5979797,50 21,50 C9.40202025,50 0.633998587,41.370762 0.633998587,29.7727823 C0.633998587,26.4886018 1.82984535,20.1582247 3.86101458,20.1582247 C5.89218382,20.1582247 7.62821712,25.2484565 9.30044941,24.7727823 C10.9726817,24.2971081 10.9726817,19.4901032 11.8121132,17.3896002 C13.2282502,13.8460116 14.3509469,13.9354443 16.0705256,9.52560473 C17.0366281,7.0480461 17.7479059,4.30366861 18.2043589,1.29247227 C18.2302766,1.12149453 18.3000899,0.960159925 18.4069819,0.824221656 C18.748363,0.390075571 19.3770519,0.314874665 19.8111925,0.656262706 C23.514278,3.56810116 26.021444,5.68174893 27.3326905,6.99720603 C27.8653453,7.53157126 28.41676,8.15560143 28.9869346,8.86929653 C31.047652,11.4487235 32.0497604,14.7155788 31.7898798,18.0068492 C31.7024492,19.114121 31.6898392,20.0805565 31.7520496,20.9061557 C31.718644,20.9628957 31.6879656,21.0110722 31.6603961,21.0504593 L31.6681946,21.0402382 Z M21.7519161,27.015765 C23.4077401,26.6492967 21.6975275,30.7497917 23.5823015,35.1990308 C25.4670755,39.6482699 28.8094476,36.809534 28.2186502,38.2812802 C27.6278529,39.7530264 24.7687548,42.0488034 20.5089416,41.8551345 C16.2491285,41.6614657 12.6762308,39.5853812 11.2417222,37.5094384 C9.80721356,35.4334956 15.1853312,37.8790544 16.1505853,36.5479584 C17.1158393,35.2168624 20.0960921,27.3822332 21.7519161,27.015765 Z" transform="translate(8 3)"/>
</svg>
