<svg xmlns="http://www.w3.org/2000/svg" width="56" height="56" viewBox="0 0 56 56">
  <path fill-rule="evenodd" d="M21,50 C9.40202025,50 0.633998587,41.370762 0.633998587,29.7727823 C0.633998587,26.4886018 1.82984535,20.1582247 3.86101458,20.1582247 C5.89218382,20.1582247 7.62821712,25.2484565 9.30044941,24.7727823 C10.9726817,24.2971081 10.9726817,19.4901032 11.8121132,17.3896002 C13.2282502,13.8460116 14.3509469,13.9354443 16.0705256,9.52560473 C17.0366281,7.0480461 17.7479059,4.30366861 18.2043589,1.29247227 C18.2302766,1.12149453 18.3000899,0.960159925 18.4069819,0.824221656 C18.748363,0.390075571 19.3770519,0.314874665 19.8111925,0.656262706 C23.514278,3.56810116 26.021444,5.68174893 27.3326905,6.99720603 C27.8653453,7.53157126 28.41676,8.15560143 28.9869346,8.86929653 C31.047652,11.4487235 32.0497604,14.7155788 31.7898798,18.0068492 C31.5902541,20.5350257 31.7806844,22.3289914 32.3611705,23.388746 C33.4705237,25.0181011 34.6182342,24.4616016 35.8043018,21.7192475 C35.8788633,21.5468509 36.0004703,21.3989386 36.1551963,21.2924497 C36.6101493,20.9793318 37.2327938,21.0943119 37.5459027,21.5492711 C38.8762701,23.4822642 39.5414538,25.8396039 39.5414538,28.6212903 C39.5414538,40.2185951 32.5979797,50 21,50 Z M21.7519161,27.015765 C20.0960921,27.3822332 17.1158393,35.2168624 16.1505853,36.5479584 C15.1853312,37.8790544 9.80721356,35.4334956 11.2417222,37.5094384 C12.6762308,39.5853812 16.2491285,41.6614657 20.5089416,41.8551345 C24.7687548,42.0488034 27.6278529,39.7530264 28.2186502,38.2812802 C28.8094476,36.809534 25.4670755,39.6482699 23.5823015,35.1990308 C21.6975275,30.7497917 23.4077401,26.6492967 21.7519161,27.015765 Z" transform="translate(8 3)"/>
</svg>
