<?xml version="1.0" encoding="UTF-8"?>
<svg width="56px" height="56px" viewBox="0 0 56 56" version="1.1" xmlns="http://www.w3.org/2000/svg" xmlns:xlink="http://www.w3.org/1999/xlink">
    <!-- Generator: Sketch 52.1 (67048) - http://www.bohemiancoding.com/sketch -->
    <title>fire_fill</title>
    <desc>Created with Sketch.</desc>
    <g id="Page-1" stroke="none" stroke-width="1" fill="none" fill-rule="evenodd">
        <g id="fire_fill" transform="translate(11.000000, 3.000000)" fill="#000000">
            <path d="M17,50 C26.3888407,50 34,42.3888407 34,33 C34,23.5006753 28.1195569,12.906991 16.3586707,1.21894709 L16.3586741,1.21894365 C15.9669366,0.82963249 15.3337716,0.83159937 14.9444605,1.2233368 C14.6779192,1.49153926 14.5854488,1.88714493 14.7054874,2.24570809 C17.1720418,9.61346303 15.9368793,14.5315603 11,17 C5,20 0,24 0,33 C3.98327353e-16,42.3888407 7.61115925,50 17,50 Z M17,41.9282426 C19.7614237,41.9282426 21,39.6896663 21,36.9282426 C21,35.0872934 19.6666667,32.0872934 17,27.9282426 C14.3333333,32.0872934 13,35.0872934 13,36.9282426 C13,39.6896663 14.2385763,41.9282426 17,41.9282426 Z" id="Combined-Shape"></path>
        </g>
    </g>
</svg>