<?xml version="1.0" encoding="UTF-8"?>
<svg width="56px" height="56px" viewBox="0 0 56 56" version="1.1" xmlns="http://www.w3.org/2000/svg" xmlns:xlink="http://www.w3.org/1999/xlink">
    <!-- Generator: Sketch 52.1 (67048) - http://www.bohemiancoding.com/sketch -->
    <title>fire</title>
    <desc>Created with Sketch.</desc>
    <g id="Page-1" stroke="none" stroke-width="1" fill="none" fill-rule="evenodd">
        <g id="fire" transform="translate(11.000000, 3.000000)" fill="#000000" fill-rule="nonzero">
            <path d="M12.7888544,20.5777088 C6.51742254,23.7134247 4,26.8602029 4,33 C4,40.1797017 9.82029825,46 17,46 C24.1797017,46 30,40.1797017 30,33 C30,26.5037519 26.6514874,19.0986262 19.8017442,10.8581897 C19.2623507,15.1475968 16.9533429,18.4954645 12.7888544,20.5777088 Z M17,50 C7.61115925,50 -5.64450915e-14,42.3888407 -5.68434189e-14,33 C-5.68434189e-14,24 5,20 11,17 C15.9368793,14.5315603 17.1720418,9.61346303 14.7054874,2.24570809 C14.5854488,1.88714493 14.6779192,1.49153926 14.9444605,1.2233368 C15.3337716,0.83159937 15.9669366,0.82963249 16.3586707,1.21894709 C28.1195569,12.906991 34,23.5006753 34,33 C34,42.3888407 26.3888407,50 17,50 Z M17,41.9282426 C14.2385763,41.9282426 13,39.6896663 13,36.9282426 C13,35.0872934 14.3333333,32.0872934 17,27.9282426 C19.6666667,32.0872934 21,35.0872934 21,36.9282426 C21,39.6896663 19.7614237,41.9282426 17,41.9282426 Z" id="Shape"></path>
        </g>
    </g>
</svg>