<svg xmlns="http://www.w3.org/2000/svg" width="56" height="56" viewBox="0 0 56 56">
  <path d="M3,22.0041723 L3,37 C3,38.1045695 2.1045695,39 1,39 L1,39 C-0.1045695,39 -1,38.1045695 -1,37 L-1,1.99180311 C-1,0.670943508 -0.132488898,-0.631141241 1.08507994,-1.15781285 C1.42328705,-1.32727542 1.90138832,-1.48938124 2.54861304,-1.62782772 C3.65357554,-1.86418794 5.11678783,-2 7,-2 C8.88051252,-2 10.3498235,-1.70283598 15.5917459,-0.444774604 C16.1227135,-0.317342376 16.5296516,-0.220590176 16.9246465,-0.128253713 C20.210189,0.639795187 22.3368528,1 24,1 C25.993532,1 27.7934318,0.727837127 29.364789,0.277393949 C29.9039455,0.122840038 30.3724656,-0.0407779993 30.7655329,-0.201419996 C30.9833773,-0.290450439 31.1165674,-0.352420993 31.1602334,-0.375092336 L31.3116168,-0.445825672 C33.1307739,-1.20493189 35,0.00039950479 35,1.99180311 L35,20.0081969 C35,21.4788555 33.9191941,22.8400149 32.5536107,23.1548657 C32.1237902,23.2720902 31.3839116,23.4364948 30.3900397,23.5976342 C28.3822421,23.9231645 26.1963145,24.0859524 23.9231338,23.9985223 C21.9562393,23.9228726 19.8281117,23.5219469 15.4734462,22.5268641 C15.3136747,22.4903421 15.3136747,22.4903421 15.1541339,22.4538384 C10.3297449,21.3498641 8.4923254,21 7,21 C5.56997422,21 4.37429769,21.2989191 3.39442719,21.7888544 C3.25288187,21.859627 3.12138807,21.9317758 3,22.0041723 Z M4.20433234,17.3538669 C5.33456558,17.1179556 6.2664548,17 7,17 C8.93507418,17 10.8265475,17.3601565 16.0463984,18.5546252 C16.205534,18.5910361 16.205534,18.5910361 16.3645163,18.6273777 C20.4474359,19.560364 22.4584812,19.9392321 24.0768662,20.0014777 C26.0647365,20.0779342 27.9896408,19.9345849 29.7498672,19.6491941 C29.8761209,19.6287242 30.0199429,19.6036088 30.1813333,19.5738477 L30.1813357,19.5738608 C30.6556872,19.4863884 31,19.0727777 31,18.5904285 L31.000008,5.2753413 C31.000008,4.72305211 30.5522892,4.27533326 30,4.27533326 C29.913664,4.27533326 29.8276916,4.28651382 29.7442274,4.30859602 C29.5144773,4.36938119 29.3396366,4.41315966 29.2197053,4.43993142 C27.6248664,4.79594067 25.8787751,5 24,5 C21.9368021,5 19.5877258,4.60212394 16.014129,3.76673768 C15.6101585,3.672303 15.1962195,3.5738863 14.6582541,3.4447746 C9.85553363,2.29212169 8.41115415,2 7,2 C6.35258606,2 5.61300234,2.04576441 4.78124883,2.13729323 L4.78124723,2.13727867 C3.76745497,2.24883962 3,3.10538056 3,4.12529261 L2.99996138,16.3749258 C2.99996138,16.9272319 3.44769392,17.3749645 4,17.3749645 C4.0686544,17.3749645 4.13712632,17.3678946 4.20433234,17.3538669 Z" transform="translate(12 9)"/>
</svg>
