<svg xmlns="http://www.w3.org/2000/svg" width="56" height="56" viewBox="0 0 56 56">
  <path d="M4,24.0041723 L4,39 C4,40.1045695 3.1045695,41 2,41 L2,41 C0.8954305,41 1.3527075e-16,40.1045695 0,39 L0,3.99180311 C0,2.67094351 0.867511102,1.36885876 2.08507994,0.842187154 C2.42328705,0.672724582 2.90138832,0.510618762 3.54861304,0.372172279 C4.65357554,0.135812063 6.11678783,0 8,0 C9.88051252,0 11.3498235,0.297164022 16.5917459,1.5552254 C17.1227135,1.68265762 17.5296516,1.77940982 17.9246465,1.87174629 C21.210189,2.63979519 23.3368528,3 25,3 C26.993532,3 28.7934318,2.72783713 30.364789,2.27739395 C30.9039455,2.12284004 31.3724656,1.959222 31.7655329,1.79858 C31.9833773,1.70954956 32.1165674,1.64757901 32.1602334,1.62490766 L32.3116168,1.55417433 C34.1307739,0.79506811 36,2.0003995 36,3.99180311 L36,22.0081969 C36,23.4788555 34.9191941,24.8400149 33.5536107,25.1548657 C33.1237902,25.2720902 32.3839116,25.4364948 31.3900397,25.5976342 C29.3822421,25.9231645 27.1963145,26.0859524 24.9231338,25.9985223 C22.9562393,25.9228726 20.8281117,25.5219469 16.4734462,24.5268641 C16.3136747,24.4903421 16.3136747,24.4903421 16.1541339,24.4538384 C11.3297449,23.3498641 9.4923254,23 8,23 C6.56997422,23 5.37429769,23.2989191 4.39442719,23.7888544 C4.25288187,23.859627 4.12138807,23.9317758 4,24.0041723 Z" transform="translate(11 7)"/>
</svg>
