<?xml version="1.0" encoding="UTF-8"?>
<svg width="34px" height="50px" viewBox="0 0 34 50" version="1.1" xmlns="http://www.w3.org/2000/svg" xmlns:xlink="http://www.w3.org/1999/xlink">
    <!-- Generator: Sketch 40.1 (33804) - http://www.bohemiancoding.com/sketch -->
    <title>flag</title>
    <desc>Created with Sketch.</desc>
    <defs></defs>
    <g id="Page-1" stroke="none" stroke-width="1" fill="none" fill-rule="evenodd">
        <g id="flag" transform="translate(0.000000, 5.000000)" fill="#000000">
            <path d="M1.2624723e-15,20.8784466 L1.52146261,20.5035178 C4.15628804,19.8542269 6.61652518,19.5067889 8.64950456,19.6762039 C9.51429849,19.74827 10.3725787,19.9144666 11.4687274,20.1978772 C11.92176,20.3150093 13.8253793,20.8450995 14.3415191,20.9801805 C17.4265011,21.7875638 20.210383,22.1913821 23.9256636,22.1913821 C27.5192066,22.1913821 30.0748378,21.9788254 31.7495262,21.6362638 C32.276029,21.5285664 32.6467306,21.4214832 32.8811047,21.3281269 C32.9322421,21.3077577 32.8949448,21.3281271 32.7931196,21.4051835 L34,23 L32,23 L32,1.67542627 C32.2466709,1.60121334 32.474656,1.52967546 32.6815663,1.46270974 L34,2.3577836 L34,3.12966236 C33.9298787,3.15407392 33.8560446,3.17949924 33.7785976,3.20585656 C33.0479297,3.45452277 32.2367059,3.70228829 31.3635425,3.93341375 C28.8486105,4.59911371 26.3244459,5 23.9256636,5 C21.5408057,5 19.0964369,4.73781849 15.7660312,4.19826781 C15.0961454,4.0897413 14.506583,3.99019936 13.3987227,3.80027241 C10.6811806,3.33438834 9.61726049,3.16256295 8.22792091,2.98361374 C5.58623598,2.64336041 3.22590089,2.64336041 1.28427507,2.84485611 C0.819207551,2.89311933 0.509279349,2.93912953 0.371758498,2.96514519 L2,1 L2,12.5 L2,40 L1.2624723e-15,38 L2,38 L1.2624723e-15,40 L1.2624723e-15,31.2227123 L-3.01980663e-13,21.6619356 L1.2624723e-15,20.8784466 Z M2,22.4454246 L2,40 L0,40 L-4.54747351e-13,12.5 L-4.54747351e-13,1 C-4.54747351e-13,1 3.43633351,0.349927838 8.4834136,1 C13.5304937,1.65007216 18.8884954,3 23.9256636,3 C28.9628318,3 34,1 34,1 L34,23 C34,23 32.4256636,24.1913821 23.9256636,24.1913821 C15.4256636,24.1913821 11.9495475,21.9581399 8.4834136,21.6692954 C6.40844068,21.496381 3.77758034,22.0073816 2,22.4454246 Z" id="Combined-Shape"></path>
        </g>
    </g>
</svg>