<?xml version="1.0" encoding="UTF-8"?>
<svg width="34px" height="50px" viewBox="0 0 34 50" version="1.1" xmlns="http://www.w3.org/2000/svg" xmlns:xlink="http://www.w3.org/1999/xlink">
    <!-- Generator: Sketch 40.1 (33804) - http://www.bohemiancoding.com/sketch -->
    <title>flag_fill</title>
    <desc>Created with Sketch.</desc>
    <defs></defs>
    <g id="Page-1" stroke="none" stroke-width="1" fill="none" fill-rule="evenodd">
        <g id="flag_fill" transform="translate(0.000000, 5.000000)" fill="#000000">
            <path d="M0,24.4142136 L0,22 L0,2 L0,1.38196601 L0.552786404,1.10557281 C0.866765552,0.948583235 1.43517379,0.735430146 2.25746437,0.5298575 C3.58618648,0.197676975 5.16760227,0 7,0 C8.76317292,0 10.226251,0.29590344 15.358373,1.5276127 C15.89109,1.65546479 16.2997783,1.75263312 16.6970171,1.84549413 C20.0545732,2.63037738 22.2368401,3 24,3 C26.0790575,3 28.1388797,2.64177005 30.0809142,2.04422099 C30.7608089,1.83502262 31.3760719,1.6112906 31.9145232,1.38848317 C32.2316384,1.25726307 32.4484012,1.15776541 32.5527864,1.10557281 L34,0.381966011 L34,2 L34,22 L34,22.7704358 L33.2550427,22.9669298 C33.1225146,23.0018861 32.8827695,23.0605609 32.5493846,23.1349938 C31.9993202,23.2578034 31.3830838,23.3803351 30.7141423,23.494596 C28.4484073,23.8816029 26.1449387,24.083237 23.9615669,23.9992612 C22.0817997,23.9269624 19.9829427,23.5315512 15.6962138,22.5519925 C15.5366395,22.5155156 15.5366395,22.5155156 15.3772,22.4790351 C10.4539456,21.3524372 8.60301259,21 7,21 C5.40998711,21 4.06214885,21.3369596 2.9472136,21.8944272 C2.56495535,22.0855563 2.24077274,22.2881704 1.975,22.4875 C1.82659413,22.5988044 1.73711437,22.6770992 1.70710678,22.7071068 L0,24.4142136 Z" id="Path"></path>
            <polygon id="Path-20" points="0 40 2 40 2 22 0 22"></polygon>
        </g>
    </g>
</svg>