<?xml version="1.0" encoding="UTF-8"?>
<svg width="56px" height="56px" viewBox="0 0 56 56" version="1.1" xmlns="http://www.w3.org/2000/svg" xmlns:xlink="http://www.w3.org/1999/xlink">
    <!-- Generator: Sketch 52.1 (67048) - http://www.bohemiancoding.com/sketch -->
    <title>folder_fill</title>
    <desc>Created with Sketch.</desc>
    <g id="Page-1" stroke="none" stroke-width="1" fill="none" fill-rule="evenodd">
        <g id="folder_fill" transform="translate(3.000000, 7.000000)" fill="#000000">
            <path d="M2,15 L48,15 C49.1045695,15 50,15.8954305 50,17 L50,39 C50,41.209139 48.209139,43 46,43 L4,43 C1.790861,43 2.705415e-16,41.209139 0,39 L0,17 C-1.3527075e-16,15.8954305 0.8954305,15 2,15 Z" id="Rectangle"></path>
            <path d="M3.80277564,-5.09991637e-15 L14.9296325,-2.22044605e-15 C15.5983389,-2.93721599e-15 16.2228015,0.334202271 16.5937331,0.890599608 L19.4062669,5.10940039 C19.7771985,5.66579773 20.4016611,6 21.0703675,6 L46,6 C48.209139,6 50,7.790861 50,10 L50,12 L0,12 L0,4.80277564 C-1.43957309e-16,3.627275 0.347949568,2.47807565 1,1.5 C1.62474465,0.562883031 2.67650121,-5.12217726e-15 3.80277564,-5.09991637e-15 Z" id="Rectangle"></path>
        </g>
    </g>
</svg>