<svg xmlns="http://www.w3.org/2000/svg" width="56" height="56" viewBox="0 0 56 56">
  <path fill-rule="evenodd" d="M2 15L48 15C49.1045695 15 50 15.8954305 50 17L50 39C50 41.209139 48.209139 43 46 43L4 43C1.790861 43 2.705415e-16 41.209139 0 39L0 17C-1.3527075e-16 15.8954305.8954305 15 2 15zM3.80277564-5.09991637e-15L14.9296325-2.22044605e-15C15.5983389-2.93721599e-15 16.2228015.334202271 16.5937331.890599608L19.4062669 5.10940039C19.7771985 5.66579773 20.4016611 6 21.0703675 6L46 6C48.209139 6 50 7.790861 50 10L50 12 0 12 0 4.80277564C-1.43957309e-16 3.627275.347949568 2.47807565 1 1.5 1.62474465.562883031 2.67650121-5.12217726e-15 3.80277564-5.09991637e-15z" transform="translate(3 7)"/>
</svg>
