<?xml version="1.0" encoding="UTF-8"?>
<svg width="42px" height="50px" viewBox="0 0 42 50" version="1.1" xmlns="http://www.w3.org/2000/svg" xmlns:xlink="http://www.w3.org/1999/xlink">
    <!-- Generator: Sketch 40.1 (33804) - http://www.bohemiancoding.com/sketch -->
    <title>folder_fill</title>
    <desc>Created with Sketch.</desc>
    <defs></defs>
    <g id="Page-1" stroke="none" stroke-width="1" fill="none" fill-rule="evenodd">
        <g id="folder_fill" transform="translate(0.000000, 7.000000)" fill="#000000">
            <path d="M9.91207116e-13,3.99310226 C9.91207116e-13,1.78777278 1.79391611,0.00827378574 4.00078374,0.0184521602 L13.1786443,0.0607817047 C14.8390003,0.0684394932 16.0607604,1.40988825 15.9079952,3.0519035 L15.9962677,2.10309582 C15.8944566,3.19742503 16.7133753,4.08164359 17.8125636,4.07809461 L37.9940876,4.01293399 C40.2064919,4.00579075 42,5.7877996 42,8.009763 L42,14 C42,14 42,12 41,11 C40,10 38,10 38,10 L4,10 C4,10 2,10 1,11 C-2.49800181e-16,12 9.91207116e-13,14 9.91207116e-13,14 L9.91207116e-13,3.99310226 Z" id="Rectangle-17"></path>
            <path d="M0,15.990053 C0,13.7864076 1.79125179,12 4.00811116,12 L37.9918888,12 C40.2055075,12 42,13.7842933 42,15.990053 L42,32.009947 C42,34.2135924 40.2087482,36 37.9918888,36 L4.00811116,36 C1.79449249,36 0,34.2157067 0,32.009947 L0,15.990053 L0,15.990053 Z" id="Combined-Shape"></path>
        </g>
    </g>
</svg>