<svg xmlns="http://www.w3.org/2000/svg" width="56" height="56" viewBox="0 0 56 56">
  <path d="M4,12 L46,12 C46,10.8954305 45.1045695,10 44,10 L21.0703675,10 C19.0642484,10 17.1908604,8.99739319 16.0780658,7.32820118 L13.859265,4 L6,4 C4.8954305,4 4,4.8954305 4,6 L4,12 Z M4,15 L4,37 C4,38.1045695 4.8954305,39 6,39 L44,39 C45.1045695,39 46,38.1045695 46,37 L46,15 L4,15 Z M0,39 L0,4.80277564 C-1.43957309e-16,3.627275 0.347949568,2.47807565 1,1.5 C1.62474465,0.562883031 2.67650121,-3.34582042e-15 3.80277564,-3.55271368e-15 L14.9296325,-4.4408921e-16 C15.5983389,-1.16085915e-15 16.2228015,0.334202271 16.5937331,0.890599608 L19.4062669,5.10940039 C19.7771985,5.66579773 20.4016611,6 21.0703675,6 L46,6 C48.209139,6 50,7.790861 50,10 L50,39 C50,41.209139 48.209139,43 46,43 L4,43 C1.790861,43 2.705415e-16,41.209139 0,39 Z" transform="translate(3 7)"/>
</svg>
