<?xml version="1.0" encoding="UTF-8"?>
<svg width="42px" height="50px" viewBox="0 0 42 50" version="1.1" xmlns="http://www.w3.org/2000/svg" xmlns:xlink="http://www.w3.org/1999/xlink">
    <!-- Generator: Sketch 40.1 (33804) - http://www.bohemiancoding.com/sketch -->
    <title>folder</title>
    <desc>Created with Sketch.</desc>
    <defs></defs>
    <g id="Page-1" stroke="none" stroke-width="1" fill="none" fill-rule="evenodd">
        <g id="folder" transform="translate(0.000000, 7.000000)" fill="#000000">
            <path d="M15.9079952,3.0519035 L13.916595,2.8666332 C13.9604436,2.3953214 13.6573913,2.06301102 13.1694201,2.06076043 L3.99155956,2.01843089 C2.89051121,2.0133527 2,2.89698174 2,3.99017859 L2,32.0098214 C2,33.1076567 2.89654272,34 4.00811116,34 L37.9918888,34 C39.10324,34 40,33.1036015 40,31.9957423 L40,8.0042577 C40,6.89788984 39.107634,6.00934908 38.0005451,6.01292357 L17.819021,6.07808419 C15.5412603,6.08543845 13.7935526,4.18916924 14.0048675,1.91782552 L15.836559,2.08823728 C15.9128282,2.39086427 15.9393336,2.71505957 15.9079952,3.0519035 L15.9962677,2.10309582 C15.9633492,2.45692422 16.0266854,2.7887873 16.1646277,3.07577935 L15.9079952,3.0519035 Z M14.0048675,1.91782552 L13.916595,2.8666332 L16.1646277,3.07577935 C16.4533168,3.6764034 17.0687748,4.0804961 17.8125636,4.07809461 L37.9940876,4.01293399 C40.2064919,4.00579075 42,5.78902751 42,8.0042577 L42,31.9957423 C42,34.2072328 40.2087482,36 37.9918888,36 L4.00811116,36 C1.79449249,36 0,34.2147544 0,32.0098214 L0,3.99017859 C0,1.7864638 1.79391611,0.00827378574 4.00078374,0.0184521602 L13.1786443,0.0607817047 C14.4983939,0.0668685701 15.541038,0.915646602 15.836559,2.08823728 L14.0048675,1.91782552 Z" id="Rectangle-17"></path>
            <path d="M2.68602476,12.4905676 C3.04891125,12.1757711 3.51180888,12 4.0065012,12 L37.9934988,12 C39.1017647,12 40,12.8941705 40,13.9910904 L42,13.9910904 C42,11.7875653 40.2043087,10 37.9934988,10 L4.0065012,10 C3.02625282,10 2.09909842,10.3520582 1.37546275,10.9797972 C0.50828093,11.7320594 0,12.8213415 0,13.9910904 L2,13.9910904 C2,13.4073436 2.25216829,12.8669291 2.68602476,12.4905676 Z" id="Rectangle-98"></path>
        </g>
    </g>
</svg>