<svg xmlns="http://www.w3.org/2000/svg" width="56" height="56" viewBox="0 0 56 56">
  <path d="M26.2371687,22.1165689 C26.2371687,22.1165689 25.5144984,22.1165689 24.2371687,22.220079 C21.1752164,22.476046 15.1998092,23.3649856 10.6258427,26.4521557 C4.20221577,30.7877425 1.28173552,41.7139185 0.938064211,34.8731035 C0.664909281,29.4359247 2.57586003,20.6737553 6.88217467,16.4062352 C12.2720351,11.0649306 20.4824839,10.1837715 24.2521987,10.0756969 C25.4881671,10.0408292 26.2371687,10.0897767 26.2371687,10.0897767 L26.2371687,8.21621101 C26.2371687,8.21621101 26.2909122,8.08940454 26.2371687,8.08680761 L26.2371687,2.99882944 C26.2371687,0.795260776 27.6974923,0.0343958701 29.4988927,1.31038784 L46.9754447,13.6896122 C48.7719892,14.9621645 48.7768452,17.0343959 46.9754447,18.3103878 L29.4988927,30.6896122 C27.7023483,31.9621645 26.2371687,31.213263 26.2371687,29.0092113 L26.2371687,22.1165689 Z" transform="translate(4 9)"/>
</svg>
