<?xml version="1.0" encoding="UTF-8"?>
<svg width="50px" height="50px" viewBox="0 0 50 50" version="1.1" xmlns="http://www.w3.org/2000/svg" xmlns:xlink="http://www.w3.org/1999/xlink">
    <!-- Generator: Sketch 40.1 (33804) - http://www.bohemiancoding.com/sketch -->
    <title>forward</title>
    <desc>Created with Sketch.</desc>
    <defs></defs>
    <g id="Page-1" stroke="none" stroke-width="1" fill="none" fill-rule="evenodd">
        <g id="forward" transform="translate(25.000000, 24.500000) scale(-1, 1) translate(-25.000000, -24.500000) translate(0.000000, 5.000000)" fill="#000000">
            <path d="M3.46862133,17.0060332 L22,30.1500244 L22,23.1165689 L22,21.1165689 L24,21.1165689 C24.7542311,21.1165689 26.0205508,21.1821926 27.6334946,21.3772281 C30.3189399,21.7019493 33.0083324,22.2873066 35.5409232,23.2060213 C37.443554,23.8962136 39.1858045,24.7520299 40.7302076,25.7944151 C42.5053068,26.9925072 44.0979974,28.6374837 45.6736855,30.7353963 C46.5944933,31.9613839 47.5415262,33.9107513 47.2669375,33.0332618 C47,27 44.8498508,21.7033408 41.9471939,18.8268332 C40.2246274,17.1197848 38.0575613,15.8108404 35.5355742,14.8626764 C33.331384,14.033991 30.9537422,13.5153502 28.5342289,13.2535885 C26.8925428,13.0759782 25.4583703,13.0369615 24.3621118,13.0752512 C24.2398185,13.0795226 24.1614726,13.0834905 24.1304223,13.0855196 L22,13.2247432 L22,11.0897767 L22,3.89697266 L3.46862133,17.0060332 Z M24,23.1165689 L24,34 L0,17 L24,0 L24,9.08680761 C23.9462565,9.08940454 24,9.21621101 24,9.21621101 L24,11.0897767 C24,11.0897767 24.7490017,11.0408292 25.9849701,11.0756969 C29.7546848,11.1837715 37.9651337,12.0649306 43.3549941,17.4062352 C47.6613087,21.6737553 49.5722595,30.4359247 49.2991045,35.8731035 C48.9554332,42.7139185 46.034953,31.7877425 39.611326,27.4521557 C35.0373595,24.3649856 29.0619523,23.476046 26,23.220079 C24.7226703,23.1165689 24,23.1165689 24,23.1165689 Z" id="Triangle-4"></path>
        </g>
    </g>
</svg>