<svg xmlns="http://www.w3.org/2000/svg" width="56" height="56" viewBox="0 0 56 56">
  <path d="M26.2371687,22.1165689 C26.2371687,22.1165689 25.5144984,22.1165689 24.2371687,22.220079 C21.1752164,22.476046 15.1998092,23.3649856 10.6258427,26.4521557 C4.20221577,30.7877425 1.28173552,41.7139185 0.938064211,34.8731035 C0.664909281,29.4359247 2.57586003,20.6737553 6.88217467,16.4062352 C12.2720351,11.0649306 20.4824839,10.1837715 24.2521987,10.0756969 C25.4881671,10.0408292 26.2371687,10.0897767 26.2371687,10.0897767 L26.2371687,8.21621101 C26.2371687,8.21621101 26.2909122,8.08940454 26.2371687,8.08680761 L26.2371687,2.99882944 C26.2371687,0.795260776 27.6974923,0.0343958701 29.4988927,1.31038784 L46.9754447,13.6896122 C48.7719892,14.9621645 48.7768452,17.0343959 46.9754447,18.3103878 L29.4988927,30.6896122 C27.7023483,31.9621645 26.2371687,31.213263 26.2371687,29.0092113 L26.2371687,22.1165689 Z M8.38807945,23.1366745 C12.8324642,20.1369649 18.3281638,18.700096 23.903947,18.2339828 C24.9829705,18.1465297 25.7710417,18.1165689 26.2371687,18.1165689 L30.2371687,18.1165689 L30.2371687,23.3310662 C30.2371687,23.5381397 30.3014522,23.7401065 30.4211443,23.9090835 C30.7403744,24.3597614 31.3645082,24.4663208 31.8151861,24.1470907 L42.1649266,16.8160245 C42.2571402,16.7507065 42.3376157,16.670231 42.4029337,16.5780173 C42.7221639,16.1273395 42.6156044,15.5032057 42.1649266,15.1839755 L31.8151861,7.85290934 C31.6462091,7.73321728 31.4442422,7.66893382 31.2371687,7.66893382 C30.684884,7.66893382 30.2371687,8.11664907 30.2371687,8.66893382 L30.2371687,14.3597098 L25.9763242,14.0812626 C25.9651286,14.080531 25.9069642,14.0775852 25.8052442,14.0740324 C25.4210703,14.0606141 24.9352012,14.0580202 24.364997,14.0741061 C18.6866614,14.2368998 13.1901936,15.7864749 9.69777504,19.2474311 C8.50087589,20.4335477 7.44909479,22.3149581 6.63848367,24.4864758 C7.20258858,23.9943371 7.78383692,23.5445042 8.38807945,23.1366745 Z" transform="translate(4 9)"/>
</svg>
