<svg xmlns="http://www.w3.org/2000/svg" width="56" height="56" viewBox="0 0 56 56">
  <path fill-rule="evenodd" d="M25,3.19774169 C35.8169027,3.11907273 41.0623671,-2.86155714 44.8036054,1.73567487 C48.5695499,6.3632659 52.0019674,25.086104 48.6166782,32.4829125 C46.3598187,37.4141182 41.9112338,35.09981 35.2709234,25.5399879 L14.7290766,25.5399879 C8.08876624,35.09981 3.6401813,37.4141182 1.38332183,32.4829125 C-2.00196739,25.086104 1.43045013,6.3632659 5.19639462,1.73567487 C8.93763287,-2.86155714 14.1830973,3.11907273 25,3.19774169 Z M14,11 L14,8.5 C14,7.67157288 13.3284271,7 12.5,7 C11.6715729,7 11,7.67157288 11,8.5 L11,11 L8.5,11 C7.67157288,11 7,11.6715729 7,12.5 C7,13.3284271 7.67157288,14 8.5,14 L11,14 L11,16.5 C11,17.3284271 11.6715729,18 12.5,18 C13.3284271,18 14,17.3284271 14,16.5 L14,14 L16.5,14 C17.3284271,14 18,13.3284271 18,12.5 C18,11.6715729 17.3284271,11 16.5,11 L14,11 Z M37,11 C38.1045695,11 39,10.1045695 39,9 C39,7.8954305 38.1045695,7 37,7 C35.8954305,7 35,7.8954305 35,9 C35,10.1045695 35.8954305,11 37,11 Z M41,15 C42.1045695,15 43,14.1045695 43,13 C43,11.8954305 42.1045695,11 41,11 C39.8954305,11 39,11.8954305 39,13 C39,14.1045695 39.8954305,15 41,15 Z M33,15 C34.1045695,15 35,14.1045695 35,13 C35,11.8954305 34.1045695,11 33,11 C31.8954305,11 31,11.8954305 31,13 C31,14.1045695 31.8954305,15 33,15 Z M37,19 C38.1045695,19 39,18.1045695 39,17 C39,15.8954305 38.1045695,15 37,15 C35.8954305,15 35,15.8954305 35,17 C35,18.1045695 35.8954305,19 37,19 Z" transform="translate(3 11)"/>
</svg>
