<?xml version="1.0" encoding="UTF-8"?>
<svg width="50px" height="50px" viewBox="0 0 50 50" version="1.1" xmlns="http://www.w3.org/2000/svg" xmlns:xlink="http://www.w3.org/1999/xlink">
    <!-- Generator: Sketch 40.1 (33804) - http://www.bohemiancoding.com/sketch -->
    <title>gear_fill</title>
    <desc>Created with Sketch.</desc>
    <defs></defs>
    <g id="Page-1" stroke="none" stroke-width="1" fill="none" fill-rule="evenodd">
        <g id="gear_fill" transform="translate(-8.000000, -8.000000)" fill="#000000">
            <path d="M28.0990195,57.524188 L29.3205752,56.1711311 C31.5381256,53.7148601 35.1323179,53.7153533 37.3494229,56.1711311 L38.4638645,57.4055429 C41.4548055,56.7388723 44.2437688,55.5364405 46.7248092,53.9041927 L46.6439565,52.3212092 C46.4751556,49.0163184 49.016982,46.4751895 52.3212092,46.6439565 L53.9041927,46.7248092 C55.5364405,44.2437688 56.7388723,41.4548055 57.4055429,38.4638645 L56.1711311,37.3494229 C53.7148601,35.1318726 53.7153533,31.5376803 56.1711311,29.3205752 L57.524188,28.0990195 C56.9391321,25.1550214 55.8372031,22.3971954 54.3169612,19.9241017 L52.3212092,20.0260416 C49.0163184,20.1948426 46.4751895,17.6530161 46.6439565,14.348789 L46.7579157,12.1176253 C44.4070711,10.5656931 41.7787364,9.40008064 38.9633374,8.71121375 L37.3494229,10.4988671 C35.1318726,12.9551381 31.5376803,12.9546449 29.3205752,10.4988671 L27.5903909,8.58242741 C24.8240807,9.19253769 22.2297207,10.2607565 19.8909288,11.7034662 L20.0260416,14.348789 C20.1948426,17.6536797 17.6530161,20.1948087 14.348789,20.0260416 L11.7034662,19.8909288 C10.2607565,22.2297207 9.19253769,24.8240807 8.58242741,27.5903909 L10.4988671,29.3205752 C12.9551381,31.5381256 12.9546449,35.1323179 10.4988671,37.3494229 L8.71121375,38.9633374 C9.40008064,41.7787364 10.5656931,44.4070711 12.1176253,46.7579157 L14.348789,46.6439565 C17.6536797,46.4751556 20.1948087,49.016982 20.0260416,52.3212092 L19.9241062,54.316964 C22.3971954,55.8372031 25.1550214,56.9391321 28.0990195,57.524188 Z M33,43 C38.5228475,43 43,38.5228475 43,33 C43,27.4771525 38.5228475,23 33,23 C27.4771525,23 23,27.4771525 23,33 C23,38.5228475 27.4771525,43 33,43 Z" id="Combined-Shape"></path>
        </g>
    </g>
</svg>