<?xml version="1.0" encoding="UTF-8"?>
<svg width="50px" height="50px" viewBox="0 0 50 50" version="1.1" xmlns="http://www.w3.org/2000/svg" xmlns:xlink="http://www.w3.org/1999/xlink">
    <!-- Generator: Sketch 40.1 (33804) - http://www.bohemiancoding.com/sketch -->
    <title>gear</title>
    <desc>Created with Sketch.</desc>
    <defs></defs>
    <g id="Page-1" stroke="none" stroke-width="1" fill="none" fill-rule="evenodd">
        <g id="gear" transform="translate(-8.000000, -8.000000)">
            <path d="M41,33 C41,28.581722 37.418278,25 33,25 C28.581722,25 25,28.581722 25,33 C25,37.418278 28.581722,41 33,41 C37.418278,41 41,37.418278 41,33 Z M23,33 C23,27.4771525 27.4771525,23 33,23 C38.5228475,23 43,27.4771525 43,33 C43,38.5228475 38.5228475,43 33,43 C27.4771525,43 23,38.5228475 23,33 Z" id="Oval-60" fill="#000000"></path>
            <path d="M27.7917819,56.4333262 L29.3171289,54.7437747 C31.5302717,52.2923858 35.1338609,52.2858887 37.3528693,54.7437747 L38.7614443,56.3039836 C41.2638048,55.6873969 43.6116668,54.6782881 45.735985,53.3457025 L45.6322262,51.3143528 C45.4637608,48.0160307 48.007289,45.4633143 51.3143528,45.6322262 L53.3457057,45.7359799 C54.6782881,43.6116668 55.6873969,41.2638048 56.3039836,38.7614443 L54.7437747,37.3528693 C52.2923858,35.1397265 52.2858887,31.5361373 54.7437747,29.3171289 L56.4333262,27.7917819 C55.8900976,25.3366849 54.970889,23.0228998 53.7391942,20.9139205 L51.3143528,21.0377719 C48.0160307,21.2062374 45.4633143,18.6627092 45.6322262,15.3556454 L45.7691365,12.6751312 C43.7753833,11.4199137 41.5839645,10.4499386 39.2521549,9.82247863 L37.3528693,11.9262234 C35.1397265,14.3776124 31.5361373,14.3841095 29.3171289,11.9262234 L27.2918704,9.68294465 C25.0094974,10.2397526 22.8550207,11.1229376 20.8806926,12.2802475 L21.0377719,15.3556454 C21.2062374,18.6539674 18.6627092,21.2066839 15.3556454,21.0377719 L12.2802475,20.8806926 C11.1229376,22.8550207 10.2397526,25.0094974 9.68294465,27.2918704 L11.9262234,29.3171289 C14.3776124,31.5302717 14.3841095,35.1338609 11.9262234,37.3528693 L9.82247863,39.2521549 C10.4499386,41.5839645 11.4199137,43.7753833 12.6751345,45.7691418 L15.3556454,45.6322262 C18.6539674,45.4637608 21.2066839,48.007289 21.0377719,51.3143528 L20.9139205,53.7391942 C23.0228998,54.970889 25.3366849,55.8900976 27.7917819,56.4333262 Z" id="Combined-Shape" stroke="#000000" stroke-width="2"></path>
        </g>
    </g>
</svg>