<svg xmlns="http://www.w3.org/2000/svg" width="56" height="56" viewBox="0 0 56 56">
  <g transform="translate(4 4)">
    <path d="M31.0137676,42.7367909 C31.5607358,42.5319378 32.0980431,42.3031442 32.6243266,42.0511583 C32.5982872,36.7602565 36.7561824,32.5981204 42.0511611,32.6243204 C42.3031469,32.0980367 42.5319404,31.5607294 42.7367932,31.0137612 C38.9009634,27.2294367 38.9574381,21.2015574 42.9156959,17.4840282 C42.7473117,16.995085 42.5599861,16.513307 42.3542092,16.0396259 C36.7641679,16.2348848 32.3505173,11.7690331 32.637434,6.15159875 L32.6472292,5.95983055 C32.2610798,5.77433492 31.868954,5.60132205 31.4713939,5.4410947 L31.3218913,5.6066914 C27.5190326,9.81893008 21.1541731,9.82248294 17.3481069,5.6066914 L17.0249534,5.24875024 C16.6819178,5.37641111 16.3426375,5.51349016 16.0074455,5.65980923 L16.0325646,6.15160688 C16.3220399,11.8191366 11.8239169,16.3222841 6.15160688,16.0325646 L5.65980923,16.0074455 C5.51349016,16.3426375 5.37641111,16.6819178 5.24875024,17.0249534 L5.6066914,17.3481069 C9.81893008,21.1509656 9.82248294,27.515825 5.6066914,31.3218913 L5.44109465,31.471394 C5.60132195,31.868954 5.77433472,32.2610796 5.95983019,32.6472288 L6.15160688,32.6374336 C11.7643447,32.3507568 16.2351053,36.7595559 16.0396267,42.3542096 C16.513308,42.5599865 16.9950862,42.7473121 17.4840296,42.9156964 C21.1986397,38.9606469 27.2265765,38.897852 31.0137676,42.7367909 Z M18.7917819,47.4333262 C16.3366849,46.8900976 14.0228998,45.970889 11.9139205,44.7391942 L12.0377719,42.3143528 C12.2066839,39.007289 9.65396742,36.4637608 6.35564535,36.6322262 L3.67513117,36.7691365 C2.41991367,34.7753833 1.4499386,32.5839645 0.822478633,30.2521549 L2.92622342,28.3528693 C5.38410946,26.1338609 5.3776124,22.5302717 2.92622342,20.3171289 L0.682944646,18.2918704 C1.23975257,16.0094974 2.12293759,13.8550207 3.28024752,11.8806926 L6.35564535,12.0377719 C9.66270916,12.2066839 12.2062374,9.65396742 12.0377719,6.35564535 L11.8806926,3.28024752 C13.8550207,2.12293759 16.0094974,1.23975257 18.2918704,0.682944646 L20.3171289,2.92622342 C22.5361373,5.38410946 26.1397265,5.3776124 28.3528693,2.92622342 L30.2521549,0.822478633 C32.5839645,1.4499386 34.7753833,2.41991367 36.7691418,3.67513451 L36.6322262,6.35564535 C36.4633143,9.66270916 39.0160307,12.2062374 42.3143528,12.0377719 L44.7391942,11.9139205 C45.970889,14.0228998 46.8900976,16.3366849 47.4333262,18.7917819 L45.7437747,20.3171289 C43.2858887,22.5361373 43.2923858,26.1397265 45.7437747,28.3528693 L47.3039836,29.7614443 C46.6873969,32.2638048 45.6782881,34.6116668 44.3457025,36.735985 L42.3143528,36.6322262 C39.007289,36.4633143 36.4637608,39.0160307 36.6322262,42.3143528 L36.7359799,44.3457057 C34.6116668,45.6782881 32.2638048,46.6873969 29.7614443,47.3039836 L28.3528693,45.7437747 C26.1338609,43.2858887 22.5302717,43.2923858 20.3171289,45.7437747 L18.7917819,47.4333262 Z"/>
    <path d="M24,30 C27.3137085,30 30,27.3137085 30,24 C30,20.6862915 27.3137085,18 24,18 C20.6862915,18 18,20.6862915 18,24 C18,27.3137085 20.6862915,30 24,30 Z M24,34 C18.4771525,34 14,29.5228475 14,24 C14,18.4771525 18.4771525,14 24,14 C29.5228475,14 34,18.4771525 34,24 C34,29.5228475 29.5228475,34 24,34 Z"/>
  </g>
</svg>
