<svg xmlns="http://www.w3.org/2000/svg" width="56" height="56" viewBox="0 0 56 56">
  <path fill-rule="evenodd" d="M50,27 L50,38 C50,44.627417 44.627417,50 38,50 L27,50 L27,40.1715729 L25.8320503,38.4196483 C25.7588154,38.309796 25.6645525,38.2155331 25.5547002,38.1422982 C25.0951715,37.8359458 24.4743022,37.9601196 24.1679497,38.4196483 L23,40.1715729 L23,50 L12,50 C5.372583,50 -8.66050513e-13,44.627417 -8.66862138e-13,38 L-8.66862138e-13,27 L9,27 C9.21637021,27 9.42690383,26.9298221 9.6,26.8 C10.0418278,26.4686292 10.1313708,25.8418278 9.8,25.4 L8.3,23.4 C8.11114562,23.1481942 7.8147573,23 7.5,23 L-3.65130148e-12,23 L-8.66862138e-13,12 C-8.67673762e-13,5.372583 5.372583,-2.33527693e-15 12,-3.55271368e-15 L23,-3.55271368e-15 L23,10 L24.1679497,11.7519246 C24.2411846,11.8617768 24.3354475,11.9560398 24.4452998,12.0292747 C24.9048285,12.3356271 25.5256978,12.2114532 25.8320503,11.7519246 L27,10 L27,-2.22044605e-14 L38,-3.55271368e-15 C44.627417,-4.77015043e-15 50,5.372583 50,12 L50,23 L42.5,23 C42.1852427,23 41.8888544,23.1481942 41.7,23.4 L40.2,25.4 C40.0701779,25.5730962 40,25.7836298 40,26 C40,26.5522847 40.4477153,27 41,27 L50,27 Z M17.8303622,38.5407585 C21.0677556,35.8839299 23.4609652,33.3205162 24.9891526,30.8251648 C26.51734,33.3205162 28.9105496,35.8839299 32.147943,38.5407585 C32.4217478,38.7654616 32.7766399,39.0471225 33.2126246,39.3857343 C33.2255356,39.3957621 33.2385711,39.4056284 33.2517283,39.4153309 C34.125333,40.0595547 35.3557762,39.8736047 36,39 L36.0211501,38.9713192 C36.6648443,38.0984327 36.495514,36.8715623 35.6394489,36.2056603 C35.2340859,35.890351 34.9046271,35.6284391 34.6510725,35.4199245 C29.7280024,31.3713602 27.2131391,27.8034049 26.9945355,24.8522566 C26.9936073,24.839726 26.9927196,24.8271792 26.9918725,24.8146165 C27.0026601,24.5468394 27.0026991,24.2774257 26.9920482,24.0063566 C27.1390949,21.7330261 28.4959521,18.9902948 31.1674856,15.8115981 C32.2334953,14.5432117 34.1258939,14.3791567 35.394277,15.4451684 C35.6861437,15.6904676 35.9285781,15.9891523 36.1086012,16.325232 C36.7182767,17.4634167 37,18.3669943 37,19 C37,21.209115 35.2091584,22.9999566 33.0000434,22.9999566 L28.9999783,23 L29.0000217,27 L33.0000651,26.9999566 C37.4182974,26.9999566 41,23.418254 41,19 C41,17.6162555 40.5294592,16.1070792 39.6346066,14.4365059 C39.2145532,13.6523209 38.6488735,12.9553908 37.9678519,12.3830267 C35.008293,9.89566741 30.5926935,10.2784626 28.105341,13.2380265 C26.8336849,14.7510934 25.7927842,16.2205541 24.9891526,17.6484852 C24.185521,16.2205541 23.1446203,14.7510934 21.8729642,13.2380265 C19.3856117,10.2784626 14.9700122,9.89566741 12.0104533,12.3830267 C11.3294317,12.9553908 10.7637521,13.6523209 10.3436986,14.4365059 C9.44884597,16.1070792 8.9783052,17.6162555 8.9783052,19 C8.9783052,23.418254 12.5600078,26.9999566 16.9782401,26.9999566 L20.9782835,27 L20.9783269,23 L16.9782618,22.9999566 C14.7691468,22.9999566 12.9783052,21.209115 12.9783052,19 C12.9783052,18.3669943 13.2600285,17.4634167 13.869704,16.325232 C14.0497271,15.9891523 14.2921615,15.6904676 14.5840282,15.4451684 C15.8524113,14.3791567 17.7448099,14.5432117 18.8108196,15.8115981 C21.4823531,18.9902948 22.8392103,21.7330261 22.986257,24.0063566 C22.9756061,24.2774257 22.9756451,24.5468394 22.9864327,24.8146165 C22.9855856,24.8271792 22.9846979,24.839726 22.9837697,24.8522566 C22.7651661,27.8034049 20.2503028,31.3713602 15.3272327,35.4199245 C15.0736781,35.6284391 14.7442193,35.890351 14.3388645,36.2056708 C13.4827912,36.8715623 13.3134609,38.0984327 13.9571551,38.9713192 L13.9783052,39 C14.622529,39.8736047 15.8529722,40.0595547 16.7265769,39.4153309 C16.7397341,39.4056284 16.7527696,39.3957621 16.7656806,39.3857343 C17.2016653,39.0471225 17.5565574,38.7654616 17.8303622,38.5407585 Z" transform="translate(3 3)"/>
</svg>
