<svg xmlns="http://www.w3.org/2000/svg" width="56" height="56" viewBox="0 0 56 56">
  <g fill-rule="evenodd" transform="translate(3 3)">
    <path fill-rule="nonzero" d="M46,23 L46,12 C46,7.581722 42.418278,4 38,4 L27,4 L27,10 L25.8320503,11.7519246 C25.5256978,12.2114532 24.9048285,12.3356271 24.4452998,12.0292747 C24.3354475,11.9560398 24.2411846,11.8617768 24.1679497,11.7519246 L23,10 L23,4 L12,4 C7.581722,4 4,7.581722 4,12 L4,23 L7.5,23 C7.8147573,23 8.11114562,23.1481942 8.3,23.4 L9.8,25.4 C10.1313708,25.8418278 10.0418278,26.4686292 9.6,26.8 C9.42690383,26.9298221 9.21637021,27 9,27 L4,27 L4,38 C4,42.418278 7.581722,46 12,46 L23,46 L23,40.1715729 L24.1679497,38.4196483 C24.4743022,37.9601196 25.0951715,37.8359458 25.5547002,38.1422982 C25.6645525,38.2155331 25.7588154,38.309796 25.8320503,38.4196483 L27,40.1715729 L27,46 L38,46 C42.418278,46 46,42.418278 46,38 L46,27 L41,27 C40.4477153,27 40,26.5522847 40,26 C40,25.7836298 40.0701779,25.5730962 40.2,25.4 L41.7,23.4 C41.8888544,23.1481942 42.1852427,23 42.5,23 L46,23 Z M12,0 L38,0 C44.627417,-1.21743675e-15 50,5.372583 50,12 L50,38 C50,44.627417 44.627417,50 38,50 L12,50 C5.372583,50 8.11624501e-16,44.627417 0,38 L0,12 C-8.11624501e-16,5.372583 5.372583,1.21743675e-15 12,0 Z"/>
    <path fill-rule="nonzero" d="M17.8303622,38.5407585 C17.5565574,38.7654616 17.2016653,39.0471225 16.7656806,39.3857343 C16.7527696,39.3957621 16.7397341,39.4056284 16.7265769,39.4153309 C15.8529722,40.0595547 14.622529,39.8736047 13.9783052,39 L13.9571551,38.9713192 C13.3134609,38.0984327 13.4827912,36.8715623 14.3388645,36.2056708 C14.7442193,35.890351 15.0736781,35.6284391 15.3272327,35.4199245 C20.2503028,31.3713602 22.7651661,27.8034049 22.9837697,24.8522566 C22.9846979,24.839726 22.9855856,24.8271792 22.9864327,24.8146165 C22.9756451,24.5468394 22.9756061,24.2774257 22.986257,24.0063566 C22.8392103,21.7330261 21.4823531,18.9902948 18.8108196,15.8115981 C17.7448099,14.5432117 15.8524113,14.3791567 14.5840282,15.4451684 C14.2921615,15.6904676 14.0497271,15.9891523 13.869704,16.325232 C13.2600285,17.4634167 12.9783052,18.3669943 12.9783052,19 C12.9783052,21.209115 14.7691468,22.9999566 16.9782618,22.9999566 L20.9783269,23 L20.9782835,27 L16.9782401,26.9999566 C12.5600078,26.9999566 8.9783052,23.418254 8.9783052,19 C8.9783052,17.6162555 9.44884597,16.1070792 10.3436986,14.4365059 C10.7637521,13.6523209 11.3294317,12.9553908 12.0104533,12.3830267 C14.9700122,9.89566741 19.3856117,10.2784626 21.8729642,13.2380265 C23.1446203,14.7510934 24.185521,16.2205541 24.9891526,17.6484852 C25.7927842,16.2205541 26.8336849,14.7510934 28.105341,13.2380265 C30.5926935,10.2784626 35.008293,9.89566741 37.9678519,12.3830267 C38.6488735,12.9553908 39.2145532,13.6523209 39.6346066,14.4365059 C40.5294592,16.1070792 41,17.6162555 41,19 C41,23.418254 37.4182974,26.9999566 33.0000651,26.9999566 L29.0000217,27 L28.9999783,23 L33.0000434,22.9999566 C35.2091584,22.9999566 37,21.209115 37,19 C37,18.3669943 36.7182767,17.4634167 36.1086012,16.325232 C35.9285781,15.9891523 35.6861437,15.6904676 35.394277,15.4451684 C34.1258939,14.3791567 32.2334953,14.5432117 31.1674856,15.8115981 C28.4959521,18.9902948 27.1390949,21.7330261 26.9920482,24.0063566 C27.0026991,24.2774257 27.0026601,24.5468394 26.9918725,24.8146165 C26.9927196,24.8271792 26.9936073,24.839726 26.9945355,24.8522566 C27.2131391,27.8034049 29.7280024,31.3713602 34.6510725,35.4199245 C34.9046271,35.6284391 35.2340859,35.890351 35.6394489,36.2056603 C36.495514,36.8715623 36.6648443,38.0984327 36.0211501,38.9713192 L36,39 C35.3557762,39.8736047 34.125333,40.0595547 33.2517283,39.4153309 C33.2385711,39.4056284 33.2255356,39.3957621 33.2126246,39.3857343 C32.7766399,39.0471225 32.4217478,38.7654616 32.147943,38.5407585 C28.9105496,35.8839299 26.51734,33.3205162 24.9891526,30.8251648 C23.4609652,33.3205162 21.0677556,35.8839299 17.8303622,38.5407585 Z"/>
    <polygon points="20 23 30 23 30 27 20 27"/>
  </g>
</svg>
