<svg xmlns="http://www.w3.org/2000/svg" width="56" height="56" viewBox="0 0 56 56">
  <path fill-rule="evenodd" d="M0.187354433,31.2565799 L1.0440626,31.7548113 L8.21490085,36.1173337 C9.95616361,37.1766656 12.3720309,36.874867 13.7943657,35.4162759 L15.1470188,34.0291426 L18.1014056,38.5384937 C19.4997784,40.6728635 22.2531711,40.6597988 23.6374479,38.5194194 L30.1080387,28.514543 L37.5166916,41.1853133 C38.9603045,43.654276 41.9313194,43.2955893 42.7345338,40.5427017 L50.8212369,12.8268351 L51.0453761,12.0923378 C54.1698004,16.6101093 56,22.0913216 56,28 C56,43.463973 43.463973,56 28,56 C13.6375679,56 1.80080738,45.1863146 0.187354433,31.2565799 Z M0.0422034556,26.4494976 C0.846839005,11.706692 13.0562973,0 28,0 C35.7723597,0 42.8050687,3.16682117 47.878205,8.28054144 L46.9813453,11.7064637 L39.6352618,36.8839763 L32.9310535,25.417994 C31.6198574,23.1754993 28.8366173,23.1148202 27.4267124,25.2948258 L20.8594374,35.4491961 L18.2234321,31.4257982 C16.9170554,29.4318443 14.2912721,29.1772963 12.627444,30.8835367 L10.9305696,32.6236656 C10.8108568,32.74643 10.4452043,32.7921086 10.2938764,32.7000452 L3.12303818,28.3375228 L0.0422034556,26.4494976 Z"/>
</svg>
