<?xml version="1.0" encoding="UTF-8"?>
<svg width="50px" height="50px" viewBox="0 0 50 50" version="1.1" xmlns="http://www.w3.org/2000/svg" xmlns:xlink="http://www.w3.org/1999/xlink">
    <!-- Generator: Sketch 40.1 (33804) - http://www.bohemiancoding.com/sketch -->
    <title>graph_square_fill</title>
    <desc>Created with Sketch.</desc>
    <defs></defs>
    <g id="Page-1" stroke="none" stroke-width="1" fill="none" fill-rule="evenodd">
        <g id="graph_square_fill" fill="#000000">
            <path d="M0,0 L50,0 L50,50 L0,50 L0,0 Z M0.664714069,28.9542288 L6.58894595,31.3764255 L7.21273786,31.6313597 L7.68320555,31.1488994 L11.3002865,27.4383419 L16.0338221,34.6632504 L16.8757082,35.9482413 L17.7099754,34.658291 L26.1734548,21.6452579 L35.390606,37.409042 L36.3622032,39.0707321 L37.1631812,37.3204038 L49.8106029,9.68276491 L50,9.25848054 L50,4.32627424 L47.9864596,8.86281373 L36.1545741,34.7533028 L26.2367942,17.791257 L16.8820567,32.3084575 L12.2910155,25.3010415 L11.6083202,24.2590273 L10.7386041,25.1509132 L6.72310632,29.270678 L1.46186098,27.1204883 L0,26.4563451 L0,28.6549267 L0.664714069,28.9542288 Z" id="Combined-Shape"></path>
        </g>
    </g>
</svg>