<svg xmlns="http://www.w3.org/2000/svg" width="56" height="56" viewBox="0 0 56 56">
  <path d="M41.9991067,23.6406712 L38.7131187,35.5161703 C37.9451793,38.2914887 34.9641596,38.6608692 33.5166916,36.1853133 L26.1080387,23.514543 L19.6374479,33.5194194 C18.2531711,35.6597988 15.4997784,35.6728635 14.1014056,33.5384937 L11.1470188,29.0291426 L9.79436566,30.4162759 C8.41917614,31.82652 6.05916576,32.2329155 4.29302086,31.3633226 L4.00049031,31.2192899 L4.00009097,39.9982716 C4.00004073,41.1028411 4.8954305,41.9983123 6,41.9983625 L39.9982716,41.999909 C41.1028411,41.9999593 41.9983123,41.1045695 41.9983625,40 L41.9991067,23.6406712 Z M41.9997844,8.74049654 L41.999909,6.00172844 C41.9999593,4.89715894 41.1045695,4.00168771 40,4.00163747 L6.00172844,4.00009097 C4.89715894,4.00004073 4.00168771,4.8954305 4.00163747,6 L4.00069311,26.7608231 L6.05993065,27.7747254 C6.27246432,27.8793701 6.76371157,27.794777 6.93056963,27.6236656 L8.62744397,25.8835367 C10.2912721,24.1772963 12.9170554,24.4318443 14.2234321,26.4257982 L16.8594374,30.4491961 L23.4267124,20.2948258 C24.8366173,18.1148202 27.6198574,18.1754993 28.9310535,20.417994 L35.5895061,31.8057219 L41.9737221,8.733285 L41.9997844,8.74049654 Z M0,4.00172845 C0,1.79163485 1.78913646,0 4.00172845,0 L41.9982716,0 C44.2083651,0 46,1.78913646 46,4.00172845 L46,41.9982716 C46,44.2083651 44.2108635,46 41.9982716,46 L4.00172845,46 C1.79163485,46 0,44.2108635 0,41.9982716 L0,4.00172845 Z" transform="translate(5 5)"/>
</svg>
