<?xml version="1.0" encoding="UTF-8"?>
<svg width="50px" height="50px" viewBox="0 0 50 50" version="1.1" xmlns="http://www.w3.org/2000/svg" xmlns:xlink="http://www.w3.org/1999/xlink">
    <!-- Generator: Sketch 40.1 (33804) - http://www.bohemiancoding.com/sketch -->
    <title>graph_round_fill</title>
    <desc>Created with Sketch.</desc>
    <defs></defs>
    <g id="Page-1" stroke="none" stroke-width="1" fill="none" fill-rule="evenodd">
        <g id="graph_round_fill" fill="#000000">
            <path d="M47.6500387,14.404114 C49.1576418,17.6212572 50,21.212257 50,25 C50,38.8071187 38.8071187,50 25,50 C12.4788579,50 2.10765816,40.7950027 0.28435721,28.7829648 L0.664714069,28.9542288 L6.58894595,31.3764255 L7.21273786,31.6313597 L7.68320555,31.1488994 L11.3002865,27.4383419 L16.0338221,34.6632504 L16.8757082,35.9482413 L17.7099754,34.658291 L26.1734548,21.6452579 L35.390606,37.409042 L36.3622032,39.0707321 L37.1631812,37.3204038 L47.6500387,14.404114 Z M46.4690562,12.1831902 C42.1031626,4.88573083 34.1221431,0 25,0 C11.1928813,0 0,11.1928813 0,25 C0,25.4954337 0.0144114243,25.9875015 0.0428379346,26.4758069 L1.46186098,27.1204883 L6.72310632,29.270678 L10.7386041,25.1509132 L11.6083202,24.2590273 L12.2910155,25.3010415 L16.8820567,32.3084575 L26.2367942,17.791257 L36.1545741,34.7533028 L46.4690562,12.1831902 Z" id="Combined-Shape"></path>
        </g>
    </g>
</svg>