<?xml version="1.0" encoding="UTF-8"?>
<svg width="50px" height="50px" viewBox="0 0 50 50" version="1.1" xmlns="http://www.w3.org/2000/svg" xmlns:xlink="http://www.w3.org/1999/xlink">
    <!-- Generator: Sketch 40.1 (33804) - http://www.bohemiancoding.com/sketch -->
    <title>graph_round</title>
    <desc>Created with Sketch.</desc>
    <defs></defs>
    <g id="Page-1" stroke="none" stroke-width="1" fill="none" fill-rule="evenodd">
        <g id="graph_round" fill="#000000">
            <path d="M50,25 C50,11.1928813 38.8071187,0 25,0 C11.1928813,0 0,11.1928813 0,25 C0,38.8071187 11.1928813,50 25,50 C38.8071187,50 50,38.8071187 50,25 Z M1.92307692,25 C1.92307692,12.2549673 12.2549673,1.92307692 25,1.92307692 C37.7450327,1.92307692 48.0769231,12.2549673 48.0769231,25 C48.0769231,37.7450327 37.7450327,48.0769231 25,48.0769231 C12.2549673,48.0769231 1.92307692,37.7450327 1.92307692,25 Z" id="Oval-26"></path>
            <polygon id="Path-4" points="0.642388401 28.9435945 6.58894595 31.3764255 7.21273786 31.6313597 7.68320555 31.1488994 12.1705021 26.5472183 10.6180906 26.39709 16.0338221 34.6632504 16.8757082 35.9482413 17.7099754 34.658291 27.0335665 20.2420837 25.3306123 20.2037727 35.390606 37.409042 36.3622032 39.0707321 37.1631812 37.3204038 47.2618 15.2525082 46.2675936 12.6187288 35.3445576 36.4881728 37.1171328 36.3995345 27.0571391 19.1942653 26.2367942 17.791257 25.3541849 19.1559543 16.0305938 33.5721615 17.7067471 33.567202 12.2910155 25.3010415 11.6083202 24.2590273 10.7386041 25.1509132 6.25130754 29.7525942 7.34556713 29.5250681 1.46186098 27.1204883 0.0618495945 26.429618"></polygon>
        </g>
    </g>
</svg>