<svg xmlns="http://www.w3.org/2000/svg" width="56" height="56" viewBox="0 0 56 56">
  <path d="M49.5059663,17.3347125 L42.7345338,40.5427017 C41.9313194,43.2955893 38.9603045,43.654276 37.5166916,41.1853133 L30.1080387,28.514543 L23.6374479,38.5194194 C22.2531711,40.6597988 19.4997784,40.6728635 18.1014056,38.5384937 L15.1470188,34.0291426 L13.7943657,35.4162759 C12.3720309,36.874867 9.95616361,37.1766656 8.21490085,36.1173337 L4.76011111,34.0155435 C7.4297699,44.3590191 16.8225616,52 28,52 C41.254834,52 52,41.254834 52,28 C52,24.1689709 51.102374,20.5475936 49.5059663,17.3347125 Z M46.6390318,12.8796877 C42.2386438,7.46191984 35.5236093,4 28,4 C14.745166,4 4,14.745166 4,28 C4,28.2948346 4.00531645,28.5884275 4.0158587,28.880688 L10.2938764,32.7000452 C10.4452043,32.7921086 10.8108568,32.74643 10.9305696,32.6236656 L12.627444,30.8835367 C14.2912721,29.1772963 16.9170554,29.4318443 18.2234321,31.4257982 L20.8594374,35.4491961 L27.4267124,25.2948258 C28.8366173,23.1148202 31.6198574,23.1754993 32.9310535,25.417994 L39.6352618,36.8839763 L46.6390318,12.8796877 Z M28,56 C12.536027,56 0,43.463973 0,28 C0,12.536027 12.536027,0 28,0 C43.463973,0 56,12.536027 56,28 C56,43.463973 43.463973,56 28,56 Z"/>
</svg>
