<svg xmlns="http://www.w3.org/2000/svg" width="56" height="56" viewBox="0 0 56 56">
  <path d="M44.2083349,0.664478423 L41.8901717,8.46663558 L35.5059557,31.5390725 L28.8475031,20.1513446 C27.536307,17.9088499 24.7530669,17.8481707 23.343162,20.0281764 L16.775887,30.1825467 L14.1398817,26.1591488 C12.833505,24.1651949 10.2077217,23.9106469 8.54389358,25.6168873 L6.84701925,27.3570162 C6.68016118,27.5281276 6.18891393,27.6127207 5.97638026,27.508076 L2.8834549,25.985219 L-2.22044605e-16,24.5111992 L0,4.00172845 C0,1.79163485 1.78913646,0 4.00172845,0 L41.9982716,0 C42.8152646,0 43.5750745,0.244488744 44.2083349,0.664478423 Z M46,8.41014381 L46,41.9982716 C46,44.2083651 44.2108635,46 41.9982716,46 L4.00172845,46 C1.79163485,46 -2.22044605e-16,44.2108635 -2.22044605e-16,41.9982716 L-2.22044605e-16,29.0099749 L1.1165451,29.5738162 L4.20947047,31.0966732 C5.97561537,31.9662661 8.33562575,31.5598706 9.71081527,30.1496265 L11.0634684,28.7624932 L14.0178552,33.2718443 C15.416228,35.4062141 18.1696207,35.3931494 19.5538975,33.25277 L26.0244883,23.2478936 L33.4331412,35.9186639 C34.8806092,38.3942198 37.8616289,38.0248392 38.6295683,35.2495209 L45.7453098,9.53336442 L46,8.41014381 Z" transform="translate(5 5)"/>
</svg>
