<svg xmlns="http://www.w3.org/2000/svg" width="56" height="56" viewBox="0 0 56 56">
  <path fill-rule="evenodd" d="M1.30707298,33.0820165 C0.504499439,27.3245611 0.0688644875,21.5470448 0.000168123088,15.7494678 C-0.0143629123,14.5233116 0.926553451,13.496981 2.14935463,13.4051806 C3.34234123,13.3156186 4.38513646,14.2030085 4.48759298,15.394957 C5.26893499,24.4848835 5.84931019,28.2183356 6.22871615,26.5953136 C6.60803554,24.972662 6.53768625,18.5731317 6.01766828,7.39672257 L6.01768201,7.39672193 C5.94952686,5.93190739 7.05172663,4.67534325 8.51293024,4.55201127 C9.8983963,4.43507187 11.1163366,5.46341591 11.233276,6.84888197 C11.2362848,6.88453013 11.2385335,6.92023837 11.2400204,6.95598236 C11.7465848,19.1328286 12.2163578,24.8415068 12.6493546,24.0820164 C13.086565,23.3151353 13.4081482,16.0906334 13.6141042,2.40851082 L13.6140646,2.40851022 C13.6343914,1.05815613 14.7455478,-0.0200440407 16.0959019,0.000282748128 C16.11055,0.000503246346 16.125196,0.000855376086 16.1398378,0.0013390947 C17.5234258,0.0470482597 18.6177688,1.18842421 18.60525,2.57271047 C18.4915197,15.1469881 18.642262,21.6500901 19.0574623,22.0820164 C19.4717299,22.5129724 19.9240502,16.9706303 20.4144231,5.45499011 L20.4144469,5.45499112 C20.4709395,4.1283499 21.562778,3.08183976 22.8906214,3.08161641 C24.1919349,3.08139752 25.2470353,4.13614306 25.2472542,5.43745652 C25.2472554,5.44444055 25.2472255,5.45142454 25.2471646,5.4584083 C25.1368138,18.1049677 25.1439763,24.9795038 25.2686322,26.0820164 C25.4008872,27.2517393 26.3418628,27.9072204 28.0915591,28.0484597 C32.2576159,27.1403861 31.9656037,25.3103431 35.4731737,25.3103431 C36.5144518,25.3103431 37.5009623,25.4935425 38.4327049,25.8599414 L38.4326981,25.8599588 C39.460634,26.2641847 39.9662509,27.4251813 39.562025,28.4531173 C39.3938053,28.8808955 39.0833654,29.2376715 38.6829462,29.4634068 C36.3383361,30.7851749 33.9970061,32.6580447 31.6589562,35.0820164 C30.0211067,36.7800558 28.7936969,38.8089499 27.1058462,40.7739661 C25.3651844,42.8004657 23.7085029,46.1511407 21.3686519,47.0820164 C19.028801,48.0128921 11.4689276,48.5134951 8.89023025,47.0820164 C6.31153289,45.6505378 2.6619184,42.801328 1.30707298,33.0820165 Z" transform="translate(8 4)"/>
</svg>
