<svg xmlns="http://www.w3.org/2000/svg" width="56" height="56" viewBox="0 0 56 56">
  <path d="M21.1820002,3.52822733 C21.8680424,4.18869605 22.4788639,4.9244093 23,5.72 C23.5211361,4.9244093 24.1319576,4.18869605 24.8179998,3.52822733 L25.7673555,2.70037519 C27.9001323,1.01814672 30.5903739,0 33.5048077,0 L33.6153846,0 C40.4600962,0.066 46,5.599 46,12.43 C46,16.5 44.2086538,22.275 40.7144231,27.027 C34.0576923,36.08 23,43 23,43 C23,43 11.9423077,36.08 5.28557692,27.027 C1.79134615,22.275 0,16.5 0,12.43 C0,5.599 5.53990385,0.066 12.3846154,0 L12.4951923,0 C15.4096261,0 18.0998677,1.01814672 20.2326445,2.70037519 L21.1820002,3.52822733 Z" transform="translate(5 6)"/>
</svg>
