<svg xmlns="http://www.w3.org/2000/svg" width="56" height="56" viewBox="0 0 56 56">
  <path d="M33.5048077,4 C30.6134537,4 27.9256747,5.50026266 26.3460622,7.91177267 L24.6730311,10.4658999 C24.0677898,11.3898895 22.8281032,11.648286 21.9041137,11.0430447 C21.6741043,10.8923816 21.477632,10.6959093 21.3269689,10.4658999 L19.6539378,7.91177267 C18.0743253,5.50026266 15.3865463,4 12.4951923,4 L12.4399038,4 C12.4108774,4 12.4108774,4 12.4231835,3.99981406 C7.75633042,4.0448141 4,7.8092087 4,12.43 C4,15.93113 5.70895309,20.8506115 8.50816176,24.6574121 C10.1129543,26.8398929 12.1162314,29.0415703 14.4269901,31.2181956 C16.7715059,33.4266185 19.2981002,35.4870437 21.8248061,37.3345458 C21.8248061,37.3345458 21.8248061,37.3345458 21.8248061,37.3345458 L21.8248061,37.3345458 C22.5247005,37.8463016 23.4753019,37.846305 24.1752,37.3345541 C24.1751939,37.3345458 24.1751939,37.3345458 24.1751939,37.3345458 C26.7018998,35.4870437 29.2284941,33.4266185 31.5730099,31.2181956 C33.8837686,29.0415703 35.8870457,26.8398929 37.4918556,24.6573884 C40.2910469,20.8506115 42,15.93113 42,12.43 C42,7.81497795 38.2530436,4.05421545 33.5942925,4 L33.5048077,4 Z M21.1820002,3.52822733 C21.8680424,4.18869605 22.4788639,4.9244093 23,5.72 C23.5211361,4.9244093 24.1319576,4.18869605 24.8179998,3.52822733 L25.7673555,2.70037519 C27.9001323,1.01814672 30.5903739,0 33.5048077,0 L33.6153846,0 C40.4600962,0.066 46,5.599 46,12.43 C46,16.5 44.2086538,22.275 40.7144231,27.027 C34.0576923,36.08 23,43 23,43 C23,43 11.9423077,36.08 5.28557692,27.027 C1.79134615,22.275 0,16.5 0,12.43 C0,5.599 5.53990385,0.066 12.3846154,0 L12.4951923,0 C15.4096261,0 18.0998677,1.01814672 20.2326445,2.70037519 L21.1820002,3.52822733 Z" transform="translate(5 6)"/>
</svg>
