<?xml version="1.0" encoding="UTF-8"?>
<svg width="51px" height="45px" viewBox="0 0 51 45" version="1.1" xmlns="http://www.w3.org/2000/svg" xmlns:xlink="http://www.w3.org/1999/xlink">
    <!-- Generator: Sketch 40.1 (33804) - http://www.bohemiancoding.com/sketch -->
    <title>heart</title>
    <desc>Created with Sketch.</desc>
    <defs></defs>
    <g id="Page-1" stroke="none" stroke-width="1" fill="none" fill-rule="evenodd">
        <g id="heart" fill="#000000">
            <path d="M26.0562534,42.9995658 C25.3782217,42.6201683 24.5562041,42.6896889 23.9632623,43.1303263 L25.1562004,42.2438092 L26.3491385,43.1303263 C25.7561966,42.6896889 24.9341791,42.6201683 24.2561474,42.9995658 C23.9498859,43.1709366 23.7569878,43.3678824 23.6151313,43.5838873 C23.5914076,43.5660724 23.5749812,43.4193831 23.5749812,43.4193831 L24.118322,43.0150064 C25.5264074,41.9670508 27.1744053,40.7259912 28.7769621,39.4948233 C31.1299644,37.6871238 32.8927675,36.2760203 33.7300397,35.5096214 C47.0739574,23.2952377 52.3303678,12.1425777 44.8873658,5.28463759 C41.2301177,1.91486985 37.3620115,1.29529204 33.2680966,2.68084404 C31.7186318,3.20524772 30.2200101,3.99707185 28.8204573,4.96325911 C27.8676475,5.62103537 27.0918475,6.26506018 26.5352245,6.79496762 L25.1562004,8.10780444 L23.7771762,6.79496762 C23.2205532,6.26506018 22.4447533,5.62103537 21.4919435,4.96325911 C20.0923906,3.99707185 18.5937689,3.20524772 17.0443042,2.68084404 C12.9503892,1.29529204 9.08228307,1.91486985 5.42503502,5.28463759 C-2.01796706,12.1425777 3.23844337,23.2952377 16.582361,35.5096214 C17.4196333,36.2760203 19.1824364,37.6871238 21.5354387,39.4948233 C23.1379954,40.7259912 24.7859934,41.9670508 26.1940788,43.0150064 L26.7374196,43.4193831 C26.7449003,43.548116 26.7209932,43.5660724 26.6972694,43.5838873 C26.555413,43.3678824 26.3625149,43.1709366 26.0562534,42.9995658 Z M25,44.6194302 C23.5247161,43.5214627 17.2432749,38.8259512 15.2319659,36.9848952 C5.02730367,27.6440358 -6.21133874,13.2867918 4.0698116,3.81379787 C13.633464,-4.99809754 23.7857666,4.04176052 25.1562004,5.34641925 C26.5266342,4.04176052 36.6789368,-4.99809754 46.2425892,3.81379787 C56.5237395,13.2867918 45.2850971,27.6440358 35.0804348,36.9848952 C33.0691259,38.8259512 26.7876847,43.5214627 25.3124008,44.6194302 C25.3124008,44.6194302 25.257729,44.8110481 25.1562004,44.7355984 C25.0546718,44.8110481 25,44.6194302 25,44.6194302 Z" id="Combined-Shape"></path>
        </g>
    </g>
</svg>