<?xml version="1.0" encoding="UTF-8"?>
<svg width="44px" height="44px" viewBox="0 0 44 44" version="1.1" xmlns="http://www.w3.org/2000/svg" xmlns:xlink="http://www.w3.org/1999/xlink">
    <!-- Generator: Sketch 40.1 (33804) - http://www.bohemiancoding.com/sketch -->
    <title>help</title>
    <desc>Created with Sketch.</desc>
    <defs></defs>
    <g id="Page-1" stroke="none" stroke-width="1" fill="none" fill-rule="evenodd">
        <g id="help" fill="#000000">
            <path d="M42,22 C42,10.954305 33.045695,2 22,2 C10.954305,2 2,10.954305 2,22 C2,33.045695 10.954305,42 22,42 C33.045695,42 42,33.045695 42,22 Z M0,22 C0,9.8497355 9.8497355,0 22,0 C34.1502645,0 44,9.8497355 44,22 C44,34.1502645 34.1502645,44 22,44 C9.8497355,44 0,34.1502645 0,22 Z" id="Oval-34"></path>
            <path d="M15,15.5896739 L17.904212,15.5896739 C18.0910326,13.1610054 19.7214674,11.6494565 22.2860054,11.6494565 C24.8165761,11.6494565 26.4470109,13.1949728 26.4470109,15.3009511 C26.4470109,17.1182065 25.6827446,18.1881793 23.7126359,19.3940217 C21.3858696,20.7866848 20.298913,22.3152174 20.3158967,24.5570652 L20.3158967,26.1195652 L23.2880435,26.1195652 L23.2880435,25.015625 C23.2880435,23.232337 23.8994565,22.28125 26.0563859,21.0074728 C28.2302989,19.6997283 29.6059783,17.814538 29.6059783,15.1480978 C29.6059783,11.6494565 26.6847826,9 22.4048913,9 C17.6324728,9 15.1868207,11.9211957 15,15.5896739 L15,15.5896739 Z M22.03125,34 C23.4069293,34 24.375,33.0149457 24.375,31.6392663 C24.375,30.2466033 23.4069293,29.2615489 22.03125,29.2615489 C20.6555707,29.2615489 19.6705163,30.2466033 19.6705163,31.6392663 C19.6705163,33.0149457 20.6555707,34 22.03125,34 L22.03125,34 Z" id="?"></path>
        </g>
    </g>
</svg>