<svg xmlns="http://www.w3.org/2000/svg" width="56" height="56" viewBox="0 0 56 56">
  <path fill-rule="evenodd" d="M1.16015625,19.6992188 C1.26757812,14.4140625 5.00585938,10.71875 11.6015625,10.71875 C17.7460938,10.71875 21.8066406,14.1347656 21.8066406,19.0332031 C21.8066406,22.2773438 20.2382812,24.5332031 17.2089844,26.3164062 C14.3515625,27.9707031 13.5566406,29.0234375 13.5566406,31.1289062 L13.5566406,32.2675781 L7.86328125,32.2675781 L7.8203125,31.0214844 C7.54101562,27.6484375 8.72265625,25.7148438 11.6875,23.9746094 C14.4589844,22.3203125 15.296875,21.2675781 15.296875,19.2265625 C15.296875,17.1855469 13.6640625,15.703125 11.2148438,15.703125 C8.74414062,15.703125 7.11132812,17.2714844 6.98242188,19.6992188 L1.16015625,19.6992188 Z M10.7851562,42.5371094 C8.8515625,42.5371094 7.28320312,41.0546875 7.28320312,39.1640625 C7.28320312,37.2734375 8.8515625,35.7910156 10.7851562,35.7910156 C12.7402344,35.7910156 14.3085938,37.2734375 14.3085938,39.1640625 C14.3085938,41.0546875 12.7402344,42.5371094 10.7851562,42.5371094 Z" transform="translate(16 2)"/>
</svg>
