<svg xmlns="http://www.w3.org/2000/svg" width="56" height="56" viewBox="0 0 56 56">
  <path fill-rule="evenodd" d="M28,56 C12.536027,56 0,43.463973 0,28 C0,12.536027 12.536027,0 28,0 C43.463973,0 56,12.536027 56,28 C56,43.463973 43.463973,56 28,56 Z M17.1601562,21.6992188 L22.9824219,21.6992188 C23.1113281,19.2714844 24.7441406,17.703125 27.2148438,17.703125 C29.6640625,17.703125 31.296875,19.1855469 31.296875,21.2265625 C31.296875,23.2675781 30.4589844,24.3203125 27.6875,25.9746094 C24.7226562,27.7148438 23.5410156,29.6484375 23.8203125,33.0214844 L23.8632812,34.2675781 L29.5566406,34.2675781 L29.5566406,33.1289062 C29.5566406,31.0234375 30.3515625,29.9707031 33.2089844,28.3164062 C36.2382812,26.5332031 37.8066406,24.2773438 37.8066406,21.0332031 C37.8066406,16.1347656 33.7460938,12.71875 27.6015625,12.71875 C21.0058594,12.71875 17.2675781,16.4140625 17.1601562,21.6992188 Z M26.7851562,44.5371094 C28.7402344,44.5371094 30.3085938,43.0546875 30.3085938,41.1640625 C30.3085938,39.2734375 28.7402344,37.7910156 26.7851562,37.7910156 C24.8515625,37.7910156 23.2832031,39.2734375 23.2832031,41.1640625 C23.2832031,43.0546875 24.8515625,44.5371094 26.7851562,44.5371094 Z"/>
</svg>
