<svg xmlns="http://www.w3.org/2000/svg" width="56" height="56" viewBox="0 0 56 56">
  <g fill-rule="evenodd">
    <path fill-rule="nonzero" d="M28,52 C41.254834,52 52,41.254834 52,28 C52,14.745166 41.254834,4 28,4 C14.745166,4 4,14.745166 4,28 C4,41.254834 14.745166,52 28,52 Z M28,56 C12.536027,56 0,43.463973 0,28 C0,12.536027 12.536027,0 28,0 C43.463973,0 56,12.536027 56,28 C56,43.463973 43.463973,56 28,56 Z"/>
    <path d="M17.1601562,21.6992188 C17.2675781,16.4140625 21.0058594,12.71875 27.6015625,12.71875 C33.7460938,12.71875 37.8066406,16.1347656 37.8066406,21.0332031 C37.8066406,24.2773438 36.2382812,26.5332031 33.2089844,28.3164062 C30.3515625,29.9707031 29.5566406,31.0234375 29.5566406,33.1289062 L29.5566406,34.2675781 L23.8632812,34.2675781 L23.8203125,33.0214844 C23.5410156,29.6484375 24.7226562,27.7148438 27.6875,25.9746094 C30.4589844,24.3203125 31.296875,23.2675781 31.296875,21.2265625 C31.296875,19.1855469 29.6640625,17.703125 27.2148438,17.703125 C24.7441406,17.703125 23.1113281,19.2714844 22.9824219,21.6992188 L17.1601562,21.6992188 Z M26.7851562,44.5371094 C24.8515625,44.5371094 23.2832031,43.0546875 23.2832031,41.1640625 C23.2832031,39.2734375 24.8515625,37.7910156 26.7851562,37.7910156 C28.7402344,37.7910156 30.3085938,39.2734375 30.3085938,41.1640625 C30.3085938,43.0546875 28.7402344,44.5371094 26.7851562,44.5371094 Z"/>
  </g>
</svg>
