<svg xmlns="http://www.w3.org/2000/svg" width="56" height="56" viewBox="0 0 56 56">
  <path fill-rule="evenodd" d="M2.10928641,22 C1.00471691,22 0.109286407,21.1045695 0.109286407,20 C0.109286407,19.3629129 0.412808874,18.7639402 0.92655908,18.38719 L24.836456,0.853265618 C25.5311895,0.343794403 26.4741022,0.336459599 27.1766773,0.83506132 L40,9.93548387 L40,8 C40,6.8954305 40.8954305,6 42,6 L44,6 C45.1045695,6 46,6.8954305 46,8 L46,14.1935484 L51.8835708,18.3689857 C52.7843551,19.008252 52.9963573,20.2567097 52.3570911,21.157494 C51.9820277,21.6859923 51.3741377,22 50.7260768,22 L46,22 L46,44 C46,46.209139 44.209139,48 42,48 L10,48 C7.790861,48 6,46.209139 6,44 L6,22 L2.10928641,22 Z M32,26 L32,42 L40,42 L40,26 L32,26 Z" transform="translate(2 4)"/>
</svg>
