<svg xmlns="http://www.w3.org/2000/svg" width="56" height="56" viewBox="0 0 56 56">
  <g fill-rule="evenodd" transform="translate(0 6)">
    <path d="M47.9939315,4 L9,4 C6.790861,4 5,5.89620577 5,8.23529412 L5,35.7647059 C5,35.8436605 5.00204044,35.9221105 5.00606853,36 L4,36 C1.790861,36 0,34.1037942 0,31.7647059 L0,4.23529412 C0,1.89620577 1.790861,0 4,0 L44,0 C46.1345708,0 47.8786244,1.77035552 47.9939315,4 Z"/>
    <path d="M12,8 L52,8 C54.209139,8 56,9.89620577 56,12.2352941 L56,39.7647059 C56,42.1037942 54.209139,44 52,44 L12,44 C9.790861,44 8,42.1037942 8,39.7647059 L8,12.2352941 C8,9.89620577 9.790861,8 12,8 Z M44,22 C46.209139,22 48,20.209139 48,18 C48,15.790861 46.209139,14 44,14 C41.790861,14 40,15.790861 40,18 C40,20.209139 41.790861,22 44,22 Z M29.516949,20.7927579 C29.4480492,20.7113308 29.3727457,20.6355462 29.2917591,20.5661292 C28.4531075,19.8472848 27.1905075,19.9444079 26.4716632,20.7830596 L12.8299281,36.6984173 C12.5192256,37.0609035 12.3484413,37.5225775 12.3484413,38 C12.3484413,39.1045695 13.2438718,40 14.3484413,40 L50.3915047,40 C50.7663442,40 51.1336394,39.8946611 51.4515026,39.6959966 C52.3881757,39.1105759 52.672922,37.8766752 52.0875013,36.9400021 L45.6959966,26.7135946 C45.5350352,26.4560563 45.3175361,26.2385573 45.0599979,26.0775958 C44.1233248,25.4921752 42.8894241,25.7769215 42.3040034,26.7135946 L40.4525082,29.6759868 C40.3427766,29.8515574 40.2064486,30.0090248 40.0483961,30.1427615 C39.2051829,30.8562496 37.9432272,30.7510866 37.2297391,29.9078734 L29.516949,20.7927579 Z"/>
  </g>
</svg>
