<?xml version="1.0" encoding="UTF-8"?>
<svg width="59px" height="50px" viewBox="0 0 59 50" version="1.1" xmlns="http://www.w3.org/2000/svg" xmlns:xlink="http://www.w3.org/1999/xlink">
    <!-- Generator: Sketch 40.1 (33804) - http://www.bohemiancoding.com/sketch -->
    <title>images</title>
    <desc>Created with Sketch.</desc>
    <defs></defs>
    <g id="Page-1" stroke="none" stroke-width="1" fill="none" fill-rule="evenodd">
        <g id="images" transform="translate(1.000000, 4.000000)" fill="#000000">
            <path d="M9,44 L9,10 L56,10 L56,44 L9,44 L9,44 Z M7,45 L7,8 L8,8 L57,8 L58,8 L58,46 L57,46 L7,46 L7,45 L7,45 Z" id="Combined-Shape"></path>
            <path d="M37.9045148,35.4967554 L38.6077141,36.2817221 L39.3547324,35.5383341 L43.7053823,31.208827 L42.2501621,31.1616216 L55.0889493,45.7122471 L55.8402466,44.0506265 L9.25659347,43.9826421 L9.9999694,45.6498894 L29.2448353,24.1672483 L27.7551647,24.1672483 L37.9045148,35.4967554 Z M28.5,22.0013076 L27.7551647,22.8327517 L8.51029873,44.3153927 L7.0196438,45.9793796 L9.25367466,45.98264 L55.8373278,46.0506244 L58.0576199,46.0538647 L56.588625,44.3890038 L43.7498379,29.8383784 L43.0472904,29.042158 L42.2946177,29.791173 L37.9439678,34.1206801 L39.3941854,34.1622588 L29.2448353,22.8327517 L28.5,22.0013076 Z" id="Triangle-12"></path>
            <path d="M45,19 C45,17.3431458 43.6568542,16 42,16 C40.3431458,16 39,17.3431458 39,19 C39,20.6568542 40.3431458,22 42,22 C43.6568542,22 45,20.6568542 45,19 Z M37,19 C37,16.2385763 39.2385763,14 42,14 C44.7614237,14 47,16.2385763 47,19 C47,21.7614237 44.7614237,24 42,24 C39.2385763,24 37,21.7614237 37,19 Z" id="Oval-49"></path>
            <rect id="Rectangle-25" x="0" y="36" width="5" height="2"></rect>
            <polygon id="Combined-Shape" points="48 2 2 2 2 38 0 38 0 0 1 0 49 0 50 0 50 6 48 6 48 2"></polygon>
        </g>
    </g>
</svg>