<?xml version="1.0" encoding="UTF-8"?>
<svg width="59px" height="50px" viewBox="0 0 59 50" version="1.1" xmlns="http://www.w3.org/2000/svg" xmlns:xlink="http://www.w3.org/1999/xlink">
    <!-- Generator: Sketch 40.1 (33804) - http://www.bohemiancoding.com/sketch -->
    <title>images_fill</title>
    <desc>Created with Sketch.</desc>
    <defs></defs>
    <g id="Page-1" stroke="none" stroke-width="1" fill="none" fill-rule="evenodd">
        <g id="images_fill" transform="translate(1.000000, 4.000000)" fill="#000000">
            <path d="M7,8 L58,8 L58,46 L7,46 L7,8 Z M28.5,22 L38.6493501,33.3295071 L43,29 L58,46 L7,46 L28.5,22 Z M42,24 C44.7614237,24 47,21.7614237 47,19 C47,16.2385763 44.7614237,14 42,14 C39.2385763,14 37,16.2385763 37,19 C37,21.7614237 39.2385763,24 42,24 Z" id="Combined-Shape"></path>
            <polygon id="Rectangle-29" points="2.5 0 50 0 50 6 5 6 5 38 0 38 0 0"></polygon>
            <rect id="Rectangle-93" x="7" y="44" width="51" height="2"></rect>
        </g>
    </g>
</svg>