<?xml version="1.0" encoding="UTF-8"?>
<svg width="59px" height="50px" viewBox="0 0 59 50" version="1.1" xmlns="http://www.w3.org/2000/svg" xmlns:xlink="http://www.w3.org/1999/xlink">
    <!-- Generator: Sketch 40.1 (33804) - http://www.bohemiancoding.com/sketch -->
    <title>images</title>
    <desc>Created with Sketch.</desc>
    <defs></defs>
    <g id="Page-1" stroke="none" stroke-width="1" fill="none" fill-rule="evenodd">
        <g id="images" transform="translate(1.000000, 4.000000)">
            <path d="M45,19 C45,17.3431458 43.6568542,16 42,16 C40.3431458,16 39,17.3431458 39,19 C39,20.6568542 40.3431458,22 42,22 C43.6568542,22 45,20.6568542 45,19 Z M37,19 C37,16.2385763 39.2385763,14 42,14 C44.7614237,14 47,16.2385763 47,19 C47,21.7614237 44.7614237,24 42,24 C39.2385763,24 37,21.7614237 37,19 Z" id="Oval-49" fill="#000000"></path>
            <rect id="Rectangle-25" fill="#000000" x="0" y="36" width="5" height="2"></rect>
            <polygon id="Combined-Shape" fill="#000000" points="48 2 2 2 2 38 0 38 0 0 1 0 49 0 50 0 50 6 48 6 48 2"></polygon>
            <polyline id="Path-22" stroke="#000000" stroke-width="2" points="9 45 28.5 23.5 38.5 35 43 30.5 56 45"></polyline>
            <polygon id="Path-23" stroke="#000000" stroke-width="2" points="8 9 57.010203 9 57.010203 45.0136043 7.95976196 45.0136043"></polygon>
        </g>
    </g>
</svg>