<svg xmlns="http://www.w3.org/2000/svg" width="56" height="56" viewBox="0 0 56 56">
  <g fill-rule="evenodd" transform="translate(0 4)">
    <path d="M47.9939315,4 L8,4 C5.790861,4 4,5.89620577 4,8.23529412 L4,35.7647059 C4,35.8436605 4.00204044,35.9221105 4.00606853,36 L4,36 C1.790861,36 0,34.1037942 0,31.7647059 L0,4.23529412 C0,1.89620577 1.790861,0 4,0 L44,0 C46.1345708,0 47.8786244,1.77035552 47.9939315,4 Z"/>
    <path fill-rule="nonzero" d="M12,37.1197944 L26.4716632,20.7830596 C27.1905075,19.9444079 28.4531075,19.8472848 29.2917591,20.5661292 C29.3727457,20.6355462 29.4480492,20.7113308 29.516949,20.7927579 L37.2297391,29.9078734 C37.9432272,30.7510866 39.2051829,30.8562496 40.0483961,30.1427615 C40.2064486,30.0090248 40.3427766,29.8515574 40.4525082,29.6759868 L42.3040034,26.7135946 C42.8894241,25.7769215 44.1233248,25.4921752 45.0599979,26.0775958 C45.3175361,26.2385573 45.5350352,26.4560563 45.6959966,26.7135946 L52,36.2630038 L52,13.999977 C52,12.8954075 51.1045695,11.999977 50,11.999977 L14,11.999977 C12.8954305,11.999977 12,12.8954075 12,13.999977 L12,37.1197944 Z M52.4109581,43.9779201 L52.3915047,44 L12,44 C9.790861,44 8,42.1037942 8,39.7647059 L8,12.2352941 C8,9.89620577 9.790861,8 12,8 L52,8 C54.209139,8 56,9.89620577 56,12.2352941 L56,39.7647059 C56,41.9568831 54.4270318,43.760063 52.4109581,43.9779201 Z M49.674306,40 L44.0462487,31.4731869 L43.8445014,31.7959826 C43.5153065,32.3226944 43.1063224,32.7950966 42.6321651,33.1963067 C40.1025255,35.336771 36.3166582,35.021282 34.1761939,32.4916424 L27.9557055,25.1401561 L14.792325,40 L49.674306,40 Z"/>
    <circle cx="44" cy="18" r="4"/>
  </g>
</svg>
