<svg xmlns="http://www.w3.org/2000/svg" width="56" height="56" viewBox="0 0 56 56">
  <path d="M26,6.85139842 C28.7838328,2.77272553 34.0445029,0 39,0 C46.1797017,0 52,5.82029825 52,13 C52,20.1797017 46.1797017,26 39,26 C34.0445029,26 28.7838328,23.2272745 26,19.1486016 C23.2161672,23.2272745 17.9554971,26 13,26 C5.82029825,26 0,20.1797017 0,13 C0,5.82029825 5.82029825,0 13,0 C17.9554971,0 23.2161672,2.77272553 26,6.85139842 Z M13,20 C17.4753345,20 22,16.2684294 22,13 C22,9.7315706 17.4753345,6 13,6 C9.13400675,6 6,9.13400675 6,13 C6,16.8659932 9.13400675,20 13,20 Z M39,20 C42.8659932,20 46,16.8659932 46,13 C46,9.13400675 42.8659932,6 39,6 C34.5246655,6 30,9.7315706 30,13 C30,16.2684294 34.5246655,20 39,20 Z" transform="translate(2 14)"/>
</svg>
