<?xml version="1.0" encoding="UTF-8"?>
<svg width="44px" height="44px" viewBox="0 0 44 44" version="1.1" xmlns="http://www.w3.org/2000/svg" xmlns:xlink="http://www.w3.org/1999/xlink">
    <!-- Generator: Sketch 40.1 (33804) - http://www.bohemiancoding.com/sketch -->
    <title>info_fill</title>
    <desc>Created with Sketch.</desc>
    <defs></defs>
    <g id="Page-1" stroke="none" stroke-width="1" fill="none" fill-rule="evenodd">
        <g id="info_fill" fill="#000000">
            <path d="M22,44 C34.1502645,44 44,34.1502645 44,22 C44,9.8497355 34.1502645,0 22,0 C9.8497355,0 0,9.8497355 0,22 C0,34.1502645 9.8497355,44 22,44 Z M22,15 C23.6568542,15 25,13.6568542 25,12 C25,10.3431458 23.6568542,9 22,9 C20.3431458,9 19,10.3431458 19,12 C19,13.6568542 20.3431458,15 22,15 Z M20,17 L24,17 L24,33 L20,33 L20,17 Z M18,33 L26,33 L26,34 L18,34 L18,33 Z M18,17 L20,17 L20,18 L18,18 L18,17 Z" id="Oval-34"></path>
        </g>
    </g>
</svg>