<svg xmlns="http://www.w3.org/2000/svg" width="56" height="56" viewBox="0 0 56 56">
  <path d="M6.5 10C8.43299662 10 10 8.43299662 10 6.5 10 4.56700338 8.43299662 3 6.5 3 4.56700338 3 3 4.56700338 3 6.5 3 8.43299662 4.56700338 10 6.5 10zM6.5 13C2.91014913 13 0 10.0898509 0 6.5 0 2.91014913 2.91014913 0 6.5 0 10.0898509 0 13 2.91014913 13 6.5 13 10.0898509 10.0898509 13 6.5 13zM6.5 27.5C8.43299662 27.5 10 25.9329966 10 24 10 22.0670034 8.43299662 20.5 6.5 20.5 4.56700338 20.5 3 22.0670034 3 24 3 25.9329966 4.56700338 27.5 6.5 27.5zM6.5 30.5C2.91014913 30.5 0 27.5898509 0 24 0 20.4101491 2.91014913 17.5 6.5 17.5 10.0898509 17.5 13 20.4101491 13 24 13 27.5898509 10.0898509 30.5 6.5 30.5zM6.5 45C8.43299662 45 10 43.4329966 10 41.5 10 39.5670034 8.43299662 38 6.5 38 4.56700338 38 3 39.5670034 3 41.5 3 43.4329966 4.56700338 45 6.5 45zM6.5 48C2.91014913 48 0 45.0898509 0 41.5 0 37.9101491 2.91014913 35 6.5 35 10.0898509 35 13 37.9101491 13 41.5 13 45.0898509 10.0898509 48 6.5 48zM24 10C25.9329966 10 27.5 8.43299662 27.5 6.5 27.5 4.56700338 25.9329966 3 24 3 22.0670034 3 20.5 4.56700338 20.5 6.5 20.5 8.43299662 22.0670034 10 24 10zM24 13C20.4101491 13 17.5 10.0898509 17.5 6.5 17.5 2.91014913 20.4101491 0 24 0 27.5898509 0 30.5 2.91014913 30.5 6.5 30.5 10.0898509 27.5898509 13 24 13zM24 27.5C25.9329966 27.5 27.5 25.9329966 27.5 24 27.5 22.0670034 25.9329966 20.5 24 20.5 22.0670034 20.5 20.5 22.0670034 20.5 24 20.5 25.9329966 22.0670034 27.5 24 27.5zM24 30.5C20.4101491 30.5 17.5 27.5898509 17.5 24 17.5 20.4101491 20.4101491 17.5 24 17.5 27.5898509 17.5 30.5 20.4101491 30.5 24 30.5 27.5898509 27.5898509 30.5 24 30.5zM24 45C25.9329966 45 27.5 43.4329966 27.5 41.5 27.5 39.5670034 25.9329966 38 24 38 22.0670034 38 20.5 39.5670034 20.5 41.5 20.5 43.4329966 22.0670034 45 24 45zM24 48C20.4101491 48 17.5 45.0898509 17.5 41.5 17.5 37.9101491 20.4101491 35 24 35 27.5898509 35 30.5 37.9101491 30.5 41.5 30.5 45.0898509 27.5898509 48 24 48zM41.5 10C43.4329966 10 45 8.43299662 45 6.5 45 4.56700338 43.4329966 3 41.5 3 39.5670034 3 38 4.56700338 38 6.5 38 8.43299662 39.5670034 10 41.5 10zM41.5 13C37.9101491 13 35 10.0898509 35 6.5 35 2.91014913 37.9101491 0 41.5 0 45.0898509 0 48 2.91014913 48 6.5 48 10.0898509 45.0898509 13 41.5 13zM41.5 27.5C43.4329966 27.5 45 25.9329966 45 24 45 22.0670034 43.4329966 20.5 41.5 20.5 39.5670034 20.5 38 22.0670034 38 24 38 25.9329966 39.5670034 27.5 41.5 27.5zM41.5 30.5C37.9101491 30.5 35 27.5898509 35 24 35 20.4101491 37.9101491 17.5 41.5 17.5 45.0898509 17.5 48 20.4101491 48 24 48 27.5898509 45.0898509 30.5 41.5 30.5zM41.5 45C43.4329966 45 45 43.4329966 45 41.5 45 39.5670034 43.4329966 38 41.5 38 39.5670034 38 38 39.5670034 38 41.5 38 43.4329966 39.5670034 45 41.5 45zM41.5 48C37.9101491 48 35 45.0898509 35 41.5 35 37.9101491 37.9101491 35 41.5 35 45.0898509 35 48 37.9101491 48 41.5 48 45.0898509 45.0898509 48 41.5 48z" transform="translate(4 4)"/>
</svg>
