<?xml version="1.0" encoding="UTF-8"?>
<svg width="48px" height="48px" viewBox="0 0 48 48" version="1.1" xmlns="http://www.w3.org/2000/svg" xmlns:xlink="http://www.w3.org/1999/xlink">
    <!-- Generator: Sketch 40.1 (33804) - http://www.bohemiancoding.com/sketch -->
    <title>keyboard</title>
    <desc>Created with Sketch.</desc>
    <defs></defs>
    <g id="Page-1" stroke="none" stroke-width="1" fill="none" fill-rule="evenodd">
        <g id="keyboard" fill="#000000">
            <path d="M11,6.5 C11,4.01471863 8.98528137,2 6.5,2 C4.01471863,2 2,4.01471863 2,6.5 C2,8.98528137 4.01471863,11 6.5,11 C8.98528137,11 11,8.98528137 11,6.5 Z M0,6.5 C0,2.91014913 2.91014913,0 6.5,0 C10.0898509,0 13,2.91014913 13,6.5 C13,10.0898509 10.0898509,13 6.5,13 C2.91014913,13 0,10.0898509 0,6.5 Z" id="Oval-20"></path>
            <path d="M28.5,6.5 C28.5,4.01471863 26.4852814,2 24,2 C21.5147186,2 19.5,4.01471863 19.5,6.5 C19.5,8.98528137 21.5147186,11 24,11 C26.4852814,11 28.5,8.98528137 28.5,6.5 Z M17.5,6.5 C17.5,2.91014913 20.4101491,0 24,0 C27.5898509,0 30.5,2.91014913 30.5,6.5 C30.5,10.0898509 27.5898509,13 24,13 C20.4101491,13 17.5,10.0898509 17.5,6.5 Z" id="Oval-20-Copy"></path>
            <path d="M46,6.5 C46,4.01471863 43.9852814,2 41.5,2 C39.0147186,2 37,4.01471863 37,6.5 C37,8.98528137 39.0147186,11 41.5,11 C43.9852814,11 46,8.98528137 46,6.5 Z M35,6.5 C35,2.91014913 37.9101491,0 41.5,0 C45.0898509,0 48,2.91014913 48,6.5 C48,10.0898509 45.0898509,13 41.5,13 C37.9101491,13 35,10.0898509 35,6.5 Z" id="Oval-20-Copy-2"></path>
            <path d="M11,41.5 C11,39.0147186 8.98528137,37 6.5,37 C4.01471863,37 2,39.0147186 2,41.5 C2,43.9852814 4.01471863,46 6.5,46 C8.98528137,46 11,43.9852814 11,41.5 Z M0,41.5 C0,37.9101491 2.91014913,35 6.5,35 C10.0898509,35 13,37.9101491 13,41.5 C13,45.0898509 10.0898509,48 6.5,48 C2.91014913,48 0,45.0898509 0,41.5 Z" id="Oval-20"></path>
            <path d="M28.5,41.5 C28.5,39.0147186 26.4852814,37 24,37 C21.5147186,37 19.5,39.0147186 19.5,41.5 C19.5,43.9852814 21.5147186,46 24,46 C26.4852814,46 28.5,43.9852814 28.5,41.5 Z M17.5,41.5 C17.5,37.9101491 20.4101491,35 24,35 C27.5898509,35 30.5,37.9101491 30.5,41.5 C30.5,45.0898509 27.5898509,48 24,48 C20.4101491,48 17.5,45.0898509 17.5,41.5 Z" id="Oval-20-Copy"></path>
            <path d="M46,41.5 C46,39.0147186 43.9852814,37 41.5,37 C39.0147186,37 37,39.0147186 37,41.5 C37,43.9852814 39.0147186,46 41.5,46 C43.9852814,46 46,43.9852814 46,41.5 Z M35,41.5 C35,37.9101491 37.9101491,35 41.5,35 C45.0898509,35 48,37.9101491 48,41.5 C48,45.0898509 45.0898509,48 41.5,48 C37.9101491,48 35,45.0898509 35,41.5 Z" id="Oval-20-Copy-2"></path>
            <path d="M11,24 C11,21.5147186 8.98528137,19.5 6.5,19.5 C4.01471863,19.5 2,21.5147186 2,24 C2,26.4852814 4.01471863,28.5 6.5,28.5 C8.98528137,28.5 11,26.4852814 11,24 Z M0,24 C0,20.4101491 2.91014913,17.5 6.5,17.5 C10.0898509,17.5 13,20.4101491 13,24 C13,27.5898509 10.0898509,30.5 6.5,30.5 C2.91014913,30.5 0,27.5898509 0,24 Z" id="Oval-20"></path>
            <path d="M28.5,24 C28.5,21.5147186 26.4852814,19.5 24,19.5 C21.5147186,19.5 19.5,21.5147186 19.5,24 C19.5,26.4852814 21.5147186,28.5 24,28.5 C26.4852814,28.5 28.5,26.4852814 28.5,24 Z M17.5,24 C17.5,20.4101491 20.4101491,17.5 24,17.5 C27.5898509,17.5 30.5,20.4101491 30.5,24 C30.5,27.5898509 27.5898509,30.5 24,30.5 C20.4101491,30.5 17.5,27.5898509 17.5,24 Z" id="Oval-20-Copy"></path>
            <path d="M46,24 C46,21.5147186 43.9852814,19.5 41.5,19.5 C39.0147186,19.5 37,21.5147186 37,24 C37,26.4852814 39.0147186,28.5 41.5,28.5 C43.9852814,28.5 46,26.4852814 46,24 Z M35,24 C35,20.4101491 37.9101491,17.5 41.5,17.5 C45.0898509,17.5 48,20.4101491 48,24 C48,27.5898509 45.0898509,30.5 41.5,30.5 C37.9101491,30.5 35,27.5898509 35,24 Z" id="Oval-20-Copy-2"></path>
        </g>
    </g>
</svg>