<?xml version="1.0" encoding="UTF-8"?>
<svg width="51px" height="50px" viewBox="0 0 51 50" version="1.1" xmlns="http://www.w3.org/2000/svg" xmlns:xlink="http://www.w3.org/1999/xlink">
    <!-- Generator: Sketch 40.1 (33804) - http://www.bohemiancoding.com/sketch -->
    <title>layers</title>
    <desc>Created with Sketch.</desc>
    <defs></defs>
    <g id="Page-1" stroke="none" stroke-width="1" fill="none" fill-rule="evenodd">
        <g id="layers" transform="translate(0.000000, 1.000000)" fill="#000000">
            <polygon id="Rectangle-99" points="4.97379915e-13 27 4.3203125 24 5.90039062 25.3499756 3.40039062 27.0999756 26 44.4500122 47.7001953 27.0999756 45.2998047 25.3499756 46.8496094 24 51 27 26 47"></polygon>
            <path d="M24.8313905,1.62306868 L27.13842,1.64438438 L1.66435666,19.2802744 L1.15733403,18.8902569 L1.20050745,17.1688795 L1.72644415,16.8047694 L27.2194215,36.414752 L24.7506099,36.4382624 L49.3149673,16.7867765 L49.767718,17.112757 L49.8142824,18.9485741 L49.3786398,19.2970882 L24.8313905,1.62306868 Z M51,18 L26,38 L0,18 L26,0 L51,18 Z" id="Rectangle-18"></path>
        </g>
    </g>
</svg>