<?xml version="1.0" encoding="UTF-8"?>
<svg width="56px" height="56px" viewBox="0 0 56 56" version="1.1" xmlns="http://www.w3.org/2000/svg" xmlns:xlink="http://www.w3.org/1999/xlink">
    <!-- Generator: Sketch 52.1 (67048) - http://www.bohemiancoding.com/sketch -->
    <title>library</title>
    <desc>Created with Sketch.</desc>
    <g id="Page-1" stroke="none" stroke-width="1" fill="none" fill-rule="evenodd">
        <g id="library" transform="translate(9.000000, 4.000000)" fill="#000000">
            <path d="M4,12 L34,12 C36.209139,12 38,13.790861 38,16 L38,44 C38,46.209139 36.209139,48 34,48 L4,48 C1.790861,48 2.705415e-16,46.209139 0,44 L0,16 C-2.705415e-16,13.790861 1.790861,12 4,12 Z M6,16 C4.8954305,16 4,16.8954305 4,18 L4,42 C4,43.1045695 4.8954305,44 6,44 L32,44 C33.1045695,44 34,43.1045695 34,42 L34,18 C34,16.8954305 33.1045695,16 32,16 L6,16 Z" id="Shape"></path>
            <path d="M5,6 L33,6 C34.1045695,6 35,6.8954305 35,8 C35,9.1045695 34.1045695,10 33,10 L5,10 C3.8954305,10 3,9.1045695 3,8 C3,6.8954305 3.8954305,6 5,6 Z" id="Rectangle"></path>
            <path d="M7,0 L31,0 C32.1045695,-2.02906125e-16 33,0.8954305 33,2 C33,3.1045695 32.1045695,4 31,4 L7,4 C5.8954305,4 5,3.1045695 5,2 C5,0.8954305 5.8954305,2.02906125e-16 7,0 Z" id="Rectangle-Copy-8"></path>
        </g>
    </g>
</svg>