<svg xmlns="http://www.w3.org/2000/svg" width="56" height="56" viewBox="0 0 56 56">
  <path fill-rule="evenodd" d="M4 12L34 12C36.209139 12 38 13.790861 38 16L38 44C38 46.209139 36.209139 48 34 48L4 48C1.790861 48 2.705415e-16 46.209139 0 44L0 16C-2.705415e-16 13.790861 1.790861 12 4 12zM6 16C4.8954305 16 4 16.8954305 4 18L4 42C4 43.1045695 4.8954305 44 6 44L32 44C33.1045695 44 34 43.1045695 34 42L34 18C34 16.8954305 33.1045695 16 32 16L6 16zM5 6L33 6C34.1045695 6 35 6.8954305 35 8 35 9.1045695 34.1045695 10 33 10L5 10C3.8954305 10 3 9.1045695 3 8 3 6.8954305 3.8954305 6 5 6zM7 0L31 0C32.1045695-2.02906125e-16 33 .8954305 33 2 33 3.1045695 32.1045695 4 31 4L7 4C5.8954305 4 5 3.1045695 5 2 5 .8954305 5.8954305 2.02906125e-16 7 0z" transform="translate(9 4)"/>
</svg>
