<svg xmlns="http://www.w3.org/2000/svg" width="56" height="56" viewBox="0 0 56 56">
  <g transform="translate(4 4)">
    <path d="M31.1114229,23.4545686 C30.3303743,24.2356172 29.0640444,24.2356172 28.2829958,23.4545686 L25.1010153,20.2725881 C22.2885484,17.4601212 17.893514,17.3785639 15.2865858,19.9854921 L6.42914296,28.842935 C3.82221472,31.4498632 3.90377205,35.8448976 6.71623894,38.6573644 L9.34263556,41.2837611 C12.1551024,44.0962279 16.5501368,44.1777853 19.157065,41.570857 L24.7022708,36.0256512 C25.4833194,35.2446026 26.7496494,35.2446026 27.530698,36.0256512 C28.3117465,36.8066998 28.3117465,38.0730298 27.530698,38.8540784 L21.9854921,44.3992842 C17.7924945,48.5922818 10.8657648,48.4637446 6.51420843,44.1121882 L3.88781182,41.4857916 C-0.463744575,37.1342352 -0.592281826,30.2075055 3.60071583,26.0145079 L12.4581587,17.157065 C16.6511563,12.9640674 23.577886,13.0926046 27.9294424,17.444161 L31.1114229,20.6261415 C31.8924715,21.4071901 31.8924715,22.6735201 31.1114229,23.4545686 Z"/>
    <path d="M16.231978,23.8888322 C17.0130265,23.1077836 18.2793565,23.1077836 19.0604051,23.8888322 L22.8989847,27.7274119 C25.7114516,30.5398788 30.106486,30.6214361 32.7134142,28.0145079 L41.570857,19.157065 C44.1777853,16.5501368 44.0962279,12.1551024 41.2837611,9.34263556 L38.6573644,6.71623894 C35.8448976,3.90377205 31.4498632,3.82221472 28.842935,6.42914296 L23.2977292,11.9743488 C22.5166806,12.7553974 21.2503506,12.7553974 20.469302,11.9743488 C19.6882535,11.1933002 19.6882535,9.92697023 20.469302,9.14592164 L26.0145079,3.60071583 C30.2075055,-0.592281826 37.1342352,-0.463744575 41.4857916,3.88781182 L44.1121882,6.51420843 C48.4637446,10.8657648 48.5922818,17.7924945 44.3992842,21.9854921 L35.5418413,30.842935 C31.3488437,35.0359326 24.422114,34.9073954 20.0705576,30.555839 L16.231978,26.7172593 C15.4509294,25.9362107 15.4509294,24.6698808 16.231978,23.8888322 Z"/>
  </g>
</svg>
