<?xml version="1.0" encoding="UTF-8"?>
<svg width="56px" height="56px" viewBox="0 0 56 56" version="1.1" xmlns="http://www.w3.org/2000/svg" xmlns:xlink="http://www.w3.org/1999/xlink">
    <!-- Generator: Sketch 52.1 (67048) - http://www.bohemiancoding.com/sketch -->
    <title>list_fill</title>
    <desc>Created with Sketch.</desc>
    <g id="Page-1" stroke="none" stroke-width="1" fill="none" fill-rule="evenodd">
        <g id="list_fill" transform="translate(5.000000, 5.000000)" fill="#000000">
            <path d="M4,0 L42,0 C44.209139,-4.05812251e-16 46,1.790861 46,4 L46,42 C46,44.209139 44.209139,46 42,46 L4,46 C1.790861,46 2.705415e-16,44.209139 0,42 L0,4 C-2.705415e-16,1.790861 1.790861,4.05812251e-16 4,0 Z M11,37 C12.1045695,37 13,36.1045695 13,35 C13,33.8954305 12.1045695,33 11,33 C9.8954305,33 9,33.8954305 9,35 C9,36.1045695 9.8954305,37 11,37 Z M11,25 C12.1045695,25 13,24.1045695 13,23 C13,21.8954305 12.1045695,21 11,21 C9.8954305,21 9,21.8954305 9,23 C9,24.1045695 9.8954305,25 11,25 Z M11,13 C12.1045695,13 13,12.1045695 13,11 C13,9.8954305 12.1045695,9 11,9 C9.8954305,9 9,9.8954305 9,11 C9,12.1045695 9.8954305,13 11,13 Z M19.8181818,9 C18.8140277,9 18,9.8954305 18,11 C18,12.1045695 18.8140277,13 19.8181818,13 L36.1818182,13 C37.1859723,13 38,12.1045695 38,11 C38,9.8954305 37.1859723,9 36.1818182,9 L19.8181818,9 Z M19.8181818,21 C18.8140277,21 18,21.8954305 18,23 C18,24.1045695 18.8140277,25 19.8181818,25 L36.1818182,25 C37.1859723,25 38,24.1045695 38,23 C38,21.8954305 37.1859723,21 36.1818182,21 L19.8181818,21 Z M19.8181818,33 C18.8140277,33 18,33.8954305 18,35 C18,36.1045695 18.8140277,37 19.8181818,37 L36.1818182,37 C37.1859723,37 38,36.1045695 38,35 C38,33.8954305 37.1859723,33 36.1818182,33 L19.8181818,33 Z" id="Shape"></path>
        </g>
    </g>
</svg>