<?xml version="1.0" encoding="UTF-8"?>
<svg width="56px" height="56px" viewBox="0 0 56 56" version="1.1" xmlns="http://www.w3.org/2000/svg" xmlns:xlink="http://www.w3.org/1999/xlink">
    <!-- Generator: Sketch 52.1 (67048) - http://www.bohemiancoding.com/sketch -->
    <title>list</title>
    <desc>Created with Sketch.</desc>
    <g id="Page-1" stroke="none" stroke-width="1" fill="none" fill-rule="evenodd">
        <g id="list" transform="translate(5.000000, 5.000000)" fill="#000000">
            <path d="M4,0 L42,0 C44.209139,-4.05812251e-16 46,1.790861 46,4 L46,42 C46,44.209139 44.209139,46 42,46 L4,46 C1.790861,46 2.705415e-16,44.209139 0,42 L0,4 C-2.705415e-16,1.790861 1.790861,4.05812251e-16 4,0 Z M6,4 C4.8954305,4 4,4.8954305 4,6 L4,40 C4,41.1045695 4.8954305,42 6,42 L40,42 C41.1045695,42 42,41.1045695 42,40 L42,6 C42,4.8954305 41.1045695,4 40,4 L6,4 Z" id="Shape"></path>
            <circle id="Oval" cx="11" cy="11" r="2"></circle>
            <circle id="Oval" cx="11" cy="23" r="2"></circle>
            <circle id="Oval" cx="11" cy="35" r="2"></circle>
            <path d="M19.8181818,9 L36.1818182,9 C37.1859723,9 38,9.8954305 38,11 C38,12.1045695 37.1859723,13 36.1818182,13 L19.8181818,13 C18.8140277,13 18,12.1045695 18,11 C18,9.8954305 18.8140277,9 19.8181818,9 Z" id="Rectangle"></path>
            <path d="M19.8181818,21 L36.1818182,21 C37.1859723,21 38,21.8954305 38,23 C38,24.1045695 37.1859723,25 36.1818182,25 L19.8181818,25 C18.8140277,25 18,24.1045695 18,23 C18,21.8954305 18.8140277,21 19.8181818,21 Z" id="Rectangle-Copy-9"></path>
            <path d="M19.8181818,33 L36.1818182,33 C37.1859723,33 38,33.8954305 38,35 C38,36.1045695 37.1859723,37 36.1818182,37 L19.8181818,37 C18.8140277,37 18,36.1045695 18,35 C18,33.8954305 18.8140277,33 19.8181818,33 Z" id="Rectangle-Copy-10"></path>
        </g>
    </g>
</svg>