<?xml version="1.0" encoding="UTF-8"?>
<svg width="56px" height="56px" viewBox="0 0 56 56" version="1.1" xmlns="http://www.w3.org/2000/svg" xmlns:xlink="http://www.w3.org/1999/xlink">
    <!-- Generator: Sketch 52.1 (67048) - http://www.bohemiancoding.com/sketch -->
    <title>lock_fill</title>
    <desc>Created with Sketch.</desc>
    <g id="Page-1" stroke="none" stroke-width="1" fill="none" fill-rule="evenodd">
        <g id="lock_fill" transform="translate(7.000000, 3.000000)" fill="#000000">
            <path d="M14,18 L28,18 L28,11 C28,7.13400675 24.8659932,4 21,4 C17.1340068,4 14,7.13400675 14,11 L14,18 Z M10,18 L10,11 C10,4.92486775 14.9248678,0 21,0 C27.0751322,0 32,4.92486775 32,11 L32,18 L38,18 C40.209139,18 42,19.790861 42,22 L42,46 C42,48.209139 40.209139,50 38,50 L4,50 C1.790861,50 2.705415e-16,48.209139 0,46 L0,22 C-2.705415e-16,19.790861 1.790861,18 4,18 L10,18 Z M19,37 L19,41 C19,42.1045695 19.8954305,43 21,43 C22.1045695,43 23,42.1045695 23,41 L23,37 C23,36.8869636 22.9906226,36.7761174 22.9726033,36.6681969 C25.317288,35.8523093 27,33.6226639 27,31 C27,27.6862915 24.3137085,25 21,25 C17.6862915,25 15,27.6862915 15,31 C15,33.6226639 16.682712,35.8523093 19.0273967,36.6681969 C19.0093774,36.7761174 19,36.8869636 19,37 Z" id="Shape"></path>
        </g>
    </g>
</svg>