<?xml version="1.0" encoding="UTF-8"?>
<svg width="42px" height="50px" viewBox="0 0 42 50" version="1.1" xmlns="http://www.w3.org/2000/svg" xmlns:xlink="http://www.w3.org/1999/xlink">
    <!-- Generator: Sketch 40.1 (33804) - http://www.bohemiancoding.com/sketch -->
    <title>lock</title>
    <desc>Created with Sketch.</desc>
    <defs></defs>
    <g id="Page-1" stroke="none" stroke-width="1" fill="none" fill-rule="evenodd">
        <g id="lock">
            <path d="M2,45.0059354 C2,46.654882 3.34651678,48 5.00365614,48 L36.9963439,48 C38.6542724,48 40,46.6574156 40,45.0059354 L40,21.9940646 C40,20.345118 38.6534832,19 36.9963439,19 L5.00365614,19 C3.34572759,19 2,20.3425844 2,21.9940646 L2,45.0059354 Z M5.00365614,17 L36.9963439,17 C39.7597868,17 42,19.2422798 42,21.9940646 L42,45.0059354 C42,47.7640811 39.7567461,50 36.9963439,50 L5.00365614,50 C2.24021316,50 0,47.7577202 0,45.0059354 L0,21.9940646 C0,19.2359189 2.24325385,17 5.00365614,17 Z" id="Rectangle-46" fill="#000000"></path>
            <g id="Group-4" transform="translate(16.000000, 27.000000)" fill="#000000">
                <path d="M8,5 C8,3.34314575 6.65685425,2 5,2 C3.34314575,2 2,3.34314575 2,5 C2,6.65685425 3.34314575,8 5,8 C6.65685425,8 8,6.65685425 8,5 Z M0,5 C0,2.23857625 2.23857625,0 5,0 C7.76142375,0 10,2.23857625 10,5 C10,7.76142375 7.76142375,10 5,10 C2.23857625,10 0,7.76142375 0,5 Z" id="Oval-24"></path>
                <rect id="Rectangle-63" x="4" y="9" width="2" height="6"></rect>
            </g>
            <g id="Group-5" transform="translate(10.000000, 0.000000)">
                <path d="M21,11 C21,5.4771525 16.5228475,1 11,1 C5.4771525,1 1,5.4771525 1,11" id="Oval-36" stroke="#000000" stroke-width="2"></path>
                <rect id="Rectangle-64" fill="#000000" x="0" y="10.9000244" width="2" height="7.13942117"></rect>
                <rect id="Rectangle-64-Copy" fill="#000000" x="20" y="10.9000244" width="2" height="7.13942117"></rect>
            </g>
        </g>
    </g>
</svg>