<?xml version="1.0" encoding="UTF-8"?>
<svg width="42px" height="50px" viewBox="0 0 42 50" version="1.1" xmlns="http://www.w3.org/2000/svg" xmlns:xlink="http://www.w3.org/1999/xlink">
    <!-- Generator: Sketch 40.1 (33804) - http://www.bohemiancoding.com/sketch -->
    <title>lock_fill</title>
    <desc>Created with Sketch.</desc>
    <defs></defs>
    <g id="Page-1" stroke="none" stroke-width="1" fill="none" fill-rule="evenodd">
        <g id="lock_fill">
            <path d="M22,35.8999819 C24.2822403,35.4367116 26,33.4189579 26,31 C26,28.2385763 23.7614237,26 21,26 C18.2385763,26 16,28.2385763 16,31 C16,33.4189579 17.7177597,35.4367116 20,35.8999819 L20,41 L22,41 L22,35.8999819 Z M0,20.9940646 C0,18.2359189 2.24325385,16 5.00365614,16 L36.9963439,16 C39.7597868,16 42,18.2422798 42,20.9940646 L42,44.0059354 C42,46.7640811 39.7567461,49 36.9963439,49 L5.00365614,49 C2.24021316,49 0,46.7577202 0,44.0059354 L0,20.9940646 Z" id="Combined-Shape" fill="#000000"></path>
            <g id="Group-5" transform="translate(10.000000, 0.000000)">
                <path d="M21,10 C21,4.4771525 16.5228475,0 11,0 C5.4771525,0 1,4.4771525 1,10" id="Oval-36" stroke="#000000" stroke-width="2"></path>
                <rect id="Rectangle-64" fill="#000000" x="0" y="10" width="2" height="6.03944558"></rect>
                <rect id="Rectangle-64-Copy" fill="#000000" x="20" y="10" width="2" height="6.03944558"></rect>
            </g>
        </g>
    </g>
</svg>