<svg xmlns="http://www.w3.org/2000/svg" width="56" height="56" viewBox="0 0 56 56">
  <g transform="translate(7 3)">
    <path d="M14,18 L28,18 L28,11 C28,7.13400675 24.8659932,4 21,4 C17.1340068,4 14,7.13400675 14,11 L14,18 Z M10,18 L10,11 C10,4.92486775 14.9248678,0 21,0 C27.0751322,0 32,4.92486775 32,11 L32,18 L38,18 C40.209139,18 42,19.790861 42,22 L42,46 C42,48.209139 40.209139,50 38,50 L4,50 C1.790861,50 2.705415e-16,48.209139 0,46 L0,22 C-2.705415e-16,19.790861 1.790861,18 4,18 L10,18 Z M4,24 L4,44 C4,45.1045695 4.8954305,46 6,46 L36,46 C37.1045695,46 38,45.1045695 38,44 L38,24 C38,22.8954305 37.1045695,22 36,22 L6,22 C4.8954305,22 4,22.8954305 4,24 Z"/>
    <path d="M19.0273967,36.6681969 C16.682712,35.8523093 15,33.6226639 15,31 C15,27.6862915 17.6862915,25 21,25 C24.3137085,25 27,27.6862915 27,31 C27,33.6226639 25.317288,35.8523093 22.9726033,36.6681969 C22.9906226,36.7761174 23,36.8869636 23,37 L23,41 C23,42.1045695 22.1045695,43 21,43 C19.8954305,43 19,42.1045695 19,41 L19,37 C19,36.8869636 19.0093774,36.7761174 19.0273967,36.6681969 Z M21,34 C22.6568542,34 24,32.6568542 24,31 C24,29.3431458 22.6568542,28 21,28 C19.3431458,28 18,29.3431458 18,31 C18,32.6568542 19.3431458,34 21,34 Z"/>
  </g>
</svg>
