<?xml version="1.0" encoding="UTF-8"?>
<svg width="42px" height="50px" viewBox="0 0 42 50" version="1.1" xmlns="http://www.w3.org/2000/svg" xmlns:xlink="http://www.w3.org/1999/xlink">
    <!-- Generator: Sketch 40.1 (33804) - http://www.bohemiancoding.com/sketch -->
    <title>lock_fill</title>
    <desc>Created with Sketch.</desc>
    <defs></defs>
    <g id="Page-1" stroke="none" stroke-width="1" fill="none" fill-rule="evenodd">
        <g id="lock_fill" transform="translate(0.000000, 1.000000)">
            <g id="Group-16" transform="translate(0.000000, 16.000000)" fill="#000000">
                <path d="M22,19.8999819 C24.2822403,19.4367116 26,17.4189579 26,15 C26,12.2385763 23.7614237,10 21,10 C18.2385763,10 16,12.2385763 16,15 C16,17.4189579 17.7177597,19.4367116 20,19.8999819 L20,25 L22,25 L22,19.8999819 Z M0,4.99406457 C0,2.23591887 2.24325385,7.10542736e-15 5.00365614,7.10542736e-15 L36.9963439,7.10542736e-15 C39.7597868,7.10542736e-15 42,2.24227984 42,4.99406457 L42,28.0059354 C42,30.7640811 39.7567461,33 36.9963439,33 L5.00365614,33 C2.24021316,33 0,30.7577202 0,28.0059354 L0,4.99406457 Z" id="Combined-Shape"></path>
            </g>
            <g id="Group-5" transform="translate(10.000000, 0.000000)">
                <path d="M21,10 C21,4.4771525 16.5228475,0 11,0 C5.4771525,0 1,4.4771525 1,10" id="Oval-36" stroke="#000000" stroke-width="2"></path>
                <rect id="Rectangle-64" fill="#000000" x="0" y="10" width="2" height="6.03944558"></rect>
                <rect id="Rectangle-64-Copy" fill="#000000" x="20" y="10" width="2" height="6.03944558"></rect>
            </g>
        </g>
    </g>
</svg>