<svg xmlns="http://www.w3.org/2000/svg" width="56" height="56" viewBox="0 0 56 56">
  <g fill-rule="evenodd" transform="translate(0 10)">
    <path d="M17.8571429,15 L17.8571429,21 L27.9846939,21 C27.5765306,23.575 24.9234694,28.55 17.8571429,28.55 C11.7602041,28.55 6.78571429,23.6 6.78571429,17.5 C6.78571429,11.4 11.7602041,6.45 17.8571429,6.45 C21.3265306,6.45 23.6479592,7.9 24.9744898,9.15 L29.8214286,4.575 C26.7091837,1.725 22.6785714,0 17.8571429,0 C7.98469388,0 0,7.825 0,17.5 C0,27.175 7.98469388,35 17.8571429,35 C28.1632653,35 35,27.9 35,17.9 C35,16.75 34.872449,15.875 34.7193878,15 L17.8571429,15 L17.8571429,15 Z"/>
    <polygon points="56 15.75 50.75 15.75 50.75 10.5 45.5 10.5 45.5 15.75 40.25 15.75 40.25 21 45.5 21 45.5 26.25 50.75 26.25 50.75 21 56 21"/>
  </g>
</svg>
