<?xml version="1.0" encoding="UTF-8"?>
<svg width="62px" height="62px" viewBox="0 0 62 62" version="1.1" xmlns="http://www.w3.org/2000/svg" xmlns:xlink="http://www.w3.org/1999/xlink">
    <!-- Generator: Sketch 40.1 (33804) - http://www.bohemiancoding.com/sketch -->
    <title>logout_fill</title>
    <desc>Created with Sketch.</desc>
    <defs></defs>
    <g id="Page-1" stroke="none" stroke-width="1" fill="none" fill-rule="evenodd">
        <g id="logout_fill" transform="translate(0.000000, 6.000000)" fill="#000000">
            <path d="M12.0196348,23.9999923 C12.5445425,10.6564627 23.5277962,0 37,0 C50.8071187,0 62,11.1928813 62,25 C62,38.8071187 50.8071187,50 37,50 C23.5277962,50 12.5445425,39.3435373 12.0196348,26.0000077 L38.5,26 L38.5,24 L12.0196345,24 Z" id="Combined-Shape"></path>
            <g id="Group-11" transform="translate(6.500000, 25.000000) scale(-1, 1) rotate(-90.000000) translate(-6.500000, -25.000000) translate(-2.000000, 19.000000)">
                <rect id="Rectangle-4" x="7.5" y="0.5" width="2" height="9.5"></rect>
                <rect id="Rectangle-5" transform="translate(4.949747, 6.949747) scale(1, -1) rotate(-45.000000) translate(-4.949747, -6.949747) " x="-1.05025253" y="5.94974747" width="12" height="2"></rect>
                <rect id="Rectangle-6" transform="translate(12.049723, 6.949747) scale(1, -1) rotate(-315.000000) translate(-12.049723, -6.949747) " x="6.04972305" y="5.94974747" width="12" height="2"></rect>
            </g>
        </g>
    </g>
</svg>