<?xml version="1.0" encoding="UTF-8"?>
<svg width="63px" height="63px" viewBox="0 0 63 63" version="1.1" xmlns="http://www.w3.org/2000/svg" xmlns:xlink="http://www.w3.org/1999/xlink">
    <!-- Generator: Sketch 40.1 (33804) - http://www.bohemiancoding.com/sketch -->
    <title>logout</title>
    <desc>Created with Sketch.</desc>
    <defs></defs>
    <g id="Page-1" stroke="none" stroke-width="1" fill="none" fill-rule="evenodd">
        <g id="logout" transform="translate(0.000000, -2.000000)">
            <path d="M16.001482,44.0172525 C19.9934536,51.7293429 28.045677,57 37.3289284,57 C50.5837624,57 61.3289284,46.254834 61.3289284,33 C61.3289284,19.745166 50.5837624,9 37.3289284,9 C28.0445281,9 19.9914605,14.2719618 16,21.985611" id="Oval-52" stroke="#000000" stroke-width="2"></path>
            <g id="Group-11" transform="translate(19.500000, 33.000000) scale(-1, 1) rotate(-90.000000) translate(-19.500000, -33.000000) translate(11.000000, 14.000000)" fill="#000000">
                <rect id="Rectangle-4" x="7.5" y="-1.33226763e-15" width="2" height="36"></rect>
                <rect id="Rectangle-5" transform="translate(4.949747, 32.949747) scale(1, -1) rotate(-45.000000) translate(-4.949747, -32.949747) " x="-1.05025253" y="31.9497475" width="12" height="2"></rect>
                <rect id="Rectangle-6" transform="translate(12.049723, 32.949747) scale(1, -1) rotate(-315.000000) translate(-12.049723, -32.949747) " x="6.04972305" y="31.9497475" width="12" height="2"></rect>
            </g>
        </g>
    </g>
</svg>