<svg xmlns="http://www.w3.org/2000/svg" width="56" height="56" viewBox="0 0 56 56">
  <g fill-rule="evenodd" transform="translate(3 23)">
    <path fill-rule="nonzero" d="M49.9876935,4.82778047 L49.9876935,3.94867021 L48.8959961,3.94867021 L48.8959961,2.58195116 L48.8592505,2.59325436 L47.8338612,2.90696325 L47.8136727,2.91312862 L47.8136727,3.94867021 L46.1952611,3.94867021 L46.1952611,3.37184478 C46.1952611,3.10322775 46.2553434,2.89765474 46.3736944,2.76056576 C46.4912597,2.6251088 46.6594173,2.55626209 46.8738152,2.55626209 C47.0280102,2.55626209 47.187645,2.59258946 47.3482471,2.66421663 L47.3885034,2.68216876 L47.3885034,1.75633462 L47.3695842,1.74938347 C47.2197413,1.69552708 47.0158607,1.66838733 46.7632616,1.66838733 C46.444838,1.66838733 46.1554884,1.73765716 45.9031915,1.87498791 C45.6507133,2.0125 45.4520914,2.20882495 45.3130077,2.45846229 C45.1743472,2.70779739 45.1039894,2.99575677 45.1039894,3.31442215 L45.1039894,3.94867021 L44.3438347,3.94867021 L44.3438347,4.82778047 L45.1039894,4.82778047 L45.1039894,8.53129836 L46.1952611,8.53129836 L46.1952611,4.82778047 L47.8136727,4.82778047 L47.8136727,7.18132253 C47.8136727,8.15061653 48.2708776,8.64185203 49.1725339,8.64185203 C49.3207447,8.64185203 49.4766345,8.62444391 49.6359043,8.59041345 C49.7979594,8.55553675 49.9083317,8.52066006 49.9733075,8.48342602 L49.9876935,8.47496373 L49.9876935,7.58769343 L49.9433269,7.61706963 C49.8840909,7.65660058 49.8103481,7.6888177 49.723854,7.71275387 C49.6369923,7.73717359 49.5644584,7.74944391 49.5083075,7.74944391 C49.2970503,7.74944391 49.1408027,7.69250483 49.0437862,7.58019826 C48.9457447,7.46686412 48.896001,7.26860493 48.896001,6.9913443 L48.896001,4.82778047 L49.9876935,4.82778047 Z M41.9068545,7.74952853 C41.5107592,7.74952853 41.198501,7.61818182 40.9784212,7.35947775 C40.7570116,7.09944391 40.6448259,6.7287355 40.6448259,6.25774903 C40.6448259,5.77183269 40.7570116,5.39151354 40.9785421,5.12688588 C41.1987428,4.86401112 41.5080392,4.73060929 41.897969,4.73060929 C42.276354,4.73060929 42.5775508,4.85802708 42.7932785,5.1095382 C43.0101548,5.36231866 43.1201645,5.73961557 43.1201645,6.23121373 C43.1201645,6.72885639 43.0166828,7.11110977 42.8126209,7.36679158 C42.6100097,7.62059961 42.305307,7.74952853 41.9068545,7.74952853 Z M41.9554521,3.8382616 C41.1997703,3.8382616 40.5995527,4.05967118 40.1716635,4.4963854 C39.7440159,4.93316006 39.5271397,5.53754836 39.5271397,6.2929884 C39.5271397,7.01046905 39.7388177,7.58759671 40.1563104,8.00805126 C40.5738032,8.42868714 41.141985,8.64175532 41.8448984,8.64175532 C42.5774299,8.64175532 43.1656794,8.41726306 43.5934478,7.97450436 C44.0211557,7.53216876 44.2378506,6.93352272 44.2378506,6.19573259 C44.2378506,5.46700919 44.0345141,4.88558994 43.633281,4.46791586 C43.2318665,4.05006045 42.667251,3.8382616 41.9554521,3.8382616 Z M37.7676799,3.83823743 C37.2536566,3.83823743 36.8284874,3.96970503 36.5036566,4.2289531 C36.1768917,4.48971229 36.0111519,4.83176982 36.0111519,5.24563588 C36.0111519,5.46075919 36.0469352,5.65188588 36.1173535,5.81393858 C36.1881949,5.97659574 36.2978419,6.11972921 36.4434536,6.23989361 C36.5880377,6.35909091 36.8110793,6.48397002 37.1067756,6.6109647 C37.3552646,6.71323743 37.5406489,6.79979449 37.6583955,6.86797631 C37.7734826,6.93476789 37.8552041,7.00198259 37.9013235,7.06738395 C37.9461132,7.13139507 37.9689009,7.21897969 37.9689009,7.32717602 C37.9689009,7.63502176 37.7383642,7.78480416 37.2639323,7.78480416 C37.0879772,7.78480416 36.8872398,7.74811412 36.6673414,7.67564071 C36.4473221,7.6032882 36.241749,7.49926257 36.056425,7.36586073 L36.0111519,7.33340184 L36.0111519,8.3839942 L36.0277742,8.39173114 C36.1822108,8.46299564 36.3768434,8.52307785 36.6062921,8.57040619 C36.8353177,8.61773452 37.0433689,8.64185203 37.2241596,8.64185203 C37.7819449,8.64185203 38.2311107,8.50971953 38.5588429,8.24896035 C38.8886905,7.98638781 39.0558811,7.6362911 39.0558811,7.20803917 C39.0558811,6.89916586 38.9658786,6.63423598 38.7884729,6.42062379 C38.6123365,6.20870406 38.3066063,6.01419246 37.8801073,5.84222679 C37.5403467,5.70586315 37.3226848,5.5926499 37.2329241,5.50579062 C37.146367,5.42183269 37.1024236,5.30311896 37.1024236,5.15279255 C37.1024236,5.0195116 37.1566427,4.91276596 37.2680426,4.82626935 C37.3802887,4.73934961 37.5364782,4.69516441 37.7324405,4.69516441 C37.9142587,4.69516441 38.100308,4.72387572 38.2852693,4.7801499 C38.4701702,4.83642408 38.6325251,4.91179884 38.768103,5.00403771 L38.8126509,5.03450193 L38.8126509,4.03788685 L38.795545,4.03051257 C38.6704846,3.97689797 38.5055909,3.93102031 38.305337,3.89378627 C38.1058689,3.85691489 37.9249574,3.83823743 37.7676799,3.83823743 Z M33.1662534,7.74952853 C32.770279,7.74952853 32.4578999,7.61818182 32.2378806,7.35947775 C32.0164105,7.09944391 31.9044062,6.72885639 31.9044062,6.25774903 C31.9044062,5.77183269 32.0165314,5.39151354 32.2381224,5.12688588 C32.4581417,4.86401112 32.7673776,4.73060929 33.1574889,4.73060929 C33.5357529,4.73060929 33.8369497,4.85802708 34.0527379,5.1095382 C34.2696142,5.36231866 34.3796238,5.73961557 34.3796238,6.23121373 C34.3796238,6.72885639 34.2760817,7.11110977 34.0720198,7.36679158 C33.8694086,7.62059961 33.5648269,7.74952853 33.1662534,7.74952853 Z M33.214972,3.8382616 C32.4591088,3.8382616 31.8588912,4.05967118 31.4311833,4.4963854 C31.0035357,4.93316006 30.7865387,5.53754836 30.7865387,6.2929884 C30.7865387,7.01077128 30.9983375,7.58759671 31.4158303,8.00805126 C31.833323,8.42868714 32.4014444,8.64175532 33.1044183,8.64175532 C33.8367684,8.64175532 34.4251992,8.41726306 34.8529676,7.97450436 C35.2805547,7.53216876 35.4973704,6.93352272 35.4973704,6.19573259 C35.4973704,5.46700919 35.2939734,4.88558994 34.8926799,4.46791586 C34.4911446,4.05006045 33.9266499,3.8382616 33.214972,3.8382616 Z M29.1300228,4.74225097 L29.1300228,3.94867021 L28.0520488,3.94867021 L28.0520488,8.53117747 L29.1300228,8.53117747 L29.1300228,6.18706479 C29.1300228,5.78843085 29.2203878,5.46100097 29.3987002,5.21366054 C29.5747761,4.96928191 29.8094231,4.84543037 30.0958714,4.84543037 C30.1929458,4.84543037 30.3019279,4.86144826 30.4199768,4.89312138 C30.5368167,4.92461315 30.6214396,4.9587645 30.671367,4.99472921 L30.7166402,5.02755077 L30.7166402,3.94081238 L30.6991717,3.93331722 C30.5987728,3.89064313 30.4567877,3.86912476 30.2770851,3.86912476 C30.0062316,3.86912476 29.7637872,3.95616538 29.5561591,4.12752659 C29.3739178,4.27815522 29.2421479,4.48469536 29.1414468,4.74225097 L29.1300228,4.74225097 Z M26.1216514,3.83823743 C25.6271519,3.83823743 25.1860251,3.94431818 24.8107834,4.15333655 C24.4348162,4.3628385 24.1440764,4.66198018 23.9462403,5.04235977 C23.7493109,5.42183269 23.6493351,5.86507495 23.6493351,6.35933269 C23.6493351,6.79229933 23.7462887,7.18966393 23.9378989,7.53982108 C24.1296301,7.89058269 24.4010275,8.16500242 24.7445357,8.35534333 C25.0875604,8.54544246 25.4840184,8.64185203 25.922969,8.64185203 C26.4352394,8.64185203 26.8726185,8.53939797 27.2233196,8.33745164 L27.2374638,8.32929158 L27.2374638,7.34174323 L27.1921905,7.37480657 C27.0333414,7.49049807 26.8558148,7.58285783 26.664809,7.64940764 C26.4742867,7.715897 26.3005682,7.74950436 26.1483075,7.74950436 C25.7253144,7.74950436 25.3857954,7.61713008 25.1393013,7.35625 C24.8922631,7.09494681 24.7670213,6.72810687 24.7670213,6.26642892 C24.7670213,5.80184961 24.8976427,5.42558027 25.1550773,5.14789651 C25.4116658,4.87105899 25.7518496,4.73064555 26.1660783,4.73064555 C26.5204062,4.73064555 26.8656673,4.85062862 27.1923114,5.08757253 L27.2374638,5.1203941 L27.2374638,4.07983559 L27.2228965,4.07161509 C27.0999517,4.00282882 26.932338,3.94601063 26.7241658,3.90291345 C26.5169608,3.85993714 26.3142892,3.83823743 26.1216514,3.83823743 Z M22.9069149,3.9486823 L21.828941,3.9486823 L21.828941,8.53118955 L22.9069149,8.53118955 L22.9069149,3.9486823 Z M22.3789289,1.9964942 C22.2015232,1.9964942 22.0467844,2.05687862 21.9196687,2.17655948 C21.7920092,2.296603 21.7272123,2.44771519 21.7272123,2.62602756 C21.7272123,2.80155948 21.7912234,2.9498912 21.9176137,3.06673114 C22.0432181,3.18320842 22.1984405,3.24226306 22.3789289,3.24226306 C22.5593568,3.24226306 22.7151838,3.18320842 22.8422993,3.06691248 C22.9702611,2.9498912 23.0351185,2.80155948 23.0351185,2.62602756 C23.0351185,2.45394101 22.9720141,2.30433994 22.847558,2.18139507 C22.7232834,2.05869197 22.5655827,1.9964942 22.3789289,1.9964942 Z M19.6893796,3.61058994 L19.6893796,8.53116538 L20.7894763,8.53116538 L20.7894763,2.13682302 L19.2669304,2.13682302 L17.3316063,6.88633946 L15.4535237,2.13682302 L13.8689613,2.13682302 L13.8689613,8.53116538 L14.90275,8.53116538 L14.90275,3.61010639 L14.9382916,3.61010639 L16.9214879,8.53116538 L17.7016499,8.53116538 L19.6538984,3.61058994 L19.6893796,3.61058994 Z"/>
    <polygon points="5.071 5.071 0 5.071 0 0 5.071 0"/>
    <polygon points="10.67 5.071 5.599 5.071 5.599 0 10.67 0"/>
    <polygon points="5.071 10.672 0 10.672 0 5.601 5.071 5.601"/>
    <polygon points="10.67 10.672 5.599 10.672 5.599 5.601 10.67 5.601"/>
  </g>
</svg>
