<svg xmlns="http://www.w3.org/2000/svg" width="56" height="56" viewBox="0 0 56 56">
  <g fill="none" transform="translate(6 2)">
    <path fill="#000" d="M3.3171849 17.0337365C1.53928984 17.0337365.124595589 18.4484311.124595589 20.2263264L.124595589 33.5247072C.124595589 35.3026025 1.53928984 36.7172971 3.3171849 36.7172971 5.0950798 36.7172971 6.50977415 35.3026025 6.50977415 33.5247072L6.50977415 20.2263264C6.50977415 18.4484311 5.0950798 17.0337365 3.3171849 17.0337365zM40.5526537 17.0337365C38.7747582 17.0337365 37.3600638 18.4484311 37.3600638 20.2263264L37.3600638 33.5247072C37.3600638 35.3026025 38.7747582 36.7172971 40.5526537 36.7172971 42.330549 36.7172971 43.745242 35.3026025 43.745242 33.5247072L43.745242 20.2263264C43.745242 18.4484311 42.330549 17.0337365 40.5526537 17.0337365zM16.6154638 32.2094979C14.8375685 32.2094979 13.4228749 33.6241923 13.4228749 35.4020876L13.4228749 48.7004777C13.4228749 50.4783777 14.8375685 51.8930475 16.6154638 51.8930475 18.3933592 51.8930475 19.8080536 50.4783777 19.8080536 48.7004777L19.8080536 35.4020876C19.8080536 33.6241923 18.3933592 32.2094979 16.6154638 32.2094979zM27.2541694 32.2094979C25.4762741 32.2094979 24.0615795 33.6241923 24.0615795 35.4020876L24.0615795 48.7004777C24.0615795 50.4783777 25.4762741 51.8930475 27.2541694 51.8930475 29.0320647 51.8930475 30.4467577 50.4783777 30.4467577 48.7004777L30.4467577 35.4020876C30.4467577 33.6241923 29.0320647 32.2094979 27.2541694 32.2094979z"/>
    <path fill="#000" d="M13.0953046,0.278753691 C13.0198338,0.279525503 12.9495089,0.298996778 12.8801837,0.337422215 C12.6525279,0.463615034 12.5776642,0.725219195 12.7041757,0.953451741 L14.9531658,5.01630295 C10.6262113,7.26773744 7.7035839,11.5463657 7.69772631,16.4568225 L36.1719084,16.4568225 C36.1660581,11.5463657 33.2434235,7.26773744 28.9164675,5.01630295 L31.1654599,0.953451741 C31.2919707,0.725219195 31.2171064,0.463615034 30.9894512,0.337422215 C30.9201256,0.298996778 30.8498011,0.27947302 30.7743302,0.278753691 C30.6127667,0.277194631 30.4596239,0.35792 30.3734217,0.513430872 L28.0950958,4.62028464 C26.2313346,3.79358128 24.1408384,3.32956014 21.9348175,3.32956014 C19.7287947,3.32956014 17.6382969,3.79358128 15.7745375,4.62028464 L13.4962115,0.513430872 C13.4100099,0.35792 13.2568658,0.277203893 13.0953046,0.278753691 Z M7.69772631,17.5813173 L7.69772631,38.218254 C7.69772631,40.1250851 9.23282889,41.6601869 11.1396603,41.6601869 L32.7299738,41.6601869 C34.6368066,41.6601869 36.1719084,40.1250851 36.1719084,38.218254 L36.1719084,17.5813173 L7.69772631,17.5813173 Z"/>
    <path fill="#FFF" d="M15.3638131,8.86892181 C14.7138007,8.86892181 14.1757589,9.40696282 14.1757589,10.0569768 C14.1757589,10.7069892 14.7138007,11.2450302 15.3638131,11.2450302 C16.0138255,11.2450302 16.5518665,10.7069892 16.5518665,10.0569768 C16.5518665,9.40696282 16.0138255,8.86892181 15.3638131,8.86892181 Z M28.505743,8.86892181 C27.8557305,8.86892181 27.317688,9.40696282 27.317688,10.0569768 C27.317688,10.7069892 27.8557305,11.2450302 28.505743,11.2450302 C29.1557539,11.2450302 29.6937963,10.7069892 29.6937963,10.0569768 C29.6937963,9.40696282 29.1557539,8.86892181 28.505743,8.86892181 Z"/>
  </g>
</svg>
