<svg xmlns="http://www.w3.org/2000/svg" width="56" height="56" viewBox="0 0 56 56">
  <path d="M0.196838,11.6 L2.142196,11.6 L2.142196,6.5296 C2.142196,5.5296 2.798436,4.80304 3.735956,4.80304 C4.642196,4.80304 5.204716,5.37336 5.204716,6.29522 L5.204716,11.59982 L7.095336,11.59982 L7.095336,6.48262 C7.095336,5.49044 7.735956,4.80294 8.673456,4.80294 C9.626576,4.80294 10.157836,5.38106 10.157836,6.3967 L10.157836,11.5999 L12.103156,11.5999 L12.103156,5.9203 C12.103156,4.26406 11.032836,3.1625 9.399956,3.1625 C8.204636,3.1625 7.220356,3.80312 6.821756,4.82656 L6.77488,4.82656 C6.4702,3.76406 5.63426,3.1625 4.46248,3.1625 C3.33748,3.1625 2.46248,3.79532 2.10308,4.75626 L2.064018,4.75626 L2.064018,3.31876 L0.196838,3.31876 L0.196838,11.6 Z M16.361276,10.26406 C15.517516,10.26406 14.955036,9.83438 14.955036,9.15468 C14.955036,8.49844 15.494096,8.07656 16.431596,8.01406 L18.345656,7.896872 L18.345656,8.529692 C18.345656,9.529692 17.462836,10.264072 16.361276,10.264072 L16.361276,10.26406 Z M15.775336,11.73282 C16.837836,11.73282 17.876936,11.17814 18.353536,10.2797 L18.392598,10.2797 L18.392598,11.60002 L20.267598,11.60002 L20.267598,5.89682 C20.267598,4.23276 18.931658,3.14682 16.876998,3.14682 C14.767598,3.14682 13.447398,4.2562 13.361398,5.80302 L15.166078,5.80302 C15.291078,5.11552 15.877018,4.6702 16.798898,4.6702 C17.759838,4.6702 18.345778,5.1702 18.345778,6.03738 L18.345778,6.63114 L16.158178,6.75614 C14.142578,6.88114 13.009778,7.76396 13.009778,9.23274 C13.009778,10.72492 14.173838,11.73274 15.775378,11.73274 L15.775336,11.73282 Z M28.806936,6.27182 C28.674124,4.52964 27.322556,3.14682 25.135136,3.14682 C22.728936,3.14682 21.166336,4.81088 21.166336,7.45922 C21.166336,10.14682 22.728836,11.76382 25.150736,11.76382 C27.228936,11.76382 28.658536,10.54506 28.814736,8.69342 L26.978796,8.69342 C26.799108,9.63092 26.158476,10.19342 25.174116,10.19342 C23.939736,10.19342 23.142916,9.19342 23.142916,7.45902 C23.142916,5.7559 23.931976,4.72462 25.158516,4.72462 C26.197576,4.72462 26.814756,5.38868 26.971016,6.2715 L28.806956,6.2715 L28.806936,6.27182 Z M34.815136,0.13902 C31.526136,0.13902 29.463536,2.38122 29.463536,5.96722 C29.463536,9.55322 31.525936,11.78762 34.815136,11.78762 C38.096336,11.78762 40.158936,9.55322 40.158936,5.96722 C40.158936,2.38122 38.096536,0.13902 34.815136,0.13902 Z M34.815136,1.85778 C36.822936,1.85778 38.104136,3.45154 38.104136,5.96718 C38.104136,8.47498 36.822896,10.06878 34.815136,10.06878 C32.799536,10.06878 31.526136,8.47502 31.526136,5.96718 C31.526136,3.45158 32.799576,1.85778 34.815136,1.85778 Z M40.979536,8.42818 C41.065474,10.50638 42.768596,11.78758 45.362336,11.78758 C48.088936,11.78758 49.807736,10.44382 49.807736,8.30318 C49.807736,6.6235 48.838976,5.67818 46.549936,5.15478 L45.253056,4.8579 C43.870236,4.52978 43.299936,4.09228 43.299936,3.34228 C43.299936,2.40478 44.159316,1.77978 45.432736,1.77978 C46.721796,1.77978 47.604536,2.4126 47.698336,3.46728 L49.620216,3.46728 C49.57334,1.4829 47.932716,0.13908 45.448416,0.13908 C42.995216,0.13908 41.253016,1.49064 41.253016,3.49068 C41.253016,5.10006 42.237396,6.10008 44.315416,6.57668 L45.776356,6.92044 C47.198236,7.25638 47.776356,7.72512 47.776356,8.53762 C47.776356,9.47512 46.831036,10.147 45.471756,10.147 C44.096756,10.147 43.057756,9.46732 42.932756,8.42824 L40.979636,8.42824 L40.979536,8.42818 Z" transform="translate(3 22)"/>
</svg>
