<svg xmlns="http://www.w3.org/2000/svg" width="56" height="56" viewBox="0 0 56 56">
  <g fill-rule="evenodd" transform="translate(5 5)">
    <path d="M45.9780781,23.9794766 C45.9780781,22.0507109 45.8215703,20.6432188 45.4828594,19.1836172 L23.4582031,19.1836172 L23.4582031,27.8891172 L36.3861797,27.8891172 C36.1256328,30.0525547 34.7181406,33.3106484 31.5903203,35.4999609 L31.5464766,35.7914141 L38.5102656,41.1861719 L38.9927266,41.2343281 C43.4236406,37.142125 45.9780781,31.1211562 45.9780781,23.9794766"/>
    <path d="M23.4582031,46.9164063 C29.7918281,46.9164063 35.1089609,44.8311328 38.9927266,41.2343281 L31.5903203,35.4999609 C29.6094453,36.8813984 26.9507891,37.8457813 23.4582031,37.8457813 C17.2548516,37.8457813 11.9898281,33.7537578 10.1129922,28.0977344 L9.83789062,28.1210938 L2.59684375,33.7250078 L2.50214844,33.98825 C6.35967969,41.6512031 14.2833594,46.9164063 23.4582031,46.9164063"/>
    <path d="M10.1129922,28.0977344 C9.61777344,26.6381328 9.33117187,25.0741328 9.33117187,23.4582031 C9.33117187,21.8420938 9.61777344,20.2782734 10.0869375,18.8186719 L10.0738203,18.5078125 L2.74203125,12.813875 L2.50214844,12.9279766 C0.912273438,16.1079063 0,19.6788359 0,23.4582031 C0,27.2375703 0.912273438,30.8083203 2.50214844,33.98825 L10.1129922,28.0977344"/>
    <path d="M23.4582031,9.07044531 C27.8630625,9.07044531 30.834375,10.9731562 32.5286484,12.5632109 L39.1490547,6.09913281 C35.0830859,2.31976563 29.7918281,0 23.4582031,0 C14.2833594,0 6.35967969,5.26502344 2.50214844,12.9279766 L10.0869375,18.8186719 C11.9898281,13.1626484 17.2548516,9.07044531 23.4582031,9.07044531"/>
  </g>
</svg>
