<svg xmlns="http://www.w3.org/2000/svg" width="56" height="56" viewBox="0 0 56 56">
  <g fill-rule="evenodd" transform="translate(0 19)">
    <path fill-rule="nonzero" d="M54.2557373,11.229756 L55.8092212,12.2654119 C55.3050203,13.0080863 54.0990262,14.2822157 52.0140871,14.2822157 C49.4249471,14.2822157 47.4967193,12.2790391 47.4967193,9.73078017 C47.4967193,7.0189967 49.4453877,5.1793446 51.7960543,5.1793446 C54.1603478,5.1793446 55.3186473,7.05987785 55.6933913,8.07509327 L55.8977972,8.59292127 L49.8065046,11.113926 C50.2698244,12.0269385 50.9920581,12.4902584 52.0140871,12.4902584 C53.0361161,12.4902584 53.7447228,11.9860575 54.2557373,11.229756 Z M49.4794554,9.58769611 L53.5471305,7.89794159 C53.3222841,7.33241891 52.6545586,6.93042085 51.857376,6.93042085 C50.8421607,6.93042085 49.4317607,7.82980633 49.4794554,9.58769611 Z"/>
    <polygon points="44.56 .539 46.522 .539 46.522 13.867 44.56 13.867"/>
    <path fill-rule="nonzero" d="M41.4667484 5.53364796L43.3609087 5.53364796 43.3609087 13.6281172C43.3609087 16.9871857 41.3781726 18.3703314 39.0343195 18.3703314 36.8267371 18.3703314 35.4980993 16.8849828 35.000712 15.6789886L36.7381611 14.9567549C37.0515834 15.6994293 37.8078848 16.5783741 39.0343195 16.5783741 40.5401089 16.5783741 41.4667484 15.644921 41.4667484 13.9006582L41.4667484 13.2465598 41.3986132 13.2465598C40.9489205 13.7916418 40.0904161 14.2822157 39.0002518 14.2822157 36.7245341 14.2822157 34.639595 12.2994796 34.639595 9.74440721 34.639595 7.1757078 36.7245341 5.17253107 39.0002518 5.17253107 40.0836026 5.17253107 40.9489205 5.65629144 41.3986132 6.18774649L41.4667484 6.18774649 41.4667484 5.53364796zM41.603019 9.74440721C41.603019 8.13641501 40.5332953 6.96448849 39.17059 6.96448849 37.7942577 6.96448849 36.6359583 8.13641501 36.6359583 9.74440721 36.6359583 11.3319589 37.7942577 12.4834448 39.17059 12.4834448 40.5332953 12.4902584 41.603019 11.3319589 41.603019 9.74440721zM23.86741 9.71033958C23.86741 12.3335473 21.8233521 14.2617752 19.3159745 14.2617752 16.8085968 14.2617752 14.7645388 12.3267337 14.7645388 9.71033958 14.7645388 7.0735049 16.8085968 5.1520905 19.3159745 5.1520905 21.8233521 5.1520905 23.86741 7.0735049 23.86741 9.71033958zM21.8778603 9.71033958C21.8778603 8.07509327 20.6923067 6.95086143 19.3159745 6.95086143 17.9396421 6.95086143 16.7540885 8.07509327 16.7540885 9.71033958 16.7540885 11.3319589 17.9396421 12.4698178 19.3159745 12.4698178 20.6923067 12.4698178 21.8778603 11.3319589 21.8778603 9.71033958zM33.8083448 9.73078017C33.8083448 12.3539878 31.764287 14.2822157 29.2569093 14.2822157 26.7495316 14.2822157 24.7054737 12.3539878 24.7054737 9.73078017 24.7054737 7.09394549 26.7495316 5.1793446 29.2569093 5.1793446 31.764287 5.1793446 33.8083448 7.08713195 33.8083448 9.73078017zM31.8119817 9.73078017C31.8119817 8.09553385 30.6264281 6.97130201 29.2500958 6.97130201 27.8737634 6.97130201 26.6882098 8.09553385 26.6882098 9.73078017 26.6882098 11.3523994 27.8737634 12.4902584 29.2500958 12.4902584 30.6332416 12.4902584 31.8119817 11.3455859 31.8119817 9.73078017z"/>
    <path d="M7.28328699,12.2858525 C4.42841947,12.2858525 2.19358285,9.98288063 2.19358285,7.12801311 C2.19358285,4.2731456 4.42841947,1.97017371 7.28328699,1.97017371 C8.82314394,1.97017371 9.94737578,2.57657755 10.778626,3.35331955 L12.1481448,1.98380077 C10.9898452,0.873195983 9.44317483,0.0283187184 7.28328699,0.0283187184 C3.37232291,0.0283187184 0.0813897009,3.21704902 0.0813897009,7.12801311 C0.0813897009,11.0389772 3.37232291,14.2277075 7.28328699,14.2277075 C9.39548015,14.2277075 10.9898452,13.5327278 12.2367206,12.2381579 C13.5176636,10.957215 13.9128481,9.15844395 13.9128481,7.70034933 C13.9128481,7.24384306 13.8583399,6.77370975 13.7970182,6.42621991 L7.28328699,6.42621991 L7.28328699,8.32038022 L11.9232984,8.32038022 C11.7870279,9.5059338 11.412284,10.3167434 10.8603883,10.8686391 C10.1926627,11.5431782 9.13656614,12.2858525 7.28328699,12.2858525 Z"/>
  </g>
</svg>
