<svg xmlns="http://www.w3.org/2000/svg" width="56" height="56" viewBox="0 0 56 56">
  <path d="M33.9370467,26.5128481 C34.0071746,34.0650232 40.5622987,36.5781967 40.6349206,36.6102741 C40.579494,36.787517 39.5875211,40.1917925 37.1813698,43.708166 C35.1013579,46.748249 32.9425798,49.7771957 29.5418665,49.8399278 C26.2003256,49.9014987 25.1258336,47.8583854 21.3055063,47.8583854 C17.486333,47.8583854 16.2925236,49.7771906 13.129383,49.9014987 C9.84683186,50.0257159 7.34720367,46.6140516 5.24990601,43.5851051 C0.964332248,37.3892927 -2.31073284,26.0771949 2.08685175,18.4413444 C4.27147795,14.64935 8.17557011,12.2481009 12.4131131,12.1865253 C15.6364944,12.125039 18.6789832,14.3551087 20.649477,14.3551087 C22.6187214,14.3551087 26.3159929,11.6732544 30.2027979,12.0671186 C31.8299473,12.1348421 36.3973824,12.7243949 39.3302579,17.0173633 C39.0939405,17.1638624 33.880373,20.1989532 33.9370467,26.5128552 M27.6570067,7.96804814 C29.3997351,5.85854475 30.5726917,2.92192094 30.2526965,0 C27.7406844,0.100960353 24.7030975,1.67393506 22.9012871,3.78227787 C21.286519,5.64931362 19.8723452,8.63762341 20.2539138,11.5017132 C23.0538462,11.7183402 25.9141925,10.078893 27.6570067,7.96805157" transform="translate(8 3)"/>
</svg>
