<?xml version="1.0" encoding="UTF-8"?>
<svg width="56px" height="56px" viewBox="0 0 56 56" version="1.1" xmlns="http://www.w3.org/2000/svg" xmlns:xlink="http://www.w3.org/1999/xlink">
    <!-- Generator: Sketch 52.1 (67048) - http://www.bohemiancoding.com/sketch -->
    <title>menu</title>
    <desc>Created with Sketch.</desc>
    <g id="Page-1" stroke="none" stroke-width="1" fill="none" fill-rule="evenodd">
        <g id="menu" transform="translate(7.000000, 16.000000)" fill="#000000">
            <circle id="Oval-82" cx="3" cy="3" r="3"></circle>
            <circle id="Oval-82-Copy" cx="3" cy="13" r="3"></circle>
            <circle id="Oval-82-Copy-2" cx="3" cy="23" r="3"></circle>
            <path d="M9,3 C9,1.8954305 9.88926172,1 11.0017433,1 L38.9982567,1 C40.103789,1 41,1.88772964 41,3 C41,4.1045695 40.1107383,5 38.9982567,5 L11.0017433,5 C9.89621101,5 9,4.11227036 9,3 Z" id="Rectangle-39"></path>
            <path d="M9,13 C9,11.8954305 9.88926172,11 11.0017433,11 L38.9982567,11 C40.103789,11 41,11.8877296 41,13 C41,14.1045695 40.1107383,15 38.9982567,15 L11.0017433,15 C9.89621101,15 9,14.1122704 9,13 Z" id="Rectangle-39"></path>
            <path d="M9,23 C9,21.8954305 9.88926172,21 11.0017433,21 L38.9982567,21 C40.103789,21 41,21.8877296 41,23 C41,24.1045695 40.1107383,25 38.9982567,25 L11.0017433,25 C9.89621101,25 9,24.1122704 9,23 Z" id="Rectangle-39"></path>
        </g>
    </g>
</svg>