<?xml version="1.0" encoding="UTF-8"?>
<svg width="56px" height="56px" viewBox="0 0 56 56" version="1.1" xmlns="http://www.w3.org/2000/svg" xmlns:xlink="http://www.w3.org/1999/xlink">
    <!-- Generator: Sketch 52.1 (67048) - http://www.bohemiancoding.com/sketch -->
    <title>menu</title>
    <desc>Created with Sketch.</desc>
    <g id="Page-1" stroke="none" stroke-width="1" fill="none" fill-rule="evenodd">
        <g id="menu" transform="translate(8.000000, 16.000000)" fill="#000000">
            <circle id="Oval-82" cx="2" cy="2" r="2"></circle>
            <circle id="Oval-82-Copy" cx="2" cy="12" r="2"></circle>
            <circle id="Oval-82-Copy-2" cx="2" cy="22" r="2"></circle>
            <path d="M8,2 C8,0.8954305 8.88926172,0 10.0017433,0 L37.9982567,0 C39.103789,0 40,0.887729645 40,2 C40,3.1045695 39.1107383,4 37.9982567,4 L10.0017433,4 C8.89621101,4 8,3.11227036 8,2 Z" id="Rectangle-39"></path>
            <path d="M8,12 C8,10.8954305 8.88926172,10 10.0017433,10 L37.9982567,10 C39.103789,10 40,10.8877296 40,12 C40,13.1045695 39.1107383,14 37.9982567,14 L10.0017433,14 C8.89621101,14 8,13.1122704 8,12 Z" id="Rectangle-39"></path>
            <path d="M8,22 C8,20.8954305 8.88926172,20 10.0017433,20 L37.9982567,20 C39.103789,20 40,20.8877296 40,22 C40,23.1045695 39.1107383,24 37.9982567,24 L10.0017433,24 C8.89621101,24 8,23.1122704 8,22 Z" id="Rectangle-39"></path>
        </g>
    </g>
</svg>