<?xml version="1.0" encoding="UTF-8"?>
<svg width="56px" height="56px" viewBox="0 0 56 56" version="1.1" xmlns="http://www.w3.org/2000/svg" xmlns:xlink="http://www.w3.org/1999/xlink">
    <!-- Generator: Sketch 52.1 (67048) - http://www.bohemiancoding.com/sketch -->
    <title>message</title>
    <desc>Created with Sketch.</desc>
    <g id="Page-1" stroke="none" stroke-width="1" fill="none" fill-rule="evenodd">
        <g id="message" transform="translate(4.000000, 5.000000)" fill="#000000">
            <path d="M16.3190119,36.1428028 C17.6585299,35.6836476 19.0238655,35.5833549 20.4401791,35.8857851 C21.5807535,36.0478339 22.7393907,36.13 23.912,36.13 C35.0489613,36.13 43.824,28.7663489 43.824,20.064 C43.824,11.3634134 35.0486404,4 23.912,4 C12.7740903,4 4,11.3627737 4,20.064 C4,24.5562454 6.32798725,28.8094034 10.4103624,31.8510459 C10.5126921,31.926132 10.7470002,32.0911462 11.0043698,32.2694445 C11.1182376,32.3483288 11.2273588,32.4233964 11.3103144,32.4799546 C11.2930605,32.4681552 11.3595785,32.5128637 11.268155,32.458581 L11.4381887,32.5595385 L11.5974355,32.6767745 C13.225665,33.8754615 14.0027951,35.4813241 14.1121229,37.2328571 C14.9856021,36.7471447 15.8250474,36.3121222 16.3190119,36.1428028 Z M0,20.064 C0,8.984 10.704,0 23.912,0 C37.118,0 47.824,8.984 47.824,20.064 C47.824,31.146 37.118,40.13 23.912,40.13 C22.478,40.13 21.076,40.024 19.712,39.822 C19.71,39.822 19.706,39.82 19.704,39.82 C16.474,39.05 15.106,42.642 7.746,44.504 C6.234,44.888 6.052,44.506 7.21,43.278 C9.306,41.06 11.326,37.444 9.226,35.898 C9.162,35.86 8.352,35.302 8.044,35.076 C3.11,31.4 0,26.034 0,20.064 Z" fill-rule="nonzero"></path>
            <path d="M13,13 C13,11.8954305 13.8915398,11 14.9972916,11 L33.0027084,11 C34.1057821,11 35,11.8877296 35,13 C35,14.1045695 34.1084602,15 33.0027084,15 L14.9972916,15 C13.8942179,15 13,14.1122704 13,13 Z" id="Rectangle-39"></path>
            <path d="M13,20 C13,18.8954305 13.8915398,18 14.9972916,18 L33.0027084,18 C34.1057821,18 35,18.8877296 35,20 C35,21.1045695 34.1084602,22 33.0027084,22 L14.9972916,22 C13.8942179,22 13,21.1122704 13,20 Z" id="Rectangle-39"></path>
            <path d="M13,27 C13,25.8954305 13.8915398,25 14.9972916,25 L27.0027084,25 C28.1057821,25 29,25.8877296 29,27 C29,28.1045695 28.1084602,29 27.0027084,29 L14.9972916,29 C13.8942179,29 13,28.1122704 13,27 Z" id="Rectangle-39"></path>
        </g>
        <g id="bars" transform="translate(17.000000, 16.000000)" fill="#000000">
            <path d="M1.8189894e-12,2 C1.8189894e-12,0.8954305 0.891539827,0 1.99729162,0 L20.0027084,0 C21.1057821,0 22,0.887729645 22,2 C22,3.1045695 21.1084602,4 20.0027084,4 L1.99729162,4 C0.894217919,4 1.8189894e-12,3.11227036 1.8189894e-12,2 Z" id="Rectangle-39"></path>
            <path d="M1.8189894e-12,9 C1.8189894e-12,7.8954305 0.891539827,7 1.99729162,7 L20.0027084,7 C21.1057821,7 22,7.88772964 22,9 C22,10.1045695 21.1084602,11 20.0027084,11 L1.99729162,11 C0.894217919,11 1.8189894e-12,10.1122704 1.8189894e-12,9 Z" id="Rectangle-39"></path>
            <path d="M1.8189894e-12,16 C1.8189894e-12,14.8954305 0.891539827,14 1.99729162,14 L14.0027084,14 C15.1057821,14 16,14.8877296 16,16 C16,17.1045695 15.1084602,18 14.0027084,18 L1.99729162,18 C0.894217919,18 1.8189894e-12,17.1122704 1.8189894e-12,16 Z" id="Rectangle-39"></path>
        </g>
    </g>
</svg>