<svg xmlns="http://www.w3.org/2000/svg" width="56" height="56" viewBox="0 0 56 56">
  <path fill-rule="evenodd" d="M23.912,0 C37.118,0 47.824,8.984 47.824,20.064 C47.824,31.146 37.118,40.13 23.912,40.13 C22.478,40.13 21.076,40.024 19.71,39.822 L19.712,39.822 C19.71,39.822 19.706,39.82 19.704,39.82 C16.474,39.05 15.106,42.642 7.746,44.504 C6.234,44.888 6.052,44.506 7.21,43.278 C9.306,41.06 11.326,37.444 9.226,35.898 C9.162,35.86 8.352,35.302 8.044,35.076 C3.11,31.4 2.55795385e-13,26.034 2.55795385e-13,20.064 C2.55795385e-13,8.984 10.704,0 23.912,0 Z M13,13 C13,14.1122704 13.8942179,15 14.9972916,15 L33.0027084,15 C34.1084602,15 35,14.1045695 35,13 C35,11.8877296 34.1057821,11 33.0027084,11 L14.9972916,11 C13.8915398,11 13,11.8954305 13,13 Z M13,20 C13,21.1122704 13.8942179,22 14.9972916,22 L33.0027084,22 C34.1084602,22 35,21.1045695 35,20 C35,18.8877296 34.1057821,18 33.0027084,18 L14.9972916,18 C13.8915398,18 13,18.8954305 13,20 Z M13,27 C13,28.1122704 13.8942179,29 14.9972916,29 L27.0027084,29 C28.1084602,29 29,28.1045695 29,27 C29,25.8877296 28.1057821,25 27.0027084,25 L14.9972916,25 C13.8915398,25 13,25.8954305 13,27 Z" transform="translate(4 5)"/>
</svg>
