<svg xmlns="http://www.w3.org/2000/svg" width="56" height="56" viewBox="0 0 56 56">
  <g fill-rule="evenodd" transform="translate(15 5)">
    <path d="M14.5,43 L19.4947588,43 C20.3260806,43 21,43.6657972 21,44.5 C21,45.3284271 20.3328702,46 19.4947588,46 L6.50524116,46 C5.67391942,46 5,45.3342028 5,44.5 C5,43.6715729 5.66712976,43 6.50524116,43 L11.5,43 L11.5,36.9143964 C5.02684259,36.1706981 0,30.6723901 0,24 L0,17.5 C-1.01453063e-16,16.6715729 0.671572875,16 1.5,16 C2.32842712,16 3,16.6715729 3,17.5 L3,24 C3,29.5228475 7.4771525,34 13,34 C18.5228475,34 23,29.5228475 23,24 L23,17.5 C23,16.6715729 23.6715729,16 24.5,16 C25.3284271,16 26,16.6715729 26,17.5 L26,24 C26,30.6723901 20.9731574,36.1706981 14.5,36.9143964 L14.5,43 Z"/>
    <path fill-rule="nonzero" d="M13,3 C10.5147186,3 8.5,5.01471863 8.5,7.5 L8.5,23.5 C8.5,25.9852814 10.5147186,28 13,28 C15.4852814,28 17.5,25.9852814 17.5,23.5 L17.5,7.5 C17.5,5.01471863 15.4852814,3 13,3 Z M13,0 C17.1421356,-7.6089797e-16 20.5,3.35786438 20.5,7.5 L20.5,23.5 C20.5,27.6421356 17.1421356,31 13,31 C8.85786438,31 5.5,27.6421356 5.5,23.5 L5.5,7.5 C5.5,3.35786438 8.85786438,7.6089797e-16 13,0 Z"/>
  </g>
</svg>
