<svg xmlns="http://www.w3.org/2000/svg" width="56" height="56" viewBox="0 0 56 56">
  <path fill-rule="evenodd" d="M28,56 C12.536027,56 0,43.463973 0,28 C0,12.536027 12.536027,0 28,0 C43.463973,0 56,12.536027 56,28 C56,43.463973 43.463973,56 28,56 Z M28,10 C24.6862915,10 22,12.6862915 22,16 L22,29 C22,32.3137085 24.6862915,35 28,35 C31.3137085,35 34,32.3137085 34,29 L34,16 C34,12.6862915 31.3137085,10 28,10 Z M29,38.9506248 C34.0533227,38.4489003 38,34.1853481 38,29 L38,24 C38,23.4477153 37.5522847,23 37,23 C36.4477153,23 36,23.4477153 36,24 L36,29 C36,33.418278 32.418278,37 28,37 C23.581722,37 20,33.418278 20,29 L20,24 C20,23.4477153 19.5522847,23 19,23 C18.4477153,23 18,23.4477153 18,24 L18,29 C18,34.1853481 21.9466773,38.4489003 27,38.9506248 L27,44 L22,44 C21.4477153,44 21,44.4477153 21,45 C21,45.5522847 21.4477153,46 22,46 L34,46 C34.5522847,46 35,45.5522847 35,45 C35,44.4477153 34.5522847,44 34,44 L29,44 L29,38.9506248 Z"/>
</svg>
