<svg xmlns="http://www.w3.org/2000/svg" width="56" height="56" viewBox="0 0 56 56">
  <g fill-rule="evenodd">
    <path fill-rule="nonzero" d="M28,52 C41.254834,52 52,41.254834 52,28 C52,14.745166 41.254834,4 28,4 C14.745166,4 4,14.745166 4,28 C4,41.254834 14.745166,52 28,52 Z M28,56 C12.536027,56 0,43.463973 0,28 C0,12.536027 12.536027,0 28,0 C43.463973,0 56,12.536027 56,28 C56,43.463973 43.463973,56 28,56 Z"/>
    <path d="M28,10 C31.3137085,10 34,12.6862915 34,16 L34,29 C34,32.3137085 31.3137085,35 28,35 C24.6862915,35 22,32.3137085 22,29 L22,16 C22,12.6862915 24.6862915,10 28,10 Z"/>
    <path d="M29,38.9506248 L29,44 L34,44 C34.5522847,44 35,44.4477153 35,45 C35,45.5522847 34.5522847,46 34,46 L22,46 C21.4477153,46 21,45.5522847 21,45 C21,44.4477153 21.4477153,44 22,44 L27,44 L27,38.9506248 C21.9466773,38.4489003 18,34.1853481 18,29 L18,24 C18,23.4477153 18.4477153,23 19,23 C19.5522847,23 20,23.4477153 20,24 L20,29 C20,33.418278 23.581722,37 28,37 C32.418278,37 36,33.418278 36,29 L36,24 C36,23.4477153 36.4477153,23 37,23 C37.5522847,23 38,23.4477153 38,24 L38,29 C38,34.1853481 34.0533227,38.4489003 29,38.9506248 Z"/>
  </g>
</svg>
