<svg xmlns="http://www.w3.org/2000/svg" width="56" height="56" viewBox="0 0 56 56">
  <g fill-rule="evenodd" transform="translate(9 4)">
    <path d="M26.0765622,32.0655691 L27.9060882,34.4700889 C25.9220228,36.3367028 23.3513229,37.5868091 20.5,37.9143964 L20.5,44 L25.4947588,44 C26.3260806,44 27,44.6657972 27,45.5 C27,46.3284271 26.3328702,47 25.4947588,47 L12.5052412,47 C11.6739194,47 11,46.3342028 11,45.5 C11,44.6715729 11.6671298,44 12.5052412,44 L17.5,44 L17.5,37.9143964 C11.0268426,37.1706981 6,31.6723901 6,25 L6,18.5 C6,17.6715729 6.67157288,17 7.5,17 C8.32842712,17 9,17.6715729 9,18.5 L9,25 C9,30.5228475 13.4771525,35 19,35 C21.7642196,35 24.2664858,33.8784443 26.0765622,32.0655691 Z M28.3767844,28.4828458 C28.779784,27.3982865 29,26.2248603 29,25 L29,18.5 C29,17.6715729 29.6715729,17 30.5,17 C31.3284271,17 32,17.6715729 32,18.5 L32,25 C32,27.2403543 31.4332835,29.348345 30.4353859,31.1884364 L28.3767844,28.4828458 Z"/>
    <path d="M26.3778035,25.8556138 L11.738697,6.61564522 C12.5745263,3.38559186 15.5086707,1 19,1 C23.1421356,1 26.5,4.35786438 26.5,8.5 L26.5,24.5 C26.5,24.9628613 26.4580708,25.4159296 26.3778035,25.8556138 Z M24.3327443,29.7736941 C22.97325,31.1483153 21.0860858,32 19,32 C14.8578644,32 11.5,28.6421356 11.5,24.5 L11.5,12.9078016 L24.3327443,29.7736941 Z"/>
    <path fill-rule="nonzero" d="M1.59165739,1.21104366 C2.47070549,0.542202717 3.72551749,0.712609286 4.39435844,1.59165739 L36.9722711,44.4083426 C37.6411121,45.2873907 37.4707055,46.5422027 36.5916574,47.2110437 C35.7126093,47.8798846 34.4577973,47.709478 33.7889563,46.8304299 L1.21104366,4.01374472 C0.542202717,3.13469662 0.712609286,1.87988461 1.59165739,1.21104366 Z"/>
  </g>
</svg>
