<?xml version="1.0" encoding="UTF-8"?>
<svg width="50px" height="50px" viewBox="0 0 50 50" version="1.1" xmlns="http://www.w3.org/2000/svg" xmlns:xlink="http://www.w3.org/1999/xlink">
    <!-- Generator: Sketch 40.1 (33804) - http://www.bohemiancoding.com/sketch -->
    <title>money_rubl_fill</title>
    <desc>Created with Sketch.</desc>
    <defs></defs>
    <g id="Page-1" stroke="none" stroke-width="1" fill="none" fill-rule="evenodd">
        <g id="money_rubl_fill" fill="#000000">
            <path d="M25,50 C38.8071187,50 50,38.8071187 50,25 C50,11.1928813 38.8071187,0 25,0 C11.1928813,0 0,11.1928813 0,25 C0,38.8071187 11.1928813,50 25,50 Z M21.2421875,14.7792969 L25.9179688,14.7792969 C29.8378906,14.7792969 31.9824219,16.90625 31.9824219,20.28125 C31.9824219,23.6738281 29.8203125,25.8007812 25.9179688,25.8007812 L21.2421875,25.8007812 L21.2421875,14.7792969 Z M28.7128906,33.4648438 L28.7128906,31.6015625 L21.2421875,31.6015625 L21.2421875,27.9101562 L26.4628906,27.9101562 C31.296875,27.9101562 34.4433594,24.7636719 34.4433594,20.28125 C34.4433594,15.8164062 31.3144531,12.6347656 26.4804688,12.6347656 L18.8515625,12.6347656 L18.8515625,25.8007812 L15.3359375,25.8007812 L15.3359375,27.9101562 L18.8515625,27.9101562 L18.8515625,31.6015625 L15.3359375,31.6015625 L15.3359375,33.4648438 L18.8515625,33.4648438 L18.8515625,38 L21.2421875,38 L21.2421875,33.4648438 L28.7128906,33.4648438 Z" id="Combined-Shape"></path>
        </g>
    </g>
</svg>