<svg xmlns="http://www.w3.org/2000/svg" width="56" height="56" viewBox="0 0 56 56">
  <g fill-rule="evenodd">
    <path fill-rule="nonzero" d="M4,28 C4,41.254834 14.745166,52 28,52 C41.254834,52 52,41.254834 52,28 C52,14.745166 41.254834,4 28,4 C14.745166,4 4,14.745166 4,28 Z M0,28 C0,12.536027 12.536027,0 28,0 C43.463973,0 56,12.536027 56,28 C56,43.463973 43.463973,56 28,56 C12.536027,56 0,43.463973 0,28 Z"/>
    <path d="M28.6689453,30.0351562 L28.6689453,37.6611328 C31.8417969,37.4199219 33.1777344,35.9169922 33.1777344,33.9316406 C33.1777344,32.0205078 32.1386719,30.8886719 28.6689453,30.0351562 Z M26.5722656,25.7490234 L26.5722656,18.5126953 C23.9003906,18.8466797 22.4902344,20.3867188 22.4902344,22.0751953 C22.4902344,23.7636719 23.6035156,25.0068359 26.5722656,25.7490234 Z M28.6689453,26.25 L29.5595703,26.4726562 C34.4394531,27.6044922 37.1113281,29.6083984 37.1113281,33.5605469 C37.1113281,38.1064453 33.4003906,40.6855469 28.6689453,41.0195312 L28.6689453,44.1367188 L26.5722656,44.1367188 L26.5722656,41.0195312 C21.859375,40.6669922 18.1298828,38.0136719 18,33.5605469 L21.8408203,33.5605469 C22.1748047,35.7314453 23.5849609,37.3271484 26.5722656,37.6425781 L26.5722656,29.5527344 L25.8115234,29.3671875 C21.0986328,28.2724609 18.5566406,26.1572266 18.5566406,22.390625 C18.5566406,18.234375 21.8964844,15.4882812 26.5722656,15.1357422 L26.5722656,12 L28.6689453,12 L28.6689453,15.1357422 C33.3076172,15.5068359 36.6660156,18.2900391 36.8144531,22.5019531 L32.9550781,22.5019531 C32.7138672,20.1640625 31.0439453,18.8095703 28.6689453,18.5126953 L28.6689453,26.25 Z"/>
  </g>
</svg>
