<?xml version="1.0" encoding="UTF-8"?>
<svg width="50px" height="50px" viewBox="0 0 50 50" version="1.1" xmlns="http://www.w3.org/2000/svg" xmlns:xlink="http://www.w3.org/1999/xlink">
    <!-- Generator: Sketch 40.1 (33804) - http://www.bohemiancoding.com/sketch -->
    <title>money_yen_fill</title>
    <desc>Created with Sketch.</desc>
    <defs></defs>
    <g id="Page-1" stroke="none" stroke-width="1" fill="none" fill-rule="evenodd">
        <g id="money_yen_fill" fill="#000000">
            <path d="M25,50 C38.8071187,50 50,38.8071187 50,25 C50,11.1928813 38.8071187,0 25,0 C11.1928813,0 0,11.1928813 0,25 C0,38.8071187 11.1928813,50 25,50 Z M31.2617188,32.5507812 L31.2617188,30.7050781 L25.9179688,30.7050781 L25.9179688,27.4707031 L31.2617188,27.4707031 L31.2617188,25.6074219 L26.7265625,25.6074219 L35.0058594,12.6347656 L32.2460938,12.6347656 L24.7753906,24.5 L24.6699219,24.5 L17.1816406,12.6347656 L14.421875,12.6347656 L22.71875,25.6074219 L18.1660156,25.6074219 L18.1660156,27.4707031 L23.5273438,27.4707031 L23.5273438,30.7050781 L18.1660156,30.7050781 L18.1660156,32.5507812 L23.5273438,32.5507812 L23.5273438,38 L25.9179688,38 L25.9179688,32.5507812 L31.2617188,32.5507812 Z" id="Combined-Shape"></path>
        </g>
    </g>
</svg>