<?xml version="1.0" encoding="UTF-8"?>
<svg width="56px" height="56px" viewBox="0 0 56 56" version="1.1" xmlns="http://www.w3.org/2000/svg" xmlns:xlink="http://www.w3.org/1999/xlink">
    <!-- Generator: Sketch 52.1 (67048) - http://www.bohemiancoding.com/sketch -->
    <title>money_rubl_round</title>
    <desc>Created with Sketch.</desc>
    <g id="Page-1" stroke="none" stroke-width="1" fill="none" fill-rule="evenodd">
        <g id="money_rubl_round" fill="#000000">
            <path d="M28,52 C41.254834,52 52,41.254834 52,28 C52,14.745166 41.254834,4 28,4 C14.745166,4 4,14.745166 4,28 C4,41.254834 14.745166,52 28,52 Z M28,56 C12.536027,56 0,43.463973 0,28 C0,12.536027 12.536027,0 28,0 C43.463973,0 56,12.536027 56,28 C56,43.463973 43.463973,56 28,56 Z" id="Oval" fill-rule="nonzero"></path>
            <path d="M24.7558594,18.4697266 L24.7558594,28.1923828 L28.6337891,28.1923828 C32.2333984,28.1923828 34.0332031,26.2998047 34.0332031,23.3125 C34.0332031,20.34375 32.2333984,18.4697266 28.6523438,18.4697266 L24.7558594,18.4697266 Z M29.6542969,31.5322266 L24.7558594,31.5322266 L24.7558594,35.1318359 L32.1962891,35.1318359 L32.1962891,37.2285156 L24.7558594,37.2285156 L24.7558594,41.2734375 L20.6552734,41.2734375 L20.6552734,37.2285156 L17,37.2285156 L17,35.1318359 L20.6552734,35.1318359 L20.6552734,31.5322266 L17,31.5322266 L17,29.4169922 L20.6552734,29.4169922 L20.6552734,15 L29.7841797,15 C34.8867188,15 38.2080078,18.5253906 38.2080078,23.2939453 C38.2080078,28.0439453 34.8125,31.5322266 29.6542969,31.5322266 Z" id="₽"></path>
        </g>
    </g>
</svg>