<svg xmlns="http://www.w3.org/2000/svg" width="56" height="56" viewBox="0 0 56 56">
  <g fill-rule="evenodd">
    <path fill-rule="nonzero" d="M28,52 C41.254834,52 52,41.254834 52,28 C52,14.745166 41.254834,4 28,4 C14.745166,4 4,14.745166 4,28 C4,41.254834 14.745166,52 28,52 Z M28,56 C12.536027,56 0,43.463973 0,28 C0,12.536027 12.536027,0 28,0 C43.463973,0 56,12.536027 56,28 C56,43.463973 43.463973,56 28,56 Z"/>
    <polygon points="39.47 15 31.324 28.786 36.575 28.786 36.575 30.883 30.248 30.883 30.248 33.833 36.575 33.833 36.575 35.93 30.248 35.93 30.248 41.255 26.203 41.255 26.203 35.93 19.876 35.93 19.876 33.833 26.203 33.833 26.203 30.883 19.876 30.883 19.876 28.786 25.127 28.786 17 15 21.527 15 28.188 26.912 28.3 26.912 34.961 15"/>
  </g>
</svg>
