<?xml version="1.0" encoding="UTF-8"?>
<svg width="50px" height="50px" viewBox="0 0 50 50" version="1.1" xmlns="http://www.w3.org/2000/svg" xmlns:xlink="http://www.w3.org/1999/xlink">
    <!-- Generator: Sketch 40.1 (33804) - http://www.bohemiancoding.com/sketch -->
    <title>money_yen</title>
    <desc>Created with Sketch.</desc>
    <defs></defs>
    <g id="Page-1" stroke="none" stroke-width="1" fill="none" fill-rule="evenodd">
        <g id="money_yen" fill="#000000">
            <path d="M48,25 C48,12.2974508 37.7025492,2 25,2 C12.2974508,2 2,12.2974508 2,25 C2,37.7025492 12.2974508,48 25,48 C37.7025492,48 48,37.7025492 48,25 Z M0,25 C0,11.1928813 11.1928813,0 25,0 C38.8071187,0 50,11.1928813 50,25 C50,38.8071187 38.8071187,50 25,50 C11.1928813,50 0,38.8071187 0,25 Z" id="Oval-43"></path>
            <polygon id="¥" points="31.2617188 32.5507812 31.2617188 30.7050781 25.9179688 30.7050781 25.9179688 27.4707031 31.2617188 27.4707031 31.2617188 25.6074219 26.7265625 25.6074219 35.0058594 12.6347656 32.2460938 12.6347656 24.7753906 24.5 24.6699219 24.5 17.1816406 12.6347656 14.421875 12.6347656 22.71875 25.6074219 18.1660156 25.6074219 18.1660156 27.4707031 23.5273438 27.4707031 23.5273438 30.7050781 18.1660156 30.7050781 18.1660156 32.5507812 23.5273438 32.5507812 23.5273438 38 25.9179688 38 25.9179688 32.5507812"></polygon>
        </g>
    </g>
</svg>