<svg xmlns="http://www.w3.org/2000/svg" width="56" height="56" viewBox="0 0 56 56">
  <path fill-rule="evenodd" d="M28,56 C12.536027,56 0,43.463973 0,28 C0,12.536027 12.536027,0 28,0 C43.463973,0 56,12.536027 56,28 C56,43.463973 43.463973,56 28,56 Z M33.1464844,32.1074219 L33.1464844,30.0107422 L22.6816406,30.0107422 C22.6445312,29.5097656 22.6074219,28.9902344 22.6074219,28.4335938 C22.6074219,27.8769531 22.6445312,27.3388672 22.7001953,26.8193359 L33.1464844,26.8193359 L33.1464844,24.7226562 L23.1269531,24.7226562 C24.3330078,20.6962891 27.6542969,18.6181641 31.8476562,18.6181641 C33.1279297,18.6181641 34.6494141,18.7666016 35.4472656,18.9521484 L35.4472656,15.4267578 C34.6865234,15.1855469 33.0722656,15 31.8105469,15 C25.4277344,15 20.2324219,18.3212891 18.8222656,24.7226562 L15,24.7226562 L15,26.8193359 L18.5068359,26.8193359 C18.4511719,27.3388672 18.4326172,27.8769531 18.4326172,28.4335938 C18.4326172,28.9716797 18.4511719,29.5097656 18.5068359,30.0107422 L15,30.0107422 L15,32.1074219 L18.8222656,32.1074219 C20.2324219,38.5087891 25.4091797,41.8486328 31.8291016,41.8486328 C33.1279297,41.8486328 34.6679688,41.7001953 35.4658203,41.4775391 L35.4658203,37.9335938 C34.7236328,38.1376953 33.1650391,38.2490234 31.8291016,38.2490234 C27.6171875,38.2490234 24.3144531,36.1523438 23.1083984,32.1074219 L33.1464844,32.1074219 Z"/>
</svg>
