<svg xmlns="http://www.w3.org/2000/svg" width="56" height="56" viewBox="0 0 56 56">
  <path fill-rule="evenodd" d="M28,56 C12.536027,56 0,43.463973 0,28 C0,12.536027 12.536027,0 28,0 C43.463973,0 56,12.536027 56,28 C56,43.463973 43.463973,56 28,56 Z M24.7558594,18.4697266 L28.6523438,18.4697266 C32.2333984,18.4697266 34.0332031,20.34375 34.0332031,23.3125 C34.0332031,26.2998047 32.2333984,28.1923828 28.6337891,28.1923828 L24.7558594,28.1923828 L24.7558594,18.4697266 Z M29.6542969,31.5322266 C34.8125,31.5322266 38.2080078,28.0439453 38.2080078,23.2939453 C38.2080078,18.5253906 34.8867188,15 29.7841797,15 L20.6552734,15 L20.6552734,29.4169922 L17,29.4169922 L17,31.5322266 L20.6552734,31.5322266 L20.6552734,35.1318359 L17,35.1318359 L17,37.2285156 L20.6552734,37.2285156 L20.6552734,41.2734375 L24.7558594,41.2734375 L24.7558594,37.2285156 L32.1962891,37.2285156 L32.1962891,35.1318359 L24.7558594,35.1318359 L24.7558594,31.5322266 L29.6542969,31.5322266 Z"/>
</svg>
