<svg xmlns="http://www.w3.org/2000/svg" width="56" height="56" viewBox="0 0 56 56">
  <path fill-rule="evenodd" d="M28,56 C12.536027,56 0,43.463973 0,28 C0,12.536027 12.536027,0 28,0 C43.463973,0 56,12.536027 56,28 C56,43.463973 43.463973,56 28,56 Z M23.9189453,38.15625 L23.9189453,38.0634766 C25.8671875,37.1914062 27.0546875,34.9091797 27.0546875,31.9960938 C27.0546875,31.1425781 26.9619141,30.3818359 26.8320312,29.6767578 L34.9775391,29.6767578 L34.9775391,27.0048828 L26.1826172,27.0048828 C25.9228516,25.9658203 25.7001953,24.8710938 25.7001953,23.5166016 C25.7001953,20.4921875 27.9082031,18.4697266 31.5820312,18.4697266 C33.734375,18.4697266 35.5712891,18.8408203 36.7216797,19.3417969 L36.7216797,15.9277344 C35.7382812,15.4638672 33.5488281,15 31.0810547,15 C25.2363281,15 21.5439453,18.3027344 21.5439453,23.4794922 C21.5439453,24.6484375 21.7666016,25.8359375 22.0263672,27.0048828 L18,27.0048828 L18,29.6767578 L22.6757812,29.6767578 C22.8798828,30.5673828 23.0283203,31.4023438 23.0283203,32.1630859 C23.0283203,35.1503906 21.3955078,37.7851562 18.0556641,38.2861328 L18.0556641,41.5888672 L38.0205078,41.5888672 L38.0205078,38.15625 L23.9189453,38.15625 Z"/>
</svg>
