<?xml version="1.0" encoding="UTF-8"?>
<svg width="56px" height="56px" viewBox="0 0 56 56" version="1.1" xmlns="http://www.w3.org/2000/svg" xmlns:xlink="http://www.w3.org/1999/xlink">
    <!-- Generator: Sketch 52.1 (67048) - http://www.bohemiancoding.com/sketch -->
    <title>money_yen_round</title>
    <desc>Created with Sketch.</desc>
    <g id="Page-1" stroke="none" stroke-width="1" fill="none" fill-rule="evenodd">
        <g id="money_yen_round" fill="#000000">
            <path d="M28,52 C41.254834,52 52,41.254834 52,28 C52,14.745166 41.254834,4 28,4 C14.745166,4 4,14.745166 4,28 C4,41.254834 14.745166,52 28,52 Z M28,56 C12.536027,56 0,43.463973 0,28 C0,12.536027 12.536027,0 28,0 C43.463973,0 56,12.536027 56,28 C56,43.463973 43.463973,56 28,56 Z" id="Oval" fill-rule="nonzero"></path>
            <polygon id="¥" points="39.4697266 15 31.3242188 28.7861328 36.5751953 28.7861328 36.5751953 30.8828125 30.2480469 30.8828125 30.2480469 33.8330078 36.5751953 33.8330078 36.5751953 35.9296875 30.2480469 35.9296875 30.2480469 41.2548828 26.203125 41.2548828 26.203125 35.9296875 19.8759766 35.9296875 19.8759766 33.8330078 26.203125 33.8330078 26.203125 30.8828125 19.8759766 30.8828125 19.8759766 28.7861328 25.1269531 28.7861328 17 15 21.5273438 15 28.1884766 26.9121094 28.2998047 26.9121094 34.9609375 15"></polygon>
        </g>
    </g>
</svg>