<svg xmlns="http://www.w3.org/2000/svg" width="56" height="56" viewBox="0 0 56 56">
  <path fill-rule="evenodd" d="M28,56 C12.536027,56 0,43.463973 0,28 C0,12.536027 12.536027,0 28,0 C43.463973,0 56,12.536027 56,28 C56,43.463973 43.463973,56 28,56 Z M39.4697266,15 L34.9609375,15 L28.2998047,26.9121094 L28.1884766,26.9121094 L21.5273438,15 L17,15 L25.1269531,28.7861328 L19.8759766,28.7861328 L19.8759766,30.8828125 L26.203125,30.8828125 L26.203125,33.8330078 L19.8759766,33.8330078 L19.8759766,35.9296875 L26.203125,35.9296875 L26.203125,41.2548828 L30.2480469,41.2548828 L30.2480469,35.9296875 L36.5751953,35.9296875 L36.5751953,33.8330078 L30.2480469,33.8330078 L30.2480469,30.8828125 L36.5751953,30.8828125 L36.5751953,28.7861328 L31.3242188,28.7861328 L39.4697266,15 Z"/>
</svg>
