<?xml version="1.0" encoding="UTF-8"?>
<svg width="56px" height="56px" viewBox="0 0 56 56" version="1.1" xmlns="http://www.w3.org/2000/svg" xmlns:xlink="http://www.w3.org/1999/xlink">
    <!-- Generator: Sketch 52.1 (67048) - http://www.bohemiancoding.com/sketch -->
    <title>more_vertical</title>
    <desc>Created with Sketch.</desc>
    <g id="Page-1" stroke="none" stroke-width="1" fill="none" fill-rule="evenodd">
        <g id="more_vertical" transform="translate(24.000000, 12.000000)" fill="#000000" fill-rule="nonzero">
            <path d="M4,6 C5.1045695,6 6,5.1045695 6,4 C6,2.8954305 5.1045695,2 4,2 C2.8954305,2 2,2.8954305 2,4 C2,5.1045695 2.8954305,6 4,6 Z M4,8 C1.790861,8 0,6.209139 0,4 C0,1.790861 1.790861,0 4,0 C6.209139,0 8,1.790861 8,4 C8,6.209139 6.209139,8 4,8 Z" id="Oval-71"></path>
            <path d="M4,18 C5.1045695,18 6,17.1045695 6,16 C6,14.8954305 5.1045695,14 4,14 C2.8954305,14 2,14.8954305 2,16 C2,17.1045695 2.8954305,18 4,18 Z M4,20 C1.790861,20 0,18.209139 0,16 C0,13.790861 1.790861,12 4,12 C6.209139,12 8,13.790861 8,16 C8,18.209139 6.209139,20 4,20 Z" id="Oval-71-Copy"></path>
            <path d="M4,30 C5.1045695,30 6,29.1045695 6,28 C6,26.8954305 5.1045695,26 4,26 C2.8954305,26 2,26.8954305 2,28 C2,29.1045695 2.8954305,30 4,30 Z M4,32 C1.790861,32 0,30.209139 0,28 C0,25.790861 1.790861,24 4,24 C6.209139,24 8,25.790861 8,28 C8,30.209139 6.209139,32 4,32 Z" id="Oval-71-Copy-2"></path>
        </g>
    </g>
</svg>