<?xml version="1.0" encoding="UTF-8"?>
<svg width="46px" height="50px" viewBox="0 0 46 50" version="1.1" xmlns="http://www.w3.org/2000/svg" xmlns:xlink="http://www.w3.org/1999/xlink">
    <!-- Generator: Sketch 40.1 (33804) - http://www.bohemiancoding.com/sketch -->
    <title>more</title>
    <desc>Created with Sketch.</desc>
    <defs></defs>
    <g id="Page-1" stroke="none" stroke-width="1" fill="none" fill-rule="evenodd">
        <g id="more" transform="translate(0.000000, 20.000000)" fill="#000000">
            <path d="M8,5 C8,3.34314575 6.65685425,2 5,2 C3.34314575,2 2,3.34314575 2,5 C2,6.65685425 3.34314575,8 5,8 C6.65685425,8 8,6.65685425 8,5 Z M0,5 C0,2.23857625 2.23857625,0 5,0 C7.76142375,0 10,2.23857625 10,5 C10,7.76142375 7.76142375,10 5,10 C2.23857625,10 0,7.76142375 0,5 Z" id="Oval-1"></path>
            <path d="M26,5 C26,3.34314575 24.6568542,2 23,2 C21.3431458,2 20,3.34314575 20,5 C20,6.65685425 21.3431458,8 23,8 C24.6568542,8 26,6.65685425 26,5 Z M18,5 C18,2.23857625 20.2385763,0 23,0 C25.7614237,0 28,2.23857625 28,5 C28,7.76142375 25.7614237,10 23,10 C20.2385763,10 18,7.76142375 18,5 Z" id="Oval-1"></path>
            <path d="M44,5 C44,3.34314575 42.6568542,2 41,2 C39.3431458,2 38,3.34314575 38,5 C38,6.65685425 39.3431458,8 41,8 C42.6568542,8 44,6.65685425 44,5 Z M36,5 C36,2.23857625 38.2385763,0 41,0 C43.7614237,0 46,2.23857625 46,5 C46,7.76142375 43.7614237,10 41,10 C38.2385763,10 36,7.76142375 36,5 Z" id="Oval-1"></path>
        </g>
    </g>
</svg>