<?xml version="1.0" encoding="UTF-8"?>
<svg width="56px" height="56px" viewBox="0 0 56 56" version="1.1" xmlns="http://www.w3.org/2000/svg" xmlns:xlink="http://www.w3.org/1999/xlink">
    <!-- Generator: Sketch 52.1 (67048) - http://www.bohemiancoding.com/sketch -->
    <title>more_round_fill</title>
    <desc>Created with Sketch.</desc>
    <g id="Page-1" stroke="none" stroke-width="1" fill="none" fill-rule="evenodd">
        <g id="more_round_fill" fill="#000000">
            <path d="M28,56 C12.536027,56 0,43.463973 0,28 C0,12.536027 12.536027,0 28,0 C43.463973,0 56,12.536027 56,28 C56,43.463973 43.463973,56 28,56 Z M16,32 C18.209139,32 20,30.209139 20,28 C20,25.790861 18.209139,24 16,24 C13.790861,24 12,25.790861 12,28 C12,30.209139 13.790861,32 16,32 Z M28,32 C30.209139,32 32,30.209139 32,28 C32,25.790861 30.209139,24 28,24 C25.790861,24 24,25.790861 24,28 C24,30.209139 25.790861,32 28,32 Z M40,32 C42.209139,32 44,30.209139 44,28 C44,25.790861 42.209139,24 40,24 C37.790861,24 36,25.790861 36,28 C36,30.209139 37.790861,32 40,32 Z" id="Combined-Shape"></path>
        </g>
    </g>
</svg>