<?xml version="1.0" encoding="UTF-8"?>
<svg width="50px" height="50px" viewBox="0 0 50 50" version="1.1" xmlns="http://www.w3.org/2000/svg" xmlns:xlink="http://www.w3.org/1999/xlink">
    <!-- Generator: Sketch 40.1 (33804) - http://www.bohemiancoding.com/sketch -->
    <title>more_vertical_round</title>
    <desc>Created with Sketch.</desc>
    <defs></defs>
    <g id="Page-1" stroke="none" stroke-width="1" fill="none" fill-rule="evenodd">
        <g id="more_vertical_round" fill="#000000">
            <path d="M48,25 C48,12.2974508 37.7025492,2 25,2 C12.2974508,2 2,12.2974508 2,25 C2,37.7025492 12.2974508,48 25,48 C37.7025492,48 48,37.7025492 48,25 Z M0,25 C0,11.1928813 11.1928813,0 25,0 C38.8071187,0 50,11.1928813 50,25 C50,38.8071187 38.8071187,50 25,50 C11.1928813,50 0,38.8071187 0,25 Z" id="Oval-16"></path>
            <g id="Group-2" transform="translate(25.000000, 25.000000) rotate(-90.000000) translate(-25.000000, -25.000000) translate(9.000000, 21.000000)">
                <path d="M6,4 C6,2.8954305 5.1045695,2 4,2 C2.8954305,2 2,2.8954305 2,4 C2,5.1045695 2.8954305,6 4,6 C5.1045695,6 6,5.1045695 6,4 Z M0,4 C0,1.790861 1.790861,0 4,0 C6.209139,0 8,1.790861 8,4 C8,6.209139 6.209139,8 4,8 C1.790861,8 0,6.209139 0,4 Z" id="Oval-1"></path>
                <path d="M18,4 C18,2.8954305 17.1045695,2 16,2 C14.8954305,2 14,2.8954305 14,4 C14,5.1045695 14.8954305,6 16,6 C17.1045695,6 18,5.1045695 18,4 Z M12,4 C12,1.790861 13.790861,0 16,0 C18.209139,0 20,1.790861 20,4 C20,6.209139 18.209139,8 16,8 C13.790861,8 12,6.209139 12,4 Z" id="Oval-1"></path>
                <path d="M30,4 C30,2.8954305 29.1045695,2 28,2 C26.8954305,2 26,2.8954305 26,4 C26,5.1045695 26.8954305,6 28,6 C29.1045695,6 30,5.1045695 30,4 Z M24,4 C24,1.790861 25.790861,0 28,0 C30.209139,0 32,1.790861 32,4 C32,6.209139 30.209139,8 28,8 C25.790861,8 24,6.209139 24,4 Z" id="Oval-1"></path>
            </g>
        </g>
    </g>
</svg>