<?xml version="1.0" encoding="UTF-8"?>
<svg width="56px" height="56px" viewBox="0 0 56 56" version="1.1" xmlns="http://www.w3.org/2000/svg" xmlns:xlink="http://www.w3.org/1999/xlink">
    <!-- Generator: Sketch 52.1 (67048) - http://www.bohemiancoding.com/sketch -->
    <title>more_vertical_round_fill</title>
    <desc>Created with Sketch.</desc>
    <g id="Page-1" stroke="none" stroke-width="1" fill="none" fill-rule="evenodd">
        <g id="more_vertical_round_fill" fill="#000000">
            <path d="M28,56 C12.536027,56 0,43.463973 0,28 C0,12.536027 12.536027,0 28,0 C43.463973,0 56,12.536027 56,28 C56,43.463973 43.463973,56 28,56 Z M28,20 C30.209139,20 32,18.209139 32,16 C32,13.790861 30.209139,12 28,12 C25.790861,12 24,13.790861 24,16 C24,18.209139 25.790861,20 28,20 Z M28,32 C30.209139,32 32,30.209139 32,28 C32,25.790861 30.209139,24 28,24 C25.790861,24 24,25.790861 24,28 C24,30.209139 25.790861,32 28,32 Z M28,44 C30.209139,44 32,42.209139 32,40 C32,37.790861 30.209139,36 28,36 C25.790861,36 24,37.790861 24,40 C24,42.209139 25.790861,44 28,44 Z" id="Combined-Shape"></path>
        </g>
    </g>
</svg>