<svg xmlns="http://www.w3.org/2000/svg" width="56" height="56" viewBox="0 0 56 56">
  <path d="M2 5C2 6.65685425 3.34314575 8 5 8 6.65685425 8 8 6.65685425 8 5 8 3.34314575 6.65685425 2 5 2 3.34314575 2 2 3.34314575 2 5zM-1.77635684e-15 5C0 2.23857625 2.23857625-7.61269267e-15 5-7.10542736e-15 7.76142375-6.59816204e-15 10 2.23857625 10 5 10 7.76142375 7.76142375 10 5 10 2.23857625 10-1.77635684e-15 7.76142375-1.77635684e-15 5zM2 19C2 20.6568542 3.34314575 22 5 22 6.65685425 22 8 20.6568542 8 19 8 17.3431458 6.65685425 16 5 16 3.34314575 16 2 17.3431458 2 19zM-1.77635684e-15 19C0 16.2385763 2.23857625 14 5 14 7.76142375 14 10 16.2385763 10 19 10 21.7614237 7.76142375 24 5 24 2.23857625 24-1.77635684e-15 21.7614237-1.77635684e-15 19zM2 33C2 34.6568542 3.34314575 36 5 36 6.65685425 36 8 34.6568542 8 33 8 31.3431458 6.65685425 30 5 30 3.34314575 30 2 31.3431458 2 33zM-1.77635684e-15 33C0 30.2385763 2.23857625 28 5 28 7.76142375 28 10 30.2385763 10 33 10 35.7614237 7.76142375 38 5 38 2.23857625 38-1.77635684e-15 35.7614237-1.77635684e-15 33z" transform="translate(23 9)"/>
</svg>
