<svg xmlns="http://www.w3.org/2000/svg" width="56" height="56" viewBox="0 0 56 56">
  <path d="M5 8C6.65685425 8 8 6.65685425 8 5 8 3.34314575 6.65685425 2 5 2 3.34314575 2 2 3.34314575 2 5 2 6.65685425 3.34314575 8 5 8zM5 10C2.23857625 10 0 7.76142375 0 5 0 2.23857625 2.23857625 0 5 0 7.76142375 0 10 2.23857625 10 5 10 7.76142375 7.76142375 10 5 10zM19 8C20.6568542 8 22 6.65685425 22 5 22 3.34314575 20.6568542 2 19 2 17.3431458 2 16 3.34314575 16 5 16 6.65685425 17.3431458 8 19 8zM19 10C16.2385763 10 14 7.76142375 14 5 14 2.23857625 16.2385763 0 19 0 21.7614237 0 24 2.23857625 24 5 24 7.76142375 21.7614237 10 19 10zM33 8C34.6568542 8 36 6.65685425 36 5 36 3.34314575 34.6568542 2 33 2 31.3431458 2 30 3.34314575 30 5 30 6.65685425 31.3431458 8 33 8zM33 10C30.2385763 10 28 7.76142375 28 5 28 2.23857625 30.2385763 0 33 0 35.7614237 0 38 2.23857625 38 5 38 7.76142375 35.7614237 10 33 10z" transform="translate(9 23)"/>
</svg>
