<?xml version="1.0" encoding="UTF-8"?>
<svg width="50px" height="50px" viewBox="0 0 50 50" version="1.1" xmlns="http://www.w3.org/2000/svg" xmlns:xlink="http://www.w3.org/1999/xlink">
    <!-- Generator: Sketch 40.1 (33804) - http://www.bohemiancoding.com/sketch -->
    <title>more_round_fill</title>
    <desc>Created with Sketch.</desc>
    <defs></defs>
    <g id="Page-1" stroke="none" stroke-width="1" fill="none" fill-rule="evenodd">
        <g id="more_round_fill" transform="translate(0.000000, 0.000000)" fill="#000000">
            <path d="M25,50 C38.8071187,50 50,38.8071187 50,25 C50,11.1928813 38.8071187,0 25,0 C11.1928813,0 0,11.1928813 0,25 C0,38.8071187 11.1928813,50 25,50 Z M13,29 C15.209139,29 17,27.209139 17,25 C17,22.790861 15.209139,21 13,21 C10.790861,21 9,22.790861 9,25 C9,27.209139 10.790861,29 13,29 Z M25,29 C27.209139,29 29,27.209139 29,25 C29,22.790861 27.209139,21 25,21 C22.790861,21 21,22.790861 21,25 C21,27.209139 22.790861,29 25,29 Z M37,29 C39.209139,29 41,27.209139 41,25 C41,22.790861 39.209139,21 37,21 C34.790861,21 33,22.790861 33,25 C33,27.209139 34.790861,29 37,29 Z" id="Combined-Shape"></path>
        </g>
    </g>
</svg>