<svg xmlns="http://www.w3.org/2000/svg" width="56" height="56" viewBox="0 0 56 56">
  <path d="M4 6C5.1045695 6 6 5.1045695 6 4 6 2.8954305 5.1045695 2 4 2 2.8954305 2 2 2.8954305 2 4 2 5.1045695 2.8954305 6 4 6zM4 8C1.790861 8 0 6.209139 0 4 0 1.790861 1.790861 0 4 0 6.209139 0 8 1.790861 8 4 8 6.209139 6.209139 8 4 8zM16 6C17.1045695 6 18 5.1045695 18 4 18 2.8954305 17.1045695 2 16 2 14.8954305 2 14 2.8954305 14 4 14 5.1045695 14.8954305 6 16 6zM16 8C13.790861 8 12 6.209139 12 4 12 1.790861 13.790861 0 16 0 18.209139 0 20 1.790861 20 4 20 6.209139 18.209139 8 16 8zM28 6C29.1045695 6 30 5.1045695 30 4 30 2.8954305 29.1045695 2 28 2 26.8954305 2 26 2.8954305 26 4 26 5.1045695 26.8954305 6 28 6zM28 8C25.790861 8 24 6.209139 24 4 24 1.790861 25.790861 0 28 0 30.209139 0 32 1.790861 32 4 32 6.209139 30.209139 8 28 8z" transform="translate(12 24)"/>
</svg>
