<svg xmlns="http://www.w3.org/2000/svg" width="56" height="56" viewBox="0 0 56 56">
  <path d="M4 6C5.1045695 6 6 5.1045695 6 4 6 2.8954305 5.1045695 2 4 2 2.8954305 2 2 2.8954305 2 4 2 5.1045695 2.8954305 6 4 6zM4 8C1.790861 8 0 6.209139 0 4 0 1.790861 1.790861 0 4 0 6.209139 0 8 1.790861 8 4 8 6.209139 6.209139 8 4 8zM4 18C5.1045695 18 6 17.1045695 6 16 6 14.8954305 5.1045695 14 4 14 2.8954305 14 2 14.8954305 2 16 2 17.1045695 2.8954305 18 4 18zM4 20C1.790861 20 0 18.209139 0 16 0 13.790861 1.790861 12 4 12 6.209139 12 8 13.790861 8 16 8 18.209139 6.209139 20 4 20zM4 30C5.1045695 30 6 29.1045695 6 28 6 26.8954305 5.1045695 26 4 26 2.8954305 26 2 26.8954305 2 28 2 29.1045695 2.8954305 30 4 30zM4 32C1.790861 32 0 30.209139 0 28 0 25.790861 1.790861 24 4 24 6.209139 24 8 25.790861 8 28 8 30.209139 6.209139 32 4 32z" transform="translate(24 12)"/>
</svg>
