<?xml version="1.0" encoding="UTF-8"?>
<svg width="56px" height="56px" viewBox="0 0 56 56" version="1.1" xmlns="http://www.w3.org/2000/svg" xmlns:xlink="http://www.w3.org/1999/xlink">
    <!-- Generator: Sketch 52.1 (67048) - http://www.bohemiancoding.com/sketch -->
    <title>more</title>
    <desc>Created with Sketch.</desc>
    <g id="Page-1" stroke="none" stroke-width="1" fill="none" fill-rule="evenodd">
        <g id="more" transform="translate(12.000000, 24.000000)" fill="#000000" fill-rule="nonzero">
            <path d="M4,6 C5.1045695,6 6,5.1045695 6,4 C6,2.8954305 5.1045695,2 4,2 C2.8954305,2 2,2.8954305 2,4 C2,5.1045695 2.8954305,6 4,6 Z M4,8 C1.790861,8 0,6.209139 0,4 C0,1.790861 1.790861,0 4,0 C6.209139,0 8,1.790861 8,4 C8,6.209139 6.209139,8 4,8 Z" id="Oval-70"></path>
            <path d="M16,6 C17.1045695,6 18,5.1045695 18,4 C18,2.8954305 17.1045695,2 16,2 C14.8954305,2 14,2.8954305 14,4 C14,5.1045695 14.8954305,6 16,6 Z M16,8 C13.790861,8 12,6.209139 12,4 C12,1.790861 13.790861,0 16,0 C18.209139,0 20,1.790861 20,4 C20,6.209139 18.209139,8 16,8 Z" id="Oval-70-Copy"></path>
            <path d="M28,6 C29.1045695,6 30,5.1045695 30,4 C30,2.8954305 29.1045695,2 28,2 C26.8954305,2 26,2.8954305 26,4 C26,5.1045695 26.8954305,6 28,6 Z M28,8 C25.790861,8 24,6.209139 24,4 C24,1.790861 25.790861,0 28,0 C30.209139,0 32,1.790861 32,4 C32,6.209139 30.209139,8 28,8 Z" id="Oval-70-Copy-2"></path>
        </g>
    </g>
</svg>