<?xml version="1.0" encoding="UTF-8"?>
<svg width="56px" height="56px" viewBox="0 0 56 56" version="1.1" xmlns="http://www.w3.org/2000/svg" xmlns:xlink="http://www.w3.org/1999/xlink">
    <!-- Generator: Sketch 52.1 (67048) - http://www.bohemiancoding.com/sketch -->
    <title>navigation_round</title>
    <desc>Created with Sketch.</desc>
    <g id="Page-1" stroke="none" stroke-width="1" fill="none" fill-rule="evenodd">
        <g id="navigation_round" fill="#000000">
            <path d="M28,52 C41.254834,52 52,41.254834 52,28 C52,14.745166 41.254834,4 28,4 C14.745166,4 4,14.745166 4,28 C4,41.254834 14.745166,52 28,52 Z M28,56 C12.536027,56 0,43.463973 0,28 C0,12.536027 12.536027,0 28,0 C43.463973,0 56,12.536027 56,28 C56,43.463973 43.463973,56 28,56 Z" id="Oval" fill-rule="nonzero"></path>
            <polygon id="location" style="mix-blend-mode: color-burn;" points="40.3912278 15.0009739 13 28.390986 13 28.9996783 26.9987435 28.9996783 26.9987435 42.9996 27.6098722 42.9996 40.9987044 15.6084488 40.9987044 15.0009739"></polygon>
        </g>
    </g>
</svg>