<svg xmlns="http://www.w3.org/2000/svg" width="56" height="56" viewBox="0 0 56 56">
  <path d="M4 5L4 33C4 33.5522847 4.44771525 34 5 34L7 34C7.55228475 34 8 33.5522847 8 33L8 5C8 4.44771525 7.55228475 4 7 4L5 4C4.44771525 4 4 4.44771525 4 5zM2 0L10 0C11.1045695-2.02906125e-16 12 .8954305 12 2L12 36C12 37.1045695 11.1045695 38 10 38L2 38C.8954305 38 1.3527075e-16 37.1045695 0 36L0 2C-1.3527075e-16.8954305.8954305 2.02906125e-16 2 0zM20 5L20 33C20 33.5522847 20.4477153 34 21 34L23 34C23.5522847 34 24 33.5522847 24 33L24 5C24 4.44771525 23.5522847 4 23 4L21 4C20.4477153 4 20 4.44771525 20 5zM18 0L26 0C27.1045695-2.02906125e-16 28 .8954305 28 2L28 36C28 37.1045695 27.1045695 38 26 38L18 38C16.8954305 38 16 37.1045695 16 36L16 2C16 .8954305 16.8954305 2.02906125e-16 18 0z" transform="translate(14 9)"/>
</svg>
