<svg xmlns="http://www.w3.org/2000/svg" width="56" height="56" viewBox="0 0 56 56">
  <path d="M28,56 C12.536027,56 0,43.463973 0,28 C0,12.536027 12.536027,0 28,0 C43.463973,0 56,12.536027 56,28 C56,43.463973 43.463973,56 28,56 Z M18,16.0032996 L18,39.9967004 C18,40.5487213 18.4463856,41 18.9970301,41 L25.0029699,41 C25.5469637,41 26,40.5508075 26,39.9967004 L26,16.0032996 C26,15.4512787 25.5536144,15 25.0029699,15 L18.9970301,15 C18.4530363,15 18,15.4491925 18,16.0032996 Z M30,16.0032996 L30,39.9967004 C30,40.5487213 30.4463856,41 30.9970301,41 L37.0029699,41 C37.5469637,41 38,40.5508075 38,39.9967004 L38,16.0032996 C38,15.4512787 37.5536144,15 37.0029699,15 L30.9970301,15 C30.4530363,15 30,15.4491925 30,16.0032996 Z"/>
</svg>
