<svg xmlns="http://www.w3.org/2000/svg" width="56" height="56" viewBox="0 0 56 56">
  <g fill-rule="evenodd">
    <path fill-rule="nonzero" d="M28,52 C41.254834,52 52,41.254834 52,28 C52,14.745166 41.254834,4 28,4 C14.745166,4 4,14.745166 4,28 C4,41.254834 14.745166,52 28,52 Z M28,56 C12.536027,56 0,43.463973 0,28 C0,12.536027 12.536027,0 28,0 C43.463973,0 56,12.536027 56,28 C56,43.463973 43.463973,56 28,56 Z"/>
    <path d="M18 16.0032996C18 15.4491925 18.4530363 15 18.9970301 15L25.0029699 15C25.5536144 15 26 15.4512787 26 16.0032996L26 39.9967004C26 40.5508075 25.5469637 41 25.0029699 41L18.9970301 41C18.4463856 41 18 40.5487213 18 39.9967004L18 16.0032996zM30 16.0032996C30 15.4491925 30.4530363 15 30.9970301 15L37.0029699 15C37.5536144 15 38 15.4512787 38 16.0032996L38 39.9967004C38 40.5508075 37.5469637 41 37.0029699 41L30.9970301 41C30.4463856 41 30 40.5487213 30 39.9967004L30 16.0032996z"/>
  </g>
</svg>
