<?xml version="1.0" encoding="UTF-8"?>
<svg width="56px" height="56px" viewBox="0 0 56 56" version="1.1" xmlns="http://www.w3.org/2000/svg" xmlns:xlink="http://www.w3.org/1999/xlink">
    <!-- Generator: Sketch 52.1 (67048) - http://www.bohemiancoding.com/sketch -->
    <title>pause_round</title>
    <desc>Created with Sketch.</desc>
    <g id="Page-1" stroke="none" stroke-width="1" fill="none" fill-rule="evenodd">
        <g id="pause_round" fill="#000000">
            <path d="M28,52 C41.254834,52 52,41.254834 52,28 C52,14.745166 41.254834,4 28,4 C14.745166,4 4,14.745166 4,28 C4,41.254834 14.745166,52 28,52 Z M28,56 C12.536027,56 0,43.463973 0,28 C0,12.536027 12.536027,0 28,0 C43.463973,0 56,12.536027 56,28 C56,43.463973 43.463973,56 28,56 Z" id="Oval" fill-rule="nonzero"></path>
            <path d="M18,16.0032996 C18,15.4491925 18.4530363,15 18.9970301,15 L25.0029699,15 C25.5536144,15 26,15.4512787 26,16.0032996 L26,39.9967004 C26,40.5508075 25.5469637,41 25.0029699,41 L18.9970301,41 C18.4463856,41 18,40.5487213 18,39.9967004 L18,16.0032996 Z" id="Rectangle-91"></path>
            <path d="M30,16.0032996 C30,15.4491925 30.4530363,15 30.9970301,15 L37.0029699,15 C37.5536144,15 38,15.4512787 38,16.0032996 L38,39.9967004 C38,40.5508075 37.5469637,41 37.0029699,41 L30.9970301,41 C30.4463856,41 30,40.5487213 30,39.9967004 L30,16.0032996 Z" id="Rectangle-91-Copy"></path>
        </g>
    </g>
</svg>