<svg xmlns="http://www.w3.org/2000/svg" width="56" height="56" viewBox="0 0 56 56">
  <path d="M2 0L10 0C11.1045695-2.02906125e-16 12 .8954305 12 2L12 36C12 37.1045695 11.1045695 38 10 38L2 38C.8954305 38 1.3527075e-16 37.1045695 0 36L0 2C-1.3527075e-16.8954305.8954305 2.02906125e-16 2 0zM18 0L26 0C27.1045695-2.02906125e-16 28 .8954305 28 2L28 36C28 37.1045695 27.1045695 38 26 38L18 38C16.8954305 38 16 37.1045695 16 36L16 2C16 .8954305 16.8954305 2.02906125e-16 18 0z" transform="translate(14 9)"/>
</svg>
