<svg xmlns="http://www.w3.org/2000/svg" width="56" height="56" viewBox="0 0 56 56">
  <path d="M43.8507709,45.7539927 C43.6138495,45.6525267 43.3470795,45.5672518 43.0199918,45.5196754 C42.7218644,45.480064 42.4362459,45.4383679 42.1610513,45.3945869 C36.1026023,44.4314061 35.4938387,42.2778005 34.7036968,40.6266334 C34.0615763,40.3493541 33.7467704,40.1262797 33.4173709,38.9838055 C33.275604,38.4959607 33.0295968,36.3298462 33.1338372,35.4854994 C33.632106,35.0185027 34.0094561,33.8322475 34.1741558,33.2818585 C34.6161349,31.8078999 34.7224601,31.4493131 35.1435911,29.485425 C35.2040505,29.2060608 35.3624958,29.0913964 35.4917538,29.0434459 C35.8836976,28.901679 35.9733443,28.5868732 36.1026023,28.3533748 C36.4048993,27.8196642 36.1442984,27.5799114 36.6175496,26.276907 C37.2221436,24.7946093 37.3159599,23.2685306 36.8573024,22.8307211 C36.5466662,22.5534418 36.3569487,22.7598377 36.2047578,22.8161275 C36.1026023,22.8557388 36.181825,22.6013924 36.2735565,22.2386359 C36.6363129,20.7459142 36.6383977,19.4804363 36.7363836,17.950188 C36.8156063,16.7118127 36.732214,15.5818473 36.5779383,14.8813521 C36.4320018,14.7354157 36.0546517,13.111351 35.6230967,12.1606791 C34.885075,10.5282752 32.6730948,10.2760136 31.9142251,9.94869886 C30.1108671,9.19399873 27.8551059,8.17035851 25.1802986,9.32534157 C23.9898738,9.83820409 22.4054205,9.88823945 20.6812851,11.8291947 C20.272663,12.2857675 19.5450653,11.8938238 18.7319906,13.6700793 C17.9064071,15.4088083 17.8626261,16.5554521 18.0502587,17.8000819 L17.993969,17.8021667 C17.993969,17.8021667 18.014817,20.7792711 18.3796582,22.2719929 C18.4693049,22.6368341 18.5464428,22.8890957 18.4463721,22.8515692 C18.2941812,22.7952794 18.0857005,22.615986 17.7750642,22.8932653 C17.3143219,23.3310748 17.5582443,24.7946093 18.1628383,26.276907 C18.6381743,27.5799114 18.3212836,27.9676855 18.8278917,28.653587 C19.0071851,28.8975094 19.1760545,29.0267674 19.3699416,29.1080749 C19.4991996,29.1601951 19.6826626,29.1768735 19.7681397,29.4478984 C20.3247831,31.4680764 20.4269387,32.0893489 21.006515,33.2901977 C21.2566919,33.8093146 21.5381408,35.1081494 22.0551729,35.6126726 C22.14065,36.3235918 22.0530881,38.3729571 21.9405085,38.9838055 C21.7612151,39.9449015 21.4234764,40.2221809 20.5186702,40.6266334 C20.0266557,42.2256804 18.7215666,43.6746212 13.2635419,45.3487212 C13.0779941,45.405011 12.8861919,45.4633856 12.6923048,45.5196754 C12.4880487,45.5877607 12.3128345,45.6721822 12.1666622,45.7695525 C16.3733221,49.5204946 21.9204575,51.8 28,51.8 C34.0879426,51.8 39.6420059,49.5141911 43.8507671,45.753996 L43.8507709,45.7539927 Z M28,56 C12.536027,56 0,43.463973 0,28 C0,12.536027 12.536027,0 28,0 C43.463973,0 56,12.536027 56,28 C56,43.463973 43.463973,56 28,56 Z"/>
</svg>
