<svg xmlns="http://www.w3.org/2000/svg" width="56" height="56" viewBox="0 0 56 56">
  <path d="M45.5702602,44.2019064 C45.278628,44.0298454 45.0991161,43.7873656 44.9131467,43.1307131 C44.8110279,42.7729602 44.6338217,41.1844763 44.7089091,40.5652886 C45.0678266,40.2228243 45.3396428,39.3529039 45.4582808,38.9492852 C45.7766512,37.8683823 45.8532402,37.6054187 46.1565931,36.165234 C46.2001438,35.960367 46.3142766,35.8762798 46.4073849,35.841116 C46.6897133,35.7371536 46.7542884,35.506296 46.8473967,35.3350639 C47.06515,34.9436761 46.8774317,34.7678574 47.2183282,33.8123209 C47.6538348,32.7253025 47.7214134,31.6061781 47.3910291,31.2851178 C47.1672688,31.0817797 47.0306099,31.2331367 46.9209823,31.2744158 C46.8473967,31.3034641 46.9044631,31.1169434 46.97054,30.850922 C47.2318439,29.7562594 47.2333457,28.8282423 47.3039278,27.7060602 C47.3609942,26.7979183 47.3009243,25.969277 47.189795,25.4555806 C47.0846727,25.3485605 46.8128565,24.1575798 46.5019949,23.4604203 C45.9703765,22.2633242 44.377023,22.0783323 43.8303871,21.8383015 C42.531376,21.2848548 40.9064858,20.5341853 38.9797445,21.3811728 C38.122247,21.757272 36.9809193,21.7939646 35.7389746,23.2173318 C35.4446322,23.5521518 34.9205225,23.2647264 34.3348412,24.5673138 C33.7401494,25.8423818 33.7086128,26.6832539 33.84377,27.5959824 L33.8032228,27.5975113 C33.8032228,27.5975113 33.8182403,29.7807211 34.081046,30.8753838 C34.1456211,31.142934 34.2011857,31.3279259 34.1291019,31.3004064 C34.0194744,31.2591273 33.8692997,31.1276454 33.6455394,31.3309836 C33.3136533,31.6520439 33.4893577,32.7253025 33.9248643,33.8123209 C34.2672626,34.7678574 34.0389971,35.0522251 34.4039216,35.5552195 C34.5330718,35.7340959 34.6547133,35.8288851 34.7943758,35.8885106 C34.8874841,35.9267321 35.0196378,35.9389629 35.0812095,36.1377145 C35.4821759,37.6191784 35.5557615,38.0747782 35.9732471,38.9554007 C36.1534568,39.3360864 36.3561926,40.2885652 36.7286258,40.658549 C36.7901975,41.1798897 36.7271241,42.6827575 36.6460298,43.1307131 C36.5168795,43.8355168 36.2735965,44.038855 35.6218384,44.3354535 C35.5050966,44.7217139 35.3248076,45.0960307 34.9949886,45.4682393 C29.5867843,44.4549004 28.9953504,42.4064021 28.2367144,40.821073 C27.5945939,40.5437937 27.279788,40.3207193 26.9503885,39.1782451 C26.8086216,38.6904003 26.5626144,36.5242858 26.6668548,35.679939 C27.1651236,35.2129422 27.5424737,34.0266871 27.7071734,33.476298 C28.1491525,32.0023395 28.2554777,31.6437527 28.6766087,29.6798645 C28.7370681,29.4005004 28.8955134,29.285836 29.0247714,29.2378855 C29.4167152,29.0961186 29.5063619,28.7813127 29.6356199,28.5478144 C29.9379169,28.0141038 29.677316,27.774351 30.1505672,26.4713466 C30.7551612,24.9890489 30.8489775,23.4629702 30.39032,23.0251607 C30.0796838,22.7478814 29.8899663,22.9542773 29.7377754,23.010567 C29.6356199,23.0501784 29.7148426,22.7958319 29.8065741,22.4330755 C30.1693305,20.9403537 30.1714153,19.6748759 30.2694012,18.1446276 C30.3486239,16.9062522 30.2652316,15.7762869 30.1109559,15.0757917 C29.9650194,14.9298552 29.5876693,13.3057906 29.1561143,12.3551186 C28.4180926,10.7227148 26.2061124,10.4704531 25.4472427,10.1431384 C23.6438847,9.38843831 21.3881235,8.36479809 18.7133162,9.51978115 C17.5228914,10.0326437 15.9384381,10.082679 14.2143027,12.0236343 C13.8056806,12.480207 13.0780829,12.0882633 12.2650082,13.8645189 C11.4394247,15.6032479 11.3956437,16.7498917 11.5832763,17.9945215 L11.5269866,17.9966063 C11.5269866,17.9966063 11.5478346,20.9737106 11.9126758,22.4664324 C12.0023225,22.8312737 12.0794604,23.0835353 11.9793897,23.0460088 C11.8271988,22.989719 11.6187181,22.8104256 11.3080818,23.0877049 C10.8473395,23.5255144 11.0912619,24.9890489 11.6958559,26.4713466 C12.1711919,27.774351 11.8543012,28.1621251 12.3609093,28.8480266 C12.5402027,29.091949 12.7090721,29.221207 12.9029592,29.3025145 C13.0322172,29.3546347 13.2156802,29.3713131 13.3011573,29.642338 C13.8578007,31.662516 13.9599563,32.2837884 14.5395326,33.4846373 C14.7897095,34.0037542 15.0711584,35.3025889 15.5881905,35.8071122 C15.6736676,36.5180314 15.5861057,38.5673967 15.4735261,39.1782451 C15.2942327,40.1393411 14.956494,40.4166204 14.0516878,40.821073 C13.6951851,41.9797066 12.911808,43.0595326 10.4310316,44.2033065 C14.7979093,48.935868 21.0527996,51.9 28,51.9 C34.9478855,51.9 41.2033243,48.9352834 45.5702602,44.2019064 Z M28,56 C12.536027,56 0,43.463973 0,28 C0,12.536027 12.536027,0 28,0 C43.463973,0 56,12.536027 56,28 C56,43.463973 43.463973,56 28,56 Z"/>
</svg>
