<?xml version="1.0" encoding="UTF-8"?>
<svg width="56px" height="56px" viewBox="0 0 56 56" version="1.1" xmlns="http://www.w3.org/2000/svg" xmlns:xlink="http://www.w3.org/1999/xlink">
    <!-- Generator: Sketch 52.1 (67048) - http://www.bohemiancoding.com/sketch -->
    <title>persons_round_fill</title>
    <desc>Created with Sketch.</desc>
    <g id="Page-1" stroke="none" stroke-width="1" fill="none" fill-rule="evenodd">
        <g id="persons_round_fill" fill="#000000">
            <path d="M28,56 C12.536027,56 0,43.463973 0,28 C0,12.536027 12.536027,0 28,0 C43.463973,0 56,12.536027 56,28 C56,43.463973 43.463973,56 28,56 Z M44.5718722,45.274771 L45.8187099,43.9161099 C45.594105,43.4706318 45.4329678,43.1451368 45.3352982,42.9396251 C44.8755746,42.739736 44.6501906,42.578923 44.4143584,41.7553201 C44.312861,41.4036356 44.1367331,39.8420964 44.2113635,39.2334117 C44.5680971,38.8967565 44.8382594,38.0415921 44.9561755,37.6448198 C45.2726086,36.5822518 45.3487317,36.3237487 45.6502387,34.9079932 C45.6935243,34.7066012 45.8069626,34.6239403 45.8995044,34.5893731 C46.1801149,34.4871741 46.2442971,34.2602325 46.3368389,34.0919048 C46.5532672,33.707156 46.366691,33.5343196 46.7055133,32.5949914 C47.1383699,31.5264116 47.2055373,30.4262704 46.8771633,30.1106562 C46.6547646,29.9107671 46.5189372,30.0595567 46.4099767,30.1001357 C46.3368389,30.1286913 46.393558,29.9453344 46.4592328,29.6838254 C46.7189468,28.607731 46.7204394,27.6954555 46.790592,26.5923084 C46.8473112,25.6995709 46.7876068,24.8849855 46.6771537,24.3800027 C46.5726711,24.2747979 46.3025088,23.1040192 45.9935388,22.4186854 C45.4651552,21.241895 43.8814969,21.060041 43.3381872,20.8240818 C42.5610325,20.4965969 41.6665242,20.0988667 40.6598706,20.0156967 C40.602893,20.808334 40.513249,21.5839375 40.3068942,22.4330755 C40.2151627,22.7958319 40.13594,23.0501784 40.2380956,23.010567 C40.3902865,22.9542773 40.5800039,22.7478814 40.8906402,23.0251607 C41.3492977,23.4629702 41.2554814,24.9890489 40.6508874,26.4713466 C40.1776362,27.774351 40.4382371,28.0141038 40.13594,28.5478144 C40.006682,28.7813127 39.9170353,29.0961186 39.5250916,29.2378855 C39.3958336,29.285836 39.2373882,29.4005004 39.1769288,29.6798645 C38.7557978,31.6437527 38.6494727,32.0023395 38.2074936,33.476298 C38.0427938,34.0266871 37.6654438,35.2129422 37.1671749,35.679939 C37.0629346,36.5242858 37.3089418,38.6904003 37.4507087,39.1782451 C37.7801082,40.3207193 38.094914,40.5437937 38.7370346,40.821073 C39.4165804,42.2411266 39.9619696,44.0328099 43.9552515,45.1192534 C44.0865883,45.1549859 44.2921285,45.2068251 44.5718722,45.274771 Z M9.89089111,43.6011138 L11.1058513,44.9431704 C11.2673453,44.8842678 11.3870991,44.8401549 11.4651127,44.8108317 C15.1246758,43.4353032 16.1330764,42.1826006 16.5520079,40.821073 C17.4568142,40.4166204 17.7945529,40.1393411 17.9738463,39.1782451 C18.0864259,38.5673967 18.1739878,36.5180314 18.0885107,35.8071122 C17.5714786,35.3025889 17.2900296,34.0037542 17.0398528,33.4846373 C16.4602764,32.2837884 16.3581209,31.662516 15.8014774,29.642338 C15.7160004,29.3713131 15.5325373,29.3546347 15.4032793,29.3025145 C15.2093923,29.221207 15.0405229,29.091949 14.8612295,28.8480266 C14.3546214,28.1621251 14.6715121,27.774351 14.1961761,26.4713466 C13.5915821,24.9890489 13.3476596,23.5255144 13.808402,23.0877049 C14.1190382,22.8104256 14.3275189,22.989719 14.4797098,23.0460088 C14.5797806,23.0835353 14.5026427,22.8312737 14.412996,22.4664324 C14.261681,21.8473381 14.1695366,20.9729138 14.1135096,20.1614426 C13.9180555,20.2164107 13.7192296,20.2868069 13.51706,20.3747072 C12.6647802,20.7444268 11.5303973,20.780497 10.2960096,22.1797203 C10.0034582,22.5088609 9.48253766,22.2263109 8.90042013,23.5068032 C8.30934694,24.7602427 8.27800215,25.5868515 8.41233697,26.4840978 L8.37203652,26.4856008 C8.37203652,26.4856008 8.38696261,28.6317778 8.6481692,29.7078722 C8.71235139,29.9708841 8.76757792,30.1527381 8.69593269,30.1256854 C8.58697223,30.0851064 8.43771132,29.9558549 8.21531257,30.1557439 C7.88544597,30.4713582 8.06008123,31.5264116 8.49293785,32.5949914 C8.83325272,33.5343196 8.60637614,33.8138637 8.96908015,34.3083261 C9.09744453,34.4841683 9.21834586,34.5773497 9.3571585,34.6359637 C9.44970027,34.6735369 9.58104986,34.6855603 9.64224683,34.8809405 C10.0407735,36.337275 10.1139113,36.7851467 10.5288566,37.6508315 C10.7079697,38.0250599 10.9094719,38.9613823 11.279639,39.3250901 C11.340836,39.8375876 11.2781464,41.314963 11.1975455,41.7553201 C11.0691811,42.4481686 10.8273784,42.6480576 10.1795861,42.9396251 C10.1339694,43.088904 10.0377377,43.3094002 9.89089111,43.6011138 Z M43.8841086,45.9484323 C43.6471873,45.8469663 43.3804173,45.7616913 43.0533296,45.7141149 C42.7552022,45.6745036 42.4695836,45.6328075 42.1943891,45.5890265 C36.13594,44.6258457 35.5271764,42.4722401 34.7370346,40.821073 C34.094914,40.5437937 33.7801082,40.3207193 33.4507087,39.1782451 C33.3089418,38.6904003 33.0629346,36.5242858 33.1671749,35.679939 C33.6654438,35.2129422 34.0427938,34.0266871 34.2074936,33.476298 C34.6494727,32.0023395 34.7557978,31.6437527 35.1769288,29.6798645 C35.2373882,29.4005004 35.3958336,29.285836 35.5250916,29.2378855 C35.9170353,29.0961186 36.006682,28.7813127 36.13594,28.5478144 C36.4382371,28.0141038 36.1776362,27.774351 36.6508874,26.4713466 C37.2554814,24.9890489 37.3492977,23.4629702 36.8906402,23.0251607 C36.5800039,22.7478814 36.3902865,22.9542773 36.2380956,23.010567 C36.13594,23.0501784 36.2151627,22.7958319 36.3068942,22.4330755 C36.6696506,20.9403537 36.6717354,19.6748759 36.7697214,18.1446276 C36.848944,16.9062522 36.7655517,15.7762869 36.611276,15.0757917 C36.4653395,14.9298552 36.0879895,13.3057906 35.6564344,12.3551186 C34.9184128,10.7227148 32.7064326,10.4704531 31.9475628,10.1431384 C30.1442048,9.38843831 27.8884437,8.36479809 25.2136363,9.51978115 C24.0232116,10.0326437 22.4387583,10.082679 20.7146229,12.0236343 C20.3060007,12.480207 19.5784031,12.0882633 18.7653284,13.8645189 C17.9397448,15.6032479 17.8959639,16.7498917 18.0835965,17.9945215 L18.0273067,17.9966063 C18.0273067,17.9966063 18.0481548,20.9737106 18.412996,22.4664324 C18.5026427,22.8312737 18.5797806,23.0835353 18.4797098,23.0460088 C18.3275189,22.989719 18.1190382,22.8104256 17.808402,23.0877049 C17.3476596,23.5255144 17.5915821,24.9890489 18.1961761,26.4713466 C18.6715121,27.774351 18.3546214,28.1621251 18.8612295,28.8480266 C19.0405229,29.091949 19.2093923,29.221207 19.4032793,29.3025145 C19.5325373,29.3546347 19.7160004,29.3713131 19.8014774,29.642338 C20.3581209,31.662516 20.4602764,32.2837884 21.0398528,33.4846373 C21.2900296,34.0037542 21.5714786,35.3025889 22.0885107,35.8071122 C22.1739878,36.5180314 22.0864259,38.5673967 21.9738463,39.1782451 C21.7945529,40.1393411 21.4568142,40.4166204 20.5520079,40.821073 C20.0599935,42.4201199 18.7549043,43.8690608 13.2968797,45.5431608 C13.1113319,45.5994506 12.9195296,45.6578252 12.7256426,45.7141149 C12.5213864,45.7822003 12.3461722,45.8666218 12.2,45.9639921 C16.4066598,49.7149342 21.9537953,51.9944396 28.0333378,51.9944396 C34.1212804,51.9944396 39.6753437,49.7086306 43.8841049,45.9484356 L43.8841086,45.9484323 Z" id="Shape"></path>
        </g>
    </g>
</svg>