<?xml version="1.0" encoding="UTF-8"?>
<svg width="56px" height="56px" viewBox="0 0 56 56" version="1.1" xmlns="http://www.w3.org/2000/svg" xmlns:xlink="http://www.w3.org/1999/xlink">
    <!-- Generator: Sketch 52.1 (67048) - http://www.bohemiancoding.com/sketch -->
    <title>persons</title>
    <desc>Created with Sketch.</desc>
    <g id="Page-1" stroke="none" stroke-width="1" fill="none" fill-rule="evenodd">
        <g id="persons" transform="translate(0.000000, 6.000000)" fill="#000000">
            <path d="M4.30035369,45 L2.00001229,45 C1.42848203,45 0.884256833,44.7554862 0.504710575,44.3281789 C-0.228816841,43.5023466 -0.153988919,42.2382357 0.671836742,41.5047008 C2.85865966,39.5623034 3.98725597,38.5792107 4.05762567,38.5554227 C4.20632556,38.5116418 4.35342654,38.4662393 4.49573074,38.4224584 C8.68171275,37.1203806 9.68263893,35.9934266 10.0599849,34.7497234 C10.7539178,34.4351492 11.0129434,34.2194875 11.1504508,33.4719684 C11.2367927,32.9968641 11.3039475,31.4029133 11.2383916,30.8499762 C10.8418585,30.4575692 10.6260039,29.4473644 10.434133,29.0436068 C9.98963227,28.1096132 9.91128501,27.6264013 9.4843724,26.0551518 C9.41881654,25.8443546 9.27811126,25.8313825 9.17897799,25.7908446 C9.0302781,25.7276055 8.90076529,25.6270714 8.76325786,25.437354 C8.37471942,24.9038751 8.61775581,24.602273 8.25320122,23.5888251 C7.78951338,22.4359269 7.60243931,21.2976223 7.95580143,20.9571038 C8.19404105,20.7414421 8.35393341,20.8808925 8.47065483,20.9246735 C8.54740317,20.9538608 8.48824299,20.7576573 8.41948928,20.4738919 C8.13967765,19.3128861 8.12368841,16.9973604 8.12368841,16.9973604 L8.16685935,16.9957389 C8.02295622,16.0276936 8.05653362,15.1358595 8.68970737,13.7835147 C9.31328758,12.4019826 9.87131192,12.7068277 10.1847009,12.3517156 C11.5070108,10.8420837 12.7221927,10.8031673 13.6351781,10.4042742 C13.7123455,10.3704825 13.7890581,10.3390885 13.8653146,10.3099908 C13.9099248,11.2974178 14.0062048,12.6203612 14.212996,13.4664324 C14.3026427,13.8312737 14.3797806,14.0835353 14.2797098,14.0460088 C14.1275189,13.989719 13.9190382,13.8104256 13.608402,14.0877049 C13.1476596,14.5255144 13.3915821,15.9890489 13.9961761,17.4713466 C14.4715121,18.774351 14.1546214,19.1621251 14.6612295,19.8480266 C14.8405229,20.091949 15.0093923,20.221207 15.2032793,20.3025145 C15.3325373,20.3546347 15.5160004,20.3713131 15.6014774,20.642338 C16.1581209,22.662516 16.2602764,23.2837884 16.8398528,24.4846373 C17.0900296,25.0037542 17.3714786,26.3025889 17.8885107,26.8071122 C17.9739878,27.5180314 17.8864259,29.5673967 17.7738463,30.1782451 C17.5945529,31.1393411 17.2568142,31.4166204 16.3520079,31.821073 C15.8599935,33.4201199 14.5549043,34.8690608 9.09687969,36.5431608 C8.91133187,36.5994506 8.71952963,36.6578252 8.52564258,36.7141149 C8.42245723,36.7485101 6.57423248,38.342779 2.98096831,41.4969217 C2.15083721,42.2255952 2.06859808,43.4892566 2.7972772,44.3193829 C3.17701277,44.7519854 3.72472874,45 4.30035369,45 Z" id="Combined-Shape"></path>
            <path d="M35.8451886,45 L51.2078809,45 C52.3124504,45 53.2078809,44.1045695 53.2078809,43 C53.2078809,42.4103512 52.9476832,41.8507509 52.4968201,41.4707401 L47.9625218,37.6489995 C48.7228365,37.971226 49.7195818,38.2503071 51.0477644,38.4581317 C51.265236,38.4921836 51.4909451,38.5246139 51.7265393,38.5554227 L55.2287601,41.4606992 C55.6867975,41.8406653 55.951829,42.404876 55.951829,43 C55.951829,44.1045695 55.0563985,45 53.951829,45 C49.2535659,45 44.5553027,45 39.8570395,45 L35.8451886,45 Z M40.5161324,10.0840824 C41.4167367,10.2416167 42.2292448,10.5921329 42.9502432,10.8891077 C43.5499375,11.1436858 45.2979477,11.3398893 45.8811669,12.6095367 C46.2222019,13.3489483 46.5204016,14.6121096 46.6357274,14.7256158 C46.7576433,15.2704453 46.8235438,16.1493073 46.7609383,17.1124881 C46.6835053,18.3026813 46.6818577,19.2869418 46.3951907,20.4479476 C46.3227001,20.7300915 46.2600947,20.9279165 46.3408228,20.8971077 C46.4610911,20.8533268 46.6110147,20.6927966 46.856494,20.9084583 C47.2189466,21.2489768 47.1448086,22.4359269 46.6670301,23.5888251 C46.2930449,24.602273 46.4989839,24.7887474 46.2600947,25.2038556 C46.1579489,25.3854655 46.0871059,25.6303145 45.7773737,25.7405776 C45.6752279,25.7778725 45.550017,25.8670559 45.5022392,26.0843391 C45.1694418,27.6118077 45.0854187,27.8907085 44.7361461,29.0371207 C44.6059927,29.4652011 44.307793,30.387844 43.9140377,30.7510637 C43.8316621,31.4077779 44.0260685,33.0925335 44.1380993,33.4719684 C44.3984062,34.3605595 44.6471805,34.5340617 45.1546142,34.7497234 C45.4423681,35.3415577 45.6996814,36.0163857 46.3620796,36.6453416 C46.2374006,36.6269697 46.1148954,36.608198 45.9943891,36.5890265 C39.93594,35.6258457 39.3271764,33.4722401 38.5370346,31.821073 C37.894914,31.5437937 37.5801082,31.3207193 37.2507087,30.1782451 C37.1089418,29.6904003 36.8629346,27.5242858 36.9671749,26.679939 C37.4654438,26.2129422 37.8427938,25.0266871 38.0074936,24.476298 C38.4494727,23.0023395 38.5557978,22.6437527 38.9769288,20.6798645 C39.0373882,20.4005004 39.1958336,20.285836 39.3250916,20.2378855 C39.7170353,20.0961186 39.806682,19.7813127 39.93594,19.5478144 C40.2382371,19.0141038 39.9776362,18.774351 40.4508874,17.4713466 C41.0554814,15.9890489 41.1492977,14.4629702 40.6906402,14.0251607 C40.3800039,13.7478814 40.1902865,13.9542773 40.0380956,14.010567 C39.93594,14.0501784 40.0151627,13.7958319 40.1068942,13.4330755 C40.392979,12.2558532 40.4547421,11.2199665 40.5161324,10.0840824 Z" id="Combined-Shape"></path>
            <path d="M42.8533296,36.7141149 C42.5552022,36.6745036 42.2695836,36.6328075 41.9943891,36.5890265 C35.93594,35.6258457 35.3271764,33.4722401 34.5370346,31.821073 C33.894914,31.5437937 33.5801082,31.3207193 33.2507087,30.1782451 C33.1089418,29.6904003 32.8629346,27.5242858 32.9671749,26.679939 C33.4654438,26.2129422 33.8427938,25.0266871 34.0074936,24.476298 C34.4494727,23.0023395 34.5557978,22.6437527 34.9769288,20.6798645 C35.0373882,20.4005004 35.1958336,20.285836 35.3250916,20.2378855 C35.7170353,20.0961186 35.806682,19.7813127 35.93594,19.5478144 C36.2382371,19.0141038 35.9776362,18.774351 36.4508874,17.4713466 C37.0554814,15.9890489 37.1492977,14.4629702 36.6906402,14.0251607 C36.3800039,13.7478814 36.1902865,13.9542773 36.0380956,14.010567 C35.93594,14.0501784 36.0151627,13.7958319 36.1068942,13.4330755 C36.4696506,11.9403537 36.4717354,10.6748759 36.5697214,9.14462758 C36.648944,7.90625224 36.5655517,6.77628687 36.411276,6.07579172 C36.2653395,5.92985524 35.8879895,4.30579061 35.4564344,3.35511863 C34.7184128,1.72271477 32.5064326,1.47045313 31.7475628,1.14313844 C29.9442048,0.388438313 27.6884437,-0.635201909 25.0136363,0.519781152 C23.8232116,1.03264367 22.2387583,1.08267903 20.5146229,3.02363432 C20.1060007,3.48020705 19.3784031,3.08826334 18.5653284,4.86451888 C17.7397448,6.60324789 17.6959639,7.74989172 17.8835965,8.99452148 L17.8273067,8.99660629 C17.8273067,8.99660629 17.8481548,11.9737106 18.212996,13.4664324 C18.3026427,13.8312737 18.3797806,14.0835353 18.2797098,14.0460088 C18.1275189,13.989719 17.9190382,13.8104256 17.608402,14.0877049 C17.1476596,14.5255144 17.3915821,15.9890489 17.9961761,17.4713466 C18.4715121,18.774351 18.1546214,19.1621251 18.6612295,19.8480266 C18.8405229,20.091949 19.0093923,20.221207 19.2032793,20.3025145 C19.3325373,20.3546347 19.5160004,20.3713131 19.6014774,20.642338 C20.1581209,22.662516 20.2602764,23.2837884 20.8398528,24.4846373 C21.0900296,25.0037542 21.3714786,26.3025889 21.8885107,26.8071122 C21.9739878,27.5180314 21.8864259,29.5673967 21.7738463,30.1782451 C21.5945529,31.1393411 21.2568142,31.4166204 20.3520079,31.821073 C19.8599935,33.4201199 18.5549043,34.8690608 13.0968797,36.5431608 C12.9113319,36.5994506 12.7195296,36.6578252 12.5256426,36.7141149 C12.4224572,36.7485101 10.5742325,38.342779 6.98096831,41.4969217 L6.98096343,41.4969161 C6.15083721,42.2255952 6.06859808,43.4892566 6.7972772,44.3193829 C7.17701277,44.7519854 7.72472874,45 8.30035369,45 C17.8723874,45 24.3833821,45 27.8333378,45 C34.2915188,45 40.7496998,45 47.2078809,45 L47.2078809,45 C48.3124504,45 49.2078809,44.1045695 49.2078809,43 C49.2078809,42.4103512 48.9476832,41.8507509 48.4968201,41.4707401 L42.8533296,36.7141149 Z" id="Path"></path>
        </g>
    </g>
</svg>