<?xml version="1.0" encoding="UTF-8"?>
<svg width="56px" height="56px" viewBox="0 0 56 56" version="1.1" xmlns="http://www.w3.org/2000/svg" xmlns:xlink="http://www.w3.org/1999/xlink">
    <!-- Generator: Sketch 52.1 (67048) - http://www.bohemiancoding.com/sketch -->
    <title>persons</title>
    <desc>Created with Sketch.</desc>
    <g id="Page-1" stroke="none" stroke-width="1" fill="none" fill-rule="evenodd">
        <g id="persons" transform="translate(2.000000, 6.000000)" fill="#000000">
            <path d="M4.30035369,45 L2.0171608,45 C1.44563054,45 0.901405341,44.7554862 0.521859083,44.3281789 C-0.211668333,43.5023466 -0.136840411,42.2382357 0.68898525,41.5047008 C2.87580817,39.5623034 4.00440448,38.5792107 4.07477418,38.5554227 C4.22347407,38.5116418 4.37057504,38.4662393 4.51287925,38.4224584 C8.69886126,37.1203806 9.69978744,35.9934266 10.0771334,34.7497234 C10.7710663,34.4351492 11.0300919,34.2194875 11.1675993,33.4719684 C11.2539412,32.9968641 11.321096,31.4029133 11.2555401,30.8499762 C10.8590071,30.4575692 10.6431524,29.4473644 10.4512815,29.0436068 C10.0067808,28.1096132 9.92843352,27.6264013 9.50152091,26.0551518 C9.43596504,25.8443546 9.29525977,25.8313825 9.1961265,25.7908446 C9.04742661,25.7276055 8.91791379,25.6270714 8.78040636,25.437354 C8.39186793,24.9038751 8.63490431,24.602273 8.27034973,23.5888251 C7.80666188,22.4359269 7.61958782,21.2976223 7.97294994,20.9571038 C8.21118956,20.7414421 8.37108192,20.8808925 8.48780334,20.9246735 C8.56455168,20.9538608 8.5053915,20.7576573 8.43663779,20.4738919 C8.15682616,19.3128861 8.14083692,16.9973604 8.14083692,16.9973604 L8.18400786,16.9957389 C8.04010473,16.0276936 8.07368213,15.1358595 8.70685588,13.7835147 C9.33043609,12.4019826 9.88846043,12.7068277 10.2018495,12.3517156 C11.5241593,10.8420837 12.7393412,10.8031673 13.6523266,10.4042742 C13.7238108,10.3729712 13.7949047,10.3437257 13.8656073,10.3164572 C13.9103453,11.303187 14.0066559,12.6222067 14.212996,13.4664324 C14.3026427,13.8312737 14.3797806,14.0835353 14.2797098,14.0460088 C14.1275189,13.989719 13.9190382,13.8104256 13.608402,14.0877049 C13.1476596,14.5255144 13.3915821,15.9890489 13.9961761,17.4713466 C14.4715121,18.774351 14.1546214,19.1621251 14.6612295,19.8480266 C14.8405229,20.091949 15.0093923,20.221207 15.2032793,20.3025145 C15.3325373,20.3546347 15.5160004,20.3713131 15.6014774,20.642338 C16.1581209,22.662516 16.2602764,23.2837884 16.8398528,24.4846373 C17.0900296,25.0037542 17.3714786,26.3025889 17.8885107,26.8071122 C17.9739878,27.5180314 17.8864259,29.5673967 17.7738463,30.1782451 C17.5945529,31.1393411 17.2568142,31.4166204 16.3520079,31.821073 C15.8599935,33.4201199 14.5549043,34.8690608 9.09687969,36.5431608 C8.91133187,36.5994506 8.71952963,36.6578252 8.52564258,36.7141149 C8.42245723,36.7485101 6.57423248,38.342779 2.98096831,41.4969217 C2.15083721,42.2255952 2.06859808,43.4892566 2.7972772,44.3193829 C3.17701277,44.7519854 3.72472874,45 4.30035369,45 Z" id="Combined-Shape"></path>
            <path d="M47.2078809,45 C48.3124504,45 49.2078809,44.1045695 49.2078809,43 C49.2078809,42.4103512 48.9476832,41.8507509 48.4968201,41.4707401 L44.3619878,37.98569 C44.9606971,38.1669106 45.667849,38.3267581 46.5074424,38.4581317 C46.724914,38.4921836 46.9506231,38.5246139 47.1862173,38.5554227 L50.6884381,41.4606992 C51.1464755,41.8406653 51.411507,42.404876 51.411507,43 C51.411507,44.1045695 50.5160765,45 49.411507,45 L47.2078809,45 Z M36.5097905,10.2008858 C37.2003379,10.3807855 37.8342939,10.6520103 38.4099212,10.8891077 C39.0096155,11.1436858 40.7576257,11.3398893 41.3408449,12.6095367 C41.6818799,13.3489483 41.9800796,14.6121096 42.0954054,14.7256158 C42.2173213,15.2704453 42.2832218,16.1493073 42.2206163,17.1124881 C42.1431832,18.3026813 42.1415357,19.2869418 41.8548686,20.4479476 C41.7823781,20.7300915 41.7197727,20.9279165 41.8005008,20.8971077 C41.9207691,20.8533268 42.0706927,20.6927966 42.316172,20.9084583 C42.6786246,21.2489768 42.6044866,22.4359269 42.1267081,23.5888251 C41.7527229,24.602273 41.9586619,24.7887474 41.7197727,25.2038556 C41.6176269,25.3854655 41.5467839,25.6303145 41.2370517,25.7405776 C41.1349059,25.7778725 41.009695,25.8670559 40.9619172,26.0843391 C40.6291198,27.6118077 40.5450966,27.8907085 40.1958241,29.0371207 C40.0656707,29.4652011 39.767471,30.387844 39.3737157,30.7510637 C39.2913401,31.4077779 39.4857465,33.0925335 39.5977773,33.4719684 C39.8580842,34.3605595 40.1068585,34.5340617 40.6142922,34.7497234 C40.8866064,35.3098023 41.131659,35.9442078 41.7185644,36.5437239 C35.9171623,35.559687 35.315018,33.4468326 34.5370346,31.821073 C33.894914,31.5437937 33.5801082,31.3207193 33.2507087,30.1782451 C33.1089418,29.6904003 32.8629346,27.5242858 32.9671749,26.679939 C33.4654438,26.2129422 33.8427938,25.0266871 34.0074936,24.476298 C34.4494727,23.0023395 34.5557978,22.6437527 34.9769288,20.6798645 C35.0373882,20.4005004 35.1958336,20.285836 35.3250916,20.2378855 C35.7170353,20.0961186 35.806682,19.7813127 35.93594,19.5478144 C36.2382371,19.0141038 35.9776362,18.774351 36.4508874,17.4713466 C37.0554814,15.9890489 37.1492977,14.4629702 36.6906402,14.0251607 C36.3800039,13.7478814 36.1902865,13.9542773 36.0380956,14.010567 C35.93594,14.0501784 36.0151627,13.7958319 36.1068942,13.4330755 C36.383144,12.2963237 36.4502304,11.2913569 36.5097905,10.2008858 Z" id="Combined-Shape"></path>
            <path d="M40.8533296,36.7141149 C40.5552022,36.6745036 40.2695836,36.6328075 39.9943891,36.5890265 C33.93594,35.6258457 33.3271764,33.4722401 32.5370346,31.821073 C31.894914,31.5437937 31.5801082,31.3207193 31.2507087,30.1782451 C31.1089418,29.6904003 30.8629346,27.5242858 30.9671749,26.679939 C31.4654438,26.2129422 31.8427938,25.0266871 32.0074936,24.476298 C32.4494727,23.0023395 32.5557978,22.6437527 32.9769288,20.6798645 C33.0373882,20.4005004 33.1958336,20.285836 33.3250916,20.2378855 C33.7170353,20.0961186 33.806682,19.7813127 33.93594,19.5478144 C34.2382371,19.0141038 33.9776362,18.774351 34.4508874,17.4713466 C35.0554814,15.9890489 35.1492977,14.4629702 34.6906402,14.0251607 C34.3800039,13.7478814 34.1902865,13.9542773 34.0380956,14.010567 C33.93594,14.0501784 34.0151627,13.7958319 34.1068942,13.4330755 C34.4696506,11.9403537 34.4717354,10.6748759 34.5697214,9.14462758 C34.648944,7.90625224 34.5655517,6.77628687 34.411276,6.07579172 C34.2653395,5.92985524 33.8879895,4.30579061 33.4564344,3.35511863 C32.7184128,1.72271477 30.5064326,1.47045313 29.7475628,1.14313844 C27.9442048,0.388438313 25.6884437,-0.635201909 23.0136363,0.519781152 C21.8232116,1.03264367 20.2387583,1.08267903 18.5146229,3.02363432 C18.1060007,3.48020705 17.3784031,3.08826334 16.5653284,4.86451888 C15.7397448,6.60324789 15.6959639,7.74989172 15.8835965,8.99452148 L15.8273067,8.99660629 C15.8273067,8.99660629 15.8481548,11.9737106 16.212996,13.4664324 C16.3026427,13.8312737 16.3797806,14.0835353 16.2797098,14.0460088 C16.1275189,13.989719 15.9190382,13.8104256 15.608402,14.0877049 C15.1476596,14.5255144 15.3915821,15.9890489 15.9961761,17.4713466 C16.4715121,18.774351 16.1546214,19.1621251 16.6612295,19.8480266 C16.8405229,20.091949 17.0093923,20.221207 17.2032793,20.3025145 C17.3325373,20.3546347 17.5160004,20.3713131 17.6014774,20.642338 C18.1581209,22.662516 18.2602764,23.2837884 18.8398528,24.4846373 C19.0900296,25.0037542 19.3714786,26.3025889 19.8885107,26.8071122 C19.9739878,27.5180314 19.8864259,29.5673967 19.7738463,30.1782451 C19.5945529,31.1393411 19.2568142,31.4166204 18.3520079,31.821073 C17.8599935,33.4201199 16.5549043,34.8690608 11.0968797,36.5431608 C10.9113319,36.5994506 10.7195296,36.6578252 10.5256426,36.7141149 C10.4224572,36.7485101 8.57423248,38.342779 4.98096831,41.4969217 L4.98096343,41.4969161 C4.15083721,42.2255952 4.06859808,43.4892566 4.7972772,44.3193829 C5.17701277,44.7519854 5.72472874,45 6.30035369,45 C15.8723874,45 22.3833821,45 25.8333378,45 C32.2915188,45 38.7496998,45 45.2078809,45 L45.2078809,45 C46.3124504,45 47.2078809,44.1045695 47.2078809,43 C47.2078809,42.4103512 46.9476832,41.8507509 46.4968201,41.4707401 L40.8533296,36.7141149 Z" id="Path"></path>
        </g>
    </g>
</svg>