<svg xmlns="http://www.w3.org/2000/svg" width="56" height="56" viewBox="0 0 56 56">
  <path fill-rule="evenodd" d="M27.9989576,55.9979152 C12.5359443,55.9979152 -3.55271368e-15,43.4640557 -3.55271368e-15,27.9989576 C-3.55271368e-15,12.5359443 12.5359443,0 27.9989576,0 C43.4619709,0 56,12.5359443 56,27.9989576 C56,43.4640557 43.4619709,55.9979152 27.9989576,55.9979152 Z M27.9989576,4.12583299 C14.8354864,4.12583299 4.12583299,14.8354864 4.12583299,27.9989576 C4.12583299,35.0727076 7.23428018,41.4167753 12.1356614,45.7907003 C12.2878523,45.6843751 12.4734001,45.5926436 12.6923048,45.5196754 C12.8861919,45.4633856 13.0779941,45.405011 13.2635419,45.3487212 C18.7215666,43.6746212 20.0266557,42.2256804 20.5186702,40.6266334 C21.4234764,40.2221809 21.7612151,39.9449015 21.9405085,38.9838055 C22.0530881,38.3729571 22.14065,36.3235918 22.0551729,35.6126726 C21.5381408,35.1081494 21.2566919,33.8093146 21.006515,33.2901977 C20.4269387,32.0893489 20.3247831,31.4680764 19.7681397,29.4478984 C19.6826626,29.1768735 19.4991996,29.1601951 19.3699416,29.1080749 C19.1760545,29.0267674 19.0071851,28.8975094 18.8278917,28.653587 C18.3212836,27.9676855 18.6381743,27.5799114 18.1628383,26.276907 C17.5582443,24.7946093 17.3143219,23.3310748 17.7750642,22.8932653 C18.0857005,22.615986 18.2941812,22.7952794 18.4463721,22.8515692 C18.5464428,22.8890957 18.4693049,22.6368341 18.3796582,22.2719929 C18.014817,20.7792711 17.993969,17.8021667 17.993969,17.8021667 L18.0502587,17.8000819 C17.8626261,16.5554521 17.9064071,15.4088083 18.7319906,13.6700793 C19.5450653,11.8938238 20.272663,12.2857675 20.6812851,11.8291947 C22.4054205,9.88823945 23.9898738,9.83820409 25.1802986,9.32534157 C27.8551059,8.17035851 30.1108671,9.19399873 31.9142251,9.94869886 C32.6730948,10.2760136 34.885075,10.5282752 35.6230967,12.1606791 C36.0546517,13.111351 36.4320018,14.7354157 36.5779383,14.8813521 C36.732214,15.5818473 36.8156063,16.7118127 36.7363836,17.950188 C36.6383977,19.4804363 36.6363129,20.7459142 36.2735565,22.2386359 C36.181825,22.6013924 36.1026023,22.8557388 36.2047578,22.8161275 C36.3569487,22.7598377 36.5466662,22.5534418 36.8573024,22.8307211 C37.3159599,23.2685306 37.2221436,24.7946093 36.6175496,26.276907 C36.1442984,27.5799114 36.4048993,27.8196642 36.1026023,28.3533748 C35.9733443,28.5868732 35.8836976,28.901679 35.4917538,29.0434459 C35.3624958,29.0913964 35.2040505,29.2060608 35.1435911,29.485425 C34.7224601,31.4493131 34.6161349,31.8078999 34.1741558,33.2818585 C34.0094561,33.8322475 33.632106,35.0185027 33.1338372,35.4854994 C33.0295968,36.3298462 33.275604,38.4959607 33.4173709,38.9838055 C33.7467704,40.1262797 34.0615763,40.3493541 34.7036968,40.6266334 C35.4938387,42.2778005 36.1026023,44.4314061 42.1610513,45.3945869 C42.4362459,45.4383679 42.7218644,45.480064 43.0199918,45.5196754 C43.363985,45.5697107 43.6412643,45.6614422 43.8872715,45.7698522 C48.774059,41.3938424 51.874167,35.0601988 51.874167,27.9989576 C51.874167,14.8354864 41.1624288,4.12583299 27.9989576,4.12583299 Z" style="mix-blend-mode:color-burn"/>
</svg>
