<svg xmlns="http://www.w3.org/2000/svg" width="56" height="56" viewBox="0 0 56 56">
  <path d="M45.6606063,44.2514354 C49.5964467,39.9765142 52,34.2689471 52,28 C52,14.745166 41.254834,4 28,4 C14.745166,4 4,14.745166 4,28 C4,34.2668094 6.40191436,39.9726217 10.335368,44.2470617 C12.8917742,43.0870392 13.6906424,41.9944705 14.0516878,40.821073 C14.956494,40.4166204 15.2942327,40.1393411 15.4735261,39.1782451 C15.5861057,38.5673967 15.6736676,36.5180314 15.5881905,35.8071122 C15.0711584,35.3025889 14.7897095,34.0037542 14.5395326,33.4846373 C13.9599563,32.2837884 13.8578007,31.662516 13.3011573,29.642338 C13.2156802,29.3713131 13.0322172,29.3546347 12.9029592,29.3025145 C12.7090721,29.221207 12.5402027,29.091949 12.3609093,28.8480266 C11.8543012,28.1621251 12.1711919,27.774351 11.6958559,26.4713466 C11.0912619,24.9890489 10.8473395,23.5255144 11.3080818,23.0877049 C11.6187181,22.8104256 11.8271988,22.989719 11.9793897,23.0460088 C12.0794604,23.0835353 12.0023225,22.8312737 11.9126758,22.4664324 C11.5478346,20.9737106 11.5269866,17.9966063 11.5269866,17.9966063 L11.5832763,17.9945215 C11.3956437,16.7498917 11.4394247,15.6032479 12.2650082,13.8645189 C13.0780829,12.0882633 13.8056806,12.480207 14.2143027,12.0236343 C15.9384381,10.082679 17.5228914,10.0326437 18.7133162,9.51978115 C21.3881235,8.36479809 23.6438847,9.38843831 25.4472427,10.1431384 C26.2061124,10.4704531 28.4180926,10.7227148 29.1561143,12.3551186 C29.5876693,13.3057906 29.9650194,14.9298552 30.1109559,15.0757917 C30.2652316,15.7762869 30.3486239,16.9062522 30.2694012,18.1446276 C30.1714153,19.6748759 30.1693305,20.9403537 29.8065741,22.4330755 C29.7148426,22.7958319 29.6356199,23.0501784 29.7377754,23.010567 C29.8899663,22.9542773 30.0796838,22.7478814 30.39032,23.0251607 C30.8489775,23.4629702 30.7551612,24.9890489 30.1505672,26.4713466 C29.677316,27.774351 29.9379169,28.0141038 29.6356199,28.5478144 C29.5063619,28.7813127 29.4167152,29.0961186 29.0247714,29.2378855 C28.8955134,29.285836 28.7370681,29.4005004 28.6766087,29.6798645 C28.2554777,31.6437527 28.1491525,32.0023395 27.7071734,33.476298 C27.5424737,34.0266871 27.1651236,35.2129422 26.6668548,35.679939 C26.5626144,36.5242858 26.8086216,38.6904003 26.9503885,39.1782451 C27.279788,40.3207193 27.5945939,40.5437937 28.2367144,40.821073 C28.9953504,42.4064021 29.5867843,44.4549004 34.9949886,45.4682393 C35.3248076,45.0960307 35.5050966,44.7217139 35.6218384,44.3354535 C36.2735965,44.038855 36.5168795,43.8355168 36.6460298,43.1307131 C36.7271241,42.6827575 36.7901975,41.1798897 36.7286258,40.658549 C36.3561926,40.2885652 36.1534568,39.3360864 35.9732471,38.9554007 C35.5557615,38.0747782 35.4821759,37.6191784 35.0812095,36.1377145 C35.0196378,35.9389629 34.8874841,35.9267321 34.7943758,35.8885106 C34.6547133,35.8288851 34.5330718,35.7340959 34.4039216,35.5552195 C34.0389971,35.0522251 34.2672626,34.7678574 33.9248643,33.8123209 C33.4893577,32.7253025 33.3136533,31.6520439 33.6455394,31.3309836 C33.8692997,31.1276454 34.0194744,31.2591273 34.1291019,31.3004064 C34.2011857,31.3279259 34.1456211,31.142934 34.081046,30.8753838 C33.8182403,29.7807211 33.8032228,27.5975113 33.8032228,27.5975113 L33.84377,27.5959824 C33.7086128,26.6832539 33.7401494,25.8423818 34.3348412,24.5673138 C34.9205225,23.2647264 35.4446322,23.5521518 35.7389746,23.2173318 C36.9809193,21.7939646 38.122247,21.757272 38.9797445,21.3811728 C40.9064858,20.5341853 42.531376,21.2848548 43.8303871,21.8383015 C44.377023,22.0783323 45.9703765,22.2633242 46.5019949,23.4604203 C46.8128565,24.1575798 47.0846727,25.3485605 47.189795,25.4555806 C47.3009243,25.969277 47.3609942,26.7979183 47.3039278,27.7060602 C47.2333457,28.8282423 47.2318439,29.7562594 46.97054,30.850922 C46.9044631,31.1169434 46.8473967,31.3034641 46.9209823,31.2744158 C47.0306099,31.2331367 47.1672688,31.0817797 47.3910291,31.2851178 C47.7214134,31.6061781 47.6538348,32.7253025 47.2183282,33.8123209 C46.8774317,34.7678574 47.06515,34.9436761 46.8473967,35.3350639 C46.7542884,35.506296 46.6897133,35.7371536 46.4073849,35.841116 C46.3142766,35.8762798 46.2001438,35.960367 46.1565931,36.165234 C45.8532402,37.6054187 45.7766512,37.8683823 45.4582808,38.9492852 C45.3396428,39.3529039 45.0678266,40.2228243 44.7089091,40.5652886 C44.6338217,41.1844763 44.8110279,42.7729602 44.9131467,43.1307131 C45.11759,43.8525962 45.314229,44.0739333 45.6606063,44.2514354 Z M28,56 C12.536027,56 0,43.463973 0,28 C0,12.536027 12.536027,0 28,0 C43.463973,0 56,12.536027 56,28 C56,43.463973 43.463973,56 28,56 Z"/>
</svg>
