<?xml version="1.0" encoding="UTF-8"?>
<svg width="44px" height="50px" viewBox="0 0 44 50" version="1.1" xmlns="http://www.w3.org/2000/svg" xmlns:xlink="http://www.w3.org/1999/xlink">
    <!-- Generator: Sketch 40.1 (33804) - http://www.bohemiancoding.com/sketch -->
    <title>phone_fill</title>
    <desc>Created with Sketch.</desc>
    <defs></defs>
    <g id="Page-1" stroke="none" stroke-width="1" fill="none" fill-rule="evenodd">
        <g id="phone_fill" transform="translate(0.000000, 3.000000)" fill="#000000">
            <path d="M0.035271681,7.19032503 C-0.145227232,6.10868799 0.384238771,4.65457522 1.23001575,3.93209565 L4.76268025,0.914423137 C6.43899315,-0.517516799 8.85656847,-0.237768104 10.1657538,1.54370616 L14.9475491,8.05053549 C15.9270903,9.38344645 15.9110291,11.5348803 14.9118794,12.8556278 L14.1135038,13.9109777 C13.1142628,15.231846 13.241126,17.2572459 14.4018041,18.4398718 L24.319408,28.5450123 C25.4778729,29.7253832 27.4892115,29.888306 28.8289977,28.8962195 L29.4320755,28.4496517 C30.7641882,27.4632472 32.9882794,27.3557186 34.4130628,28.2175493 L40.8218369,32.0941235 C42.7110783,33.2368981 43.5746499,35.8356487 42.7528398,37.8748896 C42.7528398,37.8748896 42.3137575,39.0125115 42.063118,39.5263468 C40.7035713,42.3135493 38.4113954,43.0375707 38.4113954,43.0375707 C37.9076949,43.2664928 37.0473525,43.43152 36.500595,43.3827119 C36.500595,43.3827119 26.1339239,43.4520708 13.4875912,30.6822628 C0.841258577,17.9124549 0.035271681,7.19032503 0.035271681,7.19032503 Z" id="Rectangle-57-Copy"></path>
        </g>
    </g>
</svg>