<svg xmlns="http://www.w3.org/2000/svg" width="56" height="56" viewBox="0 0 56 56">
  <g fill-rule="evenodd" transform="translate(4 15)">
    <path fill-rule="nonzero" d="M0,22 L1.10218212e-15,4 C1.23745287e-15,1.790861 1.790861,-3.55271368e-15 4,-3.55271368e-15 L44,0 C46.209139,0 48,1.790861 48,4 L48,22 C48,24.209139 46.209139,26 44,26 L4,26 C1.790861,26 -1.3527075e-16,24.209139 0,22 Z M44,23 C44.5522847,23 45,22.5522847 45,22 L45,4 C45,3.44771525 44.5522847,3 44,3 L6,3 C5.44771525,3 5,3.44771525 5,4 L5,22 C5,22.5522847 5.44771525,23 6,23 L44,23 Z M2,15.5 C2,15.7761424 2.22385763,16 2.5,16 C2.77614237,16 3,15.7761424 3,15.5 L3,10.5 C3,10.2238576 2.77614237,10 2.5,10 C2.22385763,10 2,10.2238576 2,10.5 L2,15.5 Z M3,17.5 C3,17.2238576 2.77614237,17 2.5,17 C2.22385763,17 2,17.2238576 2,17.5 C2,17.7761424 2.22385763,18 2.5,18 C2.77614237,18 3,17.7761424 3,17.5 Z"/>
    <path d="M29,21 L19,21 C18.4477153,21 18,20.5522847 18,20 C18,19.4477153 18.4477153,19 19,19 L29,19 C29.5522847,19 30,19.4477153 30,20 C30,20.5522847 29.5522847,21 29,21 Z"/>
  </g>
</svg>
