<svg xmlns="http://www.w3.org/2000/svg" width="56" height="56" viewBox="0 0 56 56">
  <path d="M37.3663253,40.4797347 L37.50945,40.4925112 C37.513298,40.4928547 37.8564452,40.4296812 37.9122445,40.4043215 L38.0771678,40.329367 L38.2499121,40.2748029 C38.2084368,40.2879036 38.2747143,40.2600462 38.4123345,40.1830369 C38.7047644,40.0193996 39.0095677,39.7894111 39.3002011,39.4851175 C39.609296,39.1614947 39.8821233,38.7739554 40.108899,38.3090432 C40.1493027,38.2262118 40.2176221,38.0720237 40.3001239,37.87609 C40.3221155,37.8237406 40.3221155,37.8237406 40.3443305,37.7704026 C40.4233547,37.5802883 40.5070637,37.3729782 40.5893273,37.1651713 C40.6387494,37.0403255 40.6761969,36.9443576 40.7124066,36.8514467 C40.985085,36.1748221 40.6396681,35.1390914 40.0112495,34.7589701 L33.6024754,30.8823959 C33.2214743,30.6519339 32.3158791,30.6946216 31.9594651,30.9585395 L31.3563873,31.4051073 C28.8164692,33.285869 25.129542,32.9951803 22.9204238,30.7442888 L13.0028199,20.6391483 C10.8004896,18.3951731 10.5667864,14.7056402 12.4631037,12.1989525 L13.2614793,11.1436026 C13.4603501,10.880721 13.4655016,10.1879693 13.2722394,9.92498764 L8.49044402,3.41815832 C8.2135368,3.04135673 7.80409083,2.99376485 7.45331902,3.29340114 L3.92065451,6.31107365 C3.8757559,6.34942694 3.72909193,6.75026606 3.73646404,6.79444332 L3.75877983,6.9281704 L3.76894248,7.06336525 C3.78325952,7.25382624 3.85523118,7.74369858 4.02665193,8.49972142 C4.33066563,9.84052348 4.81783905,11.3818375 5.53032816,13.0915182 C7.61052129,18.0831256 11.1029547,23.3595007 16.361303,28.6691901 C21.568077,33.9268016 26.6823637,37.2625403 31.4792396,39.0900563 C33.1175225,39.7142101 34.5891448,40.1093389 35.8657535,40.3239705 C36.5811202,40.4442425 37.0452304,40.4808262 37.2285251,40.4806567 L37.3663253,40.4797347 Z M1.97212668,4.03001265 L5.50479119,1.01234014 C7.18110409,-0.419599799 9.59867941,-0.139851104 10.9078647,1.64162316 L15.6896601,8.14845249 C16.6692013,9.48136345 16.6531401,11.6327973 15.6539903,12.9535448 L14.8556148,14.0088947 C13.8563737,15.329763 13.983237,17.3551629 15.143915,18.5377888 L25.0615189,28.6429293 C26.2199838,29.8233002 28.2313225,29.986223 29.5711086,28.9941365 L30.1741864,28.5475687 C31.5062992,27.5611642 33.7303904,27.4536356 35.1551738,28.3154663 L41.5639478,32.1920405 C43.4531892,33.3348151 44.3167608,35.9335657 43.4949507,37.9728066 C43.4949507,37.9728066 43.0558684,39.1104285 42.8052289,39.6242638 C41.4456822,42.4114663 39.1535064,43.1354877 39.1535064,43.1354877 C38.6498059,43.3644098 37.7894635,43.529437 37.2427059,43.4806289 C37.2427059,43.4806289 26.8760348,43.5499878 14.2297022,30.7801798 C1.58336951,18.0103719 0.777382619,7.28824203 0.777382619,7.28824203 C0.596883706,6.20660499 1.12634971,4.75249222 1.97212668,4.03001265 Z" transform="translate(0 6)"/>
</svg>
