<svg xmlns="http://www.w3.org/2000/svg" width="56" height="56" viewBox="0 0 56 56">
  <path d="M1.97212668,4.03001265 L5.50479119,1.01234014 C7.18110409,-0.419599799 9.59867941,-0.139851104 10.9078647,1.64162316 L15.6896601,8.14845249 C16.6692013,9.48136345 16.6531401,11.6327973 15.6539903,12.9535448 L14.8556148,14.0088947 C13.8563737,15.329763 13.983237,17.3551629 15.143915,18.5377888 L25.0615189,28.6429293 C26.2199838,29.8233002 28.2313225,29.986223 29.5711086,28.9941365 L30.1741864,28.5475687 C31.5062992,27.5611642 33.7303904,27.4536356 35.1551738,28.3154663 L41.5639478,32.1920405 C43.4531892,33.3348151 44.3167608,35.9335657 43.4949507,37.9728066 C43.4949507,37.9728066 43.0558684,39.1104285 42.8052289,39.6242638 C41.4456822,42.4114663 39.1535064,43.1354877 39.1535064,43.1354877 C38.6498059,43.3644098 37.7894635,43.529437 37.2427059,43.4806289 C37.2427059,43.4806289 26.8760348,43.5499878 14.2297022,30.7801798 C1.58336951,18.0103719 0.777382619,7.28824203 0.777382619,7.28824203 C0.596883706,6.20660499 1.12634971,4.75249222 1.97212668,4.03001265 Z" transform="translate(0 6)"/>
</svg>
