<svg xmlns="http://www.w3.org/2000/svg" width="56" height="56" viewBox="0 0 56 56">
  <path d="M28,52 C41.254834,52 52,41.254834 52,28 C52,14.745166 41.254834,4 28,4 C14.745166,4 4,14.745166 4,28 C4,41.254834 14.745166,52 28,52 Z M28,56 C12.536027,56 0,43.463973 0,28 C0,12.536027 12.536027,0 28,0 C43.463973,0 56,12.536027 56,28 C56,43.463973 43.463973,56 28,56 Z"/>
  <path d="M15.7730125,16.4821846 L17.9931416,14.5772411 C19.0466328,13.673311 20.5659759,13.8499059 21.388743,14.9744839 L24.3938976,19.0820014 C25.0094976,19.9234181 24.9994038,21.2815377 24.3714807,22.1152761 L23.8697357,22.781479 C23.2417553,23.6152936 23.3214834,24.8938527 24.0509201,25.6404001 L30.2837115,32.0193966 C31.0117574,32.7645205 32.275798,32.8673676 33.1177965,32.2411006 L33.4968052,31.9591991 C34.3339813,31.3365189 35.7317278,31.2686401 36.6271435,31.8126815 L40.6547849,34.2598175 C41.8420926,34.9812083 42.3848105,36.6217022 41.8683379,37.9089985 C41.8683379,37.9089985 41.5923934,38.6271367 41.4348771,38.9515016 C40.58046,40.7109581 39.1399251,41.1680057 39.1399251,41.1680057 C38.8233708,41.3125156 38.2826823,41.4166911 37.9390685,41.3858804 C37.9390685,41.3858804 31.4240575,41.4296641 23.4763763,33.3685628 C15.5286952,25.3074615 15.0221667,18.5389828 15.0221667,18.5389828 C14.9087309,17.8561858 15.2414777,16.9382589 15.7730125,16.4821846 Z"/>
</svg>
