<svg xmlns="http://www.w3.org/2000/svg" width="56" height="56" viewBox="0 0 56 56">
  <path d="M28,56 C12.536027,56 0,43.463973 0,28 C0,12.536027 12.536027,0 28,0 C43.463973,0 56,12.536027 56,28 C56,43.463973 43.463973,56 28,56 Z M15.7730125,16.4821846 C15.2414777,16.9382589 14.9087309,17.8561858 15.0221667,18.5389828 C15.0221667,18.5389828 15.5286952,25.3074615 23.4763763,33.3685628 C31.4240575,41.4296641 37.9390685,41.3858804 37.9390685,41.3858804 C38.2826823,41.4166911 38.8233708,41.3125156 39.1399251,41.1680057 C39.1399251,41.1680057 40.58046,40.7109581 41.4348771,38.9515016 C41.5923934,38.6271367 41.8683379,37.9089985 41.8683379,37.9089985 C42.3848105,36.6217022 41.8420926,34.9812083 40.6547849,34.2598175 L36.6271435,31.8126815 C35.7317278,31.2686401 34.3339813,31.3365189 33.4968052,31.9591991 L33.1177965,32.2411006 C32.275798,32.8673676 31.0117574,32.7645205 30.2837115,32.0193966 L24.0509201,25.6404001 C23.3214834,24.8938527 23.2417553,23.6152936 23.8697357,22.781479 L24.3714807,22.1152761 C24.9994038,21.2815377 25.0094976,19.9234181 24.3938976,19.0820014 L21.388743,14.9744839 C20.5659759,13.8499059 19.0466328,13.673311 17.9931416,14.5772411 L15.7730125,16.4821846 Z"/>
</svg>
