<svg xmlns="http://www.w3.org/2000/svg" width="56" height="56" viewBox="0 0 56 56">
  <g fill-rule="evenodd" transform="translate(15 4)">
    <path fill-rule="nonzero" d="M4,0 L22,0 C24.209139,-4.05812251e-16 26,1.790861 26,4 L26,44 C26,46.209139 24.209139,48 22,48 L4,48 C1.790861,48 2.705415e-16,46.209139 0,44 L0,4 C-2.705415e-16,1.790861 1.790861,4.05812251e-16 4,0 Z M10.5,2 C10.2238576,2 10,2.22385763 10,2.5 C10,2.77614237 10.2238576,3 10.5,3 L15.5,3 C15.7761424,3 16,2.77614237 16,2.5 C16,2.22385763 15.7761424,2 15.5,2 L10.5,2 Z M8.5,3 C8.77614237,3 9,2.77614237 9,2.5 C9,2.22385763 8.77614237,2 8.5,2 C8.22385763,2 8,2.22385763 8,2.5 C8,2.77614237 8.22385763,3 8.5,3 Z M3,44 C3,44.5522847 3.44771525,45 4,45 L22,45 C22.5522847,45 23,44.5522847 23,44 L23,6 C23,5.44771525 22.5522847,5 22,5 L4,5 C3.44771525,5 3,5.44771525 3,6 L3,44 Z"/>
    <path d="M8,41 L18,41 C18.5522847,41 19,41.4477153 19,42 C19,42.5522847 18.5522847,43 18,43 L8,43 C7.44771525,43 7,42.5522847 7,42 C7,41.4477153 7.44771525,41 8,41 Z"/>
  </g>
</svg>
