<?xml version="1.0" encoding="UTF-8"?>
<svg width="44px" height="50px" viewBox="0 0 44 50" version="1.1" xmlns="http://www.w3.org/2000/svg" xmlns:xlink="http://www.w3.org/1999/xlink">
    <!-- Generator: Sketch 40.1 (33804) - http://www.bohemiancoding.com/sketch -->
    <title>phone</title>
    <desc>Created with Sketch.</desc>
    <defs></defs>
    <g id="Page-1" stroke="none" stroke-width="1" fill="none" fill-rule="evenodd">
        <g id="phone" transform="translate(0.000000, 3.000000)" fill="#000000">
            <path d="M2.77175586,7.13832418 C2.78969625,7.37698703 2.86883641,7.91565143 3.05140696,8.72084864 C3.36789952,10.1166866 3.87236487,11.7127087 4.60727466,13.4761898 C6.7366902,18.5859107 10.300947,23.9707967 15.6507694,29.3728533 C20.9577076,34.7316069 26.1928042,38.1461427 31.1232213,40.0245353 C32.8240119,40.6725032 34.3593438,41.084738 35.6999541,41.31013 C36.4767401,41.4407282 36.9985967,41.481437 37.2351048,41.4806442 C37.2325089,41.4806542 37.4205353,41.4885504 37.4205353,41.4885504 C37.6013062,41.5046875 38.1168071,41.4097836 38.3259984,41.3147102 L38.4359473,41.2647406 L38.5511102,41.2283645 C38.8329997,41.1393251 39.4131586,40.8146809 40.0233532,40.1758063 C40.4024568,39.7788843 40.7349053,39.3066557 41.0076757,38.7474501 C41.0578165,38.6446564 41.1326997,38.4756546 41.2217536,38.2641605 C41.2446861,38.2095712 41.2446861,38.2095712 41.2677349,38.1542312 C41.3491834,37.9582844 41.4349289,37.7459307 41.5191236,37.5332457 C41.5696831,37.405527 41.60815,37.3069465 41.6399213,37.2252333 C42.0959275,36.0936987 41.5768584,34.5372727 40.5288156,33.9033269 L34.1200415,30.0267527 C33.3918006,29.5862504 32.0466657,29.649657 31.3643722,30.1548826 L30.7612944,30.6014504 C28.6223037,32.1853328 25.4937926,31.9386714 23.6341222,30.0438357 L13.7165183,19.9386951 C11.8616602,18.0487626 11.6630956,14.9139719 13.2606074,12.8022666 L14.058983,11.7469167 C14.5246239,11.1313992 14.5333912,9.95241997 14.0780463,9.33280926 L9.29625092,2.82597993 C8.67541944,1.98118332 7.59664459,1.85579212 6.80380974,2.53304747 L3.27114524,5.55071999 C2.95991335,5.81658048 2.68488769,6.56823773 2.75010356,6.95904289 L2.77175586,7.13832418 Z M1.97212668,4.03001265 L5.50479119,1.01234014 C7.18110409,-0.419599799 9.59867941,-0.139851104 10.9078647,1.64162316 L15.6896601,8.14845249 C16.6692013,9.48136345 16.6531401,11.6327973 15.6539903,12.9535448 L14.8556148,14.0088947 C13.8563737,15.329763 13.983237,17.3551629 15.143915,18.5377888 L25.0615189,28.6429293 C26.2199838,29.8233002 28.2313225,29.986223 29.5711086,28.9941365 L30.1741864,28.5475687 C31.5062992,27.5611642 33.7303904,27.4536356 35.1551738,28.3154663 L41.5639478,32.1920405 C43.4531892,33.3348151 44.3167608,35.9335657 43.4949507,37.9728066 C43.4949507,37.9728066 43.0558684,39.1104285 42.8052289,39.6242638 C41.4456822,42.4114663 39.1535064,43.1354877 39.1535064,43.1354877 C38.6498059,43.3644098 37.7894635,43.529437 37.2427059,43.4806289 C37.2427059,43.4806289 26.8760348,43.5499878 14.2297022,30.7801798 C1.58336951,18.0103719 0.777382619,7.28824203 0.777382619,7.28824203 C0.596883706,6.20660499 1.12634971,4.75249222 1.97212668,4.03001265 Z" id="Rectangle-57-Copy"></path>
        </g>
    </g>
</svg>