<?xml version="1.0" encoding="UTF-8"?>
<svg width="56px" height="56px" viewBox="0 0 56 56" version="1.1" xmlns="http://www.w3.org/2000/svg" xmlns:xlink="http://www.w3.org/1999/xlink">
    <!-- Generator: Sketch 52.1 (67048) - http://www.bohemiancoding.com/sketch -->
    <title>photos</title>
    <desc>Created with Sketch.</desc>
    <g id="Page-1" stroke="none" stroke-width="1" fill="none" fill-rule="evenodd">
        <g id="photos" transform="translate(0.000000, 7.000000)" fill="#000000">
            <path d="M12,8 L52,8 C54.209139,8 56,9.790861 56,12 L56,38 C56,40.209139 54.209139,42 52,42 L12,42 C9.790861,42 8,40.209139 8,38 L8,12 C8,9.790861 9.790861,8 12,8 Z M14,12 C12.8954305,12 12,12.8954305 12,14 L12,36 C12,37.1045695 12.8954305,38 14,38 L50,38 C51.1045695,38 52,37.1045695 52,36 L52,14 C52,12.8954305 51.1045695,12 50,12 L14,12 Z" id="Shape"></path>
            <path d="M48,4 L8,4 C5.790861,4 4,5.790861 4,8 L4,34 C1.790861,34 2.705415e-16,32.209139 0,30 L0,4 C-2.705415e-16,1.790861 1.790861,4.05812251e-16 4,0 L44,0 C46.209139,-4.05812251e-16 48,1.790861 48,4 Z" id="Path"></path>
        </g>
    </g>
</svg>