<svg xmlns="http://www.w3.org/2000/svg" width="56" height="56" viewBox="0 0 56 56">
  <g fill-rule="evenodd" transform="translate(0 7)">
    <path d="M12,8 L52,8 C54.209139,8 56,9.790861 56,12 L56,38 C56,40.209139 54.209139,42 52,42 L12,42 C9.790861,42 8,40.209139 8,38 L8,12 C8,9.790861 9.790861,8 12,8 Z"/>
    <path d="M48,5 L9,5 C6.790861,5 5,6.790861 5,9 L5,34 L4,34 C1.790861,34 2.705415e-16,32.209139 0,30 L0,4 C-2.705415e-16,1.790861 1.790861,4.05812251e-16 4,0 L44,0 C46.209139,-4.05812251e-16 48,1.790861 48,4 L48,5 Z"/>
  </g>
</svg>
