<?xml version="1.0" encoding="UTF-8"?>
<svg width="50px" height="50px" viewBox="0 0 50 50" version="1.1" xmlns="http://www.w3.org/2000/svg" xmlns:xlink="http://www.w3.org/1999/xlink">
    <!-- Generator: Sketch 40.1 (33804) - http://www.bohemiancoding.com/sketch -->
    <title>pie</title>
    <desc>Created with Sketch.</desc>
    <defs></defs>
    <g id="Page-1" stroke="none" stroke-width="1" fill="none" fill-rule="evenodd">
        <g id="pie" fill="#000000">
            <path d="M25,48 C37.7025492,48 48,37.7025492 48,25 C48,12.2974508 37.7025492,2 25,2 L26.9268482,0.0731518471 C26.9512419,0.0750111976 27,25 27,25 L27,26.1923537 L25.9510999,26.7593774 L4.02678208,38.6114203 C4.01292775,38.5901165 4.76138292,35.9407718 4.76138292,35.9407718 C8.75690619,43.3112137 16.4641798,48 25,48 Z M50,25 C50,38.8071187 38.8071187,50 25,50 C15.4972756,50 7.23287772,44.6980937 3.00355778,36.8910325 L25,25 L25,0 C38.8071187,0 50,11.1928813 50,25 Z" id="Combined-Shape"></path>
            <path d="M23,1.92678189 L23,2.08563195 C11.1707783,3.10317531 2,13.0359815 2,25 C2,27.9622507 2.55924552,30.8433864 3.63367633,33.5314942 L3.44171164,33.6358854 L1.26086603,32.8608084 C1.23135032,32.7716256 1.20232314,32.6822203 1.17378405,32.5925978 L22.0445309,21.2429915 L21,23 L21,0.318278998 C21.0737832,0.306413904 21.1476743,0.294871691 21.2216719,0.283653857 L23,1.92678189 Z M23,23 L1.86539671,34.4930926 C0.66302575,31.5660401 0,28.360449 0,25 C0,11.8660944 10.1279968,1.09770927 23,0.0788348733 L23,23 Z" id="Combined-Shape"></path>
        </g>
    </g>
</svg>