<?xml version="1.0" encoding="UTF-8"?>
<svg width="50px" height="50px" viewBox="0 0 50 50" version="1.1" xmlns="http://www.w3.org/2000/svg" xmlns:xlink="http://www.w3.org/1999/xlink">
    <!-- Generator: Sketch 40.1 (33804) - http://www.bohemiancoding.com/sketch -->
    <title>pie</title>
    <desc>Created with Sketch.</desc>
    <defs></defs>
    <g id="Page-1" stroke="none" stroke-width="1" fill="none" fill-rule="evenodd">
        <g id="pie" fill="#000000">
            <path d="M25,48 C37.7025492,48 48,37.7025492 48,25 C48,12.2974508 37.7025492,2 25,2 L26.9268482,0.0731518471 C26.9512419,0.0750111976 27,25 27,25 L27,26.1923537 L25.9510999,26.7593774 L4.02678208,38.6114203 C4.01292775,38.5901165 4.76138292,35.9407718 4.76138292,35.9407718 C8.75690619,43.3112137 16.4641798,48 25,48 Z M50,25 C50,38.8071187 38.8071187,50 25,50 C15.4972756,50 7.23287772,44.6980937 3.00355778,36.8910325 L25,25 L25,0 C38.8071187,0 50,11.1928813 50,25 Z" id="Combined-Shape"></path>
            <path d="M2,25 C2,27.9622507 2.98198902,31.6092878 2.98198902,31.6092878 L22.0445309,21.2429915 L21,23 L21,2.36798096 C13,3 2,13.0359815 2,25 Z M23,23 L1.86539671,34.4930926 C0.66302575,31.5660401 0,28.360449 0,25 C0,11.8660944 10.1279968,1.09770927 23,0.0788348733 L23,23 Z" id="Combined-Shape"></path>
        </g>
    </g>
</svg>