<svg xmlns="http://www.w3.org/2000/svg" width="56" height="56" viewBox="0 0 56 56">
  <path d="M34,28 C34,30.1442805 32.8556796,32.1255684 30.9983347,33.1971135 L10.8682315,44.8106346 C15.3110373,49.3418801 21.4284589,52 28,52 C41.254834,52 52,41.254834 52,28 C52,16.8651114 44.3893233,7.42469453 34,4.75457326 L34,28 Z M30,28 L30,0.0703281021 C44.5305512,1.09582109 56,13.2084939 56,28 C56,43.463973 43.463973,56 28,56 C18.3502474,56 9.84062182,51.1185357 4.80577422,43.6902581 L28.9994449,29.7323712 C29.6185599,29.3751895 30,28.7147602 30,28 Z"/>
  <path d="M4,28 C4,30.1985576 4.29487092,32.3522153 4.86688639,34.4191051 L20.9994449,25.1118598 C21.6185599,24.7546781 22,24.0942488 22,23.3794886 L22,4.75457326 C11.6106767,7.42469453 4,16.8651114 4,28 Z M0,28 C0,13.2084939 11.4694488,1.09582109 26,0.0703281021 L26,25.6897443 C26,26.4045045 25.6185599,27.0649338 24.9994449,27.4221155 L2.80377169,40.2273116 C1.00756771,36.5328254 0,32.3840777 0,28 Z"/>
</svg>
