<?xml version="1.0" encoding="UTF-8"?>
<svg width="34px" height="50px" viewBox="0 0 34 50" version="1.1" xmlns="http://www.w3.org/2000/svg" xmlns:xlink="http://www.w3.org/1999/xlink">
    <!-- Generator: Sketch 40.1 (33804) - http://www.bohemiancoding.com/sketch -->
    <title>placemark</title>
    <desc>Created with Sketch.</desc>
    <defs></defs>
    <g id="Page-1" stroke="none" stroke-width="1" fill="none" fill-rule="evenodd">
        <g id="placemark">
            <path d="M15.8497999,48.6664103 C15.7960599,48.6027669 15.7406962,48.5370419 15.6837651,48.4692785 C15.8151609,48.3193735 15.9924609,48.1149575 16.2111843,47.8594739 C16.7806481,47.1943019 17.4164042,46.4319699 18.1017603,45.5853535 C20.0610958,43.1649978 22.0205855,40.5600292 23.846147,37.87538 C25.9823253,34.7339413 27.7904781,31.6919901 29.1649808,28.8390307 C31.0129505,25.0033289 32,21.6606318 32,19 C32,8.60109764 25.7515129,2 17,2 C8.24848712,2 2,8.60109764 2,19 C2,21.6606318 2.98704951,25.0033289 4.83501921,28.8390307 C6.20952191,31.6919901 8.01767469,34.7339413 10.153853,37.87538 C11.9794145,40.5600292 13.9389042,43.1649978 15.8982397,45.5853535 C16.5835958,46.4319699 17.2193519,47.1943019 17.7888157,47.8594739 C18.0075391,48.1149575 18.1848391,48.3193735 18.3162349,48.4692785 C18.2593038,48.5370419 18.2039401,48.6027669 18.1502001,48.6664103 L15.8497999,48.6664103 Z M0,19 C4.99655894e-16,7 7.61115925,0 17,0 C26.3888407,0 34,7 34,19 C34,31 17,50 17,50 C17,50 0,31 0,19 Z" id="Oval-37" fill="#000000"></path>
            <circle id="Oval-40" stroke="#000000" stroke-width="2" cx="17" cy="17" r="6"></circle>
        </g>
    </g>
</svg>