<svg xmlns="http://www.w3.org/2000/svg" width="56" height="56" viewBox="0 0 56 56">
  <g fill-rule="evenodd">
    <path d="M23.4837974,37.8961229 C21.5597492,38.9838944 20,38.0701633 20,35.8736052 L20,20.4807244 C20,18.2759471 21.5539606,17.3671625 23.4837974,18.4582067 L37.1908744,26.2075802 C39.1149226,27.2953517 39.1207112,29.0557052 37.1908744,30.1467494 L23.4837974,37.8961229 Z"/>
    <path fill-rule="nonzero" d="M28,52 C41.254834,52 52,41.254834 52,28 C52,14.745166 41.254834,4 28,4 C14.745166,4 4,14.745166 4,28 C4,41.254834 14.745166,52 28,52 Z M28,56 C12.536027,56 0,43.463973 0,28 C0,12.536027 12.536027,0 28,0 C43.463973,0 56,12.536027 56,28 C56,43.463973 43.463973,56 28,56 Z"/>
  </g>
</svg>
