<svg xmlns="http://www.w3.org/2000/svg" width="56" height="56" viewBox="0 0 56 56">
  <path d="M5.49214848,31.1716847 L25.4795549,19.8716914 C25.960325,19.5998853 26.1297238,18.9898017 25.8579177,18.5090316 C25.7685074,18.350883 25.6377035,18.2200791 25.4795549,18.1306688 L5.49214848,6.83067552 C5.01137837,6.55886942 4.40129482,6.72826821 4.12948873,7.20903832 C4.04460734,7.35917635 4,7.52871569 4,7.70118679 L4,30.3011734 C4,30.8534582 4.44771525,31.3011734 5,31.3011734 C5.1724711,31.3011734 5.34201044,31.2565661 5.49214848,31.1716847 Z M3.48235013,36.9029364 C1.55910126,37.990256 0,37.0869078 0,34.8792223 L0,3.12313788 C0,0.918151852 1.55557049,0.0101080772 3.48235013,1.09942385 L31.664592,17.0324138 C33.5878408,18.1197334 33.5913716,19.8806307 31.664592,20.9699465 L3.48235013,36.9029364 Z" transform="translate(11 9)"/>
</svg>
