<?xml version="1.0" encoding="UTF-8"?>
<svg width="34px" height="50px" viewBox="0 0 34 50" version="1.1" xmlns="http://www.w3.org/2000/svg" xmlns:xlink="http://www.w3.org/1999/xlink">
    <!-- Generator: Sketch 40.1 (33804) - http://www.bohemiancoding.com/sketch -->
    <title>play</title>
    <desc>Created with Sketch.</desc>
    <defs></defs>
    <g id="Page-1" stroke="none" stroke-width="1" fill="none" fill-rule="evenodd">
        <g id="play" transform="translate(0.000000, 6.000000)" fill="#000000">
            <path d="M30.680295,19.2289239 C30.9124594,19.0976685 31.0570441,18.9739225 31.1229704,18.8820483 C31.1248755,18.8793933 31.1083073,18.9277958 31.108353,19.0016708 C31.1083986,19.0752914 31.1248473,19.1231844 31.1226422,19.1201151 C31.05653,19.0280925 30.9119751,18.9044179 30.680295,18.7734363 L2.49805318,2.8404464 C1.90469835,2.50498989 2,2.44953023 2,3.12313788 L2,34.8792223 C2,35.5520878 1.90523463,35.4970671 2.49805318,35.1619138 L30.680295,19.2289239 Z M0,34.8792223 L0,3.12313788 C0,0.918151852 1.55557049,0.0101080772 3.48235013,1.09942385 L31.664592,17.0324138 C33.5878408,18.1197334 33.5913716,19.8806307 31.664592,20.9699465 L3.48235013,36.9029364 C1.55910126,37.990256 0,37.0869078 0,34.8792223 Z" id="Triangle-5"></path>
        </g>
    </g>
</svg>