<svg xmlns="http://www.w3.org/2000/svg" width="56" height="56" viewBox="0 0 56 56">
  <path fill-rule="evenodd" d="M42,8 L46,8 C48.209139,8 50,9.790861 50,12 L50,32 C50,34.209139 48.209139,36 46,36 L42,36 L42,46 C42,48.209139 40.209139,50 38,50 L12,50 C9.790861,50 8,48.209139 8,46 L8,36 L4,36 C1.790861,36 0,34.209139 0,32 L0,12 C0,9.790861 1.790861,8 4,8 L8,8 L8,4 C8,1.790861 9.790861,4.4408921e-16 12,0 L38,0 C40.209139,-4.4408921e-16 42,1.790861 42,4 L42,8 Z M38,8 L38,5 C38,4.44771525 37.5522847,4 37,4 L13,4 C12.4477153,4 12,4.44771525 12,5 L12,8 L38,8 Z M13,26 C11.8954305,26 11,26.8954305 11,28 L11,45 C11,46.1045695 11.8954305,47 13,47 L37,47 C38.1045695,47 39,46.1045695 39,45 L39,28 C39,26.8954305 38.1045695,26 37,26 L13,26 Z M15.5,31 L34.5,31 C35.3284271,31 36,31.6715729 36,32.5 C36,33.3284271 35.3284271,34 34.5,34 L15.5,34 C14.6715729,34 14,33.3284271 14,32.5 C14,31.6715729 14.6715729,31 15.5,31 Z M15.5,39 L34.5,39 C35.3284271,39 36,39.6715729 36,40.5 C36,41.3284271 35.3284271,42 34.5,42 L15.5,42 C14.6715729,42 14,41.3284271 14,40.5 C14,39.6715729 14.6715729,39 15.5,39 Z" transform="translate(3 3)"/>
</svg>
