<svg xmlns="http://www.w3.org/2000/svg" width="56" height="56" viewBox="0 0 56 56">
  <g fill-rule="evenodd" transform="translate(3 3)">
    <path d="M36,45 L36,37 L25,37 L25,33 L36,33 L36,27 L44,27 L44,31 L40,31 L40,33 L42,33 L42,37 L40,37 L40,41 L46,41 L46,33 L50,33 L50,43 L46,43 L46,45 L42,45 L42,49 L38,49 L38,45 L36,45 Z M46,23 L34,23 L34,25 L30,25 L30,19 L46,19 L46,17 L50,17 L50,31 L46,31 L46,23 Z M8,23 L8,31 L4,31 L4,23 L0,23 L0,19 L10,19 L10,23 L8,23 Z M23,19 L25,19 L25,23 L19,23 L19,10 L27,10 L27,0 L31,0 L31,14 L23,14 L23,19 Z M19,0 L23,0 L23,8 L19,8 L19,0 Z M12,20 L16,20 L16,32 L12,32 L12,20 Z M18,27 L30,27 L30,31 L18,31 L18,27 Z M32,46 L36,46 L36,50 L32,50 L32,46 Z M30,39 L34,39 L34,43 L30,43 L30,39 Z M19,34 L23,34 L23,38 L19,38 L19,34 Z M46,46 L50,46 L50,50 L46,50 L46,46 Z M19,40 L23,40 L23,50 L19,50 L19,40 Z M25,42 L29,42 L29,50 L25,50 L25,42 Z"/>
    <path fill-rule="nonzero" d="M4,4 L4,12 L12,12 L12,4 L4,4 Z M2,0 L14,0 C15.1045695,-2.02906125e-16 16,0.8954305 16,2 L16,14 C16,15.1045695 15.1045695,16 14,16 L2,16 C0.8954305,16 1.3527075e-16,15.1045695 0,14 L0,2 C-1.3527075e-16,0.8954305 0.8954305,2.02906125e-16 2,0 Z M6,6 L10,6 L10,10 L6,10 L6,6 Z"/>
    <path d="M40 6L44 6 44 10 40 10 40 6zM38 4L38 12 46 12 46 4 38 4zM36 0L48 0C49.1045695-2.02906125e-16 50 .8954305 50 2L50 14C50 15.1045695 49.1045695 16 48 16L36 16C34.8954305 16 34 15.1045695 34 14L34 2C34 .8954305 34.8954305 2.02906125e-16 36 0zM6 40L10 40 10 44 6 44 6 40zM4 38L4 46 12 46 12 38 4 38zM2 34L14 34C15.1045695 34 16 34.8954305 16 36L16 48C16 49.1045695 15.1045695 50 14 50L2 50C.8954305 50 1.3527075e-16 49.1045695 0 48L0 36C-1.3527075e-16 34.8954305.8954305 34 2 34z"/>
  </g>
</svg>
