<svg xmlns="http://www.w3.org/2000/svg" width="56" height="56" viewBox="0 0 56 56">
  <g fill-rule="evenodd" transform="translate(0 5)">
    <path fill-rule="nonzero" d="M13,1.16200636 L13.0443365,1.21594802 C13.7218612,2.04029789 13.6329164,3.25135428 12.8422241,3.9678724 C12.3349224,4.42758459 11.9314153,4.81019144 11.6317028,5.11569297 C6.70233861,10.1402698 4.26888783,16.0718568 4.26888783,23 C4.26888783,29.9191485 6.69285758,35.6283047 11.6061609,40.2383453 C11.8853517,40.5003037 12.2560126,40.8231519 12.7181436,41.20689 C13.5359769,41.8860014 13.6796594,43.0862333 13.0452281,43.9391932 L13,44 C12.3677272,44.8500578 11.1660608,45.0266075 10.316003,44.3943347 C10.2880735,44.3735607 10.2607146,44.3520304 10.2339567,44.3297676 C9.47812874,43.7009078 8.88941155,43.1813823 8.46780762,42.771188 C3.02230706,37.473057 0.268887834,30.8479784 0.268887834,23 C0.268887834,15.1324929 3.03325437,8.30320579 8.50202813,2.59809602 C8.91203668,2.17036873 9.48382792,1.62378334 10.2174019,0.958339854 L10.2174201,0.958359921 C11.0054389,0.243528131 12.22374,0.302857917 12.9385718,1.09087671 C12.9596232,1.11408351 12.9801054,1.13780045 13,1.16200636 Z"/>
    <path fill-rule="nonzero" d="M17,7 L17.0655747,7.08022264 C17.7265195,7.88895049 17.6538726,9.07008915 16.8988016,9.7917238 C16.6045226,10.0729715 16.3644292,10.3157583 16.1785216,10.5200843 C13.1552425,13.8428868 11.6584378,17.9715019 11.6584378,23 C11.6584378,27.6900023 12.9545625,31.3785438 15.5686071,34.1728611 C15.8418031,34.4648976 16.2225611,34.8155114 16.7108813,35.2247026 C17.4984901,35.8846957 17.6577998,37.0341443 17.0793699,37.8834602 L17,38 C16.4148761,38.8591447 15.2440651,39.0812824 14.3849205,38.4961585 C14.3399032,38.4654993 14.2962379,38.4329004 14.254048,38.398454 C13.829697,38.051965 13.4883163,37.752822 13.2299166,37.5010118 C9.52419431,33.8897892 7.65843783,29.0138203 7.65843783,23 C7.65843783,16.9930626 9.5143613,11.9129609 13.1965425,7.85375249 C13.4539388,7.57000074 13.7961902,7.22611128 14.2232966,6.82208409 C14.985551,6.10100385 16.188031,6.13439481 16.9091032,6.89665683 C16.9406403,6.92999544 16.9709591,6.96446578 17,7 Z"/>
    <path fill-rule="nonzero" d="M22 14L22.0912926 14.2354663C22.4301232 15.1096057 22.1162897 16.1017923 21.336397 16.622074 21.2049582 16.7097594 21.0932037 16.7929371 21.0011333 16.8716072 19.5539315 18.1081771 18.8402568 20.0889683 18.8402568 23 18.8402568 26.0013784 19.5989181 28.0138783 21.1379995 29.2413822 21.1977267 29.289018 21.2659378 29.338714 21.3426328 29.3904701L21.3426456 29.3904511C22.1164618 29.912646 22.4261034 30.9007081 22.0887112 31.7711364L22 32C21.6431394 32.9206546 20.6075086 33.3777 19.686854 33.0208393 19.5930281 32.9844709 19.5024402 32.940246 19.4160553 32.8886358 19.0498265 32.6698551 18.7544114 32.4683269 18.5298009 32.2840667 16.0769704 30.2718764 14.8402568 27.1128565 14.8402568 23 14.8402568 18.9528615 16.0377641 15.829321 18.4131536 13.8132673 18.6631217 13.601113 18.9998156 13.3683324 19.4232354 13.1149256 20.2677569 12.6095037 21.3621033 12.884394 21.8675284 13.7289136 21.9192696 13.8153684 21.9635856 13.9060555 22 14zM33.5630874 14C33.5995018 13.9060555 33.6438178 13.8153684 33.695559 13.7289136 34.2009841 12.884394 35.2953304 12.6095037 36.1398519 13.1149256 36.5632717 13.3683324 36.8999657 13.601113 37.1499338 13.8132673 39.5253232 15.829321 40.7228305 18.9528615 40.7228305 23 40.7228305 27.1128565 39.4861169 30.2718764 37.0332865 32.2840667 36.808676 32.4683269 36.5132609 32.6698551 36.147032 32.8886358 36.0606472 32.940246 35.9700593 32.9844709 35.8762334 33.0208393 34.9555788 33.3777 33.919948 32.9206546 33.5630874 32L33.4743761 31.7711364C33.136984 30.9007081 33.4466256 29.912646 34.2204417 29.3904511L34.2204546 29.3904701C34.2971496 29.338714 34.3653607 29.289018 34.4250879 29.2413822 35.9641693 28.0138783 36.7228305 26.0013784 36.7228305 23 36.7228305 20.0889683 36.0091559 18.1081771 34.561954 16.8716072 34.4698837 16.7929371 34.3581291 16.7097594 34.2266904 16.622074 33.4467977 16.1017923 33.1329642 15.1096057 33.4717948 14.2354663L33.5630874 14zM42.9917184 44.0339259L42.9473819 43.9799842C42.2698571 43.1556343 42.358802 41.9445779 43.1494943 41.2280598 43.656796 40.7683476 44.0603031 40.3857408 44.3600156 40.0802392 49.2893797 35.0556624 51.7228305 29.1240754 51.7228305 22.1959322 51.7228305 15.2767837 49.2988608 9.56762755 44.3855574 4.95758688 44.1063666 4.69562851 43.7357057 4.3727803 43.2735747 3.98904225 42.4557414 3.30993081 42.312059 2.10969888 42.9464903 1.256739L42.9917184 1.19593222C43.6239911.3458744 44.8256575.169324742 45.6757153.801597519 45.7036449.822371502 45.7310038.843901847 45.7577617.866164635 46.5135896 1.49502447 47.1023068 2.01454996 47.5239107 2.42474418 52.9694113 7.72287525 55.7228305 14.3479538 55.7228305 22.1959322 55.7228305 30.0634393 52.958464 36.8927264 47.4896902 42.5978362 47.0796817 43.0255635 46.5078904 43.5721489 45.7743165 44.2375924L45.7742983 44.2375723C44.9862795 44.9524041 43.7679784 44.8930743 43.0531466 44.1050555 43.0320951 44.0818487 43.0116129 44.0581318 42.9917184 44.0339259z"/>
    <path fill-rule="nonzero" d="M38.9917184,38.1959322 L38.9261436,38.1157096 C38.2651989,37.3069817 38.3378458,36.1258431 39.0929167,35.4042084 C39.3871958,35.1229607 39.6272891,34.8801739 39.8131968,34.675848 C42.8364759,31.3530454 44.3332805,27.2244303 44.3332805,22.1959322 C44.3332805,17.5059299 43.0371559,13.8173884 40.4231113,11.0230711 C40.1499153,10.7310346 39.7691572,10.3804208 39.2808371,9.97122964 C38.4932283,9.31123654 38.3339185,8.16178789 38.9123484,7.31247206 L38.9917184,7.19593222 C39.5768422,6.33678755 40.7476532,6.11464982 41.6067979,6.69977369 C41.6518152,6.73043291 41.6954804,6.76303178 41.7376703,6.79747825 C42.1620213,7.14396722 42.5034021,7.44311017 42.7618018,7.69492041 C46.4675241,11.306143 48.3332805,16.1821119 48.3332805,22.1959322 C48.3332805,28.2028696 46.4773571,33.2829713 42.7951759,37.3421797 C42.5377796,37.6259315 42.1955282,37.9698209 41.7684217,38.3738481 C41.0061673,39.0949284 39.8036874,39.0615374 39.0826152,38.2992754 C39.051078,38.2659368 39.0207592,38.2314664 38.9917184,38.1959322 Z"/>
    <circle cx="28" cy="23" r="4"/>
  </g>
</svg>
