<?xml version="1.0" encoding="UTF-8"?>
<svg width="56px" height="56px" viewBox="0 0 56 56" version="1.1" xmlns="http://www.w3.org/2000/svg" xmlns:xlink="http://www.w3.org/1999/xlink">
    <!-- Generator: Sketch 52.1 (67048) - http://www.bohemiancoding.com/sketch -->
    <title>radio</title>
    <desc>Created with Sketch.</desc>
    <g id="Page-1" stroke="none" stroke-width="1" fill="none" fill-rule="evenodd">
        <g id="radio" transform="translate(0.000000, 5.000000)" fill="#000000">
            <path d="M13,1.16200636 L13.0443365,1.21594802 C13.7218612,2.04029789 13.6329164,3.25135428 12.8422241,3.9678724 C12.3349224,4.42758459 11.9314153,4.81019144 11.6317028,5.11569297 C6.70233861,10.1402698 4.26888783,16.0718568 4.26888783,23 C4.26888783,29.9191485 6.69285758,35.6283047 11.6061609,40.2383453 C11.8853517,40.5003037 12.2560126,40.8231519 12.7181436,41.20689 L12.7181386,41.206896 C13.5359769,41.8860014 13.6796594,43.0862333 13.0452281,43.9391932 L13,44 C12.3677272,44.8500578 11.1660608,45.0266075 10.316003,44.3943347 C10.2880735,44.3735607 10.2607146,44.3520304 10.2339567,44.3297676 C9.47812874,43.7009078 8.88941155,43.1813823 8.46780762,42.771188 C3.02230706,37.473057 0.268887834,30.8479784 0.268887834,23 C0.268887834,15.1324929 3.03325437,8.30320579 8.50202813,2.59809602 C8.91203668,2.17036873 9.48382792,1.62378334 10.2174019,0.958339854 L10.2174201,0.958359921 C11.0054389,0.243528131 12.22374,0.302857917 12.9385718,1.09087671 C12.9596232,1.11408351 12.9801054,1.13780045 13,1.16200636 Z" id="Path-15" fill-rule="nonzero"></path>
            <path d="M17,7 L17.0655747,7.08022264 C17.7265195,7.88895049 17.6538726,9.07008915 16.8988016,9.7917238 C16.6045226,10.0729715 16.3644292,10.3157583 16.1785216,10.5200843 C13.1552425,13.8428868 11.6584378,17.9715019 11.6584378,23 C11.6584378,27.6900023 12.9545625,31.3785438 15.5686071,34.1728611 C15.8418031,34.4648976 16.2225611,34.8155114 16.7108813,35.2247026 L16.7108759,35.224709 C17.4984901,35.8846957 17.6577998,37.0341443 17.0793699,37.8834602 L17,38 C16.4148761,38.8591447 15.2440651,39.0812824 14.3849205,38.4961585 C14.3399032,38.4654993 14.2962379,38.4329004 14.254048,38.398454 C13.829697,38.051965 13.4883163,37.752822 13.2299166,37.5010118 C9.52419431,33.8897892 7.65843783,29.0138203 7.65843783,23 C7.65843783,16.9930626 9.5143613,11.9129609 13.1965425,7.85375249 C13.4539388,7.57000074 13.7961902,7.22611128 14.2232966,6.82208409 L14.223289,6.82207603 C14.985551,6.10100385 16.188031,6.13439481 16.9091032,6.89665683 C16.9406403,6.92999544 16.9709591,6.96446578 17,7 Z" id="Path-29" fill-rule="nonzero"></path>
            <path d="M22,14 L22.0912926,14.2354663 C22.4301232,15.1096057 22.1162897,16.1017923 21.336397,16.622074 C21.2049582,16.7097594 21.0932037,16.7929371 21.0011333,16.8716072 C19.5539315,18.1081771 18.8402568,20.0889683 18.8402568,23 C18.8402568,26.0013784 19.5989181,28.0138783 21.1379995,29.2413822 C21.1977267,29.289018 21.2659378,29.338714 21.3426328,29.3904701 L21.3426456,29.3904511 C22.1164618,29.912646 22.4261034,30.9007081 22.0887112,31.7711364 L22,32 C21.6431394,32.9206546 20.6075086,33.3777 19.686854,33.0208393 C19.5930281,32.9844709 19.5024402,32.940246 19.4160553,32.8886358 C19.0498265,32.6698551 18.7544114,32.4683269 18.5298009,32.2840667 C16.0769704,30.2718764 14.8402568,27.1128565 14.8402568,23 C14.8402568,18.9528615 16.0377641,15.829321 18.4131536,13.8132673 C18.6631217,13.601113 18.9998156,13.3683324 19.4232354,13.1149256 L19.4232374,13.1149289 C20.2677569,12.6095037 21.3621033,12.884394 21.8675284,13.7289136 C21.9192696,13.8153684 21.9635856,13.9060555 22,14 Z" id="Path-30" fill-rule="nonzero"></path>
            <path d="M40,14 L40.0912926,14.2354663 C40.4301232,15.1096057 40.1162897,16.1017923 39.336397,16.622074 C39.2049582,16.7097594 39.0932037,16.7929371 39.0011333,16.8716072 C37.5539315,18.1081771 36.8402568,20.0889683 36.8402568,23 C36.8402568,26.0013784 37.5989181,28.0138783 39.1379995,29.2413822 C39.1977267,29.289018 39.2659378,29.338714 39.3426328,29.3904701 L39.3426456,29.3904511 C40.1164618,29.912646 40.4261034,30.9007081 40.0887112,31.7711364 L40,32 C39.6431394,32.9206546 38.6075086,33.3777 37.686854,33.0208393 C37.5930281,32.9844709 37.5024402,32.940246 37.4160553,32.8886358 C37.0498265,32.6698551 36.7544114,32.4683269 36.5298009,32.2840667 C34.0769704,30.2718764 32.8402568,27.1128565 32.8402568,23 C32.8402568,18.9528615 34.0377641,15.829321 36.4131536,13.8132673 C36.6631217,13.601113 36.9998156,13.3683324 37.4232354,13.1149256 L37.4232374,13.1149289 C38.2677569,12.6095037 39.3621033,12.884394 39.8675284,13.7289136 C39.9192696,13.8153684 39.9635856,13.9060555 40,14 Z" id="Path-30" fill-rule="nonzero" transform="translate(36.781544, 23.363269) scale(-1, 1) translate(-36.781544, -23.363269) "></path>
            <path d="M54.529208,1.16200636 L54.5735445,1.21594802 C55.2510692,2.04029789 55.1621244,3.25135428 54.3714321,3.9678724 C53.8641304,4.42758459 53.4606233,4.81019144 53.1609108,5.11569297 C48.2315466,10.1402698 45.7980958,16.0718568 45.7980958,23 C45.7980958,29.9191485 48.2220656,35.6283047 53.1353689,40.2383453 C53.4145597,40.5003037 53.7852206,40.8231519 54.2473516,41.20689 L54.2473466,41.206896 C55.0651849,41.8860014 55.2088674,43.0862333 54.5744361,43.9391932 L54.529208,44 C53.8969352,44.8500578 52.6952689,45.0266075 51.845211,44.3943347 C51.8172815,44.3735607 51.7899226,44.3520304 51.7631647,44.3297676 C51.0073367,43.7009078 50.4186195,43.1813823 49.9970156,42.771188 C44.5515151,37.473057 41.7980958,30.8479784 41.7980958,23 C41.7980958,15.1324929 44.5624624,8.30320579 50.0312361,2.59809602 C50.4412447,2.17036873 51.0130359,1.62378334 51.7466099,0.958339854 L51.7466281,0.958359921 C52.5346469,0.243528131 53.752948,0.302857917 54.4677798,1.09087671 C54.4888312,1.11408351 54.5093134,1.13780045 54.529208,1.16200636 Z" id="Path-15" fill-rule="nonzero" transform="translate(48.760463, 22.597966) rotate(-180.000000) translate(-48.760463, -22.597966) "></path>
            <path d="M47.2074694,6.24051031 L47.2730441,6.32073296 C47.9339889,7.1294608 47.861342,8.31059947 47.106271,9.03223411 C46.811992,9.31348181 46.5718986,9.55626863 46.385991,9.76059456 C43.3627119,13.0833971 41.8659072,17.2120122 41.8659072,22.2405103 C41.8659072,26.9305127 43.1620319,30.6190541 45.7760765,33.4133714 C46.0492725,33.7054079 46.4300306,34.0560217 46.9183507,34.4652129 L46.9183453,34.4652193 C47.7059595,35.125206 47.8652692,36.2746546 47.2868393,37.1239705 L47.2074694,37.2405103 C46.6223455,38.099655 45.4515346,38.3217927 44.5923899,37.7366688 C44.5473726,37.7060096 44.5037073,37.6734108 44.4615175,37.6389643 C44.0371665,37.2924753 43.6957857,36.9933324 43.437386,36.7415221 C39.7316637,33.1302995 37.8659072,28.2543306 37.8659072,22.2405103 C37.8659072,16.2335729 39.7218307,11.1534712 43.4040119,7.0942628 C43.6614082,6.81051106 44.0036596,6.46662159 44.4307661,6.0625944 L44.4307584,6.06258635 C45.1930205,5.34151416 46.3955004,5.37490512 47.1165726,6.13716714 C47.1481097,6.17050575 47.1784285,6.20497609 47.2074694,6.24051031 Z" id="Path-29" fill-rule="nonzero" transform="translate(43.099594, 22.218221) rotate(-180.000000) translate(-43.099594, -22.218221) "></path>
            <circle id="Oval" cx="28" cy="23" r="4"></circle>
        </g>
    </g>
</svg>