<svg xmlns="http://www.w3.org/2000/svg" width="56" height="56" viewBox="0 0 56 56">
  <path fill-rule="evenodd" d="M28,56 C12.536027,56 0,43.463973 0,28 C0,12.536027 12.536027,0 28,0 C43.463973,0 56,12.536027 56,28 C56,43.463973 43.463973,56 28,56 Z M28,14.9994949 L28,15 C20.8202983,15 15,20.8202983 15,28 C15,35.1797017 20.8202983,41 28,41 C34.1259103,41 39.2621814,36.7628514 40.6379531,31.0594147 C40.7025867,30.7914676 40.7609955,30.4621447 40.8131794,30.071446 L40.8131659,30.0714442 C40.9469163,29.0700604 40.2435605,28.1498522 39.2421766,28.0161017 C39.1618965,28.0053791 39.080993,28 39,28 L38.7728461,28.0000219 C37.7925778,28.0000219 36.9567912,28.7105106 36.7989612,29.6779896 C36.7097557,30.2248087 36.6062113,30.6650588 36.4883282,30.9987399 C35.2531748,34.4949752 31.9191273,37 28,37 C23.0294373,37 19,32.9705627 19,28 C19,23.0294373 23.0294373,19 28,18.9994949 L28.5,18.9994949 L26.4142136,20.7568542 C25.633165,21.5379028 25.633165,22.8042328 26.4142136,23.5852814 C27.1952621,24.36633 28.4615921,24.36633 29.2426407,23.5852814 L35.3137085,18.5142136 C35.330584,18.497338 35.3470949,18.480236 35.3632412,18.4629172 C35.7550079,18.0978091 36,17.5772625 36,16.9994949 C36,16.5063423 35.8215122,16.0548778 35.5256131,15.7061777 C35.4628741,15.6188217 35.3922393,15.535385 35.3137085,15.4568542 L29.2426407,10.3857864 C28.4615921,9.60473785 27.1952621,9.60473785 26.4142136,10.3857864 C25.633165,11.166835 25.633165,12.433165 26.4142136,13.2142136 L28.5,14.9994949 L28,14.9994949 Z"/>
</svg>
