<svg xmlns="http://www.w3.org/2000/svg" width="56" height="56" viewBox="0 0 56 56">
  <path d="M28,52 C41.254834,52 52,41.254834 52,28 C52,14.745166 41.254834,4 28,4 C14.745166,4 4,14.745166 4,28 C4,41.254834 14.745166,52 28,52 Z M28,56 C12.536027,56 0,43.463973 0,28 C0,12.536027 12.536027,0 28,0 C43.463973,0 56,12.536027 56,28 C56,43.463973 43.463973,56 28,56 Z"/>
  <path d="M28,14.9994949 L28.5,14.9994949 L26.4142136,13.2142136 C25.633165,12.433165 25.633165,11.166835 26.4142136,10.3857864 C27.1952621,9.60473785 28.4615921,9.60473785 29.2426407,10.3857864 L35.3137085,15.4568542 C35.3922393,15.535385 35.4628741,15.6188217 35.5256131,15.7061777 C35.8215122,16.0548778 36,16.5063423 36,16.9994949 C36,17.5772625 35.7550079,18.0978091 35.3632412,18.4629172 C35.3470949,18.480236 35.330584,18.497338 35.3137085,18.5142136 L29.2426407,23.5852814 C28.4615921,24.36633 27.1952621,24.36633 26.4142136,23.5852814 C25.633165,22.8042328 25.633165,21.5379028 26.4142136,20.7568542 L28.5,18.9994949 L28,18.9994949 C23.0294373,19 19,23.0294373 19,28 C19,32.9705627 23.0294373,37 28,37 C31.9191273,37 35.2531748,34.4949752 36.4883282,30.9987399 C36.6062113,30.6650588 36.7097557,30.2248087 36.7989612,29.6779896 C36.9567912,28.7105106 37.7925778,28.0000219 38.7728461,28.0000219 L39,28 C39.080993,28 39.1618965,28.0053791 39.2421766,28.0161017 C40.2435605,28.1498522 40.9469163,29.0700604 40.8131659,30.0714442 L40.8131794,30.071446 C40.7609955,30.4621447 40.7025867,30.7914676 40.6379531,31.0594147 C39.2621814,36.7628514 34.1259103,41 28,41 C20.8202983,41 15,35.1797017 15,28 C15,20.8202983 20.8202983,15 28,15 L28,14.9994949 Z"/>
</svg>
