<svg xmlns="http://www.w3.org/2000/svg" width="56" height="56" viewBox="0 0 56 56">
  <path d="M19,7.99949494 L19.1994949,7.99949494 L15.4142136,4.21421356 C14.633165,3.43316498 14.633165,2.16683502 15.4142136,1.38578644 C16.1952621,0.604737854 17.4615921,0.604737854 18.2426407,1.38578644 L25.3137085,8.45685425 C25.3922393,8.53538501 25.4628741,8.61882166 25.5256131,8.70617766 C25.8215122,9.05487776 26,9.50634232 26,9.99949494 C26,10.5772625 25.7550079,11.0978091 25.3632412,11.4629172 C25.3470949,11.480236 25.330584,11.497338 25.3137085,11.5142136 L18.2426407,18.5852814 C17.4615921,19.36633 16.1952621,19.36633 15.4142136,18.5852814 C14.633165,17.8042328 14.633165,16.5379028 15.4142136,15.7568542 L19.1715729,11.9994949 L19,11.9994949 C10.7157288,12 4,18.7157288 4,27 C4,35.2842712 10.7157288,42 19,42 C26.2546803,42 32.3064753,36.8498356 33.6986842,30.0062078 C33.7632725,29.6887136 33.8203392,29.285971 33.8698844,28.79798 C33.9735554,27.7768814 34.8333145,26.9999927 35.8596625,26.9999927 L36,27 C36.0563615,27 36.1126945,27.002536 36.168828,27.0076002 C37.2023373,27.1008414 37.9645751,28.014253 37.871334,29.0477622 L37.8713547,29.0477641 C37.8282658,29.525373 37.7791614,29.9243467 37.7240416,30.244685 C36.1844378,39.1923613 28.3872235,46 19,46 C8.50658975,46 0,37.4934102 0,27 C0,16.5065898 8.50658975,8 19,8 L19,7.99949494 Z" transform="translate(9 5)"/>
</svg>
