<svg xmlns="http://www.w3.org/2000/svg" width="56" height="56" viewBox="0 0 56 56">
  <path d="M19.1031052 5.19949494L16.3178239 3.41421356C15.5367753 2.63316498 15.5367753 1.36683502 16.3178239.585786438 17.0988724-.195262146 18.3652024-.195262146 19.146251.585786438L26.2173188 5.65685425C26.2958496 5.73538501 26.3664844 5.81882166 26.4292234 5.90617766 26.7251225 6.25487776 26.9036103 6.70634232 26.9036103 7.19949494 26.9036103 7.77726249 26.6586182 8.29780906 26.2668515 8.66291716 26.2507052 8.68023598 26.2341943 8.69733804 26.2173188 8.71421356L19.146251 13.7852814C18.3652024 14.56633 17.0988724 14.56633 16.3178239 13.7852814 15.5367753 13.0042328 15.5367753 11.7379028 16.3178239 10.9568542L19.0751832 9.19949494 18.9036103 9.19949494C11.2940904 9.2 5.00800417 14.8662932 4.03448654 22.2097446 4.02615749 22.2725724 4.0181201 22.3402035 4.01037436 22.4126379 3.90169745 23.4291076 3.04397499 24.2 2.0217122 24.2L1.83151776 24.2000157C.819998432 24.2000157 0 23.3800173 0 22.368498 0 22.3040622.00340043011 22.2396713.0101871051 22.175594 1.02077426 12.6339908 9.09404148 5.2 18.9036103 5.2L19.1031052 5.19949494zM18.8005051 43.0005208L21.5857864 44.7858022C22.366835 45.5668507 22.366835 46.8331807 21.5857864 47.6142293 20.8047379 48.3952779 19.5384079 48.3952779 18.7573593 47.6142293L11.6862915 42.5431615C11.6077607 42.4646307 11.5371259 42.3811941 11.4743869 42.2938381 11.1784878 41.945138 11 41.4936734 11 41.0005208 11 40.4227532 11.2449921 39.9022067 11.6367588 39.5370986 11.6529051 39.5197797 11.669416 39.5026777 11.6862915 39.4858022L18.7573593 34.4147344C19.5384079 33.6336858 20.8047379 33.6336858 21.5857864 34.4147344 22.366835 35.1957829 22.366835 36.4621129 21.5857864 37.2431615L18.8284271 39.0005208 19 39.0005208C26.6095199 39.0000157 32.8956061 33.3337226 33.8691237 25.9902711 33.8774528 25.9274433 33.8854902 25.8598122 33.8932359 25.7873778 34.0019128 24.7709081 34.8596353 24.0000157 35.8818981 24.0000157L36.0720925 24C37.0836119 24 37.9036103 24.8199984 37.9036103 25.8315178 37.9036103 25.8959535 37.9002099 25.9603444 37.8934232 26.0244218 36.882836 35.5660249 28.8095688 43.0000157 19 43.0000157L18.8005051 43.0005208z" transform="translate(9 4)"/>
</svg>
