<?xml version="1.0" encoding="UTF-8"?>
<svg width="56px" height="56px" viewBox="0 0 56 56" version="1.1" xmlns="http://www.w3.org/2000/svg" xmlns:xlink="http://www.w3.org/1999/xlink">
    <!-- Generator: Sketch 52.1 (67048) - http://www.bohemiancoding.com/sketch -->
    <title>reload_round</title>
    <desc>Created with Sketch.</desc>
    <g id="Page-1" stroke="none" stroke-width="1" fill="none" fill-rule="evenodd">
        <g id="reload_round" fill="#000000" fill-rule="nonzero">
            <path d="M28,52 C41.254834,52 52,41.254834 52,28 C52,14.745166 41.254834,4 28,4 C14.745166,4 4,14.745166 4,28 C4,41.254834 14.745166,52 28,52 Z M28,56 C12.536027,56 0,43.463973 0,28 C0,12.536027 12.536027,0 28,0 C43.463973,0 56,12.536027 56,28 C56,43.463973 43.463973,56 28,56 Z" id="Oval"></path>
            <path d="M28.0839576,11.5914252 L25.651164,10.0320778 C24.96896,9.34987385 24.96896,8.24380266 25.651164,7.56159868 C26.333368,6.8793947 27.4394392,6.8793947 28.1216431,7.56159868 L34.297841,11.990904 C34.3664334,12.0594964 34.4281292,12.1323738 34.4829283,12.2086746 C34.7413803,12.5132454 34.8972798,12.9075754 34.8972798,13.3383178 C34.8972798,13.8429667 34.6832923,14.2976361 34.3411052,14.6165384 C34.3270022,14.6316655 34.3125809,14.6466032 34.297841,14.6613431 L28.1216431,19.0906484 C27.4394392,19.7728524 26.333368,19.7728524 25.651164,19.0906484 C24.96896,18.4084444 24.96896,17.3023732 25.651164,16.6201693 L28.0595692,15.0852103 L27.9097095,15.0852103 C21.2632027,15.0856515 15.7726441,20.0348541 14.9223287,26.4489644 C14.9150538,26.5038411 14.9080335,26.5629133 14.901268,26.6261809 C14.8063446,27.5140125 14.0571701,28.1873456 13.1642785,28.1873456 L12.9981539,28.1873594 C12.1146461,28.1873594 11.3984215,27.4711348 11.3984215,26.587627 C11.3984215,26.5313458 11.4013916,26.4751038 11.4073194,26.4191357 C12.290013,18.085058 19.3415782,11.5918663 27.9097095,11.5918663 L28.0839576,11.5914252 Z" id="Path"></path>
            <path d="M27.8196527,44.6085905 L30.2524463,46.1679379 C30.9346503,46.8501419 30.9346503,47.9562131 30.2524463,48.638417 C29.5702423,49.320621 28.4641711,49.320621 27.7819672,48.638417 L21.6057693,44.2091117 C21.5371769,44.1405193 21.4754811,44.0676419 21.420682,43.9913411 C21.16223,43.6867703 21.0063305,43.2924403 21.0063305,42.861698 C21.0063305,42.3570491 21.220318,41.9023796 21.5625051,41.5834773 C21.576608,41.5683502 21.5910294,41.5534125 21.6057693,41.5386726 L27.7819672,37.1093673 C28.4641711,36.4271633 29.5702423,36.4271633 30.2524463,37.1093673 C30.9346503,37.7915713 30.9346503,38.8976425 30.2524463,39.5798465 L27.8440411,41.1148054 L27.9939008,41.1148054 C34.6404076,41.1143643 40.1309662,36.1651616 40.9812816,29.7510513 C40.9885565,29.6961746 40.9955768,29.6371024 41.0023423,29.5738348 C41.0972657,28.6860032 41.8464402,28.0126701 42.7393318,28.0126701 L42.9054564,28.0126564 C43.7889642,28.0126564 44.5051888,28.7288809 44.5051888,29.6123887 C44.5051888,29.6686699 44.5022187,29.7249119 44.4962909,29.78088 C43.6135973,38.1149578 36.5620321,44.6081494 27.9939008,44.6081494 L27.8196527,44.6085905 Z" id="Path"></path>
        </g>
    </g>
</svg>