<svg xmlns="http://www.w3.org/2000/svg" width="56" height="56" viewBox="0 0 56 56">
  <path d="M23,22.1165689 L23,29.0092113 C23,31.213263 21.5348204,31.9621645 19.738276,30.6896122 L2.26172401,18.3103878 C0.460323581,17.0343959 0.465179563,14.9621645 2.26172401,13.6896122 L19.738276,1.31038784 C21.5396764,0.0343958701 23,0.795260776 23,2.99882944 L23,8.08680761 C22.9462565,8.08940454 23,8.21621101 23,8.21621101 L23,10.0897767 C23,10.0897767 23.7490017,10.0408292 24.9849701,10.0756969 C28.7546848,10.1837715 36.9651337,11.0649306 42.3549941,16.4062352 C46.6613087,20.6737553 48.5722595,29.4359247 48.2991045,34.8731035 C47.9554332,41.7139185 45.034953,30.7877425 38.611326,26.4521557 C34.0373595,23.3649856 28.0619523,22.476046 25,22.220079 C23.7226703,22.1165689 23,22.1165689 23,22.1165689 Z" transform="translate(3 9)"/>
</svg>
