<svg xmlns="http://www.w3.org/2000/svg" width="56" height="56" viewBox="0 0 56 56">
  <path d="M23,22.1165689 L23,29.0092113 C23,31.213263 21.5348204,31.9621645 19.738276,30.6896122 L2.26172401,18.3103878 C0.460323581,17.0343959 0.465179563,14.9621645 2.26172401,13.6896122 L19.738276,1.31038784 C21.5396764,0.0343958701 23,0.795260776 23,2.99882944 L23,8.08680761 C22.9462565,8.08940454 23,8.21621101 23,8.21621101 L23,10.0897767 C23,10.0897767 23.7490017,10.0408292 24.9849701,10.0756969 C28.7546848,10.1837715 36.9651337,11.0649306 42.3549941,16.4062352 C46.6613087,20.6737553 48.5722595,29.4359247 48.2991045,34.8731035 C47.9554332,41.7139185 45.034953,30.7877425 38.611326,26.4521557 C34.0373595,23.3649856 28.0619523,22.476046 25,22.220079 C23.7226703,22.1165689 23,22.1165689 23,22.1165689 Z M40.8490893,23.1366745 C41.4533318,23.5445042 42.0345802,23.9943371 42.5986851,24.4864758 C41.7880739,22.3149581 40.7362928,20.4335477 39.5393937,19.2474311 C36.0469751,15.7864749 30.5505074,14.2368998 24.8721718,14.0741061 C24.3019676,14.0580202 23.8160985,14.0606141 23.4319245,14.0740324 C23.3302045,14.0775852 23.2720401,14.080531 23.2608445,14.0812626 L19,14.3597098 L19,8.66893382 C19,8.11664907 18.5522847,7.66893382 18,7.66893382 C17.7929265,7.66893382 17.5909597,7.73321728 17.4219827,7.85290934 L7.07224217,15.1839755 C6.62156429,15.5032057 6.51500487,16.1273395 6.83423503,16.5780173 C6.89955305,16.670231 6.9800285,16.7507065 7.07224217,16.8160245 L17.4219827,24.1470907 C17.8726605,24.4663208 18.4967943,24.3597614 18.8160245,23.9090835 C18.9357165,23.7401065 19,23.5381397 19,23.3310662 L19,18.1165689 L23,18.1165689 C23.466127,18.1165689 24.2541982,18.1465297 25.3332217,18.2339828 C30.9090049,18.700096 36.4047046,20.1369649 40.8490893,23.1366745 Z" transform="translate(3 9)"/>
</svg>
