<svg xmlns="http://www.w3.org/2000/svg" width="56" height="56" viewBox="0 0 56 56">
  <path d="M24.8536278,14.2579701 L24.8536278,25.8301164 C24.8536278,28.0422771 23.3120655,28.9358289 21.3949433,27.8168684 L1.43523901,16.1670522 C-0.474939709,15.0521443 -0.481883149,13.2485742 1.43523901,12.1296137 L21.3949433,0.479797473 C23.305122,-0.635110378 24.8536278,0.260595701 24.8536278,2.46654951 L24.8536278,14.0377663 C24.8992755,13.3453862 25.3757379,12.6604593 26.285239,12.1296137 L46.2449433,0.479797473 C48.155122,-0.635110378 49.7036278,0.260595701 49.7036278,2.46654951 L49.7036278,25.8301164 C49.7036278,28.0422771 48.1620655,28.9358289 46.2449433,27.8168684 L26.285239,16.1670522 C25.3773036,15.6371204 24.8993542,14.9516035 24.8536278,14.25797 Z M31.5015619,14.5801597 L44.9515849,22.4304912 C45.1900762,22.5696907 45.4962551,22.4891987 45.6354546,22.2507074 C45.6801012,22.174214 45.7036278,22.0872339 45.7036278,21.9986644 L45.7036278,6.29800142 C45.7036278,6.02185905 45.4797702,5.79800142 45.2036278,5.79800142 C45.1150583,5.79800142 45.0280783,5.82152802 44.9515849,5.86617465 L31.5015619,13.7165062 C31.2630706,13.8557056 31.1825786,14.1618845 31.3217781,14.4003759 C31.3652135,14.4747941 31.4271437,14.5367243 31.5015619,14.5801597 Z M6.65156194,14.5801597 L20.1015849,22.4304912 C20.3400762,22.5696907 20.6462551,22.4891987 20.7854546,22.2507074 C20.8301012,22.174214 20.8536278,22.0872339 20.8536278,21.9986644 L20.8536278,6.29800142 C20.8536278,6.02185905 20.6297702,5.79800142 20.3536278,5.79800142 C20.2650583,5.79800142 20.1780783,5.82152802 20.1015849,5.86617465 L6.65156194,13.7165062 C6.4130706,13.8557056 6.33257864,14.1618845 6.47177811,14.4003759 C6.51521354,14.4747941 6.57714375,14.5367243 6.65156194,14.5801597 Z" transform="translate(3 14)"/>
</svg>
