<svg xmlns="http://www.w3.org/2000/svg" width="56" height="56" viewBox="0 0 56 56">
  <path d="M28,56 C12.536027,56 0,43.463973 0,28 C0,12.536027 12.536027,0 28,0 C43.463973,0 56,12.536027 56,28 C56,43.463973 43.463973,56 28,56 Z M41.993192,21.23572 C41.993192,20.1270871 41.2170326,19.6824901 40.2595913,20.2413167 L28.2207888,27.2679658 C27.2561333,27.8310032 27.2633476,28.7328294 28.2207888,29.291656 L40.2595913,36.318305 C41.2242469,36.8813424 41.993192,36.4319222 41.993192,35.3239018 L41.993192,21.23572 Z M27.493192,21.23572 C27.493192,20.1270871 26.7170326,19.6824901 25.7595913,20.2413167 L13.7207888,27.2679658 C12.7561333,27.8310032 12.7633476,28.7328294 13.7207888,29.291656 L25.7595913,36.318305 C26.7242469,36.8813424 27.493192,36.4319222 27.493192,35.3239018 L27.493192,21.23572 Z"/>
</svg>
