<?xml version="1.0" encoding="UTF-8"?>
<svg width="56px" height="56px" viewBox="0 0 56 56" version="1.1" xmlns="http://www.w3.org/2000/svg" xmlns:xlink="http://www.w3.org/1999/xlink">
    <!-- Generator: Sketch 52.1 (67048) - http://www.bohemiancoding.com/sketch -->
    <title>rewind_round</title>
    <desc>Created with Sketch.</desc>
    <g id="Page-1" stroke="none" stroke-width="1" fill="none" fill-rule="evenodd">
        <g id="rewind_round" fill="#000000">
            <path d="M28,52 C41.254834,52 52,41.254834 52,28 C52,14.745166 41.254834,4 28,4 C14.745166,4 4,14.745166 4,28 C4,41.254834 14.745166,52 28,52 Z M28,56 C12.536027,56 0,43.463973 0,28 C0,12.536027 12.536027,0 28,0 C43.463973,0 56,12.536027 56,28 C56,43.463973 43.463973,56 28,56 Z" id="Oval" fill-rule="nonzero"></path>
            <path d="M13,35.3256404 L13,21.2374585 C13,20.1294382 13.7689451,19.6800179 14.7336007,20.2430553 L26.7724032,27.2697043 C27.7298444,27.8285309 27.7370587,28.7303572 26.7724032,29.2933945 L14.7336007,36.3200436 C13.7761595,36.8788702 13,36.4342732 13,35.3256404 Z M27.5,35.3256404 L27.5,21.2374585 C27.5,20.1294382 28.2689451,19.6800179 29.2336007,20.2430553 L41.2724032,27.2697043 C42.2298444,27.8285309 42.2370587,28.7303572 41.2724032,29.2933945 L29.2336007,36.3200436 C28.2761595,36.8788702 27.5,36.4342732 27.5,35.3256404 Z" id="Shape" transform="translate(27.496596, 28.280680) rotate(-180.000000) translate(-27.496596, -28.280680) "></path>
        </g>
    </g>
</svg>