<?xml version="1.0" encoding="UTF-8"?>
<svg width="50px" height="50px" viewBox="0 0 50 50" version="1.1" xmlns="http://www.w3.org/2000/svg" xmlns:xlink="http://www.w3.org/1999/xlink">
    <!-- Generator: Sketch 40.1 (33804) - http://www.bohemiancoding.com/sketch -->
    <title>rewind_round</title>
    <desc>Created with Sketch.</desc>
    <defs></defs>
    <g id="Page-1" stroke="none" stroke-width="1" fill="none" fill-rule="evenodd">
        <g id="rewind_round" transform="translate(25.000000, 25.000000) scale(-1, 1) translate(-25.000000, -25.000000) " fill="#000000">
            <path d="M48,25 C48,12.2974508 37.7025492,2 25,2 C12.2974508,2 2,12.2974508 2,25 C2,37.7025492 12.2974508,48 25,48 C37.7025492,48 48,37.7025492 48,25 Z M0,25 C0,11.1928813 11.1928813,0 25,0 C38.8071187,0 50,11.1928813 50,25 C50,38.8071187 38.8071187,50 25,50 C11.1928813,50 0,38.8071187 0,25 Z" id="Oval-30"></path>
            <g id="Group-12" transform="translate(12.000000, 17.000000)">
                <path d="M14.5,15.6984746 L14.5,1.61029273 C14.5,0.502272377 15.2689451,0.0528521362 16.2336007,0.615889512 L28.2724032,7.64253855 C29.2298444,8.20136517 29.2370587,9.10319138 28.2724032,9.66622876 L16.2336007,16.6928778 C15.2761595,17.2517044 14.5,16.8071074 14.5,15.6984746 Z" id="Path"></path>
                <path d="M0,15.6984746 L0,1.61029273 C0,0.502272377 0.768945142,0.0528521362 1.73360066,0.615889512 L13.7724032,7.64253855 C14.7298444,8.20136517 14.7370587,9.10319138 13.7724032,9.66622876 L1.73360066,16.6928778 C0.776159455,17.2517044 0,16.8071074 0,15.6984746 Z" id="Path"></path>
            </g>
        </g>
    </g>
</svg>