<svg xmlns="http://www.w3.org/2000/svg" width="56" height="56" viewBox="0 0 56 56">
  <g fill-rule="evenodd">
    <path fill-rule="nonzero" d="M28,52 C41.254834,52 52,41.254834 52,28 C52,14.745166 41.254834,4 28,4 C14.745166,4 4,14.745166 4,28 C4,41.254834 14.745166,52 28,52 Z M28,56 C12.536027,56 0,43.463973 0,28 C0,12.536027 12.536027,0 28,0 C43.463973,0 56,12.536027 56,28 C56,43.463973 43.463973,56 28,56 Z"/>
    <path d="M41.993192,21.23572 L41.993192,35.3239018 C41.993192,36.4319222 41.2242469,36.8813424 40.2595913,36.318305 L28.2207888,29.291656 C27.2633476,28.7328294 27.2561333,27.8310032 28.2207888,27.2679658 L40.2595913,20.2413167 C41.2170326,19.6824901 41.993192,20.1270871 41.993192,21.23572 Z M27.493192,21.23572 L27.493192,35.3239018 C27.493192,36.4319222 26.7242469,36.8813424 25.7595913,36.318305 L13.7207888,29.291656 C12.7633476,28.7328294 12.7561333,27.8310032 13.7207888,27.2679658 L25.7595913,20.2413167 C26.7170326,19.6824901 27.493192,20.1270871 27.493192,21.23572 Z"/>
  </g>
</svg>
