<?xml version="1.0" encoding="UTF-8"?>
<svg width="50px" height="50px" viewBox="0 0 50 50" version="1.1" xmlns="http://www.w3.org/2000/svg" xmlns:xlink="http://www.w3.org/1999/xlink">
    <!-- Generator: Sketch 40.1 (33804) - http://www.bohemiancoding.com/sketch -->
    <title>rewind_circle</title>
    <desc>Created with Sketch.</desc>
    <defs></defs>
    <g id="Page-1" stroke="none" stroke-width="1" fill="none" fill-rule="evenodd">
        <g id="rewind-circle" transform="translate(25.000000, 25.000000) scale(-1, 1) translate(-25.000000, -25.000000) " fill="#000000">
            <path d="M48,25 C48,12.2974508 37.7025492,2 25,2 C12.2974508,2 2,12.2974508 2,25 C2,37.7025492 12.2974508,48 25,48 C37.7025492,48 48,37.7025492 48,25 Z M0,25 C0,11.1928813 11.1928813,0 25,0 C38.8071187,0 50,11.1928813 50,25 C50,38.8071187 38.8071187,50 25,50 C11.1928813,50 0,38.8071187 0,25 Z" id="Oval-30"></path>
            <g id="Group-12" transform="translate(12.000000, 17.000000)">
                <path d="M12.7642314,7.93892169 C12.4015968,8.15057945 12.4040852,9.15964022 12.7642314,9.36984562 L0.725428916,2.34319659 C1.09855642,2.56097871 2,2.04089817 2,1.61029273 L2,15.6984746 C2,15.262386 1.10050604,14.7466507 0.725428916,14.9655707 L12.7642314,7.93892169 Z M0,15.6984746 L0,1.61029273 C0,0.502272377 0.768945142,0.0528521362 1.73360066,0.615889512 L13.7724032,7.64253855 C14.7298444,8.20136517 14.7370587,9.10319138 13.7724032,9.66622876 L1.73360066,16.6928778 C0.776159455,17.2517044 0,16.8071074 0,15.6984746 Z" id="Triangle-5"></path>
                <path d="M27.2642314,7.93892169 C26.9015968,8.15057945 26.9040852,9.15964022 27.2642314,9.36984562 L15.2254289,2.34319659 C15.5985564,2.56097871 16.5,2.04089817 16.5,1.61029273 L16.5,15.6984746 C16.5,15.262386 15.600506,14.7466507 15.2254289,14.9655707 L27.2642314,7.93892169 Z M14.5,15.6984746 L14.5,1.61029273 C14.5,0.502272377 15.2689451,0.0528521362 16.2336007,0.615889512 L28.2724032,7.64253855 C29.2298444,8.20136517 29.2370587,9.10319138 28.2724032,9.66622876 L16.2336007,16.6928778 C15.2761595,17.2517044 14.5,16.8071074 14.5,15.6984746 Z" id="Triangle-5-Copy"></path>
            </g>
        </g>
    </g>
</svg>