<?xml version="1.0" encoding="UTF-8"?>
<svg width="50px" height="50px" viewBox="0 0 50 50" version="1.1" xmlns="http://www.w3.org/2000/svg" xmlns:xlink="http://www.w3.org/1999/xlink">
    <!-- Generator: Sketch 40.1 (33804) - http://www.bohemiancoding.com/sketch -->
    <title>rewind</title>
    <desc>Created with Sketch.</desc>
    <defs></defs>
    <g id="Page-1" stroke="none" stroke-width="1" fill="none" fill-rule="evenodd">
        <g id="rewind" fill="#000000">
            <g id="Group-10" transform="translate(25.000000, 15.000000) scale(-1, 1) translate(-25.000000, -15.000000) ">
                <path d="M22.4102171,15.2923438 C23.0013666,14.9473095 23.0014942,15.0546283 22.4102171,14.7095195 L2.45051278,3.05970329 C1.87042175,2.72112343 2,2.64648217 2,3.31914824 L2,26.6827151 C2,27.3482293 1.87654949,27.2771634 2.45051278,26.9421601 L22.4102171,15.2923438 Z M0,26.6827151 L0,3.31914824 C0,1.10698754 1.54156237,0.213435705 3.45868453,1.33239621 L23.4183888,12.9822124 C25.3285675,14.0971203 25.335511,15.9006904 23.4183888,17.0196509 L3.45868453,28.6694671 C1.54850581,29.784375 0,28.8886689 0,26.6827151 Z" id="Triangle-5"></path>
                <path d="M47.2700804,15.2923438 C47.8612299,14.9473095 47.8613575,15.0546283 47.2700804,14.7095195 L27.3103761,3.05970329 C26.730285,2.72112343 26.8598633,2.64648217 26.8598633,3.31914824 L26.8598633,26.6827151 C26.8598633,27.3482293 26.7364128,27.2771634 27.3103761,26.9421601 L47.2700804,15.2923438 Z M24.8598633,26.6827151 L24.8598633,3.31914824 C24.8598633,1.10698754 26.4014257,0.213435705 28.3185478,1.33239621 L48.2782521,12.9822124 C50.1884308,14.0971203 50.1953743,15.9006904 48.2782521,17.0196509 L28.3185478,28.6694671 C26.4083691,29.784375 24.8598633,28.8886689 24.8598633,26.6827151 Z" id="Triangle-5"></path>
            </g>
        </g>
    </g>
</svg>