<svg xmlns="http://www.w3.org/2000/svg" width="56" height="56" viewBox="0 0 56 56">
  <path d="M24.8536278,14.2579701 L24.8536278,25.8301164 C24.8536278,28.0422771 23.3120655,28.9358289 21.3949433,27.8168684 L1.43523901,16.1670522 C-0.474939709,15.0521443 -0.481883149,13.2485742 1.43523901,12.1296137 L21.3949433,0.479797473 C23.305122,-0.635110378 24.8536278,0.260595701 24.8536278,2.46654951 L24.8536278,14.0377663 C24.8992755,13.3453862 25.3757379,12.6604593 26.285239,12.1296137 L46.2449433,0.479797473 C48.155122,-0.635110378 49.7036278,0.260595701 49.7036278,2.46654951 L49.7036278,25.8301164 C49.7036278,28.0422771 48.1620655,28.9358289 46.2449433,27.8168684 L26.285239,16.1670522 C25.3773036,15.6371204 24.8993542,14.9516035 24.8536278,14.25797 Z" transform="translate(3 14)"/>
</svg>
