<svg xmlns="http://www.w3.org/2000/svg" width="56" height="56" viewBox="0 0 56 56">
  <g fill-rule="evenodd" transform="translate(5 4)">
    <path fill-rule="nonzero" d="M22.6105106,41.8402424 C23.6526746,40.9459583 24.7476664,39.8761578 25.8898292,38.6284099 C26.2711263,38.0401329 26.6522854,36.6846899 26.8534959,34.6154561 C27.1234675,31.839112 28.162252,29.1930451 29.8531492,26.9745247 C33.4823828,22.2128344 35.9689694,18.2007408 37.3112225,14.9999834 C38.3501396,12.5225657 39.2467471,9.44705302 39.9887104,5.78272724 C35.5648958,7.29198434 32.2304192,8.710325 30.022878,10.0044009 C27.3387586,11.5778502 23.8890966,14.5117746 19.7623378,18.7855046 C18.0673607,20.5408502 15.9430259,21.8227004 13.599939,22.5039742 C12.1811334,22.9165048 11.0299401,23.3352125 10.1586577,23.7467057 C9.46141301,24.0760037 9.01553558,24.3662501 8.82842712,24.5533586 C8.48516428,24.8966214 7.97099445,25.6766859 7.32143167,26.8571509 L8.4258689,26.5559403 C11.0899921,25.8293613 13.8386995,27.4000512 14.5652785,30.0641744 C14.6809047,30.4881371 14.7401347,30.9254928 14.7414376,31.364938 C14.7415489,31.4024912 14.9236143,31.7231894 15.6340184,32.344793 C16.4782344,33.083482 17.0428954,33.3068052 17.4449119,33.2706945 C20.195232,33.0235749 22.625137,35.0528199 22.8722566,37.80314 C22.8980385,38.0900804 22.8989722,38.3787122 22.875047,38.6658143 L22.6105106,41.8402424 Z M41.9565827,0.929503677 C42.2549746,0.835479542 42.5712632,0.812769455 42.8800271,0.863198706 C43.9701429,1.04124322 44.7095227,2.06929025 44.5314782,3.15940602 C43.6458009,8.58226506 42.4686357,13.0447588 41,16.5468901 C39.5074795,20.1059775 36.8523008,24.3900936 33.0344641,29.3992383 C31.7944722,31.0261541 31.032697,32.9666039 30.8347178,35.00259 C30.5560393,37.8684981 29.9444667,39.9189881 29,41.1540599 C25.5859954,44.916186 22.4148122,47.3724953 19.4864504,48.5229879 C19.3438913,48.5789964 19.1903715,48.6015091 19.0377338,48.5887893 C18.4873556,48.5429245 18.0783667,48.059574 18.1242315,47.5091958 L18.888864,38.3336315 C18.8936489,38.2762132 18.8934622,38.2184889 18.888306,38.1611028 C18.8388838,37.6110578 18.3529196,37.2052229 17.8028747,37.2546451 C16.2115997,37.3975796 14.6106428,36.7644122 13,35.3550998 C11.498271,34.0410869 10.7454227,32.7149861 10.7414551,31.3767974 C10.7411946,31.2889081 10.7293485,31.2014368 10.7062233,31.116644 C10.5609071,30.5838182 10.0111644,30.2696795 9.47833852,30.4149956 L2.01155734,32.4513935 C1.78973266,32.5118911 1.55383652,32.4941019 1.34359337,32.4010214 C0.838573243,32.177435 0.610426091,31.5867828 0.834012447,31.0817627 C3.0536827,26.0682094 4.77566969,22.9492618 6,21.7249315 C7.10621329,20.6187182 9.267264,19.5980872 12.4831521,18.6630385 C14.1567845,18.1764147 15.674166,17.2608082 16.8848635,16.0069903 C21.2426204,11.4940354 24.9476659,8.34290832 28,6.55360901 C31.0156849,4.78579374 35.6678791,2.91109196 41.9565827,0.929503677 Z"/>
    <path d="M30.5 21C32.9852814 21 35 18.9852814 35 16.5 35 14.0147186 32.9852814 12 30.5 12 28.0147186 12 26 14.0147186 26 16.5 26 18.9852814 28.0147186 21 30.5 21zM11.0685637 35.1144395C10.2471891 35.5118148 9.74061978 36.9440628 9.54885578 39.4111833L9.54882582 39.4111809C9.50602571 39.9618214 9.91771167 40.4429 10.4683521 40.4857002 10.5221128 40.4898789 10.5761233 40.4897025 10.6298555 40.4851727 13.0749622 40.2790445 14.4940364 39.7634643 14.8870782 38.9384321 14.9610466 39.2805645 15 39.6357332 15 40 15 41.8409492 13.6666667 43.1742825 11 44L6.69316312 44.4342137C6.62913885 44.4406686 6.564641 44.4409287 6.50056677 44.4349902 5.95063883 44.3840225 5.54615166 43.8969003 5.59711939 43.3469724L6 39C6.8257175 36.3333333 8.15905083 35 10 35 10.3667502 35 10.7242779 35.0394863 11.0685637 35.1144395L11.0685637 35.1144395z"/>
  </g>
</svg>
