<svg xmlns="http://www.w3.org/2000/svg" width="56" height="56" viewBox="0 0 56 56">
  <path fill-rule="evenodd" d="M8,0 L8,12 C8,13.6568542 9.34314575,15 11,15 L35,15 C36.6568542,15 38,13.6568542 38,12 L38,8.8817842e-16 L38.3431458,8.8817842e-16 C39.4040117,6.93300504e-16 40.4214274,0.421427361 41.1715729,1.17157288 L48.8284271,8.82842712 C49.5785726,9.57857264 50,10.5959883 50,11.6568542 L50,46 C50,48.209139 48.209139,50 46,50 L4,50 C1.790861,50 -3.28217218e-15,48.209139 -3.55271368e-15,46 L-3.55271368e-15,4 C-3.82325518e-15,1.790861 1.790861,4.05812251e-16 4,0 L8,0 Z M11,26 C9.34314575,26 8,27.3431458 8,29 L8,41 C8,42.6568542 9.34314575,44 11,44 L35,44 C36.6568542,44 38,42.6568542 38,41 L38,29 C38,27.3431458 36.6568542,26 35,26 L11,26 Z M30,0 L32,0 C32.5522847,-1.01453063e-16 33,0.44771525 33,1 L33,9 C33,9.55228475 32.5522847,10 32,10 L30,10 C29.4477153,10 29,9.55228475 29,9 L29,1 C29,0.44771525 29.4477153,1.01453063e-16 30,0 Z" transform="translate(3 3)"/>
</svg>
