<svg xmlns="http://www.w3.org/2000/svg" width="56" height="56" viewBox="0 0 56 56">
  <path fill-rule="evenodd" d="M31.1315715,30.3111301 C31.1695633,30.3438299 31.2066181,30.378191 31.2426407,30.4142136 L42.5563492,41.7279221 C43.3373978,42.5089706 43.3373978,43.7753006 42.5563492,44.5563492 C41.7753006,45.3373978 40.5089706,45.3373978 39.7279221,44.5563492 L28.4142136,33.2426407 C28.3030175,33.1314446 28.2076521,33.0104126 28.1281175,32.8823452 C25.2427701,34.8497621 21.7557113,36 18,36 C8.0588745,36 0,27.9411255 0,18 C0,8.0588745 8.0588745,0 18,0 C27.9411255,0 36,8.0588745 36,18 C36,22.7618751 34.1509047,27.0918709 31.1315715,30.3111301 Z M18,32 C25.7319865,32 32,25.7319865 32,18 C32,10.2680135 25.7319865,4 18,4 C10.2680135,4 4,10.2680135 4,18 C4,25.7319865 10.2680135,32 18,32 Z" transform="translate(6 5)"/>
</svg>
