<?xml version="1.0" encoding="UTF-8"?>
<svg width="50px" height="50px" viewBox="0 0 50 50" version="1.1" xmlns="http://www.w3.org/2000/svg" xmlns:xlink="http://www.w3.org/1999/xlink">
    <!-- Generator: Sketch 40.1 (33804) - http://www.bohemiancoding.com/sketch -->
    <title>search_strong</title>
    <desc>Created with Sketch.</desc>
    <defs></defs>
    <g id="Page-1" stroke="none" stroke-width="1" fill="none" fill-rule="evenodd">
        <g id="search_strong" fill="#000000">
            <path d="M34,19 C34,10.7157288 27.2842712,4 19,4 C10.7157288,4 4,10.7157288 4,19 C4,27.2842712 10.7157288,34 19,34 C27.2842712,34 34,27.2842712 34,19 Z M0,19 C0,8.50658975 8.50658975,0 19,0 C29.4934102,0 38,8.50658975 38,19 C38,29.4934102 29.4934102,38 19,38 C8.50658975,38 0,29.4934102 0,19 Z" id="Oval-10"></path>
            <rect id="Rectangle-44" transform="translate(40.135493, 39.970732) rotate(-315.000000) translate(-40.135493, -39.970732) " x="28.8968962" y="37.9707319" width="22.4771929" height="4"></rect>
        </g>
    </g>
</svg>