<svg xmlns="http://www.w3.org/2000/svg" width="56" height="56" viewBox="0 0 56 56">
  <path fill-rule="evenodd" d="M21.2400395,12.8053834 L20.8055019,11.8293959 C20.356233,10.8203215 20.8100451,9.63810061 21.8191195,9.18883172 C22.828194,8.73956283 24.0104148,9.1933749 24.4596837,10.2024493 L24.8921899,11.1738741 C26.5560169,10.6068963 28.2715564,10.2462091 30,10.0897787 L30,9 C30,7.8954305 30.8954305,7 32,7 C33.1045695,7 34,7.8954305 34,9 L34,10.0909951 C35.8472287,10.2591774 37.6749765,10.6597125 39.4356116,11.290104 L39.8956827,10.3034783 C40.3624939,9.30239837 41.5524549,8.86928801 42.5535348,9.33609926 C43.5546147,9.8029105 43.9877251,10.9928714 43.5209138,11.9939514 L43.0625786,12.9768544 C44.431363,13.7732686 45.7299994,14.7282745 46.9308713,15.8404247 L47.7433121,15.1088998 C48.5641672,14.3697985 49.8287617,14.4360731 50.567863,15.2569282 C51.3069642,16.0777833 51.2406896,17.3423778 50.4198345,18.0814791 L49.6098316,18.810809 C50.6727254,20.2265508 51.5409432,21.737002 52.2163146,23.3072515 L53.2530807,22.9703858 C54.3035887,22.629055 55.431897,23.2039568 55.7732277,24.2544648 C56.1145585,25.3049728 55.5396567,26.4332811 54.4891487,26.7746118 L53.4539436,27.1109704 C53.8431139,28.8259388 54.0236868,30.5761161 53.9977439,32.3217834 L55.076543,32.4351698 C56.1750615,32.5506287 56.9719888,33.5347519 56.8565298,34.6332705 C56.7410709,35.731789 55.7569477,36.5287163 54.6584291,36.4132574 L53.5771148,36.2996066 C53.2424921,37.9856926 52.7099258,39.6380932 51.9813921,41.2191018 L52.9235035,41.76303 C53.8800887,42.3153148 54.207839,43.5384956 53.6555543,44.4950808 C53.1032695,45.4516661 51.8800887,45.7794164 50.9235035,45.2271316 L49.9817307,44.6833989 C49.053643,45.9966348 47.9662019,47.2278873 46.7208733,48.3491862 C46.6306576,48.4304168 46.5399545,48.5107631 46.4487749,48.5902255 L47.0749093,49.4520257 C47.724159,50.3456412 47.5260613,51.5963805 46.6324458,52.2456302 C45.7388303,52.8948798 44.488091,52.6967822 43.8388413,51.8031667 L43.2085112,50.9355917 C41.7274426,51.8144087 40.1688974,52.502833 38.5668581,53.0026455 L38.798209,54.0910658 C39.0278619,55.1714978 38.3381692,56.2335314 37.2577372,56.4631844 C36.1773052,56.6928373 35.1152715,56.0031445 34.8856186,54.9227125 L34.6556919,53.8409923 C32.9140439,54.0512308 31.1542243,54.0528808 29.4162069,53.8480372 L29.1877263,54.9229539 C28.9580734,56.0033859 27.8960398,56.6930786 26.8156077,56.4634257 C25.7351757,56.2337728 25.045483,55.1717391 25.2751359,54.0913071 L25.5023999,53.0221144 C23.7482421,52.4817523 22.0509189,51.7184428 20.4558003,50.7345637 L19.7830143,51.6273808 C19.1182678,52.5095293 17.8642617,52.6857683 16.9821132,52.0210218 C16.0999648,51.3562753 15.9237258,50.1022692 16.5884723,49.2201207 L17.2576221,48.3321289 C16.7007553,47.8282423 16.1642574,47.2911102 15.6508138,46.7208733 C15.0706039,46.0764849 14.5355139,45.4072367 14.0453408,44.7170039 L13.0814157,45.2735336 C12.1248305,45.8258183 10.9016497,45.498068 10.3493649,44.5414828 C9.79708016,43.5848975 10.1248305,42.3617167 11.0814157,41.809432 L12.0363964,41.2580736 C11.3206042,39.7159166 10.7946244,38.1108309 10.4566735,36.4768488 L9.22655442,36.6061396 C8.12803586,36.7215985 7.14391265,35.9246712 7.0284537,34.8261527 C6.91299475,33.7276341 7.70992201,32.7435109 8.80844056,32.628052 L10.0053531,32.5022514 C9.96598863,30.7436347 10.1364427,28.9832547 10.5145887,27.2616902 L9.41018382,26.9028473 C8.3596758,26.5615165 7.78477403,25.4332083 8.12610478,24.3827003 C8.46743553,23.3321923 9.59574378,22.7572905 10.6462518,23.0986212 L11.7242127,23.448872 C12.393607,21.8586929 13.2567817,20.3337981 14.3117979,18.9111863 L13.4907099,18.1718753 C12.6698548,17.4327741 12.6035802,16.1681796 13.3426814,15.3473245 C14.0817827,14.5264694 15.3463772,14.4601948 16.1672323,15.199296 L16.976712,15.9281549 C17.07646,15.8349824 17.1772652,15.7425303 17.2791267,15.6508138 C18.5168657,14.5363486 19.8463239,13.5883515 21.2400395,12.8053834 Z M40.9805788,21.2576257 L31.4949163,29.7985547 L19.408548,25.8714556 C20.1744411,24.2965137 21.2506296,22.8399183 22.6321715,21.5959724 C27.880234,16.8705958 35.7194605,16.8481169 40.9805788,21.2576257 Z M43.6515651,24.2351898 C47.4533379,29.924533 46.6024795,37.6907266 41.3678285,42.4040276 C39.9706384,43.6620632 38.389791,44.5867657 36.7228301,45.1832469 L34.0985114,32.836798 L43.6515651,24.2351898 Z M32.802291,45.9774979 C28.7096781,46.209827 24.5522951,44.6511574 21.5959724,41.3678285 C18.6253177,38.0685822 17.5133105,33.7452736 18.1926419,29.6822326 L30.1655179,33.5724559 L32.802291,45.9774979 Z M18.6233931,44.0443509 C25.2753045,51.4320469 36.6566549,52.0285182 44.0443509,45.3766069 C51.4320469,38.7246955 52.0285182,27.3433451 45.3766069,19.9556491 C38.7246955,12.5679531 27.3433451,11.9714818 19.9556491,18.6233931 C12.5679531,25.2753045 11.9714818,36.6566549 18.6233931,44.0443509 Z" transform="translate(-4 -4)"/>
</svg>
