<svg xmlns="http://www.w3.org/2000/svg" width="56" height="56" viewBox="0 0 56 56">
  <path d="M8.3600392,21.4001281 C8.12393983,22.5632842 8,23.7671683 8,25 C8,34.9411255 16.0588745,43 26,43 C26.5207131,43 27.0362619,42.9778894 27.5457589,42.9345559 L24.0522381,26.4988326 L8.3600392,21.4001281 Z M9.58943226,17.5937333 L25.3816364,22.7249315 L37.8768768,11.4741665 C34.707444,8.68891794 30.550956,7 26,7 C18.6989437,7 12.4131487,11.3468502 9.58943226,17.5937333 Z M31.4692217,42.1540599 C38.7362428,39.8391185 44,33.0342674 44,25 C44,21.0506384 42.728088,17.3983478 40.571544,14.4304082 L27.9852316,25.7631748 L31.4692217,42.1540599 Z M15.2403873,5.80616457 L14.8055019,4.82939592 C14.356233,3.82032147 14.8100451,2.63810061 15.8191195,2.18883172 C16.828194,1.73956283 18.0104148,2.1933749 18.4596837,3.20244935 L18.8920512,4.17356269 C20.5174199,3.61898488 22.2284316,3.24933062 24,3.08968603 L24,2 C24,0.8954305 24.8954305,2.02906125e-16 26,0 C27.1045695,-2.02906125e-16 28,0.8954305 28,2 L28,3.08968603 C29.8913079,3.26012091 31.7135962,3.66991376 33.4363408,4.28854021 L33.8956827,3.30347831 C34.3624939,2.30239837 35.5524549,1.86928801 36.5535348,2.33609926 C37.5546147,2.8029105 37.9877251,3.99287142 37.5209138,4.99395135 L37.0615918,5.97897057 C38.455714,6.79146738 39.7524083,7.75284424 40.9298859,8.84131202 L41.7433121,8.10889975 C42.5641672,7.36979849 43.8287617,7.43607308 44.567863,8.25692819 C45.3069642,9.0777833 45.2406896,10.3423778 44.4198345,11.0814791 L43.609768,11.8108663 C44.6463907,13.1927218 45.5241598,14.7005872 46.2159746,16.307362 L47.2530807,15.9703858 C48.3035887,15.629055 49.431897,16.2039568 49.7732277,17.2544648 C50.1145585,18.3049728 49.5396567,19.4332811 48.4891487,19.7746118 L47.4547568,20.1107061 C47.8115952,21.6831524 48,23.3195741 48,25 C48,25.107441 47.9992298,25.2147022 47.9976947,25.3217782 L49.076543,25.4351698 C50.1750615,25.5506287 50.9719888,26.5347519 50.8565298,27.6332705 C50.7410709,28.731789 49.7569477,29.5287163 48.6584291,29.4132574 L47.5799947,29.2999093 C47.2391393,31.0202092 46.6977136,32.6683474 45.9811053,34.2189362 L46.9235035,34.76303 C47.8800887,35.3153148 48.207839,36.5384956 47.6555543,37.4950808 C47.1032695,38.4516661 45.8800887,38.7794164 44.9235035,38.2271316 L43.979132,37.6818985 C42.9614736,39.1219995 41.7751545,40.4344299 40.4489281,41.5904364 L41.0749093,42.4520257 C41.724159,43.3456412 41.5260613,44.5963805 40.6324458,45.2456302 C39.7388303,45.8948798 38.488091,45.6967822 37.8388413,44.8031667 L37.2080279,43.9349265 C35.7597641,44.7940375 34.2044813,45.4917193 32.5669717,46.0031798 L32.798209,47.0910658 C33.0278619,48.1714978 32.3381692,49.2335314 31.2577372,49.4631844 C30.1773052,49.6928373 29.1152715,49.0031445 28.8856186,47.9227125 L28.6557651,46.8413369 C27.7851383,46.9460935 26.8988644,47 26,47 C25.1257587,47 24.2634276,46.9490064 23.4158189,46.8498313 L23.1877263,47.9229539 C22.9580734,49.0033859 21.8960398,49.6930786 20.8156077,49.4634257 C19.7351757,49.2337728 19.045483,48.1717391 19.2751359,47.0913071 L19.50188,46.0245602 C17.7121052,45.4720233 16.0198712,44.6972327 14.4574131,43.7324234 L13.7830143,44.6273808 C13.1182678,45.5095293 11.8642617,45.6857683 10.9821132,45.0210218 C10.0999648,44.3562753 9.92372575,43.1022692 10.5884723,42.2201207 L11.2585602,41.330884 C10.0605224,40.2487669 8.98213187,39.0366793 8.04561828,37.716851 L7.08141571,38.2735336 C6.12483047,38.8258183 4.90164966,38.498068 4.34936491,37.5414828 C3.79708016,36.5848975 4.12483047,35.3617167 5.08141571,34.809432 L6.03689514,34.2577857 C5.33606556,32.7490945 4.80122777,31.1476584 4.45584077,29.4769364 L3.22655442,29.6061396 C2.12803586,29.7215985 1.14391265,28.9246712 1.0284537,27.8261527 C0.912994747,26.7276341 1.70992201,25.7435109 2.80844056,25.628052 L4.00561824,25.5022235 C4.00187981,25.3352679 4,25.1678535 4,25 C4,23.3729601 4.17662392,21.7871729 4.51174423,20.260766 L3.41018382,19.9028473 C2.3596758,19.5615165 1.78477403,18.4332083 2.12610478,17.3827003 C2.46743553,16.3321923 3.59574378,15.7572905 4.6462518,16.0986212 L5.72374944,16.4487214 C6.40782528,14.828669 7.28039221,13.3076487 8.31396926,11.9131414 L7.49070987,11.1718753 C6.66985476,10.4327741 6.60358017,9.16817959 7.34268143,8.34732448 C8.08178269,7.52646937 9.34637718,7.46019478 10.1672323,8.19929604 L10.9767115,8.92815438 C12.2630419,7.72524323 13.6938911,6.6749561 15.2403873,5.80616457 Z" transform="translate(2 3)"/>
</svg>
