<svg xmlns="http://www.w3.org/2000/svg" width="56" height="56" viewBox="0 0 56 56">
  <g fill-rule="evenodd" transform="translate(10 2)">
    <path fill-rule="nonzero" d="M12,16 L12,20 L6,20 C4.8954305,20 4,20.8954305 4,22 L4,46 C4,47.1045695 4.8954305,48 6,48 L30,48 C31.1045695,48 32,47.1045695 32,46 L32,22 C32,20.8954305 31.1045695,20 30,20 L24,20 L24,16 L30,16 C33.3137085,16 36,18.6862915 36,22 L36,46 C36,49.3137085 33.3137085,52 30,52 L6,52 C2.6862915,52 4.4408921e-16,49.3137085 0,46 L0,22 C-4.4408921e-16,18.6862915 2.6862915,16 6,16 L12,16 Z"/>
    <path d="M17.9994949,0 C18.5772625,0 19.0978091,0.2449921 19.4629172,0.63675879 C19.480236,0.652905077 19.497338,0.669415981 19.5142136,0.686291501 L26.5852814,7.75735931 C27.36633,8.5384079 27.36633,9.80473785 26.5852814,10.5857864 C25.8042328,11.366835 24.5379028,11.366835 23.7568542,10.5857864 L19.9994949,6.82842712 L19.9994949,34 C19.9994949,35.1045695 19.1040644,36 17.9994949,36 C16.8949254,36 15.9994949,35.1045695 15.9994949,34 L15.9994949,6.80050506 L12.2142136,10.5857864 C11.433165,11.366835 10.166835,11.366835 9.38578644,10.5857864 C8.60473785,9.80473785 8.60473785,8.5384079 9.38578644,7.75735931 L16.4568542,0.686291501 C16.535385,0.607760738 16.6188217,0.537125874 16.7061777,0.474386909 C17.0548778,0.178487773 17.5063423,0 17.9994949,0 Z"/>
  </g>
</svg>
