<svg xmlns="http://www.w3.org/2000/svg" width="56" height="56" viewBox="0 0 56 56">
  <path d="M15.9994949,16 L15.9994949,6.80050506 L12.2142136,10.5857864 C11.433165,11.366835 10.166835,11.366835 9.38578644,10.5857864 C8.60473785,9.80473785 8.60473785,8.5384079 9.38578644,7.75735931 L16.4568542,0.686291501 C16.535385,0.607760738 16.6188217,0.537125874 16.7061777,0.474386909 C17.0548778,0.178487773 17.5063423,-7.10542736e-15 17.9994949,-7.10542736e-15 C18.5772625,-7.10542736e-15 19.0978091,0.2449921 19.4629172,0.63675879 C19.480236,0.652905077 19.497338,0.669415981 19.5142136,0.686291501 L26.5852814,7.75735931 C27.36633,8.5384079 27.36633,9.80473785 26.5852814,10.5857864 C25.8042328,11.366835 24.5379028,11.366835 23.7568542,10.5857864 L19.9994949,6.82842712 L19.9994949,16 L30,16 C33.3137085,16 36,18.6862915 36,22 L36,46 C36,49.3137085 33.3137085,52 30,52 L6,52 C2.6862915,52 4.4408921e-16,49.3137085 0,46 L0,22 C-4.4408921e-16,18.6862915 2.6862915,16 6,16 L15.9994949,16 Z M15.9994949,16 L15.9994949,34 C15.9994949,35.1045695 16.8949254,36 17.9994949,36 C19.1040644,36 19.9994949,35.1045695 19.9994949,34 L19.9994949,16 L15.9994949,16 Z" transform="translate(10 2)"/>
</svg>
