<svg xmlns="http://www.w3.org/2000/svg" width="56" height="56" viewBox="0 0 56 56">
  <g fill-rule="evenodd" transform="translate(3 5)">
    <circle cx="15.5" cy="42" r="4"/>
    <circle cx="38.5" cy="42" r="4"/>
    <path d="M4,4 L2,4 C0.8954305,4 1.3527075e-16,3.1045695 0,2 C-1.3527075e-16,0.8954305 0.8954305,2.02906125e-16 2,0 L4,0 C7.3137085,0 10,2.6862915 10,6 L10,8 L47.848436,8 C48.9530055,8 49.848436,8.8954305 49.848436,10 C49.848436,10.294416 49.7834348,10.585201 49.6580734,10.8515941 L43.5087083,23.9189949 C43.1953921,24.5847918 42.5417835,25.0247685 41.8070214,25.0644853 L10,26.7837838 L10,29 C10,30.1045695 10.8954305,31 12,31 L42,31 C43.1045695,31 44,31.8954305 44,33 C44,34.1045695 43.1045695,35 42,35 L12,35 C8.6862915,35 6,32.3137085 6,29 L6,6 C6,4.8954305 5.1045695,4 4,4 Z"/>
  </g>
</svg>
