<?xml version="1.0" encoding="UTF-8"?>
<svg width="50px" height="50px" viewBox="0 0 50 50" version="1.1" xmlns="http://www.w3.org/2000/svg" xmlns:xlink="http://www.w3.org/1999/xlink">
    <!-- Generator: Sketch 40.1 (33804) - http://www.bohemiancoding.com/sketch -->
    <title>social_twitter</title>
    <desc>Created with Sketch.</desc>
    <defs></defs>
    <g id="Page-1" stroke="none" stroke-width="1" fill="none" fill-rule="evenodd">
        <g id="social_twitter" transform="translate(-1.000000, 4.000000)" fill="#000000">
            <path d="M46.1078574,11.8733805 C46.1078574,11.218267 46.1028097,10.92344 46.0767464,10.5445907 L45.0792322,10.611996 L45.6652064,11.4148857 C47.6884083,9.96452876 49.4348701,8.168721 50.8228193,6.1115456 C51.3795258,5.28641234 50.5023033,4.25267898 49.5866294,4.65479926 C47.8810028,5.40382907 46.071651,5.89504258 44.2189726,6.11204243 L44.849885,7.94629611 C47.1133616,6.6033238 48.8074209,4.49106124 49.6167946,2.00260533 C49.899344,1.13389428 48.9469621,0.380646486 48.1549567,0.846424026 C46.3200822,1.92551178 44.3126826,2.685999 42.2193845,3.09506793 L43.1411482,3.38840443 C39.7793942,-0.154343457 34.437599,-1.02144346 30.1111346,1.27332431 C25.7846701,3.56809208 23.549507,8.45403003 24.6589965,13.1913848 L25.6829961,11.9776777 C18.0492227,11.5983953 10.9368507,8.02493759 6.11593032,2.14662793 C5.67474288,1.60867331 4.82685045,1.67445981 4.47550852,2.27390542 C1.59693258,7.18521696 3.06725341,13.468237 7.8332689,16.62239 L8.41812463,14.8078504 C7.01148036,14.7665321 5.63550529,14.3904617 4.40632363,13.7113774 C3.73988305,13.3431899 2.9196734,13.8207081 2.9196734,14.5768909 L2.9196734,14.7005561 C2.92108623,19.8175816 6.56037654,24.2246382 11.6209833,25.2378173 L11.5558945,23.3105386 C10.2537229,23.6624989 8.88747384,23.7139483 7.56210833,23.4609343 C6.81597032,23.3184957 6.1885449,24.0204121 6.42117624,24.7373234 C7.84193139,29.1157337 11.9134433,32.1151678 16.5532987,32.2015367 L15.9542597,30.4317131 C12.6440667,33.0100284 8.55490615,34.4096928 4.34475898,34.4054883 C3.60133819,34.4040734 2.85772938,34.3594084 2.11867205,34.2717246 C1.06449823,34.1466544 0.566296774,35.521266 1.45983223,36.0895612 C6.12419501,39.0561306 11.5514397,40.6296811 17.0936394,40.6223559 L17.0909726,38.6405444 C11.9325775,38.6473623 6.88117662,37.1827822 2.53982707,34.4216516 L1.99982965,35.2556064 L1.88098724,36.2394882 C2.69764926,36.3363793 3.51934067,36.3857343 4.34183207,36.3872992 C9.00171887,36.3919533 13.5268091,34.843076 17.1898891,31.9898964 C17.9289965,31.4142044 17.530736,30.2375684 16.5908501,30.2200728 C12.805543,30.149611 9.48390435,27.7025996 8.32481767,24.1305858 L7.18388559,25.4069748 C8.80936829,25.7172815 10.4849923,25.6541818 12.082029,25.2225234 C13.0988921,24.9476783 13.050071,23.5020868 12.0169402,23.2952447 C7.88903346,22.4688006 4.9204861,18.8739909 4.9193337,14.7002849 L4.91933374,14.5768909 L3.91950357,14.5768909 L3.43268351,15.4424045 C4.94202947,16.2762707 6.6316271,16.7380579 8.35888429,16.7887938 C9.36268523,16.8182792 9.77889774,15.5269623 8.94374002,14.9742542 C5.05581895,12.4012249 3.85639117,7.27579337 6.20461603,3.2693457 L4.56419423,3.39662319 C9.74276235,9.71102476 17.3827772,13.5495852 25.5828745,13.9570053 C26.24625,13.9899649 26.7570512,13.3845321 26.6068741,12.7432982 C25.7017617,8.87860302 27.5251894,4.8926949 31.0546837,3.02064217 C34.5841779,1.14858944 38.9419706,1.85596251 41.684462,4.74610719 C41.9202815,4.99462304 42.2685068,5.10544016 42.6062256,5.0394437 C44.9229795,4.5867074 47.1446653,3.74503954 49.1754094,2.55076112 L47.7135715,1.39457981 C47.0529492,3.42569313 45.6702337,5.14975206 43.8227517,6.24590527 C42.8979015,6.79463997 43.3831967,8.20554027 44.4536641,8.08015895 C46.504947,7.83989702 48.5082587,7.2960261 50.3967261,6.46670135 L49.1605362,5.00995501 C47.9045394,6.87155465 46.3241138,8.49663488 44.4932579,9.80910631 C44.2138008,10.0094385 44.0582565,10.3383724 44.0817179,10.6794013 C44.1036609,10.9983604 44.1081971,11.2633045 44.1081971,11.8733805 C44.1081971,26.1140119 32.9600859,38.6481537 17.092306,38.6481537 L17.092306,40.6299669 C34.124552,40.6299669 46.1078574,27.1567923 46.1078574,11.8733805 Z" id="Shape"></path>
        </g>
    </g>
</svg>