<?xml version="1.0" encoding="UTF-8"?>
<svg width="50px" height="50px" viewBox="0 0 50 50" version="1.1" xmlns="http://www.w3.org/2000/svg" xmlns:xlink="http://www.w3.org/1999/xlink">
    <!-- Generator: Sketch 40.1 (33804) - http://www.bohemiancoding.com/sketch -->
    <title>social_rss</title>
    <desc>Created with Sketch.</desc>
    <defs></defs>
    <g id="Page-1" stroke="none" stroke-width="1" fill="none" fill-rule="evenodd">
        <g id="social_rss" fill="#000000">
            <path d="M14,42 C14,38.6862915 11.3137085,36 8,36 C4.6862915,36 2,38.6862915 2,42 C2,45.3137085 4.6862915,48 8,48 C11.3137085,48 14,45.3137085 14,42 Z M0,42 C0,37.581722 3.581722,34 8,34 C12.418278,34 16,37.581722 16,42 C16,46.418278 12.418278,50 8,50 C3.581722,50 0,46.418278 0,42 Z" id="Oval-68"></path>
            <path d="M1.96220372,0.0377962782 C1.97480882,0.0382827123 2,8 2,8 L0,6 C24.300529,6 44,25.699471 44,50 L42,48 L49.9607304,47.9999846 C49.9612262,48.0125873 48,50 48,50 C48,23.490332 26.509668,2 0,2 L1.96220372,0.0377962782 Z M0,0 C27.6142375,0 50,22.3857625 50,50 L42,50 C42,26.8040405 23.1959595,8 0,8 L0,0 Z" id="Oval-68"></path>
            <path d="M1.9467728,15.0532272 C1.96451872,15.0542001 2,23 2,23 L0,21 C16.0162577,21 29,33.9837423 29,50 L27,48 L34.9438145,48 C34.9448138,48.0177389 33,50 33,50 C33,31.7746033 18.2253967,17 0,17 L1.9467728,15.0532272 Z M0,15 C19.3299662,15 35,30.6700338 35,50 L27,50 C27,35.0883118 14.9116882,23 0,23 L0,15 Z" id="Oval-68"></path>
        </g>
    </g>
</svg>