<?xml version="1.0" encoding="UTF-8"?>
<svg width="50px" height="50px" viewBox="0 0 50 50" version="1.1" xmlns="http://www.w3.org/2000/svg" xmlns:xlink="http://www.w3.org/1999/xlink">
    <!-- Generator: Sketch 40.1 (33804) - http://www.bohemiancoding.com/sketch -->
    <title>social_facebook_fill</title>
    <desc>Created with Sketch.</desc>
    <defs></defs>
    <g id="Page-1" stroke="none" stroke-width="1" fill="none" fill-rule="evenodd">
        <g id="social_facebook_fill" transform="translate(0.000000, -2.000000)" fill="#000000">
            <path d="M0,6.00718972 C0,3.79407995 1.79426827,2 4.00718972,2 L45.9928103,2 C48.2059201,2 50,3.79426827 50,6.00718972 L50,47.9928103 C50,50.2059201 48.2057317,52 45.9928103,52 L4.00718972,52 C1.79407995,52 0,50.2057317 0,47.9928103 L0,6.00718972 Z M34.2798358,50 L34.2798358,30.8419394 L40.7660301,30.8419394 L41.737127,23.3755693 L34.2798358,23.3755693 L34.2798358,18.608622 C34.2798358,16.4469336 34.8852289,14.973864 38.0120338,14.973864 L42,14.9720104 L42,8.29416905 C41.3099117,8.20334181 38.9429331,8 36.1889368,8 C30.4391981,8 26.5028342,11.4794248 26.5028342,17.8693994 L26.5028342,23.3755693 L20,23.3755693 L20,30.8419394 L26.5028342,30.8419394 L26.5028342,50 L34.2798358,50 Z" id="Combined-Shape"></path>
        </g>
    </g>
</svg>