<?xml version="1.0" encoding="UTF-8"?>
<svg width="50px" height="50px" viewBox="0 0 50 50" version="1.1" xmlns="http://www.w3.org/2000/svg" xmlns:xlink="http://www.w3.org/1999/xlink">
    <!-- Generator: Sketch 40.1 (33804) - http://www.bohemiancoding.com/sketch -->
    <title>social_facebook</title>
    <desc>Created with Sketch.</desc>
    <defs></defs>
    <g id="Page-1" stroke="none" stroke-width="1" fill="none" fill-rule="evenodd">
        <g id="social_facebook" transform="translate(0.000000, -1.000000)" fill="#000000">
            <path d="M36.2798358,30.8419394 L35.2798358,31.8419394 L41.7660301,31.8419394 L42.64439,31.8419394 L42.7576778,30.9709159 L43.7287747,23.5045458 L43.8756125,22.3755693 L42.737127,22.3755693 L35.2798358,22.3755693 L36.2798358,23.3755693 L36.2798358,18.608622 C36.2798358,16.5861945 36.7998297,15.973864 39.0120338,15.973864 L43.0004648,15.9720103 L44,15.9715457 L44,14.9720104 L44,8.29416905 L44,7.41716159 L43.1304914,7.30271961 C41.9762659,7.1508041 39.4973608,7 37.1889368,7 C30.6985977,7 26.5028342,11.1114808 26.5028342,17.8693994 L26.5028342,23.3755693 L27.5028342,22.3755693 L21,22.3755693 L20,22.3755693 L20,23.3755693 L20,30.8419394 L20,31.8419394 L21,31.8419394 L27.5028342,31.8419394 L26.5028342,30.8419394 L26.5028342,50 L26.5028342,51 L27.5028342,51 L35.2798358,51 L35.2798358,49 L27.5028342,49 L28.5028342,50 L28.5028342,30.8419394 L28.5028342,29.8419394 L27.5028342,29.8419394 L21,29.8419394 L22,30.8419394 L22,23.3755693 L21,24.3755693 L27.5028342,24.3755693 L28.5028342,24.3755693 L28.5028342,23.3755693 L28.5028342,17.8693994 C28.5028342,12.225236 31.7941854,9 37.1889368,9 C39.4129684,9 41.8051119,9.14552595 42.8695086,9.28561849 L43,8.29416905 L42,8.29416905 L42,14.9720104 L42.9995352,13.9720105 L39.011569,13.9738641 C35.6161726,13.973864 34.2798358,15.5474973 34.2798358,18.608622 L34.2798358,23.3755693 L34.2798358,24.3755693 L35.2798358,24.3755693 L42.737127,24.3755693 L41.7454794,23.2465929 L40.7743825,30.712963 L41.7660301,29.8419394 L35.2798358,29.8419394 L34.2798358,29.8419394 L34.2798358,30.8419394 L34.2798358,50 L36.2798358,50 L36.2798358,30.8419394 Z" id="Fill-16"></path>
            <path d="M4.00261497,3 L45.997385,3 C47.1075443,3 48,3.89031563 48,5.00261497 L48,46.997385 C48,48.1075443 47.1096844,49 45.997385,49 L4.00261497,49 C2.89245574,49 2,48.1096844 2,46.997385 L2,5.00261497 C2,3.89245574 2.89031563,3 4.00261497,3 Z M0,46.997385 C0,49.2153302 1.78895972,51 4.00261497,51 L45.997385,51 C48.2153302,51 50,49.2110403 50,46.997385 L50,5.00261497 C50,2.7846698 48.2110403,1 45.997385,1 L4.00261497,1 C1.7846698,1 0,2.78895972 0,5.00261497 L0,46.997385 Z" id="Rectangle-58"></path>
        </g>
    </g>
</svg>