<?xml version="1.0" encoding="UTF-8"?>
<svg width="50px" height="50px" viewBox="0 0 50 50" version="1.1" xmlns="http://www.w3.org/2000/svg" xmlns:xlink="http://www.w3.org/1999/xlink">
    <!-- Generator: Sketch 40.1 (33804) - http://www.bohemiancoding.com/sketch -->
    <title>social_googleplus</title>
    <desc>Created with Sketch.</desc>
    <defs></defs>
    <g id="Page-1" stroke="none" stroke-width="1" fill="none" fill-rule="evenodd">
        <g id="social_googleplus" transform="translate(0.000000, 9.000000)" fill="#000000">
            <g id="Group-17">
                <path d="M15.9438776,13.3928571 L15.9438776,18.75 L24.9863338,18.75 C24.6219023,21.0491071 22.2530977,25.4910714 15.9438776,25.4910714 C10.5001822,25.4910714 6.05867347,21.0714286 6.05867347,15.625 C6.05867347,10.1785714 10.5001822,5.75892857 15.9438776,5.75892857 C19.0415452,5.75892857 21.1142493,7.05357143 22.2986516,8.16964286 L26.6262755,4.08482143 C23.8474854,1.54017857 20.2487245,0 15.9438776,0 C7.12919096,0 0,6.98660714 0,15.625 C0,24.2633929 7.12919096,31.25 15.9438776,31.25 C25.1457726,31.25 31.25,24.9107143 31.25,15.9821429 C31.25,14.9553571 31.1361152,14.1741071 30.9994534,13.3928571 L15.9438776,13.3928571 L15.9438776,13.3928571 Z" id="Shape"></path>
                <polygon id="Shape" points="50 14.0625 45.3125 14.0625 45.3125 9.375 40.625 9.375 40.625 14.0625 35.9375 14.0625 35.9375 18.75 40.625 18.75 40.625 23.4375 45.3125 23.4375 45.3125 18.75 50 18.75"></polygon>
            </g>
        </g>
    </g>
</svg>