<?xml version="1.0" encoding="UTF-8"?>
<svg width="50px" height="50px" viewBox="0 0 50 50" version="1.1" xmlns="http://www.w3.org/2000/svg" xmlns:xlink="http://www.w3.org/1999/xlink">
    <!-- Generator: Sketch 40.1 (33804) - http://www.bohemiancoding.com/sketch -->
    <title>social_instagram_fill</title>
    <desc>Created with Sketch.</desc>
    <defs></defs>
    <g id="Page-1" stroke="none" stroke-width="1" fill="none" fill-rule="evenodd">
        <g id="social_instagram_fill" fill="#000000">
            <path d="M0,13.9942738 C0,6.26544981 6.26927476,0 13.9942738,0 L36.0057262,0 C43.7345502,0 50,6.26927476 50,13.9942738 L50,36.0057262 C50,43.7345502 43.7307252,50 36.0057262,50 L13.9942738,50 C6.26544981,50 0,43.7307252 0,36.0057262 L0,13.9942738 Z M38.5,14 C39.8807119,14 41,12.8807119 41,11.5 C41,10.1192881 39.8807119,9 38.5,9 C37.1192881,9 36,10.1192881 36,11.5 C36,12.8807119 37.1192881,14 38.5,14 Z M36,25 C36,18.9248678 31.0751322,14 25,14 C18.9248678,14 14,18.9248678 14,25 C14,31.0751322 18.9248678,36 25,36 C31.0751322,36 36,31.0751322 36,25 Z M12,25 C12,17.8202983 17.8202983,12 25,12 C32.1797017,12 38,17.8202983 38,25 C38,32.1797017 32.1797017,38 25,38 C17.8202983,38 12,32.1797017 12,25 Z" id="Combined-Shape"></path>
        </g>
    </g>
</svg>