<svg xmlns="http://www.w3.org/2000/svg" width="56" height="56" viewBox="0 0 56 56">
  <path fill-rule="evenodd" d="M28,56 C12.536027,56 0,43.463973 0,28 C0,12.536027 12.536027,0 28,0 C43.463973,0 56,12.536027 56,28 C56,43.463973 43.463973,56 28,56 Z M12,20 C12,21.1122704 12.896211,22 14.0017433,22 L41.9982567,22 C43.1107383,22 44,21.1045695 44,20 C44,18.8877296 43.103789,18 41.9982567,18 L14.0017433,18 C12.8892617,18 12,18.8954305 12,20 Z M16,28 C16,29.1122704 16.8976452,30 18.0049466,30 L37.9950534,30 C39.1029738,30 40,29.1045695 40,28 C40,26.8877296 39.1023548,26 37.9950534,26 L18.0049466,26 C16.8970262,26 16,26.8954305 16,28 Z M20,36 C20,37.1122704 20.8927712,38 21.9940603,38 L34.0059397,38 C35.1054862,38 36,37.1045695 36,36 C36,34.8877296 35.1072288,34 34.0059397,34 L21.9940603,34 C20.8945138,34 20,34.8954305 20,36 Z"/>
</svg>
