<?xml version="1.0" encoding="UTF-8"?>
<svg width="56px" height="56px" viewBox="0 0 56 56" version="1.1" xmlns="http://www.w3.org/2000/svg" xmlns:xlink="http://www.w3.org/1999/xlink">
    <!-- Generator: Sketch 52.1 (67048) - http://www.bohemiancoding.com/sketch -->
    <title>sort_down_round</title>
    <desc>Created with Sketch.</desc>
    <g id="Page-1" stroke="none" stroke-width="1" fill="none" fill-rule="evenodd">
        <g id="sort_down_round" fill="#000000">
            <path d="M28,52 C41.254834,52 52,41.254834 52,28 C52,14.745166 41.254834,4 28,4 C14.745166,4 4,14.745166 4,28 C4,41.254834 14.745166,52 28,52 Z M28,56 C12.536027,56 0,43.463973 0,28 C0,12.536027 12.536027,0 28,0 C43.463973,0 56,12.536027 56,28 C56,43.463973 43.463973,56 28,56 Z" id="Oval" fill-rule="nonzero"></path>
            <path d="M28,18 L44,18 C45.1045695,18 46,18.8954305 46,20 C46,21.1045695 45.1045695,22 44,22 L28,22 C26.8954305,22 26,21.1045695 26,20 C26,18.8954305 26.8954305,18 28,18 Z" id="Rectangle"></path>
            <path d="M32,26 L44,26 C45.1045695,26 46,26.8954305 46,28 C46,29.1045695 45.1045695,30 44,30 L32,30 C30.8954305,30 30,29.1045695 30,28 C30,26.8954305 30.8954305,26 32,26 Z" id="Rectangle"></path>
            <path d="M36,34 L44,34 C45.1045695,34 46,34.8954305 46,36 C46,37.1045695 45.1045695,38 44,38 L36,38 C34.8954305,38 34,37.1045695 34,36 C34,34.8954305 34.8954305,34 36,34 Z" id="Rectangle"></path>
            <path d="M20.171573,46.0000004 C19.5938054,46.0000004 19.0732588,45.7550083 18.7081507,45.3632416 C18.6908319,45.3470953 18.6737298,45.3305844 18.6568543,45.3137089 L11.5857864,38.242641 C10.8047379,37.4615924 10.8047379,36.1952624 11.5857864,35.4142138 C12.366835,34.6331652 13.633165,34.6331652 14.4142136,35.4142138 L18.1715729,39.1715732 L18.1715729,16 C18.1715729,14.8954305 19.0670035,14 20.171573,14 C21.2761425,14 22.171573,14.8954305 22.171573,16 L22.171573,39.1994952 L25.9568544,35.4142138 C26.737903,34.6331652 28.004233,34.6331652 28.7852816,35.4142138 C29.5663301,36.1952624 29.5663301,37.4615924 28.7852816,38.242641 L21.7142137,45.3137089 C21.6356829,45.3922396 21.5522463,45.4628745 21.4648903,45.5256135 C21.1161902,45.8215126 20.6647256,46.0000004 20.171573,46.0000004 Z" id="Path"></path>
        </g>
    </g>
</svg>