<svg xmlns="http://www.w3.org/2000/svg" width="56" height="56" viewBox="0 0 56 56">
  <g fill-rule="evenodd">
    <path d="M12 20C12 18.8954305 12.8892617 18 14.0017433 18L41.9982567 18C43.103789 18 44 18.8877296 44 20 44 21.1045695 43.1107383 22 41.9982567 22L14.0017433 22C12.896211 22 12 21.1122704 12 20zM16 28C16 26.8954305 16.8970262 26 18.0049466 26L37.9950534 26C39.1023548 26 40 26.8877296 40 28 40 29.1045695 39.1029738 30 37.9950534 30L18.0049466 30C16.8976452 30 16 29.1122704 16 28zM20 36C20 34.8954305 20.8945138 34 21.9940603 34L34.0059397 34C35.1072288 34 36 34.8877296 36 36 36 37.1045695 35.1054862 38 34.0059397 38L21.9940603 38C20.8927712 38 20 37.1122704 20 36z"/>
    <path fill-rule="nonzero" d="M28,52 C41.254834,52 52,41.254834 52,28 C52,14.745166 41.254834,4 28,4 C14.745166,4 4,14.745166 4,28 C4,41.254834 14.745166,52 28,52 Z M28,56 C12.536027,56 0,43.463973 0,28 C0,12.536027 12.536027,0 28,0 C43.463973,0 56,12.536027 56,28 C56,43.463973 43.463973,56 28,56 Z"/>
  </g>
</svg>
