<svg xmlns="http://www.w3.org/2000/svg" width="56" height="56" viewBox="0 0 56 56">
  <g fill-rule="evenodd">
    <path fill-rule="nonzero" d="M28,52 C41.254834,52 52,41.254834 52,28 C52,14.745166 41.254834,4 28,4 C14.745166,4 4,14.745166 4,28 C4,41.254834 14.745166,52 28,52 Z M28,56 C12.536027,56 0,43.463973 0,28 C0,12.536027 12.536027,0 28,0 C43.463973,0 56,12.536027 56,28 C56,43.463973 43.463973,56 28,56 Z"/>
    <path d="M28 34L44 34C45.1045695 34 46 34.8954305 46 36 46 37.1045695 45.1045695 38 44 38L28 38C26.8954305 38 26 37.1045695 26 36 26 34.8954305 26.8954305 34 28 34zM32 26L44 26C45.1045695 26 46 26.8954305 46 28 46 29.1045695 45.1045695 30 44 30L32 30C30.8954305 30 30 29.1045695 30 28 30 26.8954305 30.8954305 26 32 26zM36 18L44 18C45.1045695 18 46 18.8954305 46 20 46 21.1045695 45.1045695 22 44 22L36 22C34.8954305 22 34 21.1045695 34 20 34 18.8954305 34.8954305 18 36 18z"/>
    <path d="M20.171573,42.0000004 C19.5938054,42.0000004 19.0732588,41.7550083 18.7081507,41.3632416 C18.6908319,41.3470953 18.6737298,41.3305844 18.6568543,41.3137089 L11.5857864,34.242641 C10.8047379,33.4615924 10.8047379,32.1952624 11.5857864,31.4142138 C12.366835,30.6331652 13.633165,30.6331652 14.4142136,31.4142138 L18.1715729,35.1715732 L18.1715729,12 C18.1715729,10.8954305 19.0670035,10 20.171573,10 C21.2761425,10 22.171573,10.8954305 22.171573,12 L22.171573,35.1994952 L25.9568544,31.4142138 C26.737903,30.6331652 28.004233,30.6331652 28.7852816,31.4142138 C29.5663301,32.1952624 29.5663301,33.4615924 28.7852816,34.242641 L21.7142137,41.3137089 C21.6356829,41.3922396 21.5522463,41.4628745 21.4648903,41.5256135 C21.1161902,41.8215126 20.6647256,42.0000004 20.171573,42.0000004 Z" transform="rotate(-180 20.186 26)"/>
  </g>
</svg>
