<svg xmlns="http://www.w3.org/2000/svg" width="56" height="56" viewBox="0 0 56 56">
  <g fill-rule="evenodd" transform="translate(6 10)">
    <path d="M17 30L41 30C42.1045695 30 43 30.8954305 43 32 43 33.1045695 42.1045695 34 41 34L17 34C15.8954305 34 15 33.1045695 15 32 15 30.8954305 15.8954305 30 17 30zM17 22L33 22C34.1045695 22 35 22.8954305 35 24 35 25.1045695 34.1045695 26 33 26L17 26C15.8954305 26 15 25.1045695 15 24 15 22.8954305 15.8954305 22 17 22zM17 14L25 14C26.1045695 14 27 14.8954305 27 16 27 17.1045695 26.1045695 18 25 18L17 18C15.8954305 18 15 17.1045695 15 16 15 14.8954305 15.8954305 14 17 14z"/>
    <path d="M9.17157297,36.0000004 C8.59380541,36.0000004 8.07325883,35.7550083 7.70815073,35.3632416 C7.69083191,35.3470953 7.67372985,35.3305844 7.65685433,35.3137089 L0.585786444,28.242641 C-0.195262148,27.4615924 -0.195262148,26.1952624 0.585786444,25.4142138 C1.36683504,24.6331652 2.63316501,24.6331652 3.4142136,25.4142138 L7.17157295,29.1715732 L7.17157295,2.00000002 C7.17157295,0.89543051 8.06700346,7.99360586e-15 9.17157297,7.99360586e-15 C10.2761425,7.99360586e-15 11.171573,0.89543051 11.171573,2.00000002 L11.171573,29.1994952 L14.9568544,25.4142138 C15.737903,24.6331652 17.004233,24.6331652 17.7852816,25.4142138 C18.5663301,26.1952624 18.5663301,27.4615924 17.7852816,28.242641 L10.7142137,35.3137089 C10.6356829,35.3922396 10.5522463,35.4628745 10.4648903,35.5256135 C10.1161902,35.8215126 9.66472559,36.0000004 9.17157297,36.0000004 Z" transform="rotate(-180 9.186 18)"/>
  </g>
</svg>
