<svg xmlns="http://www.w3.org/2000/svg" width="56" height="56" viewBox="0 0 56 56">
  <g fill-rule="evenodd">
    <path fill-rule="nonzero" d="M28,52 C41.254834,52 52,41.254834 52,28 C52,14.745166 41.254834,4 28,4 C14.745166,4 4,14.745166 4,28 C4,41.254834 14.745166,52 28,52 Z M28,56 C12.536027,56 0,43.463973 0,28 C0,12.536027 12.536027,0 28,0 C43.463973,0 56,12.536027 56,28 C56,43.463973 43.463973,56 28,56 Z"/>
    <path d="M28 34L44 34C45.1045695 34 46 34.8954305 46 36 46 37.1045695 45.1045695 38 44 38L28 38C26.8954305 38 26 37.1045695 26 36 26 34.8954305 26.8954305 34 28 34zM32 26L44 26C45.1045695 26 46 26.8954305 46 28 46 29.1045695 45.1045695 30 44 30L32 30C30.8954305 30 30 29.1045695 30 28 30 26.8954305 30.8954305 26 32 26zM36 18L44 18C45.1045695 18 46 18.8954305 46 20 46 21.1045695 45.1045695 22 44 22L36 22C34.8954305 22 34 21.1045695 34 20 34 18.8954305 34.8954305 18 36 18zM20.199495 10C20.7772626 10 21.2978092 10.2449921 21.6629173 10.6367588 21.6802361 10.6529051 21.6973382 10.669416 21.7142137 10.6862915L28.7852816 17.7573594C29.5663301 18.538408 29.5663301 19.804738 28.7852816 20.5857865 28.004233 21.3668351 26.737903 21.3668351 25.9568544 20.5857865L22.1994951 16.8284272 22.1994951 40.0000003C22.1994951 41.1045699 21.3040645 42.0000004 20.199495 42.0000004 19.0949255 42.0000004 18.199495 41.1045699 18.199495 40.0000003L18.199495 16.8005051 14.4142136 20.5857865C13.633165 21.3668351 12.366835 21.3668351 11.5857864 20.5857865 10.8047379 19.804738 10.8047379 18.538408 11.5857864 17.7573594L18.6568543 10.6862915C18.7353851 10.6077607 18.8188217 10.5371259 18.9061777 10.4743869 19.2548778 10.1784878 19.7063424 10 20.199495 10z"/>
  </g>
</svg>
