<svg xmlns="http://www.w3.org/2000/svg" width="56" height="56" viewBox="0 0 56 56">
  <path d="M28,56 C12.536027,56 0,43.463973 0,28 C0,12.536027 12.536027,0 28,0 C43.463973,0 56,12.536027 56,28 C56,43.463973 43.463973,56 28,56 Z M28,18 C26.8954305,18 26,18.8954305 26,20 C26,21.1045695 26.8954305,22 28,22 L44,22 C45.1045695,22 46,21.1045695 46,20 C46,18.8954305 45.1045695,18 44,18 L28,18 Z M32,26 C30.8954305,26 30,26.8954305 30,28 C30,29.1045695 30.8954305,30 32,30 L44,30 C45.1045695,30 46,29.1045695 46,28 C46,26.8954305 45.1045695,26 44,26 L32,26 Z M36,34 C34.8954305,34 34,34.8954305 34,36 C34,37.1045695 34.8954305,38 36,38 L44,38 C45.1045695,38 46,37.1045695 46,36 C46,34.8954305 45.1045695,34 44,34 L36,34 Z M20.171573,46.0000004 C20.6647256,46.0000004 21.1161902,45.8215126 21.4648903,45.5256135 C21.5522463,45.4628745 21.6356829,45.3922396 21.7142137,45.3137089 L28.7852816,38.242641 C29.5663301,37.4615924 29.5663301,36.1952624 28.7852816,35.4142138 C28.004233,34.6331652 26.737903,34.6331652 25.9568544,35.4142138 L22.171573,39.1994952 L22.171573,16 C22.171573,14.8954305 21.2761425,14 20.171573,14 C19.0670035,14 18.1715729,14.8954305 18.1715729,16 L18.1715729,39.1715732 L14.4142136,35.4142138 C13.633165,34.6331652 12.366835,34.6331652 11.5857864,35.4142138 C10.8047379,36.1952624 10.8047379,37.4615924 11.5857864,38.242641 L18.6568543,45.3137089 C18.6737298,45.3305844 18.6908319,45.3470953 18.7081507,45.3632416 C19.0732588,45.7550083 19.5938054,46.0000004 20.171573,46.0000004 Z"/>
</svg>
