<?xml version="1.0" encoding="UTF-8"?>
<svg width="44px" height="44px" viewBox="0 0 44 44" version="1.1" xmlns="http://www.w3.org/2000/svg" xmlns:xlink="http://www.w3.org/1999/xlink">
    <!-- Generator: Sketch 40.1 (33804) - http://www.bohemiancoding.com/sketch -->
    <title>sort</title>
    <desc>Created with Sketch.</desc>
    <defs></defs>
    <g id="Page-1" stroke="none" stroke-width="1" fill="none" fill-rule="evenodd">
        <g id="sort" fill="#000000">
            <path d="M42,22 C42,10.954305 33.045695,2 22,2 C10.954305,2 2,10.954305 2,22 C2,33.045695 10.954305,42 22,42 C33.045695,42 42,33.045695 42,22 Z M0,22 C0,9.8497355 9.8497355,0 22,0 C34.1502645,0 44,9.8497355 44,22 C44,34.1502645 34.1502645,44 22,44 C9.8497355,44 0,34.1502645 0,22 Z" id="Oval-9"></path>
            <rect id="Rectangle-37" x="8" y="14" width="28" height="2"></rect>
            <rect id="Rectangle-38" x="12" y="22" width="20" height="2"></rect>
            <rect id="Rectangle-40" x="16" y="30" width="12" height="2"></rect>
        </g>
    </g>
</svg>