<svg xmlns="http://www.w3.org/2000/svg" width="56" height="56" viewBox="0 0 56 56">
  <path d="M28,56 C12.536027,56 0,43.463973 0,28 C0,12.536027 12.536027,0 28,0 C43.463973,0 56,12.536027 56,28 C56,43.463973 43.463973,56 28,56 Z M28,34 C26.8954305,34 26,34.8954305 26,36 C26,37.1045695 26.8954305,38 28,38 L44,38 C45.1045695,38 46,37.1045695 46,36 C46,34.8954305 45.1045695,34 44,34 L28,34 Z M32,26 C30.8954305,26 30,26.8954305 30,28 C30,29.1045695 30.8954305,30 32,30 L44,30 C45.1045695,30 46,29.1045695 46,28 C46,26.8954305 45.1045695,26 44,26 L32,26 Z M36,18 C34.8954305,18 34,18.8954305 34,20 C34,21.1045695 34.8954305,22 36,22 L44,22 C45.1045695,22 46,21.1045695 46,20 C46,18.8954305 45.1045695,18 44,18 L36,18 Z M20.199495,10 C19.7063424,10 19.2548778,10.1784878 18.9061777,10.4743869 C18.8188217,10.5371259 18.7353851,10.6077607 18.6568543,10.6862915 L11.5857864,17.7573594 C10.8047379,18.538408 10.8047379,19.804738 11.5857864,20.5857865 C12.366835,21.3668351 13.633165,21.3668351 14.4142136,20.5857865 L18.199495,16.8005051 L18.199495,40.0000003 C18.199495,41.1045699 19.0949255,42.0000004 20.199495,42.0000004 C21.3040645,42.0000004 22.1994951,41.1045699 22.1994951,40.0000003 L22.1994951,16.8284272 L25.9568544,20.5857865 C26.737903,21.3668351 28.004233,21.3668351 28.7852816,20.5857865 C29.5663301,19.804738 29.5663301,18.538408 28.7852816,17.7573594 L21.7142137,10.6862915 C21.6973382,10.669416 21.6802361,10.6529051 21.6629173,10.6367588 C21.2978092,10.2449921 20.7772626,10 20.199495,10 Z"/>
</svg>
