<?xml version="1.0" encoding="UTF-8"?>
<svg width="56px" height="56px" viewBox="0 0 56 56" version="1.1" xmlns="http://www.w3.org/2000/svg" xmlns:xlink="http://www.w3.org/1999/xlink">
    <!-- Generator: Sketch 52.1 (67048) - http://www.bohemiancoding.com/sketch -->
    <title>sort_down</title>
    <desc>Created with Sketch.</desc>
    <g id="Page-1" stroke="none" stroke-width="1" fill="none" fill-rule="evenodd">
        <g id="sort_down" transform="translate(6.000000, 10.000000)" fill="#000000">
            <path d="M17,2 L41,2 C42.1045695,2 43,2.8954305 43,4 C43,5.1045695 42.1045695,6 41,6 L17,6 C15.8954305,6 15,5.1045695 15,4 C15,2.8954305 15.8954305,2 17,2 Z" id="Rectangle"></path>
            <path d="M17,10 L33,10 C34.1045695,10 35,10.8954305 35,12 C35,13.1045695 34.1045695,14 33,14 L17,14 C15.8954305,14 15,13.1045695 15,12 C15,10.8954305 15.8954305,10 17,10 Z" id="Rectangle"></path>
            <path d="M17,18 L25,18 C26.1045695,18 27,18.8954305 27,20 C27,21.1045695 26.1045695,22 25,22 L17,22 C15.8954305,22 15,21.1045695 15,20 C15,18.8954305 15.8954305,18 17,18 Z" id="Rectangle"></path>
            <path d="M9.17157297,36.0000004 C8.59380541,36.0000004 8.07325883,35.7550083 7.70815073,35.3632416 C7.69083191,35.3470953 7.67372985,35.3305844 7.65685433,35.3137089 L0.585786444,28.242641 C-0.195262148,27.4615924 -0.195262148,26.1952624 0.585786444,25.4142138 C1.36683504,24.6331652 2.63316501,24.6331652 3.4142136,25.4142138 L7.17157295,29.1715732 L7.17157295,2.00000002 C7.17157295,0.89543051 8.06700346,7.99360586e-15 9.17157297,7.99360586e-15 C10.2761425,7.99360586e-15 11.171573,0.89543051 11.171573,2.00000002 L11.171573,29.1994952 L14.9568544,25.4142138 C15.737903,24.6331652 17.004233,24.6331652 17.7852816,25.4142138 C18.5663301,26.1952624 18.5663301,27.4615924 17.7852816,28.242641 L10.7142137,35.3137089 C10.6356829,35.3922396 10.5522463,35.4628745 10.4648903,35.5256135 C10.1161902,35.8215126 9.66472559,36.0000004 9.17157297,36.0000004 Z" id="Path"></path>
        </g>
    </g>
</svg>