<svg xmlns="http://www.w3.org/2000/svg" width="56" height="56" viewBox="0 0 56 56">
  <g fill-rule="evenodd">
    <path fill-rule="nonzero" d="M28,52 C41.254834,52 52,41.254834 52,28 C52,14.745166 41.254834,4 28,4 C14.745166,4 4,14.745166 4,28 C4,41.254834 14.745166,52 28,52 Z M28,56 C12.536027,56 0,43.463973 0,28 C0,12.536027 12.536027,0 28,0 C43.463973,0 56,12.536027 56,28 C56,43.463973 43.463973,56 28,56 Z"/>
    <path d="M28 18L44 18C45.1045695 18 46 18.8954305 46 20 46 21.1045695 45.1045695 22 44 22L28 22C26.8954305 22 26 21.1045695 26 20 26 18.8954305 26.8954305 18 28 18zM32 26L44 26C45.1045695 26 46 26.8954305 46 28 46 29.1045695 45.1045695 30 44 30L32 30C30.8954305 30 30 29.1045695 30 28 30 26.8954305 30.8954305 26 32 26zM36 34L44 34C45.1045695 34 46 34.8954305 46 36 46 37.1045695 45.1045695 38 44 38L36 38C34.8954305 38 34 37.1045695 34 36 34 34.8954305 34.8954305 34 36 34zM20.171573 46.0000004C19.5938054 46.0000004 19.0732588 45.7550083 18.7081507 45.3632416 18.6908319 45.3470953 18.6737298 45.3305844 18.6568543 45.3137089L11.5857864 38.242641C10.8047379 37.4615924 10.8047379 36.1952624 11.5857864 35.4142138 12.366835 34.6331652 13.633165 34.6331652 14.4142136 35.4142138L18.1715729 39.1715732 18.1715729 16C18.1715729 14.8954305 19.0670035 14 20.171573 14 21.2761425 14 22.171573 14.8954305 22.171573 16L22.171573 39.1994952 25.9568544 35.4142138C26.737903 34.6331652 28.004233 34.6331652 28.7852816 35.4142138 29.5663301 36.1952624 29.5663301 37.4615924 28.7852816 38.242641L21.7142137 45.3137089C21.6356829 45.3922396 21.5522463 45.4628745 21.4648903 45.5256135 21.1161902 45.8215126 20.6647256 46.0000004 20.171573 46.0000004z"/>
  </g>
</svg>
