<?xml version="1.0" encoding="UTF-8"?>
<svg width="56px" height="56px" viewBox="0 0 56 56" version="1.1" xmlns="http://www.w3.org/2000/svg" xmlns:xlink="http://www.w3.org/1999/xlink">
    <!-- Generator: Sketch 52.1 (67048) - http://www.bohemiancoding.com/sketch -->
    <title>sort_round</title>
    <desc>Created with Sketch.</desc>
    <g id="Page-1" stroke="none" stroke-width="1" fill="none" fill-rule="evenodd">
        <g id="sort_round" fill="#000000">
            <path d="M12,20 C12,18.8954305 12.8892617,18 14.0017433,18 L41.9982567,18 C43.103789,18 44,18.8877296 44,20 C44,21.1045695 43.1107383,22 41.9982567,22 L14.0017433,22 C12.896211,22 12,21.1122704 12,20 Z" id="Rectangle-37"></path>
            <path d="M16,28 C16,26.8954305 16.8970262,26 18.0049466,26 L37.9950534,26 C39.1023548,26 40,26.8877296 40,28 C40,29.1045695 39.1029738,30 37.9950534,30 L18.0049466,30 C16.8976452,30 16,29.1122704 16,28 Z" id="Rectangle-38"></path>
            <path d="M20,36 C20,34.8954305 20.8945138,34 21.9940603,34 L34.0059397,34 C35.1072288,34 36,34.8877296 36,36 C36,37.1045695 35.1054862,38 34.0059397,38 L21.9940603,38 C20.8927712,38 20,37.1122704 20,36 Z" id="Rectangle-40"></path>
            <path d="M28,52 C41.254834,52 52,41.254834 52,28 C52,14.745166 41.254834,4 28,4 C14.745166,4 4,14.745166 4,28 C4,41.254834 14.745166,52 28,52 Z M28,56 C12.536027,56 0,43.463973 0,28 C0,12.536027 12.536027,0 28,0 C43.463973,0 56,12.536027 56,28 C56,43.463973 43.463973,56 28,56 Z" id="Oval" fill-rule="nonzero"></path>
        </g>
    </g>
</svg>