<svg xmlns="http://www.w3.org/2000/svg" width="56" height="56" viewBox="0 0 56 56">
  <path d="M21,26.3352385 L27.3126841,30.122849 L24.0946054,22.7672404 L31.4347295,17 L23.1169631,17 L21,10.6491106 L21,26.3352385 Z M20.0513167,0.846049894 C20.1508517,0.547444898 20.3851672,0.313129361 20.6837722,0.213594362 C21.2077156,0.0389465895 21.7740355,0.322106576 21.9486833,0.846049894 L26,13 L40.1086824,13 C40.4155433,13 40.7054154,13.1408881 40.8950007,13.3821784 C41.2362141,13.8164501 41.1607756,14.4451049 40.7265039,14.7863183 L29,24 L34.7443284,37.1298934 C34.8740962,37.4265057 34.8522355,37.7675887 34.685664,38.045208 C34.4015158,38.5187883 33.7872555,38.6723533 33.3136753,38.3882052 L21,31 L8.68632473,38.3882052 C8.40870548,38.5547767 8.06762239,38.5766374 7.77101014,38.4468696 C7.26503041,38.2255034 7.03430551,37.6358731 7.25567164,37.1298934 L13,24 L1.27349607,14.7863183 C1.03220568,14.596733 0.89131762,14.3068609 0.89131762,14 C0.89131762,13.4477153 1.33903287,13 1.89131762,13 L16,13 L20.0513167,0.846049894 Z" transform="translate(7 6)"/>
</svg>
