<svg xmlns="http://www.w3.org/2000/svg" width="56" height="56" viewBox="0 0 56 56">
  <path fill-rule="evenodd" d="M28,56 C12.536027,56 0,43.463973 0,28 C0,12.536027 12.536027,0 28,0 C43.463973,0 56,12.536027 56,28 C56,43.463973 43.463973,56 28,56 Z M27.0513167,6.84604989 L23,19 L8.89131762,19 C8.33903287,19 7.89131762,19.4477153 7.89131762,20 C7.89131762,20.3068609 8.03220568,20.596733 8.27349607,20.7863183 L20,30 L14.2556716,43.1298934 C14.0343055,43.6358731 14.2650304,44.2255034 14.7710101,44.4468696 C15.0676224,44.5766374 15.4087055,44.5547767 15.6863247,44.3882052 L28,37 L40.3136753,44.3882052 C40.7872555,44.6723533 41.4015158,44.5187883 41.685664,44.045208 C41.8522355,43.7675887 41.8740962,43.4265057 41.7443284,43.1298934 L36,30 L47.7265039,20.7863183 C48.1607756,20.4451049 48.2362141,19.8164501 47.8950007,19.3821784 C47.7054154,19.1408881 47.4155433,19 47.1086824,19 L33,19 L28.9486833,6.84604989 C28.7740355,6.32210658 28.2077156,6.03894659 27.6837722,6.21359436 C27.3851672,6.31312936 27.1508517,6.5474449 27.0513167,6.84604989 Z"/>
</svg>
