<?xml version="1.0" encoding="UTF-8"?>
<svg width="46px" height="50px" viewBox="0 0 46 50" version="1.1" xmlns="http://www.w3.org/2000/svg" xmlns:xlink="http://www.w3.org/1999/xlink">
    <!-- Generator: Sketch 40.1 (33804) - http://www.bohemiancoding.com/sketch -->
    <title>!!!stopwatch</title>
    <desc>Created with Sketch.</desc>
    <defs></defs>
    <g id="Page-1" stroke="none" stroke-width="1" fill="none" fill-rule="evenodd">
        <g id="!!!stopwatch">
            <rect id="Rectangle-115" fill="#000000" transform="translate(39.456604, 10.386353) rotate(-315.000000) translate(-39.456604, -10.386353) " x="38.456604" y="8.88635254" width="2" height="3"></rect>
            <rect id="Rectangle-116" fill="#000000" transform="translate(41.999207, 8.001099) rotate(-315.000000) translate(-41.999207, -8.001099) " x="38.9992065" y="6.00109863" width="6" height="4"></rect>
            <circle id="Oval-65" stroke="#000000" stroke-width="2" cx="23" cy="27" r="22"></circle>
            <rect id="Rectangle-114" fill="#000000" x="21" y="0" width="4" height="5"></rect>
            <path d="M24,24.1707057 L24,12 L22,12 L22,24.1707057 C20.8348076,24.5825421 20,25.6937812 20,27 C20,28.3062188 20.8348076,29.4174579 22,29.8292943 L22,34 L24,34 L24,29.8292943 C25.1651924,29.4174579 26,28.3062188 26,27 C26,25.6937812 25.1651924,24.5825421 24,24.1707057 L24,24.1707057 Z" id="Combined-Shape" fill="#000000"></path>
        </g>
    </g>
</svg>