<svg xmlns="http://www.w3.org/2000/svg" width="56" height="56" viewBox="0 0 56 56">
  <g fill-rule="evenodd" transform="translate(4 2)">
    <path d="M25.5,24.2907585 L25.5,11.5 C25.5,10.6715729 24.8284271,10 24,10 C23.1715729,10 22.5,10.6715729 22.5,11.5 L22.5,24.2907585 C21.0340848,24.8841459 20,26.3213112 20,28 C20,29.6786888 21.0340848,31.1158541 22.5,31.7092415 L22.5,34.5 C22.5,35.3284271 23.1715729,36 24,36 C24.8284271,36 25.5,35.3284271 25.5,34.5 L25.5,31.7092415 C26.9659152,31.1158541 28,29.6786888 28,28 C28,26.3213112 26.9659152,24.8841459 25.5,24.2907585 Z M21,4.18568126 L21,2 C21,0.8954305 21.8954305,2.02906125e-16 23,0 L25,0 C26.1045695,-2.02906125e-16 27,0.8954305 27,2 L27,4.18568126 C38.8389347,5.66197553 48,15.761147 48,28 C48,41.254834 37.254834,52 24,52 C10.745166,52 0,41.254834 0,28 C0,15.761147 9.16106527,5.66197553 21,4.18568126 Z"/>
    <path d="M43.1464466,5.81801948 L46.6819805,9.35355339 C47.0725048,9.74407768 47.0725048,10.3772427 46.6819805,10.767767 L45.267767,12.1819805 C44.8772427,12.5725048 44.2440777,12.5725048 43.8535534,12.1819805 L40.3180195,8.64644661 C39.9274952,8.25592232 39.9274952,7.62275734 40.3180195,7.23223305 L41.732233,5.81801948 C42.1227573,5.42749519 42.7559223,5.42749519 43.1464466,5.81801948 Z"/>
  </g>
</svg>
