<?xml version="1.0" encoding="UTF-8"?>
<svg width="46px" height="50px" viewBox="0 0 46 50" version="1.1" xmlns="http://www.w3.org/2000/svg" xmlns:xlink="http://www.w3.org/1999/xlink">
    <!-- Generator: Sketch 40.1 (33804) - http://www.bohemiancoding.com/sketch -->
    <title>stopwatch</title>
    <desc>Created with Sketch.</desc>
    <defs></defs>
    <g id="Page-1" stroke="none" stroke-width="1" fill="none" fill-rule="evenodd">
        <g id="stopwatch" transform="translate(1.000000, 1.000000)">
            <rect id="Rectangle-115" fill="#000000" transform="translate(38.456604, 10.386353) rotate(-315.000000) translate(-38.456604, -10.386353) " x="37.456604" y="8.88635254" width="2" height="3"></rect>
            <rect id="Rectangle-116" fill="#000000" transform="translate(40.999207, 8.001099) rotate(-315.000000) translate(-40.999207, -8.001099) " x="37.9992065" y="6.00109863" width="6" height="4"></rect>
            <circle id="Oval-65" stroke="#000000" stroke-width="2" cx="22" cy="27" r="22"></circle>
            <rect id="Rectangle-114" fill="#000000" x="20" y="0" width="4" height="5"></rect>
            <path d="M23,24.1707057 L23,12 L21,12 L21,24.1707057 C19.8348076,24.5825421 19,25.6937812 19,27 C19,28.3062188 19.8348076,29.4174579 21,29.8292943 L21,34 L23,34 L23,29.8292943 C24.1651924,29.4174579 25,28.3062188 25,27 C25,25.6937812 24.1651924,24.5825421 23,24.1707057 L23,24.1707057 Z" id="Combined-Shape" fill="#000000"></path>
        </g>
    </g>
</svg>