<svg xmlns="http://www.w3.org/2000/svg" width="56" height="56" viewBox="0 0 56 56">
  <g fill-rule="evenodd" transform="translate(4 2)">
    <path fill-rule="nonzero" d="M21,4.18568126 L21,2 C21,0.8954305 21.8954305,2.02906125e-16 23,0 L25,0 C26.1045695,-2.02906125e-16 27,0.8954305 27,2 L27,4.18568126 C38.8389347,5.66197553 48,15.761147 48,28 C48,41.254834 37.254834,52 24,52 C10.745166,52 0,41.254834 0,28 C0,15.761147 9.16106527,5.66197553 21,4.18568126 Z M24,48 C35.045695,48 44,39.045695 44,28 C44,16.954305 35.045695,8 24,8 C12.954305,8 4,16.954305 4,28 C4,39.045695 12.954305,48 24,48 Z"/>
    <path d="M25.5 24.2907585C26.9659152 24.8841459 28 26.3213112 28 28 28 29.6786888 26.9659152 31.1158541 25.5 31.7092415L25.5 34.5C25.5 35.3284271 24.8284271 36 24 36 23.1715729 36 22.5 35.3284271 22.5 34.5L22.5 31.7092415C21.0340848 31.1158541 20 29.6786888 20 28 20 26.3213112 21.0340848 24.8841459 22.5 24.2907585L22.5 11.5C22.5 10.6715729 23.1715729 10 24 10 24.8284271 10 25.5 10.6715729 25.5 11.5L25.5 24.2907585zM43.1464466 5.81801978L46.6819805 9.35355369C47.0725048 9.74407798 47.0725048 10.377243 46.6819805 10.7677672L45.267767 12.1819808C44.8772427 12.5725051 44.2440777 12.5725051 43.8535534 12.1819808L40.3180195 8.64644691C39.9274952 8.25592261 39.9274952 7.62275764 40.3180195 7.23223334L41.732233 5.81801978C42.1227573 5.42749549 42.7559223 5.42749549 43.1464466 5.81801978z"/>
  </g>
</svg>
