<svg xmlns="http://www.w3.org/2000/svg" width="56" height="56" viewBox="0 0 56 56">
  <g fill-rule="evenodd" transform="translate(10 4)">
    <path fill-rule="nonzero" d="M4,0 L32,0 C34.209139,-4.05812251e-16 36,1.790861 36,4 L36,44 C36,46.209139 34.209139,48 32,48 L4,48 C1.790861,48 -1.39244866e-12,46.209139 -1.39266376e-12,44 L-1.39266376e-12,4 C-1.39287887e-12,1.790861 1.790861,4.05812251e-16 4,0 Z M3,44 C3,44.5522847 3.44771525,45 4,45 L32,45 C32.5522847,45 33,44.5522847 33,44 L33,6 C33,5.44771525 32.5522847,5 32,5 L4,5 C3.44771525,5 3,5.44771525 3,6 L3,44 Z M15.5,2 C15.2238576,2 15,2.22385763 15,2.5 C15,2.77614237 15.2238576,3 15.5,3 L20.5,3 C20.7761424,3 21,2.77614237 21,2.5 C21,2.22385763 20.7761424,2 20.5,2 L15.5,2 Z M13.5,3 C13.7761424,3 14,2.77614237 14,2.5 C14,2.22385763 13.7761424,2 13.5,2 C13.2238576,2 13,2.22385763 13,2.5 C13,2.77614237 13.2238576,3 13.5,3 Z"/>
    <path d="M13,41 L23,41 C23.5522847,41 24,41.4477153 24,42 C24,42.5522847 23.5522847,43 23,43 L13,43 C12.4477153,43 12,42.5522847 12,42 C12,41.4477153 12.4477153,41 13,41 Z"/>
  </g>
</svg>
