<svg xmlns="http://www.w3.org/2000/svg" width="56" height="56" viewBox="0 0 56 56">
  <g fill-rule="evenodd" transform="translate(4 10)">
    <path fill-rule="nonzero" d="M3.83693077e-13,32 L3.85407583e-13,4 C3.85542854e-13,1.790861 1.790861,-3.55271368e-13 4,-3.55271368e-13 L44,-3.55271368e-13 C46.209139,-3.55271368e-13 48,1.790861 48,4 L48,32 C48,34.209139 46.209139,36 44,36 L4,36 C1.790861,36 3.83557807e-13,34.209139 3.83693077e-13,32 Z M44,33 C44.5522847,33 45,32.5522847 45,32 L45,4 C45,3.44771525 44.5522847,3 44,3 L6,3 C5.44771525,3 5,3.44771525 5,4 L5,32 C5,32.5522847 5.44771525,33 6,33 L44,33 Z M2,20.5 C2,20.7761424 2.22385763,21 2.5,21 C2.77614237,21 3,20.7761424 3,20.5 L3,15.5 C3,15.2238576 2.77614237,15 2.5,15 C2.22385763,15 2,15.2238576 2,15.5 L2,20.5 Z M3,22.5 C3,22.2238576 2.77614237,22 2.5,22 C2.22385763,22 2,22.2238576 2,22.5 C2,22.7761424 2.22385763,23 2.5,23 C2.77614237,23 3,22.7761424 3,22.5 Z"/>
    <path d="M19,29 L29,29 C29.5522847,29 30,29.4477153 30,30 C30,30.5522847 29.5522847,31 29,31 L19,31 C18.4477153,31 18,30.5522847 18,30 C18,29.4477153 18.4477153,29 19,29 Z"/>
  </g>
</svg>
