<svg xmlns="http://www.w3.org/2000/svg" width="56" height="56" viewBox="0 0 56 56">
  <g fill-rule="evenodd" transform="translate(7 7)">
    <path d="M0,12.0002124 C0,9.79095608 1.79203193,8 4.00021236,8 L29.9997876,8 C32.2090439,8 34,9.79203193 34,12.0002124 L34,37.9997876 C34,40.2090439 32.2079681,42 29.9997876,42 L4.00021236,42 C1.79095608,42 0,40.2079681 0,37.9997876 L0,12.0002124 Z"/>
    <path d="M37,34 L37,9.00021236 C37,6.79203193 35.2090439,5 32.9997876,5 L8,5 L8,4.00021236 C8,1.79095608 9.79203193,0 12.0002124,0 L37.9997876,0 C40.2090439,0 42,1.79203193 42,4.00021236 L42,29.9997876 C42,32.2090439 40.2079681,34 37.9997876,34 L37,34 Z"/>
  </g>
</svg>
