<?xml version="1.0" encoding="UTF-8"?>
<svg width="49px" height="49px" viewBox="0 0 49 49" version="1.1" xmlns="http://www.w3.org/2000/svg" xmlns:xlink="http://www.w3.org/1999/xlink">
    <!-- Generator: Sketch 40.1 (33804) - http://www.bohemiancoding.com/sketch -->
    <title>tabs</title>
    <desc>Created with Sketch.</desc>
    <defs></defs>
    <g id="Page-1" stroke="none" stroke-width="1" fill="none" fill-rule="evenodd">
        <g id="tabs" fill="#000000">
            <path d="M2,47 L2,13 L36,13 L36,47 L2,47 L2,47 Z M0,48 L0,11 L1,11 L37,11 L38,11 L38,49 L37,49 L0,49 L0,48 L0,48 Z" id="Combined-Shape"></path>
            <polygon id="Combined-Shape" points="48 38 49 38 49 0 48 0 12 0 11 0 11 9 13 9 13 2 47 2 47 36 40 36 40 38 48 38"></polygon>
        </g>
    </g>
</svg>