<svg xmlns="http://www.w3.org/2000/svg" width="56" height="56" viewBox="0 0 56 56">
  <path d="M6.13154751,28.1460109 L13.2026153,35.2170787 C13.9836639,35.9981273 15.2499939,35.9981273 16.0310425,35.2170787 L35.6760995,15.5720216 C36.0134242,15.2346969 36.2190653,14.7879073 36.2559114,14.3122832 L36.8497,6.64742676 C36.9350143,5.54615692 36.1114196,4.58424046 35.0101497,4.4989262 C34.9073204,4.49096012 34.8040288,4.49096012 34.7011995,4.4989262 L27.036343,5.09271484 C26.5607189,5.12956095 26.1139293,5.335202 25.7766046,5.67252671 L6.13154751,25.3175838 C5.35049893,26.0986324 5.35049893,27.3649623 6.13154751,28.1460109 Z M1.88890683,23.9033702 L23.4708929,2.32138413 C24.1455423,1.64673472 25.0391216,1.23545262 25.9903698,1.16176039 L36.7211688,0.330456299 C38.9237085,0.15982779 40.8475414,1.80701725 41.0181699,4.00955692 C41.0341021,4.21521565 41.0341021,4.42179869 41.0181699,4.62745742 L40.1868659,15.3582564 C40.1131736,16.3095046 39.7018915,17.2030839 39.0272421,17.8777333 L17.445256,39.4597194 C15.8831588,41.0218166 13.3504989,41.0218166 11.7884018,39.4597194 L1.88890683,29.5602245 C0.326809659,27.9981273 0.326809659,25.4654674 1.88890683,23.9033702 Z M30.2944984,14.2967685 C29.1229255,15.4683414 27.2234306,15.4683414 26.0518577,14.2967685 C24.8802849,13.1251956 24.8802849,11.2257007 26.0518577,10.0541278 C27.2234306,8.88255495 29.1229255,8.88255495 30.2944984,10.0541278 C31.4660713,11.2257007 31.4660713,13.1251956 30.2944984,14.2967685 Z" transform="translate(7 8)"/>
</svg>
