<svg xmlns="http://www.w3.org/2000/svg" width="56" height="56" viewBox="0 0 56 56">
  <g transform="translate(4 6)">
    <path d="M42.1698245,3.28299196 L42.988877,3.21954079 C45.1914167,3.04891228 47.1152496,4.69610174 47.2858781,6.89864142 C47.3018103,7.10430015 47.3018103,7.31088318 47.2858781,7.51654191 L46.4545741,18.2473409 C46.3808818,19.1985891 45.9695997,20.0921684 45.2949503,20.7668178 L23.7129642,42.3488039 C22.150867,43.9109011 19.6182071,43.9109011 18.05611,42.3488039 L17.6777168,41.9704107 C18.3343976,41.7950436 18.9551437,41.4497702 19.4703235,40.9345903 L41.0523096,19.3526043 C41.726959,18.6779548 42.1382411,17.7843756 42.2119334,16.8331274 L43.0432375,6.10232835 C43.0591696,5.89666962 43.0591696,5.69008659 43.0432375,5.48442786 C42.9783847,4.64728245 42.66026,3.89036418 42.1698245,3.28299196 Z"/>
    <path d="M5.91397434,28.2066683 L12.9850421,35.2777361 C13.7660907,36.0587847 15.0324207,36.0587847 15.8134693,35.2777361 L35.4585264,15.632679 C35.7958511,15.2953543 36.0014921,14.8485647 36.0383382,14.3729406 L36.6321269,6.70808413 C36.7174411,5.60681429 35.8938464,4.64489783 34.7925766,4.55958357 C34.6897472,4.55161749 34.5864557,4.55161749 34.4836263,4.55958357 L26.8187699,5.15337221 C26.3431458,5.19021832 25.8963561,5.39585937 25.5590314,5.73318408 L5.91397434,25.3782412 C5.13292575,26.1592897 5.13292575,27.4256197 5.91397434,28.2066683 Z M1.67133365,23.9640276 L23.2533197,2.3820415 C23.9279692,1.70739209 24.8215484,1.29610999 25.7727966,1.22241776 L36.5035956,0.391113669 C38.7061353,0.22048516 40.6299683,1.86767462 40.8005968,4.07021429 C40.8165289,4.27587302 40.8165289,4.48245606 40.8005968,4.68811479 L39.9692927,15.4189138 C39.8956004,16.370162 39.4843183,17.2637413 38.8096689,17.9383907 L17.2276828,39.5203768 C15.6655857,41.082474 13.1329258,41.082474 11.5708286,39.5203768 L1.67133365,29.6208818 C0.109236483,28.0587847 0.109236483,25.5261248 1.67133365,23.9640276 Z M30.0769252,14.3574259 C28.9053524,15.5289988 27.0058574,15.5289988 25.8342846,14.3574259 C24.6627117,13.185853 24.6627117,11.2863581 25.8342846,10.1147852 C27.0058574,8.94321232 28.9053524,8.94321232 30.0769252,10.1147852 C31.2484981,11.2863581 31.2484981,13.185853 30.0769252,14.3574259 Z"/>
  </g>
</svg>
