<svg xmlns="http://www.w3.org/2000/svg" width="56" height="56" viewBox="0 0 56 56">
  <path fill-rule="evenodd" d="M31.055574,20 C29.1554143,17.876974 28,15.0734177 28,12 C28,5.372583 33.372583,0 40,0 C46.627417,0 52,5.372583 52,12 C52,18.2906638 47.1595305,23.4507753 41,23.9589262 L41,24 L12,24 C5.372583,24 0,18.627417 0,12 C0,5.372583 5.372583,0 12,0 C18.627417,0 24,5.372583 24,12 C24,15.0734177 22.8445857,17.876974 20.944426,20 L31.055574,20 Z M12,20 C16.418278,20 20,16.418278 20,12 C20,7.581722 16.418278,4 12,4 C7.581722,4 4,7.581722 4,12 C4,16.418278 7.581722,20 12,20 Z M40,20 C44.418278,20 48,16.418278 48,12 C48,7.581722 44.418278,4 40,4 C35.581722,4 32,7.581722 32,12 C32,16.418278 35.581722,20 40,20 Z" transform="translate(2 16)"/>
</svg>
