<svg xmlns="http://www.w3.org/2000/svg" width="56" height="56" viewBox="0 0 56 56">
  <path fill-rule="evenodd" d="M5.31627168 23L6.02380952 23C7.54726565 23 8.78227086 24.2350052 8.78227086 25.7584613 8.78227086 26.0036554 8.74957929 26.247755 8.68506023 26.4843082 8.00614784 28.9736749 7.66666667 31.4630279 7.66666667 33.952381 7.66666667 36.2653086 7.9597336 38.4317028 8.54586746 40.4515636 8.95006052 41.8444567 8.14856462 43.3012851 6.75567254 43.7054819 6.517844 43.7744962 6.27144916 43.8095238 6.02380952 43.8095238L5.14540227 43.8095295C3.21683989 43.8095295 1.51510437 42.5483605.953979051 40.7032341.317993017 38.6119462 1.04125005e-13 36.3616618 0 33.952381-1.1184858e-13 31.3633865.367201913 28.7743921 1.10160574 26.1853977 1.63624089 24.3006728 3.35718448 23 5.31627168 23zM12.9673061 22.7717057C15.9599558 19.1416673 17.8438696 16.6622099 18.6190476 15.3333333 19.4570632 13.8967352 21.5908531 9.36216054 25.0204175 1.72960927 25.503516.654493145 26.766694.174555981 27.8418147.657644221 28.0780758.763804366 28.2930385.912086113 28.4761905 1.0952381L28.3172426.936283569C29.9796578 2.59869877 30.9042526 4.8594524 30.883195 7.21036821 30.8736534 8.27560327 30.8014773 9.28005812 30.6666667 10.2237328 30.3765088 12.2548381 29.2812707 15.4183557 27.3809524 19.7142857 30.467221 18.827053 33.4430672 18.2879225 36.3084909 18.0968943L42.1186262 17.7095519C43.7129043 17.6032667 45.1390233 18.6951163 45.452381 20.2619048L45.5300401 20.6501989C45.7911892 21.9559443 45.4442875 23.3095868 44.5873177 24.3287887 44.2878361 24.684965 44.1380952 24.9721941 44.1380952 25.1904762 44.1380952 25.4472118 44.2233906 25.6774757 44.3939813 25.8812679L44.3939617 25.8812844C44.7239443 26.2754903 44.9047619 26.7732004 44.9047619 27.2872887L44.9047619 28.5607535C44.9047619 29.9303902 44.4768099 31.2657995 43.6807247 32.3803187L40.0029104 37.5292588C39.622158 38.0623122 39.323249 38.6493007 39.1160972 39.2707559L38.8627431 40.0308187C38.4986506 41.1230961 37.7192021 42.028138 36.692994 42.5501819 33.391919 44.2294768 29.5577464 45.0691243 25.1904762 45.0691243 20.8824199 45.0691243 16.8337334 43.9927215 13.0444166 41.839916 11.6581857 41.0523615 10.6839987 39.6997875 10.3762808 38.1354385 10.0301888 36.3760066 9.85714286 34.6165747 9.85714286 32.8571429 9.85714286 31.7383889 9.92710866 30.6196349 10.0670403 29.5008809 10.3763103 27.0282308 11.3821652 24.6944574 12.9673061 22.7717057z" transform="translate(5 5)"/>
</svg>
