<svg xmlns="http://www.w3.org/2000/svg" width="56" height="56" viewBox="0 0 56 56">
  <path fill-rule="evenodd" d="M40.2988846 22.5387514L39.5913468 22.5387514C38.0678907 22.5387514 36.8328855 21.3037462 36.8328855 19.78029 36.8328855 19.535096 36.865577 19.2909964 36.9300961 19.0544432 37.6090085 16.5650765 37.9484897 14.0757235 37.9484897 11.5863704 37.9484897 9.27344275 37.6554227 7.10704854 37.0692889 5.08718779 36.6650958 3.69429463 37.4665917 2.23746627 38.8594838 1.83326949 39.0973123 1.76425515 39.3437072 1.72922757 39.5913468 1.72922757L40.4697541 1.72922188C42.3983164 1.72922188 44.100052 2.99039091 44.6611773 4.83551726 45.2971633 6.92680514 45.6151563 9.17708953 45.6151563 11.5863704 45.6151563 14.1753648 45.2479544 16.7643592 44.5135506 19.3533537 43.9789154 21.2380786 42.2579718 22.5387514 40.2988846 22.5387514zM32.6478502 22.7670457C29.6552005 26.3970841 27.7712867 28.8765415 26.9961087 30.205418 26.1580931 31.6420161 24.0243032 36.1765908 20.5947388 43.8091421 20.1116403 44.8842582 18.8484624 45.3641954 17.7733416 44.8811072 17.5370805 44.774947 17.3221178 44.6266653 17.1389659 44.4435133L17.2979138 44.6024678C15.6354986 42.9400526 14.7109037 40.679299 14.7319614 38.3283832 14.7415029 37.2631481 14.813679 36.2586933 14.9484897 35.3150186 15.2386476 33.2839133 16.3338857 30.1203956 18.2342039 25.8244657 15.1479353 26.7116984 12.1720891 27.2508289 9.30666546 27.4418571L3.49653008 27.8291995C1.90225205 27.9354847.476133059 26.843635.162775375 25.2768466L.0851162198 24.8885525C-.176032855 23.5828071.17086886 22.2291646 1.02783863 21.2099626 1.32732027 20.8537864 1.47706109 20.5665572 1.47706109 20.3482752 1.47706109 20.0915396 1.39176572 19.8612757 1.221175 19.6574834L1.22119459 19.657467C.891212077 19.2632611.710394423 18.765551.710394423 18.2514627L.710394423 16.9779979C.710394423 15.6083612 1.13834645 14.2729519 1.93443161 13.1584326L5.61224593 8.00949259C5.99299836 7.47643919 6.29190736 6.88945065 6.49905908 6.2679955L6.75241326 5.50793264C7.1165057 4.41565531 7.8959542 3.51061341 8.92216237 2.98856947 12.2232373 1.30927453 16.0574099.469627057 20.4246801.469627057 24.7327364.469627057 28.781423 1.54602983 32.5707397 3.69883537 33.9569706 4.48638986 34.9311576 5.83896386 35.2388755 7.40331292 35.5849675 9.16274479 35.7580135 10.9221767 35.7580135 12.6816085 35.7580135 13.8003625 35.6880477 14.9191165 35.5481161 16.0378705 35.2388461 18.5105205 34.2329912 20.844294 32.6478502 22.7670457z" transform="translate(5 5)"/>
</svg>
