<?xml version="1.0" encoding="UTF-8"?>
<svg width="56px" height="56px" viewBox="0 0 56 56" version="1.1" xmlns="http://www.w3.org/2000/svg" xmlns:xlink="http://www.w3.org/1999/xlink">
    <!-- Generator: Sketch 52.1 (67048) - http://www.bohemiancoding.com/sketch -->
    <title>thumbs_down</title>
    <desc>Created with Sketch.</desc>
    <g id="Page-1" stroke="none" stroke-width="1" fill="none" fill-rule="evenodd">
        <g id="thumbs_down" transform="translate(5.000000, 5.000000)" fill="#000000">
            <path d="M40.2988846,22.5387514 L39.5913468,22.5387514 C38.0678907,22.5387514 36.8328855,21.3037462 36.8328855,19.78029 C36.8328855,19.535096 36.865577,19.2909964 36.9300961,19.0544432 C37.6090085,16.5650765 37.9484897,14.0757235 37.9484897,11.5863704 C37.9484897,9.27344275 37.6554227,7.10704854 37.0692889,5.08718779 C36.6650958,3.69429463 37.4665917,2.23746627 38.8594838,1.83326949 C39.0973123,1.76425515 39.3437072,1.72922757 39.5913468,1.72922757 L40.4697541,1.72922188 C42.3983164,1.72922188 44.100052,2.99039091 44.6611773,4.83551726 C45.2971633,6.92680514 45.6151563,9.17708953 45.6151563,11.5863704 C45.6151563,14.1753648 45.2479544,16.7643592 44.5135506,19.3533537 C43.9789154,21.2380786 42.2579718,22.5387514 40.2988846,22.5387514 Z" id="Rectangle"></path>
            <path d="M32.6478502,22.7670457 C29.6552005,26.3970841 27.7712867,28.8765415 26.9961087,30.205418 C26.1580931,31.6420161 24.0243032,36.1765908 20.5947388,43.8091421 C20.1116403,44.8842582 18.8484624,45.3641954 17.7733416,44.8811072 C17.5370805,44.774947 17.3221178,44.6266653 17.1389659,44.4435133 L17.2979138,44.6024678 C15.6354986,42.9400526 14.7109037,40.679299 14.7319614,38.3283832 C14.7415029,37.2631481 14.813679,36.2586933 14.9484897,35.3150186 C15.2386476,33.2839133 16.3338857,30.1203956 18.2342039,25.8244657 C15.1479353,26.7116984 12.1720891,27.2508289 9.30666546,27.4418571 L3.49653008,27.8291995 C1.90225205,27.9354847 0.476133059,26.843635 0.162775375,25.2768466 L0.0851162198,24.8885525 C-0.176032855,23.5828071 0.17086886,22.2291646 1.02783863,21.2099626 C1.32732027,20.8537864 1.47706109,20.5665572 1.47706109,20.3482752 C1.47706109,20.0915396 1.39176572,19.8612757 1.221175,19.6574834 L1.22119459,19.657467 C0.891212077,19.2632611 0.710394423,18.765551 0.710394423,18.2514627 L0.710394423,16.9779979 C0.710394423,15.6083612 1.13834645,14.2729519 1.93443161,13.1584326 L5.61224593,8.00949259 C5.99299836,7.47643919 6.29190736,6.88945065 6.49905908,6.2679955 L6.75241326,5.50793264 C7.1165057,4.41565531 7.8959542,3.51061341 8.92216237,2.98856947 C12.2232373,1.30927453 16.0574099,0.469627057 20.4246801,0.469627057 C24.7327364,0.469627057 28.781423,1.54602983 32.5707397,3.69883537 C33.9569706,4.48638986 34.9311576,5.83896386 35.2388755,7.40331292 C35.5849675,9.16274479 35.7580135,10.9221767 35.7580135,12.6816085 C35.7580135,13.8003625 35.6880477,14.9191165 35.5481161,16.0378705 C35.2388461,18.5105205 34.2329912,20.844294 32.6478502,22.7670457 Z" id="Path-2"></path>
        </g>
    </g>
</svg>