<svg xmlns="http://www.w3.org/2000/svg" width="56" height="56" viewBox="0 0 56 56">
  <path fill-rule="evenodd" d="M7.62676852 13.697173L23.8116893 2.36436949C25.62131 1.09725941 28.1154931 1.53705119 29.3826032 3.34667192L31.9345946 6.99127759C31.9722374 7.04503706 32.008051 7.09968053 32.0420331 7.15512259L7.62676852 13.697173zM2.14755093 26.8419789L1.04012075 22.7089932C.468353503 20.5751288 1.73468346 18.381781 3.86854787 17.8100137L44.4374326 6.93961385C46.571297 6.36784661 48.7646448 7.63417656 49.3364121 9.76804098L50.487971 14.0656825C50.8203647 15.3061926 50.378739 16.6252321 49.3664169 17.4155199 47.831807 18.6135413 47.0769885 20.654274 47.6126115 22.6532461 48.1528154 24.6693148 49.8510113 26.0658657 51.7998388 26.3190344 53.0358272 26.4795994 54.0528507 27.3699635 54.3754361 28.5738684L55.5480691 32.9502608C56.1198364 35.0841252 54.8535064 37.277473 52.719642 37.8492403L12.1507573 48.7196402C10.0168929 49.2914074 7.82354508 48.0250775 7.25177783 45.8912131L6.14851996 41.7737356C5.79384145 40.4500574 6.24795808 39.0413913 7.30895102 38.1740881 8.78477916 36.9676799 9.50095891 34.9667546 8.97557842 33.0060079 8.44932642 31.0420087 6.8241255 29.6659396 4.93883222 29.3621146 3.5932034 29.1452594 2.50030308 28.1585309 2.14753518 26.8419832L2.14755093 26.8419789zM37.6251838 20.1529884C39.2255821 19.724163 40.1753296 18.0791521 39.7465042 16.4787538 39.3176787 14.8783555 37.6726679 13.928608 36.0722695 14.3574334 34.4718712 14.7862589 33.5221238 16.4312697 33.9509492 18.031668 34.3797746 19.6320664 36.0247855 20.5818138 37.6251838 20.1529884zM39.6957362 27.880395C41.2961345 27.4515696 42.245882 25.8065587 41.8170565 24.2061604 41.3882311 22.6057621 39.7432202 21.6560146 38.1428219 22.08484 36.5424236 22.5136655 35.5926761 24.1586763 36.0215016 25.7590747 36.450327 27.359473 38.0953379 28.3092204 39.6957362 27.880395zM41.7662885 35.6078016C43.3666868 35.1789762 44.3164343 33.5339653 43.8876089 31.933567 43.4587834 30.3331687 41.8137726 29.3834212 40.2133743 29.8122467 38.612976 30.2410721 37.6632285 31.886083 38.0920539 33.4864813 38.5208794 35.0868796 40.1658902 36.036627 41.7662885 35.6078016z" transform="translate(0 3)"/>
</svg>
