<svg xmlns="http://www.w3.org/2000/svg" width="56" height="56" viewBox="0 0 56 56">
  <path fill-rule="evenodd" d="M1.15774057e-12,8.27878167 L1.15774057e-12,4 C1.15774057e-12,1.790861 1.790861,0 4,0 L46,0 C48.209139,0 50,1.790861 50,4 L50.0000091,8.44924833 C50.0000091,9.73351889 49.2320389,10.8933121 48.0496693,11.3946633 C46.2572792,12.1546768 45,13.9305117 45,16 C45,18.0871878 46.2788772,19.8756779 48.0957752,20.6246137 C49.248091,21.0996049 50.0000171,22.2228557 50.0000171,23.4692297 L50,28 C50,30.209139 48.209139,32 46,32 L4,32 C1.790861,32 1.15774057e-12,30.209139 1.15774057e-12,28 L1.63146304e-05,23.737278 C1.63146304e-05,22.3669055 0.803248902,21.1237726 2.05256398,20.5606272 C3.79034591,19.7772988 5,18.0299143 5,16 C5,13.9667184 3.78632936,12.2169047 2.04391157,11.4354826 C0.800260191,10.8777422 -1.63137641e-05,9.64177216 -1.63137641e-05,8.27878167 L1.15774057e-12,8.27878167 Z M36,11 C37.6568542,11 39,9.65685425 39,8 C39,6.34314575 37.6568542,5 36,5 C34.3431458,5 33,6.34314575 33,8 C33,9.65685425 34.3431458,11 36,11 Z M36,19 C37.6568542,19 39,17.6568542 39,16 C39,14.3431458 37.6568542,13 36,13 C34.3431458,13 33,14.3431458 33,16 C33,17.6568542 34.3431458,19 36,19 Z M36,27 C37.6568542,27 39,25.6568542 39,24 C39,22.3431458 37.6568542,21 36,21 C34.3431458,21 33,22.3431458 33,24 C33,25.6568542 34.3431458,27 36,27 Z" transform="translate(3 12)"/>
</svg>
