<?xml version="1.0" encoding="UTF-8"?>
<svg width="59px" height="50px" viewBox="0 0 59 50" version="1.1" xmlns="http://www.w3.org/2000/svg" xmlns:xlink="http://www.w3.org/1999/xlink">
    <!-- Generator: Sketch 40.1 (33804) - http://www.bohemiancoding.com/sketch -->
    <title>ticket_fill</title>
    <desc>Created with Sketch.</desc>
    <defs></defs>
    <g id="Page-1" stroke="none" stroke-width="1" fill="none" fill-rule="evenodd">
        <g id="ticket_fill" transform="translate(1.000000, 8.000000)" fill="#000000">
            <path d="M58,22.6585886 L58,34 L6.00408612e-13,34 L6.00408612e-13,22.6585886 C0.62555785,22.8796916 1.29872915,23 2,23 C5.3137085,23 8,20.3137085 8,17 C8,13.6862915 5.3137085,11 2,11 C1.29872915,11 0.62555785,11.1203084 6.00186567e-13,11.3414114 L6.00408612e-13,0 L58,0 L58,11.3414114 C57.3744421,11.1203084 56.7012708,11 56,11 C52.6862915,11 50,13.6862915 50,17 C50,20.3137085 52.6862915,23 56,23 C56.7012708,23 57.3744421,22.8796916 58,22.6585886 Z M42,10 C43.1045695,10 44,9.1045695 44,8 C44,6.8954305 43.1045695,6 42,6 C40.8954305,6 40,6.8954305 40,8 C40,9.1045695 40.8954305,10 42,10 Z M42,19 C43.1045695,19 44,18.1045695 44,17 C44,15.8954305 43.1045695,15 42,15 C40.8954305,15 40,15.8954305 40,17 C40,18.1045695 40.8954305,19 42,19 Z M42,28 C43.1045695,28 44,27.1045695 44,26 C44,24.8954305 43.1045695,24 42,24 C40.8954305,24 40,24.8954305 40,26 C40,27.1045695 40.8954305,28 42,28 Z" id="Combined-Shape"></path>
        </g>
    </g>
</svg>