<?xml version="1.0" encoding="UTF-8"?>
<svg width="59px" height="50px" viewBox="0 0 59 50" version="1.1" xmlns="http://www.w3.org/2000/svg" xmlns:xlink="http://www.w3.org/1999/xlink">
    <!-- Generator: Sketch 40.1 (33804) - http://www.bohemiancoding.com/sketch -->
    <title>ticket</title>
    <desc>Created with Sketch.</desc>
    <defs></defs>
    <g id="Page-1" stroke="none" stroke-width="1" fill="none" fill-rule="evenodd">
        <g id="ticket" transform="translate(1.000000, 8.000000)">
            <rect id="Rectangle-94" fill="#000000" x="0" y="0" width="58" height="2"></rect>
            <rect id="Rectangle-94-Copy" fill="#000000" x="0" y="32" width="58" height="2"></rect>
            <rect id="Rectangle-95" fill="#000000" x="56" y="2" width="2" height="11"></rect>
            <rect id="Rectangle-95-Copy" fill="#000000" x="0" y="2" width="2" height="11"></rect>
            <rect id="Rectangle-96" fill="#000000" x="56" y="21" width="2" height="11"></rect>
            <rect id="Rectangle-96-Copy" fill="#000000" x="0" y="21" width="2" height="11"></rect>
            <path d="M56,12 C53.2385763,12 51,14.2385763 51,17 C51,19.7614237 53.2385763,22 56,22 L56,22" id="Oval-46" stroke="#000000" stroke-width="2"></path>
            <path d="M2,22 L2,22 C4.76142375,22 7,19.7614237 7,17 C7,14.2385763 4.76142375,12 2,12" id="Oval-46-Copy" stroke="#000000" stroke-width="2"></path>
            <circle id="Oval-47" fill="#000000" cx="42" cy="8" r="2"></circle>
            <circle id="Oval-47-Copy" fill="#000000" cx="42" cy="17" r="2"></circle>
            <circle id="Oval-47-Copy-2" fill="#000000" cx="42" cy="26" r="2"></circle>
        </g>
    </g>
</svg>