<svg xmlns="http://www.w3.org/2000/svg" width="56" height="56" viewBox="0 0 56 56">
  <g fill-rule="evenodd" transform="translate(0 4)">
    <path d="M7.62676852,12.697173 L23.8116893,1.36436949 C25.62131,0.0972594133 28.1154931,0.537051192 29.3826032,2.34667192 L31.9345946,5.99127759 C31.9722374,6.04503706 32.008051,6.09968053 32.0420331,6.15512259 L7.62676852,12.697173 Z"/>
    <path fill-rule="nonzero" d="M12.8392817,30.9707317 C13.7345421,34.3118889 12.6335656,37.8173288 10.0966624,40.0535953 L10.8566621,42.8900111 C10.9996019,43.4234777 11.5479376,43.7400623 12.0814043,43.5971225 L50.718439,33.2443524 C51.2519037,33.101411 51.5684862,32.5530764 51.4255468,32.0196112 L50.665576,29.1833042 C47.3569489,28.516877 44.6456118,26.0350658 43.7489082,22.6885223 C42.8526501,19.3436417 43.9579209,15.8384941 46.4915306,13.6055811 L45.7315278,10.769243 C45.5885851,10.2357779 45.0402488,9.91919656 44.5067835,10.0621382 L5.86974988,20.414898 C5.33628378,20.5578398 5.01970129,21.1061768 5.1626431,21.6396429 L5.9226543,24.4760433 C9.23742797,25.1441398 11.9439351,27.6292528 12.8392817,30.9707317 Z M1.04012075,21.7089932 C0.468353503,19.5751288 1.73468346,17.381781 3.86854787,16.8100137 L44.4374326,5.93961385 C46.571297,5.36784661 48.7646448,6.63417656 49.3364121,8.76804098 L50.487971,13.0656825 C50.8203647,14.3061926 50.378739,15.6252321 49.3664169,16.4155199 C47.831807,17.6135413 47.0769885,19.654274 47.6126115,21.6532461 C48.1528154,23.6693148 49.8510113,25.0658657 51.7998388,25.3190344 C53.0358272,25.4795994 54.0528507,26.3699635 54.3754361,27.5738684 L55.5480691,31.9502608 C56.1198364,34.0841252 54.8535064,36.277473 52.719642,36.8492403 L12.1507573,47.7196402 C10.0168929,48.2914074 7.82354508,47.0250775 7.25177783,44.8912131 L6.14851996,40.7737356 C5.79384145,39.4500574 6.24795808,38.0413913 7.30895102,37.1740881 C8.78477916,35.9676799 9.50095891,33.9667546 8.97557842,32.0060079 C8.44932642,30.0420087 6.8241255,28.6659396 4.93883222,28.3621146 C3.5932034,28.1452594 2.50030308,27.1585309 2.14753518,25.8419832 L1.04012075,21.7089932 Z M37.6251838,19.1529884 C36.0247855,19.5818138 34.3797746,18.6320664 33.9509492,17.031668 C33.5221238,15.4312697 34.4718712,13.7862589 36.0722695,13.3574334 C37.6726679,12.928608 39.3176787,13.8783555 39.7465042,15.4787538 C40.1753296,17.0791521 39.2255821,18.724163 37.6251838,19.1529884 Z M39.6957362,26.880395 C38.0953379,27.3092204 36.450327,26.359473 36.0215016,24.7590747 C35.5926761,23.1586763 36.5424236,21.5136655 38.1428219,21.08484 C39.7432202,20.6560146 41.3882311,21.6057621 41.8170565,23.2061604 C42.245882,24.8065587 41.2961345,26.4515696 39.6957362,26.880395 Z M41.7662885,34.6078016 C40.1658902,35.036627 38.5208794,34.0868796 38.0920539,32.4864813 C37.6632285,30.886083 38.612976,29.2410721 40.2133743,28.8122467 C41.8137726,28.3834212 43.4587834,29.3331687 43.8876089,30.933567 C44.3164343,32.5339653 43.3666868,34.1789762 41.7662885,34.6078016 Z"/>
  </g>
</svg>
