<?xml version="1.0" encoding="UTF-8"?>
<svg width="56px" height="56px" viewBox="0 0 56 56" version="1.1" xmlns="http://www.w3.org/2000/svg" xmlns:xlink="http://www.w3.org/1999/xlink">
    <!-- Generator: Sketch 52.1 (67048) - http://www.bohemiancoding.com/sketch -->
    <title>tickets</title>
    <desc>Created with Sketch.</desc>
    <g id="Page-1" stroke="none" stroke-width="1" fill="none" fill-rule="evenodd">
        <g id="tickets" transform="translate(0.000000, 3.000000)" fill="#000000">
            <path d="M7.62676852,13.697173 L23.8116893,2.36436949 C25.62131,1.09725941 28.1154931,1.53705119 29.3826032,3.34667192 L31.9345946,6.99127759 C31.9722374,7.04503706 32.008051,7.09968053 32.0420331,7.15512259 L7.62676852,13.697173 Z" id="Path"></path>
            <path d="M12.8392817,31.9707317 C13.7345421,35.3118889 12.6335656,38.8173288 10.0966624,41.0535953 L10.8566621,43.8900111 C10.9996019,44.4234777 11.5479376,44.7400623 12.0814043,44.5971225 L50.718439,34.2443524 C51.2519037,34.101411 51.5684862,33.5530764 51.4255468,33.0196112 L50.665576,30.1833042 C47.3569489,29.516877 44.6456118,27.0350658 43.7489082,23.6885223 C42.8526501,20.3436417 43.9579209,16.8384941 46.4915306,14.6055811 L45.7315278,11.769243 C45.5885851,11.2357779 45.0402488,10.9191966 44.5067835,11.0621382 L5.86974988,21.414898 C5.33628378,21.5578398 5.01970129,22.1061768 5.1626431,22.6396429 L5.9226543,25.4760433 C9.23742797,26.1441398 11.9439351,28.6292528 12.8392817,31.9707317 Z M1.04012075,22.7089932 C0.468353503,20.5751288 1.73468346,18.381781 3.86854787,17.8100137 L44.4374326,6.93961385 C46.571297,6.36784661 48.7646448,7.63417656 49.3364121,9.76804098 L50.487971,14.0656825 C50.8203647,15.3061926 50.378739,16.6252321 49.3664169,17.4155199 C47.831807,18.6135413 47.0769885,20.654274 47.6126115,22.6532461 C48.1528154,24.6693148 49.8510113,26.0658657 51.7998388,26.3190344 C53.0358272,26.4795994 54.0528507,27.3699635 54.3754361,28.5738684 L55.5480691,32.9502608 C56.1198364,35.0841252 54.8535064,37.277473 52.719642,37.8492403 L12.1507573,48.7196402 C10.0168929,49.2914074 7.82354508,48.0250775 7.25177783,45.8912131 L6.14851996,41.7737356 C5.79384145,40.4500574 6.24795808,39.0413913 7.30895102,38.1740881 C8.78477916,36.9676799 9.50095891,34.9667546 8.97557842,33.0060079 C8.44932642,31.0420087 6.8241255,29.6659396 4.93883222,29.3621146 C3.5932034,29.1452594 2.50030308,28.1585309 2.14753518,26.8419832 L1.04012075,22.7089932 Z" id="Shape" fill-rule="nonzero"></path>
            <circle id="Oval" transform="translate(36.848727, 17.255211) rotate(-15.000000) translate(-36.848727, -17.255211) " cx="36.8487267" cy="17.2552109" r="3"></circle>
            <circle id="Oval-Copy-18" transform="translate(38.919279, 24.982618) rotate(-15.000000) translate(-38.919279, -24.982618) " cx="38.919279" cy="24.9826175" r="3"></circle>
            <circle id="Oval-Copy-19" transform="translate(40.989831, 32.710024) rotate(-15.000000) translate(-40.989831, -32.710024) " cx="40.9898314" cy="32.7100241" r="3"></circle>
        </g>
    </g>
</svg>