<svg xmlns="http://www.w3.org/2000/svg" width="56" height="56" viewBox="0 0 56 56">
  <g transform="translate(3 3)">
    <path d="M27,4.0939999 L27,12 C27,13.1045695 26.1045695,14 25,14 C23.8954305,14 23,13.1045695 23,12 L23,2 C23,0.8954305 23.8954305,2.02906125e-16 25,0 C38.8071187,0 50,11.1928813 50,25 C50,38.8071187 38.8071187,50 25,50 C11.1928813,50 0,38.8071187 0,25 C0,17.7736593 3.06600347,11.2634221 7.9681247,6.69917408 C8.01319423,6.65721091 8.06136577,6.61305539 8.11263932,6.56670749 L8.11266657,6.56673763 C8.89918368,5.85577828 10.1131282,5.91702995 10.8240876,6.70354706 C10.8563941,6.73928698 10.8873438,6.77623039 10.9168708,6.81429882 L10.9733749,6.88713994 C11.6153323,7.71479776 11.5099745,8.8975544 10.7318331,9.59871247 C10.5603366,9.75324242 10.4123597,9.89154379 10.2879024,10.0136166 C6.31225793,13.9130911 4,19.2624834 4,25 C4,36.5979797 13.4020203,46 25,46 C36.5979797,46 46,36.5979797 46,25 C46,14.0765882 37.6598646,5.10111941 27,4.0939999 Z"/>
    <path d="M27.0318279,26.9704455 L26.9263293,27.0684085 C25.7121973,28.1958168 23.8140039,28.1255133 22.6865956,26.9113813 C22.6017282,26.8199857 22.522643,26.7233866 22.4498003,26.6221465 L13.3980783,14.0416428 C13.0755222,13.5933393 13.1774606,12.9684342 13.6257641,12.645878 C13.9919265,12.3824227 14.4891413,12.3967291 14.8395497,12.6808022 L26.8797129,22.441662 C28.166759,23.4850595 28.3642752,25.3742573 27.3208777,26.6613034 C27.2319257,26.771027 27.1353354,26.8743314 27.0318279,26.9704455 Z"/>
  </g>
</svg>
