<?xml version="1.0" encoding="UTF-8"?>
<svg width="56px" height="56px" viewBox="0 0 56 56" version="1.1" xmlns="http://www.w3.org/2000/svg" xmlns:xlink="http://www.w3.org/1999/xlink">
    <!-- Generator: Sketch 52.1 (67048) - http://www.bohemiancoding.com/sketch -->
    <title>time_fill</title>
    <desc>Created with Sketch.</desc>
    <g id="Page-1" stroke="none" stroke-width="1" fill="none" fill-rule="evenodd">
        <g id="time_fill" fill="#000000">
            <path d="M28,56 C12.536027,56 0,43.463973 0,28 C0,12.536027 12.536027,0 28,0 C43.463973,0 56,12.536027 56,28 C56,43.463973 43.463973,56 28,56 Z M28,9 C26.8954305,9 26,9.8954305 26,11 L26,32 L30,32 L30,11 C30,9.8954305 29.1045695,9 28,9 Z M14,28 C12.8954305,28 12,28.8954305 12,30 C12,31.1045695 12.8954305,32 14,32 L26,32 L26,28 L14,28 Z" id="Shape"></path>
        </g>
    </g>
</svg>