<svg xmlns="http://www.w3.org/2000/svg" width="56" height="56" viewBox="0 0 56 56">
  <g fill-rule="evenodd">
    <path fill-rule="nonzero" d="M28,52 C41.254834,52 52,41.254834 52,28 C52,14.745166 41.254834,4 28,4 C14.745166,4 4,14.745166 4,28 C4,41.254834 14.745166,52 28,52 Z M28,56 C12.536027,56 0,43.463973 0,28 C0,12.536027 12.536027,0 28,0 C43.463973,0 56,12.536027 56,28 C56,43.463973 43.463973,56 28,56 Z"/>
    <path d="M28 9C29.1045695 9 30 9.8954305 30 11L30 32 26 32 26 11C26 9.8954305 26.8954305 9 28 9zM14 28L26 28 26 32 14 32C12.8954305 32 12 31.1045695 12 30 12 28.8954305 12.8954305 28 14 28z"/>
  </g>
</svg>
