<svg xmlns="http://www.w3.org/2000/svg" width="56" height="56" viewBox="0 0 56 56">
  <path fill-rule="evenodd" d="M25,50 C11.1928813,50 0,38.8071187 0,25 C0,11.1928813 11.1928813,0 25,0 C38.8071187,0 50,11.1928813 50,25 C50,38.8071187 38.8071187,50 25,50 Z M24.1779882,4.01579297 C24.1202283,4.00541653 24.0607467,4 24,4 C23.4477153,4 23,4.44771525 23,5 L23,15 C23,15.5522847 23.4477153,16 24,16 C24.5522847,16 25,15.5522847 25,15 L25,6 C35.4934102,6 44,14.5065898 44,25 C44,35.4934102 35.4934102,44 25,44 C14.5065898,44 6,35.4934102 6,25 C6,19.7626617 8.13028539,14.8783123 11.7944287,11.3386739 C11.936938,11.201007 12.1219108,11.0319917 12.3493471,10.8316281 C12.751196,10.477613 12.8028122,9.86985813 12.4664207,9.45314483 L12.4470366,9.42913321 C12.4386199,9.41870682 12.4299882,9.40845585 12.421147,9.39838691 C12.0674852,8.99561333 11.4542732,8.95580035 11.0514996,9.30946214 L11.0515207,9.30948615 C10.8133641,9.51860336 10.6190996,9.69524626 10.4687271,9.83941484 C6.48204946,13.6616153 4,19.0409508 4,25 C4,36.5979797 13.4020203,46 25,46 C36.5979797,46 46,36.5979797 46,25 C46,13.4020203 36.5979797,4 25,4 C24.7247269,4 24.4506909,4.00529644 24.1779882,4.01579297 Z M27.0318279,26.9704455 C27.1353354,26.8743314 27.2319257,26.771027 27.3208777,26.6613034 C28.3642752,25.3742573 28.166759,23.4850595 26.8797129,22.441662 L14.8395497,12.6808022 C14.4891413,12.3967291 13.9919265,12.3824227 13.6257641,12.645878 C13.1774606,12.9684342 13.0755222,13.5933393 13.3980783,14.0416428 L22.4498003,26.6221465 C22.522643,26.7233866 22.6017282,26.8199857 22.6865956,26.9113813 C23.8140039,28.1255133 25.7121973,28.1958168 26.9263293,27.0684085 L27.0318279,26.9704455 Z" transform="translate(3 3)"/>
</svg>
