<?xml version="1.0" encoding="UTF-8"?>
<svg width="56px" height="56px" viewBox="0 0 56 56" version="1.1" xmlns="http://www.w3.org/2000/svg" xmlns:xlink="http://www.w3.org/1999/xlink">
    <!-- Generator: Sketch 52.1 (67048) - http://www.bohemiancoding.com/sketch -->
    <title>today_fill</title>
    <desc>Created with Sketch.</desc>
    <g id="Page-1" stroke="none" stroke-width="1" fill="none" fill-rule="evenodd">
        <g id="today_fill" transform="translate(10.000000, 6.000000)" fill="#000000">
            <path d="M4,0 L32,0 C34.209139,-4.05812251e-16 36,1.790861 36,4 L36,40 C36,42.209139 34.209139,44 32,44 L4,44 C1.790861,44 2.705415e-16,42.209139 0,40 L0,4 C-2.705415e-16,1.790861 1.790861,4.05812251e-16 4,0 Z M8,14 C6.8954305,14 6,14.8954305 6,16 L6,36 C6,37.1045695 6.8954305,38 8,38 L28,38 C29.1045695,38 30,37.1045695 30,36 L30,16 C30,14.8954305 29.1045695,14 28,14 L8,14 Z M8,6 C6.8954305,6 6,6.8954305 6,8 C6,9.1045695 6.8954305,10 8,10 L16,10 C17.1045695,10 18,9.1045695 18,8 C18,6.8954305 17.1045695,6 16,6 L8,6 Z" id="Shape"></path>
        </g>
    </g>
</svg>