<svg xmlns="http://www.w3.org/2000/svg" width="56" height="56" viewBox="0 0 56 56">
  <g fill-rule="evenodd" transform="translate(10 6)">
    <path d="M4,0 L32,0 C34.209139,-4.05812251e-16 36,1.790861 36,4 L36,40 C36,42.209139 34.209139,44 32,44 L4,44 C1.790861,44 2.705415e-16,42.209139 0,40 L0,4 C-2.705415e-16,1.790861 1.790861,4.05812251e-16 4,0 Z M6,4 C4.8954305,4 4,4.8954305 4,6 L4,38 C4,39.1045695 4.8954305,40 6,40 L30,40 C31.1045695,40 32,39.1045695 32,38 L32,6 C32,4.8954305 31.1045695,4 30,4 L6,4 Z"/>
    <rect width="24" height="24" x="6" y="14" rx="2"/>
    <path d="M8,6 L16,6 C17.1045695,6 18,6.8954305 18,8 C18,9.1045695 17.1045695,10 16,10 L8,10 C6.8954305,10 6,9.1045695 6,8 C6,6.8954305 6.8954305,6 8,6 Z"/>
  </g>
</svg>
