<svg xmlns="http://www.w3.org/2000/svg" width="56" height="56" viewBox="0 0 56 56">
  <path fill-rule="evenodd" d="M11,6 L11,4 C11,1.790861 12.790861,4.05812251e-16 15,0 L27,0 C29.209139,-4.05812251e-16 31,1.790861 31,4 L31,6 L40,6 C41.1045695,6 42,6.8954305 42,8 C42,9.1045695 41.1045695,10 40,10 L37.7391304,10 L35.2438924,48.2603165 C35.1067004,50.3639274 33.3604517,52 31.252372,52 L10.747628,52 C8.63954825,52 6.89329961,50.3639274 6.7561076,48.2603165 L4.26086957,10 L2,10 C0.8954305,10 1.3527075e-16,9.1045695 0,8 C-1.3527075e-16,6.8954305 0.8954305,6 2,6 L11,6 Z M15,6 L27,6 L27,4 L15,4 L15,6 Z M21,13 C19.8954305,13 19,13.8954305 19,15 L19,44 C19,45.1045695 19.8954305,46 21,46 C22.1045695,46 23,45.1045695 23,44 L23,15 C23,13.8954305 22.1045695,13 21,13 Z M13,13 C12.9804065,13 12.9608141,13.0002968 12.9412296,13.0008903 C11.8701166,13.0333482 11.0281203,13.9279693 11.0605783,14.9990824 L11.9412296,44.0605783 C11.9739716,45.1410644 12.8593299,46 13.940312,46 L14,46 C14.0195935,46 14.0391859,45.9997032 14.0587704,45.9991097 C15.1298834,45.9666518 15.9718797,45.0720307 15.9394217,44.0009176 L15.0587704,14.9394217 C15.0260284,13.8589356 14.1406701,13 13.059688,13 L13,13 Z M28.940312,13 C27.8593299,13 26.9739716,13.8589356 26.9412296,14.9394217 L26.0605783,44.0009176 C26.0599848,44.0205021 26.059688,44.0400945 26.059688,44.059688 C26.059688,45.1312927 26.9283953,46 28,46 L28.059688,46 C29.1406701,46 30.0260284,45.1410644 30.0587704,44.0605783 L30.9394217,14.9990824 C30.9400152,14.9794979 30.940312,14.9599055 30.940312,14.940312 C30.940312,13.8687073 30.0716047,13 29,13 L28.940312,13 Z" transform="translate(7 2)"/>
</svg>
