<?xml version="1.0" encoding="UTF-8"?>
<svg width="38px" height="50px" viewBox="0 0 38 50" version="1.1" xmlns="http://www.w3.org/2000/svg" xmlns:xlink="http://www.w3.org/1999/xlink">
    <!-- Generator: Sketch 40.1 (33804) - http://www.bohemiancoding.com/sketch -->
    <title>trash_fill</title>
    <desc>Created with Sketch.</desc>
    <defs></defs>
    <g id="Page-1" stroke="none" stroke-width="1" fill="none" fill-rule="evenodd">
        <g id="trash_fill" fill="#000000">
            <path d="M12,8 L10,6 L28,6 L26,8 L26,1.99810135 C26,1.99454066 11.9950893,2 11.9950893,2 C11.9981732,2 12,8 12,8 Z M11.9950893,0 L26.0049107,0 C27.1067681,0 28,0.886706352 28,1.99810135 L28,8 L10,8 L10,1.99810135 C10,0.894580447 10.8926228,0 11.9950893,0 Z" id="Rectangle-16"></path>
            <rect id="Rectangle-12" x="0" y="6" width="38" height="2"></rect>
            <path d="M2,6 L36,6 L33.3663748,47.0102936 C33.2603389,48.6614628 31.8281718,50 30.1719546,50 L6.85892955,50 C5.7596546,50 4.80991663,49.1011449 4.73780811,47.9950767 L2,6 Z M10.0022148,13.066519 L12.0022148,43.066519 L13.9977852,42.933481 L11.9977852,12.933481 L10.0022148,13.066519 Z M27.9977852,13.066519 L25.9977852,43.066519 L24.0022148,42.933481 L26.0022148,12.933481 L27.9977852,13.066519 Z M18,13 L18,43 L20,43 L20,13 L18,13 Z" id="Combined-Shape"></path>
        </g>
    </g>
</svg>