<?xml version="1.0" encoding="UTF-8"?>
<svg width="38px" height="50px" viewBox="0 0 38 50" version="1.1" xmlns="http://www.w3.org/2000/svg" xmlns:xlink="http://www.w3.org/1999/xlink">
    <!-- Generator: Sketch 40.1 (33804) - http://www.bohemiancoding.com/sketch -->
    <title>trash</title>
    <desc>Created with Sketch.</desc>
    <defs></defs>
    <g id="Page-1" stroke="none" stroke-width="1" fill="none" fill-rule="evenodd">
        <g id="trash">
            <path d="M12,8 L10,6 L28,6 L26,8 L26,1.99810135 C26,1.99454066 11.9950893,2 11.9950893,2 C11.9981732,2 12,8 12,8 Z M11.9950893,0 L26.0049107,0 C27.1067681,0 28,0.886706352 28,1.99810135 L28,8 L10,8 L10,1.99810135 C10,0.894580447 10.8926228,0 11.9950893,0 Z" id="Rectangle-16" fill="#000000"></path>
            <rect id="Rectangle-12" fill="#000000" x="0" y="6" width="38" height="2"></rect>
            <path d="M2.1303871,8 L2.12190471,7.86988911 L3.87385859,6 L4.00424569,6 L6.73357141,47.8649658 C6.73739522,47.9236189 6.81817118,48 6.85892955,48 L30.1719546,48 C30.7751306,48 31.3321625,47.4788881 31.3704861,46.8821203 L33.9958802,6 L34.1243175,6 L35.8797938,7.87182675 L35.8715627,8 L2.1303871,8 Z M36,6 L33.3663748,47.0102936 C33.2603389,48.6614628 31.8281718,50 30.1719546,50 L6.85892955,50 C5.7596546,50 4.80991663,49.1011449 4.73780811,47.9950767 L2,6 L36,6 Z" id="Rectangle-14" fill="#000000"></path>
            <path d="M11,13 L13,43" id="Line" stroke="#000000" stroke-width="2" stroke-linecap="square"></path>
            <path d="M25,13 L27,43" id="Line-Copy-2" stroke="#000000" stroke-width="2" stroke-linecap="square" transform="translate(26.000000, 28.000000) scale(-1, 1) translate(-26.000000, -28.000000) "></path>
            <path d="M19,13 L19,43" id="Line" stroke="#000000" stroke-width="2" stroke-linecap="square"></path>
        </g>
    </g>
</svg>