<svg xmlns="http://www.w3.org/2000/svg" width="56" height="56" viewBox="0 0 56 56">
  <path d="M33.7306328,10 L8.26936716,10 L10.747628,48 L31.252372,48 L33.7306328,10 Z M11,6 L11,4 C11,1.790861 12.790861,4.05812251e-16 15,0 L27,0 C29.209139,-4.05812251e-16 31,1.790861 31,4 L31,6 L40,6 C41.1045695,6 42,6.8954305 42,8 C42,9.1045695 41.1045695,10 40,10 L37.7391304,10 L35.2438924,48.2603165 C35.1067004,50.3639274 33.3604517,52 31.252372,52 L10.747628,52 C8.63954825,52 6.89329961,50.3639274 6.7561076,48.2603165 L4.26086957,10 L2,10 C0.8954305,10 1.3527075e-16,9.1045695 0,8 C-1.3527075e-16,6.8954305 0.8954305,6 2,6 L11,6 Z M15,6 L27,6 L27,4 L15,4 L15,6 Z M21,13 C22.1045695,13 23,13.8954305 23,15 L23,44 C23,45.1045695 22.1045695,46 21,46 C19.8954305,46 19,45.1045695 19,44 L19,15 C19,13.8954305 19.8954305,13 21,13 Z M13,13 L13.1175424,13 C14.1751244,13 15.0499009,13.8233648 15.1138794,14.8790099 L16.8790099,44.003663 C16.9419037,45.0414115 16.1516279,45.9336584 15.1138794,45.9965523 C15.0759631,45.9988502 15.0379859,46 15,46 L14.8824576,46 C13.8248756,46 12.9500991,45.1766352 12.8861206,44.1209901 L11.1209901,14.996337 C11.0580963,13.9585885 11.8483721,13.0663416 12.8861206,13.0034477 C12.9240369,13.0011498 12.9620141,13 13,13 Z M28.8824576,13 L29,13 C30.0396526,13 30.8824576,13.842805 30.8824576,14.8824576 C30.8824576,14.9204435 30.8813078,14.9584207 30.8790099,14.996337 L29.1138794,44.1209901 C29.0499009,45.1766352 28.1751244,46 27.1175424,46 L27,46 C25.9603474,46 25.1175424,45.157195 25.1175424,44.1175424 C25.1175424,44.0795565 25.1186922,44.0415793 25.1209901,44.003663 L26.8861206,14.8790099 C26.9500991,13.8233648 27.8248756,13 28.8824576,13 Z" transform="translate(7 2)"/>
</svg>
