<svg xmlns="http://www.w3.org/2000/svg" width="56" height="56" viewBox="0 0 56 56">
  <path fill-rule="evenodd" d="M23.7995161,33.237212 C22.8827552,36.6642681 22.8582769,39.5223497 23.7260815,41.8114566 C25.3211673,46.0189967 30.9253679,47.2299094 31.1896308,48.3333333 C31.4538936,49.4367572 23.7260815,50 19.3584841,50 C14.9908867,50 9.63414634,49.1666667 9.63414634,48.3333333 C9.63414634,47.5 14.7182622,46.3942237 16.2626668,41.7337812 C17.1633095,39.0159745 17.0646033,35.8952829 15.9665483,32.3717064 C15.7033823,32.4546836 15.4188624,32.5 15.1219512,32.5 C13.9307102,32.5 12.938932,31.7705399 12.7254535,30.8060427 C11.9030138,31.3457935 10.8734253,31.6666667 9.75609756,31.6666667 C7.34625263,31.6666667 5.3445494,30.1740425 4.94900906,28.212104 C4.61594675,28.291109 4.26496577,28.3333333 3.90243902,28.3333333 C1.74718146,28.3333333 0,26.8409492 0,25 C0,23.7570715 0.796428412,22.6730314 1.97716129,22.0999024 C1.37001725,21.7209602 0.975609756,21.1081558 0.975609756,20.4166667 C0.975609756,20.1765785 1.02315597,19.9459759 1.1106444,19.7313538 C0.442075435,19.4341122 0,18.9190006 0,18.3333333 C0,17.6061514 0.681523102,16.9877413 1.6319129,16.7600848 C0.636508119,16.1490063 0,15.2142739 0,14.1666667 C0,12.5043431 1.60264769,11.1262243 3.69879747,10.8744393 C3.2118856,10.2705402 2.92682927,9.53870465 2.92682927,8.75 C2.92682927,6.67893219 4.89240842,5 7.31707317,5 C7.56140306,5 7.80107126,5.01704837 8.03453627,5.04982843 C8.62044436,3.56736823 10.2618531,2.5 12.195122,2.5 C12.7319244,2.5 13.2462249,2.58229221 13.7216759,2.732913 C14.0526907,1.17853613 15.6457043,0 17.5609756,0 C19.5189239,0 21.140093,1.23164263 21.4205126,2.83736991 C22.1362881,2.1209301 23.2011593,1.66666667 24.3902439,1.66666667 C26.5455015,1.66666667 28.2926829,3.15905083 28.2926829,5 C28.2926829,5.62046086 28.0942183,6.20132775 27.7485553,6.69881066 C27.9263744,6.6776211 28.108031,6.66666667 28.2926829,6.66666667 C30.299433,6.66666667 31.9524063,7.9604718 32.1706739,9.62478869 C32.7501612,9.33364316 33.4254224,9.16666667 34.1463415,9.16666667 C36.301599,9.16666667 38.0487805,10.6590508 38.0487805,12.5 C38.0487805,13.7550111 37.2367925,14.8480296 36.0370767,15.4166667 C37.2367925,15.9853037 38.0487805,17.0783222 38.0487805,18.3333333 C38.0487805,19.4237734 37.435784,20.3919198 36.4880791,21.0000681 C36.8554706,21.4178867 37.0731707,21.9372276 37.0731707,22.5 C37.0731707,22.715591 37.0412219,22.9248082 36.9811478,23.1243857 C38.7814331,23.9771682 40,25.6170313 40,27.5 C40,30.2614237 37.3792278,32.5 34.1463415,32.5 C33.3058931,32.5 32.5068136,32.348709 31.7843942,32.0762716 C30.8984996,32.8518123 29.6614246,33.3333333 28.2926829,33.3333333 C27.1818725,33.3333333 26.1577808,33.0161925 25.33774,32.4821321 C24.9180577,32.8395507 24.3900887,33.104251 23.7995161,33.237212 L23.7995161,33.237212 Z" transform="translate(8 3)"/>
</svg>
