<svg xmlns="http://www.w3.org/2000/svg" width="56" height="56" viewBox="0 0 56 56">
  <path d="M14.9242064,15.3584287 C14.9307029,18.8250905 14.9350277,21.1321036 14.9371808,22.2794679 C14.9533668,30.9048706 14.9366634,35.6417838 14.8754739,37.2205222 C14.6921379,41.9507378 13.3099374,43.4941023 11.4621867,45.2362267 C9.66405613,46.9315676 7.05604291,47.4005236 4.75072655,46.9156721 C2.61841151,46.467206 0.981198343,45.3088158 0.483973945,43.436704 C-0.387841742,40.1542093 1.45234554,37.2251001 4.65937019,36.226969 C5.11071293,36.0864964 5.8393837,35.9215188 6.84538252,35.7320363 C9.52123753,35.2511018 11.3826618,34.7493575 12.4296552,34.2268036 L13.3227931,36.016302 C12.8253193,36.264591 12.3741328,36.4674758 11.929183,36.6391302 C11.9247348,36.5497493 11.9219742,36.5 11.9219742,36.5 C11.9219742,36.5 11.9126885,36.5010544 11.8947122,36.5031498 C11.9397595,34.3377349 11.9515461,29.9365272 11.9371843,22.283221 C11.9318615,19.4467049 11.9231352,16.4243514 11.9119513,13.3323767 C11.9051845,11.4616153 11.8979345,9.67998868 11.8906845,8.0468852 C11.888147,7.47531243 11.8865762,7.13385232 11.8836764,6.51778457 C11.8815017,6.06504553 11.8815017,6.06504553 11.8810175,5.96836157 C11.8760758,4.92018459 12.6642691,3.98433504 13.6926613,3.81154665 L35.2832164,0.183945007 C36.4229385,-0.00754879703 37.4295396,0.826485484 37.4395776,1.98908902 L37.7145699,33.0965965 C37.7178534,33.1400663 37.7222048,33.2132491 37.7263715,33.3131559 C37.7737732,34.449721 37.6921211,35.773886 37.371604,37.0617294 C37.2029266,37.7394782 36.9748332,38.3621148 36.6772961,38.9175158 C35.6089248,40.9118035 33.3004084,42.3002441 31.1608943,42.7404781 C27.9552247,43.4000882 24.0067935,42.0814188 22.9086479,39.4339015 C21.7572852,36.6580831 23,33.0965965 27.9450788,31.3483375 C28.2973849,31.223785 28.641676,31.1057002 29.0042808,31.0207584 C29.4839038,30.9084047 32.6817944,30.3313227 34.53,29.7685141 C34.6581684,29.7294847 34.6628743,24.0824829 34.5441176,12.8275085 L34.5440776,12.8275089 C34.5382507,12.275277 34.0858547,11.8323282 33.5336228,11.8381551 C33.4898049,11.8386174 33.4460648,11.8419595 33.4026854,11.8481598 L15.7826721,14.3666607 C15.2893737,14.4371686 14.9232726,14.8601178 14.9242064,15.3584287 Z M34.4488981,33.9764817 C34.4483508,33.9144645 34.4420352,33.8526327 34.430033,33.7917854 C34.3231539,33.2499411 33.7972596,32.8973322 33.2554152,33.0042113 L30.4212587,33.5632507 C29.9676843,33.620531 29.6492886,33.6706653 29.4660717,33.7136535 C29.258298,33.7624034 29.0610182,33.8301748 28.8591458,33.9016583 C26.0256009,34.9050222 25.3135216,36.9490371 25.9732559,38.5421398 C26.6024966,40.0616078 28.8649594,40.8184209 30.7018177,40.4398563 C31.9277656,40.1871964 33.2505524,39.3903401 33.8627324,38.2457748 C34.033222,37.9270181 34.1639202,37.5696734 34.2605729,37.1806985 C34.4442301,36.4415771 34.491017,35.6816099 34.4638557,35.0293104 C34.4614682,34.9719717 34.4589748,34.9299705 34.4570933,34.9050222 L34.4488981,33.9764817 Z M11.6523401,38.1771902 C11.6535042,38.1025083 11.6462977,38.027931 11.6308553,37.9548538 C11.5166699,37.4145 10.9860611,37.0690222 10.4457073,37.1832076 L7.43226232,37.82 C6.59217211,38.0337872 6.04281664,38.180991 5.78419591,38.2616113 C3.94656121,38.8344605 2.89212841,40.5155402 3.3916814,42.3994355 C3.67659246,43.4738813 4.61472049,44.1387067 5.83654337,44.3960912 C7.15749653,44.6743581 8.65189588,44.405214 9.68223009,43.4322209 C10.7409967,42.4323777 11.5330017,41.5466071 11.6380538,38.8318332 C11.6426109,38.7140686 11.647373,38.4958543 11.6523401,38.1771902 Z M15,7.3494841 L15,9.83466097 C15,10.3869457 15.4477153,10.834661 16,10.834661 C16.0508308,10.834661 16.1015875,10.8307853 16.151829,10.8230677 L33.681829,8.1302874 C34.1697645,8.05533572 34.53,7.63553921 34.53,7.14188063 L34.53,4.47718507 C34.53,3.92490032 34.0822847,3.47718507 33.53,3.47718507 C33.4758344,3.47718507 33.4217584,3.48158592 33.3683056,3.49034419 L15.8383056,6.36264321 C15.354876,6.4418534 15,6.85960809 15,7.3494841 Z" transform="translate(9 4)"/>
</svg>
