<svg xmlns="http://www.w3.org/2000/svg" width="56" height="56" viewBox="0 0 56 56">
  <path d="M14.9242064,15.3584287 C14.9307029,18.8250905 14.9350277,21.1321036 14.9371808,22.2794679 C14.9533668,30.9048706 14.9366634,35.6417838 14.8754739,37.2205222 C14.6921379,41.9507378 13.3099374,43.4941023 11.4621867,45.2362267 C9.66405613,46.9315676 7.05604291,47.4005236 4.75072655,46.9156721 C2.61841151,46.467206 0.981198343,45.3088158 0.483973945,43.436704 C-0.387841742,40.1542093 1.45234554,37.2251001 4.65937019,36.226969 C5.33638429,36.01626 5.99555393,35.8721267 6.84538252,35.7320363 C7.04212996,35.6996034 7.21927926,35.6718765 7.53556186,35.6234178 C9.83478217,35.2711461 10.859165,35.0106345 12.4296552,34.2268036 L13.3227931,36.016302 C12.8253193,36.264591 12.3741328,36.4674758 11.929183,36.6391302 C11.9247348,36.5497493 11.9219742,36.5 11.9219742,36.5 C11.9219742,36.5 11.9126885,36.5010544 11.8947122,36.5031498 C11.9397595,34.3377349 11.9515461,29.9365272 11.9371843,22.283221 C11.9318615,19.4467049 11.9231352,16.4243514 11.9119513,13.3323767 C11.9051845,11.4616153 11.8979345,9.67998868 11.8906845,8.0468852 C11.888147,7.47531243 11.8865762,7.13385232 11.8836764,6.51778457 C11.8815017,6.06504553 11.8815017,6.06504553 11.8810175,5.96836157 C11.8760758,4.92018459 12.6642691,3.98433504 13.6926613,3.81154665 L35.2832164,0.183945007 C36.4229385,-0.00754879703 37.4295396,0.826485484 37.4395776,1.98908902 L37.7145699,33.0965965 C37.7178534,33.1400663 37.7222048,33.2132491 37.7263715,33.3131559 C37.7737732,34.449721 37.6921211,35.773886 37.371604,37.0617294 C37.2029266,37.7394782 36.9748332,38.3621148 36.6772961,38.9175158 C35.6089248,40.9118035 33.3004084,42.3002441 31.1608943,42.7404781 C27.9552247,43.4000882 24.0067935,42.0814188 22.9086479,39.4339015 C21.7572852,36.6580831 23,33.0965965 27.9450788,31.3483375 C28.1799495,31.2653025 28.5330169,31.1561095 29.0042808,31.0207584 C31.4559566,30.5611346 33.297863,30.1437198 34.53,29.7685141 C34.6581684,29.7294847 34.6628743,24.0824829 34.5441176,12.8275085 C34.5382507,12.275277 34.0858547,11.8323282 33.5336228,11.8381551 C33.4898049,11.8386174 33.4460648,11.8419595 33.4026854,11.8481598 L15.7826721,14.3666607 C15.2893737,14.4371686 14.9232726,14.8601178 14.9242064,15.3584287 Z" transform="translate(9 4)"/>
</svg>
