<svg xmlns="http://www.w3.org/2000/svg" width="56" height="56" viewBox="0 0 56 56">
  <path d="M11,11.986039 L6.98603897,11.986039 L10.7713203,15.7713203 C11.5523689,16.5523689 11.5523689,17.8186989 10.7713203,18.5997475 C9.99027176,19.3807961 8.7239418,19.3807961 7.94289322,18.5997475 L0.871825407,11.5286797 C0.793294644,11.4501489 0.72265978,11.3667122 0.659920815,11.2793562 C0.364021679,10.9306561 0.185533906,10.4791916 0.185533906,9.98603897 C0.185533906,9.40827142 0.430526006,8.88772484 0.822292696,8.52261675 C0.838438983,8.50529793 0.854949887,8.48819586 0.871825407,8.47132034 L7.94289322,1.40025253 C8.7239418,0.619203948 9.99027176,0.619203948 10.7713203,1.40025253 C11.5523689,2.18130112 11.5523689,3.44763107 10.7713203,4.22867966 L7.01396103,7.98603897 L22.1855339,7.98603897 C22.2659143,7.98603897 22.3451872,7.9907808 22.4230882,8 L27,8 C35.836556,8 43,15.163444 43,24 C43,32.836556 35.836556,40 27,40 L4.00359486,40 C2.89703997,40 2,39.1122704 2,38 C2,36.8954305 2.88976324,36 4.00359486,36 L27,36 C33.627417,36 39,30.627417 39,24 C39,17.372583 33.627417,12 27,12 L11,12 L11,11.986039 Z" transform="translate(7 8)"/>
</svg>
