<?xml version="1.0" encoding="UTF-8"?>
<svg width="42px" height="50px" viewBox="0 0 42 50" version="1.1" xmlns="http://www.w3.org/2000/svg" xmlns:xlink="http://www.w3.org/1999/xlink">
    <!-- Generator: Sketch 40.1 (33804) - http://www.bohemiancoding.com/sketch -->
    <title>unlock_fill</title>
    <desc>Created with Sketch.</desc>
    <defs></defs>
    <g id="Page-1" stroke="none" stroke-width="1" fill="none" fill-rule="evenodd">
        <g id="unlock_fill">
            <path d="M22,36.8999819 C24.2822403,36.4367116 26,34.4189579 26,32 C26,29.2385763 23.7614237,27 21,27 C18.2385763,27 16,29.2385763 16,32 C16,34.4189579 17.7177597,36.4367116 20,36.8999819 L20,42 L22,42 L22,36.8999819 Z M0,21.9940646 C0,19.2359189 2.24325385,17 5.00365614,17 L36.9963439,17 C39.7597868,17 42,19.2422798 42,21.9940646 L42,45.0059354 C42,47.7640811 39.7567461,50 36.9963439,50 L5.00365614,50 C2.24021316,50 0,47.7577202 0,45.0059354 L0,21.9940646 Z" id="Combined-Shape" fill="#000000"></path>
            <g id="Group-5" transform="translate(10.000000, 0.000000)">
                <path d="M21,11 C21,5.4771525 16.5228475,1 11,1 C5.4771525,1 1,5.4771525 1,11" id="Oval-36" stroke="#000000" stroke-width="2"></path>
                <rect id="Rectangle-64" fill="#000000" x="0" y="10.9000244" width="2" height="7.13942117"></rect>
            </g>
        </g>
    </g>
</svg>