<?xml version="1.0" encoding="UTF-8"?>
<svg width="42px" height="50px" viewBox="0 0 42 50" version="1.1" xmlns="http://www.w3.org/2000/svg" xmlns:xlink="http://www.w3.org/1999/xlink">
    <!-- Generator: Sketch 40.1 (33804) - http://www.bohemiancoding.com/sketch -->
    <title>unlock</title>
    <desc>Created with Sketch.</desc>
    <defs></defs>
    <g id="Page-1" stroke="none" stroke-width="1" fill="none" fill-rule="evenodd">
        <g id="unlock">
            <path d="M2,45.0059354 C2,46.654882 3.34651678,48 5.00365614,48 L36.9963439,48 C38.6542724,48 40,46.6574156 40,45.0059354 L40,21.9940646 C40,20.345118 38.6534832,19 36.9963439,19 L5.00365614,19 C3.34572759,19 2,20.3425844 2,21.9940646 L2,45.0059354 Z M5.00365614,17 L36.9963439,17 C39.7597868,17 42,19.2422798 42,21.9940646 L42,45.0059354 C42,47.7640811 39.7567461,50 36.9963439,50 L5.00365614,50 C2.24021316,50 0,47.7577202 0,45.0059354 L0,21.9940646 C0,19.2359189 2.24325385,17 5.00365614,17 Z" id="Rectangle-46" fill="#000000"></path>
            <path d="M24,32 C24,30.3431458 22.6568542,29 21,29 C19.3431458,29 18,30.3431458 18,32 C18,33.6568542 19.3431458,35 21,35 C22.6568542,35 24,33.6568542 24,32 Z M16,32 C16,29.2385763 18.2385763,27 21,27 C23.7614237,27 26,29.2385763 26,32 C26,34.7614237 23.7614237,37 21,37 C18.2385763,37 16,34.7614237 16,32 Z" id="Oval-24" fill="#000000"></path>
            <rect id="Rectangle-63" fill="#000000" x="20" y="36" width="2" height="6"></rect>
            <g id="Group-5" transform="translate(10.000000, 0.000000)">
                <path d="M21,11 C21,5.4771525 16.5228475,1 11,1 C5.4771525,1 1,5.4771525 1,11" id="Oval-36" stroke="#000000" stroke-width="2"></path>
                <rect id="Rectangle-64" fill="#000000" x="0" y="10.9000244" width="2" height="7.13942117"></rect>
            </g>
        </g>
    </g>
</svg>