<svg xmlns="http://www.w3.org/2000/svg" width="56" height="56" viewBox="0 0 56 56">
  <path fill-rule="evenodd" d="M19.0273967,36.6681969 C19.0093774,36.7761174 19,36.8869636 19,37 L19,41 C19,42.1045695 19.8954305,43 21,43 C22.1045695,43 23,42.1045695 23,41 L23,37 C23,36.8869636 22.9906226,36.7761174 22.9726033,36.6681969 C25.317288,35.8523093 27,33.6226639 27,31 C27,27.6862915 24.3137085,25 21,25 C17.6862915,25 15,27.6862915 15,31 C15,33.6226639 16.682712,35.8523093 19.0273967,36.6681969 Z M10,18 L10,11 C10,4.92486775 14.9248678,-7.10542736e-15 21,-7.10542736e-15 C26.37995,-7.10542736e-15 30.8578249,3.86224291 31.8121912,8.96529532 C31.986695,9.89837708 31.371746,10.7962525 30.4386642,10.9707563 C30.3344705,10.9902425 30.2286975,11.0000482 30.1226972,11.0000482 L29.7646918,11.0000146 C28.8102279,11.0000146 27.9887699,10.3255795 27.8029471,9.38937905 C27.7708996,9.22791928 27.7364393,9.08641776 27.6995664,8.96487448 C26.8278476,6.09145091 24.1581661,4 21,4 C17.1340068,4 14,7.13400675 14,11 L14,18 L38,18 C40.209139,18 42,19.790861 42,22 L42,46 C42,48.209139 40.209139,50 38,50 L4,50 C1.790861,50 2.705415e-16,48.209139 0,46 L0,22 C-2.705415e-16,19.790861 1.790861,18 4,18 L10,18 Z" transform="translate(7 3)"/>
</svg>
