<svg xmlns="http://www.w3.org/2000/svg" width="56" height="56" viewBox="0 0 56 56">
  <path fill-rule="evenodd" d="M28,56 C12.536027,56 0,43.463973 0,28 C0,12.536027 12.536027,0 28,0 C43.463973,0 56,12.536027 56,28 C56,43.463973 43.463973,56 28,56 Z M31.9151618,33.0003314 L31.9151618,17.8145449 L35.582592,21.4819751 C36.3659285,22.2653117 37.6286679,22.2726117 38.4151618,21.4861178 C39.1962104,20.7050692 39.1950581,19.437587 38.4110191,18.653548 L31.3482367,11.5907656 C30.9406253,11.1831542 30.4032073,10.9856679 29.8706284,11.0008087 C29.7763476,11.002832 29.6837626,11.0112653 29.5932839,11.0256854 C29.1870959,11.0888457 28.7961909,11.2771912 28.4826164,11.5907656 L21.419834,18.653548 C20.6364975,19.4368845 20.6291974,20.6996239 21.4156913,21.4861178 C22.1967399,22.2671664 23.4642222,22.2660141 24.2482611,21.4819751 L27.9151618,17.8150744 L27.9151618,33.0003314 C27.9151618,35.7617551 25.6765856,38.0003314 22.9151618,38.0003314 C20.1537381,38.0003314 17.9151618,35.7617551 17.9151618,33.0003314 C17.9151618,30.2389076 20.1537381,28.0003314 22.9151618,28.0003314 C24.0197313,28.0003314 24.9151618,27.1049009 24.9151618,26.0003314 C24.9151618,24.8957619 24.0197313,24.0003314 22.9151618,24.0003314 C17.9445991,24.0003314 13.9151618,28.0297686 13.9151618,33.0003314 C13.9151618,37.9708941 17.9445991,42.0003314 22.9151618,42.0003314 C27.8857246,42.0003314 31.9151618,37.9708941 31.9151618,33.0003314 Z"/>
</svg>
