<?xml version="1.0" encoding="UTF-8"?>
<svg width="56px" height="56px" viewBox="0 0 56 56" version="1.1" xmlns="http://www.w3.org/2000/svg" xmlns:xlink="http://www.w3.org/1999/xlink">
    <!-- Generator: Sketch 52.1 (67048) - http://www.bohemiancoding.com/sketch -->
    <title>videocam</title>
    <desc>Created with Sketch.</desc>
    <g id="Page-1" stroke="none" stroke-width="1" fill="none" fill-rule="evenodd">
        <g id="videocam" transform="translate(8.000000, 16.000000)" fill="#000000" fill-rule="nonzero">
            <path d="M4,6 L4,18 C4,19.1045695 4.8954305,20 6,20 L22,20 C23.1045695,20 24,19.1045695 24,18 L24,6 C24,4.8954305 23.1045695,4 22,4 L6,4 C4.8954305,4 4,4.8954305 4,6 Z M4,0 L24,0 C26.209139,-4.05812251e-16 28,1.790861 28,4 L28,20 C28,22.209139 26.209139,24 24,24 L4,24 C1.790861,24 2.705415e-16,22.209139 0,20 L0,4 C-2.705415e-16,1.790861 1.790861,4.05812251e-16 4,0 Z" id="Shape"></path>
            <path d="M33,9.92249939 L33,14.0775006 C33,14.3812843 33.1380897,14.6685972 33.375305,14.8583694 L35.375305,16.4583694 C35.8065669,16.803379 36.4358593,16.7334576 36.7808688,16.3021957 C36.9227192,16.1248826 37,15.9045721 37,15.6775006 L37,8.32249939 C37,7.77021464 36.5522847,7.32249939 36,7.32249939 C35.7729285,7.32249939 35.552618,7.39978014 35.375305,7.54163058 L33.375305,9.14163058 C33.1380897,9.33140277 33,9.61871567 33,9.92249939 Z M30.7506099,7.39951208 L36.7506099,2.59951208 C37.6131338,1.90949298 38.8717185,2.04933573 39.5617376,2.9118596 C39.8454385,3.2664857 40,3.7071067 40,4.16124969 L40,19.8387503 C40,20.9433198 39.1045695,21.8387503 38,21.8387503 C37.545857,21.8387503 37.105236,21.6841888 36.7506099,21.4004879 L30.7506099,16.6004879 C30.2761794,16.2209436 30,15.6463177 30,15.0387503 L30,8.96124969 C30,8.35368225 30.2761794,7.77905645 30.7506099,7.39951208 Z" id="Shape"></path>
        </g>
    </g>
</svg>