<?xml version="1.0" encoding="UTF-8"?>
<svg width="56px" height="56px" viewBox="0 0 56 56" version="1.1" xmlns="http://www.w3.org/2000/svg" xmlns:xlink="http://www.w3.org/1999/xlink">
    <!-- Generator: Sketch 52.1 (67048) - http://www.bohemiancoding.com/sketch -->
    <title>videocam_round</title>
    <desc>Created with Sketch.</desc>
    <g id="Page-1" stroke="none" stroke-width="1" fill="none" fill-rule="evenodd">
        <g id="videocam_round" fill="#000000" fill-rule="nonzero">
            <path d="M28,52 C41.254834,52 52,41.254834 52,28 C52,14.745166 41.254834,4 28,4 C14.745166,4 4,14.745166 4,28 C4,41.254834 14.745166,52 28,52 Z M28,56 C12.536027,56 0,43.463973 0,28 C0,12.536027 12.536027,0 28,0 C43.463973,0 56,12.536027 56,28 C56,43.463973 43.463973,56 28,56 Z" id="Oval"></path>
            <path d="M15,18 L31,18 C33.209139,18 35,19.790861 35,22 L35,35 C35,37.209139 33.209139,39 31,39 L15,39 C12.790861,39 11,37.209139 11,35 L11,22 C11,19.790861 12.790861,18 15,18 Z" id="Path"></path>
            <path d="M42.6712723,20.958869 C43.4968379,20.225033 44.7609826,20.2993945 45.4948186,21.12496 C45.8202429,21.4910623 46,21.9638594 46,22.4536877 L46,33.5463123 C46,34.6508818 45.1045695,35.5463123 44,35.5463123 C43.5101717,35.5463123 43.0373746,35.3665552 42.6712723,35.041131 L37.6712723,30.5966865 C37.2442956,30.2171516 37,29.6731435 37,29.1018679 L37,26.8981321 C37,26.3268565 37.2442956,25.7828484 37.6712723,25.4033135 L42.6712723,20.958869 Z" id="Path"></path>
        </g>
    </g>
</svg>