<svg xmlns="http://www.w3.org/2000/svg" width="56" height="56" viewBox="0 0 56 56">
  <path d="M28,56 C12.536027,56 0,43.463973 0,28 C0,12.536027 12.536027,0 28,0 C43.463973,0 56,12.536027 56,28 C56,43.463973 43.463973,56 28,56 Z M42.6712723,20.958869 L37.6712723,25.4033135 C37.2442956,25.7828484 37,26.3268565 37,26.8981321 L37,29.1018679 C37,29.6731435 37.2442956,30.2171516 37.6712723,30.5966865 L42.6712723,35.041131 C43.0373746,35.3665552 43.5101717,35.5463123 44,35.5463123 C45.1045695,35.5463123 46,34.6508818 46,33.5463123 L46,22.4536877 C46,21.9638594 45.8202429,21.4910623 45.4948186,21.12496 C44.7609826,20.2993945 43.4968379,20.225033 42.6712723,20.958869 Z M15,18 C12.790861,18 11,19.790861 11,22 L11,35 C11,37.209139 12.790861,39 15,39 L31,39 C33.209139,39 35,37.209139 35,35 L35,22 C35,19.790861 33.209139,18 31,18 L15,18 Z"/>
</svg>
