<?xml version="1.0" encoding="UTF-8"?>
<svg width="59px" height="50px" viewBox="0 0 59 50" version="1.1" xmlns="http://www.w3.org/2000/svg" xmlns:xlink="http://www.w3.org/1999/xlink">
    <!-- Generator: Sketch 40.1 (33804) - http://www.bohemiancoding.com/sketch -->
    <title>videocam</title>
    <desc>Created with Sketch.</desc>
    <defs></defs>
    <g id="Page-1" stroke="none" stroke-width="1" fill="none" fill-rule="evenodd">
        <g id="videocam" transform="translate(0.000000, 7.000000)">
            <path d="M2,29.9946773 C2,32.2147028 3.78554558,34 5.99770599,34 L34.502294,34 C36.707536,34 38.5,32.205966 38.5,29.9946773 L38.5,6.00532266 C38.5,3.7852972 36.7144544,2 34.502294,2 L5.99770599,2 C3.79246398,2 2,3.79403396 2,6.00532266 L2,29.9946773 Z M5.99770599,0 L34.502294,0 C37.8147356,0 40.5,2.67643992 40.5,6.00532266 L40.5,29.9946773 C40.5,33.3113255 37.811317,36 34.502294,36 L5.99770599,36 C2.68526444,36 0,33.3235601 0,29.9946773 L0,6.00532266 C0,2.68867454 2.68868299,0 5.99770599,0 Z" id="Rectangle-56" fill="#000000"></path>
            <path d="M45.3731528,10.996258 C44.8909238,11.274467 44.5,11.9474894 44.5,12.4985023 L44.5,23.5014977 C44.5,24.0529553 44.8890642,24.7244601 45.3731528,25.003742 L56.6268472,31.496258 C57.1090762,31.774467 57.5,31.5601869 57.5,31.0034652 L57.5,4.99653482 C57.5,4.44616384 57.1109358,4.2244601 56.6268472,4.50374199 L45.3731528,10.996258 Z" id="Path-21" stroke="#000000" stroke-width="2"></path>
        </g>
    </g>
</svg>