<?xml version="1.0" encoding="UTF-8"?>
<svg width="50px" height="50px" viewBox="0 0 50 50" version="1.1" xmlns="http://www.w3.org/2000/svg" xmlns:xlink="http://www.w3.org/1999/xlink">
    <!-- Generator: Sketch 40.1 (33804) - http://www.bohemiancoding.com/sketch -->
    <title>videocam_round</title>
    <desc>Created with Sketch.</desc>
    <defs></defs>
    <g id="Page-1" stroke="none" stroke-width="1" fill="none" fill-rule="evenodd">
        <g id="videocam_round">
            <path d="M48,25 C48,12.2974508 37.7025492,2 25,2 C12.2974508,2 2,12.2974508 2,25 C2,37.7025492 12.2974508,48 25,48 C37.7025492,48 48,37.7025492 48,25 Z M0,25 C0,11.1928813 11.1928813,0 25,0 C38.8071187,0 50,11.1928813 50,25 C50,38.8071187 38.8071187,50 25,50 C11.1928813,50 0,38.8071187 0,25 Z" id="Oval-18" fill="#000000"></path>
            <g id="Group-3" transform="translate(10.000000, 16.000000)">
                <path d="M2,14.9938052 C2,16.1066054 2.89184489,17 3.99499768,17 L16.5982227,17 C17.69712,17 18.5932203,16.1018333 18.5932203,14.9938052 L18.5932203,4.00619478 C18.5932203,2.89339455 17.7013755,2 16.5982227,2 L3.99499768,2 C2.89610035,2 2,2.89816666 2,4.00619478 L2,14.9938052 Z M3.99499768,0 L16.5982227,0 C18.804599,0 20.5932203,1.78747387 20.5932203,4.00619478 L20.5932203,14.9938052 C20.5932203,17.2063655 18.8017317,19 16.5982227,19 L3.99499768,19 C1.78862138,19 0,17.2125261 0,14.9938052 L0,4.00619478 C0,1.7936345 1.7914886,0 3.99499768,0 Z" id="Rectangle-56" fill="#000000"></path>
                <path d="M23.8596537,6.08465413 C23.3848801,6.358562 23,7.03158338 23,7.57138617 L23,11.5898302 C23,12.1370218 23.3936768,12.8077294 23.8596537,13.0765623 L28.1403463,15.5461926 C28.6151199,15.8201005 29,15.5973051 29,15.0495526 L29,4.11166377 C29,3.56346922 28.6063232,3.34619094 28.1403463,3.6150238 L23.8596537,6.08465413 Z" id="Path-21" stroke="#000000" stroke-width="2"></path>
            </g>
        </g>
    </g>
</svg>