<?xml version="1.0" encoding="UTF-8"?>
<svg width="59px" height="50px" viewBox="0 0 59 50" version="1.1" xmlns="http://www.w3.org/2000/svg" xmlns:xlink="http://www.w3.org/1999/xlink">
    <!-- Generator: Sketch 40.1 (33804) - http://www.bohemiancoding.com/sketch -->
    <title>videocam</title>
    <desc>Created with Sketch.</desc>
    <defs></defs>
    <g id="Page-1" stroke="none" stroke-width="1" fill="none" fill-rule="evenodd">
        <g id="videocam" transform="translate(0.000000, 7.000000)" fill="#000000">
            <path d="M2,29.9946773 C2,32.2147028 3.78554558,34 5.99770599,34 L34.502294,34 C36.707536,34 38.5,32.205966 38.5,29.9946773 L38.5,6.00532266 C38.5,3.7852972 36.7144544,2 34.502294,2 L5.99770599,2 C3.79246398,2 2,3.79403396 2,6.00532266 L2,29.9946773 Z M5.99770599,0 L34.502294,0 C37.8147356,0 40.5,2.67643992 40.5,6.00532266 L40.5,29.9946773 C40.5,33.3113255 37.811317,36 34.502294,36 L5.99770599,36 C2.68526444,36 0,33.3235601 0,29.9946773 L0,6.00532266 C0,2.68867454 2.68868299,0 5.99770599,0 Z" id="Rectangle-56"></path>
            <path d="M45.5,11.1358358 L45.5,24.7662683 L44.6505993,23.1303828 C44.7205964,23.1796152 44.854522,23.2733819 45.043914,23.405295 C45.3607063,23.6259435 45.7161029,23.8720072 46.1016187,24.1370843 C47.2025701,24.8940883 48.3229783,25.6509052 49.3941567,26.3558484 C49.5778579,26.4767423 49.7587905,26.5952299 49.9367275,26.7111414 C51.3903496,27.6580585 52.5991565,28.4040151 53.4623773,28.8778504 C53.8819664,29.1081693 54.3969411,29.3526697 54.9833125,29.6029005 C55.6729297,29.8971908 56.4201532,30.1824573 57.1684682,30.445703 C57.6173932,30.6036279 57.9633825,30.7179315 58.1911464,30.7899439 C57.4129321,30.5280136 56.5,31.1843397 56.5,32.0018463 L56.5,3.99815369 C56.5,4.79942098 57.3937682,5.45615081 58.1353077,5.21760747 C57.945341,5.275253 57.5983174,5.3861376 57.1480255,5.53967357 C56.3974561,5.79559512 55.6479978,6.07363299 54.9564101,6.36133905 C54.3748701,6.60326434 53.8633973,6.84033237 53.4589401,7.05721186 C52.5957237,7.52884597 51.3842995,8.27280316 49.9263232,9.21770688 C49.7500435,9.3319525 49.5708205,9.44871019 49.3888752,9.56781591 C48.3181491,10.268739 47.197998,11.0212289 46.0971421,11.7739036 C45.7116608,12.037464 45.3562746,12.2821206 45.0394737,12.5015089 C44.8500707,12.6326726 44.7161259,12.7259105 44.6461065,12.774872 L45.5,11.1358358 Z M52.5,5.30209536 C54.4940949,4.23248149 57.5545558,3.30378216 57.5545558,3.30378216 C58.0767102,3.1360079 58.5,3.44736519 58.5,3.99815369 L58.5,32.0018463 C58.5,32.5531114 58.0699307,32.8593919 57.5531571,32.685457 C57.5531571,32.685457 54.486872,31.7217092 52.5,30.6310845 C49.486872,28.977132 43.5,24.7662683 43.5,24.7662683 L43.5,11.1358358 C43.5,11.1358358 49.4940949,6.94442675 52.5,5.30209536 Z" id="Rectangle-56-Copy"></path>
        </g>
    </g>
</svg>