<svg xmlns="http://www.w3.org/2000/svg" width="56" height="56" viewBox="0 0 56 56">
  <path d="M28,52 C41.254834,52 52,41.254834 52,28 C52,14.745166 41.254834,4 28,4 C14.745166,4 4,14.745166 4,28 C4,41.254834 14.745166,52 28,52 Z M28,56 C12.536027,56 0,43.463973 0,28 C0,12.536027 12.536027,0 28,0 C43.463973,0 56,12.536027 56,28 C56,43.463973 43.463973,56 28,56 Z"/>
  <path d="M15 18L31 18C33.209139 18 35 19.790861 35 22L35 35C35 37.209139 33.209139 39 31 39L15 39C12.790861 39 11 37.209139 11 35L11 22C11 19.790861 12.790861 18 15 18zM42.6712723 20.958869C43.4968379 20.225033 44.7609826 20.2993945 45.4948186 21.12496 45.8202429 21.4910623 46 21.9638594 46 22.4536877L46 33.5463123C46 34.6508818 45.1045695 35.5463123 44 35.5463123 43.5101717 35.5463123 43.0373746 35.3665552 42.6712723 35.041131L37.6712723 30.5966865C37.2442956 30.2171516 37 29.6731435 37 29.1018679L37 26.8981321C37 26.3268565 37.2442956 25.7828484 37.6712723 25.4033135L42.6712723 20.958869z"/>
</svg>
