<?xml version="1.0" encoding="UTF-8"?>
<svg width="50px" height="50px" viewBox="0 0 50 50" version="1.1" xmlns="http://www.w3.org/2000/svg" xmlns:xlink="http://www.w3.org/1999/xlink">
    <!-- Generator: Sketch 40.1 (33804) - http://www.bohemiancoding.com/sketch -->
    <title>videocam_round</title>
    <desc>Created with Sketch.</desc>
    <defs></defs>
    <g id="Page-1" stroke="none" stroke-width="1" fill="none" fill-rule="evenodd">
        <g id="videocam_round" fill="#000000">
            <path d="M48,25 C48,12.2974508 37.7025492,2 25,2 C12.2974508,2 2,12.2974508 2,25 C2,37.7025492 12.2974508,48 25,48 C37.7025492,48 48,37.7025492 48,25 Z M0,25 C0,11.1928813 11.1928813,0 25,0 C38.8071187,0 50,11.1928813 50,25 C50,38.8071187 38.8071187,50 25,50 C11.1928813,50 0,38.8071187 0,25 Z" id="Oval-18"></path>
            <g id="Group-3" transform="translate(10.000000, 16.000000)">
                <path d="M2,14.9938052 C2,16.1066054 2.89184489,17 3.99499768,17 L16.5982227,17 C17.69712,17 18.5932203,16.1018333 18.5932203,14.9938052 L18.5932203,4.00619478 C18.5932203,2.89339455 17.7013755,2 16.5982227,2 L3.99499768,2 C2.89610035,2 2,2.89816666 2,4.00619478 L2,14.9938052 Z M3.99499768,0 L16.5982227,0 C18.804599,0 20.5932203,1.78747387 20.5932203,4.00619478 L20.5932203,14.9938052 C20.5932203,17.2063655 18.8017317,19 16.5982227,19 L3.99499768,19 C1.78862138,19 0,17.2125261 0,14.9938052 L0,4.00619478 C0,1.7936345 1.7914886,0 3.99499768,0 Z" id="Rectangle-56"></path>
                <path d="M24.1186441,5.87724666 L24.1186441,13.071086 L23.2979206,11.4557511 C23.4397705,11.5593087 23.6943926,11.7433877 24.0271566,11.9808793 C24.5818624,12.3767693 25.1462311,12.7724632 25.6847192,13.1402959 C25.8206923,13.2330301 25.8206923,13.2330301 25.9567341,13.3251825 C26.6766145,13.8119288 27.2729813,14.1939188 27.6849985,14.4286672 C27.7409533,14.4605477 27.79881,14.4923613 27.8584111,14.5240434 C28.1917879,14.7012563 28.5614141,14.8651544 28.9324559,15.0078746 C29.1535312,15.0929105 29.3189164,15.1495829 29.4819412,15.2024039 C28.6999526,14.9201754 27.7457627,15.5929369 27.7457627,16.4262208 L27.7457627,2.57377925 C27.7457627,3.40385233 28.6659857,4.06621347 29.3787858,3.82096042 C29.3000826,3.84456661 29.1336604,3.8997442 28.9111516,3.98289623 C28.5377495,4.1224374 28.1658076,4.28338134 27.830504,4.45815105 C27.7747032,4.48723599 27.7204258,4.51645381 27.6815243,4.53804148 C27.2694354,4.77174124 26.6716511,5.15278781 25.9495032,5.63857394 C25.8147309,5.72939732 25.8147309,5.72939732 25.6800257,5.82078383 C25.1417184,6.18655046 24.5774386,6.58001034 24.0227418,6.97366409 C23.6899817,7.20981515 23.4353279,7.39286056 23.2934302,7.49585027 L24.1186441,5.87724666 Z M26.6949153,2.79832811 C27.7088618,2.23380968 28.804197,1.90527577 28.804197,1.90527577 C29.3242094,1.72747187 29.7457627,2.04011869 29.7457627,2.57377925 L29.7457627,16.4262208 C29.7457627,16.9732289 29.3298437,17.273781 28.8029851,17.0836318 C28.8029851,17.0836318 27.7051891,16.7420132 26.6949153,16.1664057 C25.1628162,15.2934863 22.1186441,13.071086 22.1186441,13.071086 L22.1186441,5.87724666 C22.1186441,5.87724666 25.1664889,3.66511412 26.6949153,2.79832811 Z" id="Rectangle-56-Copy"></path>
            </g>
        </g>
    </g>
</svg>