<?xml version="1.0" encoding="UTF-8"?>
<svg width="50px" height="50px" viewBox="0 0 50 50" version="1.1" xmlns="http://www.w3.org/2000/svg" xmlns:xlink="http://www.w3.org/1999/xlink">
    <!-- Generator: Sketch 40.1 (33804) - http://www.bohemiancoding.com/sketch -->
    <title>videocam_round_fill</title>
    <desc>Created with Sketch.</desc>
    <defs></defs>
    <g id="Page-1" stroke="none" stroke-width="1" fill="none" fill-rule="evenodd">
        <g id="videocam_round_fill" fill="#000000">
            <path d="M25,50 C38.8071187,50 50,38.8071187 50,25 C50,11.1928813 38.8071187,0 25,0 C11.1928813,0 0,11.1928813 0,25 C0,38.8071187 11.1928813,50 25,50 Z M10,20.0061948 C10,17.7936345 11.7914886,16 13.9949977,16 L26.5982227,16 C28.804599,16 30.5932203,17.7874739 30.5932203,20.0061948 L30.5932203,30.9938052 C30.5932203,33.2063655 28.8017317,35 26.5982227,35 L13.9949977,35 C11.7886214,35 10,33.2125261 10,30.9938052 L10,20.0061948 Z M32.1186441,21.8772467 C32.1186441,21.8772467 35.1664889,19.6651141 36.6949153,18.7983281 C37.7088618,18.2338097 38.804197,17.9052758 38.804197,17.9052758 C39.3242094,17.7274719 39.7457627,18.0401187 39.7457627,18.5737792 L39.7457627,32.4262208 C39.7457627,32.9732289 39.3298437,33.273781 38.8029851,33.0836318 C38.8029851,33.0836318 37.7051891,32.7420132 36.6949153,32.1664057 C35.1628162,31.2934863 32.1186441,29.071086 32.1186441,29.071086 L32.1186441,21.8772467 Z" id="Combined-Shape"></path>
        </g>
    </g>
</svg>