<svg xmlns="http://www.w3.org/2000/svg" width="56" height="56" viewBox="0 0 56 56">
  <g fill-rule="evenodd" transform="translate(3 4)">
    <path fill-rule="nonzero" d="M12.7426044,15.2266531 L22,27.3935159 L22,37.1990488 C22,37.7513335 21.5522847,38.1990488 21,38.1990488 C20.7908959,38.1990488 20.5870523,38.1334998 20.4171401,38.0116215 L8.89990234,29.7502849 L1.9973917,29.7502849 C0.894262725,29.7502849 0,28.8483345 0,27.7417547 L0,19.7588151 C0,18.6495345 0.895857811,17.7502849 1.9973917,17.7502849 L8.89990234,17.7502849 L12.7426044,15.2266531 Z M19.4281303,10.8360433 L20.451061,10.1642502 C20.9126951,9.86107961 21.5326918,9.98953961 21.8358624,10.4511737 C21.9429452,10.6142273 22,10.8050403 22,11.0001127 L22,14.2162149 L19.4281303,10.8360433 Z"/>
    <path d="M31.6409733 26.8872083L28.9861703 23.3980387C28.8920932 21.3626669 28.3180434 19.450381 27.2640208 17.661181 26.8737808 16.9987467 27.0907299 16.1455621 27.75 15.75 28.4242609 15.3454435 29.2988152 15.564082 29.7033717 16.2383429 29.7153577 16.2583196 29.7268517 16.2785875 29.7378431 16.2991283 31.2459582 19.1174216 32 21.6843845 32 24 32 24.9225109 31.8803244 25.8849137 31.6409733 26.8872083zM37.9123964 35.1296502L35.9044885 32.4906855C37.3014953 29.0376923 38 25.874131 38 23 38 19.1868549 36.7705159 15.4107017 34.3115477 11.6715405L34.3115643 11.6715296C33.8971198 11.0413161 34.0720351 10.1944534 34.7022486 9.78000885 34.7179575 9.76967828 34.733878 9.7596732 34.75 9.75 35.4581455 9.32511269 36.3760274 9.54410412 36.8160734 10.2429309 39.6053612 14.6725118 41 18.9248703 41 23 41 26.5007468 39.9707988 30.5439635 37.9123964 35.1296502zM44.0166662 43.1524048L42.0870721 40.6163667C45.3623538 34.2869353 47 28.414815 47 23 47 17.1740184 45.1042064 11.4019663 41.3126192 5.68384347 40.894054 5.05260388 41.0664618 4.20156917 41.697702 3.78300485 41.7148844 3.77161153 41.7323215 3.76060711 41.75 3.75 42.4553994 3.32676036 43.369516 3.54169588 43.8123997 4.23493042 47.9374755 10.6917468 50 16.9467757 50 23 50 28.9524835 48.0055554 35.6699517 44.0166662 43.1524048z"/>
    <path fill-rule="nonzero" d="M7.59165739,1.21104366 C8.47070549,0.542202717 9.72551749,0.712609286 10.3943584,1.59165739 L42.9722711,44.4083426 C43.6411121,45.2873907 43.4707055,46.5422027 42.5916574,47.2110437 C41.7126093,47.8798846 40.4577973,47.709478 39.7889563,46.8304299 L7.21104366,4.01374472 C6.54220272,3.13469662 6.71260929,1.87988461 7.59165739,1.21104366 Z"/>
  </g>
</svg>
