<?xml version="1.0" encoding="UTF-8"?>
<svg width="32px" height="50px" viewBox="0 0 32 50" version="1.1" xmlns="http://www.w3.org/2000/svg" xmlns:xlink="http://www.w3.org/1999/xlink">
    <!-- Generator: Sketch 40.1 (33804) - http://www.bohemiancoding.com/sketch -->
    <title>volume_low</title>
    <desc>Created with Sketch.</desc>
    <defs></defs>
    <g id="Page-1" stroke="none" stroke-width="1" fill="none" fill-rule="evenodd">
        <g id="volume_low" transform="translate(0.000000, 10.000000)" fill="#000000">
            <path d="M8.89990234,7.60327502 L21.046936,0.128177365 C21.5180163,-0.161718195 21.8999023,0.0587957702 21.8999023,0.601520663 L21.8999023,27.6050294 C21.8999023,28.1563452 21.5248575,28.3436286 21.0768318,28.033457 L8.89990234,19.603275 L1.9973917,19.603275 C0.894262725,19.603275 0,18.7013247 0,17.5947448 L0,9.61180522 C0,8.50252462 0.895857811,7.60327502 1.9973917,7.60327502 L8.89990234,7.60327502 Z M1.9699892,9.61166171 L9.5,9.61166171 L20,3 L20,25 L9.5,17.6102295 L1.9699892,17.6102295 L1.9699892,9.61166171 Z" id="Combined-Shape"></path>
            <path d="M27.1495277,6.32595082 C26.8495096,5.86867394 27.0141673,5.31804855 27.5252036,5.09260833 L27.5252036,5.09260833 C28.0327018,4.86872895 28.6753669,5.06266778 28.9551073,5.54594029 C28.9551073,5.54594029 31.808622,9.85045644 31.808622,14.8504564 C31.808622,19.8504564 28.9772272,23.8408659 28.9772272,23.8408659 C28.6827949,24.3083048 28.0711406,24.4547912 27.6038324,24.1635486 L27.6038324,24.1635486 C27.1397597,23.8743225 27.0337839,23.2726326 27.3363084,22.8204351 C27.3363084,22.8204351 29.808622,19.8504564 29.808622,14.8504564 C29.808622,9.85045644 27.1495277,6.32595082 27.1495277,6.32595082 Z" id="Rectangle-47"></path>
        </g>
    </g>
</svg>