<?xml version="1.0" encoding="UTF-8"?>
<svg width="51px" height="50px" viewBox="0 0 51 50" version="1.1" xmlns="http://www.w3.org/2000/svg" xmlns:xlink="http://www.w3.org/1999/xlink">
    <!-- Generator: Sketch 40.1 (33804) - http://www.bohemiancoding.com/sketch -->
    <title>volume</title>
    <desc>Created with Sketch.</desc>
    <defs></defs>
    <g id="Page-1" stroke="none" stroke-width="1" fill="none" fill-rule="evenodd">
        <g id="volume" transform="translate(0.000000, 3.000000)" fill="#000000">
            <path d="M8.89990234,14.603275 L21.046936,7.12817736 C21.5180163,6.83828181 21.8999023,7.05879577 21.8999023,7.60152066 L21.8999023,34.6050294 C21.8999023,35.1563452 21.5248575,35.3436286 21.0768318,35.033457 L8.89990234,26.603275 L1.9973917,26.603275 C0.894262725,26.603275 0,25.7013247 0,24.5947448 L0,16.6118052 C0,15.5025246 0.895857811,14.603275 1.9973917,14.603275 L8.89990234,14.603275 Z M1.9699892,16.6116617 L9.5,16.6116617 L20,10 L20,32 L9.5,24.6102295 L1.9699892,24.6102295 L1.9699892,16.6116617 Z" id="Combined-Shape"></path>
            <path d="M27.1495277,13.3259508 C26.8495096,12.8686739 27.0141673,12.3180485 27.5252036,12.0926083 L27.5252036,12.0926083 C28.0327018,11.868729 28.6753669,12.0626678 28.9551073,12.5459403 C28.9551073,12.5459403 31.808622,16.8504564 31.808622,21.8504564 C31.808622,26.8504564 28.9772272,30.8408659 28.9772272,30.8408659 C28.6827949,31.3083048 28.0711406,31.4547912 27.6038324,31.1635486 L27.6038324,31.1635486 C27.1397597,30.8743225 27.0337839,30.2726326 27.3363084,29.8204351 C27.3363084,29.8204351 29.808622,26.8504564 29.808622,21.8504564 C29.808622,16.8504564 27.1495277,13.3259508 27.1495277,13.3259508 Z" id="Rectangle-47"></path>
            <path d="M34.1841925,7.67616272 C33.862746,7.23477133 33.9740711,6.61944451 34.4243127,6.30769895 L34.6178251,6.17371164 C35.0718863,5.85932137 35.6908544,5.98527858 35.9779177,6.44171476 C35.9779177,6.44171476 40.9457556,13.5930325 40.9457556,21.4407821 C40.9457556,29.2885316 35.9880196,36.3018812 35.9880196,36.3018812 C35.6853433,36.7659175 35.1159476,36.8251296 34.7272687,36.4449248 L34.4721268,36.1953456 C34.0785096,35.8103102 34.0382597,35.1424958 34.3645086,34.6979783 C34.3645086,34.6979783 38.9457556,29.2885316 38.9457556,21.4407821 C38.9457556,13.5930325 34.1841925,7.67616272 34.1841925,7.67616272 Z" id="Rectangle-47-Copy"></path>
            <path d="M41.2061278,1.6631293 C40.8640563,1.23835904 40.9586616,0.636506307 41.4089031,0.32476075 L41.6024156,0.19077344 C42.0564767,-0.123616835 42.7110401,-0.0457384544 43.0695244,0.397126488 C43.0695244,0.397126488 50.4764636,8.42727488 50.4095791,21.7316635 C50.3426945,35.0360522 43.5725718,42.0117091 43.5725718,42.0117091 C43.2160622,42.4270228 42.5431004,42.518522 42.0854227,42.2262654 L41.9582174,42.1450367 C41.4933973,41.8482191 41.4120382,41.2645174 41.7521344,40.8436654 C41.7521344,40.8436654 48.4231711,33.6469689 48.4095791,21.7316635 C48.395987,9.81635817 41.2061278,1.6631293 41.2061278,1.6631293 Z" id="Rectangle-47-Copy-2"></path>
        </g>
    </g>
</svg>