<svg xmlns="http://www.w3.org/2000/svg" width="56" height="56" viewBox="0 0 56 56">
  <g fill-rule="evenodd" transform="translate(3 7)">
    <path fill-rule="nonzero" d="M9.49791991,17.7502849 L4,17.7502849 C3.44771525,17.7502849 3,18.1980002 3,18.7502849 L3,22.7502849 C3,23.3025697 3.44771525,23.7502849 4,23.7502849 L9.54303233,23.7502849 C9.75213639,23.7502849 9.95598,23.8158339 10.1258922,23.9377122 L18.20857,29.7354324 C18.4329558,29.8963847 18.745334,29.8449618 18.9062863,29.620576 C18.9672255,29.5356199 19,29.4336981 19,29.3291461 L19,12.6328696 C19,12.3567273 18.7761424,12.1328696 18.5,12.1328696 C18.4024638,12.1328696 18.3070573,12.161397 18.2255305,12.2149384 L10.0468589,17.5861473 C9.88380525,17.6932301 9.69299225,17.7502849 9.49791991,17.7502849 Z M8.89990234,14.7502849 L20.451061,7.16425024 C20.9126951,6.86107961 21.5326918,6.98953961 21.8358624,7.45117368 C21.9429452,7.61422733 22,7.80504032 22,8.00011267 L22,34.1990488 C22,34.7513335 21.5522847,35.1990488 21,35.1990488 C20.7908959,35.1990488 20.5870523,35.1334998 20.4171401,35.0116215 L8.89990234,26.7502849 L1.9973917,26.7502849 C0.894262725,26.7502849 0,25.8483345 0,24.7417547 L0,16.7588151 C0,15.6495345 0.895857811,14.7502849 1.9973917,14.7502849 L8.89990234,14.7502849 Z"/>
    <path d="M27.75 12.75C28.4242609 12.3454435 29.2988152 12.564082 29.7033717 13.2383429 29.7153577 13.2583196 29.7268517 13.2785875 29.7378431 13.2991283 31.2459582 16.1174216 32 18.6843845 32 21 32 23.3156155 31.2459582 25.8825784 29.7378745 28.7008885L29.7378431 28.7008717C29.3668574 29.3941706 28.5040842 29.655457 27.8107854 29.2844713 27.7902446 29.2734799 27.7699767 29.261986 27.75 29.25 27.0907299 28.8544379 26.8737808 28.0012533 27.2640221 27.3388198 28.4213403 25.3742729 29 23.2613332 29 21 29 18.7386668 28.4213403 16.6257271 27.2640208 14.661181 26.8737808 13.9987467 27.0907299 13.1455621 27.75 12.75zM34.75 6.75C35.4581455 6.32511269 36.3760274 6.54410412 36.8160734 7.24293089 39.6053612 11.6725118 41 15.9248703 41 20 41 24.1396523 39.5608481 29.0378509 36.6825444 34.6945956L36.6825625 34.6946048C36.3382436 35.3712965 35.510551 35.6407378 34.8338593 35.2964189 34.8053751 35.2819254 34.777405 35.266443 34.75 35.25 34.0563821 34.8338293 33.8052881 33.9504666 34.1762963 33.2316782 36.7254298 28.2929893 38 23.882431 38 20 38 16.1868549 36.7705159 12.4107017 34.3115477 8.67154048L34.3115643 8.67152956C33.8971198 8.04131606 34.0720351 7.19445339 34.7022486 6.78000885 34.7179575 6.76967828 34.733878 6.7596732 34.75 6.75z"/>
    <path d="M41.75,0.75 C42.4553994,0.32676036 43.369516,0.541695875 43.8123997,1.23493042 C47.9374755,7.69174682 50,13.9467757 50,20 C50,26.101142 47.9046921,33.0059558 43.7140763,40.7144412 L43.7140488,40.7144262 C43.3421471,41.3985259 42.4860889,41.6516123 41.8019892,41.2797106 C41.7844511,41.2701762 41.7671175,41.2602705 41.75,41.25 C41.0602188,40.8361313 40.8226489,39.949985 41.2128934,39.2465685 C45.0709599,32.2923649 47,25.8768446 47,20 C47,14.1740184 45.1042064,8.40196626 41.3126192,2.68384347 C40.894054,2.05260388 41.0664618,1.20156917 41.697702,0.783004846 C41.7148844,0.771611527 41.7323215,0.760607114 41.75,0.75 Z"/>
  </g>
</svg>
