<svg xmlns="http://www.w3.org/2000/svg" width="56" height="56" viewBox="0 0 56 56">
  <path d="M9.49791991,11.6002849 L4,11.6002849 C3.44771525,11.6002849 3,12.0480002 3,12.6002849 L3,16.6002849 C3,17.1525697 3.44771525,17.6002849 4,17.6002849 L9.54303233,17.6002849 C9.75213639,17.6002849 9.95598,17.6658339 10.1258922,17.7877122 L18.20857,23.5854324 C18.4329558,23.7463847 18.745334,23.6949618 18.9062863,23.470576 C18.9672255,23.3856199 19,23.2836981 19,23.1791461 L19,6.48286963 C19,6.20672726 18.7761424,5.98286963 18.5,5.98286963 C18.4024638,5.98286963 18.3070573,6.01139701 18.2255305,6.06493842 L10.0468589,11.4361473 C9.88380525,11.5432301 9.69299225,11.6002849 9.49791991,11.6002849 Z M8.89990234,8.6002849 L20.451061,1.01425024 C20.9126951,0.711079614 21.5326918,0.839539613 21.8358624,1.30117368 C21.9429452,1.46422733 22,1.65504032 22,1.85011267 L22,28.0490488 C22,28.6013335 21.5522847,29.0490488 21,29.0490488 C20.7908959,29.0490488 20.5870523,28.9834998 20.4171401,28.8616215 L8.89990234,20.6002849 L1.9973917,20.6002849 C0.894262725,20.6002849 0,19.6983345 0,18.5917547 L0,10.6088151 C0,9.4995345 0.895857811,8.6002849 1.9973917,8.6002849 L8.89990234,8.6002849 Z" transform="translate(17 13)"/>
</svg>
