<svg xmlns="http://www.w3.org/2000/svg" width="56" height="56" viewBox="0 0 56 56">
  <g fill-rule="evenodd" transform="translate(12 14)">
    <path fill-rule="nonzero" d="M9.49791991,10.7502849 L4,10.7502849 C3.44771525,10.7502849 3,11.1980002 3,11.7502849 L3,15.7502849 C3,16.3025697 3.44771525,16.7502849 4,16.7502849 L9.54303233,16.7502849 C9.75213639,16.7502849 9.95598,16.8158339 10.1258922,16.9377122 L18.20857,22.7354324 C18.4329558,22.8963847 18.745334,22.8449618 18.9062863,22.620576 C18.9672255,22.5356199 19,22.4336981 19,22.3291461 L19,5.63286963 C19,5.35672726 18.7761424,5.13286963 18.5,5.13286963 C18.4024638,5.13286963 18.3070573,5.16139701 18.2255305,5.21493842 L10.0468589,10.5861473 C9.88380525,10.6932301 9.69299225,10.7502849 9.49791991,10.7502849 Z M8.89990234,7.7502849 L20.451061,0.164250244 C20.9126951,-0.138920386 21.5326918,-0.0104603866 21.8358624,0.451173683 C21.9429452,0.614227326 22,0.805040323 22,1.00011267 L22,27.1990488 C22,27.7513335 21.5522847,28.1990488 21,28.1990488 C20.7908959,28.1990488 20.5870523,28.1334998 20.4171401,28.0116215 L8.89990234,19.7502849 L1.9973917,19.7502849 C0.894262725,19.7502849 0,18.8483345 0,17.7417547 L0,9.7588151 C0,8.6495345 0.895857811,7.7502849 1.9973917,7.7502849 L8.89990234,7.7502849 Z"/>
    <path d="M27.75,5.75 C28.4242609,5.34544347 29.2988152,5.56408205 29.7033717,6.23834293 C29.7153577,6.25831964 29.7268517,6.27858754 29.7378431,6.2991283 C31.2459582,9.11742162 32,11.6843845 32,14 C32,16.3156155 31.2459582,18.8825784 29.7378745,21.7008885 L29.7378431,21.7008717 C29.3668574,22.3941706 28.5040842,22.655457 27.8107854,22.2844713 C27.7902446,22.2734799 27.7699767,22.261986 27.75,22.25 C27.0907299,21.8544379 26.8737808,21.0012533 27.2640221,20.3388198 C28.4213403,18.3742729 29,16.2613332 29,14 C29,11.7386668 28.4213403,9.62572708 27.2640208,7.66118097 C26.8737808,6.99874667 27.0907299,6.14556208 27.75,5.75 Z"/>
  </g>
</svg>
