<?xml version="1.0" encoding="UTF-8"?>
<svg width="50px" height="50px" viewBox="0 0 50 50" version="1.1" xmlns="http://www.w3.org/2000/svg" xmlns:xlink="http://www.w3.org/1999/xlink">
    <!-- Generator: Sketch 40.1 (33804) - http://www.bohemiancoding.com/sketch -->
    <title>world_fill</title>
    <desc>Created with Sketch.</desc>
    <defs></defs>
    <g id="Page-1" stroke="none" stroke-width="1" fill="none" fill-rule="evenodd">
        <g id="world-fill" fill="#000000">
            <path d="M34.2231443,13.770689 C31.8506617,14.2838818 29.1169767,14.592785 26,14.6464641 L26,24 L35.9872209,24 C35.8904498,20.222353 35.2488029,16.7336522 34.2231443,13.770689 Z M26,4.28064163 L26,12.646176 C28.8382293,12.5955813 31.3268786,12.3259559 33.4870485,11.8822761 C31.6350415,7.64372784 28.9361259,4.81067451 26,4.28064163 Z M16.515308,11.8768847 C18.6743099,12.3222787 21.1621591,12.5935601 24,12.6456595 L24,4.28064163 C21.0651192,4.81044975 18.3672475,7.64132551 16.515308,11.8768847 Z M14.0127791,24 L24,24 L24,14.6459652 C20.8832496,14.59069 18.150244,14.2799999 15.7788489,13.7649331 C14.7520284,16.7291337 14.1096129,20.2199065 14.0127795,23.9999858 Z M15.7824497,36.2454548 C18.1488489,35.7629857 20.8804202,35.4823869 24,35.4546342 L24,26 L14.0127791,26 C14.1097261,29.7845117 14.7535309,33.2790261 15.782451,36.2454586 Z M24,45.7193584 L24,37.4547106 C21.1614874,37.480822 18.6758876,37.7233827 16.5216223,38.1375438 C18.373377,42.3651029 21.068453,45.1901521 24,45.7193584 Z M33.3964724,38.3223937 C31.2836007,37.8493318 28.8258541,37.5499066 26,37.4724063 L26,45.7193584 C28.8886105,45.197903 31.5476261,42.4473639 33.3964724,38.3223937 Z M35.9872209,26 L26,26 L26,35.4717222 L26,35.4717222 C29.1125671,35.5540639 31.8204233,35.8961517 34.1481229,36.4431748 C35.2174757,33.4347786 35.8881115,29.8689285 35.9872205,26.0000142 Z" id="Combined-Shape"></path>
            <path d="M36.1868794,13.2767297 C36.7323899,13.1188549 37.2553919,12.9489531 37.7562383,12.7678383 C39.1593288,12.2604561 40.1998944,11.7430135 40.9114371,11.2944867 C43.8796293,14.7373041 45.7494199,19.1538749 45.9766098,24 L37.9879335,24 C37.893498,20.0943889 37.2485457,16.4410563 36.1868794,13.2767297 Z M31.4253742,5.00119785 C34.4774854,5.98102529 37.2252558,7.64016093 39.4907002,9.80061932 C38.8446797,10.1676974 38.0433953,10.5372464 37.0761068,10.887035 C36.5713036,11.0695807 36.0407568,11.2401658 35.4839749,11.3977425 C34.4029723,8.79411902 33.0195762,6.6079242 31.4253742,5.00119785 Z M14.5190333,11.3905001 C13.9715613,11.2349427 13.4495205,11.0667875 12.9524414,10.887035 C11.976214,10.534014 11.169073,10.1608656 10.5199778,9.79044329 C12.7833763,7.63495089 15.5273083,5.97948636 18.5746258,5.00119785 C16.9819022,6.60643417 15.5995937,8.7900647 14.5190333,11.3905001 Z M12.0120665,24 L4.0233902,24 C4.25083705,19.1483945 6.12460179,14.7273155 9.09863707,11.2828102 C9.81059753,11.7340203 10.8570275,12.2560473 12.2723098,12.7678383 C12.765189,12.946072 13.2795244,13.1134466 13.8156526,13.2691863 C12.7524797,16.4352496 12.1065771,20.091285 12.0120665,24 Z M13.81073,36.716142 C13.2382742,36.874264 12.6910944,37.0455729 12.1687632,37.2291144 C10.7675807,37.7214747 9.73855691,38.2242612 9.04632066,38.6563641 C6.10263639,35.220709 4.24950046,30.8230951 4.0233902,26 L12.0120665,26 C12.1064311,29.9026787 12.7504861,33.5534576 13.81073,36.716142 Z M18.5746258,44.9988021 C15.5017891,44.0123211 12.7374403,42.3372748 10.4632156,40.1552992 C11.0935139,39.8044613 11.8793899,39.4506785 12.8317987,39.1160124 C13.3628701,38.9293996 13.923387,38.7560664 14.5139582,38.597278 C15.5952641,41.2030936 16.9794076,43.3910516 18.5746258,44.9988021 Z M35.3808978,38.847111 C35.660209,38.9333436 35.9321344,39.0230295 36.1967494,39.1160124 C37.2100111,39.4720615 38.0347793,39.8497483 38.6842461,40.2225062 C38.8846632,40.3375346 39.0410582,40.4354919 39.1554838,40.5121883 C36.956245,42.520214 34.3284851,44.0668087 31.4253742,44.9988021 C32.9693467,43.4426999 34.3155881,41.3430692 35.3808978,38.847111 Z M37.9879335,26 L45.9766098,26 C45.741151,31.022506 43.7413466,35.5836202 40.5830049,39.0775344 C39.9597612,38.5746974 38.7475193,37.8924438 36.8597849,37.2291144 C36.612328,37.1421607 36.3592939,37.0579526 36.1006373,36.9765914 C37.2135854,33.754556 37.8909674,30.010268 37.9879335,26 Z M2.02134837,24 C2.54490474,11.7613838 12.6325057,2 25,2 C37.3674943,2 47.4550953,11.7613838 47.9786516,24 L48,24 L48,26 L47.9786516,26 C47.4550953,38.2386162 37.3674943,48 25,48 C12.6325057,48 2.54490474,38.2386162 2.02134837,26 L2,26 L2,24 L2.02134837,24 Z M25,50 C38.8071187,50 50,38.8071187 50,25 C50,11.1928813 38.8071187,0 25,0 C11.1928813,0 0,11.1928813 0,25 C0,38.8071187 11.1928813,50 25,50 Z" id="Combined-Shape"></path>
        </g>
    </g>
</svg>