<svg xmlns="http://www.w3.org/2000/svg" width="56" height="56" viewBox="0 0 56 56">
  <path fill-rule="evenodd" d="M25,50 C11.1928813,50 0,38.8071187 0,25 C0,11.1928813 11.1928813,0 25,0 C38.8071187,0 50,11.1928813 50,25 C50,38.8071187 38.8071187,50 25,50 Z M25,46 C36.5979797,46 46,36.5979797 46,25 C46,13.4020203 36.5979797,4 25,4 C13.4020203,4 4,13.4020203 4,25 C4,36.5979797 13.4020203,46 25,46 Z M35.8997331,33.7963016 C36.5306051,31.4062343 36.9123359,28.7734639 36.9866342,26 L43.9741359,26 C43.7834832,29.6767787 42.5475782,33.0770422 40.5578919,35.9093178 C39.1249302,35.0880295 37.5638555,34.3776751 35.8997331,33.7963016 Z M33.9895331,33.1987565 C31.4946998,32.5063094 28.8068005,32.0936348 26,32.0141368 L26,26 L34.9858719,26 C34.9128215,28.5791081 34.5592483,31.0088177 33.9895331,33.1987565 Z M35.8997331,16.2036984 C37.5638555,15.6223249 39.1249302,14.9119705 40.5578881,14.0906769 C42.5475782,16.9229578 43.7834832,20.3232213 43.9741359,24 L36.9866342,24 C36.9123359,21.2265361 36.5306051,18.5937657 35.8997331,16.2036984 Z M33.9895331,16.8012435 C34.5592483,18.9911823 34.9128215,21.4208919 34.9858719,24 L26,24 L26.0000077,17.985863 C28.8068005,17.9063652 31.4946998,17.4936906 33.9895331,16.8012435 Z M14.1002669,33.7963016 C12.4361445,34.3776751 10.8750698,35.0880295 9.4421119,35.9093231 C7.45242181,33.0770422 6.21651677,29.6767787 6.02586412,26 L13.0133658,26 C13.0876641,28.7734639 13.4693949,31.4062343 14.1002669,33.7963016 Z M16.0104669,33.1987565 C15.4407517,31.0088177 15.0871785,28.5791081 15.0141281,26 L24,26 L23.9999923,32.014137 C21.1931995,32.0936348 18.5053002,32.5063094 16.0104669,33.1987565 Z M14.1002669,16.2036984 C13.4693949,18.5937657 13.0876641,21.2265361 13.0133658,24 L6.02586412,24 C6.21651677,20.3232213 7.45242181,16.9229578 9.44210809,14.0906822 C10.8750698,14.9119705 12.4361445,15.6223249 14.1002669,16.2036984 Z M16.0104669,16.8012435 C18.5053002,17.4936906 21.1931995,17.9063652 24,17.9858632 L24,24 L15.0141281,24 C15.0871785,21.4208919 15.4407517,18.9911823 16.0104669,16.8012435 Z M31.2253475,42.9566632 C32.9073037,41.1670515 34.3179207,38.6741077 35.3238765,35.711145 C36.7446817,36.2122855 38.0795119,36.8129384 39.3104349,37.498862 C37.1580727,39.961157 34.3804977,41.8629699 31.2253475,42.9566632 Z M26,43.8980823 L26,34.0149337 C28.6148111,34.093195 31.1090809,34.47683 33.4165322,35.1132017 C31.7669679,39.9529095 29.0069758,43.2852143 26,43.8980823 Z M18.7746525,42.9566632 C15.6195023,41.8629699 12.8419273,39.961157 10.6895651,37.498862 C11.9204881,36.8129384 13.2553183,36.2122855 14.6761235,35.711145 C15.6820793,38.6741077 17.0926963,41.1670515 18.7746525,42.9566632 Z M24,43.8980823 C20.9930242,43.2852143 18.2330321,39.9529095 16.5834678,35.1132017 C18.8909191,34.47683 21.3851889,34.093195 24,34.0149337 L24,43.8980823 Z M31.2253475,7.04333681 C34.3804977,8.13703008 37.1580727,10.038843 39.3104349,12.501138 C38.0795119,13.1870616 36.7446817,13.7877145 35.3238765,14.288855 C34.3179207,11.3258923 32.9073037,8.8329485 31.2253475,7.04333681 Z M26,6.10191766 C29.0069758,6.71478565 31.7669679,10.0470905 33.4165322,14.8867983 C31.1090809,15.52317 28.6148111,15.906805 26,15.9850663 L26,6.10191766 Z M18.7746525,7.04333681 C17.0926963,8.8329485 15.6820793,11.3258923 14.6761235,14.288855 C13.2553183,13.7877145 11.9204881,13.1870616 10.6895651,12.501138 C12.8419273,10.038843 15.6195023,8.13703008 18.7746525,7.04333681 Z M24,6.10191766 L24,15.9850663 C21.3851889,15.906805 18.8909191,15.52317 16.5834678,14.8867983 C18.2330321,10.0470905 20.9930242,6.71478565 24,6.10191766 Z" transform="translate(3 3)"/>
</svg>
