<svg xmlns="http://www.w3.org/2000/svg" width="56" height="56" viewBox="0 0 56 56">
  <path fill-rule="evenodd" d="M25,50 C11.1928813,50 0,38.8071187 0,25 C0,11.1928813 11.1928813,0 25,0 C38.8071187,0 50,11.1928813 50,25 C50,38.8071187 38.8071187,50 25,50 Z M37.9323985,34.5923758 C39.4927024,35.2727517 40.9413705,36.0725282 42.2539635,36.9741089 C44.2576407,34.092352 45.5578721,30.6847632 45.9060001,27 L38.9558525,27 C38.8374599,29.670927 38.4839944,32.2237085 37.9323985,34.5923758 Z M34.1390204,33.240647 C34.5606777,31.3048967 34.8438747,29.2099309 34.9515179,27 L27,27 L27,32.0567611 C29.5013551,32.1993161 31.8990902,32.6069491 34.1390204,33.240647 Z M37.9323985,15.4076242 C38.4839944,17.7762915 38.8374599,20.329073 38.9558525,23 L45.9060001,23 C45.5578721,19.3152368 44.2576407,15.907648 42.2539621,13.0258898 C40.9413705,13.9274718 39.4927024,14.7272483 37.9323985,15.4076242 Z M34.1390204,16.759353 C31.8990902,17.3930509 29.5013551,17.8006839 27,17.9432389 L27,23 L34.9515179,23 C34.8438747,20.7900691 34.5606777,18.6951033 34.1390204,16.759353 Z M12.0676015,34.5923758 C11.5160056,32.2237085 11.1625401,29.670927 11.0441475,27 L4.0939999,27 C4.44212786,30.6847632 5.74235931,34.092352 7.74603794,36.9741102 C9.05862955,36.0725282 10.5072976,35.2727517 12.0676015,34.5923758 Z M15.8609796,33.240647 C18.1009098,32.6069491 20.4986449,32.1993161 23,32.0567611 L23,27 L15.0484821,27 C15.1561253,29.2099309 15.4393223,31.3048967 15.8609796,33.240647 Z M12.0676015,15.4076242 C10.5072976,14.7272483 9.05862955,13.9274718 7.74603654,13.0258911 C5.74235931,15.907648 4.44212786,19.3152368 4.0939999,23 L11.0441475,23 C11.1625401,20.329073 11.5160056,17.7762915 12.0676015,15.4076242 Z M15.8609796,16.759353 C15.4393223,18.6951033 15.1561253,20.7900691 15.0484821,23 L23,23 L23,17.9432389 C20.4986449,17.8006839 18.1009098,17.3930509 15.8609796,16.759353 Z M34.1641927,43.9002285 C36.2005373,42.9110302 38.0530084,41.6024284 39.6564679,40.0395613 C38.7772969,39.4608209 37.8217998,38.9313867 36.7997287,38.459956 C36.0708908,40.4931599 35.1817692,42.3255297 34.1641927,43.9002285 Z M27,45.5089303 C29.334272,44.3724386 31.5481676,41.3302041 33.0526872,37.0848731 C31.1673179,36.553011 29.1358488,36.2001792 27,36.0635856 L27,45.5089303 Z M15.8358073,43.9002285 C14.8182308,42.3255297 13.9291092,40.4931599 13.2002713,38.459956 C12.1782002,38.9313867 11.2227031,39.4608209 10.3435321,40.0395613 C11.9469916,41.6024284 13.7994627,42.9110302 15.8358073,43.9002285 Z M23,45.5089303 L23,36.0635856 C20.8641512,36.2001792 18.8326821,36.553011 16.9473128,37.0848731 C18.4518324,41.3302041 20.665728,44.3724386 23,45.5089303 Z M34.1641927,6.09977148 C35.1817692,7.67447028 36.0708908,9.5068401 36.7997287,11.540044 C37.8217998,11.0686133 38.7772969,10.5391791 39.6564679,9.96043866 C38.0530084,8.39757155 36.2005373,7.0889698 34.1641927,6.09977148 Z M27,4.49106965 L27,13.9364144 C29.1358488,13.7998208 31.1673179,13.446989 33.0526872,12.9151269 C31.5481676,8.66979587 29.334272,5.62756138 27,4.49106965 Z M15.8358073,6.09977148 C13.7994627,7.0889698 11.9469916,8.39757155 10.3435321,9.96043866 C11.2227031,10.5391791 12.1782002,11.0686133 13.2002713,11.540044 C13.9291092,9.5068401 14.8182308,7.67447028 15.8358073,6.09977148 Z M23,4.49106965 C20.665728,5.62756138 18.4518324,8.66979587 16.9473128,12.9151269 C18.8326821,13.446989 20.8641512,13.7998208 23,13.9364144 L23,4.49106965 Z" transform="translate(3 3)"/>
</svg>
