<?xml version="1.0" encoding="UTF-8"?>
<svg width="50px" height="50px" viewBox="0 0 50 50" version="1.1" xmlns="http://www.w3.org/2000/svg" xmlns:xlink="http://www.w3.org/1999/xlink">
    <!-- Generator: Sketch 40.1 (33804) - http://www.bohemiancoding.com/sketch -->
    <title>world_fill</title>
    <desc>Created with Sketch.</desc>
    <defs></defs>
    <g id="Page-1" stroke="none" stroke-width="1" fill="none" fill-rule="evenodd">
        <g id="world_fill" fill="#000000">
            <path d="M48,25 C48,12.2974508 37.7025492,2 25,2 C12.2974508,2 2,12.2974508 2,25 C2,37.7025492 12.2974508,48 25,48 C37.7025492,48 48,37.7025492 48,25 Z M0,25 C0,11.1928813 11.1928813,0 25,0 C38.8071187,0 50,11.1928813 50,25 C50,38.8071187 38.8071187,50 25,50 C11.1928813,50 0,38.8071187 0,25 Z" id="Oval-69"></path>
            <g id="Group" transform="translate(4.000000, 4.000000)">
                <g id="Group-bottom-2" transform="translate(21.385680, 36.924097) scale(1, -1) translate(-21.385680, -36.924097) translate(5.863941, 31.902357)">
                    <path d="M9.29379315,0.73968445 C9.29379315,0.73968445 7.43749319,1.08487053 4.46249592,2.84778513 C1.48749864,4.61069974 0,6.37361434 0,6.37361434 C0,6.37361434 0.602375482,6.90372153 2.00382048,7.49546909 C3.40526548,8.08721665 4.76983035,8.43240273 4.76983035,8.43240273 C4.76983035,8.43240273 5.51972635,6.21334938 6.77365083,4.08059255 C8.0275753,1.94783572 9.29379315,0.73968445 9.29379315,0.73968445 Z" id="Path-4"></path>
                    <path d="M30.2318599,0.73968445 C30.2318599,0.73968445 28.37556,1.08487053 25.4005627,2.84778513 C22.4255654,4.61069974 20.9380668,6.37361434 20.9380668,6.37361434 C20.9380668,6.37361434 21.5404423,6.90372153 22.9418873,7.49546909 C24.3433323,8.08721665 25.7078971,8.43240273 25.7078971,8.43240273 C25.7078971,8.43240273 26.4577931,6.21334938 27.7117176,4.08059255 C28.9656421,1.94783572 30.2318599,0.73968445 30.2318599,0.73968445 Z" id="Path-4-Copy" transform="translate(25.584963, 4.586044) scale(-1, 1) translate(-25.584963, -4.586044) "></path>
                    <path d="M14.211144,0 L14.211144,9.65288997 C14.211144,9.65288997 12.9818063,9.65288997 10.3879037,9.40632059 C7.79400113,9.1597512 6.56466341,8.85155725 6.56466341,8.85155725 C6.56466341,8.85155725 7.64648061,5.5353053 9.79782161,2.89709743 C11.9491626,0.258889557 14.211144,0 14.211144,0 Z" id="Path-5"></path>
                    <path d="M23.684001,0 L23.684001,9.65288997 C23.684001,9.65288997 22.4546633,9.65288997 19.8607607,9.40632059 C17.2668581,9.1597512 16.0375204,8.85155725 16.0375204,8.85155725 C16.0375204,8.85155725 17.1193376,5.5353053 19.2706786,2.89709743 C21.4220196,0.258889557 23.684001,0 23.684001,0 Z" id="Path-5-Copy" transform="translate(19.860761, 4.826445) scale(-1, 1) translate(-19.860761, -4.826445) "></path>
                </g>
                <g id="Group-bottom-1" transform="translate(21.000000, 27.804722) scale(1, -1) translate(-21.000000, -27.804722) translate(0.000000, 21.413418)">
                    <path d="M11.863109,2.86011321 C11.863109,2.86011321 14.072765,3.25085918 15.4527751,3.40254847 C16.8018947,3.55084231 20.0750849,3.73540647 20.0750849,3.73540647 L20.0750849,12.3034269 L10.4985441,12.3034269 C10.4985441,12.3034269 10.5723044,9.71452244 10.9411057,7.16261109 C11.309907,4.61069974 11.863109,2.86011321 11.863109,2.86011321 Z" id="Path-2"></path>
                    <path d="M23.2581466,2.86011321 C23.2581466,2.86011321 25.4678027,3.25085918 26.8478128,3.40254847 C28.1969324,3.55084231 31.4701226,3.73540647 31.4701226,3.73540647 L31.4701226,12.3034269 L21.8935818,12.3034269 C21.8935818,12.3034269 21.967342,9.71452244 22.3361433,7.16261109 C22.7049446,4.61069974 23.2581466,2.86011321 23.2581466,2.86011321 Z" id="Path-2" transform="translate(26.681852, 7.581770) scale(-1, 1) translate(-26.681852, -7.581770) "></path>
                    <path d="M10.0928627,2.42863061 C10.0928627,2.42863061 9.4781938,4.73398048 9.14627262,7.16261109 C8.81435144,9.5912417 8.66683091,12.303418 8.66683091,12.303418 L0,12.303418 C0,12.303418 0.221596423,8.06189471 1.64731254,5.05451041 C3.78636017,0.542435263 4.64689657,-1.33226763e-14 4.64689657,-1.33226763e-14 C4.64689657,-1.33226763e-14 5.48284622,0.690372153 6.71218394,1.24513549 C7.94152166,1.79989883 10.0928627,2.42863061 10.0928627,2.42863061 Z" id="Path-3"></path>
                    <path d="M41.9712656,2.42863061 C41.9712656,2.42863061 41.3565967,4.73398048 41.0246755,7.16261109 C40.6927543,9.5912417 40.5452338,12.303418 40.5452338,12.303418 L31.8784029,12.303418 C31.8784029,12.303418 32.0999993,8.06189471 33.5257154,5.05451041 C35.6647631,0.542435263 36.5252995,-1.33226763e-14 36.5252995,-1.33226763e-14 C36.5252995,-1.33226763e-14 37.3612491,0.690372153 38.5905868,1.24513549 C39.8199246,1.79989883 41.9712656,2.42863061 41.9712656,2.42863061 Z" id="Path-3-Copy" transform="translate(36.924834, 6.151709) scale(-1, 1) translate(-36.924834, -6.151709) "></path>
                </g>
                <g id="Group-top-1" transform="translate(0.000000, 7.754359)">
                    <path d="M11.863109,2.86011321 C11.863109,2.86011321 14.072765,3.25085918 15.4527751,3.40254847 C16.8018947,3.55084231 20.0750849,3.73540647 20.0750849,3.73540647 L20.0750849,12.3034269 L10.4985441,12.3034269 C10.4985441,12.3034269 10.5723044,9.71452244 10.9411057,7.16261109 C11.309907,4.61069974 11.863109,2.86011321 11.863109,2.86011321 Z" id="Path-2"></path>
                    <path d="M23.2581466,2.86011321 C23.2581466,2.86011321 25.4678027,3.25085918 26.8478128,3.40254847 C28.1969324,3.55084231 31.4701226,3.73540647 31.4701226,3.73540647 L31.4701226,12.3034269 L21.8935818,12.3034269 C21.8935818,12.3034269 21.967342,9.71452244 22.3361433,7.16261109 C22.7049446,4.61069974 23.2581466,2.86011321 23.2581466,2.86011321 Z" id="Path-2" transform="translate(26.681852, 7.581770) scale(-1, 1) translate(-26.681852, -7.581770) "></path>
                    <path d="M10.0928627,2.42863061 C10.0928627,2.42863061 9.4781938,4.73398048 9.14627262,7.16261109 C8.81435144,9.5912417 8.66683091,12.303418 8.66683091,12.303418 L0,12.303418 C0,12.303418 0.221596423,8.06189471 1.64731254,5.05451041 C3.78636017,0.542435263 4.64689657,0 4.64689657,0 C4.64689657,0 5.48284622,0.690372153 6.71218394,1.24513549 C7.94152166,1.79989883 10.0928627,2.42863061 10.0928627,2.42863061 Z" id="Path-3"></path>
                    <path d="M41.9712656,2.42863061 C41.9712656,2.42863061 41.3565967,4.73398048 41.0246755,7.16261109 C40.6927543,9.5912417 40.5452338,12.303418 40.5452338,12.303418 L31.8784029,12.303418 C31.8784029,12.303418 32.0999993,8.06189471 33.5257154,5.05451041 C35.6647631,0.542435263 36.5252995,0 36.5252995,0 C36.5252995,0 37.3612491,0.690372153 38.5905868,1.24513549 C39.8199246,1.79989883 41.9712656,2.42863061 41.9712656,2.42863061 Z" id="Path-3-Copy" transform="translate(36.924834, 6.151709) scale(-1, 1) translate(-36.924834, -6.151709) "></path>
                </g>
                <g id="Group-top-2" transform="translate(5.863941, 0.000000)">
                    <path d="M9.29379315,0.73968445 C9.29379315,0.73968445 7.43749319,1.08487053 4.46249592,2.84778513 C1.48749864,4.61069974 0,6.37361434 0,6.37361434 C0,6.37361434 0.602375482,6.90372153 2.00382048,7.49546909 C3.40526548,8.08721665 4.76983035,8.43240273 4.76983035,8.43240273 C4.76983035,8.43240273 5.51972635,6.21334938 6.77365083,4.08059255 C8.0275753,1.94783572 9.29379315,0.73968445 9.29379315,0.73968445 Z" id="Path-4"></path>
                    <path d="M30.2318599,0.73968445 C30.2318599,0.73968445 28.37556,1.08487053 25.4005627,2.84778513 C22.4255654,4.61069974 20.9380668,6.37361434 20.9380668,6.37361434 C20.9380668,6.37361434 21.5404423,6.90372153 22.9418873,7.49546909 C24.3433323,8.08721665 25.7078971,8.43240273 25.7078971,8.43240273 C25.7078971,8.43240273 26.4577931,6.21334938 27.7117176,4.08059255 C28.9656421,1.94783572 30.2318599,0.73968445 30.2318599,0.73968445 Z" id="Path-4-Copy" transform="translate(25.584963, 4.586044) scale(-1, 1) translate(-25.584963, -4.586044) "></path>
                    <path d="M14.211144,0 L14.211144,9.65288997 C14.211144,9.65288997 12.9818063,9.65288997 10.3879037,9.40632059 C7.79400113,9.1597512 6.56466341,8.85155725 6.56466341,8.85155725 C6.56466341,8.85155725 7.64648061,5.5353053 9.79782161,2.89709743 C11.9491626,0.258889557 14.211144,0 14.211144,0 Z" id="Path-5"></path>
                    <path d="M23.684001,0 L23.684001,9.65288997 C23.684001,9.65288997 22.4546633,9.65288997 19.8607607,9.40632059 C17.2668581,9.1597512 16.0375204,8.85155725 16.0375204,8.85155725 C16.0375204,8.85155725 17.1193376,5.5353053 19.2706786,2.89709743 C21.4220196,0.258889557 23.684001,0 23.684001,0 Z" id="Path-5-Copy" transform="translate(19.860761, 4.826445) scale(-1, 1) translate(-19.860761, -4.826445) "></path>
                </g>
            </g>
        </g>
    </g>
</svg>