<?xml version="1.0" encoding="UTF-8"?>
<svg width="56px" height="56px" viewBox="0 0 56 56" version="1.1" xmlns="http://www.w3.org/2000/svg" xmlns:xlink="http://www.w3.org/1999/xlink">
    <!-- Generator: Sketch 52.1 (67048) - http://www.bohemiancoding.com/sketch -->
    <title>zoom_in</title>
    <desc>Created with Sketch.</desc>
    <g id="Page-1" stroke="none" stroke-width="1" fill="none" fill-rule="evenodd">
        <g id="zoom_in" transform="translate(7.000000, 5.000000)">
            <path d="M20,16 L27.008845,16 C28.1085295,16 29,16.8877296 29,18 C29,19.1045695 28.1103261,20 27.008845,20 L20,20 L20,27.008845 C20,28.1085295 19.1122704,29 18,29 C16.8954305,29 16,28.1103261 16,27.008845 L16,20 L8.991155,20 C7.89147046,20 7,19.1122704 7,18 C7,16.8954305 7.88967395,16 8.991155,16 L16,16 L16,8.991155 C16,7.89147046 16.8877296,7 18,7 C19.1045695,7 20,7.88967395 20,8.991155 L20,16 Z" id="Path" fill="#000000"></path>
            <path d="M27.5857864,30.5857864 C28.366835,29.8047379 29.633165,29.8047379 30.4142136,30.5857864 L41.7279221,41.8994949 C42.5089706,42.6805435 42.5089706,43.9468735 41.7279221,44.7279221 C40.9468735,45.5089706 39.6805435,45.5089706 38.8994949,44.7279221 L27.5857864,33.4142136 C26.8047379,32.633165 26.8047379,31.366835 27.5857864,30.5857864 Z" id="Rectangle-67" fill="#000000"></path>
            <circle id="Oval-34" stroke="#000000" stroke-width="4" cx="18" cy="18" r="16"></circle>
        </g>
    </g>
</svg>