<?xml version="1.0" encoding="UTF-8"?>
<svg width="56px" height="56px" viewBox="0 0 56 56" version="1.1" xmlns="http://www.w3.org/2000/svg" xmlns:xlink="http://www.w3.org/1999/xlink">
    <!-- Generator: Sketch 52.1 (67048) - http://www.bohemiancoding.com/sketch -->
    <title>zoom_out</title>
    <desc>Created with Sketch.</desc>
    <g id="Page-1" stroke="none" stroke-width="1" fill="none" fill-rule="evenodd">
        <g id="zoom_out" transform="translate(7.000000, 5.000000)">
            <path d="M9,16 L27,16 C28.1045695,16 29,16.8954305 29,18 C29,19.1045695 28.1045695,20 27,20 L9,20 C7.8954305,20 7,19.1045695 7,18 C7,16.8954305 7.8954305,16 9,16 Z" id="Rectangle" fill="#000000"></path>
            <path d="M27.5857864,30.5857864 C28.366835,29.8047379 29.633165,29.8047379 30.4142136,30.5857864 L41.7279221,41.8994949 C42.5089706,42.6805435 42.5089706,43.9468735 41.7279221,44.7279221 C40.9468735,45.5089706 39.6805435,45.5089706 38.8994949,44.7279221 L27.5857864,33.4142136 C26.8047379,32.633165 26.8047379,31.366835 27.5857864,30.5857864 Z" id="Rectangle-67" fill="#000000"></path>
            <circle id="Oval-34" stroke="#000000" stroke-width="4" cx="18" cy="18" r="16"></circle>
        </g>
    </g>
</svg>