<svg xmlns="http://www.w3.org/2000/svg" width="56" height="56" viewBox="0 0 56 56">
  <g fill-rule="evenodd" transform="translate(7 5)">
    <path d="M20,16 L27.008845,16 C28.1085295,16 29,16.8877296 29,18 C29,19.1045695 28.1103261,20 27.008845,20 L20,20 L20,27.008845 C20,28.1085295 19.1122704,29 18,29 C16.8954305,29 16,28.1103261 16,27.008845 L16,20 L8.991155,20 C7.89147046,20 7,19.1122704 7,18 C7,16.8954305 7.88967395,16 8.991155,16 L16,16 L16,8.991155 C16,7.89147046 16.8877296,7 18,7 C19.1045695,7 20,7.88967395 20,8.991155 L20,16 Z"/>
    <path d="M30.6418483,30.8134212 L41.7279221,41.8994949 C42.5089706,42.6805435 42.5089706,43.9468735 41.7279221,44.7279221 C40.9468735,45.5089706 39.6805435,45.5089706 38.8994949,44.7279221 L27.5857864,33.4142136 C27.5496355,33.3780627 27.5151579,33.3408721 27.4823535,33.3027382 C24.7287798,35.0126154 21.4796979,36 18,36 C8.0588745,36 0,27.9411255 0,18 C0,8.0588745 8.0588745,0 18,0 C27.9411255,0 36,8.0588745 36,18 C36,23.0141982 33.9497525,27.5495355 30.6418483,30.8134212 Z M18,32 C25.7319865,32 32,25.7319865 32,18 C32,10.2680135 25.7319865,4 18,4 C10.2680135,4 4,10.2680135 4,18 C4,25.7319865 10.2680135,32 18,32 Z"/>
  </g>
</svg>
