<?xml version="1.0" encoding="UTF-8"?>
<svg width="56px" height="56px" viewBox="0 0 56 56" version="1.1" xmlns="http://www.w3.org/2000/svg" xmlns:xlink="http://www.w3.org/1999/xlink">
    <!-- Generator: Sketch 52.1 (67048) - http://www.bohemiancoding.com/sketch -->
    <title>zoom_out</title>
    <desc>Created with Sketch.</desc>
    <g id="Page-1" stroke="none" stroke-width="1" fill="none" fill-rule="evenodd">
        <g id="zoom_out" transform="translate(7.000000, 5.000000)" fill="#000000">
            <path d="M9,16 L27,16 C28.1045695,16 29,16.8954305 29,18 C29,19.1045695 28.1045695,20 27,20 L9,20 C7.8954305,20 7,19.1045695 7,18 C7,16.8954305 7.8954305,16 9,16 Z" id="Rectangle"></path>
            <path d="M30.6418483,30.8134212 L41.7279221,41.8994949 C42.5089706,42.6805435 42.5089706,43.9468735 41.7279221,44.7279221 C40.9468735,45.5089706 39.6805435,45.5089706 38.8994949,44.7279221 L27.5857864,33.4142136 C27.5496355,33.3780627 27.5151579,33.3408721 27.4823535,33.3027382 C24.7287798,35.0126154 21.4796979,36 18,36 C8.0588745,36 0,27.9411255 0,18 C0,8.0588745 8.0588745,0 18,0 C27.9411255,0 36,8.0588745 36,18 C36,23.0141982 33.9497525,27.5495355 30.6418483,30.8134212 Z M18,32 C25.7319865,32 32,25.7319865 32,18 C32,10.2680135 25.7319865,4 18,4 C10.2680135,4 4,10.2680135 4,18 C4,25.7319865 10.2680135,32 18,32 Z" id="Shape"></path>
        </g>
    </g>
</svg>